<svg width="324" height="383" viewBox="0 0 324 383" fill="none" xmlns="http://www.w3.org/2000/svg">
<g clip-path="url(#clip0_26_3168)">
<mask id="mask0_26_3168" style="mask-type:luminance" maskUnits="userSpaceOnUse" x="0" y="285" width="323" height="97">
<path d="M0.711365 285.667H322.827V381.723H0.711365V285.667Z" fill="white"/>
</mask>
<g mask="url(#mask0_26_3168)">
<path d="M321.202 287.825C321.592 339.35 249.802 380.771 161.717 380.771C73.6452 380.771 2.24597 339.149 2.24597 287.825C2.24597 317.788 73.6452 342.097 161.717 342.097C249.802 342.097 321.423 317.788 321.202 287.825Z" fill="#773CA8"/>
</g>
<mask id="mask1_26_3168" style="mask-type:luminance" maskUnits="userSpaceOnUse" x="0" y="285" width="323" height="98">
<path d="M0.711365 285.667H322.827V382.285H0.711365V285.667Z" fill="white"/>
</mask>
<g mask="url(#mask1_26_3168)">
<path d="M161.717 382.285C72.982 382.285 0.789383 339.899 0.789383 287.824C0.789383 286.993 1.43965 286.31 2.24598 286.31C3.06531 286.31 3.71558 286.993 3.71558 287.824C3.71558 301.413 20.3754 314.88 49.4163 324.77C79.3936 334.968 119.281 340.583 161.717 340.583C230.542 340.583 291.055 325.775 312.293 303.731C317.274 298.558 319.771 293.211 319.732 287.838C319.732 286.993 320.382 286.323 321.189 286.31H321.202C322.008 286.31 322.658 286.98 322.658 287.811C322.788 304.2 315.661 320.321 302.071 334.432C273.628 363.94 219.851 382.285 161.717 382.285ZM5.44529 301.386C16.812 345.393 82.5669 379.27 161.717 379.27C219.097 379.27 272.081 361.273 299.99 332.301C309.211 322.733 315.336 312.227 318.08 301.386C317.027 302.9 315.792 304.387 314.374 305.848C292.616 328.428 231.27 343.598 161.717 343.598C118.969 343.598 78.7694 337.929 48.5059 327.624C27.1382 320.361 12.4422 311.316 5.44529 301.386Z" fill="#582285"/>
</g>
<mask id="mask2_26_3168" style="mask-type:luminance" maskUnits="userSpaceOnUse" x="0" y="230" width="323" height="114">
<path d="M0.711365 230.778H322.827V343.987H0.711365V230.778Z" fill="white"/>
</mask>
<g mask="url(#mask2_26_3168)">
<path d="M321.202 287.825C321.202 317.788 249.802 342.097 161.717 342.097C73.6452 342.097 2.24597 317.788 2.24597 287.825C2.24597 257.848 73.6452 233.552 161.717 233.552C249.802 233.552 321.202 257.848 321.202 287.825Z" fill="#A06ACC"/>
<path d="M161.717 343.598C118.969 343.598 78.7564 337.93 48.4929 327.625C17.7353 317.159 0.789383 303.021 0.789383 287.825C0.789383 272.629 17.7353 258.491 48.4929 248.012C78.7564 237.707 118.969 232.038 161.717 232.038C204.466 232.038 244.691 237.707 274.955 248.012C305.725 258.491 322.658 272.615 322.658 287.825C322.658 303.021 305.712 317.159 274.955 327.625C244.691 337.93 204.466 343.598 161.717 343.598ZM161.717 235.053C119.281 235.053 79.3936 240.668 49.4163 250.879C20.3754 260.756 3.71558 274.223 3.71558 287.825C3.71558 301.413 20.3754 314.881 49.4163 324.77C79.3936 334.968 119.281 340.583 161.717 340.583C204.167 340.583 244.054 334.968 274.031 324.77C303.072 314.881 319.732 301.413 319.732 287.825C319.732 274.223 303.072 260.756 274.031 250.879C244.054 240.668 204.167 235.053 161.717 235.053Z" fill="#582285"/>
</g>
<path d="M245.745 285.721L238.358 271.932H85.09L77.7029 285.721C77.0787 286.31 76.7535 286.9 76.7535 287.503C76.7535 294.069 114.794 302.994 161.73 302.994C208.654 302.994 246.694 294.069 246.694 287.503C246.694 286.9 246.369 286.31 245.745 285.721Z" fill="#CACFF7"/>
<path d="M161.73 304.495C117.291 304.495 75.2839 296.24 75.2839 287.503C75.2839 286.538 75.7001 285.627 76.5324 284.783L83.8154 271.195C84.0625 270.712 84.5567 270.417 85.0899 270.417H238.358C238.891 270.417 239.385 270.712 239.645 271.195L246.915 284.783C247.748 285.627 248.164 286.538 248.164 287.503C248.164 296.24 206.157 304.495 161.73 304.495ZM85.9483 273.433L78.9904 286.458C78.9124 286.592 78.8083 286.726 78.6783 286.847C78.3141 287.195 78.2101 287.423 78.2101 287.503C78.2101 291.537 111.491 301.493 161.73 301.493C211.957 301.493 245.238 291.537 245.238 287.503C245.238 287.423 245.134 287.195 244.769 286.847C244.639 286.726 244.548 286.592 244.47 286.458L237.499 273.433H85.9483Z" fill="#582285"/>
<path d="M166.074 293.815C166.074 296.28 164.123 298.29 161.73 298.29C159.324 298.29 157.374 296.28 157.374 293.815C157.374 291.336 159.324 289.339 161.73 289.339C164.123 289.339 166.074 291.336 166.074 293.815Z" fill="#8F97D9"/>
<path d="M161.73 299.791C158.518 299.791 155.917 297.111 155.917 293.815C155.917 290.518 158.518 287.825 161.73 287.825C164.93 287.825 167.531 290.518 167.531 293.815C167.531 297.111 164.93 299.791 161.73 299.791ZM161.73 290.84C160.131 290.84 158.843 292.18 158.843 293.815C158.843 295.45 160.131 296.776 161.73 296.776C163.317 296.776 164.605 295.45 164.605 293.815C164.605 292.18 163.317 290.84 161.73 290.84Z" fill="#626BB5"/>
<path d="M129.789 291.939C129.789 294.404 127.838 296.414 125.445 296.414C123.04 296.414 121.102 294.404 121.102 291.939C121.102 289.46 123.04 287.463 125.445 287.463C127.838 287.463 129.789 289.46 129.789 291.939Z" fill="#8F97D9"/>
<path d="M125.445 297.915C122.233 297.915 119.632 295.235 119.632 291.939C119.632 288.642 122.233 285.949 125.445 285.949C128.645 285.949 131.259 288.642 131.259 291.939C131.259 295.235 128.645 297.915 125.445 297.915ZM125.445 288.964C123.859 288.964 122.558 290.304 122.558 291.939C122.558 293.574 123.859 294.9 125.445 294.9C127.032 294.9 128.333 293.574 128.333 291.939C128.333 290.304 127.032 288.964 125.445 288.964Z" fill="#626BB5"/>
<path d="M99.4088 286.967C99.4088 289.433 97.471 291.443 95.065 291.443C92.659 291.443 90.7213 289.433 90.7213 286.967C90.7213 284.488 92.659 282.478 95.065 282.478C97.471 282.478 99.4088 284.488 99.4088 286.967Z" fill="#8F97D9"/>
<path d="M95.065 292.944C91.8527 292.944 89.2516 290.264 89.2516 286.967C89.2516 283.657 91.8657 280.977 95.065 280.977C98.2643 280.977 100.878 283.657 100.878 286.967C100.878 290.264 98.2643 292.944 95.065 292.944ZM95.065 283.992C93.4784 283.992 92.1778 285.319 92.1778 286.967C92.1778 288.602 93.4784 289.929 95.065 289.929C96.6517 289.929 97.9522 288.602 97.9522 286.967C97.9522 285.319 96.6517 283.992 95.065 283.992Z" fill="#626BB5"/>
<path d="M193.658 291.939C193.658 294.404 195.609 296.414 198.002 296.414C200.408 296.414 202.359 294.404 202.359 291.939C202.359 289.46 200.408 287.463 198.002 287.463C195.609 287.463 193.658 289.46 193.658 291.939Z" fill="#8F97D9"/>
<path d="M198.002 297.915C194.803 297.915 192.202 295.235 192.202 291.939C192.202 288.642 194.803 285.949 198.002 285.949C201.215 285.949 203.816 288.642 203.816 291.939C203.816 295.235 201.215 297.915 198.002 297.915ZM198.002 288.964C196.416 288.964 195.128 290.304 195.128 291.939C195.128 293.574 196.416 294.9 198.002 294.9C199.602 294.9 200.889 293.574 200.889 291.939C200.889 290.304 199.602 288.964 198.002 288.964Z" fill="#626BB5"/>
<path d="M232.726 286.967C232.726 287.557 232.622 288.12 232.401 288.669C232.18 289.219 231.868 289.701 231.452 290.13C231.049 290.545 230.581 290.867 230.047 291.095C229.514 291.322 228.955 291.443 228.383 291.443C227.81 291.443 227.251 291.322 226.718 291.095C226.185 290.867 225.717 290.545 225.313 290.13C224.897 289.701 224.585 289.219 224.364 288.669C224.143 288.12 224.039 287.557 224.039 286.967C224.039 286.364 224.143 285.801 224.364 285.252C224.585 284.703 224.897 284.22 225.313 283.791C225.717 283.376 226.185 283.054 226.718 282.826C227.251 282.599 227.81 282.478 228.383 282.478C228.955 282.478 229.514 282.599 230.047 282.826C230.581 283.054 231.049 283.376 231.452 283.791C231.868 284.22 232.18 284.703 232.401 285.252C232.622 285.801 232.726 286.364 232.726 286.967Z" fill="#8F97D9"/>
<path d="M228.383 292.944C225.183 292.944 222.569 290.264 222.569 286.967C222.569 283.657 225.183 280.977 228.383 280.977C231.595 280.977 234.196 283.657 234.196 286.967C234.196 290.264 231.595 292.944 228.383 292.944ZM228.383 283.992C226.796 283.992 225.496 285.319 225.496 286.967C225.496 288.602 226.796 289.929 228.383 289.929C229.969 289.929 231.27 288.602 231.27 286.967C231.27 285.319 229.969 283.992 228.383 283.992Z" fill="#626BB5"/>
<path d="M238.358 271.932C238.358 272.32 238.241 272.709 237.994 273.084C237.747 273.473 237.369 273.861 236.888 274.25C236.394 274.625 235.783 275 235.054 275.376C234.326 275.751 233.481 276.113 232.518 276.475C231.569 276.836 230.49 277.185 229.306 277.533C228.123 277.868 226.835 278.203 225.444 278.525C224.052 278.846 222.556 279.168 220.957 279.463C219.37 279.758 217.692 280.053 215.911 280.334C214.142 280.602 212.282 280.87 210.344 281.111C208.394 281.352 206.391 281.594 204.297 281.808C202.216 282.022 200.057 282.223 197.846 282.411C195.635 282.585 193.372 282.759 191.044 282.907C188.729 283.054 186.375 283.188 183.97 283.295C181.564 283.403 179.132 283.51 176.674 283.577C174.216 283.657 171.731 283.711 169.234 283.751C166.737 283.791 164.24 283.805 161.73 283.805C159.22 283.805 156.71 283.791 154.213 283.751C151.716 283.711 149.232 283.657 146.774 283.577C144.316 283.51 141.884 283.403 139.478 283.295C137.072 283.188 134.718 283.054 132.403 282.907C130.075 282.759 127.812 282.585 125.602 282.411C123.391 282.223 121.232 282.022 119.151 281.808C117.057 281.594 115.054 281.352 113.103 281.111C111.166 280.87 109.306 280.602 107.537 280.334C105.755 280.053 104.078 279.758 102.491 279.463C100.891 279.168 99.3958 278.846 98.0043 278.525C96.6127 278.203 95.3252 277.868 94.1417 277.533C92.9582 277.185 91.8787 276.836 90.9294 276.475C89.967 276.113 89.1216 275.751 88.3933 275.376C87.665 275 87.0538 274.625 86.5596 274.25C86.0784 273.861 85.7012 273.473 85.4541 273.084C85.22 272.709 85.09 272.32 85.09 271.932C85.09 271.53 85.22 271.155 85.4541 270.766C85.7012 270.377 86.0784 269.989 86.5596 269.613C87.0538 269.225 87.665 268.85 88.3933 268.474C89.1216 268.099 89.967 267.737 90.9294 267.376C91.8787 267.014 92.9582 266.665 94.1417 266.33C95.3252 265.982 96.6127 265.647 98.0043 265.325C99.3958 265.004 100.891 264.682 102.491 264.387C104.078 264.092 105.755 263.798 107.537 263.53C109.306 263.248 111.166 262.994 113.103 262.739C115.054 262.498 117.057 262.257 119.151 262.042C121.232 261.828 123.391 261.627 125.602 261.452C127.812 261.265 130.075 261.091 132.403 260.943C134.718 260.796 137.072 260.662 139.478 260.555C141.884 260.447 144.316 260.354 146.774 260.273C149.232 260.193 151.716 260.139 154.213 260.099C156.71 260.059 159.22 260.045 161.73 260.045C164.24 260.045 166.737 260.059 169.234 260.099C171.731 260.139 174.216 260.193 176.674 260.273C179.132 260.354 181.564 260.447 183.97 260.555C186.375 260.662 188.729 260.796 191.044 260.943C193.372 261.091 195.635 261.265 197.846 261.452C200.057 261.627 202.216 261.828 204.297 262.042C206.391 262.257 208.394 262.498 210.344 262.739C212.282 262.994 214.142 263.248 215.911 263.53C217.692 263.798 219.37 264.092 220.957 264.387C222.556 264.682 224.052 265.004 225.444 265.325C226.835 265.647 228.123 265.982 229.306 266.33C230.49 266.665 231.569 267.014 232.518 267.376C233.481 267.737 234.326 268.099 235.054 268.474C235.783 268.85 236.394 269.225 236.888 269.613C237.369 269.989 237.747 270.377 237.994 270.766C238.241 271.155 238.358 271.53 238.358 271.932Z" fill="#7940A8"/>
<path d="M161.73 285.319C130.335 285.319 83.6333 281.754 83.6333 271.931C83.6333 262.095 130.335 258.531 161.73 258.531C193.112 258.531 239.827 262.095 239.827 271.931C239.827 281.754 193.112 285.319 161.73 285.319ZM161.73 261.546C112.375 261.546 86.5595 268.3 86.5595 271.931C86.5595 275.55 112.375 282.303 161.73 282.303C211.073 282.303 236.888 275.55 236.888 271.931C236.888 268.3 211.073 261.546 161.73 261.546Z" fill="#582285"/>
<mask id="mask3_26_3168" style="mask-type:luminance" maskUnits="userSpaceOnUse" x="36" y="1" width="251" height="285">
<path d="M36.8531 1.49365H286.556V285.667H36.8531V1.49365Z" fill="white"/>
</mask>
<g mask="url(#mask3_26_3168)">
<path d="M161.73 3.00781C83.3212 3.00781 31.612 45.4609 39.6233 132.35C47.6346 219.24 84.7778 270.323 84.7778 270.323C84.7778 270.323 85.09 271.382 85.09 271.931C85.09 278.484 119.398 283.804 161.73 283.804C204.05 283.804 238.358 278.484 238.358 271.931C238.358 271.382 238.67 270.323 238.67 270.323C238.67 270.323 275.813 219.24 283.824 132.35C291.836 45.4609 240.127 3.00781 161.73 3.00781Z" fill="#96D8FF" fill-opacity="0.48"/>
</g>
<path d="M155.358 246.35C148.582 248.776 142.131 252.327 136.305 256.762C128.736 262.538 122.207 269.801 117.395 278.016C116.758 279.128 116.121 280.267 115.548 281.406C111.673 280.95 108.07 280.441 104.832 279.878C105.964 277.372 107.238 274.92 108.63 272.562C116.095 259.831 127.11 249.124 139.842 241.941C140.831 241.392 141.819 240.856 142.834 240.347C145.812 238.832 148.881 237.506 152.002 236.38C154.668 235.415 157.595 236.889 158.518 239.636C159.454 242.383 158.037 245.385 155.358 246.35Z" fill="#2CC96B"/>
<path d="M115.548 282.907C115.496 282.907 115.444 282.907 115.392 282.907C111.517 282.451 107.875 281.928 104.585 281.366C104.13 281.299 103.74 281.004 103.532 280.588C103.31 280.173 103.31 279.677 103.493 279.248C104.637 276.729 105.951 274.223 107.381 271.784C114.872 259.013 126.148 247.945 139.14 240.628C140.142 240.052 141.156 239.516 142.183 238.993C145.24 237.438 148.387 236.072 151.534 234.959C153.173 234.356 154.955 234.463 156.541 235.254C158.141 236.045 159.324 237.425 159.897 239.154C160.482 240.842 160.378 242.665 159.624 244.3C158.856 245.934 157.517 247.167 155.839 247.77C149.245 250.129 142.964 253.559 137.176 257.968C129.685 263.677 123.287 270.886 118.644 278.793C117.889 280.106 117.33 281.124 116.849 282.089C116.602 282.598 116.095 282.92 115.548 282.907ZM107.004 278.712C109.423 279.101 112.011 279.463 114.729 279.784C115.119 279.034 115.574 278.216 116.134 277.238C120.972 268.997 127.643 261.493 135.434 255.556C141.468 250.96 148.01 247.382 154.877 244.929C155.813 244.594 156.554 243.898 156.983 242.986C157.4 242.088 157.452 241.083 157.14 240.145C156.814 239.181 156.151 238.403 155.267 237.974C154.395 237.532 153.407 237.479 152.497 237.814C149.466 238.886 146.436 240.199 143.484 241.7C142.482 242.209 141.507 242.718 140.558 243.268C128.008 250.343 117.109 261.024 109.878 273.339C108.851 275.094 107.875 276.903 107.004 278.712Z" fill="#17733C"/>
<path d="M224.442 278.739C221.347 279.436 217.809 280.066 213.869 280.628C213.401 279.731 212.919 278.873 212.412 278.015C207.379 269.439 200.525 261.921 192.527 256.025C192.514 256.025 192.514 256.011 192.501 256.011C189.458 253.774 186.271 251.777 182.942 250.075C180.198 248.628 177.35 247.381 174.463 246.35C171.784 245.385 170.353 242.383 171.289 239.636C172.174 237.023 174.853 235.576 177.402 236.246C177.545 236.299 177.675 236.339 177.805 236.38C180.614 237.398 183.384 238.564 186.076 239.89C186.089 239.89 186.102 239.89 186.102 239.917C187.403 240.547 188.69 241.244 189.952 241.941C202.697 249.124 213.726 259.831 221.191 272.561C222.348 274.558 223.454 276.622 224.442 278.739Z" fill="#2CC96B"/>
<path d="M213.869 282.129C213.336 282.129 212.841 281.835 212.581 281.339C212.126 280.468 211.645 279.623 211.164 278.793C206.326 270.551 199.615 263.114 191.76 257.311C191.721 257.285 191.682 257.258 191.656 257.244C188.586 254.993 185.439 253.037 182.292 251.415C179.652 250.035 176.856 248.802 173.981 247.77C172.304 247.167 170.951 245.934 170.197 244.299C169.43 242.665 169.339 240.842 169.911 239.14C171.016 235.83 174.476 233.914 177.766 234.785L178.221 234.946C181.121 235.978 183.956 237.184 186.688 238.524C186.701 238.537 186.714 238.537 186.74 238.551C187.923 239.127 189.159 239.783 190.654 240.628C203.66 247.944 214.935 259 222.439 271.784C223.662 273.888 224.78 276.005 225.769 278.082C225.964 278.498 225.964 278.98 225.769 279.396C225.574 279.811 225.196 280.119 224.754 280.213C221.594 280.923 218.004 281.553 214.064 282.116C213.999 282.129 213.934 282.129 213.869 282.129ZM193.268 254.725C193.307 254.752 193.346 254.779 193.385 254.792C201.592 260.849 208.615 268.608 213.674 277.238C214.012 277.814 214.337 278.391 214.662 278.98C217.393 278.578 219.942 278.136 222.283 277.667C221.555 276.22 220.775 274.772 219.929 273.339C212.698 261.01 201.8 250.33 189.25 243.268C187.806 242.464 186.61 241.82 185.478 241.271H185.465C185.452 241.257 185.452 241.257 185.439 241.257C182.799 239.958 180.068 238.792 177.324 237.814L176.986 237.693C175.204 237.224 173.292 238.283 172.681 240.132C172.356 241.083 172.408 242.088 172.837 242.986C173.253 243.897 174.007 244.594 174.944 244.929C177.948 246.001 180.861 247.288 183.618 248.735C186.844 250.383 190.108 252.407 193.268 254.725Z" fill="#17733C"/>
<path d="M201.358 282.102C199.069 282.317 196.715 282.504 194.283 282.665C184.412 283.389 173.37 283.804 161.73 283.804C149.479 283.804 137.905 283.362 127.63 282.571C129.763 274.37 132.898 265.579 136.305 256.762C138.425 251.268 140.662 245.747 142.834 240.346C143.939 237.586 145.045 234.879 146.098 232.212H183.02C184.009 234.745 185.049 237.304 186.102 239.917C186.571 241.07 187.039 242.249 187.507 243.442C189.198 247.596 190.888 251.817 192.527 256.025C192.982 257.191 193.424 258.343 193.854 259.522C194.153 260.273 194.452 261.037 194.725 261.814C195.297 263.328 195.856 264.869 196.39 266.383C196.936 267.898 197.456 269.412 197.963 270.913C198.223 271.65 198.47 272.4 198.705 273.164C199.433 275.389 200.109 277.586 200.72 279.771C200.941 280.561 201.163 281.325 201.371 282.102C201.54 282.759 201.709 283.429 201.865 284.072C201.709 283.429 201.527 282.759 201.358 282.102Z" fill="#2CC96B"/>
<path d="M201.358 282.102C199.069 282.317 196.715 282.504 194.283 282.665C191.591 272.36 187.364 261.13 182.942 250.075C181.095 245.398 179.21 240.775 177.402 236.245C176.856 234.892 176.309 233.539 175.789 232.212H183.007C183.995 234.731 185.036 237.304 186.076 239.89C186.545 241.07 187.026 242.249 187.507 243.442C189.185 247.596 190.875 251.804 192.501 256.011C192.969 257.191 193.411 258.343 193.867 259.522C194.153 260.273 194.452 261.037 194.725 261.814C195.297 263.328 195.856 264.869 196.39 266.383C196.936 267.898 197.443 269.412 197.963 270.913C198.223 271.65 198.47 272.4 198.705 273.164C199.42 275.389 200.109 277.586 200.72 279.771C200.941 280.561 201.15 281.325 201.358 282.102Z" fill="#33E87B"/>
<path d="M191.096 252.42C181.876 256.132 172.005 258.249 161.73 258.249C153.277 258.249 145.058 256.802 137.293 254.229C140.207 246.778 143.289 239.341 146.098 232.212H183.007C185.595 238.751 188.404 245.572 191.096 252.42Z" fill="#0DA14D"/>
<path d="M161.73 285.305C149.609 285.305 138.1 284.89 127.513 284.072C127.084 284.032 126.681 283.804 126.434 283.443C126.174 283.067 126.096 282.612 126.213 282.169C128.06 275.081 130.83 266.826 134.939 256.199C136.682 251.683 138.516 247.127 140.298 242.705L141.858 238.819C142.847 236.393 143.809 233.994 144.732 231.636C144.967 231.073 145.5 230.698 146.098 230.698H183.02C183.618 230.698 184.152 231.073 184.373 231.649C185.27 233.927 186.206 236.232 187.143 238.564L187.455 239.328C187.923 240.494 188.391 241.673 188.873 242.879C190.55 247.02 192.241 251.254 193.893 255.462C194.348 256.628 194.79 257.794 195.232 258.986C195.518 259.723 195.817 260.501 196.09 261.291C196.663 262.792 197.222 264.347 197.768 265.861C198.314 267.389 198.848 268.916 199.342 270.431C199.602 271.154 199.862 271.931 200.096 272.695C200.837 274.947 201.527 277.198 202.138 279.355L202.294 279.918C202.463 280.521 202.619 281.111 202.775 281.7C202.996 282.505 202.541 283.335 201.761 283.55C201.644 283.59 201.54 283.603 201.436 283.603C199.16 283.818 196.806 284.005 194.387 284.18C184.113 284.93 173.123 285.305 161.73 285.305ZM129.516 281.191C139.53 281.928 150.364 282.29 161.73 282.29C173.058 282.29 183.969 281.915 194.179 281.164C195.986 281.044 197.755 280.91 199.472 280.762L199.316 280.2C198.731 278.082 198.054 275.871 197.326 273.647C197.079 272.883 196.845 272.159 196.585 271.436C196.077 269.908 195.557 268.407 195.024 266.893C194.478 265.405 193.932 263.878 193.359 262.363C193.086 261.586 192.787 260.822 192.501 260.085C192.059 258.893 191.63 257.74 191.174 256.588C189.536 252.393 187.845 248.172 186.167 244.018C185.686 242.825 185.218 241.646 184.75 240.494L184.451 239.73C183.631 237.693 182.812 235.696 182.032 233.713H147.073C146.254 235.777 145.422 237.867 144.563 239.984L143.003 243.871C141.234 248.266 139.4 252.822 137.658 257.325C133.938 266.96 131.324 274.612 129.516 281.191Z" fill="#17733C"/>
<path d="M253.145 127.526C253.145 174.844 212.217 239.006 161.73 239.006C111.231 239.006 70.3029 174.844 70.3029 127.526C70.3029 68.1484 104.182 39.4175 161.73 39.4175C212.217 39.4175 253.145 59.4246 253.145 127.526Z" fill="#2CC96B"/>
<path d="M253.145 127.513C253.145 158.803 235.263 197.451 208.563 220.031C226.757 197.585 238.163 167.929 238.163 142.951C238.163 74.8487 197.235 54.8416 146.735 54.8416C121.323 54.8416 100.514 60.443 85.22 71.8336C100.397 50.071 126.655 39.4175 161.73 39.4175C212.217 39.4175 253.145 59.438 253.145 127.513Z" fill="#33E87B"/>
<path d="M161.73 240.52C138.035 240.52 114.664 226.811 95.9234 201.94C79.2115 179.762 68.8463 151.245 68.8463 127.526C68.8463 98.0048 77.1177 75.3176 93.4524 60.0945C109.241 45.3672 132.208 37.9165 161.717 37.9165C223.35 37.9165 254.601 68.0545 254.601 127.526C254.601 151.245 244.223 179.762 227.524 201.94C208.784 226.811 185.413 240.52 161.73 240.52ZM161.73 40.9316C102.868 40.9316 71.7725 70.8686 71.7725 127.526C71.7725 150.616 81.9166 178.422 98.2383 200.091C116.42 224.212 138.958 237.505 161.73 237.505C184.49 237.505 207.028 224.212 225.209 200.091C241.544 178.422 251.675 150.616 251.675 127.526C251.675 96.3432 242.858 73.3343 225.456 59.1163C210.682 47.0423 189.237 40.9316 161.73 40.9316Z" fill="#17733C"/>
<path d="M183.215 185.457C183.02 151.407 210.292 131.775 239.255 144.478C237.955 179.494 203.386 191.421 183.215 185.457Z" fill="black"/>
<path d="M193.997 188.446C190.108 188.446 186.323 187.95 182.812 186.905C182.175 186.717 181.746 186.141 181.746 185.471C181.655 168.278 188.417 153.738 200.33 145.591C211.541 137.912 225.938 137.001 239.827 143.085C240.387 143.326 240.738 143.902 240.725 144.532C240.048 162.649 230.906 173.169 223.35 178.797C215 185.015 204.154 188.446 193.997 188.446ZM184.672 184.305C196.39 187.333 211.099 184.211 221.633 176.345C228.513 171.226 236.81 161.725 237.747 145.457C225.066 140.217 212.074 141.155 201.943 148.096C191.148 155.507 184.88 168.653 184.672 184.305Z" fill="black"/>
<path d="M230.333 160.546C230.333 163.44 228.058 165.785 225.248 165.785C222.439 165.785 220.15 163.44 220.15 160.546C220.15 157.651 222.426 155.292 225.248 155.292C228.058 155.292 230.333 157.651 230.333 160.546Z" fill="white"/>
<path d="M220.762 168.988C220.762 170.743 219.37 172.177 217.653 172.177C215.937 172.177 214.545 170.743 214.545 168.988C214.545 167.219 215.937 165.785 217.653 165.785C219.37 165.785 220.762 167.219 220.762 168.988Z" fill="white"/>
<path d="M207.639 151.487C200.109 158.428 194.374 166.804 191.005 176.653C190.472 178.221 188.144 177.819 188.118 176.184C187.936 167.393 192.319 158.763 198.822 153.202C201.006 151.34 203.477 149.812 206.157 148.887C206.937 148.606 207.782 149.048 208.055 149.852C208.25 150.442 208.068 151.085 207.639 151.487Z" fill="#4D4D4D"/>
<path d="M143.497 185.457C143.679 151.407 116.407 131.775 87.4439 144.478C88.7574 179.494 123.313 191.421 143.497 185.457Z" fill="black"/>
<path d="M132.702 188.446C122.545 188.446 111.712 185.015 103.349 178.797C95.8063 173.169 86.6636 162.649 85.9873 144.532C85.9613 143.902 86.3124 143.339 86.8717 143.085C100.761 137.001 115.158 137.912 126.382 145.591C138.282 153.738 145.058 168.278 144.953 185.471C144.953 186.141 144.524 186.717 143.9 186.905C140.389 187.95 136.591 188.446 132.702 188.446ZM88.9525 145.457C89.8889 161.725 98.1863 171.226 105.066 176.345C115.613 184.198 130.309 187.333 142.027 184.305C141.819 168.653 135.564 155.507 124.756 148.096C114.625 141.155 101.633 140.217 88.9525 145.457Z" fill="black"/>
<path d="M132.585 160.546C132.585 163.44 130.309 165.785 127.5 165.785C124.678 165.785 122.402 163.44 122.402 160.546C122.402 157.651 124.678 155.292 127.5 155.292C130.309 155.292 132.585 157.651 132.585 160.546Z" fill="white"/>
<path d="M123.013 168.988C123.013 170.743 121.622 172.177 119.905 172.177C118.189 172.177 116.797 170.743 116.797 168.988C116.797 167.219 118.189 165.785 119.905 165.785C121.622 165.785 123.013 167.219 123.013 168.988Z" fill="white"/>
<path d="M94.5709 149.611C99.9161 157.839 104.26 166.576 110.958 173.745C112.063 174.925 110.71 176.881 109.267 176.211C104.403 173.973 100.683 169.765 97.7832 165.316C94.974 160.854 92.8542 155.976 91.8658 150.763C91.7227 149.919 92.2559 149.115 93.0622 148.968C93.6605 148.847 94.2457 149.115 94.5709 149.611Z" fill="#4D4D4D"/>
<path d="M209.967 124.377C204.297 121.335 197.287 121.067 191.422 123.694C185.556 126.32 180.939 131.761 179.236 138.113C187.845 130.903 199.004 126.093 209.967 124.377Z" fill="#128240"/>
<path d="M179.236 139.627C178.962 139.627 178.676 139.547 178.442 139.386C177.909 139.024 177.662 138.354 177.831 137.711C179.665 130.89 184.529 125.128 190.836 122.314C197.144 119.486 204.557 119.768 210.656 123.051C211.216 123.346 211.515 123.989 211.411 124.632C211.307 125.275 210.812 125.771 210.188 125.865C199.264 127.567 188.313 132.458 180.159 139.292C179.899 139.507 179.561 139.627 179.236 139.627ZM199.953 123.413C197.222 123.413 194.491 123.962 192.007 125.074C188.157 126.79 184.841 129.885 182.682 133.637C189.133 129.215 196.741 125.838 204.531 123.935C203.035 123.587 201.501 123.413 199.953 123.413Z" fill="#0E6932"/>
<path d="M113.481 124.377C119.151 121.335 126.161 121.067 132.026 123.694C137.892 126.32 142.508 131.761 144.212 138.113C135.603 130.903 124.444 126.093 113.481 124.377Z" fill="#128240"/>
<path d="M144.212 139.627C143.887 139.627 143.562 139.507 143.289 139.292C135.134 132.458 124.184 127.567 113.26 125.865C112.635 125.771 112.141 125.275 112.037 124.632C111.933 123.989 112.232 123.346 112.791 123.051C118.891 119.768 126.304 119.486 132.611 122.314C138.919 125.128 143.783 130.89 145.617 137.711C145.786 138.354 145.539 139.024 145.006 139.386C144.771 139.547 144.485 139.627 144.212 139.627ZM118.917 123.935C126.707 125.838 134.315 129.215 140.766 133.637C138.607 129.885 135.291 126.79 131.441 125.074C127.565 123.346 123.079 122.971 118.917 123.935Z" fill="#0E6932"/>
<path d="M164.422 212.446C157.764 212.446 151.17 209.418 146.722 204.325C146.189 203.696 146.241 202.744 146.839 202.195C147.438 201.632 148.361 201.686 148.907 202.302C152.848 206.831 158.713 209.471 164.618 209.431C170.509 209.364 176.335 206.577 180.185 201.98C180.705 201.351 181.642 201.27 182.253 201.82C182.864 202.356 182.929 203.307 182.396 203.937C178.013 209.19 171.367 212.366 164.644 212.446C164.566 212.446 164.487 212.446 164.422 212.446Z" fill="black"/>
<mask id="mask4_26_3168" style="mask-type:luminance" maskUnits="userSpaceOnUse" x="56" y="1" width="231" height="278">
<path d="M56.8293 1.49365H286.556V278.806H56.8293V1.49365Z" fill="white"/>
</mask>
<g mask="url(#mask4_26_3168)">
<path d="M283.824 132.35C275.813 219.24 238.67 270.323 238.67 270.323C238.67 270.323 238.358 271.382 238.358 271.931C238.358 273.713 235.848 275.389 231.348 276.889C241.674 259.75 265.448 213.88 271.664 146.421C279.676 59.5316 227.967 17.0785 149.557 17.0785C111.296 17.0785 79.3806 27.2093 57.6747 47.6586C78.5613 17.7485 115.509 3.00781 161.717 3.00781C240.127 3.00781 291.836 45.4475 283.824 132.35Z" fill="white" fill-opacity="0.56"/>
</g>
<mask id="mask5_26_3168" style="mask-type:luminance" maskUnits="userSpaceOnUse" x="36" y="1" width="251" height="285">
<path d="M36.8531 1.49365H286.556V285.667H36.8531V1.49365Z" fill="white"/>
</mask>
<g mask="url(#mask5_26_3168)">
<path d="M161.73 285.319C130.335 285.319 83.6334 281.754 83.6334 271.931C83.6203 271.784 83.5423 271.382 83.4383 270.993C80.7332 267.134 45.8529 215.877 38.1667 132.498C34.5122 92.9126 42.8616 61.314 62.9549 38.5597C84.3616 14.318 118.514 1.49365 161.73 1.49365C204.934 1.49365 239.086 14.318 260.493 38.5597C280.586 61.314 288.936 92.9126 285.281 132.498C277.595 215.863 242.715 267.134 240.009 270.993C239.905 271.382 239.827 271.784 239.827 271.931C239.827 281.754 193.112 285.319 161.73 285.319ZM161.73 4.50879C119.359 4.50879 85.9613 16.9848 65.1138 40.5832C45.6058 62.6808 37.5164 93.5156 41.0799 132.203C48.9611 217.632 85.5842 268.903 85.9483 269.412C86.0523 269.559 86.1304 269.707 86.1824 269.881C86.2604 270.176 86.5596 271.208 86.5596 271.931C86.5596 275.549 112.375 282.303 161.73 282.303C211.073 282.303 236.888 275.549 236.888 271.931C236.888 271.208 237.187 270.176 237.265 269.881C237.317 269.72 237.395 269.559 237.499 269.412C237.864 268.903 274.487 217.632 282.368 132.203C285.931 93.5156 277.855 62.6808 258.334 40.5832C237.486 16.9848 204.089 4.50879 161.73 4.50879Z" fill="#53A4D6"/>
</g>
</g>
<defs>
<clipPath id="clip0_26_3168">
<rect width="323" height="382" fill="white" transform="translate(0.5 0.625977)"/>
</clipPath>
</defs>
</svg>
