<svg xmlns="http://www.w3.org/2000/svg" width="324" height="383" fill="none"><g clip-path="url(#a)"><mask id="b" width="323" height="97" x="0" y="285" maskUnits="userSpaceOnUse" style="mask-type:luminance"><path fill="#fff" d="M1 286h322v96H1v-96Z"/></mask><g mask="url(#b)"><path fill="#773CA8" d="M321 288c1 51-71 93-159 93S2 339 2 288c0 30 72 54 160 54s159-24 159-54Z"/></g><mask id="c" width="323" height="98" x="0" y="285" maskUnits="userSpaceOnUse" style="mask-type:luminance"><path fill="#fff" d="M1 286h322v96H1v-96Z"/></mask><g mask="url(#c)"><path fill="#582285" d="M162 382C73 382 1 340 1 288l1-2 2 2c0 13 16 27 45 37 30 10 70 16 113 16 69 0 129-15 150-37 5-5 8-11 8-16l1-2 2 2c0 16-7 32-21 46-28 30-82 48-140 48ZM5 301c12 44 78 78 157 78 57 0 110-18 138-47 9-9 15-20 18-31l-4 5c-21 22-83 38-152 38-43 0-83-6-113-16-22-8-37-17-44-27Z"/></g><mask id="d" width="323" height="114" x="0" y="230" maskUnits="userSpaceOnUse" style="mask-type:luminance"><path fill="#fff" d="M1 231h322v113H1V231Z"/></mask><g mask="url(#d)"><path fill="#A06ACC" d="M321 288c0 30-71 54-159 54S2 318 2 288s72-54 160-54 159 24 159 54Z"/><path fill="#582285" d="M162 344c-43 0-83-6-114-16-30-11-47-25-47-40s17-30 47-40c31-10 71-16 114-16 42 0 83 6 113 16 31 10 48 25 48 40s-17 29-48 40c-30 10-71 16-113 16Zm0-109c-43 0-83 6-113 16-29 10-45 23-45 37 0 13 16 27 45 37 30 10 70 16 113 16 42 0 82-6 112-16 29-10 46-24 46-37 0-14-17-27-46-37-30-10-70-16-112-16Z"/></g><path fill="#CACFF7" d="m246 286-8-14H85l-7 14-1 2c0 6 38 15 85 15s85-9 85-15l-1-2Z"/><path fill="#582285" d="M162 304c-45 0-87-8-87-16l2-3 7-14 1-1h153l2 1 7 14 1 3c0 8-42 16-86 16Zm-76-31-7 13v1l-1 1c0 4 33 13 84 13 50 0 83-9 83-13v-1l-1-1-7-13H86Z"/><path fill="#8F97D9" d="M166 294c0 2-2 4-4 4-3 0-5-2-5-4 0-3 2-5 5-5 2 0 4 2 4 5Z"/><path fill="#626BB5" d="M162 300c-3 0-6-3-6-6s3-6 6-6 6 3 6 6-3 6-6 6Zm0-9c-2 0-3 1-3 3 0 1 1 3 3 3l3-3c0-2-2-3-3-3Z"/><path fill="#8F97D9" d="M130 292c0 2-2 4-5 4-2 0-4-2-4-4 0-3 2-5 4-5 3 0 5 2 5 5Z"/><path fill="#626BB5" d="M125 298c-3 0-5-3-5-6s2-6 5-6c4 0 6 3 6 6s-2 6-6 6Zm0-9c-1 0-2 1-2 3s1 3 2 3c2 0 3-1 3-3s-1-3-3-3Z"/><path fill="#8F97D9" d="M99 287c0 2-2 4-4 4s-4-2-4-4c0-3 2-5 4-5s4 2 4 5Z"/><path fill="#626BB5" d="M95 293c-3 0-6-3-6-6s3-6 6-6 6 3 6 6-3 6-6 6Zm0-9c-2 0-3 1-3 3s1 3 3 3 3-1 3-3-1-3-3-3Z"/><path fill="#8F97D9" d="M194 292c0 2 2 4 4 4s4-2 4-4c0-3-2-5-4-5s-4 2-4 5Z"/><path fill="#626BB5" d="M198 298c-3 0-6-3-6-6s3-6 6-6 6 3 6 6-3 6-6 6Zm0-9c-2 0-3 1-3 3s1 3 3 3 3-1 3-3-1-3-3-3Z"/><path fill="#8F97D9" d="M233 287a4 4 0 0 1-3 4 4 4 0 0 1-5-1 4 4 0 0 1-1-3 5 5 0 0 1 3-4 4 4 0 0 1 4 1 4 4 0 0 1 2 3Z"/><path fill="#626BB5" d="M228 293c-3 0-5-3-5-6s2-6 5-6c4 0 6 3 6 6s-2 6-6 6Zm0-9c-1 0-3 1-3 3s2 3 3 3c2 0 3-1 3-3s-1-3-3-3Z"/><path fill="#7940A8" d="M238 272v1l-1 1-2 1-2 1a44 44 0 0 1-8 3 103 103 0 0 1-15 2 285 285 0 0 1-56 3 451 451 0 0 1-63-8 24 24 0 0 1-4-2l-2-1v-2l2-1 1-2a24 24 0 0 1 6-2 68 68 0 0 1 14-2 209 209 0 0 1 39-4 451 451 0 0 1 86 7 24 24 0 0 1 4 3l1 1v1Z"/><path fill="#582285" d="M162 285c-32 0-78-3-78-13s46-13 78-13c31 0 78 3 78 13s-47 13-78 13Zm0-23c-50 0-75 6-75 10s25 10 75 10c49 0 75-6 75-10s-26-10-75-10Z"/><mask id="e" width="251" height="285" x="36" y="1" maskUnits="userSpaceOnUse" style="mask-type:luminance"><path fill="#fff" d="M37 1h250v285H37V1Z"/></mask><g mask="url(#e)"><path fill="#96D8FF" fill-opacity=".5" d="M162 3C83 3 32 45 40 132a297 297 0 0 0 45 140c0 6 34 12 77 12 42 0 76-6 76-12l1-2s37-51 45-138S240 3 162 3Z"/></g><path fill="#2CC96B" d="M155 246a71 71 0 0 0-39 35l-11-1 4-7a85 85 0 0 1 43-37c3-1 6 1 7 4 0 2-1 5-4 6Z"/><path fill="#17733C" d="M116 283h-1a212 212 0 0 1-11-2l-1-2 4-7a87 87 0 0 1 45-37h5l3 4a7 7 0 0 1-4 9 69 69 0 0 0-37 31l-2 3-1 1Zm-9-4 8 1a72 72 0 0 1 40-35l2-2a4 4 0 0 0-2-5h-3a76 76 0 0 0-11 5 84 84 0 0 0-34 36Z"/><path fill="#2CC96B" d="m224 279-10 2-2-3c-5-9-11-16-19-22a70 70 0 0 0-19-10c-2-1-4-4-3-6 1-3 4-4 6-4h1a82 82 0 0 1 46 43Z"/><path fill="#17733C" d="m214 282-1-1-2-2c-5-8-11-16-19-22a71 71 0 0 0-18-9l-4-4v-5c1-3 4-5 8-4l9 4 4 2a87 87 0 0 1 35 37v1l-1 1-11 2Zm-21-27a76 76 0 0 1 22 24l7-1-2-5a84 84 0 0 0-35-32l-8-3c-2-1-4 0-4 2v3l2 2a68 68 0 0 1 18 10Z"/><path fill="#2CC96B" d="M201 282a258 258 0 0 1-39 2l-34-1 8-26 7-17 3-8h37l3 8a305 305 0 0 1 15 40v2l1 2-1-2Z"/><path fill="#33E87B" d="m201 282-7 1c-2-11-7-22-11-33l-6-14-1-4h7l3 8 2 3 5 13 1 4 1 2 1 4 2 5 1 2a181 181 0 0 1 2 9Z"/><path fill="#0DA14D" d="M191 252a78 78 0 0 1-54 2l9-22h37l8 20Z"/><path fill="#17733C" d="M162 285a447 447 0 0 1-36-3 243 243 0 0 1 14-39l2-4a554 554 0 0 0 4-8h37l1 1 3 7 2 4a1273 1273 0 0 1 7 18l2 5a173 173 0 0 1 4 13v1l1 2a1 1 0 0 1-2 2 323 323 0 0 1-39 1Zm-32-4a442 442 0 0 0 69 0v-1l-2-6v-3l-2-4-2-5v-2a171 171 0 0 0-7-16l-1-4h-1l-2-6h-35l-2 6-2 4-5 13-8 24Z"/><path fill="#2CC96B" d="M253 128c0 47-41 111-91 111-51 0-92-64-92-111 0-60 34-89 92-89 50 0 91 20 91 89Z"/><path fill="#33E87B" d="M253 128c0 31-18 69-44 92 18-22 29-52 29-77 0-68-41-88-91-88-26 0-46 5-62 17 15-22 42-33 77-33 50 0 91 20 91 89Z"/><path fill="#17733C" d="M162 241c-24 0-47-14-66-39-17-22-27-51-27-74 0-30 8-53 24-68s39-22 69-22c61 0 93 30 93 90 0 23-11 52-27 74-19 25-43 39-66 39Zm0-200c-59 0-90 30-90 87 0 23 10 50 26 72 18 24 41 38 64 38 22 0 45-14 63-38 17-22 27-49 27-72 0-32-9-55-27-69a99 99 0 0 0-63-18Z"/><path fill="#000" d="M183 185c0-34 27-53 56-41-1 35-36 47-56 41Z"/><path fill="#000" d="m194 188-11-1-1-2c0-17 6-31 18-39s26-9 40-3l1 2c-1 18-10 28-18 34s-19 9-29 9Zm-9-4c11 3 26 0 37-8 7-5 15-14 16-31-13-5-26-4-36 3-11 8-17 21-17 36Z"/><path fill="#fff" d="M230 161c0 2-2 5-5 5s-5-3-5-5c0-3 2-6 5-6s5 3 5 6ZM221 169c0 2-2 3-3 3-2 0-3-1-3-3s1-3 3-3c1 0 3 1 3 3Z"/><path fill="#4D4D4D" d="M208 151c-8 7-14 16-17 26-1 1-3 1-3-1 0-9 4-17 11-23l7-4 2 1v1Z"/><path fill="#000" d="M143 185c1-34-27-53-56-41 2 35 36 47 56 41Z"/><path fill="#000" d="M133 188c-10 0-21-3-30-9-7-6-16-16-17-34l1-2c14-6 28-5 39 3 12 8 19 22 19 39l-1 2-11 1Zm-44-43c1 17 9 26 16 31 11 8 25 11 37 8 0-15-6-28-17-36-10-7-23-8-36-3Z"/><path fill="#fff" d="M133 161c0 2-3 5-5 5-3 0-6-3-6-5 0-3 3-6 6-6 2 0 5 3 5 6ZM123 169c0 2-1 3-3 3s-3-1-3-3 1-3 3-3 3 1 3 3Z"/><path fill="#4D4D4D" d="M95 150c5 8 9 17 16 24 1 1 0 3-2 2-5-2-8-6-11-11-3-4-5-9-6-14l1-2 2 1Z"/><path fill="#128240" d="M210 124a21 21 0 0 0-31 14c9-7 20-12 31-14Z"/><path fill="#0E6932" d="m179 140-1-1v-1c2-7 7-13 13-16s14-2 20 1v2l-1 1c-11 2-22 6-30 13l-1 1Zm21-17a19 19 0 0 0-17 11c6-5 14-8 22-10l-5-1Z"/><path fill="#128240" d="M113 124a21 21 0 0 1 31 14c-8-7-20-12-31-14Z"/><path fill="#0E6932" d="m144 140-1-1c-8-7-19-11-30-13l-1-1 1-2c6-3 13-4 20-1 6 3 11 9 13 16l-1 1-1 1Zm-25-16c8 2 15 5 22 10-2-4-6-7-10-9-3-2-8-2-12-1Z"/><path fill="#000" d="M164 212c-6 0-13-3-17-8v-2h2c4 5 10 7 16 7s11-2 15-7h2v2c-4 5-11 8-17 8h-1Z"/><mask id="f" width="231" height="278" x="56" y="1" maskUnits="userSpaceOnUse" style="mask-type:luminance"><path fill="#fff" d="M57 1h230v278H57V1Z"/></mask><g mask="url(#f)"><path fill="#fff" fill-opacity=".6" d="M284 132c-8 87-45 138-45 138l-1 2c0 2-2 3-7 5 11-17 34-63 41-131 8-86-44-129-122-129-39 0-71 10-92 31C79 18 116 3 162 3c78 0 130 42 122 129Z"/></g><mask id="g" width="251" height="285" x="36" y="1" maskUnits="userSpaceOnUse" style="mask-type:luminance"><path fill="#fff" d="M37 1h250v285H37V1Z"/></mask><g mask="url(#g)"><path fill="#53A4D6" d="M162 285c-32 0-78-3-78-13l-1-1c-2-4-37-55-45-139-3-39 5-71 25-93 21-25 56-38 99-38s77 13 98 38c21 22 29 54 25 93a304 304 0 0 1-45 140c0 10-47 13-78 13Zm0-280c-43 0-76 12-97 36-19 22-27 53-24 91a299 299 0 0 0 45 138l1 2c0 4 25 10 75 10 49 0 75-6 75-10v-3c1 0 37-51 45-137 4-38-4-69-24-91-21-24-54-36-96-36Z"/></g></g><defs><clipPath id="a"><path fill="#fff" d="M1 1h323v382H1z"/></clipPath></defs></svg>