<svg width="491" height="487" viewBox="0 0 491 487" fill="none" xmlns="http://www.w3.org/2000/svg">
<path d="M282.731 291.523C282.731 291.523 286.121 290.452 290.581 288.646C291.458 288.291 292.366 287.909 293.304 287.501C293.452 287.433 293.605 287.369 293.749 287.308C294.197 287.109 294.653 286.909 295.104 286.705C301.654 283.707 308.774 279.61 310.939 275.193C314.474 267.986 308.496 240.517 301.398 231.198C299.529 228.739 295.177 228.105 290.385 228.303C290.354 228.307 290.319 228.307 290.292 228.306C286.78 228.452 283.033 229.044 279.875 229.676C279.595 229.729 279.32 229.785 279.05 229.845C278.514 229.958 277.997 230.075 277.503 230.177C277.12 230.272 276.752 230.353 276.406 230.433C273.887 231.024 272.254 231.507 272.254 231.507L273.272 237.337L273.79 240.311L274.751 245.825L275.041 247.49L282.731 291.523Z" fill="white"/>
<path d="M273.263 237.339L273.777 240.31L280.885 280.973L282.731 291.523C282.731 291.523 282.803 291.5 282.937 291.454C282.974 291.44 283.021 291.431 283.067 291.414C283.105 291.4 283.147 291.388 283.193 291.371C283.227 291.362 283.256 291.35 283.289 291.341C283.301 291.333 283.315 291.334 283.332 291.329C283.391 291.313 283.461 291.281 283.532 291.257C283.549 291.252 283.561 291.245 283.578 291.24C283.632 291.221 283.703 291.197 283.766 291.175C283.854 291.147 283.946 291.113 284.043 291.082C284.109 291.055 284.18 291.032 284.251 291.008C284.328 290.987 284.406 290.952 284.482 290.932C284.579 290.901 284.687 290.863 284.787 290.826C285.005 290.749 285.23 290.67 285.468 290.583C285.681 290.512 285.902 290.429 286.131 290.345C286.397 290.246 286.677 290.147 286.964 290.038C288.038 289.638 289.26 289.171 290.579 288.637C290.836 288.532 291.097 288.429 291.357 288.318C291.543 288.245 291.728 288.163 291.918 288.084C292.368 287.895 292.833 287.692 293.303 287.492C300.286 284.454 308.57 280.006 310.932 275.182C313.845 269.246 310.301 249.572 304.998 237.605C308.123 248.504 309.592 260.781 307.399 265.256C306.313 267.466 303.792 269.646 300.693 271.655C299.372 272.508 297.768 271.584 297.827 270.016C297.829 270.002 297.827 269.993 297.829 269.979C297.935 267.113 297.661 263.95 296.812 260.407C294.991 252.82 291.311 242.234 281.065 236.023C280.828 235.883 277.4 236.529 273.263 237.339Z" fill="#371A45" fill-opacity="0.35"/>
<path d="M281.863 292.952L270.991 230.736L272.018 230.436C272.262 230.36 278.17 228.63 284.82 227.702C294.031 226.422 299.901 227.349 302.267 230.459C309.674 240.19 315.618 268.062 311.898 275.646C307.426 284.778 283.973 292.281 282.981 292.595L281.863 292.952ZM273.497 232.296L283.593 290.083C288.302 288.477 306.464 281.906 309.971 274.742C311.469 271.69 311.12 263.663 309.094 254.297C307.009 244.697 303.727 236.124 300.526 231.919C296.837 227.07 280.649 230.325 273.497 232.296Z" fill="#371A45"/>
<path d="M305.737 255.101L296.148 258.812C295.288 259.14 294.717 260.012 294.76 260.94C294.9 264.307 295.622 272.051 299.23 273.585C302.225 274.859 306.3 273.366 308.259 270.548C310.444 267.401 309.088 260.005 308.237 256.399C307.967 255.269 306.819 254.676 305.737 255.101Z" fill="white"/>
<path d="M294.755 260.937C294.891 264.309 295.617 272.048 299.229 273.577C302.228 274.853 306.298 273.357 308.257 270.539C309.598 268.601 309.602 265.059 309.206 261.775C309.119 263.501 308.721 265.003 308.044 266.112C304.209 272.465 299.26 267.862 299.26 267.862C299.26 267.862 298.934 269.439 298.44 269.677C296.389 270.65 295.329 263.764 294.852 260.18C294.774 260.419 294.74 260.678 294.755 260.937Z" fill="#371A45" fill-opacity="0.35"/>
<path d="M298.147 274.305C294.66 272.134 293.84 265.17 293.668 261.063C293.603 259.637 294.494 258.274 295.822 257.761L305.418 254.039C306.224 253.73 307.105 253.763 307.832 254.148C308.554 254.529 309.086 255.216 309.283 256.043C310.474 261.11 311.413 267.838 309.118 271.151C306.794 274.499 302.14 276.048 298.757 274.617C298.541 274.535 298.341 274.425 298.147 274.305ZM306.056 256.14L296.46 259.862C296.07 260.013 295.815 260.4 295.833 260.813C296.108 267.248 297.552 271.624 299.696 272.542C302.155 273.588 305.676 272.386 307.388 269.93C308.739 267.976 308.664 263.043 307.175 256.723C307.122 256.478 306.973 256.287 306.755 256.174C306.536 256.06 306.289 256.05 306.056 256.14Z" fill="#371A45"/>
<path d="M304.172 274.382C303.96 274.326 303.845 274.284 303.694 274.221C303.554 274.163 303.421 274.104 303.296 274.033C303.035 273.909 302.791 273.757 302.559 273.597C302.11 273.265 301.681 272.9 301.323 272.479C300.584 271.648 300.034 270.685 299.641 269.675C299.465 269.164 299.289 268.653 299.168 268.123C299.021 267.6 298.942 267.081 298.839 266.555C298.745 266.027 298.673 265.497 298.626 264.96C298.586 264.413 298.548 263.896 298.616 263.288C298.637 263.141 298.766 263.025 298.907 263.037C299.037 263.042 299.135 263.156 299.133 263.284L299.128 263.326C299.121 263.791 299.198 264.324 299.286 264.818C299.38 265.324 299.503 265.817 299.64 266.311C299.78 266.8 299.92 267.311 300.099 267.771C300.255 268.247 300.463 268.694 300.674 269.136C301.112 270.007 301.676 270.79 302.355 271.41C302.689 271.724 303.065 271.981 303.448 272.204C303.639 272.315 303.836 272.407 304.037 272.48C304.139 272.521 304.239 272.553 304.342 272.579C304.427 272.602 304.554 272.635 304.59 272.635C305.066 272.651 305.412 273.071 305.36 273.561C305.309 274.052 304.881 274.444 304.408 274.423C304.354 274.419 304.303 274.41 304.252 274.401L304.172 274.382Z" fill="#371A45"/>
<path d="M286.287 234.387C287.454 233.849 288.625 233.351 289.799 232.87C290.973 232.389 292.159 231.922 293.362 231.497C294.554 231.065 295.764 230.652 297.004 230.303C298.239 229.951 299.494 229.634 300.809 229.46C301.409 229.379 301.924 229.821 301.959 230.433C301.995 231.054 301.537 231.61 300.936 231.69C300.914 231.692 300.889 231.699 300.862 231.697L300.85 231.705C299.71 231.768 298.523 231.976 297.334 232.22C296.145 232.465 294.944 232.785 293.755 233.12C292.561 233.453 291.37 233.825 290.192 234.22C289.01 234.613 287.822 235.025 286.654 235.464L286.645 235.466C286.35 235.578 286.043 235.425 285.954 235.127C285.869 234.832 286.015 234.506 286.287 234.387Z" fill="#371A45"/>
<path d="M269.872 231.706L259.931 236.493L243.282 244.498L242.351 244.941C240.205 244.241 238.156 243.443 236.19 242.567C219.326 235 209.158 221.027 203.71 201.274C199.673 196.837 197.044 192.845 196.849 189.057C196.664 185.525 198.601 182.164 203.489 178.776C210.168 174.154 215.649 178.922 218.937 182.772C220.702 184.855 224.824 189.8 226.793 193.434C227.661 195.043 228.67 196.64 229.789 198.208C238.306 210.199 253.233 221.059 262.275 226.984C266.811 229.974 269.872 231.706 269.872 231.706Z" fill="white"/>
<path d="M217.393 191.915C217.377 191.996 217.302 192.162 217.178 192.372C217.321 191.984 217.415 191.823 217.393 191.915Z" fill="#371A45" fill-opacity="0.25"/>
<path d="M259.921 236.487L243.272 244.492L242.346 244.937C240.2 244.238 238.151 243.439 236.18 242.561C219.321 234.997 209.152 221.024 203.704 201.271C199.668 196.834 197.039 192.842 196.844 189.054C198.858 192.413 201.939 196.074 206.006 196.666C210.575 197.337 215.015 192.268 216.068 190.553C214.881 193.616 210.155 210.384 227.145 225.385C237.494 234.524 254.137 236.181 259.921 236.487Z" fill="#371A45" fill-opacity="0.25"/>
<mask id="mask0_26_6850" style="mask-type:luminance" maskUnits="userSpaceOnUse" x="179" y="170" width="103" height="89">
<path d="M281.406 217.858L205.084 170.345L179.854 210.874L256.175 258.387L281.406 217.858Z" fill="white"/>
</mask>
<g mask="url(#mask0_26_6850)">
<path d="M228.942 240.002C216.275 232.117 207.642 219.531 202.724 201.895C197.285 195.858 195.225 191.485 195.849 187.275C196.352 183.884 198.663 180.808 202.926 177.857C208.479 174.012 214.145 175.402 219.769 182.002C222.406 185.097 225.93 189.496 227.739 192.834C238.298 212.33 270.122 230.535 270.442 230.712C270.955 231.009 271.105 231.686 270.793 232.233C270.48 232.781 269.806 232.99 269.3 232.705C267.973 231.947 236.659 214.044 225.826 194.037C224.479 191.555 221.734 187.83 218.09 183.555C213.194 177.802 208.598 176.54 204.036 179.699C200.363 182.245 198.386 184.787 197.991 187.472C197.473 190.945 199.485 194.963 204.511 200.485L204.675 200.663L204.741 200.908C210.972 223.46 223.394 237.518 242.732 243.875C243.295 244.059 243.569 244.684 243.354 245.277C243.135 245.868 242.512 246.2 241.949 246.016C237.22 244.458 232.882 242.454 228.942 240.002Z" fill="#371A45"/>
</g>
<path d="M214.546 226.783C214.185 226.558 213.989 226.103 214.098 225.633C214.233 225.02 214.808 224.605 215.39 224.702C215.444 224.706 218.95 225.237 223.42 223.483C229.438 221.124 234.278 215.955 237.813 208.135C238.072 207.561 238.727 207.279 239.262 207.507C239.803 207.737 240.029 208.393 239.771 208.967C234.999 219.533 228.529 223.853 223.947 225.628C218.93 227.558 215.07 226.95 214.912 226.92C214.773 226.894 214.653 226.849 214.546 226.783Z" fill="#371A45"/>
<path d="M228.837 196.835C228.013 195.951 227.524 193.927 227.514 193.239C227.487 191.821 227.33 190.034 227.247 187.778C227.116 183.909 224.976 177.797 221.923 178.26C217.053 179.001 220.09 185.951 219.621 186.863C219.146 187.772 214.777 191.052 214.6 196.684L228.837 196.835Z" fill="white"/>
<path d="M228.031 197.644C227.624 197.186 227.383 196.725 227.178 196.272C226.977 195.813 226.82 195.352 226.688 194.884C226.629 194.65 226.573 194.411 226.524 194.161C226.476 193.911 226.434 193.65 226.427 193.32C226.414 192.888 226.396 192.452 226.378 192.017L226.232 189.351L226.178 187.999C226.163 187.581 226.132 187.19 226.076 186.769C225.87 185.141 225.421 183.505 224.755 182.06C224.418 181.343 224.022 180.665 223.551 180.152C223.084 179.634 222.555 179.328 222.133 179.36C222.048 179.361 221.865 179.406 221.702 179.441C221.56 179.488 221.402 179.526 221.273 179.598C221.015 179.717 220.83 179.867 220.681 180.062C220.372 180.445 220.225 181.134 220.236 181.898C220.238 182.665 220.363 183.485 220.512 184.32C220.59 184.74 220.677 185.165 220.75 185.65C220.785 185.899 220.827 186.137 220.828 186.509C220.83 186.586 220.811 186.741 220.792 186.873C220.792 186.918 220.751 187.075 220.714 187.18C220.693 187.236 220.673 187.291 220.648 187.344C220.619 187.401 220.61 187.404 220.598 187.434C220.54 187.527 220.479 187.625 220.413 187.72C220.379 187.775 220.36 187.793 220.338 187.818L220.27 187.904C219.9 188.34 219.605 188.633 219.307 188.964C219.004 189.282 218.723 189.607 218.452 189.931C217.896 190.585 217.419 191.272 216.986 191.98C216.107 193.402 215.532 194.961 215.163 196.663L215.153 196.702C215.085 197.015 214.795 197.221 214.5 197.174C214.264 197.133 214.101 196.941 214.078 196.707C214.055 196.473 214.04 196.236 214.028 195.994L214.012 195.635C214.018 195.511 214.027 195.395 214.029 195.267C214.045 195.027 214.055 194.784 214.079 194.541C214.117 194.299 214.158 194.052 214.209 193.811C214.405 192.85 214.722 191.889 215.179 191.007C215.621 190.115 216.178 189.288 216.775 188.523C217.069 188.13 217.381 187.764 217.697 187.416C218.003 187.06 218.334 186.698 218.56 186.438L218.595 186.392C218.611 186.378 218.624 186.357 218.621 186.362C218.621 186.362 218.624 186.357 218.629 186.36C218.626 186.365 218.643 186.338 218.627 186.374C218.61 186.401 218.599 186.432 218.587 186.462C218.561 186.514 218.549 186.613 218.547 186.604C218.542 186.624 218.542 186.669 218.544 186.632C218.546 186.573 218.522 186.361 218.499 186.173C218.44 185.78 218.354 185.34 218.285 184.896C218.137 184.001 218.006 183.055 218.026 182.038C218.042 181.525 218.088 180.986 218.228 180.421C218.365 179.862 218.613 179.26 219.019 178.732C219.423 178.196 219.977 177.783 220.528 177.543C220.81 177.408 221.084 177.329 221.351 177.252C221.617 177.198 221.868 177.135 222.209 177.12C222.864 177.088 223.474 177.286 223.96 177.559C224.46 177.832 224.851 178.189 225.192 178.56C225.869 179.307 226.343 180.133 226.737 180.984C227.514 182.68 227.997 184.465 228.244 186.346C228.299 186.812 228.343 187.309 228.357 187.772L228.413 189.087L228.559 191.754C228.581 192.206 228.602 192.659 228.613 193.128C228.617 193.236 228.633 193.413 228.674 193.598C228.704 193.775 228.755 193.966 228.805 194.157C228.905 194.529 229.03 194.895 229.18 195.231C229.326 195.564 229.505 195.865 229.666 196.048L229.69 196.078C230.079 196.518 230.031 197.23 229.579 197.661C229.109 198.088 228.425 198.086 228.031 197.644Z" fill="#371A45"/>
<mask id="mask1_26_6850" style="mask-type:luminance" maskUnits="userSpaceOnUse" x="228" y="260" width="76" height="75">
<path d="M303.452 289.758L256.607 260.595L228.793 305.273L275.638 334.436L303.452 289.758Z" fill="white"/>
</mask>
<g mask="url(#mask1_26_6850)">
<path d="M276.299 328.514C271.812 329.91 266.142 328.425 263.013 324.432C258.525 318.715 262.123 307.577 262.123 307.577C242.7 294.842 244.319 281.874 244.319 281.874L256.412 276.237L269.514 270.122C270.005 275.814 271.985 280.462 274.448 284.435C278.857 291.573 284.807 296.55 286.374 301.533C287.413 304.815 287.31 308.561 286.435 312.425C285.527 316.421 283.777 320.535 281.583 324.388C280.388 326.477 278.484 327.837 276.299 328.514Z" fill="white"/>
</g>
<path d="M286.43 312.422C285.275 309.461 282.546 307.467 278.75 305.452C270.654 301.147 268.349 293.644 268.349 293.644L274.44 284.438C278.848 291.575 284.799 296.552 286.362 301.541C287.404 304.818 287.31 308.561 286.43 312.422Z" fill="#371A45" fill-opacity="0.25"/>
<mask id="mask2_26_6850" style="mask-type:luminance" maskUnits="userSpaceOnUse" x="228" y="271" width="68" height="63">
<path d="M295.19 300.128L249.646 271.775L228.793 305.273L274.337 333.626L295.19 300.128Z" fill="white"/>
</mask>
<g mask="url(#mask2_26_6850)">
<path d="M276.299 328.514C271.812 329.91 266.142 328.425 263.013 324.433C258.525 318.715 262.123 307.577 262.123 307.577C242.7 294.842 244.319 281.874 244.319 281.874L256.412 276.237C257.626 281.424 260.56 293.795 260.56 293.795C260.56 293.795 258.07 297.161 260.262 301.253C263.17 306.654 274.203 309.053 274.445 309.105C274.108 309.137 261.517 310.283 265.213 320.128C267.586 326.423 274.337 328.142 276.299 328.514Z" fill="#371A45" fill-opacity="0.25"/>
</g>
<mask id="mask3_26_6850" style="mask-type:luminance" maskUnits="userSpaceOnUse" x="227" y="259" width="78" height="77">
<path d="M304.753 290.568L255.305 259.785L227.492 304.463L276.94 335.246L304.753 290.568Z" fill="white"/>
</mask>
<g mask="url(#mask3_26_6850)">
<path d="M265.396 328.06C264.151 327.284 263.041 326.313 262.152 325.169C258.047 319.947 260.09 310.887 260.85 308.103C241.795 295.309 243.172 282.357 243.242 281.802C243.323 281.186 243.864 280.712 244.456 280.747C245.049 280.791 245.464 281.314 245.394 281.937C245.37 282.112 244.226 294.474 262.746 306.609C263.141 306.87 263.303 307.38 263.147 307.858C263.113 307.958 259.794 318.489 263.876 323.682C266.23 326.685 270.325 328.31 274.295 327.813C277.141 327.456 279.409 326.057 280.658 323.858C285.41 315.544 287.113 307.552 285.343 301.944C284.503 299.292 282.265 296.543 279.665 293.356C275.067 287.714 269.334 280.699 268.444 270.289C268.387 269.678 268.828 269.105 269.425 269.007C270.023 268.909 270.543 269.331 270.599 269.942C271.436 279.689 276.937 286.431 281.361 291.844C284.095 295.19 286.45 298.08 287.409 301.117C290.103 309.626 285.493 319.671 282.505 324.901C280.865 327.774 277.993 329.599 274.406 330.048C271.238 330.447 268.014 329.689 265.396 328.06Z" fill="#371A45"/>
</g>
<path d="M252.154 300.932C251.661 300.625 251.528 299.943 251.864 299.403C252.197 298.868 252.867 298.687 253.36 298.994C257.315 301.455 264.192 303.631 270.548 301.634C274.697 300.339 277.986 297.447 280.32 293.052C280.617 292.495 281.281 292.256 281.802 292.528C282.319 292.797 282.503 293.464 282.211 294.025C279.562 299.004 275.811 302.289 271.047 303.778C264.012 305.981 256.474 303.621 252.154 300.932Z" fill="#371A45"/>
<path d="M274.638 309.611C274.453 309.693 274.333 309.739 274.19 309.787C274.048 309.834 273.905 309.882 273.764 309.916C273.484 309.991 273.206 310.053 272.921 310.103C272.646 310.159 272.367 310.189 272.085 310.234C271.809 310.259 271.529 310.289 271.249 310.297C270.133 310.367 269.039 310.3 267.951 310.167C266.869 310.047 265.806 309.817 264.754 309.571L263.199 309.133L261.672 308.63C261.109 308.446 260.834 307.812 261.057 307.216C261.271 306.623 261.904 306.297 262.458 306.483C262.496 306.491 262.519 306.498 262.548 306.509L262.587 306.525L263.978 307.134L265.397 307.676C266.356 307.993 267.331 308.297 268.318 308.502C269.306 308.716 270.313 308.866 271.327 308.891C271.58 308.904 271.832 308.895 272.087 308.894C272.338 308.876 272.592 308.875 272.841 308.849C273.096 308.825 273.343 308.79 273.586 308.752C273.705 308.72 273.83 308.699 273.949 308.667C274.056 308.643 274.195 308.601 274.266 308.577L274.317 308.563C274.607 308.471 274.902 308.632 274.976 308.92C275.035 309.199 274.892 309.497 274.638 309.611Z" fill="#371A45"/>
<path d="M272.86 294.589C243.775 297.488 233.214 268.931 236.722 242.914C236.883 241.749 237.067 240.591 237.284 239.438C238.138 234.804 239.448 230.309 241.178 226.137L262.069 227.78L276.834 228.942L281.666 229.314C282.39 234.461 283.532 238.778 284.826 242.591C286.833 248.499 289.203 253.224 290.957 258.02C292.777 262.97 293.949 267.987 293.396 274.461C292.397 286.057 283.975 293.479 272.86 294.589Z" fill="white"/>
<path d="M272.86 294.589C253.782 296.491 242.679 284.86 238.287 269.301C243.458 282.542 254.172 291.81 271.358 290.102C282.479 288.995 290.896 281.57 291.894 269.973C292.304 265.145 291.762 261.134 290.702 257.33C290.791 257.56 290.872 257.793 290.958 258.028C292.778 262.979 293.947 268.001 293.398 274.469C292.397 286.057 283.975 293.479 272.86 294.589Z" fill="#371A45" fill-opacity="0.25"/>
<path d="M272.252 295.566C271.967 295.389 271.781 295.076 271.775 294.701C271.758 294.093 272.231 293.538 272.826 293.477C283.929 292.375 291.395 285.085 292.306 274.456C293.061 265.617 290.466 259.487 287.461 252.396C284.886 246.324 281.975 239.445 280.582 229.571C280.495 228.964 280.909 228.366 281.496 228.239C282.091 228.109 282.635 228.493 282.723 229.101C284.077 238.685 286.934 245.425 289.455 251.38C292.572 258.745 295.27 265.106 294.462 274.503C293.459 286.188 284.995 294.515 272.881 295.723C272.658 295.729 272.435 295.68 272.252 295.566Z" fill="#371A45"/>
<path d="M237.719 240.02C237.376 244.457 237.101 248.831 237.187 253.202C237.233 255.382 237.388 257.546 237.641 259.689C237.891 261.836 238.248 263.96 238.73 266.04C239.217 268.123 239.774 270.175 240.487 272.156C241.202 274.146 242.042 276.071 243.001 277.918C243.494 278.838 244.005 279.739 244.566 280.604C244.832 281.05 245.133 281.472 245.436 281.903C245.724 282.324 246.032 282.713 246.352 283.117C247.001 283.922 247.652 284.722 248.311 285.51C248.976 286.311 249.64 287.103 250.292 287.948L250.299 287.96C250.483 288.196 250.437 288.553 250.191 288.756C250.007 288.915 249.761 288.936 249.572 288.833C245.751 286.712 243.124 282.978 240.955 279.189C239.879 277.269 238.986 275.236 238.222 273.155C237.459 271.074 236.839 268.93 236.364 266.748C235.396 262.389 234.973 257.891 234.965 253.372C234.951 248.863 235.43 244.298 236.639 239.885C236.721 239.572 237.02 239.387 237.313 239.449C237.586 239.52 237.743 239.754 237.719 240.02Z" fill="#371A45"/>
<path d="M307.505 327.148C302.811 330.021 296.482 329.005 292.435 324.879C287.207 319.557 289.78 307.811 289.78 307.811C276.755 303.559 272.022 294.666 272.022 294.666C272.022 294.666 267.439 296.002 260.023 293.627L264.667 290.201L293.556 268.856C295.962 283.118 310.261 287.997 314.562 296.553C316.712 300.815 315.475 315.854 311.555 322.852C310.503 324.757 309.101 326.172 307.505 327.148Z" fill="white"/>
<path d="M307.505 327.148C302.811 330.021 296.482 329.005 292.435 324.879C287.207 319.557 289.78 307.811 289.78 307.811C276.755 303.559 272.022 294.666 272.022 294.666C272.022 294.666 267.439 296.002 260.023 293.627L264.667 290.201C273.128 290.658 278.452 286.761 278.981 287.09C279.5 287.413 278.052 292.208 282.766 297.62C294.383 310.965 305.507 303.892 306.388 304.607C307.271 305.33 290.525 310.624 293.218 318.807C295.01 324.255 302.085 326.803 307.505 327.148Z" fill="#371A45" fill-opacity="0.25"/>
<mask id="mask4_26_6850" style="mask-type:luminance" maskUnits="userSpaceOnUse" x="252" y="257" width="81" height="79">
<path d="M332.931 290.656L280.052 257.738L252.211 302.46L305.09 335.378L332.931 290.656Z" fill="white"/>
</mask>
<g mask="url(#mask4_26_6850)">
<path d="M294.624 268.59C294.976 270.619 295.598 272.566 296.467 274.388C297.351 276.196 298.457 277.899 299.742 279.449C302.298 282.593 305.466 285.209 308.585 287.969C309.368 288.661 310.144 289.363 310.904 290.102C311.668 290.835 312.411 291.601 313.114 292.432C313.817 293.263 314.475 294.143 315.052 295.108L315.453 295.858C315.524 295.97 315.595 296.128 315.654 296.271C315.727 296.414 315.778 296.56 315.828 296.705C316.04 297.283 316.169 297.856 316.284 298.42C316.688 300.694 316.716 302.938 316.648 305.176C316.564 307.419 316.339 309.65 315.985 311.884C315.633 314.104 315.147 316.324 314.477 318.52C314.133 319.617 313.74 320.713 313.259 321.792C313.137 322.056 313.002 322.329 312.885 322.597L312.46 323.392C312.305 323.652 312.152 323.921 311.988 324.174C311.809 324.427 311.649 324.683 311.461 324.929C310.719 325.906 309.837 326.79 308.855 327.519C307.868 328.253 306.776 328.807 305.656 329.201C303.4 329.993 301.024 330.059 298.817 329.617C296.611 329.161 294.561 328.172 292.831 326.77C292.618 326.591 292.413 326.411 292.199 326.232C291.996 326.038 291.798 325.846 291.598 325.646C291.202 325.217 290.829 324.774 290.506 324.284C289.863 323.324 289.379 322.265 289.02 321.177C288.307 318.992 288.079 316.706 288.06 314.437C288.061 313.302 288.117 312.17 288.227 311.041C288.279 310.483 288.351 309.914 288.419 309.351C288.5 308.78 288.594 308.232 288.717 307.627L289.385 308.876L288.029 308.38L287.342 308.135C287.117 308.055 286.887 307.972 286.671 307.876L285.349 307.303C285.129 307.204 284.91 307.113 284.688 307.005L284.044 306.68L282.763 306.019L281.515 305.295L280.894 304.931L280.298 304.53C279.9 304.251 279.497 303.993 279.102 303.709C277.533 302.581 276.068 301.321 274.712 299.931L274.207 299.405L273.721 298.86C273.391 298.495 273.088 298.109 272.769 297.737C272.466 297.351 272.167 296.96 271.886 296.551C271.747 296.343 271.601 296.146 271.469 295.928C271.326 295.717 271.205 295.514 271.06 295.249L272.24 295.733C272.048 295.78 271.919 295.806 271.776 295.831C271.626 295.858 271.498 295.87 271.354 295.886C271.079 295.92 270.8 295.95 270.53 295.964C269.984 296.003 269.45 296.011 268.921 296C267.854 295.98 266.811 295.876 265.774 295.73C264.748 295.576 263.739 295.35 262.746 295.088C262.249 294.968 261.77 294.798 261.273 294.655L259.832 294.16C259.549 294.06 259.421 293.745 259.533 293.451C259.64 293.177 259.922 293.019 260.188 293.079L260.217 293.089L261.656 293.44C262.143 293.53 262.624 293.641 263.112 293.717C264.091 293.879 265.069 293.996 266.051 294.062C267.034 294.114 268.023 294.123 269 294.049C269.491 294.007 269.973 293.958 270.453 293.879C270.692 293.846 270.924 293.801 271.155 293.748C271.271 293.721 271.391 293.697 271.496 293.664C271.603 293.64 271.73 293.606 271.788 293.581C272.243 293.417 272.702 293.597 272.925 293.986L272.978 294.072C273.062 294.23 273.191 294.432 273.308 294.618C273.424 294.804 273.555 294.991 273.683 295.17C273.934 295.538 274.21 295.899 274.489 296.255C274.78 296.603 275.06 296.958 275.366 297.293L275.818 297.802L276.292 298.286C277.561 299.591 278.945 300.778 280.425 301.844C280.795 302.112 281.181 302.352 281.552 302.606L282.121 302.983L282.711 303.327L283.887 304.022L285.102 304.642L285.712 304.953C285.924 305.055 286.132 305.139 286.342 305.232L287.596 305.778C287.803 305.876 288.015 305.955 288.235 306.032L288.883 306.261L290.171 306.729L290.195 306.737C290.69 306.916 290.954 307.444 290.838 307.97C290.744 308.449 290.65 308.997 290.569 309.522C290.497 310.046 290.431 310.572 290.382 311.103C290.281 312.161 290.237 313.217 290.232 314.267C290.248 316.36 290.471 318.438 291.088 320.314C291.397 321.256 291.804 322.131 292.322 322.908C292.578 323.302 292.874 323.653 293.186 323.991C293.348 324.16 293.531 324.319 293.702 324.486L294.244 324.953C295.738 326.155 297.507 327.007 299.388 327.397C301.268 327.765 303.265 327.705 305.103 327.054C306.953 326.426 308.591 325.211 309.796 323.605C310.404 322.809 310.888 321.907 311.325 320.944C311.754 319.984 312.116 318.982 312.436 317.947C313.063 315.898 313.529 313.779 313.866 311.64C314.199 309.507 314.419 307.364 314.496 305.223C314.564 303.098 314.524 300.953 314.169 298.974C314.066 298.494 313.963 298.013 313.804 297.588C313.771 297.484 313.723 297.379 313.683 297.285C313.637 297.189 313.601 297.099 313.541 296.992L313.192 296.351C312.696 295.505 312.1 294.717 311.455 293.952C310.812 293.196 310.116 292.467 309.379 291.758C308.653 291.056 307.892 290.363 307.12 289.678C304.042 286.951 300.782 284.27 298.057 280.93C296.686 279.281 295.491 277.439 294.521 275.464C293.568 273.469 292.876 271.319 292.494 269.089C292.395 268.489 292.789 267.879 293.381 267.732C293.961 267.616 294.525 267.99 294.624 268.59Z" fill="#371A45"/>
</g>
<path d="M306.732 305.018C306.138 305.61 305.528 306.101 304.885 306.58C304.25 307.056 303.573 307.475 302.882 307.871C301.494 308.65 300.018 309.254 298.478 309.643C297.706 309.829 296.923 309.978 296.137 310.05C295.35 310.113 294.555 310.133 293.777 310.057C292.207 309.928 290.691 309.508 289.305 308.857C288.773 308.601 288.569 307.944 288.846 307.374C289.111 306.835 289.717 306.575 290.224 306.77L290.247 306.777C291.507 307.235 292.8 307.571 294.133 307.718C294.794 307.789 295.467 307.807 296.152 307.794C296.829 307.761 297.514 307.702 298.196 307.582C299.565 307.343 300.923 306.916 302.25 306.348C302.908 306.061 303.557 305.722 304.201 305.366C304.829 305.015 305.473 304.605 306.039 304.193L306.067 304.172C306.321 303.989 306.654 304.045 306.814 304.296C306.97 304.522 306.922 304.825 306.732 305.018Z" fill="#371A45"/>
<path d="M351.891 256.654C348.888 260.345 343.368 260.749 336.035 259.759C317.559 265.998 301.85 262.998 291.469 257.99C290.474 257.515 289.523 257.014 288.629 256.502C288.134 256.232 287.658 255.943 287.195 255.655L282.645 243.467L276.779 227.749L275.336 223.881C275.336 223.881 284.416 228.261 296.254 232.04C306.77 235.405 319.45 238.284 329.858 237.212C333.893 236.792 340.139 237.362 342.796 237.638C347.716 238.141 354.577 239.889 354.441 247.697C354.368 251.803 353.486 254.693 351.891 256.654Z" fill="white"/>
<path d="M351.891 256.654C348.888 260.345 343.368 260.749 336.035 259.759C315.786 266.591 298.86 262.341 288.629 256.502C295.84 258.174 313.321 261.443 322.964 256.478C331.044 252.312 334.112 249.593 338.533 241.279C340.004 238.52 333.195 254.249 343.26 256.379C346.901 257.146 349.665 257.352 351.891 256.654Z" fill="#371A45" fill-opacity="0.25"/>
<mask id="mask5_26_6850" style="mask-type:luminance" maskUnits="userSpaceOnUse" x="262" y="199" width="100" height="89">
<path d="M361.642 244.537L289.244 199.467L262.273 242.792L334.671 287.861L361.642 244.537Z" fill="white"/>
</mask>
<g mask="url(#mask5_26_6850)">
<path d="M275.846 222.858C277.904 223.836 280.034 224.753 282.163 225.639C284.293 226.533 286.444 227.372 288.606 228.181C292.935 229.792 297.32 231.257 301.766 232.51C303.992 233.138 306.241 233.705 308.488 234.21C310.744 234.72 313.019 235.144 315.311 235.496C317.591 235.855 319.901 236.088 322.208 236.222C323.366 236.299 324.523 236.299 325.683 236.317L327.418 236.26C327.998 236.258 328.572 236.184 329.154 236.145L330.033 236.07C330.34 236.042 330.655 236.011 330.954 236.007C331.571 235.967 332.18 235.952 332.785 235.943C333.997 235.933 335.191 235.964 336.38 236.015C338.772 236.125 341.105 236.32 343.482 236.58C345.875 236.873 348.316 237.393 350.527 238.61C351.629 239.22 352.665 240.025 353.483 241.056C354.321 242.078 354.899 243.324 355.218 244.636C355.363 245.287 355.476 245.956 355.504 246.625C355.537 246.956 355.517 247.284 355.525 247.622L355.493 248.58C355.43 249.859 355.283 251.161 354.977 252.455C354.672 253.75 354.206 255.065 353.455 256.272C353.091 256.879 352.639 257.446 352.147 257.965C351.646 258.486 351.084 258.924 350.509 259.316C349.326 260.072 348.05 260.558 346.79 260.849C345.529 261.14 344.278 261.27 343.043 261.327C340.578 261.413 338.185 261.189 335.825 260.879L336.307 260.83L333.167 261.829L332.381 262.083C332.118 262.154 331.854 262.216 331.586 262.284L328.404 263.091L326.797 263.394C325.724 263.589 324.653 263.824 323.575 263.925C319.274 264.513 314.924 264.691 310.655 264.321C306.385 263.973 302.179 263.15 298.143 261.85L296.643 261.325C296.143 261.142 295.642 260.974 295.159 260.764C294.188 260.341 293.201 259.955 292.269 259.458L290.861 258.74L289.502 257.932L288.833 257.523C288.607 257.375 288.391 257.225 288.179 257.078C287.75 256.781 287.315 256.472 286.896 256.158C286.656 255.978 286.619 255.63 286.806 255.375C286.967 255.15 287.247 255.074 287.472 255.176L287.496 255.183C287.966 255.392 288.432 255.607 288.896 255.835L289.586 256.166L290.294 256.478L291.697 257.102L293.116 257.667C295.009 258.444 296.951 259.085 298.894 259.703C302.808 260.883 306.866 261.591 310.982 261.903L314.076 262.042L317.186 262.031C318.222 261.987 319.265 261.909 320.298 261.848C320.82 261.824 321.338 261.752 321.856 261.689L323.418 261.503C324.453 261.404 325.489 261.178 326.522 261.003L328.081 260.731L329.623 260.373L331.168 260.01C331.424 259.949 331.686 259.892 331.94 259.823L332.708 259.597L335.772 258.709L336.042 258.627L336.254 258.661C338.541 258.963 340.842 259.176 343.116 259.092C344.245 259.045 345.373 258.922 346.453 258.67C347.529 258.416 348.548 258.013 349.446 257.443C351.245 256.298 352.375 254.312 352.872 252.076C353.128 250.963 353.266 249.799 353.324 248.631L353.357 247.75C353.344 247.477 353.365 247.194 353.335 246.925C353.32 246.371 353.221 245.84 353.106 245.321C352.853 244.3 352.415 243.361 351.779 242.571C351.144 241.767 350.314 241.129 349.4 240.613C347.543 239.586 345.338 239.084 343.093 238.815C340.799 238.569 338.457 238.376 336.141 238.267C334.975 238.215 333.816 238.183 332.658 238.197C332.08 238.208 331.503 238.228 330.937 238.254C330.649 238.264 330.369 238.295 330.084 238.322L329.182 238.389C328.581 238.424 327.971 238.499 327.371 238.511L325.559 238.565C324.356 238.551 323.153 238.545 321.96 238.468C319.567 238.335 317.197 238.086 314.857 237.72C312.519 237.363 310.198 236.934 307.9 236.412C305.603 235.898 303.329 235.324 301.075 234.685C296.563 233.414 292.125 231.932 287.752 230.3C285.562 229.49 283.395 228.633 281.242 227.74C279.085 226.844 276.961 225.916 274.828 224.913C274.301 224.661 274.091 224 274.374 223.433C274.656 222.867 275.311 222.608 275.841 222.855L275.846 222.858Z" fill="#371A45"/>
</g>
<path d="M295.554 233.074C292.714 236.412 289.416 239.433 285.699 242.005C285.409 242.211 285.112 242.405 284.815 242.599C284.039 243.108 283.26 243.6 282.466 244.06C269.935 251.341 256.132 251.694 245.536 245.931C244.905 245.584 244.285 245.221 243.684 244.839C243.658 244.823 243.638 244.81 243.607 244.791C241.971 243.75 240.422 242.543 238.983 241.185C238.392 240.628 237.828 240.049 237.276 239.441C238.13 234.806 239.44 230.312 241.17 226.139L262.06 227.782L276.825 228.944L275.429 225.227C275.438 225.225 284.172 229.435 295.554 233.074Z" fill="#371A45" fill-opacity="0.25"/>
<path d="M222.418 192.521C221.196 199.979 221.772 207.686 224.342 214.898C224.871 216.371 225.48 217.818 226.171 219.234C226.508 219.928 226.865 220.612 227.24 221.301C228.379 223.358 229.669 225.274 231.072 227.042C232.291 228.573 233.595 229.991 234.985 231.303C236.66 232.884 238.454 234.296 240.342 235.547C241.024 236.002 241.726 236.439 242.439 236.845C255.459 244.367 272.361 244.42 286.752 235.465C307.957 222.282 315.681 194.556 304.019 173.547C301.777 169.501 298.972 165.997 295.749 163.074C295.378 162.729 294.995 162.393 294.602 162.072C293.555 161.193 292.483 160.367 291.366 159.611C288.794 157.851 286.039 156.408 283.156 155.295C280.276 154.177 277.266 153.394 274.196 152.944C273.221 152.799 272.236 152.694 271.244 152.621C269.762 152.509 268.259 152.476 266.747 152.526C259.238 152.76 251.564 154.982 244.502 159.38C232.313 166.973 224.577 179.367 222.418 192.521Z" fill="white"/>
<path d="M241.231 236.259C240.906 236.057 240.589 235.852 240.277 235.65C238.359 234.381 236.56 232.943 234.912 231.387C233.5 230.053 232.181 228.626 230.989 227.119C229.568 225.333 228.267 223.402 227.142 221.368C226.727 220.618 226.376 219.937 226.068 219.298C225.39 217.906 224.773 216.439 224.24 214.949C221.721 207.904 221.058 200.143 222.309 192.514C224.562 178.744 232.633 166.641 244.453 159.289C251.297 155.036 259.004 152.66 266.757 152.419C268.229 152.366 269.74 152.397 271.266 152.506C272.231 152.577 273.238 152.681 274.226 152.827C277.31 153.277 280.331 154.067 283.207 155.191C286.119 156.314 288.881 157.768 291.441 159.514C292.549 160.272 293.645 161.105 294.682 161.978C295.097 162.32 295.474 162.653 295.828 162.98C299.107 165.96 301.901 169.494 304.122 173.483C309.794 183.711 311.098 195.824 307.779 207.59C304.49 219.252 297.038 229.195 286.798 235.561C272.892 244.213 255.871 244.737 242.373 236.94C241.997 236.729 241.612 236.497 241.231 236.259ZM222.528 192.537C221.282 200.124 221.95 207.842 224.449 214.851C224.975 216.33 225.587 217.794 226.263 219.177C226.576 219.819 226.923 220.497 227.33 221.235C228.449 223.257 229.745 225.185 231.164 226.962C232.347 228.449 233.654 229.884 235.065 231.209C236.703 232.759 238.5 234.188 240.403 235.448C241.084 235.895 241.79 236.335 242.495 236.744C255.922 244.496 272.858 243.972 286.696 235.362C296.88 229.029 304.298 219.141 307.568 207.534C310.862 195.829 309.567 183.781 303.922 173.601C301.714 169.636 298.946 166.117 295.679 163.152C295.325 162.825 294.949 162.5 294.532 162.15C293.496 161.277 292.411 160.459 291.312 159.698C288.767 157.963 286.012 156.52 283.119 155.401C280.249 154.289 277.251 153.497 274.177 153.053C273.193 152.911 272.198 152.799 271.233 152.729C269.721 152.62 268.219 152.586 266.747 152.64C259.033 152.875 251.36 155.241 244.559 159.469C232.8 166.791 224.772 178.837 222.528 192.537Z" fill="#371A45"/>
<path d="M286.757 235.468C272.366 244.423 255.461 244.376 242.439 236.845C241.726 236.439 241.024 236.002 240.342 235.547C238.449 234.293 236.659 232.875 234.985 231.303C233.595 229.991 232.291 228.573 231.072 227.042C229.663 225.271 228.379 223.358 227.235 221.297C226.865 220.612 226.503 219.925 226.166 219.231C225.478 217.81 224.869 216.363 224.341 214.89C221.771 207.677 221.191 199.976 222.416 192.512C223.093 188.411 224.302 184.384 226.023 180.555C225.02 187.695 225.657 195.022 228.108 201.904C228.632 203.374 229.236 204.817 229.926 206.247C230.257 206.938 230.619 207.625 230.995 208.314C232.142 210.368 233.426 212.282 234.835 214.052C236.049 215.581 237.358 217.001 238.743 218.311C240.418 219.891 242.217 221.307 244.096 222.56C244.787 223.013 245.483 223.446 246.193 223.858C259.214 231.38 276.118 231.428 290.511 222.481C298.912 217.257 305.192 209.751 308.995 201.287C307.083 214.837 299.266 227.689 286.757 235.468Z" fill="#371A45" fill-opacity="0.25"/>
<path d="M240.813 236.931C240.483 236.725 240.161 236.517 239.844 236.312C237.895 235.024 236.059 233.555 234.384 231.974C232.95 230.619 231.61 229.157 230.393 227.634C228.944 225.815 227.632 223.855 226.482 221.783C226.066 221.024 225.707 220.331 225.392 219.681C224.701 218.265 224.079 216.772 223.533 215.258C220.977 208.092 220.292 200.196 221.567 192.438C223.859 178.435 232.074 166.111 244.101 158.631C251.057 154.311 258.902 151.884 266.789 151.643C268.284 151.597 269.826 151.625 271.37 151.738C272.362 151.81 273.371 151.923 274.383 152.076C277.516 152.527 280.591 153.343 283.518 154.475C286.474 155.619 289.285 157.096 291.886 158.867C293.016 159.646 294.126 160.481 295.184 161.374C295.611 161.731 295.994 162.068 296.363 162.404C299.691 165.43 302.532 169.024 304.784 173.077C310.563 183.484 311.883 195.798 308.515 207.767C305.169 219.645 297.585 229.755 287.165 236.229C273.024 245.03 255.707 245.567 241.984 237.645C241.589 237.406 241.199 237.171 240.813 236.931ZM223.271 192.613C222.049 200.071 222.703 207.652 225.157 214.542C225.674 216 226.279 217.43 226.947 218.792C227.248 219.419 227.588 220.085 227.996 220.824C229.094 222.81 230.361 224.705 231.76 226.447C232.923 227.921 234.21 229.32 235.593 230.621C237.202 232.138 238.969 233.548 240.841 234.79C241.512 235.23 242.203 235.66 242.903 236.066C256.103 243.685 272.75 243.171 286.346 234.712C296.355 228.49 303.639 218.783 306.854 207.377C310.096 195.882 308.822 184.037 303.267 174.041C301.098 170.138 298.369 166.682 295.157 163.774C294.812 163.445 294.438 163.129 294.036 162.788C293.015 161.925 291.951 161.119 290.863 160.374C288.361 158.672 285.653 157.244 282.809 156.147C279.992 155.053 277.032 154.278 274.021 153.836C273.052 153.694 272.075 153.586 271.12 153.522C269.639 153.41 268.16 153.383 266.718 153.433C259.138 153.668 251.594 155.986 244.911 160.15C233.364 167.324 225.477 179.155 223.271 192.613Z" fill="#371A45"/>
<path d="M240.674 237.155C240.343 236.949 240.016 236.738 239.699 236.533C237.736 235.235 235.891 233.768 234.204 232.173C232.759 230.811 231.41 229.343 230.194 227.806C228.74 225.984 227.415 224 226.259 221.925C225.84 221.148 225.481 220.455 225.162 219.802C224.468 218.378 223.838 216.887 223.294 215.359C220.721 208.152 220.036 200.211 221.319 192.405C223.627 178.321 231.882 165.932 243.981 158.404C250.973 154.061 258.865 151.626 266.796 151.383C268.295 151.331 269.841 151.362 271.4 151.476C272.397 151.551 273.414 151.662 274.421 151.812C277.573 152.266 280.665 153.078 283.61 154.215C286.59 155.365 289.416 156.852 292.024 158.634C293.162 159.411 294.275 160.263 295.334 161.157C295.764 161.508 296.149 161.853 296.518 162.189C299.866 165.228 302.716 168.843 304.989 172.917C310.794 183.386 312.124 195.773 308.734 207.813C305.369 219.754 297.742 229.921 287.264 236.443C273.039 245.29 255.63 245.837 241.834 237.862C241.455 237.633 241.06 237.395 240.674 237.155ZM223.52 192.631C222.303 200.047 222.949 207.585 225.394 214.432C225.915 215.885 226.508 217.3 227.171 218.659C227.477 219.289 227.815 219.947 228.213 220.679C229.304 222.653 230.573 224.534 231.953 226.272C233.113 227.729 234.391 229.131 235.765 230.425C237.369 231.939 239.124 233.334 240.981 234.566C241.646 235.003 242.338 235.433 243.027 235.832C256.152 243.412 272.702 242.898 286.221 234.482C296.171 228.299 303.407 218.647 306.605 207.313C309.823 195.878 308.559 184.108 303.041 174.166C300.891 170.29 298.175 166.857 294.984 163.962C294.634 163.63 294.27 163.32 293.865 162.984C292.848 162.124 291.793 161.316 290.712 160.582C288.228 158.885 285.541 157.469 282.707 156.379C279.905 155.294 276.968 154.518 273.969 154.09C273.004 153.952 272.036 153.842 271.09 153.775C269.613 153.666 268.138 153.634 266.71 153.685C259.165 153.919 251.669 156.229 245.025 160.365C233.551 167.5 225.713 179.263 223.52 192.631Z" fill="#371A45"/>
<path d="M221.977 204.026C231.136 234.133 266.515 243.773 287.055 218.776C301.026 201.772 296.329 175.555 280.278 163.76C268.597 155.185 253.229 152.261 234.22 168C234.22 168 226.778 176.238 224.686 183.858C222.597 191.474 221.809 199.164 221.809 199.164L221.977 204.026Z" fill="#371A45"/>
<path d="M287.055 218.776C266.515 243.773 231.136 234.133 221.977 204.026L221.946 203.044C241.078 223.794 273.661 226.005 294.866 201.096C293.902 207.404 291.366 213.529 287.055 218.776Z" fill="#220F2D"/>
<path d="M236.415 232.519C234.275 231.187 232.23 229.656 230.309 227.938L230.191 227.811C228.732 225.986 227.403 224.008 226.256 221.93C225.836 221.154 225.478 220.461 225.155 219.813C224.465 218.383 223.834 216.893 223.29 215.365C220.717 208.157 220.032 200.217 221.316 192.411C223.623 178.326 231.879 165.937 243.977 158.41C250.969 154.067 258.861 151.632 266.792 151.388L266.903 151.381L267.009 151.402C272.643 152.447 278.212 154.967 283.567 158.907C293.22 165.992 299.636 177.97 300.747 190.948C301.744 202.636 298.397 213.801 291.329 222.414C283.635 231.782 273.792 237.396 262.867 238.654C253.726 239.697 244.405 237.493 236.415 232.519ZM231.901 226.209C240.547 233.925 251.797 237.618 262.78 236.358C273.09 235.171 282.389 229.863 289.679 220.985C296.326 212.89 299.477 202.346 298.53 191.303C297.478 178.944 291.371 167.545 282.206 160.809C277.129 157.08 271.875 154.689 266.593 153.68C259.089 153.94 251.64 156.241 245.028 160.359C233.545 167.497 225.708 179.26 223.511 192.634C222.294 200.049 222.941 207.587 225.386 214.434C225.906 215.887 226.499 217.302 227.162 218.661C227.468 219.291 227.807 219.949 228.204 220.681C229.296 222.633 230.538 224.489 231.901 226.209Z" fill="#371A45"/>
<path d="M238.904 228.554C230.558 223.358 224.095 214.888 220.915 204.44L220.878 204.296L220.705 199.113C220.741 198.794 221.533 191.235 223.623 183.606C225.763 175.795 233.125 167.584 233.429 167.243L233.556 167.118C250.184 153.358 266.125 151.904 280.966 162.802C289.572 169.121 295.299 179.815 296.288 191.392C297.182 201.818 294.193 211.797 287.882 219.488C278.729 230.621 265.972 235.83 252.872 233.772C247.857 232.991 243.138 231.19 238.904 228.554ZM223.09 203.756C227.671 218.66 239.258 229.289 253.351 231.495C265.641 233.427 277.629 228.536 286.228 218.065C292.119 210.892 294.91 201.548 294.073 191.755C293.134 180.8 287.726 170.692 279.598 164.715C265.673 154.478 250.65 155.86 234.956 168.822C234.265 169.604 227.652 177.213 225.764 184.098C223.841 191.119 223.019 198.296 222.932 199.128L223.09 203.756Z" fill="#371A45"/>
<path d="M303.543 228.511C298.641 236.079 290.329 239.722 284.973 236.622C279.619 233.531 279.257 224.89 284.161 217.308C284.191 217.259 284.222 217.21 284.258 217.164C289.173 209.687 297.41 206.119 302.726 209.193C306.862 211.579 308.021 217.285 306.074 223.246C305.501 225.003 304.661 226.783 303.543 228.511Z" fill="white"/>
<path d="M303.543 228.511C298.641 236.079 290.329 239.722 284.973 236.622C279.619 233.531 279.257 224.89 284.161 217.308C284.191 217.259 284.222 217.21 284.258 217.164C284.343 218.285 284.765 219.578 286.167 220.034C288.636 220.836 295.692 218.215 295.692 218.215C295.692 218.215 300.207 220.366 306.077 223.24C305.501 225.003 304.661 226.783 303.543 228.511Z" fill="#371A45" fill-opacity="0.25"/>
<path d="M284.129 237.491C281.913 236.111 280.444 233.848 279.865 230.927C278.995 226.568 280.233 221.385 283.251 216.719C288.477 208.64 297.485 204.81 303.322 208.178C305.669 209.541 307.243 211.861 307.845 214.895C308.709 219.25 307.476 224.437 304.458 229.103C299.232 237.181 290.219 241.009 284.387 237.643C284.301 237.59 284.216 237.544 284.129 237.491ZM302.331 210.326C302.27 210.288 302.209 210.25 302.134 210.211C297.288 207.414 289.639 210.864 285.077 217.909C282.447 221.975 281.308 226.614 282.05 230.318C282.53 232.73 283.748 234.557 285.575 235.611C290.426 238.411 298.078 234.956 302.637 227.916C305.267 223.85 306.401 219.208 305.665 215.507C305.198 213.187 304.049 211.396 302.331 210.326Z" fill="#371A45"/>
<path d="M304.126 215.792C304.592 216.165 305.004 216.603 305.356 217.102C305.708 217.602 305.999 218.154 306.229 218.759C306.458 219.364 306.615 220.007 306.709 220.695C306.803 221.382 306.831 222.096 306.788 222.834C306.75 223.576 306.633 224.329 306.458 225.098C306.277 225.864 306.033 226.629 305.727 227.393C305.421 228.157 305.059 228.909 304.634 229.636C304.211 230.373 303.735 231.069 303.21 231.742C302.685 232.415 302.12 233.04 301.515 233.626C300.911 234.212 300.278 234.742 299.616 235.216C298.951 235.696 298.272 236.106 297.581 236.457C296.885 236.804 296.19 237.083 295.489 237.291C294.794 237.501 294.102 237.639 293.425 237.695C292.745 237.756 292.09 237.743 291.465 237.649C290.836 237.56 290.241 237.394 289.682 237.16C289.126 236.92 288.611 236.614 288.148 236.235C287.682 235.862 287.279 235.422 286.927 234.922C286.57 234.42 286.279 233.867 286.054 233.265C285.825 232.66 285.663 232.014 285.565 231.332C285.471 230.645 285.448 229.934 285.487 229.193C285.533 228.449 285.641 227.698 285.822 226.932C285.997 226.163 286.241 225.398 286.547 224.634C286.853 223.87 287.221 223.121 287.644 222.385C288.069 221.657 288.543 220.952 289.064 220.285C289.594 219.615 290.155 218.986 290.759 218.401C291.368 217.818 292.002 217.288 292.662 216.805C293.324 216.331 294.003 215.92 294.698 215.573C295.392 215.218 296.088 214.939 296.789 214.731C297.489 214.523 298.178 214.391 298.853 214.327C299.53 214.271 300.184 214.284 300.813 214.373C301.447 214.465 302.037 214.627 302.593 214.867C303.157 215.105 303.664 215.413 304.126 215.792Z" fill="white"/>
<path d="M288.714 236.8C287.733 236.189 286.928 235.317 286.347 234.212C283.857 229.511 286.213 222.009 291.598 217.484C294.606 214.963 298.021 213.794 300.981 214.273C303.177 214.632 304.884 215.854 305.926 217.806C308.416 222.507 306.06 230.009 300.675 234.535C297.667 237.055 294.252 238.225 291.297 237.749C290.332 237.587 289.471 237.271 288.714 236.8ZM303.425 215.423C302.693 214.967 301.856 214.658 300.925 214.511C298.033 214.036 294.677 215.189 291.732 217.665C286.43 222.114 284.109 229.479 286.548 234.08C287.557 235.973 289.212 237.155 291.343 237.505C294.239 237.974 297.594 236.821 300.536 234.35C305.841 229.896 308.158 222.536 305.723 217.929C305.156 216.857 304.38 216.018 303.425 215.423Z" fill="#371A45"/>
<path d="M285.932 225.963C286.749 223.653 288.188 221.534 289.945 219.81C288.495 225.21 291.136 229.498 296.174 229.597C299.433 229.664 302.944 227.956 305.664 225.286C305.575 225.632 305.459 225.977 305.332 226.329C303.237 232.198 297.191 236.88 291.831 236.778C286.476 236.679 283.837 231.832 285.932 225.963Z" fill="#371A45" fill-opacity="0.25"/>
<path d="M288.263 237.784C286.631 236.768 285.545 235.092 285.107 232.918C284.401 229.396 285.516 224.931 288.095 220.992C292.441 214.327 299.678 211.008 304.221 213.578C305.983 214.577 307.156 216.307 307.619 218.587C308.329 222.104 307.205 226.571 304.631 230.513C300.288 237.172 293.048 240.498 288.5 237.924C288.416 237.879 288.339 237.831 288.263 237.784ZM303.209 215.713C303.153 215.678 303.102 215.647 303.048 215.62C299.48 213.603 293.585 216.547 289.91 222.19C287.679 225.603 286.702 229.381 287.287 232.306C287.615 233.964 288.438 235.204 289.666 235.893C293.23 237.907 299.124 234.963 302.805 229.323C305.027 225.912 306.012 222.132 305.428 219.208C305.113 217.618 304.343 216.419 303.209 215.713Z" fill="#371A45"/>
<path d="M283.8 176.331C283.8 176.331 267.321 165.867 251.681 169.182C251.664 169.187 251.647 169.191 251.633 169.19C248.341 169.891 245.241 171.483 242.648 173.778C239.223 176.811 237.271 179.391 235.631 181.719C230.647 188.819 229.558 193.027 229.558 193.027C228.408 186.592 229.269 180.826 233.361 174.874C233.769 174.287 234.199 173.699 234.673 173.108C234.78 172.97 234.892 172.835 235.004 172.7C234.999 172.697 235.007 172.695 235.011 172.689C236.035 171.554 237.432 170.114 239.135 168.614C244.274 164.086 252.17 159.026 260.898 160.255C277.22 162.576 284.869 175.973 283.8 176.331Z" fill="white" fill-opacity="0.5"/>
<mask id="mask6_26_6850" style="mask-type:luminance" maskUnits="userSpaceOnUse" x="0" y="0" width="545" height="487">
<path d="M151.111 0.226791L544.611 245.193L394.271 486.692L0.770283 241.725L151.111 0.226791Z" fill="black" fill-opacity="0.5"/>
</mask>
<g mask="url(#mask6_26_6850)">
<mask id="mask7_26_6850" style="mask-type:luminance" maskUnits="userSpaceOnUse" x="272" y="191" width="23" height="24">
<path d="M281.875 191.002L294.888 199.102L285.317 214.475L272.305 206.375L281.875 191.002Z" fill="white"/>
</mask>
<g mask="url(#mask7_26_6850)">
<mask id="mask8_26_6850" style="mask-type:luminance" maskUnits="userSpaceOnUse" x="273" y="191" width="21" height="22">
<path d="M293.586 198.292L281.926 191.033L273.226 205.009L284.886 212.268L293.586 198.292Z" fill="white"/>
</mask>
<g mask="url(#mask8_26_6850)">
<path d="M288.821 204.044C288.656 204.479 288.46 204.895 288.232 205.306C288.003 205.709 287.738 206.089 287.451 206.448C287.167 206.802 286.851 207.128 286.517 207.428C286.186 207.721 285.835 207.98 285.463 208.203C285.091 208.426 284.716 208.609 284.324 208.752C283.933 208.894 283.546 208.994 283.154 209.046C282.759 209.103 282.367 209.109 281.986 209.076C281.604 209.043 281.228 208.968 280.873 208.846C280.511 208.726 280.175 208.562 279.853 208.354C279.533 208.155 279.24 207.912 278.971 207.631C278.707 207.353 278.463 207.042 278.258 206.702C278.052 206.354 277.877 205.988 277.742 205.593C277.602 205.196 277.499 204.783 277.437 204.35C277.377 203.926 277.348 203.485 277.362 203.031C277.378 202.587 277.428 202.133 277.519 201.682C277.609 201.231 277.737 200.787 277.9 200.344C278.065 199.909 278.261 199.493 278.494 199.085C278.723 198.682 278.983 198.298 279.27 197.939C279.559 197.589 279.869 197.26 280.204 196.96C280.54 196.67 280.891 196.411 281.258 196.185C281.63 195.962 282.01 195.782 282.396 195.636C282.788 195.494 283.18 195.397 283.572 195.345C283.967 195.288 284.354 195.279 284.735 195.312C285.122 195.348 285.493 195.42 285.847 195.542C286.21 195.662 286.546 195.825 286.868 196.033C287.188 196.233 287.481 196.476 287.75 196.757C288.019 197.038 288.258 197.346 288.468 197.689C288.669 198.034 288.843 198.4 288.984 198.798C289.119 199.192 289.222 199.605 289.284 200.037C289.349 200.464 289.373 200.903 289.358 201.356C289.348 201.804 289.293 202.255 289.202 202.706C289.112 203.157 288.981 203.606 288.821 204.044Z" fill="white"/>
</g>
</g>
</g>
<mask id="mask9_26_6850" style="mask-type:luminance" maskUnits="userSpaceOnUse" x="0" y="0" width="545" height="487">
<path d="M151.111 0.226791L544.611 245.193L394.271 486.692L0.770283 241.725L151.111 0.226791Z" fill="black" fill-opacity="0.5"/>
</mask>
<g mask="url(#mask9_26_6850)">
<mask id="mask10_26_6850" style="mask-type:luminance" maskUnits="userSpaceOnUse" x="273" y="208" width="12" height="13">
<path d="M278.38 208.217L284.886 212.268L279.666 220.653L273.16 216.603L278.38 208.217Z" fill="white"/>
</mask>
<g mask="url(#mask10_26_6850)">
<mask id="mask11_26_6850" style="mask-type:luminance" maskUnits="userSpaceOnUse" x="274" y="209" width="9" height="10">
<path d="M282.715 212.855L277.668 209.713L274.187 215.303L279.235 218.445L282.715 212.855Z" fill="white"/>
</mask>
<g mask="url(#mask11_26_6850)">
<path d="M281.068 214.776C280.965 215.145 280.806 215.492 280.591 215.813C280.381 216.129 280.13 216.397 279.836 216.608C279.544 216.828 279.237 216.97 278.913 217.048C278.584 217.124 278.272 217.126 277.963 217.055C277.655 216.985 277.373 216.847 277.131 216.636C276.886 216.43 276.691 216.165 276.545 215.855C276.398 215.536 276.317 215.19 276.294 214.82C276.271 214.449 276.314 214.074 276.419 213.701C276.52 213.324 276.676 212.982 276.896 212.664C277.11 212.343 277.358 212.08 277.655 211.864C277.943 211.65 278.25 211.508 278.574 211.429C278.903 211.354 279.219 211.345 279.527 211.416C279.836 211.487 280.114 211.63 280.356 211.841C280.601 212.047 280.796 212.312 280.942 212.622C281.089 212.941 281.173 213.282 281.193 213.658C281.216 214.028 281.173 214.403 281.068 214.776Z" fill="white"/>
</g>
</g>
</g>
<path d="M325.976 237.431C327.148 237.6 329.046 236.896 329.617 236.523C330.782 235.772 332.327 234.923 334.204 233.766C337.413 231.772 343.547 230.144 344.827 232.812C346.873 237.07 339.568 238.439 339.092 239.316C338.606 240.188 338.316 245.423 333.838 248.628L325.976 237.431Z" fill="white"/>
<path d="M326.193 236.324C326.422 236.353 326.761 236.329 327.111 236.266C327.46 236.203 327.833 236.102 328.184 235.98C328.359 235.915 328.542 235.847 328.704 235.781C328.873 235.712 329.028 235.634 329.114 235.574C329.499 235.329 329.883 235.098 330.258 234.87L332.501 233.532L333.608 232.865C333.998 232.623 334.421 232.386 334.831 232.18C335.661 231.764 336.508 231.413 337.363 231.127C338.23 230.833 339.108 230.6 340.012 230.451C340.916 230.302 341.856 230.22 342.836 230.345C343.326 230.408 343.836 230.529 344.338 230.765C344.836 231.007 345.344 231.392 345.674 231.938C345.857 232.234 345.945 232.455 346.051 232.703C346.139 232.97 346.225 233.228 346.274 233.523C346.373 234.1 346.345 234.78 346.124 235.407C345.916 236.035 345.551 236.565 345.169 236.987C344.779 237.41 344.364 237.735 343.943 238.026C343.117 238.595 342.275 238.995 341.463 239.36L340.307 239.868C340.131 239.948 339.958 240.045 339.91 240.076C339.878 240.093 339.922 240.068 339.932 240.051C339.924 240.054 339.997 239.993 340.031 239.938C340.048 239.911 340.065 239.884 340.082 239.857C340.094 239.826 340.085 239.851 340.088 239.846C340.093 239.849 340.093 239.849 340.088 239.846C340.087 239.837 340.078 239.862 340.073 239.882L340.058 239.94C339.959 240.257 339.848 240.719 339.732 241.154C339.611 241.586 339.482 242.044 339.327 242.485C339.029 243.383 338.657 244.264 338.172 245.099C337.219 246.778 335.782 248.224 334.14 249.073C333.863 249.211 333.539 249.108 333.423 248.831C333.331 248.615 333.381 248.366 333.541 248.2L333.566 248.17C334.14 247.543 334.709 246.958 335.164 246.272C335.285 246.112 335.399 245.94 335.504 245.771C335.609 245.602 335.73 245.442 335.818 245.255L336.117 244.729L336.378 244.186C336.718 243.459 337.007 242.7 337.242 241.914C337.361 241.519 337.467 241.122 337.564 240.706C337.675 240.29 337.745 239.894 337.895 239.359L337.925 239.264C337.937 239.234 337.941 239.206 337.968 239.139C338.007 239.042 338.05 238.94 338.097 238.841C338.114 238.814 338.113 238.805 338.147 238.75C338.177 238.701 338.208 238.652 338.247 238.601C338.31 238.511 338.412 238.393 338.447 238.369C338.546 238.279 338.664 238.179 338.729 238.143C339.04 237.928 339.253 237.834 339.469 237.725C339.903 237.526 340.293 237.352 340.675 237.181C341.439 236.838 342.16 236.484 342.774 236.064C343.395 235.655 343.849 235.165 343.99 234.745C344.06 234.531 344.086 234.32 344.044 234.059C344.028 233.936 343.983 233.794 343.942 233.655C343.883 233.512 343.821 233.352 343.772 233.283C343.591 232.951 343.084 232.689 342.409 232.594C341.744 232.506 340.985 232.549 340.215 232.675C338.683 232.926 337.112 233.456 335.677 234.175C335.315 234.359 334.978 234.551 334.635 234.761L333.501 235.45L331.253 236.784C330.889 237.005 330.526 237.226 330.173 237.453C329.895 237.628 329.661 237.732 329.427 237.837C329.196 237.935 328.972 238.023 328.745 238.094C328.293 238.252 327.827 238.378 327.343 238.464C326.863 238.544 326.353 238.605 325.758 238.53C325.173 238.461 324.782 237.899 324.895 237.288C325.007 236.676 325.573 236.233 326.159 236.31L326.193 236.324Z" fill="#371A45"/>
<path d="M230.079 253.777L237.252 277.285L250.727 283L257.845 286.022C257.845 286.022 264.337 285.451 265.918 285.291C268.051 285.081 268.128 282.455 267.709 280.861C267.007 278.137 266.616 275.514 266.398 273.054C266.051 269.08 266.154 265.516 266.136 262.565C266.118 260.146 264.519 258.15 262.244 257.726C248.644 255.214 235.794 251.214 235.794 251.214L230.079 253.777Z" fill="white"/>
<path d="M236.727 278.14C236.544 278.026 236.415 277.847 236.348 277.639L229.175 254.13C229.025 253.635 229.283 253.084 229.76 252.873L235.474 250.31C235.688 250.216 235.926 250.197 236.136 250.267C236.26 250.307 249.099 254.277 262.487 256.756C265.188 257.256 267.082 259.617 267.106 262.502C267.11 263.141 267.114 263.826 267.113 264.53C267.106 268.971 267.094 274.509 268.649 280.552C268.987 281.868 269.037 283.725 268.169 284.995C267.65 285.748 266.888 286.19 265.956 286.284C264.397 286.442 258.149 286.984 257.883 287.015C257.734 287.028 257.586 287.005 257.451 286.951L236.854 278.219C236.798 278.184 236.763 278.162 236.727 278.14ZM231.266 254.295L238.05 276.524L258.064 285.014C259.219 284.915 264.503 284.448 265.89 284.304C266.333 284.261 266.515 284.071 266.627 283.914C267.045 283.311 267.023 282.077 266.797 281.172C265.177 274.891 265.181 269.22 265.192 264.659C265.194 263.964 265.192 263.288 265.196 262.647C265.18 260.667 263.876 259.045 262.029 258.706C249.739 256.433 237.923 252.903 235.806 252.259L231.266 254.295Z" fill="#371A45"/>
<path d="M250.731 282.995L257.849 286.017C257.849 286.017 264.341 285.445 265.921 285.285C267.555 285.12 267.977 283.558 267.909 282.114C267.89 281.67 267.812 281.228 267.718 280.859C267.016 278.134 266.624 275.512 266.407 273.051C265.77 273.95 263.747 274.198 261.871 272.667C261.021 271.971 260.241 266.516 258.825 265.438C254.681 262.282 251.462 277.049 250.731 282.995Z" fill="#371A45" fill-opacity="0.3"/>
<path d="M295.786 263.563C296.335 265.185 296.007 267.117 294.969 268.387C281.949 284.363 263.024 282.383 261.625 277.005C260.348 272.089 264.169 270.098 264.169 270.098C264.169 270.098 277.498 273.805 290.69 261.383C292.403 259.776 294.764 260.526 295.571 262.945L295.786 263.563Z" fill="white"/>
<path d="M261.628 277C263.027 282.378 281.952 284.357 294.972 268.382C296.002 267.114 296.335 265.185 295.789 263.558L295.586 262.932C295.289 262.05 294.791 261.399 294.195 260.998C294.155 262.093 293.78 263.171 293.13 263.978C281.971 277.665 266.482 278.165 261.397 274.652C261.337 275.349 261.401 276.131 261.628 277Z" fill="#371A45" fill-opacity="0.3"/>
<path d="M262.894 280.212C261.669 279.449 260.868 278.481 260.58 277.37C259.384 272.754 262.121 269.944 263.738 269.102L264.123 268.903L264.515 269.01C264.642 269.044 277.452 272.383 289.992 260.578C291.011 259.621 292.295 259.224 293.517 259.492C294.907 259.797 296.066 260.927 296.599 262.517L296.81 263.141C297.474 265.122 297.061 267.508 295.775 269.086C287.071 279.772 275.139 283.146 267.184 281.739C265.457 281.421 264.002 280.902 262.894 280.212ZM264.286 271.292C263.526 271.833 261.85 273.449 262.68 276.647C263.007 277.912 264.976 279.031 267.696 279.512C275.021 280.808 286.046 277.657 294.161 267.703C294.927 266.756 295.178 265.23 294.758 263.991L294.546 263.367C294.241 262.465 293.634 261.83 292.931 261.68C292.395 261.566 291.861 261.734 291.391 262.183C279.112 273.749 266.841 271.844 264.286 271.292Z" fill="#371A45"/>
<path d="M236.311 273.677C236.511 275.688 236.542 278.222 236.542 278.222C236.542 278.222 240.565 277.901 240.889 277.845C241.955 277.66 242.593 275.164 242.302 272.278C242.014 269.387 240.913 267.202 239.846 267.386C239.066 267.529 235.838 267.739 235.838 267.739C235.838 267.739 236.235 272.903 236.311 273.677Z" fill="white"/>
<path d="M238.832 272.504C238.9 273.198 238.903 273.874 238.833 274.542C238.771 275.208 238.641 275.802 238.447 276.34C238.251 276.87 238.013 277.297 237.723 277.616C237.434 277.944 237.119 278.134 236.778 278.194C236.432 278.252 236.091 278.176 235.747 277.969C235.406 277.757 235.088 277.43 234.795 276.983C234.508 276.539 234.264 276.001 234.068 275.387C233.876 274.767 233.739 274.114 233.671 273.42C233.602 272.725 233.603 272.044 233.67 271.381C233.737 270.719 233.865 270.117 234.06 269.587C234.251 269.054 234.489 268.627 234.783 268.302C235.073 267.983 235.389 267.793 235.73 267.733C236.071 267.672 236.415 267.742 236.755 267.954C237.099 268.161 237.414 268.493 237.707 268.941C238 269.388 238.242 269.917 238.434 270.537C238.635 271.155 238.763 271.81 238.832 272.504Z" fill="white"/>
<path d="M230.054 254.927C230.395 257.109 230.928 260.592 231.599 264.206C232.558 269.371 233.798 274.824 235.141 277.153C237.479 281.191 249.714 284.74 257.854 286.02C259.992 286.359 261.941 284.451 261.421 282.295C260.58 278.763 259.986 275.333 259.569 272.355C259.176 269.542 258.947 267.134 258.82 265.434C258.7 263.883 257.579 262.67 256.092 262.464C243.137 260.671 235.007 256.147 231.571 253.849C230.868 253.381 229.916 254.061 230.054 254.927Z" fill="white"/>
<path d="M233.611 271.193C234.142 273.387 234.714 275.334 235.313 276.684C235.452 277.005 235.599 277.301 235.746 277.552C238.011 281.47 249.858 284.906 257.738 286.138C259.807 286.463 261.702 284.62 261.199 282.527C260.379 279.108 259.805 275.782 259.409 272.906C258.25 275.041 254.866 279.388 246.739 278.768C244.637 278.61 242.693 277.711 240.919 276.379C241.543 275.502 241.971 273.716 241.963 271.689C241.955 268.858 241.095 266.626 240.057 266.707C239.419 266.757 237.15 266.685 236.413 266.658C236.303 266.642 236.189 266.632 236.079 266.639C235.343 266.689 234.681 267.39 234.228 268.457C233.9 269.222 233.678 270.167 233.611 271.193Z" fill="#371A45" fill-opacity="0.3"/>
<path d="M234.884 275.402C234.86 274.342 234.993 273.357 235.25 272.547C234.402 271.428 233.632 270.298 232.937 269.228C233.546 271.32 234.21 273.46 234.884 275.402Z" fill="#371A45" fill-opacity="0.3"/>
<path d="M237.477 280.607C236.018 279.698 234.903 278.724 234.315 277.699C232.012 273.728 230.113 261.539 229.188 255.684L229.106 255.148C228.988 254.362 229.33 253.553 229.997 253.082C230.659 252.607 231.493 252.581 232.125 253.005C235.732 255.425 243.669 259.737 256.275 261.479C258.175 261.746 259.615 263.308 259.765 265.288C260.018 268.574 260.696 275.109 262.344 281.991C262.655 283.282 262.314 284.6 261.414 285.615C260.451 286.698 259.043 287.215 257.642 286.994C251.507 286.031 242.468 283.714 237.477 280.607ZM231.016 254.685L231.078 255.232C231.907 260.527 233.846 272.923 235.969 276.593C237.929 279.971 248.961 283.605 258.064 285.037C258.815 285.156 259.558 284.892 260.06 284.334C260.308 284.049 260.704 283.447 260.5 282.585C258.819 275.577 258.13 268.921 257.87 265.578C257.783 264.471 256.977 263.591 255.909 263.448C242.939 261.646 234.745 257.181 231.016 254.685Z" fill="#371A45"/>
<path d="M236.311 273.677C236.511 275.688 236.542 278.222 236.542 278.222C236.542 278.222 240.565 277.901 240.889 277.845C241.955 277.66 242.593 275.164 242.302 272.278C242.014 269.387 240.913 267.202 239.846 267.386C239.066 267.529 235.838 267.739 235.838 267.739C235.838 267.739 236.235 272.903 236.311 273.677Z" fill="#22A7F0"/>
<path d="M235.838 267.739C235.838 267.739 236.239 272.897 236.311 273.677C236.511 275.688 236.542 278.222 236.542 278.222C236.542 278.222 236.62 278.21 236.752 278.201C236.719 277.37 236.663 276.373 236.569 275.482C236.494 274.707 236.089 269.547 236.089 269.547C236.089 269.547 239.319 269.331 240.11 269.194C240.976 269.037 241.865 270.453 242.322 272.541C242.317 272.447 242.31 272.367 242.297 272.275C242.009 269.384 240.908 267.199 239.841 267.383C239.066 267.529 235.838 267.739 235.838 267.739Z" fill="white" fill-opacity="0.8"/>
<path d="M236.382 274.638C236.519 276.412 236.542 278.222 236.542 278.222C236.542 278.222 240.565 277.901 240.889 277.845C241.955 277.66 242.593 275.164 242.302 272.278C242.21 271.304 242.021 270.406 241.767 269.658C241.849 272.133 241.244 274.135 240.296 274.31C240.032 274.349 237.445 274.55 236.382 274.638Z" fill="#371A45" fill-opacity="0.3"/>
<path d="M236.1 278.932C235.887 278.799 235.746 278.56 235.75 278.282C235.75 278.259 235.713 275.759 235.523 273.808C235.448 273.034 235.054 268.07 235.045 267.859C235.026 267.628 235.103 267.403 235.251 267.222C235.398 267.041 235.614 266.933 235.843 266.917C236.728 266.854 239.163 266.681 239.767 266.572C241.64 266.238 242.811 269.217 243.099 272.131C243.248 273.625 243.175 275.079 242.876 276.227C242.392 278.137 241.476 278.567 240.972 278.662C240.64 278.72 237.504 278.965 236.554 279.04C236.383 279.055 236.227 279.011 236.1 278.932ZM236.697 268.501C236.814 270.013 237.044 272.974 237.099 273.531C237.236 274.874 237.296 276.411 237.32 277.335C238.987 277.206 240.603 277.069 240.815 277.034C241.141 276.896 241.789 275.141 241.516 272.418C241.242 269.687 240.274 268.228 239.926 268.209C239.363 268.298 237.732 268.426 236.697 268.501Z" fill="#371A45"/>
<path d="M238.832 272.504C238.9 273.198 238.903 273.874 238.833 274.542C238.771 275.208 238.641 275.802 238.447 276.34C238.251 276.87 238.013 277.297 237.723 277.616C237.434 277.944 237.119 278.134 236.778 278.194C236.432 278.252 236.091 278.176 235.747 277.969C235.406 277.757 235.088 277.43 234.795 276.983C234.508 276.539 234.264 276.001 234.068 275.387C233.876 274.767 233.739 274.114 233.671 273.42C233.602 272.725 233.603 272.044 233.67 271.381C233.737 270.719 233.865 270.117 234.06 269.587C234.251 269.054 234.489 268.627 234.783 268.302C235.073 267.983 235.389 267.793 235.73 267.733C236.071 267.672 236.415 267.742 236.755 267.954C237.099 268.161 237.414 268.493 237.707 268.941C238 269.388 238.242 269.917 238.434 270.537C238.635 271.155 238.763 271.81 238.832 272.504Z" fill="#22A7F0"/>
<path d="M233.667 273.425C233.686 273.611 233.713 273.794 233.734 273.974C233.824 271.735 234.66 269.96 235.834 269.752C237.164 269.519 238.467 271.368 238.869 273.974C238.888 273.501 238.874 273.015 238.828 272.51C238.541 269.619 237.149 267.48 235.721 267.735C234.298 267.993 233.376 270.539 233.667 273.425Z" fill="white" fill-opacity="0.8"/>
<path d="M233.694 273.676C234.033 276.44 235.38 278.445 236.761 278.199C238.186 277.95 239.105 275.408 238.817 272.517C238.659 271.003 238.208 269.699 237.614 268.83C237.621 268.91 237.632 268.993 237.639 269.073C237.927 271.964 237.003 274.502 235.575 274.756C234.912 274.881 234.244 274.458 233.694 273.676Z" fill="#371A45" fill-opacity="0.3"/>
<path d="M235.28 278.686C234.06 277.926 233.118 276.029 232.868 273.564C232.524 270.13 233.714 267.265 235.636 266.932C237.561 266.592 239.272 268.93 239.614 272.37C239.957 275.818 238.765 278.674 236.848 279.011C236.3 279.109 235.763 278.986 235.28 278.686ZM236.314 268.687C236.131 268.573 235.953 268.53 235.802 268.557C235.077 268.69 234.19 270.591 234.463 273.291C234.73 275.988 235.963 277.52 236.684 277.393C237.413 277.264 238.296 275.359 238.028 272.663C237.819 270.517 237 269.114 236.314 268.687Z" fill="#371A45"/>
<path d="M248.17 284.605C248.012 284.506 247.899 284.337 247.86 284.139L246.478 275.946C246.226 274.449 247.051 272.864 248.442 272.192C249.144 271.857 249.591 271.105 249.547 270.327L249.043 261.393C249.021 260.986 249.329 260.617 249.72 260.565C250.116 260.508 250.454 260.802 250.479 261.204L250.983 270.138C251.063 271.551 250.257 272.913 248.979 273.527C248.212 273.897 247.762 274.768 247.902 275.598L249.287 283.785C249.347 284.186 249.091 284.587 248.699 284.684C248.499 284.733 248.322 284.699 248.17 284.605Z" fill="#371A45"/>
<path d="M279.295 303.852C278.848 303.574 278.686 302.973 278.931 302.444C279.199 301.876 279.852 301.609 280.386 301.85C281.973 302.565 286.083 302.828 290.356 300.474C293.987 298.47 298.807 293.911 301.135 283.566C301.27 282.953 301.85 282.541 302.432 282.638C303.015 282.744 303.381 283.312 303.246 283.925C300.725 295.158 295.336 300.188 291.265 302.434C286.266 305.185 281.437 304.83 279.414 303.911C279.366 303.896 279.331 303.874 279.295 303.852Z" fill="#371A45"/>
<path d="M307.442 263.782C307.335 263.716 307.232 263.621 307.152 263.511C303.435 258.175 302.962 251.593 305.764 244.475C307.84 239.192 310.962 235.515 311.096 235.356C311.507 234.877 312.19 234.81 312.632 235.199C313.066 235.59 313.084 236.298 312.678 236.78C312.642 236.826 309.66 240.348 307.742 245.252C305.229 251.679 305.632 257.353 308.941 262.11C309.282 262.595 309.157 263.305 308.656 263.69C308.286 263.99 307.803 264.007 307.442 263.782Z" fill="#371A45"/>
<path d="M261.882 260.584C261.857 260.341 258.852 261.758 256.97 261.813C255.996 261.836 258.201 265.193 258.561 263.993C259.003 262.557 261.907 260.827 261.882 260.584Z" fill="#371A45"/>
</svg>
