<svg xmlns="http://www.w3.org/2000/svg" xmlns:xlink="http://www.w3.org/1999/xlink" width="336" zoomAndPan="magnify" viewBox="0 0 252 143.999998" height="192" preserveAspectRatio="xMidYMid meet" version="1.0"><defs><filter x="0%" y="0%" width="100%" height="100%" id="cb90623bd1"><feColorMatrix values="0 0 0 0 1 0 0 0 0 1 0 0 0 0 1 0 0 0 1 0" color-interpolation-filters="sRGB"/></filter><clipPath id="8176e6146d"><path d="M 130 56 L 188.652344 56 L 188.652344 85 L 130 85 Z M 130 56 " clip-rule="nonzero"/></clipPath><clipPath id="4ffa572823"><path d="M 93 86 L 129 86 L 129 117.96875 L 93 117.96875 Z M 93 86 " clip-rule="nonzero"/></clipPath><clipPath id="c4d6b2a7d9"><path d="M 94 94 L 129 94 L 129 117.96875 L 94 117.96875 Z M 94 94 " clip-rule="nonzero"/></clipPath><clipPath id="aa52548aba"><path d="M 92 86 L 130 86 L 130 117.96875 L 92 117.96875 Z M 92 86 " clip-rule="nonzero"/></clipPath><clipPath id="0dffb3c38d"><path d="M 76.363281 77 L 117 77 L 117 109 L 76.363281 109 Z M 76.363281 77 " clip-rule="nonzero"/></clipPath><clipPath id="3cf027acd7"><path d="M 76.363281 44 L 132 44 L 132 75 L 76.363281 75 Z M 76.363281 44 " clip-rule="nonzero"/></clipPath><mask id="e68bbb3b98"><g filter="url(#cb90623bd1)"><rect x="-25.2" width="302.4" fill="#000000" y="-14.4" height="172.799997" fill-opacity="0.5"/></g></mask><clipPath id="3638d16d42"><path d="M 1 0 L 9.960938 0 L 9.960938 10 L 1 10 Z M 1 0 " clip-rule="nonzero"/></clipPath><clipPath id="dc79bd6fce"><rect x="0" width="10" y="0" height="11"/></clipPath><mask id="e6fb3617a1"><g filter="url(#cb90623bd1)"><rect x="-25.2" width="302.4" fill="#000000" y="-14.4" height="172.799997" fill-opacity="0.5"/></g></mask><clipPath id="b7d823d46b"><path d="M 1 1 L 4.878906 1 L 4.878906 5 L 1 5 Z M 1 1 " clip-rule="nonzero"/></clipPath><clipPath id="d389f846ea"><rect x="0" width="5" y="0" height="6"/></clipPath></defs><path fill="#ffffff" d="M 103.867188 93.5625 C 103.867188 93.5625 102.359375 91.921875 100.511719 89.558594 C 100.148438 89.09375 99.777344 88.605469 99.398438 88.09375 C 99.339844 88.011719 99.277344 87.929688 99.21875 87.851562 C 99.039062 87.605469 98.855469 87.355469 98.675781 87.105469 C 96.082031 83.457031 93.550781 79.058594 93.875 76.085938 C 94.402344 71.234375 107.183594 58.988281 114.328125 56.460938 C 116.210938 55.792969 118.839844 56.863281 121.425781 58.503906 C 121.441406 58.515625 121.460938 58.527344 121.476562 58.535156 C 123.371094 59.738281 125.242188 61.246094 126.773438 62.585938 C 126.910156 62.703125 127.042969 62.820312 127.171875 62.9375 C 127.429688 63.167969 127.675781 63.394531 127.914062 63.605469 C 128.09375 63.777344 128.269531 63.9375 128.433594 64.089844 C 129.625 65.203125 130.363281 65.976562 130.363281 65.976562 L 127.789062 68.65625 L 126.476562 70.023438 L 124.042969 72.558594 L 123.308594 73.324219 Z M 103.867188 93.5625 " fill-opacity="1" fill-rule="nonzero"/><path fill="#371a45" d="M 127.792969 68.660156 L 126.484375 70.027344 L 108.527344 88.714844 L 103.867188 93.5625 C 103.867188 93.5625 103.835938 93.527344 103.777344 93.460938 C 103.761719 93.441406 103.738281 93.421875 103.71875 93.398438 C 103.703125 93.378906 103.683594 93.359375 103.664062 93.335938 C 103.648438 93.320312 103.636719 93.304688 103.621094 93.289062 C 103.617188 93.28125 103.609375 93.277344 103.601562 93.269531 C 103.574219 93.242188 103.546875 93.203125 103.515625 93.167969 C 103.507812 93.160156 103.503906 93.152344 103.496094 93.144531 C 103.472656 93.117188 103.441406 93.082031 103.414062 93.050781 C 103.375 93.007812 103.335938 92.960938 103.292969 92.914062 C 103.265625 92.878906 103.234375 92.84375 103.203125 92.808594 C 103.167969 92.773438 103.136719 92.730469 103.101562 92.695312 C 103.058594 92.648438 103.011719 92.59375 102.96875 92.542969 C 102.875 92.433594 102.777344 92.320312 102.675781 92.199219 C 102.582031 92.09375 102.488281 91.980469 102.390625 91.863281 C 102.277344 91.726562 102.15625 91.585938 102.035156 91.4375 C 101.578125 90.886719 101.0625 90.253906 100.515625 89.554688 C 100.410156 89.417969 100.300781 89.28125 100.195312 89.140625 C 100.117188 89.042969 100.042969 88.941406 99.964844 88.839844 C 99.78125 88.597656 99.59375 88.34375 99.402344 88.089844 C 96.582031 84.28125 93.527344 79.328125 93.882812 76.082031 C 94.316406 72.085938 103.0625 63.078125 110.125 58.609375 C 104.636719 63.226562 99.589844 69.085938 99.261719 72.097656 C 99.101562 73.585938 99.746094 75.519531 100.769531 77.550781 C 101.207031 78.414062 102.414062 78.453125 102.921875 77.625 C 102.925781 77.617188 102.929688 77.613281 102.933594 77.605469 C 103.863281 76.09375 105.105469 74.550781 106.796875 72.996094 C 110.421875 69.667969 116.109375 65.390625 123.925781 65.476562 C 124.105469 65.480469 125.78125 66.914062 127.792969 68.660156 Z M 127.792969 68.660156 " fill-opacity="0.35" fill-rule="nonzero"/><path fill="#371a45" d="M 103.855469 94.578125 L 131.328125 65.984375 L 130.863281 65.5 C 130.753906 65.382812 128.078125 62.59375 124.714844 59.980469 C 120.054688 56.363281 116.484375 54.957031 114.101562 55.800781 C 106.644531 58.441406 93.742188 70.90625 93.1875 76.011719 C 92.515625 82.15625 102.917969 93.554688 103.359375 94.035156 Z M 129.402344 65.984375 L 103.886719 92.542969 C 101.832031 90.203125 94.039062 80.984375 94.566406 76.164062 C 94.789062 74.109375 97.75 70.082031 102.101562 65.902344 C 106.566406 61.621094 111.339844 58.253906 114.5625 57.113281 C 118.277344 55.796875 126.121094 62.671875 129.402344 65.984375 Z M 129.402344 65.984375 " fill-opacity="1" fill-rule="nonzero"/><path fill="#ffffff" d="M 103.683594 67.394531 L 107.714844 72.386719 C 108.078125 72.832031 108.09375 73.464844 107.75 73.929688 C 106.511719 75.621094 103.441406 79.382812 100.914062 79.015625 C 98.816406 78.710938 97.074219 76.632812 96.960938 74.550781 C 96.835938 72.226562 100.136719 68.847656 101.851562 67.261719 C 102.390625 66.765625 103.230469 66.828125 103.683594 67.394531 Z M 103.683594 67.394531 " fill-opacity="1" fill-rule="nonzero"/><path fill="#371a45" d="M 107.753906 73.929688 C 106.515625 75.625 103.445312 79.382812 100.917969 79.011719 C 98.816406 78.707031 97.078125 76.628906 96.964844 74.546875 C 96.890625 73.117188 98.109375 71.289062 99.460938 69.722656 C 98.914062 70.640625 98.617188 71.542969 98.609375 72.332031 C 98.542969 76.839844 102.871094 76.054688 102.871094 76.054688 C 102.871094 76.054688 102.507812 76.972656 102.699219 77.253906 C 103.5 78.414062 106.460938 75.203125 107.960938 73.507812 C 107.921875 73.65625 107.851562 73.800781 107.753906 73.929688 Z M 107.753906 73.929688 " fill-opacity="0.35" fill-rule="nonzero"/><path fill="#371a45" d="M 101.265625 79.734375 C 103.945312 79.734375 106.800781 76.40625 108.3125 74.34375 C 108.839844 73.628906 108.816406 72.640625 108.257812 71.949219 L 104.226562 66.949219 C 103.886719 66.53125 103.386719 66.265625 102.851562 66.230469 C 102.320312 66.195312 101.789062 66.378906 101.394531 66.742188 C 98.988281 68.972656 96.148438 72.140625 96.277344 74.585938 C 96.410156 77.058594 98.453125 79.351562 100.820312 79.699219 C 100.96875 79.726562 101.117188 79.734375 101.265625 79.734375 Z M 103.148438 67.828125 L 107.179688 72.828125 C 107.34375 73.03125 107.351562 73.3125 107.199219 73.519531 C 104.828125 76.75 102.519531 78.542969 101.015625 78.328125 C 99.292969 78.078125 97.757812 76.328125 97.65625 74.511719 C 97.582031 73.070312 99.324219 70.550781 102.328125 67.769531 C 102.441406 67.660156 102.589844 67.609375 102.75 67.621094 C 102.910156 67.632812 103.050781 67.707031 103.148438 67.828125 Z M 103.148438 67.828125 " fill-opacity="1" fill-rule="nonzero"/><path fill="#371a45" d="M 97.902344 77.839844 C 98.039062 77.878906 98.117188 77.894531 98.222656 77.910156 C 98.320312 77.925781 98.414062 77.9375 98.507812 77.941406 C 98.695312 77.960938 98.882812 77.960938 99.066406 77.953125 C 99.429688 77.925781 99.792969 77.875 100.136719 77.773438 C 100.832031 77.582031 101.46875 77.261719 102.035156 76.867188 C 102.308594 76.660156 102.582031 76.453125 102.832031 76.21875 C 103.09375 75.996094 103.316406 75.753906 103.554688 75.515625 C 103.789062 75.273438 104.011719 75.023438 104.222656 74.761719 C 104.433594 74.492188 104.632812 74.238281 104.804688 73.902344 C 104.84375 73.820312 104.8125 73.71875 104.730469 73.679688 C 104.65625 73.640625 104.5625 73.667969 104.519531 73.734375 L 104.507812 73.757812 C 104.351562 74 104.125 74.25 103.90625 74.476562 C 103.679688 74.707031 103.441406 74.921875 103.195312 75.132812 C 102.949219 75.339844 102.695312 75.558594 102.4375 75.738281 C 102.1875 75.933594 101.917969 76.097656 101.648438 76.257812 C 101.105469 76.566406 100.523438 76.789062 99.933594 76.890625 C 99.640625 76.945312 99.34375 76.957031 99.054688 76.949219 C 98.910156 76.945312 98.769531 76.929688 98.632812 76.902344 C 98.5625 76.890625 98.496094 76.875 98.429688 76.855469 C 98.375 76.839844 98.292969 76.816406 98.273438 76.804688 C 98.003906 76.660156 97.667969 76.765625 97.527344 77.035156 C 97.386719 77.304688 97.488281 77.644531 97.757812 77.785156 C 97.789062 77.800781 97.820312 77.8125 97.851562 77.824219 Z M 97.902344 77.839844 " fill-opacity="1" fill-rule="nonzero"/><path fill="#371a45" d="M 121.597656 62.957031 C 121.136719 62.304688 120.660156 61.671875 120.175781 61.046875 C 119.691406 60.421875 119.195312 59.800781 118.675781 59.195312 C 118.164062 58.589844 117.636719 57.988281 117.070312 57.410156 C 116.507812 56.832031 115.921875 56.265625 115.253906 55.753906 C 114.949219 55.519531 114.511719 55.582031 114.28125 55.886719 C 114.046875 56.195312 114.109375 56.628906 114.414062 56.863281 C 114.425781 56.871094 114.4375 56.882812 114.453125 56.890625 L 114.457031 56.898438 C 115.066406 57.296875 115.652344 57.785156 116.226562 58.292969 C 116.800781 58.800781 117.355469 59.351562 117.898438 59.90625 C 118.445312 60.460938 118.976562 61.035156 119.492188 61.617188 C 120.011719 62.199219 120.527344 62.792969 121.023438 63.394531 L 121.027344 63.398438 C 121.152344 63.550781 121.375 63.570312 121.527344 63.445312 C 121.675781 63.320312 121.707031 63.105469 121.597656 62.957031 Z M 121.597656 62.957031 " fill-opacity="1" fill-rule="nonzero"/><path fill="#ffffff" d="M 131.613281 66.84375 L 135.46875 72.503906 L 141.929688 81.976562 L 142.292969 82.503906 C 143.722656 82.832031 145.132812 83.078125 146.523438 83.257812 C 158.472656 84.769531 168.921875 80.828125 178.75 72.390625 C 182.515625 71.398438 185.347656 70.183594 186.761719 68.292969 C 188.082031 66.53125 188.167969 64.175781 186.628906 60.859375 C 184.523438 56.332031 179.84375 57.03125 176.695312 57.960938 C 175 58.46875 171.011719 59.695312 168.667969 60.9375 C 167.632812 61.488281 166.523438 61.988281 165.363281 62.4375 C 156.511719 65.886719 144.5 66.695312 137.449219 66.847656 C 133.90625 66.933594 131.613281 66.84375 131.613281 66.84375 Z M 131.613281 66.84375 " fill-opacity="1" fill-rule="nonzero"/><path fill="#371a45" d="M 174.398438 63.171875 C 174.378906 63.21875 174.363281 63.328125 174.359375 63.476562 C 174.414062 63.230469 174.417969 63.117188 174.398438 63.171875 Z M 174.398438 63.171875 " fill-opacity="0.25" fill-rule="nonzero"/><path fill="#371a45" d="M 135.476562 72.503906 L 141.9375 81.976562 L 142.296875 82.503906 C 143.726562 82.832031 145.136719 83.078125 146.53125 83.257812 C 158.476562 84.769531 168.925781 80.828125 178.753906 72.390625 C 182.519531 71.398438 185.351562 70.183594 186.765625 68.292969 C 184.492188 69.378906 181.523438 70.277344 179.066406 69.277344 C 176.304688 68.15625 175.59375 64.117188 175.601562 62.894531 C 175.203125 64.855469 172.039062 75.019531 157.457031 77.300781 C 148.574219 78.691406 138.785156 74.203125 135.476562 72.503906 Z M 135.476562 72.503906 " fill-opacity="0.25" fill-rule="nonzero"/><g clip-path="url(#8176e6146d)"><path fill="#371a45" d="M 151.421875 84.261719 C 161.15625 84.261719 170.277344 80.542969 179.082031 73.027344 C 184.175781 71.660156 186.824219 70.066406 187.929688 67.695312 C 188.820312 65.785156 188.601562 63.457031 187.257812 60.566406 C 185.507812 56.800781 181.890625 55.699219 176.5 57.296875 C 173.972656 58.046875 170.503906 59.183594 168.351562 60.324219 C 155.78125 66.988281 131.878906 66.160156 131.640625 66.148438 C 131.253906 66.136719 130.9375 66.4375 130.921875 66.820312 C 130.90625 67.203125 131.207031 67.527344 131.585938 67.542969 C 132.582031 67.578125 156.097656 68.398438 168.996094 61.558594 C 170.597656 60.710938 173.402344 59.671875 176.894531 58.636719 C 181.589844 57.242188 184.570312 58.066406 186.007812 61.160156 C 187.164062 63.652344 187.382812 65.597656 186.675781 67.109375 C 185.765625 69.066406 183.265625 70.492188 178.578125 71.726562 L 178.425781 71.765625 L 178.304688 71.871094 C 167.078125 81.5 155.351562 84.761719 142.449219 81.832031 C 142.074219 81.746094 141.707031 81.980469 141.621094 82.355469 C 141.539062 82.730469 141.769531 83.101562 142.144531 83.1875 C 145.300781 83.902344 148.394531 84.261719 151.421875 84.261719 Z M 151.421875 84.261719 " fill-opacity="1" fill-rule="nonzero"/></g><path fill="#371a45" d="M 163.953125 82.066406 C 164.230469 82.066406 164.496094 81.894531 164.597656 81.617188 C 164.734375 81.257812 164.558594 80.859375 164.203125 80.722656 C 164.171875 80.707031 162.046875 79.855469 160.175781 77.515625 C 157.65625 74.367188 156.757812 70.148438 157.496094 64.980469 C 157.550781 64.601562 157.285156 64.246094 156.910156 64.191406 C 156.53125 64.136719 156.179688 64.402344 156.125 64.78125 C 155.125 71.761719 157.21875 76.066406 159.144531 78.453125 C 161.257812 81.058594 163.605469 81.984375 163.703125 82.019531 C 163.789062 82.050781 163.871094 82.066406 163.953125 82.066406 Z M 163.953125 82.066406 " fill-opacity="1" fill-rule="nonzero"/><path fill="#ffffff" d="M 166.363281 62.035156 C 167.125 61.84375 168.09375 60.957031 168.335938 60.605469 C 168.839844 59.882812 169.542969 59.011719 170.367188 57.875 C 171.773438 55.921875 175.066406 53.457031 176.597656 54.675781 C 179.039062 56.621094 174.960938 59.230469 174.90625 59.851562 C 174.855469 60.472656 176.144531 63.566406 174.300781 66.527344 Z M 166.363281 62.035156 " fill-opacity="1" fill-rule="nonzero"/><path fill="#371a45" d="M 166.53125 62.710938 C 166.914062 62.605469 167.207031 62.445312 167.476562 62.277344 C 167.746094 62.105469 167.992188 61.917969 168.226562 61.71875 C 168.339844 61.617188 168.453125 61.511719 168.566406 61.398438 C 168.679688 61.285156 168.792969 61.164062 168.910156 60.996094 C 169.066406 60.777344 169.226562 60.558594 169.386719 60.339844 L 170.386719 59.011719 L 170.882812 58.332031 C 171.035156 58.121094 171.1875 57.929688 171.363281 57.730469 C 172.039062 56.957031 172.851562 56.257812 173.71875 55.726562 C 174.152344 55.464844 174.605469 55.242188 175.042969 55.128906 C 175.480469 55.011719 175.878906 55.023438 176.101562 55.175781 C 176.148438 55.203125 176.234375 55.285156 176.3125 55.355469 C 176.375 55.425781 176.449219 55.496094 176.496094 55.574219 C 176.597656 55.71875 176.648438 55.855469 176.664062 56.003906 C 176.703125 56.300781 176.546875 56.703125 176.277344 57.09375 C 176.011719 57.488281 175.660156 57.871094 175.289062 58.253906 C 175.101562 58.445312 174.90625 58.636719 174.699219 58.863281 C 174.59375 58.980469 174.488281 59.089844 174.359375 59.28125 C 174.332031 59.320312 174.289062 59.40625 174.253906 59.480469 C 174.238281 59.503906 174.207031 59.597656 174.191406 59.664062 C 174.183594 59.699219 174.175781 59.734375 174.171875 59.769531 C 174.167969 59.808594 174.171875 59.8125 174.167969 59.832031 C 174.167969 59.898438 174.167969 59.96875 174.171875 60.039062 C 174.171875 60.078125 174.175781 60.09375 174.179688 60.113281 L 174.1875 60.179688 C 174.242188 60.523438 174.304688 60.769531 174.355469 61.035156 C 174.414062 61.296875 174.457031 61.554688 174.496094 61.808594 C 174.578125 62.324219 174.605469 62.832031 174.601562 63.335938 C 174.597656 64.351562 174.378906 65.339844 173.996094 66.335938 L 173.988281 66.359375 C 173.917969 66.542969 174.007812 66.742188 174.1875 66.8125 C 174.332031 66.867188 174.488281 66.820312 174.582031 66.707031 C 174.675781 66.59375 174.765625 66.476562 174.855469 66.355469 L 174.988281 66.175781 C 175.027344 66.109375 175.0625 66.046875 175.105469 65.980469 C 175.179688 65.851562 175.257812 65.722656 175.328125 65.589844 C 175.390625 65.453125 175.453125 65.3125 175.507812 65.171875 C 175.730469 64.613281 175.886719 64.015625 175.9375 63.414062 C 176 62.8125 175.976562 62.207031 175.910156 61.621094 C 175.882812 61.324219 175.835938 61.035156 175.78125 60.753906 C 175.734375 60.472656 175.675781 60.179688 175.640625 59.972656 L 175.636719 59.9375 C 175.632812 59.925781 175.632812 59.910156 175.632812 59.914062 C 175.632812 59.914062 175.632812 59.910156 175.628906 59.910156 C 175.628906 59.914062 175.628906 59.894531 175.625 59.917969 C 175.625 59.9375 175.621094 59.957031 175.617188 59.976562 C 175.613281 60.011719 175.585938 60.066406 175.589844 60.0625 C 175.585938 60.074219 175.570312 60.097656 175.582031 60.078125 C 175.601562 60.046875 175.6875 59.945312 175.765625 59.855469 C 175.933594 59.671875 176.132812 59.472656 176.324219 59.265625 C 176.714844 58.851562 177.113281 58.40625 177.453125 57.875 C 177.621094 57.605469 177.78125 57.3125 177.898438 56.976562 C 178.015625 56.644531 178.085938 56.253906 178.042969 55.851562 C 178.003906 55.445312 177.839844 55.054688 177.617188 54.753906 C 177.507812 54.59375 177.382812 54.464844 177.261719 54.339844 C 177.132812 54.226562 177.015625 54.113281 176.832031 53.996094 C 176.480469 53.769531 176.074219 53.675781 175.710938 53.660156 C 175.339844 53.640625 175 53.699219 174.683594 53.78125 C 174.050781 53.949219 173.503906 54.222656 172.992188 54.535156 C 171.976562 55.160156 171.09375 55.925781 170.308594 56.816406 C 170.117188 57.039062 169.921875 57.28125 169.753906 57.515625 L 169.269531 58.175781 L 168.269531 59.503906 C 168.101562 59.730469 167.933594 59.957031 167.765625 60.195312 C 167.726562 60.25 167.65625 60.335938 167.570312 60.417969 C 167.492188 60.5 167.398438 60.582031 167.304688 60.664062 C 167.121094 60.824219 166.925781 60.972656 166.726562 61.097656 C 166.53125 61.222656 166.328125 61.320312 166.175781 61.363281 L 166.152344 61.371094 C 165.785156 61.472656 165.566406 61.855469 165.667969 62.222656 C 165.78125 62.59375 166.160156 62.8125 166.53125 62.710938 Z M 166.53125 62.710938 " fill-opacity="1" fill-rule="nonzero"/><g clip-path="url(#4ffa572823)"><path fill="#ffffff" d="M 94.675781 114.703125 C 96.679688 116.863281 100.332031 117.917969 103.441406 116.863281 C 107.898438 115.355469 109.746094 108.457031 109.746094 108.457031 C 124.894531 108.125 128.46875 100.917969 128.46875 100.917969 L 123.714844 94.128906 L 118.566406 86.769531 C 116.332031 89.546875 113.632812 91.308594 110.898438 92.566406 C 105.996094 94.832031 100.984375 95.488281 98.398438 97.554688 C 96.691406 98.914062 95.457031 100.878906 94.609375 103.152344 C 93.734375 105.503906 93.285156 108.1875 93.171875 110.878906 C 93.113281 112.339844 93.699219 113.652344 94.675781 114.703125 Z M 94.675781 114.703125 " fill-opacity="1" fill-rule="nonzero"/></g><path fill="#371a45" d="M 94.613281 103.152344 C 96.273438 101.996094 98.472656 101.84375 101.269531 102.023438 C 107.238281 102.402344 111.101562 99.273438 111.101562 99.273438 L 110.902344 92.570312 C 106 94.835938 100.988281 95.492188 98.402344 97.5625 C 96.695312 98.917969 95.457031 100.878906 94.613281 103.152344 Z M 94.613281 103.152344 " fill-opacity="0.25" fill-rule="nonzero"/><g clip-path="url(#c4d6b2a7d9)"><path fill="#371a45" d="M 94.675781 114.703125 C 96.679688 116.863281 100.332031 117.917969 103.441406 116.863281 C 107.898438 115.355469 109.746094 108.457031 109.746094 108.457031 C 124.894531 108.125 128.46875 100.917969 128.46875 100.917969 L 123.714844 94.128906 C 121.253906 96.414062 115.363281 101.851562 115.363281 101.851562 C 115.363281 101.851562 115.582031 104.386719 112.957031 105.792969 C 109.484375 107.644531 102.546875 105.339844 102.394531 105.289062 C 102.570312 105.414062 109.148438 110.046875 103.707031 113.9375 C 100.222656 116.421875 95.890625 115.140625 94.675781 114.703125 Z M 94.675781 114.703125 " fill-opacity="0.25" fill-rule="nonzero"/></g><g clip-path="url(#aa52548aba)"><path fill="#371a45" d="M 100.871094 117.96875 C 101.828125 117.96875 102.777344 117.824219 103.664062 117.519531 C 107.738281 116.144531 109.730469 110.816406 110.269531 109.136719 C 125.234375 108.65625 128.9375 101.535156 129.089844 101.226562 C 129.257812 100.882812 129.121094 100.464844 128.78125 100.292969 C 128.4375 100.125 128.027344 100.261719 127.851562 100.605469 C 127.804688 100.703125 124.175781 107.445312 109.734375 107.757812 C 109.425781 107.765625 109.160156 107.976562 109.082031 108.273438 C 109.066406 108.335938 107.273438 114.832031 103.222656 116.199219 C 100.882812 116.992188 98.054688 116.515625 96.027344 114.984375 C 94.574219 113.886719 93.800781 112.4375 93.867188 110.902344 C 94.101562 105.089844 95.914062 100.421875 98.828125 98.097656 C 100.207031 97 102.394531 96.300781 104.933594 95.492188 C 109.425781 94.058594 115.019531 92.28125 119.101562 87.199219 C 119.34375 86.902344 119.296875 86.464844 119 86.222656 C 118.703125 85.980469 118.269531 86.03125 118.027344 86.328125 C 114.203125 91.085938 108.832031 92.796875 104.515625 94.167969 C 101.847656 95.015625 99.546875 95.75 97.96875 97.007812 C 93.542969 100.53125 92.632812 107.191406 92.484375 110.847656 C 92.402344 112.855469 93.363281 114.71875 95.195312 116.101562 C 96.8125 117.324219 98.859375 117.96875 100.871094 117.96875 Z M 100.871094 117.96875 " fill-opacity="1" fill-rule="nonzero"/></g><path fill="#371a45" d="M 117.558594 108.230469 C 117.9375 108.230469 118.246094 107.921875 118.246094 107.535156 C 118.246094 107.152344 117.9375 106.84375 117.558594 106.84375 C 114.519531 106.84375 109.960938 105.757812 107.128906 102.6875 C 105.277344 100.6875 104.453125 98.140625 104.675781 95.125 C 104.703125 94.742188 104.417969 94.40625 104.035156 94.378906 C 103.65625 94.351562 103.324219 94.636719 103.292969 95.019531 C 103.042969 98.4375 103.988281 101.335938 106.113281 103.632812 C 109.25 107.027344 114.238281 108.230469 117.558594 108.230469 Z M 117.558594 108.230469 " fill-opacity="1" fill-rule="nonzero"/><path fill="#371a45" d="M 102.113281 105.488281 C 102.1875 105.589844 102.238281 105.652344 102.300781 105.722656 C 102.363281 105.792969 102.425781 105.863281 102.492188 105.925781 C 102.621094 106.054688 102.753906 106.175781 102.894531 106.292969 C 103.027344 106.410156 103.171875 106.515625 103.3125 106.628906 C 103.457031 106.730469 103.601562 106.835938 103.753906 106.929688 C 104.347656 107.324219 104.976562 107.640625 105.625 107.921875 C 106.265625 108.207031 106.933594 108.429688 107.601562 108.640625 L 108.613281 108.914062 L 109.632812 109.144531 C 110.007812 109.230469 110.378906 108.992188 110.460938 108.613281 C 110.546875 108.238281 110.308594 107.867188 109.9375 107.785156 C 109.914062 107.777344 109.898438 107.773438 109.878906 107.769531 L 109.851562 107.765625 L 108.871094 107.632812 L 107.898438 107.457031 C 107.257812 107.3125 106.613281 107.15625 105.996094 106.945312 C 105.375 106.738281 104.765625 106.492188 104.195312 106.179688 C 104.050781 106.105469 103.914062 106.019531 103.773438 105.9375 C 103.640625 105.847656 103.5 105.765625 103.371094 105.671875 C 103.238281 105.578125 103.113281 105.480469 102.992188 105.382812 C 102.9375 105.328125 102.875 105.277344 102.820312 105.222656 C 102.769531 105.175781 102.707031 105.109375 102.675781 105.074219 L 102.652344 105.050781 C 102.523438 104.910156 102.304688 104.898438 102.164062 105.023438 C 102.035156 105.148438 102.011719 105.347656 102.113281 105.488281 Z M 102.113281 105.488281 " fill-opacity="1" fill-rule="nonzero"/><path fill="#ffffff" d="M 108.277344 98.3125 C 123.386719 109.144531 139.082031 97.808594 146.109375 83.265625 C 146.421875 82.613281 146.71875 81.957031 146.996094 81.292969 C 148.121094 78.628906 148.945312 75.890625 149.425781 73.183594 L 137.289062 67.324219 L 128.710938 63.183594 L 125.90625 61.824219 C 123.730469 64.246094 121.609375 66.105469 119.578125 67.65625 C 116.429688 70.058594 113.488281 71.734375 110.863281 73.644531 C 108.148438 75.613281 105.769531 77.824219 103.84375 81.339844 C 100.398438 87.640625 102.503906 94.171875 108.277344 98.3125 Z M 108.277344 98.3125 " fill-opacity="1" fill-rule="nonzero"/><path fill="#371a45" d="M 108.277344 98.3125 C 118.1875 105.417969 128.347656 102.984375 136.144531 96.371094 C 128.714844 101.539062 119.585938 102.878906 110.65625 96.480469 C 104.878906 92.339844 102.777344 85.808594 106.222656 79.507812 C 107.660156 76.886719 109.34375 74.992188 111.242188 73.371094 C 111.113281 73.460938 110.988281 73.554688 110.859375 73.648438 C 108.144531 75.617188 105.765625 77.832031 103.839844 81.34375 C 100.398438 87.640625 102.503906 94.171875 108.277344 98.3125 Z M 108.277344 98.3125 " fill-opacity="0.25" fill-rule="nonzero"/><path fill="#371a45" d="M 108.277344 99.011719 C 108.496094 99.011719 108.707031 98.910156 108.839844 98.71875 C 109.058594 98.410156 108.988281 97.972656 108.679688 97.75 C 102.910156 93.617188 101.289062 87.460938 104.449219 81.6875 C 107.078125 76.886719 110.628906 74.558594 114.738281 71.867188 C 118.257812 69.5625 122.242188 66.949219 126.417969 62.304688 C 126.675781 62.019531 126.652344 61.578125 126.371094 61.324219 C 126.085938 61.066406 125.652344 61.089844 125.394531 61.375 C 121.339844 65.882812 117.433594 68.441406 113.984375 70.703125 C 109.71875 73.5 106.03125 75.914062 103.238281 81.019531 C 99.765625 87.367188 101.582031 94.378906 107.875 98.890625 C 107.996094 98.964844 108.136719 99.011719 108.277344 99.011719 Z M 108.277344 99.011719 " fill-opacity="1" fill-rule="nonzero"/><path fill="#371a45" d="M 146.554688 81.453125 C 145.214844 83.851562 143.859375 86.195312 142.304688 88.421875 C 141.527344 89.53125 140.695312 90.597656 139.816406 91.621094 C 138.9375 92.648438 138.007812 93.628906 137.023438 94.546875 C 136.035156 95.464844 135.019531 96.34375 133.941406 97.136719 C 132.859375 97.933594 131.730469 98.65625 130.5625 99.300781 C 129.972656 99.617188 129.378906 99.917969 128.769531 100.183594 C 128.46875 100.328125 128.15625 100.449219 127.839844 100.574219 C 127.535156 100.699219 127.230469 100.800781 126.914062 100.90625 C 126.277344 101.113281 125.640625 101.316406 125.003906 101.511719 C 124.359375 101.710938 123.71875 101.90625 123.066406 102.132812 L 123.058594 102.136719 C 122.875 102.199219 122.777344 102.398438 122.84375 102.582031 C 122.890625 102.722656 123.019531 102.8125 123.160156 102.820312 C 126.007812 102.953125 128.75 101.871094 131.257812 100.613281 C 132.515625 99.96875 133.710938 99.207031 134.851562 98.378906 C 135.992188 97.550781 137.074219 96.644531 138.089844 95.671875 C 140.128906 93.734375 141.914062 91.550781 143.476562 89.222656 C 145.039062 86.902344 146.347656 84.394531 147.199219 81.730469 C 147.261719 81.542969 147.160156 81.351562 146.976562 81.289062 C 146.800781 81.238281 146.632812 81.308594 146.554688 81.453125 Z M 146.554688 81.453125 " fill-opacity="1" fill-rule="nonzero"/><path fill="#ffffff" d="M 77.863281 103.980469 C 79.472656 106.96875 83.328125 108.476562 86.992188 107.648438 C 91.722656 106.582031 94.347656 99.699219 94.347656 99.699219 C 103.027344 101.6875 108.714844 98.621094 108.714844 98.621094 C 108.714844 98.621094 110.792969 100.78125 115.71875 101.9375 L 114.328125 98.679688 L 105.6875 78.398438 C 99.4375 84.980469 89.835938 82.90625 84.503906 85.9375 C 81.84375 87.445312 77.34375 95.597656 77.101562 100.464844 C 77.027344 101.785156 77.316406 102.964844 77.863281 103.980469 Z M 77.863281 103.980469 " fill-opacity="1" fill-rule="nonzero"/><path fill="#371a45" d="M 77.863281 103.980469 C 79.472656 106.96875 83.328125 108.476562 86.992188 107.648438 C 91.722656 106.582031 94.347656 99.699219 94.347656 99.699219 C 103.027344 101.6875 108.714844 98.621094 108.714844 98.621094 C 108.714844 98.621094 110.792969 100.78125 115.71875 101.9375 L 114.328125 98.679688 C 109.484375 96.199219 107.878906 92.480469 107.472656 92.480469 C 107.074219 92.480469 106.222656 95.417969 101.746094 96.695312 C 90.710938 99.847656 86.988281 92.628906 86.253906 92.714844 C 85.515625 92.804688 92.964844 100.910156 88.652344 104.265625 C 85.78125 106.5 80.984375 105.542969 77.863281 103.980469 Z M 77.863281 103.980469 " fill-opacity="0.25" fill-rule="nonzero"/><g clip-path="url(#0dffb3c38d)"><path fill="#371a45" d="M 105.1875 77.917969 C 104.292969 78.851562 103.277344 79.65625 102.167969 80.316406 C 101.054688 80.964844 99.855469 81.488281 98.609375 81.875 C 96.109375 82.675781 93.453125 83.007812 90.773438 83.429688 C 90.101562 83.535156 89.429688 83.648438 88.753906 83.785156 C 88.078125 83.917969 87.402344 84.074219 86.726562 84.277344 C 86.050781 84.480469 85.382812 84.722656 84.730469 85.035156 L 84.25 85.292969 C 84.171875 85.328125 84.078125 85.386719 83.996094 85.441406 C 83.90625 85.492188 83.828125 85.550781 83.75 85.609375 C 83.433594 85.839844 83.164062 86.09375 82.90625 86.347656 C 81.898438 87.390625 81.109375 88.539062 80.375 89.714844 C 79.648438 90.898438 79.003906 92.121094 78.429688 93.386719 C 77.859375 94.644531 77.363281 95.945312 76.976562 97.292969 C 76.789062 97.96875 76.628906 98.660156 76.523438 99.371094 C 76.5 99.546875 76.480469 99.730469 76.453125 99.90625 L 76.414062 100.453125 C 76.410156 100.636719 76.402344 100.824219 76.40625 101.007812 C 76.417969 101.195312 76.417969 101.378906 76.4375 101.566406 C 76.511719 102.308594 76.695312 103.046875 76.988281 103.738281 C 77.28125 104.433594 77.695312 105.070312 78.179688 105.632812 C 79.15625 106.765625 80.449219 107.5625 81.824219 108.042969 C 83.203125 108.515625 84.679688 108.664062 86.121094 108.496094 C 86.300781 108.472656 86.476562 108.445312 86.65625 108.421875 C 86.835938 108.386719 87.011719 108.351562 87.191406 108.3125 C 87.558594 108.21875 87.917969 108.109375 88.265625 107.960938 C 88.953125 107.671875 89.585938 107.28125 90.160156 106.835938 C 91.308594 105.9375 92.222656 104.832031 93.015625 103.667969 C 93.40625 103.082031 93.765625 102.480469 94.09375 101.863281 C 94.257812 101.558594 94.414062 101.242188 94.570312 100.929688 C 94.722656 100.609375 94.859375 100.296875 95 99.945312 L 94.199219 100.375 L 95.121094 100.554688 L 95.585938 100.648438 C 95.738281 100.679688 95.894531 100.710938 96.046875 100.730469 L 96.976562 100.859375 C 97.132812 100.878906 97.285156 100.902344 97.445312 100.917969 L 97.914062 100.957031 L 98.851562 101.027344 L 99.792969 101.054688 L 100.261719 101.066406 L 100.730469 101.050781 C 101.046875 101.035156 101.359375 101.03125 101.675781 101.011719 C 102.933594 100.933594 104.179688 100.753906 105.410156 100.472656 L 105.871094 100.363281 L 106.328125 100.238281 C 106.636719 100.15625 106.9375 100.054688 107.242188 99.964844 C 107.542969 99.863281 107.84375 99.757812 108.140625 99.636719 C 108.289062 99.574219 108.4375 99.519531 108.585938 99.449219 C 108.738281 99.386719 108.875 99.320312 109.046875 99.230469 L 108.226562 99.101562 C 108.316406 99.1875 108.378906 99.242188 108.449219 99.300781 C 108.523438 99.363281 108.589844 99.410156 108.664062 99.464844 C 108.804688 99.570312 108.949219 99.675781 109.09375 99.769531 C 109.382812 99.964844 109.675781 100.140625 109.972656 100.304688 C 110.570312 100.636719 111.183594 100.917969 111.808594 101.175781 C 112.429688 101.425781 113.066406 101.632812 113.707031 101.816406 C 114.023438 101.914062 114.347656 101.980469 114.671875 102.066406 L 115.640625 102.273438 C 115.832031 102.3125 116.011719 102.191406 116.050781 102.003906 C 116.085938 101.828125 115.984375 101.65625 115.816406 101.601562 L 115.796875 101.597656 L 114.878906 101.316406 C 114.578125 101.207031 114.273438 101.109375 113.976562 100.992188 C 113.378906 100.761719 112.796875 100.507812 112.230469 100.226562 C 111.667969 99.9375 111.117188 99.625 110.601562 99.273438 C 110.34375 99.09375 110.09375 98.914062 109.855469 98.71875 C 109.734375 98.625 109.621094 98.527344 109.511719 98.425781 C 109.457031 98.375 109.398438 98.324219 109.351562 98.273438 C 109.300781 98.226562 109.242188 98.167969 109.21875 98.136719 C 109.023438 97.90625 108.707031 97.851562 108.449219 97.980469 L 108.390625 98.007812 C 108.289062 98.0625 108.148438 98.125 108.019531 98.183594 C 107.890625 98.242188 107.753906 98.296875 107.621094 98.347656 C 107.355469 98.457031 107.078125 98.554688 106.800781 98.648438 C 106.519531 98.734375 106.242188 98.828125 105.957031 98.902344 L 105.53125 99.019531 L 105.101562 99.117188 C 103.949219 99.382812 102.773438 99.550781 101.585938 99.625 C 101.289062 99.644531 100.992188 99.644531 100.699219 99.65625 L 100.253906 99.667969 L 99.808594 99.65625 L 98.917969 99.636719 L 98.03125 99.566406 L 97.585938 99.53125 C 97.433594 99.515625 97.289062 99.492188 97.140625 99.472656 L 96.257812 99.351562 C 96.109375 99.335938 95.964844 99.308594 95.816406 99.277344 L 95.378906 99.1875 L 94.503906 99.015625 L 94.488281 99.011719 C 94.152344 98.945312 93.824219 99.132812 93.707031 99.441406 C 93.59375 99.71875 93.457031 100.03125 93.320312 100.328125 C 93.179688 100.621094 93.035156 100.914062 92.878906 101.203125 C 92.570312 101.78125 92.230469 102.339844 91.871094 102.882812 C 91.140625 103.957031 90.300781 104.957031 89.3125 105.726562 C 88.816406 106.113281 88.289062 106.433594 87.734375 106.667969 C 87.457031 106.789062 87.171875 106.875 86.882812 106.949219 C 86.734375 106.984375 86.578125 107.007812 86.425781 107.039062 L 85.964844 107.105469 C 84.722656 107.246094 83.449219 107.117188 82.273438 106.714844 C 81.105469 106.300781 80.019531 105.628906 79.226562 104.703125 C 78.417969 103.785156 77.929688 102.632812 77.816406 101.417969 C 77.753906 100.8125 77.796875 100.191406 77.886719 99.554688 C 77.980469 98.921875 78.125 98.289062 78.304688 97.652344 C 78.664062 96.394531 79.136719 95.152344 79.6875 93.941406 C 80.238281 92.734375 80.855469 91.558594 81.550781 90.429688 C 82.246094 89.3125 83.007812 88.21875 83.886719 87.3125 C 84.109375 87.097656 84.332031 86.882812 84.566406 86.714844 C 84.621094 86.671875 84.683594 86.632812 84.738281 86.597656 C 84.796875 86.5625 84.847656 86.527344 84.917969 86.492188 L 85.332031 86.273438 C 85.898438 85.996094 86.5 85.78125 87.121094 85.59375 C 87.738281 85.410156 88.375 85.257812 89.027344 85.128906 C 89.671875 85 90.332031 84.886719 90.996094 84.78125 C 93.640625 84.363281 96.371094 84.027344 99.03125 83.179688 C 100.359375 82.769531 101.65625 82.203125 102.875 81.496094 C 104.089844 80.773438 105.214844 79.886719 106.195312 78.859375 C 106.457031 78.582031 106.449219 78.140625 106.171875 77.875 C 105.890625 77.628906 105.449219 77.640625 105.1875 77.917969 Z M 105.1875 77.917969 " fill-opacity="1" fill-rule="nonzero"/></g><path fill="#371a45" d="M 85.921875 92.816406 C 86.046875 93.3125 86.214844 93.761719 86.40625 94.214844 C 86.59375 94.664062 86.824219 95.097656 87.070312 95.523438 C 87.570312 96.371094 88.179688 97.15625 88.898438 97.851562 C 89.261719 98.195312 89.644531 98.523438 90.054688 98.8125 C 90.46875 99.097656 90.902344 99.363281 91.359375 99.574219 C 92.273438 100.011719 93.257812 100.28125 94.25 100.390625 C 94.632812 100.429688 94.972656 100.15625 95.015625 99.773438 C 95.054688 99.410156 94.808594 99.082031 94.460938 99.019531 L 94.445312 99.015625 C 93.589844 98.847656 92.757812 98.605469 91.96875 98.253906 C 91.578125 98.078125 91.199219 97.871094 90.824219 97.644531 C 90.460938 97.410156 90.101562 97.160156 89.765625 96.878906 C 89.089844 96.316406 88.484375 95.660156 87.945312 94.941406 C 87.679688 94.582031 87.4375 94.199219 87.203125 93.808594 C 86.976562 93.425781 86.761719 93.007812 86.589844 92.613281 L 86.582031 92.59375 C 86.503906 92.417969 86.300781 92.339844 86.125 92.417969 C 85.960938 92.484375 85.882812 92.65625 85.921875 92.816406 Z M 85.921875 92.816406 " fill-opacity="1" fill-rule="nonzero"/><path fill="#ffffff" d="M 77.585938 53.378906 C 77.976562 56.246094 80.894531 58.226562 85.296875 60.070312 C 93.378906 69.21875 103.113281 72.714844 110.589844 73.464844 C 111.304688 73.539062 112.003906 73.585938 112.675781 73.609375 C 113.042969 73.628906 113.40625 73.632812 113.761719 73.632812 L 120.484375 68.808594 L 129.152344 62.585938 L 131.285156 61.054688 C 131.285156 61.054688 124.746094 60.398438 116.886719 58.546875 C 109.902344 56.90625 101.886719 54.320312 96.492188 50.425781 C 94.402344 48.914062 90.746094 47.203125 89.179688 46.492188 C 86.28125 45.171875 81.878906 43.871094 79.261719 47.941406 C 77.886719 50.082031 77.378906 51.855469 77.585938 53.378906 Z M 77.585938 53.378906 " fill-opacity="1" fill-rule="nonzero"/><path fill="#371a45" d="M 77.585938 53.378906 C 77.976562 56.246094 80.894531 58.226562 85.296875 60.070312 C 94.15625 70.09375 104.996094 73.335938 112.675781 73.609375 C 108.105469 72.15625 97.296875 68.230469 93.667969 62.574219 C 90.628906 57.832031 89.867188 55.445312 90.285156 49.738281 C 90.421875 47.84375 88.769531 58.140625 82.460938 56.007812 C 80.179688 55.234375 78.578125 54.453125 77.585938 53.378906 Z M 77.585938 53.378906 " fill-opacity="0.25" fill-rule="nonzero"/><g clip-path="url(#3cf027acd7)"><path fill="#371a45" d="M 131.355469 60.363281 C 129.878906 60.207031 128.382812 59.996094 126.898438 59.769531 C 125.410156 59.546875 123.929688 59.289062 122.453125 59.011719 C 119.5 58.453125 116.566406 57.800781 113.671875 57.019531 C 112.222656 56.628906 110.78125 56.199219 109.363281 55.738281 C 107.9375 55.277344 106.53125 54.765625 105.140625 54.210938 C 103.753906 53.664062 102.394531 53.042969 101.070312 52.371094 C 100.402344 52.039062 99.761719 51.667969 99.113281 51.304688 L 98.171875 50.71875 C 97.851562 50.53125 97.558594 50.308594 97.25 50.101562 L 96.789062 49.78125 C 96.628906 49.667969 96.464844 49.550781 96.300781 49.453125 C 95.972656 49.234375 95.640625 49.03125 95.308594 48.832031 C 94.640625 48.4375 93.96875 48.070312 93.292969 47.714844 C 91.929688 47.003906 90.570312 46.355469 89.164062 45.726562 C 87.738281 45.109375 86.207031 44.59375 84.5625 44.511719 C 83.742188 44.472656 82.890625 44.554688 82.082031 44.824219 C 81.265625 45.082031 80.515625 45.539062 79.886719 46.113281 C 79.582031 46.402344 79.289062 46.710938 79.042969 47.046875 C 78.910156 47.207031 78.808594 47.382812 78.6875 47.554688 L 78.375 48.058594 C 77.96875 48.738281 77.601562 49.457031 77.324219 50.222656 C 77.046875 50.988281 76.851562 51.816406 76.851562 52.679688 C 76.84375 53.109375 76.898438 53.546875 76.992188 53.972656 C 77.089844 54.402344 77.25 54.808594 77.433594 55.195312 C 77.828125 55.964844 78.367188 56.625 78.964844 57.179688 C 79.5625 57.734375 80.210938 58.203125 80.875 58.628906 C 82.210938 59.464844 83.613281 60.117188 85.027344 60.714844 L 84.777344 60.535156 L 86.171875 62.058594 L 86.519531 62.441406 C 86.640625 62.5625 86.765625 62.679688 86.890625 62.800781 L 88.375 64.238281 L 89.160156 64.910156 C 89.6875 65.355469 90.199219 65.820312 90.761719 66.21875 C 92.941406 67.902344 95.289062 69.390625 97.78125 70.570312 C 100.265625 71.761719 102.878906 72.6875 105.5625 73.3125 L 106.574219 73.523438 C 106.914062 73.589844 107.25 73.664062 107.589844 73.710938 C 108.273438 73.804688 108.953125 73.921875 109.640625 73.964844 L 110.667969 74.046875 L 111.699219 74.066406 L 112.210938 74.070312 C 112.386719 74.066406 112.558594 74.058594 112.726562 74.050781 C 113.066406 74.035156 113.414062 74.015625 113.753906 73.988281 C 113.949219 73.972656 114.089844 73.804688 114.074219 73.613281 C 114.0625 73.445312 113.933594 73.316406 113.773438 73.296875 L 113.757812 73.292969 C 113.425781 73.25 113.09375 73.210938 112.757812 73.179688 L 112.261719 73.128906 L 111.761719 73.0625 L 110.769531 72.933594 L 109.789062 72.769531 C 108.472656 72.5625 107.175781 72.269531 105.886719 71.964844 C 103.3125 71.316406 100.820312 70.378906 98.433594 69.21875 L 96.671875 68.296875 L 94.953125 67.292969 C 94.394531 66.9375 93.84375 66.5625 93.292969 66.199219 C 93.011719 66.019531 92.75 65.816406 92.484375 65.617188 L 91.683594 65.019531 C 91.144531 64.636719 90.648438 64.1875 90.136719 63.765625 L 89.367188 63.125 L 88.636719 62.445312 L 87.90625 61.761719 C 87.785156 61.648438 87.660156 61.535156 87.542969 61.417969 L 87.195312 61.054688 L 85.804688 59.613281 L 85.683594 59.484375 L 85.554688 59.433594 C 84.183594 58.855469 82.835938 58.226562 81.605469 57.453125 C 80.996094 57.066406 80.414062 56.640625 79.902344 56.164062 C 79.394531 55.6875 78.96875 55.152344 78.667969 54.570312 C 78.066406 53.402344 78.125 52.015625 78.621094 50.703125 C 78.863281 50.046875 79.1875 49.402344 79.558594 48.78125 L 79.84375 48.316406 C 79.945312 48.179688 80.03125 48.027344 80.140625 47.898438 C 80.339844 47.617188 80.578125 47.375 80.820312 47.144531 C 81.3125 46.699219 81.878906 46.355469 82.503906 46.152344 C 83.132812 45.941406 83.8125 45.878906 84.496094 45.90625 C 85.878906 45.972656 87.273438 46.421875 88.609375 47.003906 C 89.964844 47.613281 91.328125 48.265625 92.648438 48.953125 C 93.3125 49.300781 93.964844 49.65625 94.601562 50.035156 C 94.917969 50.226562 95.230469 50.421875 95.535156 50.617188 C 95.691406 50.714844 95.835938 50.820312 95.984375 50.925781 L 96.460938 51.25 C 96.78125 51.460938 97.09375 51.695312 97.421875 51.894531 L 98.40625 52.503906 C 99.078125 52.882812 99.746094 53.265625 100.433594 53.609375 C 101.804688 54.308594 103.203125 54.941406 104.625 55.503906 C 106.042969 56.070312 107.476562 56.59375 108.929688 57.0625 C 110.378906 57.535156 111.835938 57.96875 113.304688 58.363281 C 116.242188 59.15625 119.210938 59.816406 122.195312 60.378906 C 123.6875 60.664062 125.183594 60.917969 126.683594 61.148438 C 128.1875 61.378906 129.683594 61.582031 131.210938 61.75 C 131.589844 61.789062 131.933594 61.515625 131.972656 61.132812 C 132.011719 60.75 131.738281 60.40625 131.359375 60.363281 Z M 131.355469 60.363281 " fill-opacity="1" fill-rule="nonzero"/></g><path fill="#371a45" d="M 116.917969 59.304688 C 117.339844 61.9375 118.125 64.554688 119.296875 67.074219 C 119.386719 67.273438 119.484375 67.46875 119.582031 67.664062 C 119.835938 68.175781 120.097656 68.679688 120.378906 69.171875 C 124.808594 76.949219 132.332031 81.5625 140.1875 81.992188 C 140.65625 82.015625 141.125 82.027344 141.589844 82.023438 C 141.609375 82.023438 141.625 82.023438 141.648438 82.023438 C 142.914062 82.011719 144.1875 81.886719 145.453125 81.648438 C 145.972656 81.550781 146.484375 81.433594 147 81.296875 C 148.125 78.632812 148.949219 75.894531 149.429688 73.1875 L 137.292969 67.328125 L 128.714844 63.1875 L 130.769531 61.71875 C 130.765625 61.714844 124.476562 61.082031 116.917969 59.304688 Z M 116.917969 59.304688 " fill-opacity="0.25" fill-rule="nonzero"/><path fill="#ffffff" d="M 171.40625 61.871094 C 169.511719 66.109375 166.535156 69.898438 162.625 72.792969 C 161.824219 73.382812 160.988281 73.933594 160.117188 74.441406 C 159.691406 74.691406 159.257812 74.929688 158.8125 75.164062 C 157.472656 75.859375 156.097656 76.433594 154.710938 76.894531 C 153.507812 77.292969 152.296875 77.605469 151.074219 77.835938 C 149.601562 78.113281 148.121094 78.265625 146.644531 78.304688 C 146.109375 78.320312 145.570312 78.320312 145.035156 78.300781 C 135.230469 78 125.851562 72.601562 120.96875 63.363281 C 113.769531 49.757812 119.050781 32.980469 132.753906 25.890625 C 135.390625 24.523438 138.152344 23.617188 140.945312 23.144531 C 141.269531 23.085938 141.597656 23.035156 141.925781 22.996094 C 142.808594 22.878906 143.6875 22.796875 144.566406 22.765625 C 146.597656 22.683594 148.621094 22.824219 150.601562 23.175781 C 152.582031 23.523438 154.519531 24.085938 156.375 24.839844 C 156.964844 25.078125 157.546875 25.339844 158.121094 25.621094 C 158.980469 26.039062 159.824219 26.503906 160.644531 27.015625 C 164.722656 29.546875 168.207031 33.15625 170.601562 37.691406 C 174.734375 45.519531 174.746094 54.394531 171.40625 61.871094 Z M 171.40625 61.871094 " fill-opacity="1" fill-rule="nonzero"/><path fill="#371a45" d="M 145.90625 78.386719 C 146.15625 78.386719 146.402344 78.382812 146.644531 78.378906 C 148.144531 78.339844 149.636719 78.175781 151.085938 77.902344 C 152.328125 77.667969 153.550781 77.355469 154.730469 76.960938 C 156.132812 76.496094 157.519531 75.917969 158.84375 75.230469 C 159.332031 74.976562 159.761719 74.738281 160.152344 74.507812 C 161.007812 74.007812 161.855469 73.449219 162.664062 72.851562 C 166.488281 70.027344 169.53125 66.238281 171.46875 61.902344 C 174.96875 54.078125 174.671875 45.246094 170.660156 37.660156 C 168.335938 33.269531 164.886719 29.570312 160.675781 26.957031 C 159.878906 26.457031 159.03125 25.988281 158.148438 25.554688 C 157.589844 25.28125 156.996094 25.011719 156.398438 24.769531 C 154.535156 24.011719 152.589844 23.449219 150.609375 23.105469 C 148.609375 22.75 146.578125 22.613281 144.558594 22.691406 C 143.683594 22.726562 142.789062 22.804688 141.914062 22.921875 C 141.566406 22.964844 141.242188 23.015625 140.933594 23.070312 C 138.089844 23.554688 135.324219 24.480469 132.71875 25.824219 C 126.050781 29.277344 121.152344 35.105469 118.933594 42.238281 C 116.734375 49.308594 117.433594 56.828125 120.910156 63.398438 C 125.628906 72.324219 134.875 78.058594 145.039062 78.371094 C 145.320312 78.382812 145.613281 78.386719 145.90625 78.386719 Z M 171.339844 61.84375 C 169.414062 66.15625 166.382812 69.921875 162.582031 72.734375 C 161.78125 73.328125 160.9375 73.886719 160.085938 74.382812 C 159.691406 74.613281 159.265625 74.851562 158.785156 75.101562 C 157.46875 75.785156 156.085938 76.363281 154.6875 76.824219 C 153.519531 77.210938 152.300781 77.53125 151.0625 77.761719 C 149.621094 78.035156 148.132812 78.195312 146.644531 78.234375 C 146.113281 78.246094 145.570312 78.246094 145.039062 78.230469 C 134.929688 77.917969 125.730469 72.210938 121.035156 63.328125 C 117.578125 56.792969 116.878906 49.3125 119.070312 42.277344 C 121.28125 35.183594 126.152344 29.386719 132.789062 25.949219 C 135.378906 24.613281 138.125 23.6875 140.957031 23.207031 C 141.265625 23.152344 141.585938 23.105469 141.9375 23.058594 C 142.8125 22.941406 143.695312 22.867188 144.566406 22.828125 C 146.574219 22.75 148.597656 22.890625 150.585938 23.242188 C 152.558594 23.589844 154.492188 24.144531 156.347656 24.902344 C 156.941406 25.144531 157.53125 25.40625 158.089844 25.679688 C 158.964844 26.109375 159.808594 26.574219 160.605469 27.074219 C 164.796875 29.671875 168.230469 33.355469 170.539062 37.71875 C 174.527344 45.269531 174.820312 54.058594 171.339844 61.84375 Z M 171.339844 61.84375 " fill-opacity="1" fill-rule="nonzero"/><path fill="#371a45" d="M 120.964844 63.363281 C 125.847656 72.601562 135.226562 78.003906 145.035156 78.300781 C 145.570312 78.320312 146.109375 78.320312 146.644531 78.304688 C 148.125 78.265625 149.605469 78.109375 151.074219 77.835938 C 152.296875 77.605469 153.507812 77.292969 154.710938 76.894531 C 156.101562 76.433594 157.472656 75.859375 158.816406 75.164062 C 159.257812 74.929688 159.695312 74.691406 160.121094 74.441406 C 160.992188 73.929688 161.828125 73.378906 162.628906 72.789062 C 166.539062 69.894531 169.515625 66.109375 171.410156 61.867188 C 172.449219 59.535156 173.167969 57.070312 173.535156 54.542969 C 171.628906 58.546875 168.75 62.121094 165.019531 64.882812 C 164.222656 65.472656 163.390625 66.023438 162.515625 66.539062 C 162.09375 66.789062 161.65625 67.027344 161.210938 67.261719 C 159.867188 67.953125 158.496094 68.527344 157.105469 68.988281 C 155.90625 69.386719 154.691406 69.699219 153.472656 69.929688 C 152 70.207031 150.515625 70.359375 149.042969 70.402344 C 148.503906 70.414062 147.96875 70.414062 147.433594 70.398438 C 137.628906 70.097656 128.25 64.695312 123.363281 55.460938 C 120.511719 50.070312 119.621094 44.183594 120.433594 38.597656 C 116.820312 46.199219 116.71875 55.335938 120.964844 63.363281 Z M 120.964844 63.363281 " fill-opacity="0.25" fill-rule="nonzero"/><path fill="#371a45" d="M 145.90625 78.867188 C 146.160156 78.867188 146.410156 78.863281 146.65625 78.859375 C 148.179688 78.820312 149.703125 78.652344 151.175781 78.375 C 152.4375 78.136719 153.683594 77.8125 154.882812 77.417969 C 156.3125 76.945312 157.714844 76.355469 159.066406 75.65625 C 159.558594 75.398438 159.996094 75.15625 160.394531 74.921875 C 161.265625 74.414062 162.125 73.84375 162.949219 73.238281 C 166.835938 70.363281 169.9375 66.511719 171.90625 62.101562 C 175.464844 54.144531 175.164062 45.152344 171.082031 37.433594 C 168.71875 32.972656 165.210938 29.203125 160.925781 26.546875 C 160.113281 26.042969 159.25 25.5625 158.355469 25.125 C 157.78125 24.84375 157.183594 24.578125 156.570312 24.332031 C 154.679688 23.558594 152.695312 22.992188 150.683594 22.636719 C 148.652344 22.277344 146.585938 22.136719 144.535156 22.214844 C 143.640625 22.253906 142.738281 22.328125 141.84375 22.449219 C 141.484375 22.496094 141.15625 22.546875 140.835938 22.601562 C 137.949219 23.09375 135.136719 24.035156 132.492188 25.402344 C 125.703125 28.914062 120.726562 34.839844 118.464844 42.09375 C 116.222656 49.292969 116.9375 56.941406 120.476562 63.625 C 125.273438 72.703125 134.679688 78.539062 145.011719 78.859375 C 145.3125 78.863281 145.609375 78.867188 145.90625 78.867188 Z M 170.902344 61.644531 C 169.007812 65.882812 166.03125 69.582031 162.296875 72.347656 C 161.507812 72.933594 160.679688 73.476562 159.839844 73.964844 C 159.457031 74.191406 159.039062 74.425781 158.558594 74.675781 C 157.265625 75.347656 155.910156 75.917969 154.535156 76.367188 C 153.382812 76.753906 152.1875 77.0625 150.972656 77.289062 C 149.558594 77.554688 148.09375 77.714844 146.628906 77.753906 C 146.105469 77.765625 145.574219 77.765625 145.046875 77.75 C 135.109375 77.441406 126.066406 71.832031 121.453125 63.105469 C 118.054688 56.683594 117.367188 49.339844 119.519531 42.425781 C 121.6875 35.457031 126.476562 29.757812 133 26.386719 C 135.546875 25.070312 138.25 24.164062 141.03125 23.695312 C 141.335938 23.636719 141.652344 23.59375 141.992188 23.546875 C 142.855469 23.429688 143.722656 23.355469 144.582031 23.320312 C 146.554688 23.246094 148.546875 23.378906 150.5 23.726562 C 152.4375 24.066406 154.34375 24.617188 156.164062 25.355469 C 156.75 25.59375 157.328125 25.851562 157.878906 26.125 C 158.738281 26.542969 159.566406 27.003906 160.347656 27.492188 C 164.464844 30.046875 167.84375 33.664062 170.109375 37.957031 C 174.03125 45.363281 174.320312 53.996094 170.902344 61.644531 Z M 170.902344 61.644531 " fill-opacity="1" fill-rule="nonzero"/><path fill="#371a45" d="M 145.90625 79.027344 C 146.160156 79.027344 146.414062 79.023438 146.660156 79.019531 C 148.195312 78.980469 149.722656 78.816406 151.207031 78.535156 C 152.476562 78.296875 153.730469 77.972656 154.933594 77.570312 C 156.367188 77.097656 157.785156 76.5 159.140625 75.800781 C 159.640625 75.535156 160.078125 75.292969 160.480469 75.058594 C 161.355469 74.546875 162.21875 73.980469 163.046875 73.367188 C 166.957031 70.476562 170.074219 66.601562 172.054688 62.164062 C 175.632812 54.160156 175.332031 45.121094 171.226562 37.355469 C 168.851562 32.871094 165.320312 29.082031 161.011719 26.410156 C 160.199219 25.902344 159.332031 25.421875 158.429688 24.980469 C 157.851562 24.699219 157.25 24.429688 156.640625 24.183594 C 154.738281 23.40625 152.746094 22.832031 150.722656 22.472656 C 148.675781 22.109375 146.597656 21.96875 144.539062 22.050781 C 143.640625 22.085938 142.730469 22.167969 141.835938 22.289062 C 141.476562 22.332031 141.144531 22.386719 140.824219 22.441406 C 137.921875 22.933594 135.097656 23.882812 132.433594 25.253906 C 125.609375 28.789062 120.601562 34.75 118.328125 42.046875 C 116.074219 49.285156 116.792969 56.976562 120.347656 63.703125 C 125.175781 72.832031 134.628906 78.703125 145.019531 79.019531 C 145.308594 79.023438 145.609375 79.027344 145.90625 79.027344 Z M 170.757812 61.574219 C 168.875 65.789062 165.917969 69.46875 162.203125 72.214844 C 161.414062 72.796875 160.597656 73.335938 159.761719 73.824219 C 159.375 74.050781 158.960938 74.28125 158.488281 74.53125 C 157.203125 75.199219 155.851562 75.761719 154.488281 76.214844 C 153.34375 76.59375 152.152344 76.90625 150.945312 77.132812 C 149.535156 77.398438 148.082031 77.554688 146.628906 77.59375 C 146.109375 77.605469 145.578125 77.605469 145.058594 77.589844 C 135.175781 77.285156 126.1875 71.707031 121.601562 63.027344 C 118.222656 56.644531 117.542969 49.34375 119.679688 42.472656 C 121.839844 35.542969 126.597656 29.878906 133.082031 26.523438 C 135.609375 25.214844 138.296875 24.316406 141.0625 23.847656 C 141.371094 23.789062 141.679688 23.746094 142.019531 23.703125 C 142.878906 23.585938 143.742188 23.507812 144.59375 23.476562 C 146.554688 23.398438 148.53125 23.53125 150.476562 23.878906 C 152.402344 24.21875 154.296875 24.761719 156.105469 25.503906 C 156.6875 25.742188 157.261719 25.996094 157.808594 26.265625 C 158.664062 26.683594 159.492188 27.140625 160.265625 27.625 C 164.363281 30.167969 167.71875 33.765625 169.972656 38.03125 C 173.867188 45.394531 174.152344 53.976562 170.757812 61.574219 Z M 170.757812 61.574219 " fill-opacity="1" fill-rule="nonzero"/><path fill="#371a45" d="M 167.683594 67.945312 C 152.230469 80.53125 129.3125 74.144531 126.554688 54.660156 C 124.679688 41.40625 136.320312 29.394531 149.277344 28.464844 C 158.703125 27.792969 168.222656 31.21875 173.324219 45.4375 C 173.324219 45.4375 174.605469 52.074219 173.136719 56.675781 C 171.667969 61.273438 169.453125 65.492188 169.453125 65.492188 Z M 167.683594 67.945312 " fill-opacity="1" fill-rule="nonzero"/><path fill="#220f2d" d="M 126.554688 54.660156 C 129.3125 74.144531 152.230469 80.53125 167.683594 67.945312 L 168.039062 67.449219 C 150.289062 72.007812 131.480469 62.6875 128.324219 43.035156 C 126.683594 46.597656 125.976562 50.570312 126.554688 54.660156 Z M 126.554688 54.660156 " fill-opacity="1" fill-rule="nonzero"/><path fill="#371a45" d="M 149.863281 78.003906 C 151.507812 78.003906 153.167969 77.871094 154.824219 77.601562 L 154.933594 77.574219 C 156.371094 77.101562 157.789062 76.507812 159.140625 75.804688 C 159.640625 75.539062 160.078125 75.296875 160.480469 75.066406 C 161.355469 74.550781 162.21875 73.984375 163.046875 73.371094 C 166.957031 70.480469 170.074219 66.605469 172.054688 62.167969 C 175.632812 54.164062 175.332031 45.125 171.226562 37.359375 C 168.851562 32.875 165.320312 29.085938 161.011719 26.414062 L 160.953125 26.375 L 160.886719 26.351562 C 157.40625 25.082031 153.453125 24.59375 149.128906 24.90625 C 141.339844 25.460938 133.65625 29.578125 128.566406 35.914062 C 123.984375 41.621094 121.988281 48.453125 122.933594 55.164062 C 123.964844 62.464844 127.480469 68.519531 133.097656 72.675781 C 137.800781 76.148438 143.722656 78.003906 149.863281 78.003906 Z M 154.539062 76.199219 C 147.089844 77.402344 139.585938 75.695312 133.9375 71.519531 C 128.636719 67.597656 125.316406 61.875 124.339844 54.957031 C 123.449219 48.648438 125.339844 42.199219 129.671875 36.808594 C 134.515625 30.773438 141.828125 26.855469 149.226562 26.324219 C 153.324219 26.03125 157.058594 26.484375 160.332031 27.660156 C 164.398438 30.203125 167.730469 33.78125 169.972656 38.027344 C 173.871094 45.394531 174.15625 53.976562 170.761719 61.578125 C 168.878906 65.792969 165.921875 69.472656 162.207031 72.21875 C 161.417969 72.800781 160.601562 73.339844 159.765625 73.828125 C 159.378906 74.054688 158.964844 74.285156 158.492188 74.535156 C 157.214844 75.191406 155.886719 75.75 154.539062 76.199219 Z M 154.539062 76.199219 " fill-opacity="1" fill-rule="nonzero"/><path fill="#371a45" d="M 149.851562 75.160156 C 156.265625 75.160156 162.765625 72.867188 168.128906 68.5 L 168.199219 68.4375 L 170.082031 65.820312 C 170.171875 65.644531 172.339844 61.492188 173.8125 56.886719 C 175.320312 52.171875 174.074219 45.574219 174.023438 45.300781 L 173.996094 45.195312 C 169.53125 32.761719 161.203125 26.894531 149.226562 27.75 C 142.28125 28.246094 135.421875 31.921875 130.882812 37.574219 C 126.792969 42.664062 125.007812 48.769531 125.851562 54.761719 C 127.082031 63.441406 132.351562 70.222656 140.316406 73.367188 C 143.363281 74.574219 146.597656 75.160156 149.851562 75.160156 Z M 167.160156 67.449219 C 159.484375 73.664062 149.402344 75.425781 140.835938 72.039062 C 133.363281 69.089844 128.410156 62.71875 127.257812 54.558594 C 126.46875 48.96875 128.144531 43.253906 131.984375 38.472656 C 136.28125 33.125 142.761719 29.648438 149.324219 29.175781 C 160.566406 28.367188 168.410156 33.902344 172.632812 45.625 C 172.746094 46.25 173.785156 52.296875 172.457031 56.453125 C 171.101562 60.691406 169.082031 64.65625 168.84375 65.113281 Z M 167.160156 67.449219 " fill-opacity="1" fill-rule="nonzero"/><path fill="#ffffff" d="M 114.066406 54.386719 C 114.171875 59.863281 117.519531 64.410156 121.554688 64.53125 C 125.585938 64.65625 128.765625 60.316406 128.664062 54.832031 C 128.664062 54.796875 128.664062 54.761719 128.660156 54.726562 C 128.515625 49.292969 125.183594 44.808594 121.179688 44.6875 C 118.066406 44.589844 115.457031 47.160156 114.480469 50.859375 C 114.191406 51.949219 114.042969 53.136719 114.066406 54.386719 Z M 114.066406 54.386719 " fill-opacity="1" fill-rule="nonzero"/><path fill="#371a45" d="M 114.066406 54.386719 C 114.171875 59.863281 117.519531 64.410156 121.554688 64.53125 C 125.585938 64.65625 128.765625 60.316406 128.664062 54.832031 C 128.664062 54.796875 128.664062 54.761719 128.660156 54.726562 C 128.226562 55.277344 127.546875 55.808594 126.613281 55.59375 C 124.96875 55.214844 121.964844 51.597656 121.964844 51.597656 C 121.964844 51.597656 118.722656 51.257812 114.480469 50.855469 C 114.191406 51.949219 114.042969 53.136719 114.066406 54.386719 Z M 114.066406 54.386719 " fill-opacity="0.25" fill-rule="nonzero"/><path fill="#371a45" d="M 121.722656 65.25 C 123.425781 65.25 125.019531 64.554688 126.347656 63.234375 C 128.332031 61.265625 129.433594 58.195312 129.371094 54.820312 C 129.261719 48.976562 125.59375 44.109375 121.199219 43.972656 C 119.429688 43.921875 117.757812 44.613281 116.378906 45.984375 C 114.398438 47.953125 113.292969 51.023438 113.355469 54.398438 C 113.464844 60.242188 117.136719 65.109375 121.527344 65.246094 C 121.59375 65.246094 121.65625 65.25 121.722656 65.25 Z M 121.007812 45.398438 C 121.054688 45.398438 121.101562 45.398438 121.15625 45.402344 C 124.804688 45.515625 127.851562 49.75 127.949219 54.847656 C 128.003906 57.789062 127.035156 60.546875 125.347656 62.21875 C 124.25 63.308594 122.945312 63.859375 121.570312 63.816406 C 117.917969 63.703125 114.871094 59.464844 114.773438 54.371094 C 114.71875 51.429688 115.691406 48.671875 117.375 47 C 118.433594 45.953125 119.6875 45.398438 121.007812 45.398438 Z M 114.066406 54.386719 Z M 114.066406 54.386719 " fill-opacity="1" fill-rule="nonzero"/><path fill="#ffffff" d="M 118.128906 47.640625 C 117.742188 47.683594 117.363281 47.777344 116.996094 47.921875 C 116.628906 48.066406 116.277344 48.257812 115.941406 48.496094 C 115.605469 48.734375 115.296875 49.015625 115.007812 49.339844 C 114.71875 49.664062 114.457031 50.023438 114.226562 50.417969 C 113.992188 50.8125 113.796875 51.238281 113.628906 51.691406 C 113.464844 52.144531 113.335938 52.617188 113.242188 53.109375 C 113.148438 53.601562 113.089844 54.105469 113.074219 54.617188 C 113.054688 55.132812 113.078125 55.644531 113.136719 56.160156 C 113.195312 56.675781 113.292969 57.179688 113.425781 57.675781 C 113.558594 58.171875 113.726562 58.648438 113.929688 59.105469 C 114.132812 59.566406 114.367188 59.996094 114.628906 60.398438 C 114.894531 60.800781 115.183594 61.167969 115.5 61.5 C 115.8125 61.832031 116.148438 62.125 116.503906 62.371094 C 116.859375 62.621094 117.226562 62.824219 117.605469 62.976562 C 117.984375 63.132812 118.371094 63.238281 118.761719 63.296875 C 119.152344 63.351562 119.542969 63.359375 119.929688 63.3125 C 120.316406 63.269531 120.691406 63.171875 121.058594 63.027344 C 121.429688 62.882812 121.78125 62.691406 122.113281 62.453125 C 122.449219 62.214844 122.761719 61.933594 123.050781 61.613281 C 123.339844 61.289062 123.597656 60.929688 123.832031 60.535156 C 124.0625 60.136719 124.261719 59.714844 124.425781 59.261719 C 124.59375 58.808594 124.722656 58.335938 124.816406 57.84375 C 124.910156 57.351562 124.964844 56.847656 124.984375 56.332031 C 125 55.820312 124.980469 55.304688 124.921875 54.792969 C 124.859375 54.277344 124.765625 53.773438 124.632812 53.277344 C 124.496094 52.78125 124.328125 52.304688 124.128906 51.84375 C 123.925781 51.386719 123.691406 50.957031 123.425781 50.554688 C 123.164062 50.148438 122.875 49.78125 122.558594 49.449219 C 122.242188 49.117188 121.90625 48.828125 121.554688 48.578125 C 121.199219 48.332031 120.832031 48.128906 120.453125 47.972656 C 120.070312 47.816406 119.6875 47.710938 119.296875 47.65625 C 118.902344 47.597656 118.515625 47.59375 118.128906 47.640625 Z M 118.128906 47.640625 " fill-opacity="1" fill-rule="nonzero"/><path fill="#371a45" d="M 119.421875 63.421875 C 120.175781 63.421875 120.921875 63.230469 121.625 62.847656 C 124.625 61.222656 125.90625 56.597656 124.484375 52.535156 C 123.6875 50.269531 122.199219 48.570312 120.394531 47.867188 C 119.054688 47.347656 117.6875 47.429688 116.4375 48.101562 C 113.4375 49.726562 112.15625 54.351562 113.578125 58.414062 L 113.644531 58.390625 L 113.578125 58.414062 C 114.375 60.679688 115.863281 62.378906 117.664062 63.082031 C 118.253906 63.308594 118.839844 63.421875 119.421875 63.421875 Z M 118.644531 47.675781 C 119.207031 47.675781 119.777344 47.785156 120.34375 48.007812 C 122.109375 48.691406 123.570312 50.363281 124.347656 52.585938 C 125.75 56.582031 124.496094 61.125 121.558594 62.714844 C 120.347656 63.367188 119.023438 63.445312 117.722656 62.941406 C 115.957031 62.253906 114.496094 60.582031 113.71875 58.363281 C 112.316406 54.363281 113.570312 49.824219 116.507812 48.230469 C 117.191406 47.859375 117.910156 47.675781 118.644531 47.675781 Z M 118.644531 47.675781 " fill-opacity="1" fill-rule="nonzero"/><path fill="#371a45" d="M 124.699219 58.726562 C 125.042969 57.273438 124.976562 55.71875 124.597656 54.265625 C 123.539062 57.515625 120.597656 58.878906 117.773438 57.3125 C 115.945312 56.300781 114.589844 54.292969 114.003906 52.042969 C 113.933594 52.25 113.878906 52.464844 113.828125 52.6875 C 112.964844 56.386719 114.699219 60.742188 117.703125 62.410156 C 120.703125 64.078125 123.835938 62.425781 124.699219 58.726562 Z M 124.699219 58.726562 " fill-opacity="0.25" fill-rule="nonzero"/><path fill="#371a45" d="M 119.332031 64.074219 C 120.585938 64.074219 121.765625 63.558594 122.757812 62.578125 C 124.363281 60.988281 125.285156 58.328125 125.214844 55.46875 C 125.105469 50.636719 122.242188 46.601562 118.839844 46.46875 C 117.519531 46.417969 116.273438 46.933594 115.230469 47.960938 C 113.625 49.546875 112.707031 52.210938 112.773438 55.070312 C 112.882812 59.898438 115.746094 63.9375 119.152344 64.070312 C 119.214844 64.074219 119.273438 64.074219 119.332031 64.074219 Z M 118.664062 47.894531 C 118.707031 47.894531 118.746094 47.894531 118.785156 47.898438 C 121.457031 48.003906 123.707031 51.414062 123.796875 55.503906 C 123.855469 57.980469 123.09375 60.242188 121.761719 61.5625 C 121.007812 62.3125 120.125 62.6875 119.207031 62.648438 C 116.539062 62.542969 114.289062 59.132812 114.195312 55.042969 C 114.140625 52.570312 114.898438 50.304688 116.230469 48.984375 C 116.953125 48.265625 117.792969 47.894531 118.664062 47.894531 Z M 113.488281 55.054688 Z M 113.488281 55.054688 " fill-opacity="1" fill-rule="nonzero"/><path fill="#ffffff" d="M 142.992188 33.816406 C 142.992188 33.816406 155.726562 33.710938 163.246094 40.441406 C 163.253906 40.449219 163.261719 40.457031 163.269531 40.460938 C 164.851562 41.878906 166.019531 43.695312 166.664062 45.710938 C 167.515625 48.375 167.707031 50.332031 167.8125 52.058594 C 168.125 57.320312 167.277344 59.839844 167.277344 59.839844 C 170.132812 56.890625 171.644531 53.640625 171.429688 49.257812 C 171.40625 48.824219 171.371094 48.382812 171.3125 47.925781 C 171.300781 47.820312 171.285156 47.714844 171.269531 47.609375 C 171.273438 47.609375 171.269531 47.605469 171.269531 47.601562 C 171.09375 46.6875 170.816406 45.496094 170.390625 44.175781 C 169.105469 40.191406 166.476562 35.046875 161.21875 32.878906 C 151.378906 28.835938 142.523438 33.289062 142.992188 33.816406 Z M 142.992188 33.816406 " fill-opacity="0.5" fill-rule="nonzero"/><g mask="url(#e68bbb3b98)"><g transform="matrix(1, 0, 0, 1, 129, 42)"><g clip-path="url(#dc79bd6fce)"><g clip-path="url(#3638d16d42)"><path fill="#ffffff" d="M 1.65625 4.496094 C 1.597656 4.773438 1.5625 5.050781 1.546875 5.335938 C 1.535156 5.617188 1.550781 5.898438 1.585938 6.175781 C 1.621094 6.449219 1.683594 6.71875 1.765625 6.980469 C 1.847656 7.238281 1.953125 7.484375 2.082031 7.71875 C 2.210938 7.953125 2.355469 8.167969 2.523438 8.367188 C 2.691406 8.566406 2.871094 8.742188 3.070312 8.894531 C 3.269531 9.050781 3.484375 9.179688 3.707031 9.285156 C 3.929688 9.390625 4.164062 9.472656 4.402344 9.523438 C 4.644531 9.578125 4.886719 9.601562 5.136719 9.597656 C 5.382812 9.597656 5.628906 9.566406 5.875 9.507812 C 6.117188 9.449219 6.359375 9.367188 6.589844 9.257812 C 6.824219 9.144531 7.046875 9.011719 7.257812 8.851562 C 7.472656 8.691406 7.671875 8.511719 7.855469 8.308594 C 8.035156 8.109375 8.203125 7.890625 8.351562 7.652344 C 8.496094 7.417969 8.625 7.167969 8.730469 6.90625 C 8.835938 6.644531 8.917969 6.375 8.980469 6.09375 C 9.039062 5.816406 9.074219 5.539062 9.085938 5.253906 C 9.097656 4.972656 9.085938 4.691406 9.050781 4.414062 C 9.011719 4.140625 8.953125 3.871094 8.871094 3.609375 C 8.785156 3.351562 8.679688 3.105469 8.554688 2.871094 C 8.425781 2.636719 8.277344 2.421875 8.113281 2.222656 C 7.945312 2.023438 7.761719 1.847656 7.5625 1.695312 C 7.363281 1.539062 7.152344 1.410156 6.929688 1.304688 C 6.703125 1.199219 6.472656 1.117188 6.234375 1.066406 C 5.992188 1.011719 5.75 0.988281 5.5 0.992188 C 5.253906 0.992188 5.007812 1.023438 4.761719 1.082031 C 4.515625 1.140625 4.277344 1.222656 4.042969 1.332031 C 3.8125 1.445312 3.589844 1.578125 3.375 1.738281 C 3.164062 1.898438 2.964844 2.078125 2.78125 2.28125 C 2.597656 2.480469 2.433594 2.699219 2.285156 2.9375 C 2.136719 3.171875 2.011719 3.421875 1.90625 3.683594 C 1.800781 3.945312 1.71875 4.21875 1.65625 4.496094 Z M 1.65625 4.496094 " fill-opacity="1" fill-rule="nonzero"/></g></g></g></g><g mask="url(#e6fb3617a1)"><g transform="matrix(1, 0, 0, 1, 130, 52)"><g clip-path="url(#d389f846ea)"><g clip-path="url(#b7d823d46b)"><path fill="#ffffff" d="M 1.25 2.519531 C 1.179688 2.742188 1.148438 2.972656 1.15625 3.207031 C 1.164062 3.4375 1.210938 3.65625 1.300781 3.859375 C 1.386719 4.066406 1.507812 4.238281 1.660156 4.382812 C 1.816406 4.527344 1.988281 4.628906 2.183594 4.691406 C 2.378906 4.753906 2.582031 4.773438 2.789062 4.742188 C 2.996094 4.714844 3.195312 4.640625 3.382812 4.527344 C 3.574219 4.410156 3.738281 4.257812 3.878906 4.074219 C 4.019531 3.890625 4.125 3.683594 4.195312 3.457031 C 4.269531 3.230469 4.300781 3.003906 4.289062 2.769531 C 4.28125 2.535156 4.234375 2.320312 4.144531 2.113281 C 4.058594 1.910156 3.9375 1.738281 3.785156 1.59375 C 3.628906 1.449219 3.457031 1.34375 3.261719 1.28125 C 3.066406 1.21875 2.863281 1.203125 2.65625 1.234375 C 2.449219 1.261719 2.25 1.335938 2.0625 1.449219 C 1.871094 1.566406 1.707031 1.714844 1.566406 1.902344 C 1.425781 2.085938 1.320312 2.292969 1.25 2.519531 Z M 1.25 2.519531 " fill-opacity="1" fill-rule="nonzero"/></g></g></g></g><path fill="#ffffff" d="M 98.566406 51.785156 C 97.859375 51.496094 97.050781 50.523438 96.863281 50.148438 C 96.476562 49.386719 95.914062 48.453125 95.273438 47.253906 C 94.183594 45.195312 91.347656 42.386719 89.71875 43.351562 C 87.117188 44.890625 90.691406 47.941406 90.652344 48.546875 C 90.621094 49.152344 88.976562 51.945312 90.351562 55.035156 Z M 98.566406 51.785156 " fill-opacity="1" fill-rule="nonzero"/><path fill="#371a45" d="M 98.828125 51.144531 C 98.691406 51.085938 98.511719 50.964844 98.339844 50.820312 C 98.167969 50.675781 97.996094 50.503906 97.84375 50.328125 C 97.769531 50.238281 97.691406 50.144531 97.625 50.058594 C 97.554688 49.96875 97.496094 49.878906 97.46875 49.820312 C 97.339844 49.570312 97.207031 49.328125 97.078125 49.089844 L 96.296875 47.679688 L 95.914062 46.980469 C 95.78125 46.730469 95.628906 46.472656 95.472656 46.234375 C 95.15625 45.753906 94.808594 45.300781 94.433594 44.878906 C 94.054688 44.449219 93.648438 44.046875 93.199219 43.679688 C 92.75 43.3125 92.257812 42.96875 91.671875 42.71875 C 91.378906 42.59375 91.054688 42.492188 90.695312 42.453125 C 90.335938 42.417969 89.921875 42.453125 89.550781 42.628906 C 89.347656 42.722656 89.222656 42.808594 89.078125 42.902344 C 88.9375 43.011719 88.800781 43.117188 88.671875 43.253906 C 88.417969 43.519531 88.199219 43.878906 88.105469 44.273438 C 88.003906 44.664062 88.023438 45.054688 88.089844 45.394531 C 88.160156 45.738281 88.277344 46.039062 88.410156 46.324219 C 88.671875 46.882812 89 47.359375 89.324219 47.808594 L 89.789062 48.441406 C 89.859375 48.539062 89.921875 48.644531 89.9375 48.675781 C 89.949219 48.695312 89.933594 48.667969 89.933594 48.65625 C 89.9375 48.660156 89.917969 48.605469 89.917969 48.566406 C 89.917969 48.546875 89.917969 48.527344 89.917969 48.507812 C 89.921875 48.488281 89.917969 48.503906 89.917969 48.5 C 89.914062 48.5 89.914062 48.5 89.917969 48.5 C 89.921875 48.496094 89.917969 48.511719 89.914062 48.523438 L 89.902344 48.558594 C 89.847656 48.753906 89.75 49.027344 89.664062 49.289062 C 89.582031 49.550781 89.496094 49.828125 89.429688 50.105469 C 89.285156 50.664062 89.1875 51.238281 89.167969 51.824219 C 89.117188 52.996094 89.414062 54.203125 90.03125 55.167969 C 90.136719 55.328125 90.351562 55.378906 90.511719 55.273438 C 90.636719 55.191406 90.695312 55.046875 90.664062 54.910156 L 90.660156 54.886719 C 90.558594 54.378906 90.445312 53.894531 90.429688 53.394531 C 90.417969 53.273438 90.414062 53.148438 90.414062 53.027344 C 90.414062 52.90625 90.402344 52.785156 90.417969 52.660156 L 90.433594 52.292969 L 90.476562 51.929688 C 90.539062 51.445312 90.640625 50.960938 90.78125 50.480469 C 90.851562 50.238281 90.929688 50 91.019531 49.753906 C 91.101562 49.503906 91.199219 49.277344 91.300781 48.953125 L 91.316406 48.894531 C 91.320312 48.875 91.328125 48.859375 91.335938 48.816406 C 91.347656 48.753906 91.359375 48.6875 91.367188 48.621094 C 91.367188 48.601562 91.371094 48.597656 91.371094 48.558594 C 91.371094 48.523438 91.371094 48.488281 91.367188 48.449219 C 91.363281 48.382812 91.347656 48.289062 91.335938 48.265625 C 91.3125 48.1875 91.28125 48.097656 91.257812 48.058594 C 91.160156 47.847656 91.074219 47.730469 90.992188 47.605469 C 90.820312 47.363281 90.664062 47.148438 90.511719 46.9375 C 90.207031 46.515625 89.929688 46.101562 89.734375 45.6875 C 89.53125 45.277344 89.449219 44.878906 89.515625 44.617188 C 89.550781 44.484375 89.609375 44.367188 89.722656 44.246094 C 89.773438 44.1875 89.847656 44.128906 89.917969 44.070312 C 90 44.015625 90.089844 43.953125 90.140625 43.933594 C 90.355469 43.820312 90.726562 43.847656 91.132812 44.015625 C 91.53125 44.183594 91.9375 44.449219 92.320312 44.761719 C 93.082031 45.382812 93.769531 46.160156 94.316406 46.992188 C 94.453125 47.203125 94.574219 47.410156 94.691406 47.628906 L 95.082031 48.347656 L 95.867188 49.757812 C 95.992188 49.988281 96.117188 50.21875 96.234375 50.449219 C 96.328125 50.628906 96.421875 50.757812 96.515625 50.886719 C 96.609375 51.011719 96.703125 51.128906 96.804688 51.238281 C 97 51.464844 97.214844 51.679688 97.453125 51.878906 C 97.691406 52.074219 97.953125 52.269531 98.308594 52.421875 C 98.65625 52.574219 99.066406 52.410156 99.214844 52.058594 C 99.363281 51.707031 99.203125 51.296875 98.851562 51.148438 Z M 98.828125 51.144531 " fill-opacity="1" fill-rule="nonzero"/><path fill="#ffffff" d="M 146.042969 91 L 133.964844 100.820312 L 124.53125 99.441406 L 119.546875 98.714844 C 119.546875 98.714844 116.148438 96.335938 115.328125 95.746094 C 114.21875 94.953125 115.082031 93.574219 115.863281 92.886719 C 117.191406 91.707031 118.3125 90.480469 119.28125 89.28125 C 120.84375 87.34375 122.015625 85.472656 123.042969 83.957031 C 123.886719 82.714844 125.460938 82.199219 126.867188 82.710938 C 135.265625 85.78125 143.761719 87.84375 143.761719 87.84375 Z M 146.042969 91 " fill-opacity="1" fill-rule="nonzero"/><path fill="#371a45" d="M 133.960938 101.429688 C 134.101562 101.429688 134.234375 101.378906 134.34375 101.292969 L 146.421875 91.472656 C 146.675781 91.265625 146.722656 90.898438 146.53125 90.636719 L 144.25 87.480469 C 144.164062 87.363281 144.039062 87.277344 143.898438 87.246094 C 143.816406 87.226562 135.335938 85.152344 127.066406 82.132812 C 125.398438 81.523438 123.535156 82.132812 122.527344 83.613281 C 122.304688 83.941406 122.066406 84.292969 121.824219 84.65625 C 120.296875 86.949219 118.394531 89.808594 115.449219 92.425781 C 114.808594 92.996094 114.140625 93.9375 114.183594 94.871094 C 114.210938 95.425781 114.480469 95.898438 114.964844 96.246094 C 115.773438 96.828125 119.046875 99.113281 119.183594 99.214844 C 119.261719 99.269531 119.351562 99.304688 119.445312 99.320312 L 133.863281 101.429688 C 133.90625 101.429688 133.933594 101.429688 133.960938 101.429688 Z M 145.207031 90.886719 L 133.785156 100.171875 L 119.773438 98.125 C 119.167969 97.703125 116.402344 95.765625 115.683594 95.246094 C 115.453125 95.082031 115.417969 94.925781 115.410156 94.808594 C 115.386719 94.363281 115.824219 93.734375 116.261719 93.339844 C 119.324219 90.621094 121.277344 87.695312 122.84375 85.339844 C 123.082031 84.980469 123.316406 84.632812 123.535156 84.300781 C 124.226562 83.285156 125.507812 82.867188 126.648438 83.285156 C 134.238281 86.058594 142 88.03125 143.394531 88.378906 Z M 145.207031 90.886719 " fill-opacity="1" fill-rule="nonzero"/><path fill="#371a45" d="M 124.53125 99.4375 L 119.546875 98.710938 C 119.546875 98.710938 116.148438 96.332031 115.328125 95.742188 C 114.480469 95.132812 114.785156 94.191406 115.320312 93.46875 C 115.484375 93.246094 115.679688 93.042969 115.859375 92.882812 C 117.1875 91.703125 118.308594 90.476562 119.277344 89.277344 C 119.320312 89.945312 120.355469 90.722656 121.921875 90.535156 C 122.632812 90.449219 124.945312 87.886719 126.101562 87.785156 C 129.484375 87.488281 126.175781 96.136719 124.53125 99.4375 Z M 124.53125 99.4375 " fill-opacity="0.3" fill-rule="nonzero"/><path fill="#ffffff" d="M 106.277344 74.953125 C 105.414062 75.613281 104.929688 76.714844 105.066406 77.703125 C 106.769531 90.121094 117.933594 95.175781 120.5625 92.851562 C 122.964844 90.726562 121.535156 88.472656 121.535156 88.472656 C 121.535156 88.472656 112.875 86.105469 109.851562 75.464844 C 109.457031 74.085938 107.890625 73.714844 106.609375 74.703125 Z M 106.277344 74.953125 " fill-opacity="1" fill-rule="nonzero"/><path fill="#371a45" d="M 120.5625 92.847656 C 117.933594 95.171875 106.769531 90.117188 105.066406 77.699219 C 104.933594 76.714844 105.414062 75.613281 106.277344 74.949219 L 106.605469 74.691406 C 107.074219 74.332031 107.574219 74.15625 108.042969 74.140625 C 107.6875 74.71875 107.523438 75.394531 107.605469 76.019531 C 109.066406 86.660156 117.472656 91.890625 121.5 91.710938 C 121.292969 92.089844 120.988281 92.472656 120.5625 92.847656 Z M 120.5625 92.847656 " fill-opacity="0.3" fill-rule="nonzero"/><path fill="#371a45" d="M 118.753906 94.097656 C 119.695312 94.097656 120.472656 93.855469 121.015625 93.375 C 123.269531 91.378906 122.722656 89.050781 122.117188 88.097656 L 121.972656 87.871094 L 121.71875 87.800781 C 121.636719 87.777344 113.390625 85.386719 110.515625 75.273438 C 110.28125 74.453125 109.707031 73.835938 108.9375 73.582031 C 108.0625 73.292969 107.03125 73.503906 106.1875 74.152344 L 105.855469 74.40625 C 104.804688 75.214844 104.210938 76.578125 104.378906 77.804688 C 105.515625 86.109375 110.960938 91.679688 115.851562 93.507812 C 116.917969 93.898438 117.902344 94.097656 118.753906 94.097656 Z M 121.058594 89.050781 C 121.292969 89.574219 121.664062 90.945312 120.101562 92.328125 C 119.484375 92.875 118.007812 92.820312 116.335938 92.195312 C 111.832031 90.511719 106.8125 85.347656 105.75 77.609375 C 105.652344 76.875 106.039062 76.007812 106.699219 75.503906 L 107.03125 75.25 C 107.511719 74.882812 108.066406 74.75 108.507812 74.898438 C 108.84375 75.011719 109.082031 75.269531 109.1875 75.652344 C 112 85.558594 119.453125 88.515625 121.058594 89.050781 Z M 121.058594 89.050781 " fill-opacity="1" fill-rule="nonzero"/><path fill="#ffffff" d="M 135.730469 99.261719 C 134.925781 100.234375 134.035156 101.53125 134.035156 101.53125 C 134.035156 101.53125 131.917969 100.074219 131.757812 99.941406 C 131.230469 99.503906 131.738281 98.011719 132.894531 96.617188 C 134.050781 95.21875 135.414062 94.445312 135.941406 94.882812 C 136.324219 95.207031 138.039062 96.351562 138.039062 96.351562 C 138.039062 96.351562 136.039062 98.886719 135.730469 99.261719 Z M 135.730469 99.261719 " fill-opacity="1" fill-rule="nonzero"/><path fill="#ffffff" d="M 134.738281 97.847656 C 134.460938 98.183594 134.226562 98.53125 134.035156 98.898438 C 133.839844 99.261719 133.707031 99.609375 133.628906 99.949219 C 133.554688 100.285156 133.539062 100.582031 133.589844 100.839844 C 133.636719 101.101562 133.746094 101.300781 133.914062 101.441406 C 134.085938 101.582031 134.300781 101.652344 134.5625 101.65625 C 134.824219 101.65625 135.113281 101.589844 135.429688 101.453125 C 135.742188 101.316406 136.0625 101.117188 136.382812 100.863281 C 136.703125 100.605469 137.003906 100.3125 137.28125 99.976562 C 137.558594 99.640625 137.792969 99.289062 137.984375 98.925781 C 138.175781 98.5625 138.3125 98.210938 138.386719 97.875 C 138.464844 97.539062 138.480469 97.242188 138.429688 96.980469 C 138.378906 96.722656 138.269531 96.523438 138.101562 96.382812 C 137.933594 96.242188 137.71875 96.167969 137.457031 96.167969 C 137.195312 96.164062 136.90625 96.234375 136.589844 96.371094 C 136.273438 96.507812 135.957031 96.703125 135.636719 96.960938 C 135.3125 97.214844 135.015625 97.511719 134.738281 97.847656 Z M 134.738281 97.847656 " fill-opacity="1" fill-rule="nonzero"/><path fill="#ffffff" d="M 145.660156 91.601562 C 144.71875 92.617188 143.222656 94.242188 141.605469 95.890625 C 139.292969 98.246094 136.726562 100.660156 135.179688 101.429688 C 132.492188 102.761719 124.492188 100.664062 119.542969 98.710938 C 118.242188 98.199219 117.820312 96.589844 118.851562 95.644531 C 120.535156 94.09375 122.046875 92.515625 123.304688 91.113281 C 124.492188 89.789062 125.449219 88.621094 126.105469 87.785156 C 126.707031 87.023438 127.746094 86.757812 128.640625 87.128906 C 136.433594 90.363281 142.496094 90.640625 145.191406 90.558594 C 145.742188 90.542969 146.035156 91.199219 145.660156 91.601562 Z M 145.660156 91.601562 " fill-opacity="1" fill-rule="nonzero"/><path fill="#371a45" d="M 138.082031 98.847656 C 137.03125 99.808594 136.042969 100.628906 135.246094 101.132812 C 135.058594 101.253906 134.875 101.359375 134.707031 101.441406 C 132.101562 102.734375 124.355469 100.703125 119.566406 98.808594 C 118.308594 98.3125 117.894531 96.753906 118.894531 95.835938 C 120.527344 94.335938 121.992188 92.804688 123.203125 91.449219 C 123.109375 92.921875 123.484375 96.25 128.199219 98.539062 C 129.417969 99.132812 130.804688 99.292969 132.246094 99.175781 C 132.203125 98.523438 132.582031 97.464844 133.285156 96.421875 C 134.265625 94.964844 135.511719 94.089844 136.058594 94.464844 C 136.394531 94.695312 137.675781 95.386719 138.09375 95.609375 C 138.160156 95.636719 138.226562 95.667969 138.285156 95.707031 C 138.675781 95.96875 138.800781 96.542969 138.683594 97.238281 C 138.601562 97.738281 138.398438 98.296875 138.082031 98.847656 Z M 138.082031 98.847656 " fill-opacity="0.3" fill-rule="nonzero"/><path fill="#371a45" d="M 135.925781 100.609375 C 136.304688 100.070312 136.570312 99.519531 136.707031 99.019531 C 137.5625 98.714844 138.378906 98.378906 139.132812 98.050781 C 138.074219 98.933594 136.96875 99.824219 135.925781 100.609375 Z M 135.925781 100.609375 " fill-opacity="0.3" fill-rule="nonzero"/><path fill="#371a45" d="M 132.695312 102.460938 C 133.816406 102.460938 134.769531 102.316406 135.449219 101.976562 C 138.09375 100.667969 143.347656 94.992188 145.878906 92.269531 L 146.109375 92.019531 C 146.445312 91.652344 146.535156 91.125 146.328125 90.667969 C 146.125 90.210938 145.671875 89.929688 145.175781 89.945312 C 142.34375 90.035156 136.460938 89.710938 128.878906 86.5625 C 127.734375 86.089844 126.398438 86.433594 125.632812 87.40625 C 124.359375 89.019531 121.730469 92.171875 118.445312 95.191406 C 117.828125 95.757812 117.5625 96.546875 117.710938 97.359375 C 117.871094 98.226562 118.472656 98.945312 119.324219 99.28125 C 123.054688 100.753906 128.859375 102.460938 132.695312 102.460938 Z M 145.210938 91.167969 L 144.988281 91.429688 C 142.703125 93.894531 137.355469 99.664062 134.914062 100.875 C 132.664062 101.988281 125.300781 100.320312 119.765625 98.136719 C 119.308594 97.957031 118.988281 97.582031 118.902344 97.132812 C 118.863281 96.90625 118.851562 96.46875 119.261719 96.089844 C 122.609375 93.015625 125.285156 89.804688 126.582031 88.164062 C 127.011719 87.621094 127.761719 87.425781 128.402344 87.695312 C 136.207031 90.929688 142.285156 91.257812 145.210938 91.167969 Z M 145.210938 91.167969 " fill-opacity="1" fill-rule="nonzero"/><path fill="#22a7f0" d="M 135.730469 99.261719 C 134.925781 100.234375 134.035156 101.53125 134.035156 101.53125 C 134.035156 101.53125 131.917969 100.074219 131.757812 99.941406 C 131.230469 99.503906 131.738281 98.011719 132.894531 96.617188 C 134.050781 95.21875 135.414062 94.445312 135.941406 94.882812 C 136.324219 95.207031 138.039062 96.351562 138.039062 96.351562 C 138.039062 96.351562 136.039062 98.886719 135.730469 99.261719 Z M 135.730469 99.261719 " fill-opacity="1" fill-rule="nonzero"/><path fill="#ffffff" d="M 138.039062 96.351562 C 138.039062 96.351562 136.039062 98.882812 135.730469 99.261719 C 134.925781 100.234375 134.035156 101.53125 134.035156 101.53125 C 134.035156 101.53125 133.996094 101.5 133.925781 101.453125 C 134.230469 101.035156 134.605469 100.539062 134.964844 100.109375 C 135.273438 99.734375 137.277344 97.203125 137.277344 97.203125 C 137.277344 97.203125 135.5625 96.054688 135.171875 95.730469 C 134.746094 95.371094 133.765625 95.816406 132.792969 96.746094 C 132.828125 96.699219 132.859375 96.660156 132.898438 96.617188 C 134.054688 95.21875 135.417969 94.445312 135.945312 94.882812 C 136.324219 95.207031 138.039062 96.351562 138.039062 96.351562 Z M 138.039062 96.351562 " fill-opacity="0.8" fill-rule="nonzero"/><path fill="#371a45" d="M 135.359375 99.734375 C 134.671875 100.605469 134.035156 101.53125 134.035156 101.53125 C 134.035156 101.53125 131.917969 100.074219 131.757812 99.941406 C 131.230469 99.503906 131.738281 98.011719 132.894531 96.617188 C 133.28125 96.144531 133.695312 95.742188 134.09375 95.4375 C 133.195312 96.6875 132.839844 97.914062 133.304688 98.308594 C 133.4375 98.414062 134.800781 99.347656 135.359375 99.734375 Z M 135.359375 99.734375 " fill-opacity="0.3" fill-rule="nonzero"/><path fill="#371a45" d="M 134.035156 102.039062 C 134.199219 102.039062 134.359375 101.960938 134.453125 101.816406 C 134.460938 101.804688 135.34375 100.527344 136.121094 99.582031 C 136.429688 99.207031 138.359375 96.773438 138.4375 96.667969 C 138.527344 96.554688 138.5625 96.414062 138.542969 96.273438 C 138.523438 96.132812 138.441406 96.007812 138.320312 95.925781 C 137.851562 95.609375 136.5625 94.738281 136.265625 94.488281 C 135.34375 93.714844 133.667969 94.875 132.503906 96.285156 C 131.90625 97.007812 131.445312 97.78125 131.214844 98.46875 C 130.824219 99.609375 131.183594 100.125 131.429688 100.335938 C 131.59375 100.472656 133.246094 101.605469 133.746094 101.949219 C 133.835938 102.011719 133.9375 102.039062 134.035156 102.039062 Z M 137.300781 96.46875 C 136.714844 97.210938 135.566406 98.664062 135.34375 98.933594 C 134.804688 99.582031 134.242188 100.355469 133.910156 100.824219 C 133.03125 100.222656 132.183594 99.632812 132.078125 99.546875 C 131.945312 99.371094 132.191406 98.257812 133.28125 96.941406 C 134.375 95.621094 135.414062 95.179688 135.613281 95.28125 C 135.894531 95.507812 136.753906 96.097656 137.300781 96.46875 Z M 137.300781 96.46875 " fill-opacity="1" fill-rule="nonzero"/><path fill="#22a7f0" d="M 134.738281 97.847656 C 134.460938 98.183594 134.226562 98.53125 134.035156 98.898438 C 133.839844 99.261719 133.707031 99.609375 133.628906 99.949219 C 133.554688 100.285156 133.539062 100.582031 133.589844 100.839844 C 133.636719 101.101562 133.746094 101.300781 133.914062 101.441406 C 134.085938 101.582031 134.300781 101.652344 134.5625 101.65625 C 134.824219 101.65625 135.113281 101.589844 135.429688 101.453125 C 135.742188 101.316406 136.0625 101.117188 136.382812 100.863281 C 136.703125 100.605469 137.003906 100.3125 137.28125 99.976562 C 137.558594 99.640625 137.792969 99.289062 137.984375 98.925781 C 138.175781 98.5625 138.3125 98.210938 138.386719 97.875 C 138.464844 97.539062 138.480469 97.242188 138.429688 96.980469 C 138.378906 96.722656 138.269531 96.523438 138.101562 96.382812 C 137.933594 96.242188 137.71875 96.167969 137.457031 96.167969 C 137.195312 96.164062 136.90625 96.234375 136.589844 96.371094 C 136.273438 96.507812 135.957031 96.703125 135.636719 96.960938 C 135.3125 97.214844 135.015625 97.511719 134.738281 97.847656 Z M 134.738281 97.847656 " fill-opacity="1" fill-rule="nonzero"/><path fill="#ffffff" d="M 137.28125 99.980469 C 137.207031 100.070312 137.128906 100.15625 137.054688 100.242188 C 137.777344 99.058594 137.925781 97.875 137.347656 97.390625 C 136.691406 96.84375 135.332031 97.378906 134.210938 98.59375 C 134.363281 98.34375 134.539062 98.097656 134.738281 97.851562 C 135.894531 96.453125 137.402344 95.796875 138.105469 96.386719 C 138.804688 96.976562 138.4375 98.585938 137.28125 99.980469 Z M 137.28125 99.980469 " fill-opacity="0.8" fill-rule="nonzero"/><path fill="#371a45" d="M 137.179688 100.101562 C 136.039062 101.417969 134.601562 102.019531 133.921875 101.449219 C 133.21875 100.863281 133.585938 99.257812 134.742188 97.859375 C 135.351562 97.128906 136.050781 96.601562 136.679688 96.34375 C 136.648438 96.382812 136.613281 96.421875 136.582031 96.460938 C 135.425781 97.859375 135.0625 99.464844 135.765625 100.054688 C 136.089844 100.332031 136.605469 100.328125 137.179688 100.101562 Z M 137.179688 100.101562 " fill-opacity="0.3" fill-rule="nonzero"/><path fill="#371a45" d="M 134.574219 102.175781 C 135.511719 102.175781 136.6875 101.5 137.675781 100.308594 C 139.050781 98.648438 139.378906 96.789062 138.429688 96 C 137.480469 95.207031 135.726562 95.863281 134.351562 97.527344 C 132.972656 99.195312 132.648438 101.050781 133.59375 101.839844 C 133.863281 102.066406 134.203125 102.175781 134.574219 102.175781 Z M 137.449219 96.6875 C 137.589844 96.6875 137.703125 96.722656 137.777344 96.785156 C 138.132812 97.085938 137.96875 98.351562 136.886719 99.65625 C 135.808594 100.960938 134.597656 101.355469 134.242188 101.058594 C 133.882812 100.757812 134.050781 99.492188 135.128906 98.1875 C 135.984375 97.148438 136.921875 96.6875 137.449219 96.6875 Z M 137.449219 96.6875 " fill-opacity="1" fill-rule="nonzero"/><path fill="#371a45" d="M 125.394531 101.089844 C 125.515625 101.089844 125.636719 101.039062 125.726562 100.949219 L 129.316406 97.167969 C 129.972656 96.476562 130.0625 95.394531 129.523438 94.601562 C 129.25 94.203125 129.261719 93.671875 129.554688 93.285156 L 132.914062 88.839844 C 133.066406 88.636719 133.023438 88.347656 132.824219 88.195312 C 132.625 88.039062 132.335938 88.082031 132.183594 88.28125 L 128.824219 92.726562 C 128.292969 93.429688 128.269531 94.390625 128.765625 95.117188 C 129.0625 95.554688 129.011719 96.148438 128.648438 96.53125 L 125.058594 100.308594 C 124.886719 100.496094 124.890625 100.785156 125.074219 100.960938 C 125.167969 101.050781 125.277344 101.089844 125.394531 101.089844 Z M 125.394531 101.089844 " fill-opacity="1" fill-rule="nonzero"/><path fill="#371a45" d="M 101.519531 101.023438 C 101.863281 101.023438 102.160156 100.765625 102.207031 100.414062 C 102.253906 100.035156 101.984375 99.6875 101.605469 99.640625 C 100.480469 99.5 98.113281 98.316406 96.558594 95.730469 C 95.238281 93.53125 94.140625 89.632812 96.417969 83.550781 C 96.554688 83.191406 96.375 82.792969 96.019531 82.65625 C 95.660156 82.523438 95.261719 82.699219 95.125 83.058594 C 92.648438 89.660156 93.898438 93.984375 95.378906 96.449219 C 97.199219 99.472656 99.996094 100.839844 101.433594 101.015625 C 101.464844 101.023438 101.492188 101.023438 101.519531 101.023438 Z M 101.519531 101.023438 " fill-opacity="1" fill-rule="nonzero"/><path fill="#371a45" d="M 99.746094 71.324219 C 99.828125 71.324219 99.917969 71.308594 100 71.277344 C 103.898438 69.71875 106.429688 66.476562 107.332031 61.90625 C 108.003906 58.515625 107.542969 55.617188 107.523438 55.492188 C 107.460938 55.113281 107.105469 54.859375 106.726562 54.917969 C 106.351562 54.980469 106.097656 55.339844 106.15625 55.71875 C 106.160156 55.753906 106.597656 58.527344 105.96875 61.671875 C 105.144531 65.792969 102.964844 68.589844 99.492188 69.980469 C 99.136719 70.121094 98.960938 70.527344 99.105469 70.886719 C 99.207031 71.160156 99.46875 71.324219 99.746094 71.324219 Z M 99.746094 71.324219 " fill-opacity="1" fill-rule="nonzero"/><path fill="#371a45" d="M 126.082031 84.300781 C 126.179688 84.183594 127.355469 85.878906 128.378906 86.511719 C 128.910156 86.835938 126.53125 87.859375 126.746094 87.125 C 126.996094 86.242188 125.984375 84.417969 126.082031 84.300781 Z M 126.082031 84.300781 " fill-opacity="1" fill-rule="nonzero"/></svg>