<svg width="275" height="413" viewBox="0 0 275 413" fill="none" xmlns="http://www.w3.org/2000/svg">
<g clip-path="url(#clip0_26_3031)">
<mask id="mask0_26_3031" style="mask-type:luminance" maskUnits="userSpaceOnUse" x="35" y="0" width="146" height="138">
<path d="M35.1032 0.694092H180.77V137.916H35.1032V0.694092Z" fill="white"/>
</mask>
<g mask="url(#mask0_26_3031)">
<mask id="mask1_26_3031" style="mask-type:luminance" maskUnits="userSpaceOnUse" x="-105" y="-34" width="436" height="489">
<path d="M-104.765 89.2989L150.165 -33.4373L330.04 332.091L75.0965 454.814L-104.765 89.2989Z" fill="white"/>
</mask>
<g mask="url(#mask1_26_3031)">
<mask id="mask2_26_3031" style="mask-type:luminance" maskUnits="userSpaceOnUse" x="-105" y="-34" width="436" height="489">
<path d="M-104.765 89.2989L150.165 -33.4373L330.04 332.091L75.0965 454.814L-104.765 89.2989Z" fill="white"/>
</mask>
<g mask="url(#mask2_26_3031)">
<mask id="mask3_26_3031" style="mask-type:luminance" maskUnits="userSpaceOnUse" x="-105" y="-34" width="436" height="489">
<path d="M-104.765 89.2989L150.165 -33.4373L330.04 332.091L75.0965 454.814L-104.765 89.2989Z" fill="white"/>
</mask>
<g mask="url(#mask3_26_3031)">
<path d="M139.72 58.5043L170.907 8.7612L129.125 29.2105L124.343 2.35571L110.429 33.1369L78.3615 8.41279L78.2938 31.6896L38.1243 20.5805L68.0787 54.3769L42.9474 74.6788L78.2667 83.014L53.447 118.526L84.4174 101.105L95.635 128.965L112.163 106.599L127.757 134.861L122.067 94.8333L180.607 112.187L147.32 73.7273L157.535 70.2566L139.72 58.5043Z" fill="#F8B051"/>
</g>
</g>
</g>
</g>
<mask id="mask4_26_3031" style="mask-type:luminance" maskUnits="userSpaceOnUse" x="73" y="31" width="70" height="66">
<path d="M73.254 31.5691H142.619V96.7496H73.254V31.5691Z" fill="white"/>
</mask>
<g mask="url(#mask4_26_3031)">
<mask id="mask5_26_3031" style="mask-type:luminance" maskUnits="userSpaceOnUse" x="-105" y="-34" width="436" height="489">
<path d="M-104.765 89.2989L150.165 -33.4373L330.04 332.091L75.0965 454.814L-104.765 89.2989Z" fill="white"/>
</mask>
<g mask="url(#mask5_26_3031)">
<mask id="mask6_26_3031" style="mask-type:luminance" maskUnits="userSpaceOnUse" x="-105" y="-34" width="436" height="489">
<path d="M-104.765 89.2989L150.165 -33.4373L330.04 332.091L75.0965 454.814L-104.765 89.2989Z" fill="white"/>
</mask>
<g mask="url(#mask6_26_3031)">
<mask id="mask7_26_3031" style="mask-type:luminance" maskUnits="userSpaceOnUse" x="-105" y="-34" width="436" height="489">
<path d="M-104.765 89.2989L150.165 -33.4373L330.04 332.091L75.0965 454.814L-104.765 89.2989Z" fill="white"/>
</mask>
<g mask="url(#mask7_26_3031)">
<path d="M121.281 59.5362L134.815 42.2092L120.766 44.5811L119.195 34.5842L107.11 47.2612L91.5978 35.2945L91.5707 46.5644L79.0795 43.5492L91.5436 55.0738V55.851L74.4597 67.3621L86.0838 71.2081L84.8645 85.4797L94.2125 75.3623L94.1177 73.8748L99.6994 93.7479L107.95 82.7996L112.597 87.5434L112.746 77.1178L131.97 80.1597L124.966 66.9065L142.091 67.5363L121.281 59.5362Z" fill="#E83C37"/>
</g>
</g>
</g>
</g>
<mask id="mask8_26_3031" style="mask-type:luminance" maskUnits="userSpaceOnUse" x="66" y="55" width="56" height="94">
<path d="M66.3175 55.583H121.81V148.208H66.3175V55.583Z" fill="white"/>
</mask>
<g mask="url(#mask8_26_3031)">
<mask id="mask9_26_3031" style="mask-type:luminance" maskUnits="userSpaceOnUse" x="-105" y="-34" width="436" height="489">
<path d="M-104.765 89.2989L150.165 -33.4373L330.04 332.091L75.0965 454.814L-104.765 89.2989Z" fill="white"/>
</mask>
<g mask="url(#mask9_26_3031)">
<mask id="mask10_26_3031" style="mask-type:luminance" maskUnits="userSpaceOnUse" x="-105" y="-34" width="436" height="489">
<path d="M-104.765 89.2989L150.165 -33.4373L330.04 332.091L75.0965 454.814L-104.765 89.2989Z" fill="white"/>
</mask>
<g mask="url(#mask10_26_3031)">
<mask id="mask11_26_3031" style="mask-type:luminance" maskUnits="userSpaceOnUse" x="-105" y="-34" width="436" height="489">
<path d="M-104.765 89.2989L150.165 -33.4373L330.04 332.091L75.0965 454.814L-104.765 89.2989Z" fill="white"/>
</mask>
<g mask="url(#mask11_26_3031)">
<path d="M103.235 67.3622C111.432 84.5552 102.233 96.2539 87.0592 104.736C80.0008 108.676 74.6358 111.169 71.0998 118.727C68.1735 124.985 70.4631 134.325 71.4927 140.757C72.7256 148.543 84.7696 146.305 83.5503 138.56C82.9136 134.526 82.2768 130.573 82.2362 126.486C82.1684 119.316 89.7146 117.226 94.9441 114.318C101.623 110.579 107.395 105.755 112.285 99.9122C121.525 88.8567 120.089 74.2903 114.25 62.0555C110.863 54.9398 99.8619 60.2465 103.235 67.3622Z" fill="#BAD5F1"/>
</g>
</g>
</g>
</g>
<mask id="mask12_26_3031" style="mask-type:luminance" maskUnits="userSpaceOnUse" x="52" y="127" width="67" height="63">
<path d="M52.4444 127.625H118.341V189.375H52.4444V127.625Z" fill="white"/>
</mask>
<g mask="url(#mask12_26_3031)">
<mask id="mask13_26_3031" style="mask-type:luminance" maskUnits="userSpaceOnUse" x="-105" y="-34" width="436" height="489">
<path d="M-104.765 89.2987L150.165 -33.4375L330.04 332.091L75.0965 454.814L-104.765 89.2987Z" fill="white"/>
</mask>
<g mask="url(#mask13_26_3031)">
<mask id="mask14_26_3031" style="mask-type:luminance" maskUnits="userSpaceOnUse" x="-105" y="-34" width="436" height="489">
<path d="M-104.765 89.2987L150.165 -33.4375L330.04 332.091L75.0965 454.814L-104.765 89.2987Z" fill="white"/>
</mask>
<g mask="url(#mask14_26_3031)">
<mask id="mask15_26_3031" style="mask-type:luminance" maskUnits="userSpaceOnUse" x="-105" y="-34" width="436" height="489">
<path d="M-104.765 89.2987L150.165 -33.4375L330.04 332.091L75.0965 454.814L-104.765 89.2987Z" fill="white"/>
</mask>
<g mask="url(#mask15_26_3031)">
<path d="M113.83 144.335C120.807 158.526 114.914 175.585 100.661 182.446L95.8653 184.764C81.613 191.612 64.4072 185.676 57.4165 171.484C50.4393 157.293 56.3327 140.234 70.585 133.373L75.381 131.055C89.6333 124.194 106.839 130.143 113.83 144.335Z" fill="#131328"/>
</g>
</g>
</g>
</g>
<mask id="mask16_26_3031" style="mask-type:luminance" maskUnits="userSpaceOnUse" x="0" y="141" width="275" height="272">
<path d="M0.420624 141.347H274.413V412.361H0.420624V141.347Z" fill="white"/>
</mask>
<g mask="url(#mask16_26_3031)">
<mask id="mask17_26_3031" style="mask-type:luminance" maskUnits="userSpaceOnUse" x="-105" y="-34" width="436" height="489">
<path d="M-104.765 89.2987L150.165 -33.4375L330.04 332.091L75.0965 454.814L-104.765 89.2987Z" fill="white"/>
</mask>
<g mask="url(#mask17_26_3031)">
<mask id="mask18_26_3031" style="mask-type:luminance" maskUnits="userSpaceOnUse" x="-105" y="-34" width="436" height="489">
<path d="M-104.765 89.2987L150.165 -33.4375L330.04 332.091L75.0965 454.814L-104.765 89.2987Z" fill="white"/>
</mask>
<g mask="url(#mask18_26_3031)">
<mask id="mask19_26_3031" style="mask-type:luminance" maskUnits="userSpaceOnUse" x="-105" y="-34" width="436" height="489">
<path d="M-104.765 89.2987L150.165 -33.4375L330.04 332.091L75.0965 454.814L-104.765 89.2987Z" fill="white"/>
</mask>
<g mask="url(#mask19_26_3031)">
<path d="M258.182 217.489C260.12 221.442 261.867 225.475 263.412 229.589C264.97 233.717 266.298 237.898 267.436 242.159C268.574 246.407 269.495 250.695 270.199 255.037C270.904 259.379 271.405 263.734 271.676 268.116C271.961 272.498 272.015 276.88 271.866 281.276C271.703 285.658 271.337 290.026 270.755 294.381C270.159 298.723 269.359 303.038 268.343 307.3C267.327 311.574 266.108 315.782 264.672 319.923C263.249 324.077 261.61 328.138 259.781 332.117C257.939 336.111 255.92 339.997 253.698 343.776C251.476 347.568 249.078 351.227 246.491 354.778C243.903 358.329 241.153 361.746 238.226 365.016C235.3 368.299 232.225 371.421 229 374.41C225.762 377.385 222.389 380.185 218.866 382.839C215.358 385.479 211.727 387.944 207.96 390.236C204.208 392.527 200.333 394.631 196.363 396.534C192.394 398.451 188.343 400.166 184.197 401.68C180.065 403.194 175.852 404.508 171.584 405.606C167.303 406.705 162.995 407.603 158.619 408.287C154.257 408.957 149.881 409.426 145.464 409.68C141.048 409.935 136.631 409.975 132.214 409.801C127.798 409.613 123.395 409.225 119.019 408.622C114.643 408.005 110.294 407.188 105.999 406.156C101.691 405.124 97.4505 403.891 93.2642 402.444C89.0779 401.01 84.9864 399.362 80.9627 397.512C76.939 395.677 73.0101 393.64 69.1896 391.415C65.3691 389.191 61.657 386.779 58.0804 384.192C54.4902 381.606 51.0355 378.859 47.7162 375.937C44.4106 373.016 41.2404 369.947 38.2327 366.718C35.2116 363.488 32.3665 360.125 29.684 356.614C27.0015 353.116 24.4952 349.485 22.165 345.733C19.8483 341.994 17.7077 338.148 15.7704 334.195C13.8195 330.241 12.0718 326.194 10.5273 322.08C8.98289 317.953 7.64165 313.772 6.50362 309.524C5.37915 305.263 4.4579 300.974 3.73986 296.633C3.03537 292.304 2.54765 287.936 2.26314 283.554C1.97864 279.172 1.92445 274.79 2.07347 270.394C2.23605 266.012 2.60184 261.644 3.19795 257.288C3.7805 252.947 4.57983 248.632 5.59592 244.37C6.612 240.096 7.83132 235.888 9.26739 231.747C10.7035 227.606 12.3292 223.532 14.1717 219.552C16.0007 215.559 18.0329 211.673 20.2547 207.894C22.463 204.101 24.8745 200.443 27.4486 196.892C30.0363 193.341 32.7865 189.924 35.7128 186.654C38.6392 183.371 41.7145 180.248 44.9525 177.273C48.1904 174.285 51.5638 171.484 55.0727 168.831C58.5816 166.191 62.226 163.725 65.9788 161.434C69.7451 159.142 73.6062 157.039 77.5757 155.136C81.5453 153.219 85.5961 151.504 89.7417 149.99C93.8874 148.476 98.0872 147.176 102.368 146.063C106.636 144.965 110.958 144.067 115.32 143.397C119.683 142.713 124.072 142.244 128.489 141.99C132.892 141.735 137.308 141.695 141.725 141.882C146.141 142.057 150.545 142.445 154.921 143.062C159.31 143.665 163.645 144.482 167.954 145.514C172.248 146.546 176.502 147.779 180.675 149.226C184.861 150.673 188.966 152.308 192.99 154.157C197.014 155.993 200.929 158.03 204.75 160.255C208.57 162.479 212.282 164.891 215.872 167.478C219.449 170.064 222.904 172.811 226.223 175.732C229.542 178.654 232.699 181.736 235.72 184.952C238.728 188.182 241.586 191.559 244.269 195.056C246.951 198.567 249.444 202.185 251.774 205.937C254.104 209.676 256.231 213.536 258.182 217.489Z" fill="#181930"/>
</g>
</g>
</g>
</g>
<mask id="mask20_26_3031" style="mask-type:luminance" maskUnits="userSpaceOnUse" x="17" y="220" width="57" height="56">
<path d="M17.7619 220.25H73.254V275.138H17.7619V220.25Z" fill="white"/>
</mask>
<g mask="url(#mask20_26_3031)">
<mask id="mask21_26_3031" style="mask-type:luminance" maskUnits="userSpaceOnUse" x="-105" y="-34" width="436" height="489">
<path d="M-104.765 89.2987L150.165 -33.4375L330.04 332.091L75.0965 454.814L-104.765 89.2987Z" fill="white"/>
</mask>
<g mask="url(#mask21_26_3031)">
<mask id="mask22_26_3031" style="mask-type:luminance" maskUnits="userSpaceOnUse" x="-105" y="-34" width="436" height="489">
<path d="M-104.765 89.2987L150.165 -33.4375L330.04 332.091L75.0965 454.814L-104.765 89.2987Z" fill="white"/>
</mask>
<g mask="url(#mask22_26_3031)">
<mask id="mask23_26_3031" style="mask-type:luminance" maskUnits="userSpaceOnUse" x="-105" y="-34" width="436" height="489">
<path d="M-104.765 89.2987L150.165 -33.4375L330.04 332.091L75.0965 454.814L-104.765 89.2987Z" fill="white"/>
</mask>
<g mask="url(#mask23_26_3031)">
<path d="M68.5528 236.344C69.3251 237.912 69.9347 239.546 70.3818 241.235C70.8424 242.91 71.1134 244.625 71.2218 246.367C71.3437 248.109 71.2759 249.838 71.0456 251.567C70.8153 253.295 70.4089 254.984 69.8399 256.632C69.2709 258.267 68.5528 259.848 67.6722 261.349C66.7916 262.85 65.762 264.257 64.6104 265.557C63.4453 266.857 62.1718 268.036 60.7763 269.081C59.3809 270.127 57.8906 271.038 56.3191 271.788C54.7475 272.552 53.1083 273.155 51.4148 273.584C49.7077 274.026 47.9872 274.294 46.2395 274.401C44.4918 274.495 42.7441 274.428 41.01 274.187C39.2623 273.946 37.5689 273.53 35.9025 272.968C34.2496 272.391 32.651 271.668 31.1336 270.783C29.6163 269.899 28.2073 268.88 26.8931 267.715C25.579 266.549 24.3868 265.276 23.3165 263.895C22.2598 262.502 21.3385 261.014 20.5663 259.446C19.794 257.878 19.1844 256.257 18.7238 254.569C18.2767 252.88 18.0057 251.165 17.8838 249.423C17.7754 247.681 17.8432 245.952 18.0735 244.223C18.3038 242.495 18.7102 240.819 19.2792 239.171C19.8482 237.523 20.5663 235.942 21.4469 234.441C22.3275 232.94 23.3571 231.546 24.5087 230.246C25.6738 228.933 26.9473 227.767 28.3428 226.709C29.7382 225.663 31.2284 224.752 32.8 224.002C34.3715 223.238 36.0108 222.648 37.7043 222.206C39.3978 221.764 41.1319 221.496 42.8796 221.402C44.6273 221.295 46.375 221.362 48.1091 221.603C49.8568 221.844 51.5503 222.26 53.2166 222.836C54.8695 223.399 56.4546 224.136 57.9719 225.02C59.4893 225.905 60.9118 226.923 62.226 228.076C63.5401 229.241 64.7323 230.514 65.8026 231.908C66.8593 233.302 67.7806 234.776 68.5528 236.344Z" fill="white" fill-opacity="0.3"/>
</g>
</g>
</g>
</g>
<mask id="mask24_26_3031" style="mask-type:luminance" maskUnits="userSpaceOnUse" x="31" y="281" width="32" height="32">
<path d="M31.6349 282H62.8492V312.875H31.6349V282Z" fill="white"/>
</mask>
<g mask="url(#mask24_26_3031)">
<mask id="mask25_26_3031" style="mask-type:luminance" maskUnits="userSpaceOnUse" x="-105" y="-34" width="436" height="489">
<path d="M-104.765 89.2987L150.165 -33.4375L330.04 332.091L75.0965 454.814L-104.765 89.2987Z" fill="white"/>
</mask>
<g mask="url(#mask25_26_3031)">
<mask id="mask26_26_3031" style="mask-type:luminance" maskUnits="userSpaceOnUse" x="-105" y="-34" width="436" height="489">
<path d="M-104.765 89.2987L150.165 -33.4375L330.04 332.091L75.0965 454.814L-104.765 89.2987Z" fill="white"/>
</mask>
<g mask="url(#mask26_26_3031)">
<mask id="mask27_26_3031" style="mask-type:luminance" maskUnits="userSpaceOnUse" x="-105" y="-34" width="436" height="489">
<path d="M-104.765 89.2987L150.165 -33.4375L330.04 332.091L75.0965 454.814L-104.765 89.2987Z" fill="white"/>
</mask>
<g mask="url(#mask27_26_3031)">
<path d="M58.5546 291.42C59.3403 293.001 59.7874 294.676 59.8958 296.432C60.0042 298.187 59.7739 299.902 59.2049 301.564C58.6223 303.226 57.7552 304.713 56.5766 306.026C55.4115 307.34 54.0296 308.385 52.4309 309.149C50.8458 309.913 49.1659 310.341 47.3911 310.449C45.6299 310.542 43.9093 310.315 42.2294 309.725C40.5494 309.149 39.0456 308.278 37.7179 307.112C36.3902 305.933 35.3335 304.552 34.5613 302.971C33.7755 301.39 33.3284 299.715 33.22 297.959C33.1117 296.204 33.342 294.489 33.911 292.827C34.4935 291.165 35.3606 289.678 36.5393 288.364C37.7044 287.051 39.0863 286.006 40.6714 285.242C42.27 284.478 43.95 284.049 45.7112 283.942C47.4859 283.848 49.2065 284.076 50.8865 284.666C52.5664 285.242 54.0702 286.113 55.3979 287.292C56.7256 288.458 57.7823 289.839 58.5546 291.42Z" fill="white" fill-opacity="0.3"/>
</g>
</g>
</g>
</g>
<mask id="mask28_26_3031" style="mask-type:luminance" maskUnits="userSpaceOnUse" x="73" y="144" width="202" height="269">
<path d="M73.254 144.777H274.413V412.361H73.254V144.777Z" fill="white"/>
</mask>
<g mask="url(#mask28_26_3031)">
<mask id="mask29_26_3031" style="mask-type:luminance" maskUnits="userSpaceOnUse" x="-105" y="-34" width="436" height="489">
<path d="M-104.765 89.2989L150.165 -33.4373L330.04 332.091L75.0965 454.814L-104.765 89.2989Z" fill="white"/>
</mask>
<g mask="url(#mask29_26_3031)">
<mask id="mask30_26_3031" style="mask-type:luminance" maskUnits="userSpaceOnUse" x="-105" y="-34" width="436" height="489">
<path d="M-104.765 89.2989L150.165 -33.4373L330.04 332.091L75.0965 454.814L-104.765 89.2989Z" fill="white"/>
</mask>
<g mask="url(#mask30_26_3031)">
<mask id="mask31_26_3031" style="mask-type:luminance" maskUnits="userSpaceOnUse" x="-105" y="-34" width="436" height="489">
<path d="M-104.765 89.2989L150.165 -33.4373L330.04 332.091L75.0965 454.814L-104.765 89.2989Z" fill="white"/>
</mask>
<g mask="url(#mask31_26_3031)">
<path d="M176.218 147.779C191.31 189.978 191.798 236.505 177.125 279.011C160.028 328.567 123.327 369.734 75.8687 392.582C75.0423 392.984 74.2023 393.359 73.3624 393.747C110.321 413.513 155.882 416.033 196.363 396.548C263.303 364.32 290.982 284.144 258.182 217.489C241.031 182.648 210.765 158.393 176.218 147.779Z" fill="#131328"/>
</g>
</g>
</g>
</g>
</g>
<defs>
<clipPath id="clip0_26_3031">
<rect width="273.992" height="411.667" fill="white" transform="translate(0.420624 0.694092)"/>
</clipPath>
</defs>
</svg>