<svg xmlns="http://www.w3.org/2000/svg" xmlns:xlink="http://www.w3.org/1999/xlink" width="336" zoomAndPan="magnify" viewBox="0 0 252 143.999998" height="192" preserveAspectRatio="xMidYMid meet" version="1.0"><defs><clipPath id="9f53607e21"><path d="M 107 11 L 149 11 L 149 51 L 107 51 Z M 107 11 " clip-rule="nonzero"/></clipPath><clipPath id="1e70c5b239"><path d="M 66.671875 36.828125 L 140.175781 1.050781 L 192.039062 107.601562 L 118.53125 143.375 Z M 66.671875 36.828125 " clip-rule="nonzero"/></clipPath><clipPath id="8c88882bba"><path d="M 66.671875 36.828125 L 140.175781 1.050781 L 192.039062 107.601562 L 118.53125 143.375 Z M 66.671875 36.828125 " clip-rule="nonzero"/></clipPath><clipPath id="0c68d9ca89"><path d="M 66.671875 36.828125 L 140.175781 1.050781 L 192.039062 107.601562 L 118.53125 143.375 Z M 66.671875 36.828125 " clip-rule="nonzero"/></clipPath><clipPath id="e0ff9ba71c"><path d="M 118 20 L 138 20 L 138 39 L 118 39 Z M 118 20 " clip-rule="nonzero"/></clipPath><clipPath id="05418dc253"><path d="M 66.671875 36.828125 L 140.175781 1.050781 L 192.039062 107.601562 L 118.53125 143.375 Z M 66.671875 36.828125 " clip-rule="nonzero"/></clipPath><clipPath id="1aac656eb1"><path d="M 66.671875 36.828125 L 140.175781 1.050781 L 192.039062 107.601562 L 118.53125 143.375 Z M 66.671875 36.828125 " clip-rule="nonzero"/></clipPath><clipPath id="d135671b57"><path d="M 66.671875 36.828125 L 140.175781 1.050781 L 192.039062 107.601562 L 118.53125 143.375 Z M 66.671875 36.828125 " clip-rule="nonzero"/></clipPath><clipPath id="93c4562aca"><path d="M 116 27 L 132 27 L 132 54 L 116 54 Z M 116 27 " clip-rule="nonzero"/></clipPath><clipPath id="0b4500e881"><path d="M 66.671875 36.828125 L 140.175781 1.050781 L 192.039062 107.601562 L 118.53125 143.375 Z M 66.671875 36.828125 " clip-rule="nonzero"/></clipPath><clipPath id="063c85a3b2"><path d="M 66.671875 36.828125 L 140.175781 1.050781 L 192.039062 107.601562 L 118.53125 143.375 Z M 66.671875 36.828125 " clip-rule="nonzero"/></clipPath><clipPath id="de6a151639"><path d="M 66.671875 36.828125 L 140.175781 1.050781 L 192.039062 107.601562 L 118.53125 143.375 Z M 66.671875 36.828125 " clip-rule="nonzero"/></clipPath><clipPath id="b068647285"><path d="M 112 48 L 131 48 L 131 66 L 112 66 Z M 112 48 " clip-rule="nonzero"/></clipPath><clipPath id="48cd045e06"><path d="M 66.671875 36.828125 L 140.175781 1.050781 L 192.039062 107.601562 L 118.53125 143.375 Z M 66.671875 36.828125 " clip-rule="nonzero"/></clipPath><clipPath id="5783fe8177"><path d="M 66.671875 36.828125 L 140.175781 1.050781 L 192.039062 107.601562 L 118.53125 143.375 Z M 66.671875 36.828125 " clip-rule="nonzero"/></clipPath><clipPath id="4f9a0f2446"><path d="M 66.671875 36.828125 L 140.175781 1.050781 L 192.039062 107.601562 L 118.53125 143.375 Z M 66.671875 36.828125 " clip-rule="nonzero"/></clipPath><clipPath id="56c791fc8b"><path d="M 97 52 L 176 52 L 176 131 L 97 131 Z M 97 52 " clip-rule="nonzero"/></clipPath><clipPath id="c433ddd11a"><path d="M 66.671875 36.828125 L 140.175781 1.050781 L 192.039062 107.601562 L 118.53125 143.375 Z M 66.671875 36.828125 " clip-rule="nonzero"/></clipPath><clipPath id="674365c28c"><path d="M 66.671875 36.828125 L 140.175781 1.050781 L 192.039062 107.601562 L 118.53125 143.375 Z M 66.671875 36.828125 " clip-rule="nonzero"/></clipPath><clipPath id="0935514199"><path d="M 66.671875 36.828125 L 140.175781 1.050781 L 192.039062 107.601562 L 118.53125 143.375 Z M 66.671875 36.828125 " clip-rule="nonzero"/></clipPath><clipPath id="2451277b0e"><path d="M 102 75 L 118 75 L 118 91 L 102 91 Z M 102 75 " clip-rule="nonzero"/></clipPath><clipPath id="d8c56f79ee"><path d="M 66.671875 36.828125 L 140.175781 1.050781 L 192.039062 107.601562 L 118.53125 143.375 Z M 66.671875 36.828125 " clip-rule="nonzero"/></clipPath><clipPath id="dee2772196"><path d="M 66.671875 36.828125 L 140.175781 1.050781 L 192.039062 107.601562 L 118.53125 143.375 Z M 66.671875 36.828125 " clip-rule="nonzero"/></clipPath><clipPath id="7e8bdca87d"><path d="M 66.671875 36.828125 L 140.175781 1.050781 L 192.039062 107.601562 L 118.53125 143.375 Z M 66.671875 36.828125 " clip-rule="nonzero"/></clipPath><clipPath id="dc4c08d1d9"><path d="M 106 93 L 115 93 L 115 102 L 106 102 Z M 106 93 " clip-rule="nonzero"/></clipPath><clipPath id="75463b46d2"><path d="M 66.671875 36.828125 L 140.175781 1.050781 L 192.039062 107.601562 L 118.53125 143.375 Z M 66.671875 36.828125 " clip-rule="nonzero"/></clipPath><clipPath id="85cb536ca8"><path d="M 66.671875 36.828125 L 140.175781 1.050781 L 192.039062 107.601562 L 118.53125 143.375 Z M 66.671875 36.828125 " clip-rule="nonzero"/></clipPath><clipPath id="2f2a9905ba"><path d="M 66.671875 36.828125 L 140.175781 1.050781 L 192.039062 107.601562 L 118.53125 143.375 Z M 66.671875 36.828125 " clip-rule="nonzero"/></clipPath><clipPath id="8d51f6ecac"><path d="M 118 53 L 176 53 L 176 131 L 118 131 Z M 118 53 " clip-rule="nonzero"/></clipPath><clipPath id="3b73243632"><path d="M 66.671875 36.828125 L 140.175781 1.050781 L 192.039062 107.601562 L 118.53125 143.375 Z M 66.671875 36.828125 " clip-rule="nonzero"/></clipPath><clipPath id="1312e459ca"><path d="M 66.671875 36.828125 L 140.175781 1.050781 L 192.039062 107.601562 L 118.53125 143.375 Z M 66.671875 36.828125 " clip-rule="nonzero"/></clipPath><clipPath id="f20ecb3825"><path d="M 66.671875 36.828125 L 140.175781 1.050781 L 192.039062 107.601562 L 118.53125 143.375 Z M 66.671875 36.828125 " clip-rule="nonzero"/></clipPath></defs><g clip-path="url(#9f53607e21)"><g clip-path="url(#1e70c5b239)"><g clip-path="url(#8c88882bba)"><g clip-path="url(#0c68d9ca89)"><path fill="#f8b051" d="M 137.164062 27.851562 L 146.15625 13.351562 L 134.109375 19.3125 L 132.730469 11.484375 L 128.71875 20.457031 L 119.472656 13.25 L 119.453125 20.035156 L 107.871094 16.796875 L 116.507812 26.648438 L 109.261719 32.566406 L 119.445312 34.996094 L 112.289062 45.347656 L 121.21875 40.269531 L 124.453125 48.390625 L 129.21875 41.871094 L 133.714844 50.109375 L 132.074219 38.441406 L 148.953125 43.5 L 139.355469 32.289062 L 142.300781 31.277344 Z M 137.164062 27.851562 " fill-opacity="1" fill-rule="nonzero"/></g></g></g></g><g clip-path="url(#e0ff9ba71c)"><g clip-path="url(#05418dc253)"><g clip-path="url(#1aac656eb1)"><g clip-path="url(#d135671b57)"><path fill="#e83c37" d="M 131.847656 28.152344 L 135.75 23.101562 L 131.699219 23.792969 L 131.246094 20.878906 L 127.761719 24.574219 L 123.289062 21.085938 L 123.28125 24.371094 L 119.679688 23.492188 L 123.273438 26.851562 L 123.273438 27.078125 L 118.347656 30.433594 L 121.699219 31.554688 L 121.347656 35.714844 L 124.042969 32.765625 L 124.015625 32.332031 L 125.625 38.125 L 128.003906 34.933594 L 129.34375 36.316406 L 129.386719 33.277344 L 134.929688 34.164062 L 132.910156 30.300781 L 137.847656 30.484375 Z M 131.847656 28.152344 " fill-opacity="1" fill-rule="nonzero"/></g></g></g></g><g clip-path="url(#93c4562aca)"><g clip-path="url(#0b4500e881)"><g clip-path="url(#063c85a3b2)"><g clip-path="url(#de6a151639)"><path fill="#bad5f1" d="M 126.644531 30.433594 C 129.007812 35.445312 126.355469 38.855469 121.980469 41.328125 C 119.945312 42.476562 118.398438 43.203125 117.378906 45.40625 C 116.535156 47.230469 117.195312 49.953125 117.492188 51.828125 C 117.847656 54.097656 121.320312 53.445312 120.96875 51.1875 C 120.785156 50.011719 120.601562 48.859375 120.589844 47.667969 C 120.570312 45.578125 122.746094 44.96875 124.253906 44.121094 C 126.179688 43.03125 127.84375 41.625 129.253906 39.921875 C 131.917969 36.699219 131.503906 32.453125 129.820312 28.886719 C 128.84375 26.8125 125.671875 28.359375 126.644531 30.433594 Z M 126.644531 30.433594 " fill-opacity="1" fill-rule="nonzero"/></g></g></g></g><g clip-path="url(#b068647285)"><g clip-path="url(#48cd045e06)"><g clip-path="url(#5783fe8177)"><g clip-path="url(#4f9a0f2446)"><path fill="#131328" d="M 129.699219 52.871094 C 131.710938 57.007812 130.011719 61.980469 125.902344 63.980469 L 124.519531 64.65625 C 120.410156 66.652344 115.449219 64.921875 113.433594 60.785156 C 111.421875 56.648438 113.121094 51.675781 117.230469 49.675781 L 118.613281 49 C 122.722656 47 127.683594 48.734375 129.699219 52.871094 Z M 129.699219 52.871094 " fill-opacity="1" fill-rule="nonzero"/></g></g></g></g><g clip-path="url(#56c791fc8b)"><g clip-path="url(#c433ddd11a)"><g clip-path="url(#674365c28c)"><g clip-path="url(#0935514199)"><path fill="#181930" d="M 171.320312 74.195312 C 171.878906 75.347656 172.382812 76.523438 172.828125 77.722656 C 173.277344 78.925781 173.660156 80.144531 173.988281 81.386719 C 174.316406 82.625 174.582031 83.875 174.785156 85.140625 C 174.988281 86.40625 175.132812 87.675781 175.210938 88.953125 C 175.292969 90.230469 175.308594 91.507812 175.265625 92.789062 C 175.21875 94.066406 175.113281 95.339844 174.945312 96.609375 C 174.773438 97.875 174.542969 99.132812 174.25 100.375 C 173.957031 101.621094 173.605469 102.847656 173.191406 104.054688 C 172.78125 105.265625 172.308594 106.449219 171.78125 107.609375 C 171.25 108.773438 170.667969 109.90625 170.027344 111.007812 C 169.386719 112.113281 168.695312 113.179688 167.949219 114.214844 C 167.203125 115.25 166.410156 116.246094 165.566406 117.199219 C 164.722656 118.15625 163.835938 119.066406 162.90625 119.9375 C 161.972656 120.804688 161 121.621094 159.984375 122.394531 C 158.972656 123.164062 157.925781 123.882812 156.839844 124.550781 C 155.757812 125.21875 154.640625 125.832031 153.496094 126.386719 C 152.351562 126.945312 151.183594 127.445312 149.988281 127.886719 C 148.796875 128.328125 147.582031 128.710938 146.351562 129.03125 C 145.117188 129.351562 143.875 129.613281 142.613281 129.8125 C 141.355469 130.007812 140.09375 130.144531 138.820312 130.21875 C 137.546875 130.292969 136.273438 130.304688 135 130.253906 C 133.726562 130.199219 132.457031 130.085938 131.195312 129.910156 C 129.933594 129.730469 128.679688 129.492188 127.441406 129.191406 C 126.199219 128.890625 124.976562 128.53125 123.769531 128.109375 C 122.5625 127.691406 121.382812 127.210938 120.222656 126.671875 C 119.0625 126.136719 117.929688 125.542969 116.828125 124.894531 C 115.726562 124.246094 114.65625 123.542969 113.625 122.789062 C 112.589844 122.035156 111.59375 121.234375 110.636719 120.382812 C 109.683594 119.53125 108.769531 118.636719 107.902344 117.695312 C 107.03125 116.753906 106.210938 115.773438 105.4375 114.75 C 104.664062 113.730469 103.941406 112.671875 103.269531 111.578125 C 102.601562 110.488281 101.984375 109.367188 101.425781 108.214844 C 100.863281 107.0625 100.359375 105.882812 99.914062 104.683594 C 99.46875 103.480469 99.082031 102.261719 98.753906 101.023438 C 98.429688 99.78125 98.164062 98.53125 97.957031 97.265625 C 97.753906 96.003906 97.613281 94.730469 97.53125 93.453125 C 97.449219 92.175781 97.433594 90.898438 97.476562 89.617188 C 97.523438 88.339844 97.628906 87.066406 97.800781 85.796875 C 97.96875 84.53125 98.199219 83.273438 98.492188 82.03125 C 98.785156 80.785156 99.136719 79.558594 99.550781 78.351562 C 99.964844 77.144531 100.433594 75.957031 100.964844 74.796875 C 101.492188 73.632812 102.078125 72.5 102.71875 71.398438 C 103.355469 70.292969 104.050781 69.226562 104.792969 68.191406 C 105.539062 67.15625 106.332031 66.160156 107.175781 65.207031 C 108.019531 64.25 108.90625 63.339844 109.839844 62.472656 C 110.773438 61.601562 111.746094 60.785156 112.757812 60.011719 C 113.769531 59.242188 114.820312 58.523438 115.902344 57.855469 C 116.988281 57.1875 118.101562 56.574219 119.246094 56.019531 C 120.390625 55.460938 121.558594 54.960938 122.753906 54.519531 C 123.949219 54.078125 125.160156 53.699219 126.394531 53.375 C 127.625 53.054688 128.871094 52.792969 130.128906 52.597656 C 131.386719 52.398438 132.652344 52.261719 133.925781 52.1875 C 135.195312 52.113281 136.46875 52.101562 137.742188 52.15625 C 139.015625 52.207031 140.285156 52.320312 141.546875 52.5 C 142.8125 52.675781 144.0625 52.914062 145.304688 53.214844 C 146.542969 53.515625 147.769531 53.875 148.972656 54.296875 C 150.179688 54.71875 151.363281 55.195312 152.523438 55.734375 C 153.683594 56.269531 154.8125 56.863281 155.914062 57.511719 C 157.015625 58.160156 158.085938 58.863281 159.121094 59.617188 C 160.152344 60.371094 161.148438 61.171875 162.105469 62.023438 C 163.0625 62.875 163.972656 63.773438 164.84375 64.710938 C 165.710938 65.652344 166.535156 66.636719 167.308594 67.65625 C 168.082031 68.679688 168.800781 69.734375 169.472656 70.828125 C 170.144531 71.917969 170.757812 73.042969 171.320312 74.195312 Z M 171.320312 74.195312 " fill-opacity="1" fill-rule="nonzero"/></g></g></g></g><g clip-path="url(#2451277b0e)"><g clip-path="url(#d8c56f79ee)"><g clip-path="url(#dee2772196)"><g clip-path="url(#7e8bdca87d)"><path fill="#ffffff" d="M 116.644531 79.691406 C 116.867188 80.148438 117.042969 80.625 117.171875 81.117188 C 117.304688 81.605469 117.382812 82.105469 117.414062 82.613281 C 117.449219 83.121094 117.429688 83.625 117.363281 84.128906 C 117.296875 84.632812 117.179688 85.125 117.015625 85.605469 C 116.851562 86.082031 116.644531 86.542969 116.390625 86.980469 C 116.136719 87.417969 115.839844 87.828125 115.507812 88.207031 C 115.171875 88.585938 114.804688 88.929688 114.402344 89.234375 C 114 89.539062 113.570312 89.804688 113.117188 90.023438 C 112.664062 90.246094 112.191406 90.421875 111.703125 90.546875 C 111.210938 90.675781 110.714844 90.753906 110.210938 90.785156 C 109.707031 90.8125 109.203125 90.792969 108.703125 90.722656 C 108.199219 90.652344 107.710938 90.53125 107.230469 90.367188 C 106.753906 90.199219 106.292969 89.988281 105.855469 89.730469 C 105.417969 89.472656 105.011719 89.175781 104.632812 88.835938 C 104.253906 88.496094 103.910156 88.125 103.601562 87.722656 C 103.296875 87.316406 103.03125 86.882812 102.808594 86.425781 C 102.585938 85.96875 102.410156 85.496094 102.277344 85.003906 C 102.148438 84.511719 102.070312 84.011719 102.035156 83.503906 C 102.003906 82.996094 102.023438 82.492188 102.089844 81.988281 C 102.15625 81.484375 102.273438 80.996094 102.4375 80.515625 C 102.601562 80.035156 102.808594 79.574219 103.0625 79.136719 C 103.316406 78.699219 103.613281 78.292969 103.945312 77.914062 C 104.28125 77.53125 104.648438 77.191406 105.050781 76.882812 C 105.453125 76.578125 105.882812 76.3125 106.335938 76.09375 C 106.789062 75.871094 107.261719 75.699219 107.75 75.570312 C 108.238281 75.441406 108.738281 75.363281 109.242188 75.335938 C 109.746094 75.304688 110.25 75.324219 110.75 75.394531 C 111.253906 75.464844 111.742188 75.585938 112.222656 75.753906 C 112.699219 75.917969 113.15625 76.132812 113.59375 76.390625 C 114.03125 76.648438 114.441406 76.945312 114.820312 77.28125 C 115.199219 77.621094 115.542969 77.992188 115.851562 78.398438 C 116.15625 78.804688 116.421875 79.234375 116.644531 79.691406 Z M 116.644531 79.691406 " fill-opacity="0.3" fill-rule="nonzero"/></g></g></g></g><g clip-path="url(#dc4c08d1d9)"><g clip-path="url(#75463b46d2)"><g clip-path="url(#85cb536ca8)"><g clip-path="url(#2f2a9905ba)"><path fill="#ffffff" d="M 113.761719 95.746094 C 113.988281 96.207031 114.117188 96.695312 114.148438 97.207031 C 114.179688 97.71875 114.113281 98.21875 113.949219 98.703125 C 113.78125 99.1875 113.53125 99.621094 113.191406 100.003906 C 112.855469 100.386719 112.457031 100.691406 111.996094 100.914062 C 111.539062 101.136719 111.054688 101.261719 110.542969 101.292969 C 110.035156 101.320312 109.539062 101.253906 109.054688 101.082031 C 108.570312 100.914062 108.136719 100.660156 107.753906 100.320312 C 107.371094 99.976562 107.066406 99.574219 106.84375 99.113281 C 106.617188 98.652344 106.488281 98.164062 106.457031 97.652344 C 106.425781 97.140625 106.492188 96.640625 106.65625 96.15625 C 106.824219 95.671875 107.074219 95.238281 107.414062 94.855469 C 107.75 94.472656 108.148438 94.167969 108.605469 93.945312 C 109.066406 93.722656 109.550781 93.597656 110.058594 93.566406 C 110.570312 93.539062 111.066406 93.605469 111.550781 93.777344 C 112.035156 93.945312 112.46875 94.199219 112.851562 94.542969 C 113.234375 94.882812 113.539062 95.285156 113.761719 95.746094 Z M 113.761719 95.746094 " fill-opacity="0.3" fill-rule="nonzero"/></g></g></g></g><g clip-path="url(#8d51f6ecac)"><g clip-path="url(#3b73243632)"><g clip-path="url(#1312e459ca)"><g clip-path="url(#f20ecb3825)"><path fill="#131328" d="M 147.6875 53.875 C 152.039062 66.175781 152.179688 79.738281 147.949219 92.128906 C 143.019531 106.574219 132.4375 118.574219 118.753906 125.234375 C 118.515625 125.351562 118.273438 125.460938 118.03125 125.574219 C 128.6875 131.335938 141.824219 132.070312 153.496094 126.390625 C 172.796875 116.996094 180.777344 93.625 171.320312 74.195312 C 166.375 64.039062 157.648438 56.96875 147.6875 53.875 Z M 147.6875 53.875 " fill-opacity="1" fill-rule="nonzero"/></g></g></g></g></svg>