<svg width="1103" height="904" viewBox="0 0 1103 904" fill="none" xmlns="http://www.w3.org/2000/svg">
<g clip-path="url(#clip0_195_310)">
<path d="M577.512 89.5054L454.654 323.604L330.084 213.476L331.509 374.096L63.2042 292.887L256.781 444.683L136.921 497.52L280.426 537.588L74.5444 638.855L331.452 623.882L338.678 778.918L451.024 639.938L538.701 718.897L573.388 653.093L717.605 736.553L697.062 643.309L964.482 750.15L773.525 593.015L952.774 508.632L760.932 484.167L939.182 351.392L674.852 387.204L744.456 222.488L597.079 315.242L577.512 89.5054Z" fill="#FFF466"/>
<g filter="url(#filter0_d_195_310)">
<mask id="mask0_195_310" style="mask-type:luminance" maskUnits="userSpaceOnUse" x="73" y="381" width="61" height="58">
<path d="M73.9817 381.485H133.982V438.141H73.9817V381.485Z" fill="white"/>
</mask>
<g mask="url(#mask0_195_310)">
<path d="M109.982 435.588L98.2395 418.822L79.1145 425.158L90.9739 408.464L79.2317 391.699L98.3333 398.154L110.193 381.485L110.122 402.153L129.2 408.633L110.075 414.92L109.982 435.588Z" fill="#FFF000"/>
</g>
</g>
<mask id="mask1_195_310" style="mask-type:luminance" maskUnits="userSpaceOnUse" x="0" y="21" width="1066" height="811">
<path d="M0 21.2158H1065.5V831.2H0V21.2158Z" fill="white"/>
</mask>
<g mask="url(#mask1_195_310)">
<path d="M577.512 89.5054L454.654 323.604L330.084 213.476L331.509 374.096L63.2042 292.887L256.781 444.683L136.921 497.52L280.426 537.588L74.5445 638.855L331.452 623.882L338.678 778.918L451.024 639.938L538.701 718.896L573.388 653.093L717.605 736.553L697.061 643.309L964.482 750.15L773.525 593.014L952.774 508.632L760.932 484.167L939.181 351.392L674.852 387.204L744.456 222.488L597.079 315.242L577.512 89.5054Z" stroke="black" stroke-width="7.65347" stroke-miterlimit="7"/>
<g filter="url(#filter1_d_195_310)">
<mask id="mask2_195_310" style="mask-type:luminance" maskUnits="userSpaceOnUse" x="944" y="569" width="61" height="57">
<path d="M944.213 569.015H1004.21V625.671H944.213V569.015Z" fill="white"/>
</mask>
<g mask="url(#mask2_195_310)">
<path d="M980.213 623.118L968.47 606.352L949.345 612.687L961.205 595.994L949.463 579.228L968.564 585.684L980.424 569.015L980.353 589.683L999.431 596.162L980.306 602.45L980.213 623.118Z" fill="#FFF000"/>
</g>
</g>
<g filter="url(#filter2_d_195_310)">
<mask id="mask3_195_310" style="mask-type:luminance" maskUnits="userSpaceOnUse" x="771" y="282" width="61" height="58">
<path d="M771.227 282.648H831.227V339.304H771.227V282.648Z" fill="white"/>
</mask>
<g mask="url(#mask3_195_310)">
<path d="M807.227 336.751L795.485 319.985L776.36 326.32L788.219 309.627L776.477 292.861L795.578 299.317L807.438 282.648L807.367 303.316L826.446 309.796L807.321 316.083L807.227 336.751Z" fill="#FFF000"/>
</g>
</g>
</g>
<mask id="mask4_195_310" style="mask-type:luminance" maskUnits="userSpaceOnUse" x="585" y="21" width="45" height="288">
<path d="M585.325 21.2158H629.445V308.565H585.325V21.2158Z" fill="white"/>
</mask>
<g mask="url(#mask4_195_310)">
<path d="M600.744 21.2158L585.693 55.1723L598.584 306.334L628.549 289.996L600.744 21.2158Z" fill="#FFBD59"/>
</g>
<path d="M996.078 336.618L969.33 338.134L771.227 484.073L805.719 492.727L996.078 336.618Z" fill="#FFBD59"/>
<path d="M1004.21 507.153L981.348 502.944L784.957 596.584L816.484 611.019L1004.21 507.153Z" fill="#FFBD59"/>
<mask id="mask5_195_310" style="mask-type:luminance" maskUnits="userSpaceOnUse" x="800" y="578" width="266" height="223">
<path d="M800.043 578.56H1065.5V800.341H800.043V578.56Z" fill="white"/>
</mask>
<g mask="url(#mask5_195_310)">
<path d="M1011.97 777.016L1065.51 799.71L814.037 578.635L802.869 606.669L1011.97 777.016Z" fill="#FFBD59"/>
</g>
<mask id="mask6_195_310" style="mask-type:luminance" maskUnits="userSpaceOnUse" x="708" y="650" width="358" height="151">
<path d="M708.861 650.88H1065.5V800.341H708.861V650.88Z" fill="white"/>
</mask>
<g mask="url(#mask6_195_310)">
<path d="M1065.49 799.72L947.902 750.264L709.677 652.613L712.481 682.068L1065.49 799.72Z" fill="#FFBD59"/>
</g>
<path d="M731.059 752.91L749.316 775.858L742.158 667.689L696.924 646.595L731.059 752.91Z" fill="#FFBD59"/>
<mask id="mask7_195_310" style="mask-type:luminance" maskUnits="userSpaceOnUse" x="326" y="660" width="154" height="172">
<path d="M326.488 660.523H479.437V831.2H326.488V660.523Z" fill="white"/>
</mask>
<g mask="url(#mask7_195_310)">
<path d="M328.051 783.815L332.175 831.416L478.656 683.038L440.097 661.559L328.051 783.815Z" fill="#FFBD59"/>
</g>
<path d="M48.7158 641.925L1.13745 663.065L330.337 654.891L330.165 627.301L48.7158 641.925Z" fill="#FFBD59"/>
<path d="M543.204 734.566L554.533 755.848L598.596 668.715L577.34 657.076L543.204 734.566Z" fill="#FFBD59"/>
<path d="M554.545 755.819L533.657 722.503L451.587 652.114L430.032 665.711L554.545 755.819Z" fill="#FFBD59"/>
<path d="M749.316 775.839L735.713 748.936L582.66 666.013L559.324 682.049L749.316 775.839Z" fill="#FFBD59"/>
<path d="M783.463 187.015L764.241 199.341L684.676 389.502L720.018 383.729L783.463 187.015Z" fill="#FFBD59"/>
<mask id="mask8_195_310" style="mask-type:luminance" maskUnits="userSpaceOnUse" x="285" y="320" width="433" height="327">
<path d="M285.309 320.619H717.685V646.059H285.309V320.619Z" fill="white"/>
</mask>
<g mask="url(#mask8_195_310)">
<mask id="mask9_195_310" style="mask-type:luminance" maskUnits="userSpaceOnUse" x="233" y="278" width="534" height="415">
<path d="M338.805 278.922L766.999 373.286L662.179 692.803L233.974 598.439L338.805 278.922Z" fill="white"/>
</mask>
<g mask="url(#mask9_195_310)">
<mask id="mask10_195_310" style="mask-type:luminance" maskUnits="userSpaceOnUse" x="233" y="278" width="534" height="415">
<path d="M338.805 278.922L766.999 373.286L662.179 692.803L233.974 598.439L338.805 278.922Z" fill="white"/>
</mask>
<g mask="url(#mask10_195_310)">
<mask id="mask11_195_310" style="mask-type:luminance" maskUnits="userSpaceOnUse" x="233" y="278" width="534" height="415">
<path d="M338.805 278.922L766.999 373.286L662.179 692.803L233.974 598.439L338.805 278.922Z" fill="white"/>
</mask>
<g mask="url(#mask11_195_310)">
<mask id="mask12_195_310" style="mask-type:luminance" maskUnits="userSpaceOnUse" x="238" y="288" width="526" height="391">
<path d="M335.886 288.63L763.77 382.929L666.844 678.358L238.96 584.05L335.886 288.63Z" fill="white"/>
</mask>
<g mask="url(#mask12_195_310)">
<mask id="mask13_195_310" style="mask-type:luminance" maskUnits="userSpaceOnUse" x="238" y="288" width="526" height="391">
<path d="M335.886 288.63L763.586 382.891L666.66 678.311L238.96 584.05L335.886 288.63Z" fill="white"/>
</mask>
<g mask="url(#mask13_195_310)">
<path d="M649.299 528.369C641.28 529.254 632.789 530.45 625.55 533.558C623.08 534.631 620.759 536.044 619.3 538.021C618.186 539.528 617.427 541.317 616.853 543.153C616.336 544.604 615.796 546.402 615.922 546.562C615.773 547.212 615.623 547.843 615.474 548.455C613.934 554.774 616.175 561.685 618.346 567.721C622.529 579.398 628.733 590.642 635.535 601.508C628.48 597.732 621.276 594.135 613.992 590.679C605.019 586.432 595.838 582.44 586.302 579.087C578.627 576.385 570.297 573.776 561.852 573.503C554.706 573.277 549.535 576.385 545.296 580.867C539.654 586.818 536.058 594.088 532.956 601.122C527.705 613.044 523.764 625.483 520.673 637.932C516.25 628.016 510.988 618.289 505.197 608.863C500.555 601.311 495.431 593.872 489.192 587.11C484.654 582.176 478.84 576.62 471.291 574.869C463.789 573.136 455.148 575.773 448.301 578.099C438.753 581.338 429.791 585.736 421.151 590.34C410.373 596.084 399.895 602.356 390.002 609.108C393.265 601.075 395.989 592.883 398.516 584.7C400.906 576.997 402.882 569.162 403.698 561.233C404.353 554.915 404.548 547.702 400.837 541.929C397.597 536.901 390.255 534.838 383.97 533.454C374.583 531.383 364.725 530.686 355.063 530.253C341.022 529.622 326.913 529.782 312.873 530.422C318.813 527.249 324.627 523.925 330.314 520.478C338.242 515.676 345.986 510.553 352.788 504.677C355.603 502.238 358.234 499.63 360.371 496.757C361.704 494.968 362.588 493.057 363.324 491.089C363.37 491.757 365.346 485.316 365.15 485.476C365.736 483.433 366.001 481.502 365.231 479.384C364.312 476.907 362.404 474.694 360.451 472.707C354.913 467.057 347.652 462.509 340.54 458.281C329.441 451.68 317.664 445.813 305.657 440.361C311.494 440.427 317.342 440.399 323.179 440.295C333.221 440.126 343.286 439.655 353.247 438.562C361.278 437.677 369.758 436.481 377.008 433.364C379.478 432.3 381.787 430.888 383.247 428.91C384.361 427.404 385.119 425.615 385.705 423.778C386.222 422.328 386.762 420.53 386.624 420.369C386.785 419.72 386.935 419.089 387.084 418.477C388.624 412.158 386.372 405.246 384.212 399.201C380.029 387.534 373.814 376.29 367.012 365.423C374.066 369.199 381.27 372.796 388.555 376.243C397.528 380.499 406.72 384.492 416.245 387.844C423.92 390.547 432.25 393.155 440.694 393.428C447.841 393.654 453.023 390.537 457.251 386.065C462.892 380.113 466.5 372.834 469.591 365.809C474.853 353.888 478.794 341.448 481.873 328.99C486.308 338.915 491.559 348.633 497.35 358.059C502.003 365.621 507.127 373.06 513.355 379.821C517.904 384.756 523.718 390.311 531.267 392.054C538.896 393.654 547.26 391.206 554.246 388.833C563.794 385.594 572.767 381.196 581.407 376.591C592.185 370.847 602.663 364.576 612.544 357.824C609.281 365.856 606.57 374.039 604.03 382.232C601.641 389.935 599.676 397.769 598.849 405.698C598.194 412.007 597.998 419.23 601.71 424.993C604.95 430.031 612.291 432.084 618.588 433.477C627.975 435.54 637.821 436.237 647.495 436.679C661.524 437.31 675.633 437.15 689.685 436.51C683.745 439.683 677.92 443.007 672.244 446.454C664.305 451.256 656.561 456.379 649.759 462.255C646.944 464.684 644.313 467.302 642.176 470.165C640.843 471.963 639.958 473.875 639.234 475.834C639.189 475.174 637.212 481.625 637.396 481.455C636.822 483.499 636.546 485.429 637.327 487.548C638.235 490.025 640.142 492.237 642.107 494.224C647.645 499.865 654.895 504.423 662.007 508.651C673.106 515.252 684.883 521.118 696.901 526.571C691.053 526.505 685.204 526.533 679.368 526.637C669.326 526.806 659.261 527.267 649.299 528.369ZM716.134 527.164C705.162 522.691 694.465 517.728 683.998 512.521C675.415 508.236 666.993 503.698 659.054 498.66C652.643 494.592 646.036 490.072 641.682 484.393C640.269 482.557 639.189 480.495 639.028 478.31C639.533 477.538 640.073 476.785 640.648 476.05C645.519 469.835 652.574 464.722 659.433 460.032C672.118 451.36 685.997 443.789 700.164 436.858C700.888 436.51 701.6 436.152 702.335 435.813C702.921 435.53 703.323 432.912 703.484 432.413C703.507 432.347 703.599 432.008 703.726 431.566C704.001 430.709 704.289 429.861 704.564 429.005C691.972 429.909 679.276 430.248 666.637 430.229C656.274 430.219 645.887 429.899 635.592 428.882C627.285 428.063 618.484 426.895 611.016 423.656C604.697 420.925 602.123 416.104 601.192 410.491C599.963 403.015 601.296 395.246 602.916 387.891C603.801 383.889 604.892 379.925 606.122 375.989C606.167 375.838 606.351 375.311 606.432 375.066C606.73 374.209 607.041 373.343 607.351 372.486C607.948 370.838 608.569 369.19 609.201 367.551C610.556 364.077 611.958 360.611 613.521 357.193C613.532 357.174 613.532 357.165 613.544 357.155C614.038 356.063 614.337 354.877 614.704 353.756C614.739 353.643 614.773 353.464 614.819 353.247C615.141 352.278 615.463 351.308 615.773 350.347C615.554 350.827 615.348 351.308 615.129 351.788C615.29 351.138 615.497 350.535 615.773 350.347C605.593 357.353 594.77 363.822 583.636 369.783C574.996 374.407 566.011 378.738 556.487 382.025C549.535 384.426 541.102 386.837 533.496 385.245C525.913 383.494 520.179 377.938 515.584 373.013C509.31 366.29 504.243 358.794 499.59 351.251C493.581 341.543 488.192 331.476 483.677 321.231C483.803 321.504 483.62 322.097 483.367 322.728C483.47 322.229 483.574 321.73 483.677 321.231C483.355 322.201 483.045 323.171 482.723 324.141C482.631 324.338 482.563 324.508 482.517 324.63C482.149 325.751 481.678 326.89 481.448 328.039C480.793 331.297 479.966 334.527 479.116 337.757C478.3 340.855 477.427 343.944 476.462 347.014C476.427 347.127 476.186 347.861 476.059 348.219C475.715 349.198 475.359 350.168 475.002 351.138C474.244 353.191 473.428 355.225 472.578 357.25C469.51 364.566 465.845 371.968 460.353 378.305C456.366 382.91 451.253 386.498 444.118 386.63C435.915 386.771 427.573 384.115 420.117 381.601C410.557 378.371 401.377 374.388 392.392 370.188C380.891 364.821 369.608 359.039 358.774 352.805C358.751 352.805 358.739 352.795 358.728 352.786C358.452 353.643 358.165 354.49 357.889 355.347C357.728 355.781 357.59 356.11 357.567 356.185C357.406 356.675 356.154 359.114 356.499 359.594C362.921 368.747 368.655 378.286 373.791 387.976C377.709 395.387 381.27 403.015 383.557 410.887C384.51 414.154 385.188 417.488 385.28 420.85C385.292 421.368 385.28 421.886 385.246 422.413C385.154 422.526 385.062 422.648 384.959 422.761C381.247 427.159 373.274 428.807 367.333 429.993C358.004 431.848 348.318 432.573 338.747 433.054C322.857 433.845 306.864 433.732 290.962 433.063C290.192 433.035 289.423 432.997 288.653 432.96C288.492 432.95 286.274 439.702 286.424 439.768C297.385 444.241 308.093 449.194 318.549 454.411C327.131 458.695 335.553 463.234 343.504 468.272C349.904 472.34 356.51 476.86 360.876 482.529C362.29 484.375 363.37 486.427 363.519 488.621C363.025 489.394 362.473 490.147 361.899 490.881C357.039 497.096 349.984 502.2 343.113 506.899C330.44 515.563 316.55 523.143 302.383 530.074C301.671 530.422 300.947 530.78 300.223 531.119C299.637 531.401 299.223 534.019 299.062 534.518C299.039 534.575 298.947 534.923 298.833 535.366C298.545 536.223 298.27 537.07 297.982 537.927C310.586 537.023 323.271 536.684 335.909 536.703C346.273 536.712 356.671 537.033 366.966 538.05C375.261 538.869 384.062 540.036 391.531 543.266C397.861 546.007 400.435 550.828 401.354 556.44C402.584 563.917 401.251 571.686 399.631 579.04C398.757 583.033 397.666 587.007 396.437 590.934C396.379 591.084 396.207 591.621 396.115 591.866C395.828 592.723 395.517 593.58 395.207 594.437C394.61 596.094 393.978 597.742 393.346 599.38C392.002 602.855 390.588 606.32 389.026 609.739C389.026 609.757 389.014 609.767 389.003 609.776C388.509 610.869 388.222 612.055 387.854 613.176C387.808 613.289 387.773 613.468 387.727 613.684C387.406 614.654 387.096 615.624 386.774 616.585C386.992 616.104 387.199 615.624 387.417 615.144C387.256 615.794 387.05 616.396 386.774 616.585C396.954 609.569 407.788 603.109 418.91 597.149C427.55 592.525 436.535 588.193 446.072 584.907C453.023 582.506 461.445 580.086 469.051 581.677C476.599 583.259 482.459 589.088 486.963 593.919C493.248 600.642 498.303 608.138 502.957 615.671C508.966 625.389 514.366 635.456 518.87 645.701C518.755 645.428 518.939 644.825 519.191 644.204C519.076 644.703 518.973 645.202 518.87 645.701C519.191 644.731 519.502 643.761 519.823 642.791C519.915 642.593 519.996 642.414 520.03 642.301C520.398 641.181 520.869 640.041 521.11 638.893C521.765 635.634 522.581 632.405 523.431 629.175C524.247 626.077 525.12 622.978 526.085 619.909C526.131 619.796 526.372 619.071 526.499 618.713C526.843 617.733 527.2 616.763 527.556 615.784C528.314 613.741 529.118 611.707 529.969 609.682C533.036 602.356 536.701 594.964 542.205 588.617C546.18 584.022 551.305 580.434 558.44 580.302C566.643 580.161 574.973 582.816 582.43 585.331C592.001 588.551 601.181 592.544 610.154 596.734C621.655 602.111 632.938 607.893 643.784 614.117C643.796 614.127 643.807 614.136 643.819 614.146C644.106 613.289 644.382 612.432 644.658 611.584C644.83 611.151 644.956 610.812 644.979 610.746C645.14 610.247 646.392 607.818 646.059 607.337C639.625 598.184 633.892 588.636 628.767 578.956C624.838 571.535 621.276 563.917 618.99 556.045C618.048 552.777 617.358 549.434 617.278 546.073C617.266 545.555 617.278 545.037 617.301 544.519C617.404 544.406 617.496 544.283 617.588 544.17C621.311 539.773 629.285 538.115 635.213 536.938C644.554 535.083 654.24 534.358 663.811 533.878C679.701 533.078 695.694 533.2 711.584 533.869C712.354 533.897 713.124 533.934 713.894 533.972C714.066 533.982 716.284 527.22 716.134 527.164Z" fill="#211C1E"/>
</g>
</g>
</g>
</g>
</g>
</g>
<mask id="mask14_195_310" style="mask-type:luminance" maskUnits="userSpaceOnUse" x="358" y="310" width="87" height="95">
<path d="M358.843 310.976H444.141V404.992H358.843V310.976Z" fill="white"/>
</mask>
<g mask="url(#mask14_195_310)">
<mask id="mask15_195_310" style="mask-type:luminance" maskUnits="userSpaceOnUse" x="233" y="278" width="534" height="415">
<path d="M338.805 278.922L766.999 373.286L662.179 692.803L233.974 598.439L338.805 278.922Z" fill="white"/>
</mask>
<g mask="url(#mask15_195_310)">
<mask id="mask16_195_310" style="mask-type:luminance" maskUnits="userSpaceOnUse" x="233" y="278" width="534" height="415">
<path d="M338.805 278.922L766.999 373.286L662.179 692.803L233.974 598.439L338.805 278.922Z" fill="white"/>
</mask>
<g mask="url(#mask16_195_310)">
<mask id="mask17_195_310" style="mask-type:luminance" maskUnits="userSpaceOnUse" x="233" y="278" width="534" height="415">
<path d="M338.805 278.922L766.999 373.286L662.179 692.803L233.974 598.439L338.805 278.922Z" fill="white"/>
</mask>
<g mask="url(#mask17_195_310)">
<path d="M443.302 404.483L361.026 313.076Z" fill="#211C1E"/>
<path d="M361.026 313.076C362.037 312.464 381.282 332.437 403.997 357.673C426.712 382.91 444.314 403.871 443.303 404.484C442.28 405.096 423.047 385.132 400.332 359.886C377.605 334.65 360.015 313.688 361.026 313.076Z" fill="#211C1E"/>
</g>
</g>
</g>
</g>
<mask id="mask18_195_310" style="mask-type:luminance" maskUnits="userSpaceOnUse" x="402" y="306" width="54" height="109">
<path d="M402.963 306.155H455.907V414.635H402.963V306.155Z" fill="white"/>
</mask>
<g mask="url(#mask18_195_310)">
<mask id="mask19_195_310" style="mask-type:luminance" maskUnits="userSpaceOnUse" x="233" y="278" width="534" height="415">
<path d="M338.805 278.922L766.999 373.286L662.179 692.803L233.974 598.439L338.805 278.922Z" fill="white"/>
</mask>
<g mask="url(#mask19_195_310)">
<mask id="mask20_195_310" style="mask-type:luminance" maskUnits="userSpaceOnUse" x="233" y="278" width="534" height="415">
<path d="M338.805 278.922L766.999 373.286L662.179 692.803L233.974 598.439L338.805 278.922Z" fill="white"/>
</mask>
<g mask="url(#mask20_195_310)">
<mask id="mask21_195_310" style="mask-type:luminance" maskUnits="userSpaceOnUse" x="233" y="278" width="534" height="415">
<path d="M338.805 278.922L766.999 373.286L662.179 692.803L233.974 598.439L338.805 278.922Z" fill="white"/>
</mask>
<g mask="url(#mask21_195_310)">
<path d="M453.39 413.006L403.204 307.162Z" fill="#211C1E"/>
<path d="M403.204 307.162C404.376 306.786 416.555 330.177 430.411 359.406C444.279 388.635 454.562 412.638 453.39 413.006C452.219 413.382 440.028 389.991 426.172 360.753C412.315 331.533 402.021 307.53 403.204 307.162Z" fill="#211C1E"/>
</g>
</g>
</g>
</g>
<mask id="mask22_195_310" style="mask-type:luminance" maskUnits="userSpaceOnUse" x="541" y="561" width="51" height="105">
<path d="M541.205 561.685H591.208V665.344H541.205V561.685Z" fill="white"/>
</mask>
<g mask="url(#mask22_195_310)">
<mask id="mask23_195_310" style="mask-type:luminance" maskUnits="userSpaceOnUse" x="233" y="278" width="534" height="415">
<path d="M338.805 278.922L766.999 373.286L662.179 692.803L233.974 598.439L338.805 278.922Z" fill="white"/>
</mask>
<g mask="url(#mask23_195_310)">
<mask id="mask24_195_310" style="mask-type:luminance" maskUnits="userSpaceOnUse" x="233" y="278" width="534" height="415">
<path d="M338.805 278.922L766.999 373.286L662.179 692.803L233.974 598.439L338.805 278.922Z" fill="white"/>
</mask>
<g mask="url(#mask24_195_310)">
<mask id="mask25_195_310" style="mask-type:luminance" maskUnits="userSpaceOnUse" x="233" y="278" width="534" height="415">
<path d="M338.805 278.922L766.999 373.286L662.179 692.803L233.974 598.439L338.805 278.922Z" fill="white"/>
</mask>
<g mask="url(#mask25_195_310)">
<path d="M591.162 665.24L542.354 562.316Z" fill="#211C1E"/>
</g>
</g>
</g>
</g>
<mask id="mask26_195_310" style="mask-type:luminance" maskUnits="userSpaceOnUse" x="541" y="561" width="54" height="105">
<path d="M541.205 561.685H594.149V665.344H541.205V561.685Z" fill="white"/>
</mask>
<g mask="url(#mask26_195_310)">
<mask id="mask27_195_310" style="mask-type:luminance" maskUnits="userSpaceOnUse" x="233" y="278" width="534" height="415">
<path d="M338.805 278.922L766.999 373.286L662.179 692.803L233.974 598.439L338.805 278.922Z" fill="white"/>
</mask>
<g mask="url(#mask27_195_310)">
<mask id="mask28_195_310" style="mask-type:luminance" maskUnits="userSpaceOnUse" x="233" y="278" width="534" height="415">
<path d="M338.805 278.922L766.999 373.286L662.179 692.803L233.974 598.439L338.805 278.922Z" fill="white"/>
</mask>
<g mask="url(#mask28_195_310)">
<mask id="mask29_195_310" style="mask-type:luminance" maskUnits="userSpaceOnUse" x="233" y="278" width="534" height="415">
<path d="M338.805 278.922L766.999 373.286L662.179 692.803L233.974 598.439L338.805 278.922Z" fill="white"/>
</mask>
<g mask="url(#mask29_195_310)">
<path d="M542.354 562.316C543.503 561.949 555.349 584.7 568.826 613.119C582.304 641.548 592.3 664.883 591.162 665.24C590.025 665.608 578.179 642.857 564.702 614.437C551.213 586.009 541.217 562.674 542.354 562.316Z" fill="#211C1E"/>
</g>
</g>
</g>
</g>
<mask id="mask30_195_310" style="mask-type:luminance" maskUnits="userSpaceOnUse" x="561" y="566" width="78" height="95">
<path d="M561.795 566.507H638.269V660.523H561.795V566.507Z" fill="white"/>
</mask>
<g mask="url(#mask30_195_310)">
<mask id="mask31_195_310" style="mask-type:luminance" maskUnits="userSpaceOnUse" x="233" y="278" width="534" height="415">
<path d="M338.805 278.922L766.999 373.286L662.179 692.803L233.974 598.439L338.805 278.922Z" fill="white"/>
</mask>
<g mask="url(#mask31_195_310)">
<mask id="mask32_195_310" style="mask-type:luminance" maskUnits="userSpaceOnUse" x="233" y="278" width="534" height="415">
<path d="M338.805 278.922L766.999 373.286L662.179 692.803L233.974 598.439L338.805 278.922Z" fill="white"/>
</mask>
<g mask="url(#mask32_195_310)">
<mask id="mask33_195_310" style="mask-type:luminance" maskUnits="userSpaceOnUse" x="233" y="278" width="534" height="415">
<path d="M338.805 278.922L766.999 373.286L662.179 692.803L233.974 598.439L338.805 278.922Z" fill="white"/>
</mask>
<g mask="url(#mask33_195_310)">
<path d="M637.361 660.231L564.632 567.241Z" fill="#211C1E"/>
<path d="M564.633 567.241C565.667 566.704 582.775 587.082 602.87 612.761C622.954 638.431 638.396 659.685 637.362 660.231C636.339 660.767 619.22 640.39 599.136 614.711C579.052 589.041 563.599 567.787 564.633 567.241Z" fill="#211C1E"/>
</g>
</g>
</g>
</g>
<mask id="mask34_195_310" style="mask-type:luminance" maskUnits="userSpaceOnUse" x="320" y="547" width="98" height="73">
<path d="M320.605 547.221H417.669V619.541H320.605V547.221Z" fill="white"/>
</mask>
<g mask="url(#mask34_195_310)">
<mask id="mask35_195_310" style="mask-type:luminance" maskUnits="userSpaceOnUse" x="233" y="278" width="534" height="415">
<path d="M338.805 278.922L766.999 373.286L662.179 692.803L233.974 598.439L338.805 278.922Z" fill="white"/>
</mask>
<g mask="url(#mask35_195_310)">
<mask id="mask36_195_310" style="mask-type:luminance" maskUnits="userSpaceOnUse" x="233" y="278" width="534" height="415">
<path d="M338.805 278.922L766.999 373.286L662.179 692.803L233.974 598.439L338.805 278.922Z" fill="white"/>
</mask>
<g mask="url(#mask36_195_310)">
<mask id="mask37_195_310" style="mask-type:luminance" maskUnits="userSpaceOnUse" x="233" y="278" width="534" height="415">
<path d="M338.805 278.922L766.999 373.286L662.179 692.803L233.974 598.439L338.805 278.922Z" fill="white"/>
</mask>
<g mask="url(#mask37_195_310)">
<mask id="mask38_195_310" style="mask-type:luminance" maskUnits="userSpaceOnUse" x="321" y="532" width="96" height="101">
<path d="M349.145 532.475L416.865 547.4L388.785 632.96L321.076 618.044L349.145 532.475Z" fill="white"/>
</mask>
<g mask="url(#mask38_195_310)">
<mask id="mask39_195_310" style="mask-type:luminance" maskUnits="userSpaceOnUse" x="321" y="532" width="96" height="101">
<path d="M349.145 532.475L416.865 547.4L388.911 632.583L321.191 617.667L349.145 532.475Z" fill="white"/>
</mask>
<g mask="url(#mask39_195_310)">
<path d="M321.559 617.733L416.692 547.438Z" fill="#211C1E"/>
<path d="M416.693 547.438C415.911 546.732 393.978 561.893 367.713 581.31C341.447 600.717 320.778 617.027 321.559 617.733C322.34 618.44 344.262 603.279 370.539 583.871C396.804 564.454 417.474 548.144 416.693 547.438Z" fill="#211C1E"/>
</g>
</g>
</g>
</g>
</g>
</g>
<mask id="mask40_195_310" style="mask-type:luminance" maskUnits="userSpaceOnUse" x="291" y="542" width="112" height="56">
<path d="M291.192 542.4H402.963V597.845H291.192V542.4Z" fill="white"/>
</mask>
<g mask="url(#mask40_195_310)">
<mask id="mask41_195_310" style="mask-type:luminance" maskUnits="userSpaceOnUse" x="233" y="278" width="534" height="415">
<path d="M338.805 278.922L766.999 373.286L662.179 692.803L233.974 598.439L338.805 278.922Z" fill="white"/>
</mask>
<g mask="url(#mask41_195_310)">
<mask id="mask42_195_310" style="mask-type:luminance" maskUnits="userSpaceOnUse" x="233" y="278" width="534" height="415">
<path d="M338.805 278.922L766.999 373.286L662.179 692.803L233.974 598.439L338.805 278.922Z" fill="white"/>
</mask>
<g mask="url(#mask42_195_310)">
<mask id="mask43_195_310" style="mask-type:luminance" maskUnits="userSpaceOnUse" x="233" y="278" width="534" height="415">
<path d="M338.805 278.922L766.999 373.286L662.179 692.803L233.974 598.439L338.805 278.922Z" fill="white"/>
</mask>
<g mask="url(#mask43_195_310)">
<path d="M291.226 597.101L401.882 544.199Z" fill="#211C1E"/>
<path d="M401.883 544.199C401.297 543.37 376.054 554.548 345.492 569.162C314.941 583.767 290.64 596.273 291.226 597.101C291.812 597.921 317.055 586.743 347.617 572.138C378.18 557.533 402.469 545.018 401.883 544.199Z" fill="#211C1E"/>
</g>
</g>
</g>
</g>
<mask id="mask44_195_310" style="mask-type:luminance" maskUnits="userSpaceOnUse" x="291" y="527" width="118" height="40">
<path d="M291.192 527.936H408.845V566.507H291.192V527.936Z" fill="white"/>
</mask>
<g mask="url(#mask44_195_310)">
<mask id="mask45_195_310" style="mask-type:luminance" maskUnits="userSpaceOnUse" x="233" y="278" width="534" height="415">
<path d="M338.805 278.922L766.999 373.286L662.179 692.803L233.974 598.439L338.805 278.922Z" fill="white"/>
</mask>
<g mask="url(#mask45_195_310)">
<mask id="mask46_195_310" style="mask-type:luminance" maskUnits="userSpaceOnUse" x="233" y="278" width="534" height="415">
<path d="M338.805 278.922L766.999 373.286L662.179 692.803L233.974 598.439L338.805 278.922Z" fill="white"/>
</mask>
<g mask="url(#mask46_195_310)">
<mask id="mask47_195_310" style="mask-type:luminance" maskUnits="userSpaceOnUse" x="233" y="278" width="534" height="415">
<path d="M338.805 278.922L766.999 373.286L662.179 692.803L233.974 598.439L338.805 278.922Z" fill="white"/>
</mask>
<g mask="url(#mask47_195_310)">
<path d="M292.743 565.716L406.685 529.612Z" fill="#211C1E"/>
<path d="M406.685 529.612C406.283 528.765 380.455 536.157 348.985 546.129C317.526 556.101 292.341 564.878 292.743 565.716C293.145 566.563 318.974 559.171 350.432 549.199C381.902 539.227 407.087 530.46 406.685 529.612Z" fill="#211C1E"/>
</g>
</g>
</g>
</g>
<mask id="mask48_195_310" style="mask-type:luminance" maskUnits="userSpaceOnUse" x="588" y="356" width="107" height="66">
<path d="M588.267 356.779H694.155V421.867H588.267V356.779Z" fill="white"/>
</mask>
<g mask="url(#mask48_195_310)">
<mask id="mask49_195_310" style="mask-type:luminance" maskUnits="userSpaceOnUse" x="233" y="278" width="534" height="415">
<path d="M338.805 278.922L766.999 373.286L662.179 692.803L233.974 598.439L338.805 278.922Z" fill="white"/>
</mask>
<g mask="url(#mask49_195_310)">
<mask id="mask50_195_310" style="mask-type:luminance" maskUnits="userSpaceOnUse" x="233" y="278" width="534" height="415">
<path d="M338.805 278.922L766.999 373.286L662.179 692.803L233.974 598.439L338.805 278.922Z" fill="white"/>
</mask>
<g mask="url(#mask50_195_310)">
<mask id="mask51_195_310" style="mask-type:luminance" maskUnits="userSpaceOnUse" x="233" y="278" width="534" height="415">
<path d="M338.805 278.922L766.999 373.286L662.179 692.803L233.974 598.439L338.805 278.922Z" fill="white"/>
</mask>
<g mask="url(#mask51_195_310)">
<path d="M692.42 357.485L588.875 420.388Z" fill="#211C1E"/>
<path d="M588.876 420.388C589.577 421.16 613.326 407.704 641.912 390.33C670.509 372.957 693.109 358.257 692.42 357.485C691.719 356.713 667.97 370.169 639.384 387.543C610.798 404.907 588.186 419.616 588.876 420.388Z" fill="#211C1E"/>
</g>
</g>
</g>
</g>
<mask id="mask52_195_310" style="mask-type:luminance" maskUnits="userSpaceOnUse" x="602" y="378" width="119" height="49">
<path d="M602.973 378.475H720.627V426.688H602.973V378.475Z" fill="white"/>
</mask>
<g mask="url(#mask52_195_310)">
<mask id="mask53_195_310" style="mask-type:luminance" maskUnits="userSpaceOnUse" x="233" y="278" width="534" height="415">
<path d="M338.805 278.922L766.999 373.286L662.179 692.803L233.974 598.439L338.805 278.922Z" fill="white"/>
</mask>
<g mask="url(#mask53_195_310)">
<mask id="mask54_195_310" style="mask-type:luminance" maskUnits="userSpaceOnUse" x="233" y="278" width="534" height="415">
<path d="M338.805 278.922L766.999 373.286L662.179 692.803L233.974 598.439L338.805 278.922Z" fill="white"/>
</mask>
<g mask="url(#mask54_195_310)">
<mask id="mask55_195_310" style="mask-type:luminance" maskUnits="userSpaceOnUse" x="233" y="278" width="534" height="415">
<path d="M338.805 278.922L766.999 373.286L662.179 692.803L233.974 598.439L338.805 278.922Z" fill="white"/>
</mask>
<g mask="url(#mask55_195_310)">
<path d="M720.374 380.537L603.329 424.805Z" fill="#211C1E"/>
<path d="M603.329 424.805C603.824 425.671 630.422 416.471 662.742 404.248C695.062 392.025 720.868 381.403 720.374 380.537C719.88 379.671 693.281 388.871 660.961 401.094C628.641 413.316 602.835 423.929 603.329 424.805Z" fill="#211C1E"/>
</g>
</g>
</g>
</g>
<mask id="mask56_195_310" style="mask-type:luminance" maskUnits="userSpaceOnUse" x="594" y="409" width="124" height="33">
<path d="M594.149 409.813H717.685V441.152H594.149V409.813Z" fill="white"/>
</mask>
<g mask="url(#mask56_195_310)">
<mask id="mask57_195_310" style="mask-type:luminance" maskUnits="userSpaceOnUse" x="233" y="278" width="534" height="415">
<path d="M338.805 278.922L766.999 373.286L662.179 692.803L233.974 598.439L338.805 278.922Z" fill="white"/>
</mask>
<g mask="url(#mask57_195_310)">
<mask id="mask58_195_310" style="mask-type:luminance" maskUnits="userSpaceOnUse" x="233" y="278" width="534" height="415">
<path d="M338.805 278.922L766.999 373.286L662.179 692.803L233.974 598.439L338.805 278.922Z" fill="white"/>
</mask>
<g mask="url(#mask58_195_310)">
<mask id="mask59_195_310" style="mask-type:luminance" maskUnits="userSpaceOnUse" x="233" y="278" width="534" height="415">
<path d="M338.805 278.922L766.999 373.286L662.179 692.803L233.974 598.439L338.805 278.922Z" fill="white"/>
</mask>
<g mask="url(#mask59_195_310)">
<path d="M715.169 411.838L596.803 439.033Z" fill="#211C1E"/>
<path d="M596.803 439.033C597.114 439.918 623.85 434.541 656.538 427.036C689.214 419.522 715.468 412.723 715.169 411.838C714.87 410.962 688.123 416.33 655.446 423.844C622.758 431.349 596.505 438.148 596.803 439.033Z" fill="#211C1E"/>
</g>
</g>
</g>
</g>
<path d="M288.386 569.17L269.529 465.877L324.717 455.802C338.981 453.198 349.974 453.834 357.696 457.711C365.4 461.488 369.97 467.312 371.407 475.182C372.358 480.396 371.736 485.338 369.539 490.009C367.422 494.563 363.825 498.523 358.747 501.89C353.669 505.257 347.097 507.676 339.03 509.149L340.527 500.642C348.594 499.169 355.735 499.035 361.953 500.238C368.268 501.423 373.395 503.892 377.333 507.646C381.352 511.283 383.909 516.102 385.004 522.103C386.639 531.055 384.176 538.722 377.615 545.104C371.153 551.468 360.79 555.952 346.525 558.556L288.386 569.17ZM318.176 538.573L339.129 534.748C342.966 534.047 345.693 532.838 347.311 531.119C349.027 529.383 349.642 527.187 349.157 524.53C348.672 521.874 347.321 520.037 345.102 519.019C342.981 517.983 340.003 517.815 336.166 518.516L312.851 522.772L308.649 499.753L327.242 496.358C331.177 495.64 333.913 494.48 335.45 492.878C337.068 491.159 337.652 489.07 337.203 486.611C336.736 484.053 335.451 482.305 333.349 481.368C331.344 480.412 328.375 480.294 324.44 481.012L308.208 483.975L318.176 538.573ZM444.397 542.213C435.249 543.884 426.809 543.595 419.08 541.346C411.431 538.981 405.015 535.019 399.832 529.46C394.649 523.9 391.313 517.038 389.822 508.873C388.332 500.708 389.028 493.109 391.912 486.077C394.796 479.044 399.407 473.12 405.745 468.303C412.181 463.469 419.974 460.217 429.123 458.546C438.272 456.876 446.711 457.165 454.44 459.414C462.17 461.662 468.577 465.575 473.661 471.153C478.844 476.712 482.18 483.574 483.671 491.74C485.162 499.905 484.465 507.503 481.581 514.536C478.796 521.55 474.194 527.523 467.775 532.456C461.339 537.291 453.546 540.543 444.397 542.213ZM439.656 516.243C442.115 515.794 444.221 514.799 445.973 513.26C447.725 511.72 448.976 509.662 449.725 507.085C450.457 504.411 450.508 501.352 449.88 497.909C449.233 494.367 448.113 491.573 446.519 489.526C444.908 487.38 443.011 485.897 440.828 485.076C438.645 484.254 436.323 484.068 433.864 484.517C431.405 484.966 429.299 485.96 427.547 487.5C425.795 489.04 424.544 491.098 423.795 493.674C423.028 496.152 422.967 499.162 423.614 502.704C424.242 506.147 425.371 508.99 427.001 511.234C428.612 513.38 430.51 514.863 432.693 515.684C434.876 516.506 437.197 516.692 439.656 516.243ZM544.405 523.956C535.256 525.626 526.817 525.337 519.087 523.089C511.438 520.724 505.022 516.762 499.839 511.202C494.657 505.643 491.32 498.78 489.829 490.615C488.339 482.45 489.035 474.852 491.919 467.819C494.803 460.787 499.414 454.863 505.752 450.046C512.189 445.211 519.981 441.959 529.13 440.289C538.279 438.619 546.718 438.908 554.448 441.156C562.177 443.404 568.584 447.317 573.668 452.895C578.851 458.455 582.188 465.317 583.678 473.482C585.169 481.647 584.472 489.246 581.588 496.278C578.803 503.292 574.201 509.266 567.782 514.199C561.346 519.033 553.553 522.286 544.405 523.956ZM539.663 497.985C542.123 497.536 544.228 496.542 545.98 495.002C547.732 493.463 548.983 491.404 549.732 488.828C550.464 486.153 550.515 483.094 549.887 479.651C549.24 476.11 548.12 473.315 546.527 471.268C544.915 469.123 543.018 467.639 540.835 466.818C538.652 465.997 536.331 465.811 533.871 466.26C531.412 466.709 529.306 467.703 527.554 469.243C525.802 470.782 524.552 472.84 523.802 475.417C523.035 477.895 522.974 480.905 523.621 484.446C524.25 487.889 525.379 490.733 527.008 492.977C528.62 495.122 530.517 496.605 532.7 497.427C534.883 498.248 537.204 498.434 539.663 497.985ZM693.326 410.313C699.426 409.199 705.119 409.482 710.406 411.159C715.774 412.721 720.32 415.906 724.044 420.715C727.867 425.507 730.55 432.132 732.095 440.593L740.5 486.632L707.151 492.72L699.797 452.436C698.881 447.419 697.398 444.03 695.349 442.269C693.281 440.41 690.919 439.723 688.263 440.208C686.296 440.567 684.615 441.383 683.22 442.654C681.826 443.925 680.834 445.732 680.246 448.076C679.738 450.304 679.816 453.237 680.48 456.877L687.673 496.276L654.324 502.364L646.97 462.08C646.054 457.063 644.62 453.665 642.669 451.887C640.7 450.01 638.289 449.332 635.436 449.852C633.469 450.212 631.788 451.027 630.393 452.298C628.999 453.569 628.008 455.376 627.419 457.72C626.911 459.948 626.989 462.881 627.653 466.521L634.846 505.92L601.497 512.008L586.762 431.292L618.487 425.5L622.717 448.668L615.039 443.36C616.975 436.704 620.231 431.434 624.808 427.549C629.367 423.565 634.794 420.999 641.09 419.849C648.173 418.556 654.761 419.285 660.854 422.035C667.027 424.669 671.776 429.8 675.1 437.427L664.622 437.663C666.352 430.435 669.679 424.439 674.604 419.678C679.609 414.799 685.85 411.678 693.326 410.313ZM750.255 443.986L731.978 381.452L771.819 374.179L776.816 439.137L750.255 443.986ZM771.025 482.584C765.319 483.625 760.332 482.757 756.064 479.978C751.777 477.101 749.194 473.253 748.314 468.432C747.416 463.514 748.482 459.05 751.511 455.041C754.54 451.031 758.908 448.506 764.614 447.464C770.418 446.405 775.396 447.224 779.548 449.922C783.798 452.602 786.372 456.402 787.27 461.321C788.15 466.141 787.094 470.654 784.1 474.86C781.188 478.95 776.829 481.524 771.025 482.584Z" fill="#531488"/>
<mask id="path-100-outside-1_195_310" maskUnits="userSpaceOnUse" x="286.054" y="368.227" width="522.806" height="201.951" fill="black">
<rect fill="white" x="286.054" y="368.227" width="522.806" height="201.951"/>
<path d="M308.651 564.643L290.045 462.727L344.497 452.786C358.571 450.217 369.418 450.844 377.036 454.669C384.637 458.396 389.147 464.143 390.564 471.908C391.503 477.052 390.889 481.928 388.722 486.537C386.633 491.03 383.084 494.938 378.074 498.259C373.064 501.581 366.579 503.969 358.62 505.422L360.096 497.028C368.055 495.575 375.102 495.442 381.236 496.629C387.468 497.798 392.526 500.235 396.412 503.938C400.377 507.527 402.9 512.282 403.981 518.203C405.593 527.036 403.163 534.6 396.69 540.897C390.314 547.176 380.089 551.601 366.015 554.17L308.651 564.643ZM338.043 534.453L358.717 530.679C362.503 529.988 365.194 528.794 366.79 527.099C368.483 525.386 369.09 523.219 368.612 520.598C368.133 517.977 366.799 516.165 364.61 515.16C362.518 514.138 359.579 513.972 355.794 514.663L332.79 518.863L328.643 496.15L346.988 492.801C350.871 492.093 353.57 490.948 355.087 489.367C356.683 487.672 357.26 485.61 356.817 483.184C356.356 480.66 355.088 478.936 353.014 478.011C351.036 477.068 348.106 476.951 344.224 477.66L328.208 480.583L338.043 534.453ZM462.582 538.045C453.555 539.693 445.228 539.408 437.602 537.19C430.055 534.856 423.725 530.947 418.611 525.461C413.497 519.976 410.205 513.205 408.734 505.149C407.264 497.093 407.951 489.595 410.796 482.657C413.642 475.718 418.191 469.873 424.445 465.121C430.796 460.351 438.484 457.142 447.511 455.494C456.538 453.846 464.864 454.131 472.491 456.349C480.117 458.568 486.439 462.429 491.455 467.932C496.569 473.417 499.861 480.188 501.332 488.244C502.803 496.3 502.115 503.798 499.27 510.736C496.521 517.657 491.981 523.551 485.648 528.418C479.297 533.188 471.609 536.397 462.582 538.045ZM457.904 512.421C460.33 511.978 462.408 510.997 464.136 509.478C465.865 507.958 467.099 505.928 467.839 503.386C468.56 500.746 468.611 497.728 467.991 494.331C467.353 490.837 466.248 488.08 464.676 486.06C463.086 483.943 461.214 482.479 459.06 481.669C456.906 480.859 454.616 480.675 452.189 481.118C449.763 481.561 447.685 482.542 445.956 484.061C444.228 485.58 442.994 487.611 442.254 490.153C441.497 492.598 441.437 495.568 442.075 499.062C442.695 502.459 443.809 505.265 445.417 507.479C447.007 509.596 448.879 511.059 451.033 511.87C453.187 512.68 455.477 512.864 457.904 512.421ZM561.256 520.031C552.229 521.679 543.902 521.394 536.276 519.175C528.729 516.842 522.398 512.933 517.285 507.447C512.171 501.962 508.879 495.191 507.408 487.135C505.937 479.079 506.625 471.581 509.47 464.643C512.316 457.704 516.865 451.859 523.119 447.107C529.469 442.337 537.158 439.127 546.185 437.48C555.212 435.832 563.538 436.117 571.165 438.335C578.791 440.554 585.113 444.414 590.129 449.918C595.243 455.403 598.535 462.174 600.006 470.23C601.476 478.286 600.789 485.784 597.944 492.722C595.195 499.643 590.655 505.537 584.322 510.404C577.971 515.174 570.282 518.383 561.256 520.031ZM556.578 494.407C559.004 493.964 561.082 492.983 562.81 491.463C564.539 489.944 565.773 487.914 566.512 485.372C567.234 482.732 567.285 479.714 566.665 476.317C566.027 472.823 564.922 470.066 563.349 468.046C561.759 465.929 559.887 464.465 557.734 463.655C555.58 462.845 553.289 462.661 550.863 463.104C548.436 463.547 546.359 464.528 544.63 466.047C542.902 467.566 541.667 469.597 540.928 472.139C540.171 474.584 540.111 477.554 540.749 481.048C541.369 484.445 542.483 487.251 544.091 489.465C545.681 491.582 547.553 493.045 549.707 493.856C551.861 494.666 554.151 494.85 556.578 494.407ZM708.192 407.903C714.21 406.805 719.827 407.083 725.044 408.738C730.34 410.279 734.825 413.422 738.5 418.167C742.272 422.895 744.919 429.432 746.443 437.779L754.736 483.205L721.832 489.212L714.576 449.465C713.672 444.514 712.209 441.171 710.187 439.434C708.147 437.599 705.817 436.922 703.196 437.4C701.255 437.754 699.596 438.559 698.221 439.813C696.845 441.067 695.866 442.85 695.286 445.163C694.784 447.361 694.861 450.255 695.517 453.847L702.614 492.72L669.71 498.727L662.453 458.98C661.55 454.03 660.135 450.677 658.21 448.923C656.267 447.071 653.888 446.402 651.074 446.916C649.132 447.27 647.474 448.074 646.098 449.328C644.722 450.583 643.744 452.366 643.163 454.679C642.662 456.876 642.739 459.771 643.394 463.362L650.491 502.236L617.587 508.243L603.048 428.603L634.351 422.888L638.524 445.747L630.948 440.51C632.858 433.943 636.071 428.743 640.587 424.909C645.085 420.979 650.44 418.447 656.652 417.313C663.64 416.037 670.14 416.756 676.152 419.469C682.243 422.068 686.929 427.131 690.208 434.656L679.87 434.888C681.577 427.757 684.86 421.842 689.719 417.143C694.658 412.33 700.815 409.25 708.192 407.903ZM764.362 441.128L746.328 379.427L785.638 372.251L790.569 436.343L764.362 441.128ZM784.854 479.211C779.225 480.238 774.304 479.381 770.093 476.64C765.864 473.801 763.315 470.004 762.447 465.248C761.561 460.395 762.612 455.99 765.601 452.035C768.59 448.079 772.899 445.587 778.528 444.559C784.255 443.514 789.167 444.322 793.264 446.984C797.457 449.629 799.997 453.378 800.883 458.231C801.752 462.987 800.709 467.44 797.756 471.59C794.882 475.625 790.581 478.165 784.854 479.211Z"/>
</mask>
<path d="M308.651 564.643L290.045 462.727L344.497 452.786C358.571 450.217 369.418 450.844 377.036 454.669C384.637 458.396 389.147 464.143 390.564 471.908C391.503 477.052 390.889 481.928 388.722 486.537C386.633 491.03 383.084 494.938 378.074 498.259C373.064 501.581 366.579 503.969 358.62 505.422L360.096 497.028C368.055 495.575 375.102 495.442 381.236 496.629C387.468 497.798 392.526 500.235 396.412 503.938C400.377 507.527 402.9 512.282 403.981 518.203C405.593 527.036 403.163 534.6 396.69 540.897C390.314 547.176 380.089 551.601 366.015 554.17L308.651 564.643ZM338.043 534.453L358.717 530.679C362.503 529.988 365.194 528.794 366.79 527.099C368.483 525.386 369.09 523.219 368.612 520.598C368.133 517.977 366.799 516.165 364.61 515.16C362.518 514.138 359.579 513.972 355.794 514.663L332.79 518.863L328.643 496.15L346.988 492.801C350.871 492.093 353.57 490.948 355.087 489.367C356.683 487.672 357.26 485.61 356.817 483.184C356.356 480.66 355.088 478.936 353.014 478.011C351.036 477.068 348.106 476.951 344.224 477.66L328.208 480.583L338.043 534.453ZM462.582 538.045C453.555 539.693 445.228 539.408 437.602 537.19C430.055 534.856 423.725 530.947 418.611 525.461C413.497 519.976 410.205 513.205 408.734 505.149C407.264 497.093 407.951 489.595 410.796 482.657C413.642 475.718 418.191 469.873 424.445 465.121C430.796 460.351 438.484 457.142 447.511 455.494C456.538 453.846 464.864 454.131 472.491 456.349C480.117 458.568 486.439 462.429 491.455 467.932C496.569 473.417 499.861 480.188 501.332 488.244C502.803 496.3 502.115 503.798 499.27 510.736C496.521 517.657 491.981 523.551 485.648 528.418C479.297 533.188 471.609 536.397 462.582 538.045ZM457.904 512.421C460.33 511.978 462.408 510.997 464.136 509.478C465.865 507.958 467.099 505.928 467.839 503.386C468.56 500.746 468.611 497.728 467.991 494.331C467.353 490.837 466.248 488.08 464.676 486.06C463.086 483.943 461.214 482.479 459.06 481.669C456.906 480.859 454.616 480.675 452.189 481.118C449.763 481.561 447.685 482.542 445.956 484.061C444.228 485.58 442.994 487.611 442.254 490.153C441.497 492.598 441.437 495.568 442.075 499.062C442.695 502.459 443.809 505.265 445.417 507.479C447.007 509.596 448.879 511.059 451.033 511.87C453.187 512.68 455.477 512.864 457.904 512.421ZM561.256 520.031C552.229 521.679 543.902 521.394 536.276 519.175C528.729 516.842 522.398 512.933 517.285 507.447C512.171 501.962 508.879 495.191 507.408 487.135C505.937 479.079 506.625 471.581 509.47 464.643C512.316 457.704 516.865 451.859 523.119 447.107C529.469 442.337 537.158 439.127 546.185 437.48C555.212 435.832 563.538 436.117 571.165 438.335C578.791 440.554 585.113 444.414 590.129 449.918C595.243 455.403 598.535 462.174 600.006 470.23C601.476 478.286 600.789 485.784 597.944 492.722C595.195 499.643 590.655 505.537 584.322 510.404C577.971 515.174 570.282 518.383 561.256 520.031ZM556.578 494.407C559.004 493.964 561.082 492.983 562.81 491.463C564.539 489.944 565.773 487.914 566.512 485.372C567.234 482.732 567.285 479.714 566.665 476.317C566.027 472.823 564.922 470.066 563.349 468.046C561.759 465.929 559.887 464.465 557.734 463.655C555.58 462.845 553.289 462.661 550.863 463.104C548.436 463.547 546.359 464.528 544.63 466.047C542.902 467.566 541.667 469.597 540.928 472.139C540.171 474.584 540.111 477.554 540.749 481.048C541.369 484.445 542.483 487.251 544.091 489.465C545.681 491.582 547.553 493.045 549.707 493.856C551.861 494.666 554.151 494.85 556.578 494.407ZM708.192 407.903C714.21 406.805 719.827 407.083 725.044 408.738C730.34 410.279 734.825 413.422 738.5 418.167C742.272 422.895 744.919 429.432 746.443 437.779L754.736 483.205L721.832 489.212L714.576 449.465C713.672 444.514 712.209 441.171 710.187 439.434C708.147 437.599 705.817 436.922 703.196 437.4C701.255 437.754 699.596 438.559 698.221 439.813C696.845 441.067 695.866 442.85 695.286 445.163C694.784 447.361 694.861 450.255 695.517 453.847L702.614 492.72L669.71 498.727L662.453 458.98C661.55 454.03 660.135 450.677 658.21 448.923C656.267 447.071 653.888 446.402 651.074 446.916C649.132 447.27 647.474 448.074 646.098 449.328C644.722 450.583 643.744 452.366 643.163 454.679C642.662 456.876 642.739 459.771 643.394 463.362L650.491 502.236L617.587 508.243L603.048 428.603L634.351 422.888L638.524 445.747L630.948 440.51C632.858 433.943 636.071 428.743 640.587 424.909C645.085 420.979 650.44 418.447 656.652 417.313C663.64 416.037 670.14 416.756 676.152 419.469C682.243 422.068 686.929 427.131 690.208 434.656L679.87 434.888C681.577 427.757 684.86 421.842 689.719 417.143C694.658 412.33 700.815 409.25 708.192 407.903ZM764.362 441.128L746.328 379.427L785.638 372.251L790.569 436.343L764.362 441.128ZM784.854 479.211C779.225 480.238 774.304 479.381 770.093 476.64C765.864 473.801 763.315 470.004 762.447 465.248C761.561 460.395 762.612 455.99 765.601 452.035C768.59 448.079 772.899 445.587 778.528 444.559C784.255 443.514 789.167 444.322 793.264 446.984C797.457 449.629 799.997 453.378 800.883 458.231C801.752 462.987 800.709 467.44 797.756 471.59C794.882 475.625 790.581 478.165 784.854 479.211Z" fill="#9D54D9"/>
<path d="M308.651 564.643L305.7 565.181L306.239 568.133L309.19 567.594L308.651 564.643ZM290.045 462.727L289.506 459.776L286.555 460.315L287.094 463.266L290.045 462.727ZM377.036 454.669L375.69 457.35L375.703 457.356L375.715 457.363L377.036 454.669ZM388.722 486.537L386.007 485.26L386.001 485.272L388.722 486.537ZM378.074 498.259L376.416 495.759L376.416 495.759L378.074 498.259ZM358.62 505.422L355.665 504.902L354.918 509.147L359.159 508.373L358.62 505.422ZM360.096 497.028L359.558 494.077L357.503 494.452L357.142 496.508L360.096 497.028ZM381.236 496.629L380.666 499.574L380.675 499.576L380.683 499.577L381.236 496.629ZM396.412 503.938L394.342 506.11L394.37 506.137L394.399 506.163L396.412 503.938ZM396.69 540.897L394.598 538.747L394.591 538.753L394.585 538.76L396.69 540.897ZM338.043 534.453L335.092 534.992L335.631 537.943L338.582 537.404L338.043 534.453ZM366.79 527.099L364.656 524.99L364.63 525.016L364.605 525.043L366.79 527.099ZM364.61 515.16L363.293 517.856L363.326 517.872L363.359 517.887L364.61 515.16ZM332.79 518.863L329.839 519.402L330.377 522.353L333.329 521.814L332.79 518.863ZM328.643 496.15L328.105 493.199L325.153 493.738L325.692 496.689L328.643 496.15ZM355.087 489.367L357.252 491.444L357.262 491.434L357.271 491.423L355.087 489.367ZM353.014 478.011L351.723 480.719L351.757 480.735L351.792 480.751L353.014 478.011ZM328.208 480.583L327.67 477.632L324.718 478.171L325.257 481.122L328.208 480.583ZM311.602 564.104L292.996 462.188L287.094 463.266L305.7 565.181L311.602 564.104ZM290.584 465.678L345.036 455.737L343.958 449.835L289.506 459.776L290.584 465.678ZM345.036 455.737C358.864 453.213 368.932 453.957 375.69 457.35L378.382 451.988C369.903 447.731 358.279 447.221 343.958 449.835L345.036 455.737ZM375.715 457.363C382.534 460.706 386.38 465.694 387.613 472.447L393.515 471.369C391.913 462.591 386.74 456.087 378.357 451.975L375.715 457.363ZM387.613 472.447C388.443 476.993 387.901 481.233 386.007 485.26L391.436 487.813C393.878 482.623 394.564 477.111 393.515 471.369L387.613 472.447ZM386.001 485.272C384.191 489.166 381.063 492.678 376.416 495.759L379.732 500.76C385.105 497.197 389.075 492.894 391.442 487.801L386.001 485.272ZM376.416 495.759C371.84 498.793 365.771 501.067 358.081 502.47L359.159 508.373C367.387 506.871 374.287 504.369 379.732 500.76L376.416 495.759ZM361.574 505.941L363.051 497.548L357.142 496.508L355.665 504.902L361.574 505.941ZM360.635 499.979C368.33 498.574 374.988 498.476 380.666 499.574L381.806 493.684C375.216 492.408 367.78 492.576 359.558 494.077L360.635 499.979ZM380.683 499.577C386.449 500.659 390.947 502.874 394.342 506.11L398.482 501.767C394.105 497.595 388.486 494.937 381.79 493.68L380.683 499.577ZM394.399 506.163C397.813 509.253 400.052 513.385 401.029 518.742L406.932 517.664C405.748 511.179 402.941 505.801 398.425 501.714L394.399 506.163ZM401.029 518.742C402.461 526.584 400.359 533.142 394.598 538.747L398.782 543.048C405.966 536.058 408.725 527.487 406.932 517.664L401.029 518.742ZM394.585 538.76C388.824 544.433 379.283 548.698 365.476 551.219L366.554 557.121C380.895 554.503 391.804 549.92 398.795 543.035L394.585 538.76ZM365.476 551.219L308.112 561.691L309.19 567.594L366.554 557.121L365.476 551.219ZM338.582 537.404L359.256 533.63L358.179 527.728L337.504 531.502L338.582 537.404ZM359.256 533.63C363.297 532.892 366.735 531.534 368.974 529.155L364.605 525.043C363.652 526.055 361.709 527.083 358.179 527.728L359.256 533.63ZM368.923 529.208C371.386 526.716 372.195 523.524 371.563 520.059L365.661 521.137C365.985 522.913 365.58 524.055 364.656 524.99L368.923 529.208ZM371.563 520.059C370.93 516.595 369.045 513.894 365.861 512.433L363.359 517.887C364.554 518.435 365.336 519.36 365.661 521.137L371.563 520.059ZM365.927 512.465C362.992 511.031 359.295 510.975 355.255 511.712L356.332 517.615C359.862 516.97 362.044 517.245 363.293 517.856L365.927 512.465ZM355.255 511.712L332.251 515.912L333.329 521.814L356.332 517.615L355.255 511.712ZM335.741 518.324L331.595 495.612L325.692 496.689L329.839 519.402L335.741 518.324ZM329.182 499.102L347.527 495.753L346.449 489.85L328.105 493.199L329.182 499.102ZM347.527 495.753C351.594 495.01 355.068 493.719 357.252 491.444L352.922 487.29C352.072 488.176 350.147 489.175 346.449 489.85L347.527 495.753ZM357.271 491.423C359.565 488.987 360.37 485.944 359.768 482.645L353.865 483.723C354.149 485.277 353.801 486.356 352.903 487.311L357.271 491.423ZM359.768 482.645C359.156 479.294 357.343 476.657 354.236 475.271L351.792 480.751C352.834 481.215 353.556 482.026 353.865 483.723L359.768 482.645ZM354.305 475.303C351.459 473.946 347.753 473.966 343.685 474.708L344.763 480.611C348.46 479.936 350.614 480.19 351.723 480.719L354.305 475.303ZM343.685 474.708L327.67 477.632L328.747 483.535L344.763 480.611L343.685 474.708ZM325.257 481.122L335.092 534.992L340.994 533.914L331.16 480.045L325.257 481.122ZM437.602 537.19L436.716 540.056L436.74 540.063L436.764 540.07L437.602 537.19ZM418.611 525.461L416.417 527.507L416.417 527.507L418.611 525.461ZM410.796 482.657L408.021 481.519L408.021 481.519L410.796 482.657ZM424.445 465.121L422.643 462.722L422.636 462.727L422.63 462.732L424.445 465.121ZM472.491 456.349L471.653 459.23L471.653 459.23L472.491 456.349ZM491.455 467.932L489.238 469.953L489.25 469.965L489.261 469.977L491.455 467.932ZM499.27 510.736L496.494 509.598L496.488 509.613L496.482 509.629L499.27 510.736ZM485.648 528.418L487.45 530.817L487.463 530.807L487.476 530.797L485.648 528.418ZM464.136 509.478L462.156 507.224L462.156 507.224L464.136 509.478ZM467.839 503.386L470.719 504.224L470.726 504.2L470.732 504.177L467.839 503.386ZM464.676 486.06L462.277 487.862L462.292 487.882L462.308 487.903L464.676 486.06ZM459.06 481.669L458.003 484.477L458.003 484.477L459.06 481.669ZM445.956 484.061L443.976 481.808L443.976 481.808L445.956 484.061ZM442.254 490.153L445.12 491.041L445.128 491.016L445.135 490.991L442.254 490.153ZM445.417 507.479L442.99 509.242L443.004 509.261L443.018 509.281L445.417 507.479ZM451.033 511.87L449.977 514.678L449.977 514.678L451.033 511.87ZM462.043 535.094C453.403 536.671 445.554 536.378 438.44 534.309L436.764 540.07C444.902 542.437 453.707 542.715 463.121 540.996L462.043 535.094ZM438.488 534.323C431.413 532.136 425.543 528.498 420.805 523.416L416.417 527.507C421.906 533.396 428.696 537.576 436.716 540.056L438.488 534.323ZM420.805 523.416C416.119 518.388 413.063 512.156 411.686 504.61L405.783 505.688C407.347 514.254 410.876 521.564 416.417 527.507L420.805 523.416ZM411.686 504.61C410.308 497.064 410.964 490.154 413.572 483.795L408.021 481.519C404.938 489.036 404.219 497.121 405.783 505.688L411.686 504.61ZM413.572 483.795C416.205 477.376 420.411 471.954 426.26 467.509L422.63 462.732C415.971 467.792 411.079 474.061 408.021 481.519L413.572 483.795ZM426.247 467.519C432.171 463.069 439.41 460.022 448.05 458.445L446.972 452.542C437.559 454.261 429.42 457.632 422.643 462.722L426.247 467.519ZM448.05 458.445C456.69 456.868 464.538 457.16 471.653 459.23L473.329 453.469C465.19 451.101 456.386 450.824 446.972 452.542L448.05 458.445ZM471.653 459.23C478.786 461.305 484.619 464.885 489.238 469.953L493.672 465.911C488.259 459.972 481.448 455.831 473.329 453.469L471.653 459.23ZM489.261 469.977C493.948 475.005 497.003 481.237 498.381 488.783L504.283 487.705C502.719 479.139 499.19 471.83 493.65 465.886L489.261 469.977ZM498.381 488.783C499.758 496.329 499.102 503.239 496.494 509.598L502.045 511.875C505.129 504.357 505.847 496.272 504.283 487.705L498.381 488.783ZM496.482 509.629C493.947 516.011 489.756 521.477 483.82 526.04L487.476 530.797C494.205 525.625 499.095 519.303 502.058 511.844L496.482 509.629ZM483.846 526.019C477.922 530.469 470.683 533.517 462.043 535.094L463.121 540.996C472.534 539.278 480.673 535.907 487.45 530.817L483.846 526.019ZM458.443 515.372C461.364 514.839 463.95 513.635 466.117 511.731L462.156 507.224C460.865 508.358 459.297 509.117 457.365 509.47L458.443 515.372ZM466.117 511.731C468.336 509.781 469.845 507.229 470.719 504.224L464.958 502.548C464.353 504.626 463.395 506.136 462.156 507.224L466.117 511.731ZM470.732 504.177C471.6 501.006 471.623 497.519 470.942 493.792L465.04 494.87C465.6 497.937 465.521 500.487 464.945 502.594L470.732 504.177ZM470.942 493.792C470.249 489.997 469.005 486.737 467.043 484.217L462.308 487.903C463.491 489.422 464.457 491.677 465.04 494.87L470.942 493.792ZM467.074 484.258C465.194 481.755 462.881 479.901 460.116 478.861L458.003 484.477C459.547 485.058 460.977 486.131 462.277 487.862L467.074 484.258ZM460.116 478.861C457.417 477.846 454.572 477.634 451.65 478.167L452.728 484.069C454.659 483.717 456.395 483.872 458.003 484.477L460.116 478.861ZM451.65 478.167C448.729 478.7 446.142 479.904 443.976 481.808L447.937 486.315C449.227 485.18 450.796 484.422 452.728 484.069L451.65 478.167ZM443.976 481.808C441.757 483.758 440.248 486.31 439.374 489.315L445.135 490.991C445.739 488.913 446.698 487.403 447.937 486.315L443.976 481.808ZM439.388 489.266C438.444 492.316 438.431 495.806 439.124 499.601L445.026 498.523C444.444 495.33 444.55 492.88 445.12 491.041L439.388 489.266ZM439.124 499.601C439.804 503.328 441.058 506.582 442.99 509.242L447.845 505.716C446.561 503.948 445.587 501.591 445.026 498.523L439.124 499.601ZM443.018 509.281C444.898 511.783 447.212 513.637 449.977 514.678L452.089 509.062C450.546 508.481 449.116 507.408 447.816 505.677L443.018 509.281ZM449.977 514.678C452.676 515.693 455.521 515.905 458.443 515.372L457.365 509.47C455.433 509.822 453.698 509.667 452.089 509.062L449.977 514.678ZM536.276 519.175L535.39 522.042L535.414 522.049L535.438 522.056L536.276 519.175ZM517.285 507.447L515.09 509.493L515.09 509.493L517.285 507.447ZM509.47 464.643L506.695 463.505L506.695 463.505L509.47 464.643ZM523.119 447.107L521.317 444.708L521.31 444.713L521.304 444.718L523.119 447.107ZM571.165 438.335L570.327 441.216L570.327 441.216L571.165 438.335ZM590.129 449.918L587.912 451.939L587.923 451.951L587.935 451.963L590.129 449.918ZM597.944 492.722L595.168 491.584L595.162 491.599L595.155 491.615L597.944 492.722ZM584.322 510.404L586.123 512.803L586.137 512.793L586.15 512.783L584.322 510.404ZM562.81 491.463L560.83 489.21L560.83 489.21L562.81 491.463ZM566.512 485.372L569.393 486.209L569.4 486.186L569.406 486.163L566.512 485.372ZM563.349 468.046L560.951 469.848L560.966 469.868L560.982 469.889L563.349 468.046ZM557.734 463.655L556.677 466.463L556.677 466.463L557.734 463.655ZM544.63 466.047L542.65 463.794L542.65 463.794L544.63 466.047ZM540.928 472.139L543.794 473.027L543.801 473.002L543.809 472.977L540.928 472.139ZM544.091 489.465L541.664 491.228L541.678 491.247L541.692 491.267L544.091 489.465ZM549.707 493.856L548.65 496.663L548.65 496.663L549.707 493.856ZM560.717 517.08C552.077 518.657 544.228 518.364 537.114 516.295L535.438 522.056C543.576 524.423 552.381 524.701 561.794 522.982L560.717 517.08ZM537.162 516.309C530.087 514.122 524.216 510.484 519.479 505.402L515.09 509.493C520.58 515.382 527.37 519.562 535.39 522.042L537.162 516.309ZM519.479 505.402C514.792 500.374 511.737 494.142 510.359 486.596L504.457 487.674C506.021 496.24 509.55 503.55 515.09 509.493L519.479 505.402ZM510.359 486.596C508.982 479.05 509.638 472.14 512.246 465.781L506.695 463.505C503.612 471.022 502.893 479.107 504.457 487.674L510.359 486.596ZM512.246 465.781C514.879 459.361 519.085 453.94 524.934 449.495L521.304 444.718C514.645 449.778 509.753 456.047 506.695 463.505L512.246 465.781ZM524.92 449.505C530.845 445.055 538.084 442.008 546.724 440.431L545.646 434.528C536.232 436.247 528.094 439.618 521.317 444.708L524.92 449.505ZM546.724 440.431C555.364 438.853 563.212 439.146 570.327 441.216L572.003 435.455C563.864 433.087 555.06 432.81 545.646 434.528L546.724 440.431ZM570.327 441.216C577.46 443.291 583.292 446.871 587.912 451.939L592.346 447.897C586.933 441.958 580.122 437.817 572.003 435.455L570.327 441.216ZM587.935 451.963C592.621 456.991 595.677 463.223 597.054 470.769L602.957 469.691C601.393 461.125 597.864 453.816 592.324 447.872L587.935 451.963ZM597.054 470.769C598.432 478.315 597.776 485.225 595.168 491.584L600.719 493.861C603.802 486.343 604.521 478.258 602.957 469.691L597.054 470.769ZM595.155 491.615C592.621 497.997 588.43 503.463 582.494 508.025L586.15 512.783C592.879 507.611 597.769 501.289 600.732 493.829L595.155 491.615ZM582.52 508.005C576.596 512.455 569.357 515.503 560.717 517.08L561.794 522.982C571.208 521.264 579.347 517.893 586.123 512.803L582.52 508.005ZM557.116 497.358C560.038 496.825 562.624 495.621 564.791 493.717L560.83 489.21C559.539 490.344 557.97 491.103 556.039 491.455L557.116 497.358ZM564.791 493.717C567.009 491.767 568.519 489.215 569.393 486.209L563.632 484.534C563.027 486.612 562.068 488.122 560.83 489.21L564.791 493.717ZM569.406 486.163C570.273 482.992 570.296 479.505 569.616 475.778L563.714 476.856C564.274 479.923 564.195 482.473 563.619 484.58L569.406 486.163ZM569.616 475.778C568.923 471.983 567.678 468.723 565.717 466.203L560.982 469.889C562.165 471.408 563.131 473.663 563.714 476.856L569.616 475.778ZM565.748 466.244C563.868 463.741 561.554 461.887 558.79 460.847L556.677 466.463C558.22 467.044 559.651 468.117 560.951 469.848L565.748 466.244ZM558.79 460.847C556.09 459.832 553.246 459.619 550.324 460.153L551.402 466.055C553.333 465.703 555.069 465.858 556.677 466.463L558.79 460.847ZM550.324 460.153C547.403 460.686 544.816 461.89 542.65 463.794L546.611 468.301C547.901 467.166 549.47 466.408 551.402 466.055L550.324 460.153ZM542.65 463.794C540.431 465.744 538.922 468.296 538.047 471.301L543.809 472.977C544.413 470.898 545.372 469.389 546.611 468.301L542.65 463.794ZM538.062 471.252C537.118 474.302 537.105 477.792 537.798 481.587L543.7 480.509C543.117 477.316 543.224 474.866 543.794 473.027L538.062 471.252ZM537.798 481.587C538.478 485.314 539.732 488.568 541.664 491.228L546.518 487.702C545.235 485.934 544.26 483.577 543.7 480.509L537.798 481.587ZM541.692 491.267C543.572 493.769 545.886 495.623 548.65 496.663L550.763 491.048C549.22 490.467 547.79 489.394 546.49 487.663L541.692 491.267ZM548.65 496.663C551.35 497.679 554.195 497.891 557.116 497.358L556.039 491.455C554.107 491.808 552.372 491.653 550.763 491.048L548.65 496.663ZM725.044 408.738L724.137 411.598L724.171 411.609L724.206 411.619L725.044 408.738ZM738.5 418.167L736.128 420.004L736.141 420.021L736.155 420.038L738.5 418.167ZM754.736 483.205L755.275 486.156L758.226 485.617L757.688 482.666L754.736 483.205ZM721.832 489.212L718.881 489.75L719.42 492.702L722.371 492.163L721.832 489.212ZM710.187 439.434L708.181 441.664L708.206 441.687L708.232 441.709L710.187 439.434ZM698.221 439.813L696.2 437.596L696.2 437.596L698.221 439.813ZM695.286 445.163L692.376 444.432L692.368 444.464L692.361 444.496L695.286 445.163ZM702.614 492.72L703.153 495.671L706.104 495.133L705.565 492.181L702.614 492.72ZM669.71 498.727L666.758 499.266L667.297 502.217L670.248 501.678L669.71 498.727ZM658.21 448.923L656.14 451.094L656.164 451.117L656.189 451.14L658.21 448.923ZM646.098 449.328L644.077 447.111L644.077 447.111L646.098 449.328ZM643.163 454.679L640.253 453.948L640.246 453.979L640.238 454.011L643.163 454.679ZM650.491 502.236L651.03 505.187L653.981 504.648L653.442 501.697L650.491 502.236ZM617.587 508.243L614.636 508.782L615.175 511.733L618.126 511.194L617.587 508.243ZM603.048 428.603L602.509 425.652L599.558 426.191L600.097 429.142L603.048 428.603ZM634.351 422.888L637.302 422.35L636.763 419.398L633.812 419.937L634.351 422.888ZM638.524 445.747L636.818 448.214L642.776 452.333L641.475 445.208L638.524 445.747ZM630.948 440.51L628.067 439.672L627.463 441.748L629.242 442.978L630.948 440.51ZM640.587 424.909L642.528 427.196L642.545 427.182L642.561 427.168L640.587 424.909ZM676.152 419.469L674.918 422.204L674.946 422.217L674.975 422.229L676.152 419.469ZM690.208 434.656L690.276 437.655L694.744 437.555L692.958 433.458L690.208 434.656ZM679.87 434.888L676.952 434.19L676.046 437.975L679.937 437.888L679.87 434.888ZM689.719 417.143L691.804 419.3L691.813 419.292L689.719 417.143ZM708.731 410.855C714.324 409.833 719.44 410.108 724.137 411.598L725.951 405.879C720.214 404.058 714.096 403.776 707.653 404.952L708.731 410.855ZM724.206 411.619C728.839 412.967 732.806 415.713 736.128 420.004L740.872 416.33C736.845 411.13 731.841 407.591 725.882 405.858L724.206 411.619ZM736.155 420.038C739.518 424.254 742.023 430.273 743.492 438.318L749.395 437.241C747.816 428.591 745.025 421.535 740.845 416.296L736.155 420.038ZM743.492 438.318L751.785 483.743L757.688 482.666L749.395 437.241L743.492 438.318ZM754.198 480.253L721.293 486.26L722.371 492.163L755.275 486.156L754.198 480.253ZM724.783 488.673L717.527 448.926L711.625 450.003L718.881 489.75L724.783 488.673ZM717.527 448.926C716.595 443.82 714.98 439.596 712.142 437.158L708.232 441.709C709.438 442.745 710.749 445.208 711.625 450.003L717.527 448.926ZM712.193 437.203C709.486 434.769 706.223 433.798 702.657 434.449L703.735 440.351C705.41 440.045 706.808 440.43 708.181 441.664L712.193 437.203ZM702.657 434.449C700.198 434.898 698.016 435.94 696.2 437.596L700.242 442.03C701.177 441.178 702.312 440.611 703.735 440.351L702.657 434.449ZM696.2 437.596C694.28 439.345 693.06 441.707 692.376 444.432L698.195 445.894C698.672 443.994 699.409 442.789 700.242 442.03L696.2 437.596ZM692.361 444.496C691.73 447.26 691.877 450.612 692.566 454.385L698.468 453.308C697.846 449.898 697.838 447.462 698.21 445.83L692.361 444.496ZM692.566 454.385L699.663 493.259L705.565 492.181L698.468 453.308L692.566 454.385ZM702.075 489.769L669.171 495.776L670.248 501.678L703.153 495.671L702.075 489.769ZM672.661 498.188L665.405 458.441L659.502 459.519L666.758 499.266L672.661 498.188ZM665.405 458.441C664.477 453.358 662.922 449.158 660.231 446.705L656.189 451.14C657.349 452.197 658.623 454.702 659.502 459.519L665.405 458.441ZM660.28 446.751C657.59 444.187 654.221 443.292 650.535 443.964L651.612 449.867C653.556 449.512 654.944 449.954 656.14 451.094L660.28 446.751ZM650.535 443.964C648.075 444.413 645.894 445.455 644.077 447.111L648.119 451.546C649.054 450.693 650.19 450.127 651.612 449.867L650.535 443.964ZM644.077 447.111C642.158 448.861 640.938 451.223 640.253 453.948L646.073 455.409C646.55 453.509 647.287 452.304 648.119 451.546L644.077 447.111ZM640.238 454.011C639.608 456.775 639.754 460.128 640.443 463.901L646.346 462.823C645.723 459.414 645.716 456.977 646.088 455.346L640.238 454.011ZM640.443 463.901L647.54 502.774L653.442 501.697L646.346 462.823L640.443 463.901ZM649.952 499.284L617.048 505.292L618.126 511.194L651.03 505.187L649.952 499.284ZM620.538 507.704L605.999 428.064L600.097 429.142L614.636 508.782L620.538 507.704ZM603.587 431.554L634.889 425.84L633.812 419.937L602.509 425.652L603.587 431.554ZM631.399 423.427L635.572 446.285L641.475 445.208L637.302 422.35L631.399 423.427ZM640.229 443.279L632.654 438.042L629.242 442.978L636.818 448.214L640.229 443.279ZM633.829 441.348C635.601 435.256 638.527 430.593 642.528 427.196L638.645 422.622C633.615 426.892 630.116 432.63 628.067 439.672L633.829 441.348ZM642.561 427.168C646.628 423.614 651.479 421.306 657.191 420.264L656.113 414.361C649.401 415.587 643.542 418.343 638.613 422.65L642.561 427.168ZM657.191 420.264C663.628 419.088 669.505 419.76 674.918 422.204L677.386 416.735C670.776 413.751 663.652 412.985 656.113 414.361L657.191 420.264ZM674.975 422.229C680.203 424.459 684.407 428.855 687.458 435.855L692.958 433.458C689.45 425.407 684.284 419.678 677.33 416.71L674.975 422.229ZM690.141 431.657L679.802 431.889L679.937 437.888L690.276 437.655L690.141 431.657ZM682.787 435.587C684.373 428.961 687.391 423.568 691.804 419.3L687.634 414.986C682.329 420.116 678.78 426.552 676.952 434.19L682.787 435.587ZM691.813 419.292C696.287 414.931 701.887 412.104 708.731 410.855L707.653 404.952C699.743 406.396 693.028 409.729 687.625 414.995L691.813 419.292ZM764.362 441.128L761.482 441.969L762.241 444.565L764.901 444.079L764.362 441.128ZM746.328 379.427L745.789 376.476L742.514 377.074L743.448 380.269L746.328 379.427ZM785.638 372.251L788.629 372.021L788.374 368.702L785.099 369.3L785.638 372.251ZM790.569 436.343L791.107 439.295L793.767 438.809L793.56 436.113L790.569 436.343ZM770.093 476.64L768.421 479.131L768.438 479.143L768.456 479.154L770.093 476.64ZM765.601 452.035L767.994 453.843L767.994 453.843L765.601 452.035ZM793.264 446.984L791.629 449.5L791.646 449.511L791.663 449.522L793.264 446.984ZM797.756 471.59L800.199 473.33L800.2 473.329L797.756 471.59ZM767.241 440.286L749.207 378.586L743.448 380.269L761.482 441.969L767.241 440.286ZM746.866 382.379L786.177 375.202L785.099 369.3L745.789 376.476L746.866 382.379ZM782.647 372.481L787.578 436.573L793.56 436.113L788.629 372.021L782.647 372.481ZM790.03 433.392L763.823 438.177L764.901 444.079L791.107 439.295L790.03 433.392ZM784.316 476.259C779.328 477.17 775.208 476.39 771.729 474.126L768.456 479.154C773.4 482.373 779.122 483.307 785.393 482.162L784.316 476.259ZM771.765 474.149C768.168 471.735 766.112 468.622 765.398 464.709L759.495 465.787C760.518 471.386 763.559 475.868 768.421 479.131L771.765 474.149ZM765.398 464.709C764.663 460.687 765.509 457.133 767.994 453.843L763.207 450.226C759.715 454.848 758.458 460.103 759.495 465.787L765.398 464.709ZM767.994 453.843C770.46 450.579 774.055 448.426 779.067 447.511L777.99 441.608C771.742 442.749 766.719 445.578 763.207 450.226L767.994 453.843ZM779.067 447.511C784.194 446.575 788.294 447.333 791.629 449.5L794.898 444.469C790.039 441.311 784.316 440.453 777.99 441.608L779.067 447.511ZM791.663 449.522C795.151 451.721 797.198 454.747 797.932 458.77L803.834 457.692C802.797 452.008 799.764 447.537 794.864 444.447L791.663 449.522ZM797.932 458.77C798.646 462.683 797.823 466.321 795.311 469.85L800.2 473.329C803.595 468.559 804.857 463.291 803.834 457.692L797.932 458.77ZM795.312 469.849C792.97 473.138 789.418 475.328 784.316 476.259L785.393 482.162C791.744 481.002 796.793 478.112 800.199 473.33L795.312 469.849Z" fill="#582285" mask="url(#path-100-outside-1_195_310)"/>
<g filter="url(#filter3_d_195_310)">
<mask id="mask60_195_310" style="mask-type:luminance" maskUnits="userSpaceOnUse" x="395" y="126" width="61" height="58">
<path d="M395.907 126.554H455.907V183.211H395.907V126.554Z" fill="white"/>
</mask>
<g mask="url(#mask60_195_310)">
<path d="M431.907 180.657L420.164 163.892L401.039 170.227L412.899 153.534L401.157 136.768L420.258 143.224L432.118 126.554L432.047 147.222L451.125 153.702L432 159.989L431.907 180.657Z" fill="#FFF000"/>
</g>
</g>
<g filter="url(#filter4_d_195_310)">
<mask id="mask61_195_310" style="mask-type:luminance" maskUnits="userSpaceOnUse" x="441" y="747" width="61" height="58">
<path d="M441.497 747.53H501.497V804.186H441.497V747.53Z" fill="white"/>
</mask>
<g mask="url(#mask61_195_310)">
<path d="M477.497 801.633L465.755 784.867L446.63 791.202L458.49 774.509L446.747 757.743L465.849 764.199L477.708 747.53L477.638 768.198L496.716 774.678L477.591 780.965L477.497 801.633Z" fill="#FFF000"/>
</g>
</g>
</g>
<defs>
<filter id="filter0_d_195_310" x="75.1145" y="381.485" width="58.0859" height="62.1029" filterUnits="userSpaceOnUse" color-interpolation-filters="sRGB">
<feFlood flood-opacity="0" result="BackgroundImageFix"/>
<feColorMatrix in="SourceAlpha" type="matrix" values="0 0 0 0 0 0 0 0 0 0 0 0 0 0 0 0 0 0 127 0" result="hardAlpha"/>
<feOffset dy="4"/>
<feGaussianBlur stdDeviation="2"/>
<feComposite in2="hardAlpha" operator="out"/>
<feColorMatrix type="matrix" values="0 0 0 0 0 0 0 0 0 0 0 0 0 0 0 0 0 0 1 0"/>
<feBlend mode="normal" in2="BackgroundImageFix" result="effect1_dropShadow_195_310"/>
<feBlend mode="normal" in="SourceGraphic" in2="effect1_dropShadow_195_310" result="shape"/>
</filter>
<filter id="filter1_d_195_310" x="945.345" y="569.015" width="58.0859" height="62.1029" filterUnits="userSpaceOnUse" color-interpolation-filters="sRGB">
<feFlood flood-opacity="0" result="BackgroundImageFix"/>
<feColorMatrix in="SourceAlpha" type="matrix" values="0 0 0 0 0 0 0 0 0 0 0 0 0 0 0 0 0 0 127 0" result="hardAlpha"/>
<feOffset dy="4"/>
<feGaussianBlur stdDeviation="2"/>
<feComposite in2="hardAlpha" operator="out"/>
<feColorMatrix type="matrix" values="0 0 0 0 0 0 0 0 0 0 0 0 0 0 0 0 0 0 1 0"/>
<feBlend mode="normal" in2="BackgroundImageFix" result="effect1_dropShadow_195_310"/>
<feBlend mode="normal" in="SourceGraphic" in2="effect1_dropShadow_195_310" result="shape"/>
</filter>
<filter id="filter2_d_195_310" x="772.36" y="282.648" width="58.0859" height="62.1029" filterUnits="userSpaceOnUse" color-interpolation-filters="sRGB">
<feFlood flood-opacity="0" result="BackgroundImageFix"/>
<feColorMatrix in="SourceAlpha" type="matrix" values="0 0 0 0 0 0 0 0 0 0 0 0 0 0 0 0 0 0 127 0" result="hardAlpha"/>
<feOffset dy="4"/>
<feGaussianBlur stdDeviation="2"/>
<feComposite in2="hardAlpha" operator="out"/>
<feColorMatrix type="matrix" values="0 0 0 0 0 0 0 0 0 0 0 0 0 0 0 0 0 0 1 0"/>
<feBlend mode="normal" in2="BackgroundImageFix" result="effect1_dropShadow_195_310"/>
<feBlend mode="normal" in="SourceGraphic" in2="effect1_dropShadow_195_310" result="shape"/>
</filter>
<filter id="filter3_d_195_310" x="397.039" y="126.554" width="58.0859" height="62.1029" filterUnits="userSpaceOnUse" color-interpolation-filters="sRGB">
<feFlood flood-opacity="0" result="BackgroundImageFix"/>
<feColorMatrix in="SourceAlpha" type="matrix" values="0 0 0 0 0 0 0 0 0 0 0 0 0 0 0 0 0 0 127 0" result="hardAlpha"/>
<feOffset dy="4"/>
<feGaussianBlur stdDeviation="2"/>
<feComposite in2="hardAlpha" operator="out"/>
<feColorMatrix type="matrix" values="0 0 0 0 0 0 0 0 0 0 0 0 0 0 0 0 0 0 1 0"/>
<feBlend mode="normal" in2="BackgroundImageFix" result="effect1_dropShadow_195_310"/>
<feBlend mode="normal" in="SourceGraphic" in2="effect1_dropShadow_195_310" result="shape"/>
</filter>
<filter id="filter4_d_195_310" x="442.63" y="747.53" width="58.0859" height="62.1029" filterUnits="userSpaceOnUse" color-interpolation-filters="sRGB">
<feFlood flood-opacity="0" result="BackgroundImageFix"/>
<feColorMatrix in="SourceAlpha" type="matrix" values="0 0 0 0 0 0 0 0 0 0 0 0 0 0 0 0 0 0 127 0" result="hardAlpha"/>
<feOffset dy="4"/>
<feGaussianBlur stdDeviation="2"/>
<feComposite in2="hardAlpha" operator="out"/>
<feColorMatrix type="matrix" values="0 0 0 0 0 0 0 0 0 0 0 0 0 0 0 0 0 0 1 0"/>
<feBlend mode="normal" in2="BackgroundImageFix" result="effect1_dropShadow_195_310"/>
<feBlend mode="normal" in="SourceGraphic" in2="effect1_dropShadow_195_310" result="shape"/>
</filter>
<clipPath id="clip0_195_310">
<rect width="1103" height="904" fill="white"/>
</clipPath>
</defs>
</svg>
