<svg xmlns="http://www.w3.org/2000/svg" width="605" height="855" fill="none"><g clip-path="url(#a)"><mask id="b" width="134" height="140" x="419" y="603" maskUnits="userSpaceOnUse" style="mask-type:luminance"><path fill="#fff" d="m460 603 93 36-41 104-92-36 40-104Z"/></mask><g mask="url(#b)"><mask id="c" width="686" height="726" x="52" y="17" maskUnits="userSpaceOnUse" style="mask-type:luminance"><path fill="#fff" d="m279 17 459 199-227 526L52 544 279 17Z"/></mask><g mask="url(#c)"><mask id="d" width="686" height="726" x="52" y="17" maskUnits="userSpaceOnUse" style="mask-type:luminance"><path fill="#fff" d="m279 17 459 199-227 526L52 544 279 17Z"/></mask><g mask="url(#d)"><mask id="e" width="686" height="726" x="52" y="17" maskUnits="userSpaceOnUse" style="mask-type:luminance"><path fill="#fff" d="m279 17 459 199-227 526L52 544 279 17Z"/></mask><g mask="url(#e)"><path fill="#FECC27" d="M503 621c7 12 7 20 10 34l10 42 2 6c0 6-5 12-10 16-6 3-11 5-17 6-5 2-9 3-14 3-7 0-8-2-12-8-8-12-16-45-17-49-3-10-6-19-7-31l2-7 3-2c15-7 25-12 41-14"/></g></g></g></g><mask id="f" width="122" height="118" x="419" y="624" maskUnits="userSpaceOnUse" style="mask-type:luminance"><path fill="#fff" d="m452 625 88 34-32 82-88-34 32-82Z"/></mask><g mask="url(#f)"><mask id="g" width="686" height="726" x="52" y="17" maskUnits="userSpaceOnUse" style="mask-type:luminance"><path fill="#fff" d="m279 17 459 199-227 526L52 544 279 17Z"/></mask><g mask="url(#g)"><mask id="h" width="686" height="726" x="52" y="17" maskUnits="userSpaceOnUse" style="mask-type:luminance"><path fill="#fff" d="m279 17 459 199-227 526L52 544 279 17Z"/></mask><g mask="url(#h)"><mask id="i" width="686" height="726" x="52" y="17" maskUnits="userSpaceOnUse" style="mask-type:luminance"><path fill="#fff" d="m279 17 459 199-227 526L52 544 279 17Z"/></mask><g mask="url(#i)"><path fill="#E2B127" d="M484 728c-7 0-8-1-12-8-8-12-16-45-17-49-3-10-6-19-6-31-1-3 0-5 1-7l3-2h1l-1 5c1 13 4 21 7 32 1 3 9 37 17 49 4 6 5 8 12 7l14-2 14-5-2 2c-6 3-11 5-17 6-5 2-9 3-14 3Z"/></g></g></g></g><mask id="j" width="70" height="69" x="443" y="598" maskUnits="userSpaceOnUse" style="mask-type:luminance"><path fill="#fff" d="m462 599 50 20-18 47-50-20 18-47Z"/></mask><g mask="url(#j)"><mask id="k" width="686" height="726" x="52" y="17" maskUnits="userSpaceOnUse" style="mask-type:luminance"><path fill="#fff" d="m279 17 459 199-227 526L52 544 279 17Z"/></mask><g mask="url(#k)"><mask id="l" width="686" height="726" x="52" y="17" maskUnits="userSpaceOnUse" style="mask-type:luminance"><path fill="#fff" d="m279 17 459 199-227 526L52 544 279 17Z"/></mask><g mask="url(#l)"><mask id="m" width="686" height="726" x="52" y="17" maskUnits="userSpaceOnUse" style="mask-type:luminance"><path fill="#fff" d="m279 17 459 199-227 526L52 544 279 17Z"/></mask><g mask="url(#m)"><path fill="#D1A024" d="M464 652c12 1 26-3 32-7 4-3 7-5 9-11 3-7-1-15-7-19-6-3-12-2-18-1-8 2-16 6-23 11-4 2-7 6-8 11a15 15 0 0 0 6 13c4 2 8 3 13 3 4 0 7 0 12-2"/></g></g></g></g><mask id="n" width="181" height="207" x="143" y="190" maskUnits="userSpaceOnUse" style="mask-type:luminance"><path fill="#fff" d="m206 191 117 45-62 160-118-46 63-159Z"/></mask><g mask="url(#n)"><mask id="o" width="686" height="726" x="52" y="17" maskUnits="userSpaceOnUse" style="mask-type:luminance"><path fill="#fff" d="m279 17 459 199-227 526L52 544 279 17Z"/></mask><g mask="url(#o)"><mask id="p" width="686" height="726" x="52" y="17" maskUnits="userSpaceOnUse" style="mask-type:luminance"><path fill="#fff" d="m279 17 459 199-227 526L52 544 279 17Z"/></mask><g mask="url(#p)"><mask id="q" width="686" height="726" x="52" y="17" maskUnits="userSpaceOnUse" style="mask-type:luminance"><path fill="#fff" d="m279 17 459 199-227 526L52 544 279 17Z"/></mask><g mask="url(#q)"><path fill="#2A4887" d="M208 238c9 65 12 66 27 123 1 3 9 32 21 30 16-3 4-34 1-50-9-51-13-60-21-100-1-5-5-29-12-40-2-4-9-8-16-5-8 5-1 32 0 42"/><path fill="#013251" d="M256 391c-12 2-20-27-21-30-15-57-18-58-27-123-1-10-8-37 0-42l6-1c-8 5-1 32 0 42 8 65 11 66 27 123 1 3 8 28 18 30l-3 1Z"/></g></g></g></g><mask id="r" width="178" height="210" x="157" y="186" maskUnits="userSpaceOnUse" style="mask-type:luminance"><path fill="#fff" d="m222 187 113 44-64 164-113-44 64-164Z"/></mask><g mask="url(#r)"><mask id="s" width="686" height="726" x="52" y="17" maskUnits="userSpaceOnUse" style="mask-type:luminance"><path fill="#fff" d="m279 17 459 199-227 526L52 544 279 17Z"/></mask><g mask="url(#s)"><mask id="t" width="686" height="726" x="52" y="17" maskUnits="userSpaceOnUse" style="mask-type:luminance"><path fill="#fff" d="m279 17 459 199-227 526L52 544 279 17Z"/></mask><g mask="url(#t)"><mask id="u" width="686" height="726" x="52" y="17" maskUnits="userSpaceOnUse" style="mask-type:luminance"><path fill="#fff" d="m279 17 459 199-227 526L52 544 279 17Z"/></mask><g mask="url(#u)"><path fill="#2A4887" d="M220 236c9 64 12 66 27 122 1 4 10 33 21 30 16-3 4-33 1-49-9-51-13-61-21-100-1-5-5-29-12-41-2-4-9-8-15-4-9 5-2 31-1 42Z"/><path fill="#013251" d="M268 389c-11 2-20-27-21-31-15-56-18-58-27-122-1-10-8-37 1-42 2-1 4-2 6-1h-1c-8 5-1 31 0 41 8 65 11 67 27 123 1 3 8 29 18 30l-3 2Z"/></g></g></g></g><mask id="v" width="181" height="207" x="169" y="185" maskUnits="userSpaceOnUse" style="mask-type:luminance"><path fill="#fff" d="m232 186 117 46-62 159-118-45 63-160Z"/></mask><g mask="url(#v)"><mask id="w" width="686" height="726" x="52" y="17" maskUnits="userSpaceOnUse" style="mask-type:luminance"><path fill="#fff" d="m279 17 459 199-227 526L52 544 279 17Z"/></mask><g mask="url(#w)"><mask id="x" width="686" height="726" x="52" y="17" maskUnits="userSpaceOnUse" style="mask-type:luminance"><path fill="#fff" d="m279 17 459 199-227 526L52 544 279 17Z"/></mask><g mask="url(#x)"><mask id="y" width="686" height="726" x="52" y="17" maskUnits="userSpaceOnUse" style="mask-type:luminance"><path fill="#fff" d="m279 17 459 199-227 526L52 544 279 17Z"/></mask><g mask="url(#y)"><path fill="#2A4887" d="M233 233c8 65 11 66 27 123 1 3 9 32 20 30 17-3 4-34 1-49-9-52-13-61-21-100-1-6-5-29-12-41-2-4-9-8-15-5-8 5-2 32-1 42"/></g></g></g></g><mask id="z" width="176" height="205" x="169" y="185" maskUnits="userSpaceOnUse" style="mask-type:luminance"><path fill="#fff" d="m232 186 113 44-62 160-114-44 63-160Z"/></mask><g mask="url(#z)"><mask id="A" width="686" height="726" x="52" y="17" maskUnits="userSpaceOnUse" style="mask-type:luminance"><path fill="#fff" d="m279 17 459 199-227 526L52 544 279 17Z"/></mask><g mask="url(#A)"><mask id="B" width="686" height="726" x="52" y="17" maskUnits="userSpaceOnUse" style="mask-type:luminance"><path fill="#fff" d="m279 17 459 199-227 526L52 544 279 17Z"/></mask><g mask="url(#B)"><mask id="C" width="686" height="726" x="52" y="17" maskUnits="userSpaceOnUse" style="mask-type:luminance"><path fill="#fff" d="m279 17 459 199-227 526L52 544 279 17Z"/></mask><g mask="url(#C)"><path fill="#013251" d="M280 386c-11 2-19-27-20-30-16-57-19-58-27-123-2-10-8-37 0-42l6-1h-1c-8 5-1 32 0 42 9 65 11 66 27 123 1 3 8 28 18 30l-3 1Z"/></g></g></g></g><mask id="D" width="182" height="211" x="179" y="180" maskUnits="userSpaceOnUse" style="mask-type:luminance"><path fill="#fff" d="m243 181 118 45-64 164-118-46 64-163Z"/></mask><g mask="url(#D)"><mask id="E" width="686" height="726" x="52" y="17" maskUnits="userSpaceOnUse" style="mask-type:luminance"><path fill="#fff" d="m279 17 459 199-227 526L52 544 279 17Z"/></mask><g mask="url(#E)"><mask id="F" width="686" height="726" x="52" y="17" maskUnits="userSpaceOnUse" style="mask-type:luminance"><path fill="#fff" d="m279 17 459 199-227 526L52 544 279 17Z"/></mask><g mask="url(#F)"><mask id="G" width="686" height="726" x="52" y="17" maskUnits="userSpaceOnUse" style="mask-type:luminance"><path fill="#fff" d="m279 17 459 199-227 526L52 544 279 17Z"/></mask><g mask="url(#G)"><path fill="#2A4887" d="M245 231c8 64 11 66 27 123 1 3 9 32 20 30 17-4 4-34 1-50-9-51-13-61-21-100-1-5-5-29-11-40-3-5-10-9-16-5-8 5-2 32 0 42"/><path fill="#013251" d="M292 384c-11 2-19-27-20-30-16-57-19-59-27-123-2-10-8-37 0-42 2-1 4-2 6-1-9 5-2 31-1 42 9 64 12 66 27 122 1 3 8 29 18 30l-3 2Z"/></g></g></g></g><mask id="H" width="180" height="206" x="191" y="179" maskUnits="userSpaceOnUse" style="mask-type:luminance"><path fill="#fff" d="m253 179 118 46-62 160-118-46 62-160Z"/></mask><g mask="url(#H)"><mask id="I" width="686" height="726" x="52" y="17" maskUnits="userSpaceOnUse" style="mask-type:luminance"><path fill="#fff" d="m279 17 459 199-227 526L52 544 279 17Z"/></mask><g mask="url(#I)"><mask id="J" width="686" height="726" x="52" y="17" maskUnits="userSpaceOnUse" style="mask-type:luminance"><path fill="#fff" d="m279 17 459 199-227 526L52 544 279 17Z"/></mask><g mask="url(#J)"><mask id="K" width="686" height="726" x="52" y="17" maskUnits="userSpaceOnUse" style="mask-type:luminance"><path fill="#fff" d="m279 17 459 199-227 526L52 544 279 17Z"/></mask><g mask="url(#K)"><path fill="#2A4887" d="M256 228c9 65 12 67 27 123 1 4 10 33 21 30 16-3 4-33 1-49-9-51-13-61-21-100-1-6-5-29-12-41-2-4-9-8-15-4-9 5-2 31-1 41Z"/><path fill="#013251" d="M304 381c-11 3-20-26-21-30-15-56-18-58-27-123-1-10-8-36 1-41l6-2-1 1c-8 4-1 31 0 41 8 65 11 66 27 123 1 3 8 28 18 30l-3 1Z"/></g></g></g></g><mask id="L" width="182" height="211" x="205" y="175" maskUnits="userSpaceOnUse" style="mask-type:luminance"><path fill="#fff" d="m269 176 118 46-64 164-118-46 64-164Z"/></mask><g mask="url(#L)"><mask id="M" width="686" height="726" x="52" y="17" maskUnits="userSpaceOnUse" style="mask-type:luminance"><path fill="#fff" d="m279 17 459 199-227 526L52 544 279 17Z"/></mask><g mask="url(#M)"><mask id="N" width="686" height="726" x="52" y="17" maskUnits="userSpaceOnUse" style="mask-type:luminance"><path fill="#fff" d="m279 17 459 199-227 526L52 544 279 17Z"/></mask><g mask="url(#N)"><mask id="O" width="686" height="726" x="52" y="17" maskUnits="userSpaceOnUse" style="mask-type:luminance"><path fill="#fff" d="m279 17 459 199-227 526L52 544 279 17Z"/></mask><g mask="url(#O)"><path fill="#2A4887" d="M269 226c8 65 11 66 27 123 1 3 9 32 20 30 17-3 4-34 1-50-9-51-13-60-21-99-1-6-5-30-12-41-2-4-9-8-15-5-8 5-2 32 0 42Z"/></g></g></g></g><mask id="P" width="177" height="204" x="205" y="180" maskUnits="userSpaceOnUse" style="mask-type:luminance"><path fill="#fff" d="m268 180 113 44-62 160-114-44 63-160Z"/></mask><g mask="url(#P)"><mask id="Q" width="686" height="726" x="52" y="17" maskUnits="userSpaceOnUse" style="mask-type:luminance"><path fill="#fff" d="m279 17 459 199-227 526L52 544 279 17Z"/></mask><g mask="url(#Q)"><mask id="R" width="686" height="726" x="52" y="17" maskUnits="userSpaceOnUse" style="mask-type:luminance"><path fill="#fff" d="m279 17 459 199-227 526L52 544 279 17Z"/></mask><g mask="url(#R)"><mask id="S" width="686" height="726" x="52" y="17" maskUnits="userSpaceOnUse" style="mask-type:luminance"><path fill="#fff" d="m279 17 459 199-227 526L52 544 279 17Z"/></mask><g mask="url(#S)"><path fill="#013251" d="M316 379c-11 2-19-27-20-30-16-57-19-58-27-123-2-10-8-37 0-42l6-1h-1c-8 5-1 32 0 42 9 65 12 66 27 123 1 3 8 28 18 30l-3 1Z"/></g></g></g></g><mask id="T" width="180" height="207" x="217" y="174" maskUnits="userSpaceOnUse" style="mask-type:luminance"><path fill="#fff" d="m280 175 117 46-62 159-118-46 63-159Z"/></mask><g mask="url(#T)"><mask id="U" width="686" height="726" x="52" y="17" maskUnits="userSpaceOnUse" style="mask-type:luminance"><path fill="#fff" d="m279 17 459 199-227 526L52 544 279 17Z"/></mask><g mask="url(#U)"><mask id="V" width="686" height="726" x="52" y="17" maskUnits="userSpaceOnUse" style="mask-type:luminance"><path fill="#fff" d="m279 17 459 199-227 526L52 544 279 17Z"/></mask><g mask="url(#V)"><mask id="W" width="686" height="726" x="52" y="17" maskUnits="userSpaceOnUse" style="mask-type:luminance"><path fill="#fff" d="m279 17 459 199-227 526L52 544 279 17Z"/></mask><g mask="url(#W)"><path fill="#2A4887" d="M281 224c8 64 11 66 27 122 1 4 9 33 20 31 17-4 4-34 1-50-9-51-13-61-21-100-1-5-5-29-12-41-2-4-9-8-15-4-8 5-2 31 0 42Z"/></g></g></g></g><mask id="X" width="176" height="205" x="217" y="174" maskUnits="userSpaceOnUse" style="mask-type:luminance"><path fill="#fff" d="m280 175 113 44-62 160-114-45 63-159Z"/></mask><g mask="url(#X)"><mask id="Y" width="686" height="726" x="52" y="17" maskUnits="userSpaceOnUse" style="mask-type:luminance"><path fill="#fff" d="m279 17 459 199-227 526L52 544 279 17Z"/></mask><g mask="url(#Y)"><mask id="Z" width="686" height="726" x="52" y="17" maskUnits="userSpaceOnUse" style="mask-type:luminance"><path fill="#fff" d="m279 17 459 199-227 526L52 544 279 17Z"/></mask><g mask="url(#Z)"><mask id="aa" width="686" height="726" x="52" y="17" maskUnits="userSpaceOnUse" style="mask-type:luminance"><path fill="#fff" d="m279 17 459 199-227 526L52 544 279 17Z"/></mask><g mask="url(#aa)"><path fill="#013251" d="M328 377c-11 2-19-27-20-31-16-56-19-58-27-122-2-10-8-37 0-42 2-1 4-2 6-1-9 5-2 31-1 41 9 65 12 67 27 123 1 3 8 29 18 30l-3 2Z"/></g></g></g></g><mask id="ab" width="181" height="207" x="227" y="173" maskUnits="userSpaceOnUse" style="mask-type:luminance"><path fill="#fff" d="m290 174 117 46-62 159-118-46 63-159Z"/></mask><g mask="url(#ab)"><mask id="ac" width="686" height="726" x="52" y="17" maskUnits="userSpaceOnUse" style="mask-type:luminance"><path fill="#fff" d="m279 17 459 199-227 526L52 544 279 17Z"/></mask><g mask="url(#ac)"><mask id="ad" width="686" height="726" x="52" y="17" maskUnits="userSpaceOnUse" style="mask-type:luminance"><path fill="#fff" d="m279 17 459 199-227 526L52 544 279 17Z"/></mask><g mask="url(#ad)"><mask id="ae" width="686" height="726" x="52" y="17" maskUnits="userSpaceOnUse" style="mask-type:luminance"><path fill="#fff" d="m279 17 459 199-227 526L52 544 279 17Z"/></mask><g mask="url(#ae)"><path fill="#2A4887" d="M293 221c8 65 11 66 27 123 1 3 9 32 20 30 17-3 5-34 2-49-10-52-14-61-22-100-1-6-5-29-11-41-3-4-10-8-16-5-8 5-1 32 0 42"/><path fill="#013251" d="M340 374c-11 2-19-27-20-30-16-57-19-58-27-123-1-10-8-37 0-42l6-1c-9 5-2 32-1 42 9 65 12 66 27 123 1 3 8 28 18 30l-3 1Z"/></g></g></g></g><mask id="af" width="281" height="283" x="268" y="111" maskUnits="userSpaceOnUse" style="mask-type:luminance"><path fill="#fff" d="m348 112 201 78-79 203-202-78 80-203Z"/></mask><g mask="url(#af)"><mask id="ag" width="686" height="726" x="52" y="17" maskUnits="userSpaceOnUse" style="mask-type:luminance"><path fill="#fff" d="m279 17 459 199-227 526L52 544 279 17Z"/></mask><g mask="url(#ag)"><mask id="ah" width="686" height="726" x="52" y="17" maskUnits="userSpaceOnUse" style="mask-type:luminance"><path fill="#fff" d="m279 17 459 199-227 526L52 544 279 17Z"/></mask><g mask="url(#ah)"><mask id="ai" width="686" height="726" x="52" y="17" maskUnits="userSpaceOnUse" style="mask-type:luminance"><path fill="#fff" d="m279 17 459 199-227 526L52 544 279 17Z"/></mask><g mask="url(#ai)"><path fill="#2A4887" d="M464 164h-72l-11 1-7 4c-17 10-34 22-50 33-5 4-11 8-14 14-3 7-2 15-1 23a611 611 0 0 0 22 98c3 1 5 3 8 3 53 12 111 3 157-28 2-1 4-3 5-6l1-6c3-32-9-64-20-95l-15-44"/></g></g></g></g><mask id="aj" width="249" height="201" x="268" y="193" maskUnits="userSpaceOnUse" style="mask-type:luminance"><path fill="#fff" d="m316 194 201 78-47 121-202-78 48-121Z"/></mask><g mask="url(#aj)"><mask id="ak" width="686" height="726" x="52" y="17" maskUnits="userSpaceOnUse" style="mask-type:luminance"><path fill="#fff" d="m279 17 459 199-227 526L52 544 279 17Z"/></mask><g mask="url(#ak)"><mask id="al" width="686" height="726" x="52" y="17" maskUnits="userSpaceOnUse" style="mask-type:luminance"><path fill="#fff" d="m279 17 459 199-227 526L52 544 279 17Z"/></mask><g mask="url(#al)"><mask id="am" width="686" height="726" x="52" y="17" maskUnits="userSpaceOnUse" style="mask-type:luminance"><path fill="#fff" d="m279 17 459 199-227 526L52 544 279 17Z"/></mask><g mask="url(#am)"><path fill="#013251" d="m340 340-8-3c-2-3-4-6-4-10-8-29-14-58-18-88-1-8-2-16 1-23 3-6 9-10 14-14l3-2-6 7c-3 7-2 15-1 23a609 609 0 0 0 23 98c2 2 4 3 7 3 51 12 106 4 151-24-2 2-3 4-6 5-45 31-103 40-156 28Z"/></g></g></g></g><mask id="an" width="183" height="211" x="370" y="135" maskUnits="userSpaceOnUse" style="mask-type:luminance"><path fill="#fff" d="m435 136 117 46-64 164-117-46 64-164Z"/></mask><g mask="url(#an)"><mask id="ao" width="686" height="726" x="52" y="17" maskUnits="userSpaceOnUse" style="mask-type:luminance"><path fill="#fff" d="m279 17 459 199-227 526L52 544 279 17Z"/></mask><g mask="url(#ao)"><mask id="ap" width="686" height="726" x="52" y="17" maskUnits="userSpaceOnUse" style="mask-type:luminance"><path fill="#fff" d="m279 17 459 199-227 526L52 544 279 17Z"/></mask><g mask="url(#ap)"><mask id="aq" width="686" height="726" x="52" y="17" maskUnits="userSpaceOnUse" style="mask-type:luminance"><path fill="#fff" d="m279 17 459 199-227 526L52 544 279 17Z"/></mask><g mask="url(#aq)"><path fill="#2A4887" d="M437 187c9 65 11 66 27 123 1 3 9 32 20 30 17-3 5-33 2-49-10-51-14-61-22-100-1-6-5-29-11-41-3-4-10-8-16-4-8 5-1 31 0 41Z"/></g></g></g></g><mask id="ar" width="181" height="206" x="370" y="140" maskUnits="userSpaceOnUse" style="mask-type:luminance"><path fill="#fff" d="m433 140 118 46-63 160-117-46 62-160Z"/></mask><g mask="url(#ar)"><mask id="as" width="686" height="726" x="52" y="17" maskUnits="userSpaceOnUse" style="mask-type:luminance"><path fill="#fff" d="m279 17 459 199-227 526L52 544 279 17Z"/></mask><g mask="url(#as)"><mask id="at" width="686" height="726" x="52" y="17" maskUnits="userSpaceOnUse" style="mask-type:luminance"><path fill="#fff" d="m279 17 459 199-227 526L52 544 279 17Z"/></mask><g mask="url(#at)"><mask id="au" width="686" height="726" x="52" y="17" maskUnits="userSpaceOnUse" style="mask-type:luminance"><path fill="#fff" d="m279 17 459 199-227 526L52 544 279 17Z"/></mask><g mask="url(#au)"><path fill="#013251" d="M484 340c-11 2-19-27-20-30-16-57-18-58-27-123-1-10-8-36 0-41 2-2 4-2 6-2-8 5-2 32 0 42 8 65 11 66 27 123 0 3 7 28 17 30l-3 1Z"/></g></g></g></g><mask id="av" width="181" height="206" x="386" y="136" maskUnits="userSpaceOnUse" style="mask-type:luminance"><path fill="#fff" d="m449 136 118 46-63 160-117-46 62-160Z"/></mask><g mask="url(#av)"><mask id="aw" width="686" height="726" x="52" y="17" maskUnits="userSpaceOnUse" style="mask-type:luminance"><path fill="#fff" d="m279 17 459 199-227 526L52 544 279 17Z"/></mask><g mask="url(#aw)"><mask id="ax" width="686" height="726" x="52" y="17" maskUnits="userSpaceOnUse" style="mask-type:luminance"><path fill="#fff" d="m279 17 459 199-227 526L52 544 279 17Z"/></mask><g mask="url(#ax)"><mask id="ay" width="686" height="726" x="52" y="17" maskUnits="userSpaceOnUse" style="mask-type:luminance"><path fill="#fff" d="m279 17 459 199-227 526L52 544 279 17Z"/></mask><g mask="url(#ay)"><path fill="#2A4887" d="M449 185c9 65 11 66 27 123 1 3 9 32 20 30 17-3 5-34 2-50-9-51-13-60-21-100-2-5-5-29-12-40-2-4-10-8-16-5-8 5-1 32 0 42Z"/></g></g></g></g><mask id="az" width="177" height="205" x="386" y="136" maskUnits="userSpaceOnUse" style="mask-type:luminance"><path fill="#fff" d="m449 136 113 45-62 159-113-44 62-160Z"/></mask><g mask="url(#az)"><mask id="aA" width="686" height="726" x="52" y="17" maskUnits="userSpaceOnUse" style="mask-type:luminance"><path fill="#fff" d="m279 17 459 199-227 526L52 544 279 17Z"/></mask><g mask="url(#aA)"><mask id="aB" width="686" height="726" x="52" y="17" maskUnits="userSpaceOnUse" style="mask-type:luminance"><path fill="#fff" d="m279 17 459 199-227 526L52 544 279 17Z"/></mask><g mask="url(#aB)"><mask id="aC" width="686" height="726" x="52" y="17" maskUnits="userSpaceOnUse" style="mask-type:luminance"><path fill="#fff" d="m279 17 459 199-227 526L52 544 279 17Z"/></mask><g mask="url(#aC)"><path fill="#013251" d="M496 338c-11 2-19-27-20-30-16-57-18-58-27-123-1-10-8-37 0-42l6-1c-8 5-2 32 0 42 8 65 11 66 27 123 1 3 8 28 18 30l-4 1Z"/></g></g></g></g><mask id="aD" width="181" height="206" x="396" y="135" maskUnits="userSpaceOnUse" style="mask-type:luminance"><path fill="#fff" d="m459 135 118 46-63 160-117-46 62-160Z"/></mask><g mask="url(#aD)"><mask id="aE" width="686" height="726" x="52" y="17" maskUnits="userSpaceOnUse" style="mask-type:luminance"><path fill="#fff" d="m279 17 459 199-227 526L52 544 279 17Z"/></mask><g mask="url(#aE)"><mask id="aF" width="686" height="726" x="52" y="17" maskUnits="userSpaceOnUse" style="mask-type:luminance"><path fill="#fff" d="m279 17 459 199-227 526L52 544 279 17Z"/></mask><g mask="url(#aF)"><mask id="aG" width="686" height="726" x="52" y="17" maskUnits="userSpaceOnUse" style="mask-type:luminance"><path fill="#fff" d="m279 17 459 199-227 526L52 544 279 17Z"/></mask><g mask="url(#aG)"><path fill="#2A4887" d="M461 182c9 65 12 67 27 123 1 4 9 33 21 30 16-3 4-33 1-49-9-51-13-61-21-100-1-6-5-29-12-41-2-4-9-8-15-4-9 5-2 31-1 41Z"/></g></g></g></g><mask id="aH" width="177" height="205" x="396" y="135" maskUnits="userSpaceOnUse" style="mask-type:luminance"><path fill="#fff" d="m459 135 114 45-63 159-113-44 62-160Z"/></mask><g mask="url(#aH)"><mask id="aI" width="686" height="726" x="52" y="17" maskUnits="userSpaceOnUse" style="mask-type:luminance"><path fill="#fff" d="m279 17 459 199-227 526L52 544 279 17Z"/></mask><g mask="url(#aI)"><mask id="aJ" width="686" height="726" x="52" y="17" maskUnits="userSpaceOnUse" style="mask-type:luminance"><path fill="#fff" d="m279 17 459 199-227 526L52 544 279 17Z"/></mask><g mask="url(#aJ)"><mask id="aK" width="686" height="726" x="52" y="17" maskUnits="userSpaceOnUse" style="mask-type:luminance"><path fill="#fff" d="m279 17 459 199-227 526L52 544 279 17Z"/></mask><g mask="url(#aK)"><path fill="#013251" d="M509 335c-12 3-20-26-21-30-15-56-18-58-27-123-1-10-8-36 1-41l6-2-1 1c-8 5-1 31 0 41 8 65 11 67 27 123 1 3 8 28 18 30l-3 1Z"/></g></g></g></g><mask id="aL" width="183" height="210" x="406" y="130" maskUnits="userSpaceOnUse" style="mask-type:luminance"><path fill="#fff" d="m471 130 117 46-64 164-117-46 64-164Z"/></mask><g mask="url(#aL)"><mask id="aM" width="686" height="726" x="52" y="17" maskUnits="userSpaceOnUse" style="mask-type:luminance"><path fill="#fff" d="m279 17 459 199-227 526L52 544 279 17Z"/></mask><g mask="url(#aM)"><mask id="aN" width="686" height="726" x="52" y="17" maskUnits="userSpaceOnUse" style="mask-type:luminance"><path fill="#fff" d="m279 17 459 199-227 526L52 544 279 17Z"/></mask><g mask="url(#aN)"><mask id="aO" width="686" height="726" x="52" y="17" maskUnits="userSpaceOnUse" style="mask-type:luminance"><path fill="#fff" d="m279 17 459 199-227 526L52 544 279 17Z"/></mask><g mask="url(#aO)"><path fill="#2A4887" d="M473 180c9 65 12 66 28 123 0 3 9 32 20 30 16-3 4-34 1-49-9-52-13-61-21-100-1-6-5-29-12-41-2-4-9-8-15-5-9 5-2 32-1 42"/><path fill="#013251" d="M521 333c-11 2-20-27-20-30-16-57-19-58-28-123-1-10-8-37 1-42l6-1h-1c-8 5-1 32 0 42 9 65 11 66 27 123 1 3 8 28 18 30l-3 1Z"/></g></g></g></g><mask id="aP" width="177" height="205" x="422" y="130" maskUnits="userSpaceOnUse" style="mask-type:luminance"><path fill="#fff" d="m485 131 114 44-63 160-113-45 62-159Z"/></mask><g mask="url(#aP)"><mask id="aQ" width="686" height="726" x="52" y="17" maskUnits="userSpaceOnUse" style="mask-type:luminance"><path fill="#fff" d="m279 17 459 199-227 526L52 544 279 17Z"/></mask><g mask="url(#aQ)"><mask id="aR" width="686" height="726" x="52" y="17" maskUnits="userSpaceOnUse" style="mask-type:luminance"><path fill="#fff" d="m279 17 459 199-227 526L52 544 279 17Z"/></mask><g mask="url(#aR)"><mask id="aS" width="686" height="726" x="52" y="17" maskUnits="userSpaceOnUse" style="mask-type:luminance"><path fill="#fff" d="m279 17 459 199-227 526L52 544 279 17Z"/></mask><g mask="url(#aS)"><path fill="#2A4887" d="M485 178c9 64 12 66 27 123 1 3 9 32 20 30 17-4 5-34 2-50-9-51-13-61-21-100-2-5-5-29-12-40-2-5-10-9-16-5-8 5-1 32 0 42"/><path fill="#013251" d="M532 331c-11 2-19-27-20-30-15-57-18-59-27-123-1-10-8-37 0-42 2-1 4-2 6-1-8 5-2 31 0 42 8 64 11 66 27 123 1 3 8 28 18 30l-4 1Z"/></g></g></g></g><mask id="aT" width="182" height="211" x="433" y="125" maskUnits="userSpaceOnUse" style="mask-type:luminance"><path fill="#fff" d="m497 125 117 46-63 164-118-46 64-164Z"/></mask><g mask="url(#aT)"><mask id="aU" width="686" height="726" x="52" y="17" maskUnits="userSpaceOnUse" style="mask-type:luminance"><path fill="#fff" d="m279 17 459 199-227 526L52 544 279 17Z"/></mask><g mask="url(#aU)"><mask id="aV" width="686" height="726" x="52" y="17" maskUnits="userSpaceOnUse" style="mask-type:luminance"><path fill="#fff" d="m279 17 459 199-227 526L52 544 279 17Z"/></mask><g mask="url(#aV)"><mask id="aW" width="686" height="726" x="52" y="17" maskUnits="userSpaceOnUse" style="mask-type:luminance"><path fill="#fff" d="m279 17 459 199-227 526L52 544 279 17Z"/></mask><g mask="url(#aW)"><path fill="#2A4887" d="M497 175c9 65 12 67 27 123 1 4 9 33 21 30 16-3 4-33 1-49-9-51-13-61-21-100-1-6-5-29-12-41-2-4-9-8-15-4-9 5-2 31-1 41"/></g></g></g></g><mask id="aX" width="178" height="209" x="433" y="125" maskUnits="userSpaceOnUse" style="mask-type:luminance"><path fill="#fff" d="m497 125 113 45-64 164-113-45 64-164Z"/></mask><g mask="url(#aX)"><mask id="aY" width="686" height="726" x="52" y="17" maskUnits="userSpaceOnUse" style="mask-type:luminance"><path fill="#fff" d="m279 17 459 199-227 526L52 544 279 17Z"/></mask><g mask="url(#aY)"><mask id="aZ" width="686" height="726" x="52" y="17" maskUnits="userSpaceOnUse" style="mask-type:luminance"><path fill="#fff" d="m279 17 459 199-227 526L52 544 279 17Z"/></mask><g mask="url(#aZ)"><mask id="ba" width="686" height="726" x="52" y="17" maskUnits="userSpaceOnUse" style="mask-type:luminance"><path fill="#fff" d="m279 17 459 199-227 526L52 544 279 17Z"/></mask><g mask="url(#ba)"><path fill="#013251" d="M545 328c-12 3-20-27-21-30-15-56-18-58-27-123-1-10-8-36 1-41l6-2-1 1c-8 5-1 31 0 41 8 65 11 66 27 123 1 3 8 28 18 30l-3 1Z"/></g></g></g></g><mask id="bb" width="181" height="206" x="444" y="124" maskUnits="userSpaceOnUse" style="mask-type:luminance"><path fill="#fff" d="m507 124 118 46-63 160-117-46 62-160Z"/></mask><g mask="url(#bb)"><mask id="bc" width="686" height="726" x="52" y="17" maskUnits="userSpaceOnUse" style="mask-type:luminance"><path fill="#fff" d="m279 17 459 199-227 526L52 544 279 17Z"/></mask><g mask="url(#bc)"><mask id="bd" width="686" height="726" x="52" y="17" maskUnits="userSpaceOnUse" style="mask-type:luminance"><path fill="#fff" d="m279 17 459 199-227 526L52 544 279 17Z"/></mask><g mask="url(#bd)"><mask id="be" width="686" height="726" x="52" y="17" maskUnits="userSpaceOnUse" style="mask-type:luminance"><path fill="#fff" d="m279 17 459 199-227 526L52 544 279 17Z"/></mask><g mask="url(#be)"><path fill="#2A4887" d="M509 173c9 65 12 66 28 123 0 3 9 32 20 30 17-3 4-34 1-50-9-51-13-60-21-100-1-5-5-29-12-40-2-4-9-8-15-5-9 5-2 32-1 42Z"/><path fill="#013251" d="M557 326c-11 2-20-27-20-30-16-57-19-58-28-123-1-10-8-37 1-42l6-1h-1c-8 5-1 32 0 42 9 65 11 66 27 123 1 3 8 28 18 30l-3 1Z"/></g></g></g></g><mask id="bf" width="178" height="209" x="459" y="120" maskUnits="userSpaceOnUse" style="mask-type:luminance"><path fill="#fff" d="m523 121 113 44-64 164-113-44 64-164Z"/></mask><g mask="url(#bf)"><mask id="bg" width="686" height="726" x="52" y="17" maskUnits="userSpaceOnUse" style="mask-type:luminance"><path fill="#fff" d="m279 17 459 199-227 526L52 544 279 17Z"/></mask><g mask="url(#bg)"><mask id="bh" width="686" height="726" x="52" y="17" maskUnits="userSpaceOnUse" style="mask-type:luminance"><path fill="#fff" d="m279 17 459 199-227 526L52 544 279 17Z"/></mask><g mask="url(#bh)"><mask id="bi" width="686" height="726" x="52" y="17" maskUnits="userSpaceOnUse" style="mask-type:luminance"><path fill="#fff" d="m279 17 459 199-227 526L52 544 279 17Z"/></mask><g mask="url(#bi)"><path fill="#2A4887" d="M522 171c8 64 11 66 27 122 1 4 9 33 20 30 17-3 4-33 1-49-9-51-13-61-21-100-1-5-5-29-12-41-2-4-9-8-15-4-8 5-2 31 0 42Z"/></g></g></g></g><mask id="bj" width="176" height="205" x="459" y="124" maskUnits="userSpaceOnUse" style="mask-type:luminance"><path fill="#fff" d="m521 125 114 44-63 160-113-44 62-160Z"/></mask><g mask="url(#bj)"><mask id="bk" width="686" height="726" x="52" y="17" maskUnits="userSpaceOnUse" style="mask-type:luminance"><path fill="#fff" d="m279 17 459 199-227 526L52 544 279 17Z"/></mask><g mask="url(#bk)"><mask id="bl" width="686" height="726" x="52" y="17" maskUnits="userSpaceOnUse" style="mask-type:luminance"><path fill="#fff" d="m279 17 459 199-227 526L52 544 279 17Z"/></mask><g mask="url(#bl)"><mask id="bm" width="686" height="726" x="52" y="17" maskUnits="userSpaceOnUse" style="mask-type:luminance"><path fill="#fff" d="m279 17 459 199-227 526L52 544 279 17Z"/></mask><g mask="url(#bm)"><path fill="#013251" d="M569 323c-11 3-19-26-20-30-16-56-19-58-27-122-2-11-8-37 0-42l6-2-1 1c-8 5-1 31 0 41 9 65 12 67 27 123 1 3 8 28 18 30l-3 1Z"/></g></g></g></g><mask id="bn" width="318" height="366" x="280" y="283" maskUnits="userSpaceOnUse" style="mask-type:luminance"><path fill="#fff" d="m392 283 205 80-111 285-205-80 111-285Z"/></mask><g mask="url(#bn)"><mask id="bo" width="686" height="726" x="52" y="17" maskUnits="userSpaceOnUse" style="mask-type:luminance"><path fill="#fff" d="m279 17 459 199-227 526L52 544 279 17Z"/></mask><g mask="url(#bo)"><mask id="bp" width="686" height="726" x="52" y="17" maskUnits="userSpaceOnUse" style="mask-type:luminance"><path fill="#fff" d="m279 17 459 199-227 526L52 544 279 17Z"/></mask><g mask="url(#bp)"><mask id="bq" width="686" height="726" x="52" y="17" maskUnits="userSpaceOnUse" style="mask-type:luminance"><path fill="#fff" d="m279 17 459 199-227 526L52 544 279 17Z"/></mask><g mask="url(#bq)"><path fill="#FECC27" d="M386 309c1-8 2-11 7-14 9-5 18-5 24 2 13 16 15 40 20 60a3963 3963 0 0 1 56 268c-1 7-2 7-8 11-2 2-13 5-16 3l-6-5c-13-13-13-24-19-41-12-38-22-76-31-115l-7-35-7-37c-6-27-15-70-13-97"/></g></g></g></g><mask id="br" width="314" height="364" x="280" y="283" maskUnits="userSpaceOnUse" style="mask-type:luminance"><path fill="#fff" d="m392 283 201 79-111 285-201-79 111-285Z"/></mask><g mask="url(#br)"><mask id="bs" width="686" height="726" x="52" y="17" maskUnits="userSpaceOnUse" style="mask-type:luminance"><path fill="#fff" d="m279 17 459 199-227 526L52 544 279 17Z"/></mask><g mask="url(#bs)"><mask id="bt" width="686" height="726" x="52" y="17" maskUnits="userSpaceOnUse" style="mask-type:luminance"><path fill="#fff" d="m279 17 459 199-227 526L52 544 279 17Z"/></mask><g mask="url(#bt)"><mask id="bu" width="686" height="726" x="52" y="17" maskUnits="userSpaceOnUse" style="mask-type:luminance"><path fill="#fff" d="m279 17 459 199-227 526L52 544 279 17Z"/></mask><g mask="url(#bu)"><path fill="#E2B127" d="m469 639-6-5c-13-13-13-24-19-41-12-38-22-76-31-115l-7-35-7-37c-6-27-15-70-13-97 1-8 2-11 7-14l12-4-5 3c-5 3-6 6-7 14-2 27 7 70 13 97l7 36 7 36c9 38 19 77 31 115 6 17 6 28 19 41l6 5h5c-5 2-10 2-12 1Z"/></g></g></g></g><mask id="bv" width="86" height="93" x="322" y="157" maskUnits="userSpaceOnUse" style="mask-type:luminance"><path fill="#fff" d="m349 157 59 23-27 69-59-23 27-69Z"/></mask><g mask="url(#bv)"><mask id="bw" width="686" height="726" x="52" y="17" maskUnits="userSpaceOnUse" style="mask-type:luminance"><path fill="#fff" d="m279 17 459 199-227 526L52 544 279 17Z"/></mask><g mask="url(#bw)"><mask id="bx" width="686" height="726" x="52" y="17" maskUnits="userSpaceOnUse" style="mask-type:luminance"><path fill="#fff" d="m279 17 459 199-227 526L52 544 279 17Z"/></mask><g mask="url(#bx)"><mask id="by" width="686" height="726" x="52" y="17" maskUnits="userSpaceOnUse" style="mask-type:luminance"><path fill="#fff" d="m279 17 459 199-227 526L52 544 279 17Z"/></mask><g mask="url(#by)"><path fill="#fff" d="M336 227a172 172 0 0 1 65-39l2-2a6 6 0 0 0-1-6 6 6 0 0 0-4-2l-2 1a179 179 0 0 0-68 40 6 6 0 0 0 0 4v2a5 5 0 0 0 4 3l2-1h2Z"/></g></g></g></g><mask id="bz" width="28" height="26" x="406" y="167" maskUnits="userSpaceOnUse" style="mask-type:luminance"><path fill="#fff" d="m413 167 21 8-7 18-21-9 7-17Z"/></mask><g mask="url(#bz)"><mask id="bA" width="686" height="726" x="52" y="17" maskUnits="userSpaceOnUse" style="mask-type:luminance"><path fill="#fff" d="m279 17 459 199-227 526L52 544 279 17Z"/></mask><g mask="url(#bA)"><mask id="bB" width="686" height="726" x="52" y="17" maskUnits="userSpaceOnUse" style="mask-type:luminance"><path fill="#fff" d="m279 17 459 199-227 526L52 544 279 17Z"/></mask><g mask="url(#bB)"><mask id="bC" width="686" height="726" x="52" y="17" maskUnits="userSpaceOnUse" style="mask-type:luminance"><path fill="#fff" d="m279 17 459 199-227 526L52 544 279 17Z"/></mask><g mask="url(#bC)"><path fill="#fff" d="m416 187 8-1 2-1 2-4 1-2-1-2-1-2a5 5 0 0 0-5-1l-7 2-4 2-1 2v2c0 2 0 3 2 4l4 1Z"/></g></g></g></g><mask id="bD" width="156" height="179" x="366" y="358" maskUnits="userSpaceOnUse" style="mask-type:luminance"><path fill="#fff" d="m420 359 101 39-54 138-101-39 54-138Z"/></mask><g mask="url(#bD)"><mask id="bE" width="686" height="726" x="52" y="17" maskUnits="userSpaceOnUse" style="mask-type:luminance"><path fill="#fff" d="m279 17 459 199-227 526L52 544 279 17Z"/></mask><g mask="url(#bE)"><mask id="bF" width="686" height="726" x="52" y="17" maskUnits="userSpaceOnUse" style="mask-type:luminance"><path fill="#fff" d="m279 17 459 199-227 526L52 544 279 17Z"/></mask><g mask="url(#bF)"><mask id="bG" width="686" height="726" x="52" y="17" maskUnits="userSpaceOnUse" style="mask-type:luminance"><path fill="#fff" d="m279 17 459 199-227 526L52 544 279 17Z"/></mask><g mask="url(#bG)"><path fill="#fff" d="M422 369a3444 3444 0 0 1 36 162l2 1a5 5 0 0 0 4 0 6 6 0 0 0 3-4v-2a3288 3288 0 0 0-37-162l-1-1-3-1a6 6 0 0 0-3 3 6 6 0 0 0-1 4Z"/></g></g></g></g><mask id="bH" width="46" height="52" x="448" y="544" maskUnits="userSpaceOnUse" style="mask-type:luminance"><path fill="#fff" d="m464 545 29 11-15 39-29-11 15-39Z"/></mask><g mask="url(#bH)"><mask id="bI" width="686" height="726" x="52" y="17" maskUnits="userSpaceOnUse" style="mask-type:luminance"><path fill="#fff" d="m279 17 459 199-227 526L52 544 279 17Z"/></mask><g mask="url(#bI)"><mask id="bJ" width="686" height="726" x="52" y="17" maskUnits="userSpaceOnUse" style="mask-type:luminance"><path fill="#fff" d="m279 17 459 199-227 526L52 544 279 17Z"/></mask><g mask="url(#bJ)"><mask id="bK" width="686" height="726" x="52" y="17" maskUnits="userSpaceOnUse" style="mask-type:luminance"><path fill="#fff" d="m279 17 459 199-227 526L52 544 279 17Z"/></mask><g mask="url(#bK)"><path fill="#fff" d="M463 559a258 258 0 0 1 3 10c0 1 0 1 0 0v3a160 160 0 0 1 4 17 5 5 0 0 0 7 2 6 6 0 0 0 3-4v-2a168 168 0 0 0-8-32l-2-1-2-1a5 5 0 0 0-5 4 6 6 0 0 0 0 4Z"/></g></g></g></g><mask id="bL" width="38" height="41" x="479" y="684" maskUnits="userSpaceOnUse" style="mask-type:luminance"><path fill="#fff" d="m491 685 26 10-12 30-25-10 11-30Z"/></mask><g mask="url(#bL)"><mask id="bM" width="686" height="726" x="52" y="17" maskUnits="userSpaceOnUse" style="mask-type:luminance"><path fill="#fff" d="m279 17 459 199-227 526L52 544 279 17Z"/></mask><g mask="url(#bM)"><mask id="bN" width="686" height="726" x="52" y="17" maskUnits="userSpaceOnUse" style="mask-type:luminance"><path fill="#fff" d="m279 17 459 199-227 526L52 544 279 17Z"/></mask><g mask="url(#bN)"><mask id="bO" width="686" height="726" x="52" y="17" maskUnits="userSpaceOnUse" style="mask-type:luminance"><path fill="#fff" d="m279 17 459 199-227 526L52 544 279 17Z"/></mask><g mask="url(#bO)"><path fill="#fff" d="m503 696-3 3 1-1-4 3 2-1-5 2h1l-5 1h1-1a6 6 0 0 0-4 1 6 6 0 0 0-3 4 6 6 0 0 0 1 4 6 6 0 0 0 4 2c5 0 9 0 13-2s8-5 11-9a6 6 0 0 0 0-6 5 5 0 0 0-5-3l-4 2Z"/></g></g></g></g><mask id="bP" width="93" height="80" x="445" y="118" maskUnits="userSpaceOnUse" style="mask-type:luminance"><path fill="#fff" d="m466 118 71 28-20 52-71-28 20-52Z"/></mask><g mask="url(#bP)"><mask id="bQ" width="686" height="726" x="52" y="17" maskUnits="userSpaceOnUse" style="mask-type:luminance"><path fill="#fff" d="m279 17 459 199-227 526L52 544 279 17Z"/></mask><g mask="url(#bQ)"><mask id="bR" width="686" height="726" x="52" y="17" maskUnits="userSpaceOnUse" style="mask-type:luminance"><path fill="#fff" d="m279 17 459 199-227 526L52 544 279 17Z"/></mask><g mask="url(#bR)"><mask id="bS" width="686" height="726" x="52" y="17" maskUnits="userSpaceOnUse" style="mask-type:luminance"><path fill="#fff" d="m279 17 459 199-227 526L52 544 279 17Z"/></mask><g mask="url(#bS)"><path fill="#fff" d="M532 146c-7-2-13-1-20 0a298 298 0 0 0-59 14c-6 3-2 13 4 11l35-10 18-4c5-1 12-2 17 0 7 2 11-8 4-11h1Z"/></g></g></g></g><mask id="bT" width="74" height="70" x="218" y="172" maskUnits="userSpaceOnUse" style="mask-type:luminance"><path fill="#fff" d="m237 173 54 21-18 48-55-22 19-47Z"/></mask><g mask="url(#bT)"><mask id="bU" width="686" height="726" x="52" y="17" maskUnits="userSpaceOnUse" style="mask-type:luminance"><path fill="#fff" d="m279 17 459 199-227 526L52 544 279 17Z"/></mask><g mask="url(#bU)"><mask id="bV" width="686" height="726" x="52" y="17" maskUnits="userSpaceOnUse" style="mask-type:luminance"><path fill="#fff" d="m279 17 459 199-227 526L52 544 279 17Z"/></mask><g mask="url(#bV)"><mask id="bW" width="686" height="726" x="52" y="17" maskUnits="userSpaceOnUse" style="mask-type:luminance"><path fill="#fff" d="m279 17 459 199-227 526L52 544 279 17Z"/></mask><g mask="url(#bW)"><path fill="#fff" d="M281 196a173 173 0 0 0-55 16l-2 1v3a5 5 0 0 0 7 5c17-8 34-12 51-14 7-1 6-12-1-12v1Z"/></g></g></g></g></g><defs><clipPath id="a"><path fill="#fff" d="m253 0 529 206-253 649L0 649z"/></clipPath></defs></svg>