<svg width="605" height="855" viewBox="0 0 605 855" fill="none" xmlns="http://www.w3.org/2000/svg">
<g clip-path="url(#clip0_26_1524)">
<mask id="mask0_26_1524" style="mask-type:luminance" maskUnits="userSpaceOnUse" x="419" y="603" width="134" height="140">
<path d="M460.393 603.273L552.702 639.29L512.295 742.853L419.985 706.836L460.393 603.273Z" fill="white"/>
</mask>
<g mask="url(#mask0_26_1524)">
<mask id="mask1_26_1524" style="mask-type:luminance" maskUnits="userSpaceOnUse" x="52" y="17" width="686" height="726">
<path d="M278.941 17.1707L737.701 215.92L510.895 742.326L52.1342 543.577L278.941 17.1707Z" fill="white"/>
</mask>
<g mask="url(#mask1_26_1524)">
<mask id="mask2_26_1524" style="mask-type:luminance" maskUnits="userSpaceOnUse" x="52" y="17" width="686" height="726">
<path d="M278.941 17.1707L737.701 215.92L510.895 742.326L52.1342 543.577L278.941 17.1707Z" fill="white"/>
</mask>
<g mask="url(#mask2_26_1524)">
<mask id="mask3_26_1524" style="mask-type:luminance" maskUnits="userSpaceOnUse" x="52" y="17" width="686" height="726">
<path d="M278.941 17.1707L737.701 215.92L510.895 742.326L52.1342 543.577L278.941 17.1707Z" fill="white"/>
</mask>
<g mask="url(#mask3_26_1524)">
<path d="M503.4 620.83C510.106 632.828 510.186 641.094 513.379 654.595L523.494 696.531C524.095 698.669 524.437 700.842 524.513 703.066C524.526 709.422 520.076 715.358 514.544 718.89C509.382 722.1 503.85 724.273 497.959 725.432C493.449 726.779 488.86 727.553 484.193 727.752C477.49 727.991 475.835 726.472 471.674 719.857C464.21 708.01 455.938 674.659 455.034 671.218C452.241 660.612 449.344 652.354 448.492 639.727C448.124 637.428 448.628 635.313 450.007 633.423C450.904 632.53 451.944 631.848 453.086 631.342C468.094 623.758 477.891 618.977 494.484 616.866" fill="#FECC27"/>
</g>
</g>
</g>
</g>
<mask id="mask4_26_1524" style="mask-type:luminance" maskUnits="userSpaceOnUse" x="419" y="624" width="122" height="118">
<path d="M451.974 624.849L540.088 659.229L508.099 741.216L419.985 706.836L451.974 624.849Z" fill="white"/>
</mask>
<g mask="url(#mask4_26_1524)">
<mask id="mask5_26_1524" style="mask-type:luminance" maskUnits="userSpaceOnUse" x="52" y="17" width="686" height="726">
<path d="M278.941 17.1707L737.701 215.92L510.895 742.326L52.1342 543.577L278.941 17.1707Z" fill="white"/>
</mask>
<g mask="url(#mask5_26_1524)">
<mask id="mask6_26_1524" style="mask-type:luminance" maskUnits="userSpaceOnUse" x="52" y="17" width="686" height="726">
<path d="M278.941 17.1707L737.701 215.92L510.895 742.326L52.1342 543.577L278.941 17.1707Z" fill="white"/>
</mask>
<g mask="url(#mask6_26_1524)">
<mask id="mask7_26_1524" style="mask-type:luminance" maskUnits="userSpaceOnUse" x="52" y="17" width="686" height="726">
<path d="M278.941 17.1707L737.701 215.92L510.895 742.326L52.1342 543.577L278.941 17.1707Z" fill="white"/>
</mask>
<g mask="url(#mask7_26_1524)">
<path d="M484.216 727.741C477.496 727.974 475.796 726.573 471.664 719.833C464.249 708.006 455.945 674.642 455.034 671.218C452.248 660.595 449.358 652.32 448.515 639.717C448.147 637.417 448.651 635.303 450.014 633.407C450.927 632.52 451.957 631.815 453.125 631.338L454.421 630.679C453.406 632.458 453.043 634.355 453.333 636.372C454.129 649.093 457.059 657.267 459.871 667.92C460.792 671.367 469.031 704.705 476.502 716.535C480.663 723.15 482.301 724.663 489.021 724.43C493.694 724.214 498.266 723.435 502.777 722.087C507.9 721.056 512.789 719.273 517.419 716.749C516.513 717.522 515.554 718.235 514.55 718.873C509.395 722.067 503.863 724.239 497.972 725.398C493.455 726.762 488.883 727.542 484.216 727.741Z" fill="#E2B127"/>
</g>
</g>
</g>
</g>
<mask id="mask8_26_1524" style="mask-type:luminance" maskUnits="userSpaceOnUse" x="443" y="598" width="70" height="69">
<path d="M462.076 598.958L512.427 618.604L493.907 666.07L443.556 646.425L462.076 598.958Z" fill="white"/>
</mask>
<g mask="url(#mask8_26_1524)">
<mask id="mask9_26_1524" style="mask-type:luminance" maskUnits="userSpaceOnUse" x="52" y="17" width="686" height="726">
<path d="M278.941 17.1707L737.701 215.92L510.895 742.326L52.1342 543.577L278.941 17.1707Z" fill="white"/>
</mask>
<g mask="url(#mask9_26_1524)">
<mask id="mask10_26_1524" style="mask-type:luminance" maskUnits="userSpaceOnUse" x="52" y="17" width="686" height="726">
<path d="M278.941 17.1707L737.701 215.92L510.895 742.326L52.1342 543.577L278.941 17.1707Z" fill="white"/>
</mask>
<g mask="url(#mask10_26_1524)">
<mask id="mask11_26_1524" style="mask-type:luminance" maskUnits="userSpaceOnUse" x="52" y="17" width="686" height="726">
<path d="M278.941 17.1707L737.701 215.92L510.895 742.326L52.1342 543.577L278.941 17.1707Z" fill="white"/>
</mask>
<g mask="url(#mask11_26_1524)">
<path d="M463.594 651.99C475.798 653.333 490.029 648.806 495.999 644.59C499.872 641.828 503.022 639.852 505.32 634.107C508.053 627.443 503.69 618.827 498.053 615.462C492.4 612.091 485.982 612.714 480.143 614.126C471.83 616.165 464.12 619.663 457.025 624.586C453.402 627.095 449.627 630.575 449.155 635.849C449.044 638.408 449.557 640.822 450.676 643.084C451.772 645.357 453.357 647.199 455.425 648.628C459.118 651.214 463.223 652.408 467.732 652.225C471.835 651.923 475.032 652.393 479.825 650.321" fill="#D1A024"/>
</g>
</g>
</g>
</g>
<mask id="mask12_26_1524" style="mask-type:luminance" maskUnits="userSpaceOnUse" x="143" y="190" width="181" height="207">
<path d="M205.615 190.628L323.1 236.467L260.805 396.127L143.32 350.287L205.615 190.628Z" fill="white"/>
</mask>
<g mask="url(#mask12_26_1524)">
<mask id="mask13_26_1524" style="mask-type:luminance" maskUnits="userSpaceOnUse" x="52" y="17" width="686" height="726">
<path d="M278.941 17.1707L737.701 215.92L510.895 742.326L52.1342 543.577L278.941 17.1707Z" fill="white"/>
</mask>
<g mask="url(#mask13_26_1524)">
<mask id="mask14_26_1524" style="mask-type:luminance" maskUnits="userSpaceOnUse" x="52" y="17" width="686" height="726">
<path d="M278.941 17.1707L737.701 215.92L510.895 742.326L52.1342 543.577L278.941 17.1707Z" fill="white"/>
</mask>
<g mask="url(#mask14_26_1524)">
<mask id="mask15_26_1524" style="mask-type:luminance" maskUnits="userSpaceOnUse" x="52" y="17" width="686" height="726">
<path d="M278.941 17.1707L737.701 215.92L510.895 742.326L52.1342 543.577L278.941 17.1707Z" fill="white"/>
</mask>
<g mask="url(#mask15_26_1524)">
<path d="M208.218 237.926C216.744 302.665 219.632 304.122 235.323 360.858C236.205 364.115 244.395 393.123 255.541 390.887C272.289 387.556 259.86 357.166 256.968 341.297C247.673 290.241 243.662 280.578 235.702 241.444C234.541 235.999 230.647 212.339 224.005 200.755C221.655 196.614 214.569 192.606 208.433 196.33C200.203 201.257 206.897 227.855 208.185 238.01" fill="#2A4887"/>
<path d="M255.541 390.887C244.395 393.123 236.204 364.115 235.309 360.891C219.632 304.122 216.738 302.682 208.218 237.926C206.963 227.88 200.285 201.192 208.416 196.324C210.319 195.221 212.33 194.763 214.498 194.967C214.314 195.051 214.186 195.137 214.025 195.21C205.762 200.124 212.516 226.765 213.814 236.846C222.396 301.588 225.244 303.049 240.935 359.784C241.787 362.778 248.811 387.951 258.746 389.788C257.742 390.328 256.653 390.7 255.541 390.887Z" fill="#013251"/>
</g>
</g>
</g>
</g>
<mask id="mask16_26_1524" style="mask-type:luminance" maskUnits="userSpaceOnUse" x="157" y="186" width="178" height="210">
<path d="M221.57 186.909L334.86 231.111L270.881 395.086L157.592 350.883L221.57 186.909Z" fill="white"/>
</mask>
<g mask="url(#mask16_26_1524)">
<mask id="mask17_26_1524" style="mask-type:luminance" maskUnits="userSpaceOnUse" x="52" y="17" width="686" height="726">
<path d="M278.941 17.1709L737.701 215.92L510.895 742.326L52.1342 543.578L278.941 17.1709Z" fill="white"/>
</mask>
<g mask="url(#mask17_26_1524)">
<mask id="mask18_26_1524" style="mask-type:luminance" maskUnits="userSpaceOnUse" x="52" y="17" width="686" height="726">
<path d="M278.941 17.1709L737.701 215.92L510.895 742.326L52.1342 543.578L278.941 17.1709Z" fill="white"/>
</mask>
<g mask="url(#mask18_26_1524)">
<mask id="mask19_26_1524" style="mask-type:luminance" maskUnits="userSpaceOnUse" x="52" y="17" width="686" height="726">
<path d="M278.941 17.1709L737.701 215.92L510.895 742.326L52.1342 543.578L278.941 17.1709Z" fill="white"/>
</mask>
<g mask="url(#mask19_26_1524)">
<path d="M220.368 235.539C228.943 300.297 231.782 301.735 247.489 358.477C248.479 361.796 256.551 390.719 267.713 388.49C284.455 385.175 272.026 354.785 269.134 338.916C259.839 287.86 255.841 278.163 247.885 239.069C246.69 233.612 242.803 209.935 236.161 198.351C233.805 194.227 226.735 190.226 220.632 193.865C212.385 198.785 219.08 225.383 220.368 235.539Z" fill="#2A4887"/>
<path d="M267.707 388.507C256.567 390.725 248.37 361.734 247.472 358.47C231.798 301.741 228.943 300.297 220.367 235.539C219.129 225.5 212.385 198.785 220.631 193.865C222.525 192.739 224.536 192.281 226.697 192.502C226.536 192.576 226.375 192.649 226.208 192.739C217.971 197.682 224.672 224.264 225.93 234.446C234.493 299.238 237.361 300.649 253.068 357.391C253.904 360.378 260.944 385.557 270.879 387.394C269.882 387.918 268.809 388.296 267.707 388.507Z" fill="#013251"/>
</g>
</g>
</g>
</g>
<mask id="mask20_26_1524" style="mask-type:luminance" maskUnits="userSpaceOnUse" x="169" y="185" width="181" height="207">
<path d="M231.646 185.868L349.131 231.708L286.836 391.367L169.351 345.527L231.646 185.868Z" fill="white"/>
</mask>
<g mask="url(#mask20_26_1524)">
<mask id="mask21_26_1524" style="mask-type:luminance" maskUnits="userSpaceOnUse" x="52" y="17" width="686" height="726">
<path d="M278.941 17.1707L737.701 215.92L510.895 742.326L52.1342 543.577L278.941 17.1707Z" fill="white"/>
</mask>
<g mask="url(#mask21_26_1524)">
<mask id="mask22_26_1524" style="mask-type:luminance" maskUnits="userSpaceOnUse" x="52" y="17" width="686" height="726">
<path d="M278.941 17.1707L737.701 215.92L510.895 742.326L52.1342 543.577L278.941 17.1707Z" fill="white"/>
</mask>
<g mask="url(#mask22_26_1524)">
<mask id="mask23_26_1524" style="mask-type:luminance" maskUnits="userSpaceOnUse" x="52" y="17" width="686" height="726">
<path d="M278.941 17.1707L737.701 215.92L510.895 742.326L52.1342 543.577L278.941 17.1707Z" fill="white"/>
</mask>
<g mask="url(#mask23_26_1524)">
<path d="M232.524 233.134C241.112 297.859 243.938 299.33 259.645 356.072C260.55 359.319 268.714 388.297 279.87 386.085C296.608 382.73 284.195 352.347 281.313 336.501C272.008 285.422 267.997 275.758 260.041 236.665C258.892 231.089 254.959 207.53 248.291 195.917C245.941 191.776 238.858 187.808 232.738 191.441C224.509 196.368 231.203 222.966 232.474 233.115" fill="#2A4887"/>
</g>
</g>
</g>
</g>
<mask id="mask24_26_1524" style="mask-type:luminance" maskUnits="userSpaceOnUse" x="169" y="185" width="176" height="205">
<path d="M231.646 185.868L344.935 230.07L282.64 389.73L169.351 345.527L231.646 185.868Z" fill="white"/>
</mask>
<g mask="url(#mask24_26_1524)">
<mask id="mask25_26_1524" style="mask-type:luminance" maskUnits="userSpaceOnUse" x="52" y="17" width="686" height="726">
<path d="M278.941 17.1707L737.701 215.92L510.895 742.326L52.1342 543.577L278.941 17.1707Z" fill="white"/>
</mask>
<g mask="url(#mask25_26_1524)">
<mask id="mask26_26_1524" style="mask-type:luminance" maskUnits="userSpaceOnUse" x="52" y="17" width="686" height="726">
<path d="M278.941 17.1707L737.701 215.92L510.895 742.326L52.1342 543.577L278.941 17.1707Z" fill="white"/>
</mask>
<g mask="url(#mask26_26_1524)">
<mask id="mask27_26_1524" style="mask-type:luminance" maskUnits="userSpaceOnUse" x="52" y="17" width="686" height="726">
<path d="M278.941 17.1707L737.701 215.92L510.895 742.326L52.1342 543.577L278.941 17.1707Z" fill="white"/>
</mask>
<g mask="url(#mask27_26_1524)">
<path d="M279.87 386.085C268.73 388.304 260.55 359.319 259.628 356.066C243.97 299.343 241.106 297.876 232.524 233.134C231.268 223.089 224.541 196.381 232.788 191.46C234.648 190.322 236.643 189.857 238.777 190.049L238.315 190.315C230.068 195.235 236.763 221.834 238.051 231.989C246.685 296.79 249.497 298.295 265.237 354.953C266.06 357.973 273.091 383.13 283.048 384.956C282.044 385.497 280.988 385.881 279.87 386.085Z" fill="#013251"/>
</g>
</g>
</g>
</g>
<mask id="mask28_26_1524" style="mask-type:luminance" maskUnits="userSpaceOnUse" x="179" y="180" width="182" height="211">
<path d="M243.405 180.512L360.89 226.352L296.911 390.326L179.426 344.486L243.405 180.512Z" fill="white"/>
</mask>
<g mask="url(#mask28_26_1524)">
<mask id="mask29_26_1524" style="mask-type:luminance" maskUnits="userSpaceOnUse" x="52" y="17" width="686" height="726">
<path d="M278.941 17.1707L737.701 215.92L510.895 742.326L52.1342 543.577L278.941 17.1707Z" fill="white"/>
</mask>
<g mask="url(#mask29_26_1524)">
<mask id="mask30_26_1524" style="mask-type:luminance" maskUnits="userSpaceOnUse" x="52" y="17" width="686" height="726">
<path d="M278.941 17.1707L737.701 215.92L510.895 742.326L52.1342 543.577L278.941 17.1707Z" fill="white"/>
</mask>
<g mask="url(#mask30_26_1524)">
<mask id="mask31_26_1524" style="mask-type:luminance" maskUnits="userSpaceOnUse" x="52" y="17" width="686" height="726">
<path d="M278.941 17.1707L737.701 215.92L510.895 742.326L52.1342 543.577L278.941 17.1707Z" fill="white"/>
</mask>
<g mask="url(#mask31_26_1524)">
<path d="M244.686 230.713C253.268 295.454 256.117 296.915 271.824 353.657C272.804 356.953 280.893 385.882 292.071 383.66C308.78 380.332 296.384 349.956 293.485 334.103C284.197 283.031 280.176 273.344 272.22 234.25C271.088 228.681 267.148 205.139 260.519 193.521C258.163 189.397 251.077 185.389 244.973 189.029C236.743 193.955 243.438 220.554 244.703 230.719" fill="#2A4887"/>
<path d="M292.075 383.603C280.876 385.876 272.804 356.953 271.823 353.658C256.133 296.922 253.285 295.461 244.702 230.719C243.454 220.657 236.743 193.955 244.973 189.029C246.86 187.92 248.871 187.461 251.032 187.683C250.969 187.795 250.717 187.813 250.559 187.926C242.306 192.863 249.014 219.428 250.288 229.616C258.854 294.352 261.686 295.806 277.403 352.475C278.256 355.468 285.273 380.658 295.231 382.484C294.233 383.008 293.177 383.392 292.075 383.603Z" fill="#013251"/>
</g>
</g>
</g>
</g>
<mask id="mask32_26_1524" style="mask-type:luminance" maskUnits="userSpaceOnUse" x="191" y="179" width="180" height="206">
<path d="M253.48 179.471L370.965 225.311L308.67 384.97L191.185 339.131L253.48 179.471Z" fill="white"/>
</mask>
<g mask="url(#mask32_26_1524)">
<mask id="mask33_26_1524" style="mask-type:luminance" maskUnits="userSpaceOnUse" x="52" y="17" width="686" height="726">
<path d="M278.941 17.1707L737.701 215.92L510.895 742.326L52.1342 543.577L278.941 17.1707Z" fill="white"/>
</mask>
<g mask="url(#mask33_26_1524)">
<mask id="mask34_26_1524" style="mask-type:luminance" maskUnits="userSpaceOnUse" x="52" y="17" width="686" height="726">
<path d="M278.941 17.1707L737.701 215.92L510.895 742.326L52.1342 543.577L278.941 17.1707Z" fill="white"/>
</mask>
<g mask="url(#mask34_26_1524)">
<mask id="mask35_26_1524" style="mask-type:luminance" maskUnits="userSpaceOnUse" x="52" y="17" width="686" height="726">
<path d="M278.941 17.1707L737.701 215.92L510.895 742.326L52.1342 543.577L278.941 17.1707Z" fill="white"/>
</mask>
<g mask="url(#mask35_26_1524)">
<path d="M256.356 228.391C264.929 293.109 267.754 294.58 283.461 351.323C284.356 354.546 292.53 383.547 303.693 381.319C320.441 377.987 308.011 347.597 305.119 331.728C295.824 280.672 291.83 271.015 283.87 231.881C282.692 226.43 278.798 202.77 272.173 191.193C269.807 187.045 262.721 183.038 256.634 186.683C248.387 191.604 255.082 218.202 256.356 228.391Z" fill="#2A4887"/>
<path d="M303.693 381.319C292.547 383.554 284.356 354.546 283.461 351.323C267.771 294.587 264.923 293.126 256.357 228.391C255.108 218.329 248.381 191.621 256.595 186.687C258.504 185.568 260.515 185.11 262.683 185.314C262.522 185.388 262.355 185.478 262.204 185.574C253.957 190.495 260.668 217.099 261.917 227.258C270.499 292 273.347 293.461 289.087 350.119C289.933 353.129 296.963 378.285 306.898 380.122C305.887 380.68 304.818 381.097 303.693 381.319Z" fill="#013251"/>
</g>
</g>
</g>
</g>
<mask id="mask36_26_1524" style="mask-type:luminance" maskUnits="userSpaceOnUse" x="205" y="175" width="182" height="211">
<path d="M269.435 175.752L386.92 221.592L322.942 385.567L205.457 339.727L269.435 175.752Z" fill="white"/>
</mask>
<g mask="url(#mask36_26_1524)">
<mask id="mask37_26_1524" style="mask-type:luminance" maskUnits="userSpaceOnUse" x="52" y="17" width="686" height="726">
<path d="M278.941 17.1709L737.701 215.92L510.895 742.326L52.1342 543.578L278.941 17.1709Z" fill="white"/>
</mask>
<g mask="url(#mask37_26_1524)">
<mask id="mask38_26_1524" style="mask-type:luminance" maskUnits="userSpaceOnUse" x="52" y="17" width="686" height="726">
<path d="M278.941 17.1709L737.701 215.92L510.895 742.326L52.1342 543.578L278.941 17.1709Z" fill="white"/>
</mask>
<g mask="url(#mask38_26_1524)">
<mask id="mask39_26_1524" style="mask-type:luminance" maskUnits="userSpaceOnUse" x="52" y="17" width="686" height="726">
<path d="M278.941 17.1709L737.701 215.92L510.895 742.326L52.1342 543.578L278.941 17.1709Z" fill="white"/>
</mask>
<g mask="url(#mask39_26_1524)">
<path d="M268.519 225.97C277.095 290.728 279.933 292.166 295.65 348.931C296.631 352.227 304.697 381.167 315.859 378.938C332.591 375.6 320.178 345.217 317.302 329.353C307.99 278.292 303.98 268.628 296.036 229.501C294.842 224.043 290.948 200.383 284.323 188.806C281.956 184.658 274.903 180.663 268.784 184.296C260.537 189.217 267.232 215.815 268.519 225.97Z" fill="#2A4887"/>
</g>
</g>
</g>
</g>
<mask id="mask40_26_1524" style="mask-type:luminance" maskUnits="userSpaceOnUse" x="205" y="180" width="177" height="204">
<path d="M267.752 180.067L381.041 224.27L318.746 383.929L205.457 339.727L267.752 180.067Z" fill="white"/>
</mask>
<g mask="url(#mask40_26_1524)">
<mask id="mask41_26_1524" style="mask-type:luminance" maskUnits="userSpaceOnUse" x="52" y="17" width="686" height="726">
<path d="M278.941 17.1707L737.701 215.92L510.895 742.326L52.1342 543.577L278.941 17.1707Z" fill="white"/>
</mask>
<g mask="url(#mask41_26_1524)">
<mask id="mask42_26_1524" style="mask-type:luminance" maskUnits="userSpaceOnUse" x="52" y="17" width="686" height="726">
<path d="M278.941 17.1707L737.701 215.92L510.895 742.326L52.1342 543.577L278.941 17.1707Z" fill="white"/>
</mask>
<g mask="url(#mask42_26_1524)">
<mask id="mask43_26_1524" style="mask-type:luminance" maskUnits="userSpaceOnUse" x="52" y="17" width="686" height="726">
<path d="M278.941 17.1707L737.701 215.92L510.895 742.326L52.1342 543.577L278.941 17.1707Z" fill="white"/>
</mask>
<g mask="url(#mask43_26_1524)">
<path d="M315.826 379.022C304.713 381.173 296.539 352.172 295.529 348.903C279.96 292.195 277.088 290.745 268.519 225.97C267.264 215.924 260.56 189.206 268.783 184.296C270.664 183.204 272.684 182.769 274.822 183.001C274.661 183.074 274.501 183.147 274.333 183.237C266.097 188.181 272.798 214.762 274.073 224.951C282.681 289.625 285.513 291.08 301.18 347.923C302.017 350.91 309.057 376.09 318.992 377.927C317.994 378.45 316.928 378.811 315.826 379.022Z" fill="#013251"/>
</g>
</g>
</g>
</g>
<mask id="mask44_26_1524" style="mask-type:luminance" maskUnits="userSpaceOnUse" x="217" y="174" width="180" height="207">
<path d="M279.511 174.711L396.996 220.551L334.701 380.21L217.216 334.371L279.511 174.711Z" fill="white"/>
</mask>
<g mask="url(#mask44_26_1524)">
<mask id="mask45_26_1524" style="mask-type:luminance" maskUnits="userSpaceOnUse" x="52" y="17" width="686" height="726">
<path d="M278.941 17.1707L737.701 215.92L510.895 742.326L52.1342 543.577L278.941 17.1707Z" fill="white"/>
</mask>
<g mask="url(#mask45_26_1524)">
<mask id="mask46_26_1524" style="mask-type:luminance" maskUnits="userSpaceOnUse" x="52" y="17" width="686" height="726">
<path d="M278.941 17.1707L737.701 215.92L510.895 742.326L52.1342 543.577L278.941 17.1707Z" fill="white"/>
</mask>
<g mask="url(#mask46_26_1524)">
<mask id="mask47_26_1524" style="mask-type:luminance" maskUnits="userSpaceOnUse" x="52" y="17" width="686" height="726">
<path d="M278.941 17.1707L737.701 215.92L510.895 742.326L52.1342 543.577L278.941 17.1707Z" fill="white"/>
</mask>
<g mask="url(#mask47_26_1524)">
<path d="M280.675 223.565C289.264 288.29 292.122 289.774 307.78 346.497C308.783 349.783 316.866 378.729 328.038 376.523C344.747 373.195 332.35 342.819 329.465 326.932C320.176 275.86 316.149 266.19 308.192 227.096C307.005 221.622 303.127 197.968 296.492 186.367C294.112 182.254 287.059 178.259 280.939 181.892C272.709 186.818 279.404 213.417 280.675 223.565Z" fill="#2A4887"/>
</g>
</g>
</g>
</g>
<mask id="mask48_26_1524" style="mask-type:luminance" maskUnits="userSpaceOnUse" x="217" y="174" width="176" height="205">
<path d="M279.511 174.711L392.8 218.914L330.505 378.573L217.216 334.371L279.511 174.711Z" fill="white"/>
</mask>
<g mask="url(#mask48_26_1524)">
<mask id="mask49_26_1524" style="mask-type:luminance" maskUnits="userSpaceOnUse" x="52" y="17" width="686" height="726">
<path d="M278.941 17.1707L737.701 215.92L510.895 742.326L52.1342 543.577L278.941 17.1707Z" fill="white"/>
</mask>
<g mask="url(#mask49_26_1524)">
<mask id="mask50_26_1524" style="mask-type:luminance" maskUnits="userSpaceOnUse" x="52" y="17" width="686" height="726">
<path d="M278.941 17.1707L737.701 215.92L510.895 742.326L52.1342 543.577L278.941 17.1707Z" fill="white"/>
</mask>
<g mask="url(#mask50_26_1524)">
<mask id="mask51_26_1524" style="mask-type:luminance" maskUnits="userSpaceOnUse" x="52" y="17" width="686" height="726">
<path d="M278.941 17.1707L737.701 215.92L510.895 742.326L52.1342 543.577L278.941 17.1707Z" fill="white"/>
</mask>
<g mask="url(#mask51_26_1524)">
<path d="M328.038 376.523C316.866 378.729 308.701 349.751 307.78 346.497C292.122 289.774 289.264 288.29 280.675 223.566C279.42 213.52 272.709 186.818 280.939 181.892C282.817 180.76 284.85 180.291 286.995 180.506L286.532 180.772C278.279 185.709 284.98 212.291 286.255 222.48C294.837 287.221 297.669 288.676 313.373 345.378C314.212 348.405 321.243 373.561 331.217 375.394C330.213 375.934 329.14 376.312 328.038 376.523Z" fill="#013251"/>
</g>
</g>
</g>
</g>
<mask id="mask52_26_1524" style="mask-type:luminance" maskUnits="userSpaceOnUse" x="227" y="173" width="181" height="207">
<path d="M289.586 173.671L407.071 219.51L344.776 379.17L227.291 333.33L289.586 173.671Z" fill="white"/>
</mask>
<g mask="url(#mask52_26_1524)">
<mask id="mask53_26_1524" style="mask-type:luminance" maskUnits="userSpaceOnUse" x="52" y="17" width="686" height="726">
<path d="M278.941 17.1707L737.701 215.92L510.895 742.326L52.1342 543.577L278.941 17.1707Z" fill="white"/>
</mask>
<g mask="url(#mask53_26_1524)">
<mask id="mask54_26_1524" style="mask-type:luminance" maskUnits="userSpaceOnUse" x="52" y="17" width="686" height="726">
<path d="M278.941 17.1707L737.701 215.92L510.895 742.326L52.1342 543.577L278.941 17.1707Z" fill="white"/>
</mask>
<g mask="url(#mask54_26_1524)">
<mask id="mask55_26_1524" style="mask-type:luminance" maskUnits="userSpaceOnUse" x="52" y="17" width="686" height="726">
<path d="M278.941 17.1707L737.701 215.92L510.895 742.326L52.1342 543.577L278.941 17.1707Z" fill="white"/>
</mask>
<g mask="url(#mask55_26_1524)">
<path d="M292.805 221.132C301.42 285.886 304.262 287.364 319.959 344.083C320.939 347.378 329.022 376.324 340.194 374.119C356.916 370.757 344.519 340.381 341.621 324.528C332.332 273.456 328.305 263.786 320.355 224.675C319.184 219.207 315.283 195.564 308.648 183.963C306.298 179.822 299.212 175.814 293.109 179.454C284.879 184.38 291.573 210.979 292.838 221.144" fill="#2A4887"/>
<path d="M340.161 374.106C329.022 376.324 320.857 347.346 319.952 344.099C304.262 287.364 301.414 285.903 292.805 221.132C291.557 211.069 284.829 184.361 293.076 179.441C294.946 178.326 296.973 177.874 299.118 178.089L298.652 178.315C290.409 183.275 297.117 209.84 298.391 220.029C306.941 284.757 309.805 286.225 325.496 342.961C326.349 345.954 333.356 371.121 343.307 372.964C342.319 373.511 341.279 373.901 340.161 374.106Z" fill="#013251"/>
</g>
</g>
</g>
</g>
<mask id="mask56_26_1524" style="mask-type:luminance" maskUnits="userSpaceOnUse" x="268" y="111" width="281" height="283">
<path d="M347.58 111.773L548.982 190.356L469.851 393.166L268.448 314.584L347.58 111.773Z" fill="white"/>
</mask>
<g mask="url(#mask56_26_1524)">
<mask id="mask57_26_1524" style="mask-type:luminance" maskUnits="userSpaceOnUse" x="52" y="17" width="686" height="726">
<path d="M278.941 17.1707L737.701 215.92L510.895 742.326L52.1342 543.577L278.941 17.1707Z" fill="white"/>
</mask>
<g mask="url(#mask57_26_1524)">
<mask id="mask58_26_1524" style="mask-type:luminance" maskUnits="userSpaceOnUse" x="52" y="17" width="686" height="726">
<path d="M278.941 17.1707L737.701 215.92L510.895 742.326L52.1342 543.577L278.941 17.1707Z" fill="white"/>
</mask>
<g mask="url(#mask58_26_1524)">
<mask id="mask59_26_1524" style="mask-type:luminance" maskUnits="userSpaceOnUse" x="52" y="17" width="686" height="726">
<path d="M278.941 17.1707L737.701 215.92L510.895 742.326L52.1342 543.577L278.941 17.1707Z" fill="white"/>
</mask>
<g mask="url(#mask59_26_1524)">
<path d="M464.087 163.602L392.039 164.041C388.221 163.853 384.463 164.29 380.776 165.318C378.338 166.289 376.022 167.483 373.839 168.962C356.71 179.37 340.028 190.516 323.74 202.398C318.522 206.189 313.169 210.179 310.309 216.153C306.845 223.191 307.627 231.498 308.609 239.242C312.496 269.212 318.558 298.69 326.785 327.654C327.466 331.183 329.014 334.234 331.468 336.803C333.739 338.485 336.259 339.527 339.046 339.935C391.822 351.961 450.103 343.296 495.5 312.085C497.925 310.661 499.865 308.738 501.288 306.302C502.057 304.427 502.456 302.485 502.485 300.476C504.628 267.538 493.322 235.625 482.218 204.84L466.572 161.348" fill="#2A4887"/>
</g>
</g>
</g>
</g>
<mask id="mask60_26_1524" style="mask-type:luminance" maskUnits="userSpaceOnUse" x="268" y="193" width="249" height="201">
<path d="M315.59 193.761L516.993 272.343L469.851 393.166L268.448 314.584L315.59 193.761Z" fill="white"/>
</mask>
<g mask="url(#mask60_26_1524)">
<mask id="mask61_26_1524" style="mask-type:luminance" maskUnits="userSpaceOnUse" x="52" y="17" width="686" height="726">
<path d="M278.941 17.1707L737.701 215.92L510.895 742.326L52.1342 543.577L278.941 17.1707Z" fill="white"/>
</mask>
<g mask="url(#mask61_26_1524)">
<mask id="mask62_26_1524" style="mask-type:luminance" maskUnits="userSpaceOnUse" x="52" y="17" width="686" height="726">
<path d="M278.941 17.1707L737.701 215.92L510.895 742.326L52.1342 543.577L278.941 17.1707Z" fill="white"/>
</mask>
<g mask="url(#mask62_26_1524)">
<mask id="mask63_26_1524" style="mask-type:luminance" maskUnits="userSpaceOnUse" x="52" y="17" width="686" height="726">
<path d="M278.941 17.1707L737.701 215.92L510.895 742.326L52.1342 543.577L278.941 17.1707Z" fill="white"/>
</mask>
<g mask="url(#mask63_26_1524)">
<path d="M340.063 339.749C337.276 339.341 334.755 338.299 332.491 336.6C330.054 334.037 328.49 330.98 327.808 327.451C319.581 298.488 313.519 269.009 309.616 239.033C308.69 231.194 307.852 222.982 311.333 215.95C314.163 210.101 319.545 205.986 324.747 202.189C325.705 201.475 326.621 200.823 327.583 200.149C325.446 202.19 323.721 204.527 322.371 207.166C318.923 214.211 319.695 222.495 320.703 230.269C324.574 260.232 330.636 289.71 338.862 318.674C339.521 322.213 341.092 325.254 343.552 327.806C345.787 329.533 348.294 330.608 351.078 331.073C401.67 342.597 457.389 335.029 501.901 306.91C500.459 309.008 498.65 310.692 496.484 311.983C451.126 343.093 392.845 351.759 340.063 339.749Z" fill="#013251"/>
</g>
</g>
</g>
</g>
<mask id="mask64_26_1524" style="mask-type:luminance" maskUnits="userSpaceOnUse" x="370" y="135" width="183" height="211">
<path d="M434.865 135.886L552.35 181.726L488.371 345.7L370.886 299.86L434.865 135.886Z" fill="white"/>
</mask>
<g mask="url(#mask64_26_1524)">
<mask id="mask65_26_1524" style="mask-type:luminance" maskUnits="userSpaceOnUse" x="52" y="17" width="686" height="726">
<path d="M278.941 17.1709L737.701 215.92L510.895 742.326L52.1342 543.578L278.941 17.1709Z" fill="white"/>
</mask>
<g mask="url(#mask65_26_1524)">
<mask id="mask66_26_1524" style="mask-type:luminance" maskUnits="userSpaceOnUse" x="52" y="17" width="686" height="726">
<path d="M278.941 17.1709L737.701 215.92L510.895 742.326L52.1342 543.578L278.941 17.1709Z" fill="white"/>
</mask>
<g mask="url(#mask66_26_1524)">
<mask id="mask67_26_1524" style="mask-type:luminance" maskUnits="userSpaceOnUse" x="52" y="17" width="686" height="726">
<path d="M278.941 17.1709L737.701 215.92L510.895 742.326L52.1342 543.578L278.941 17.1709Z" fill="white"/>
</mask>
<g mask="url(#mask67_26_1524)">
<path d="M436.955 187.257C445.596 252.041 448.369 253.453 464.076 310.195C465.056 313.491 473.132 342.454 484.294 340.225C501.026 336.887 488.613 306.504 485.721 290.634C476.426 239.579 472.399 229.909 464.455 190.782C463.277 185.33 459.384 161.67 452.742 150.086C450.392 145.945 443.322 141.944 437.202 145.577C428.972 150.504 435.667 177.102 436.955 187.257Z" fill="#2A4887"/>
</g>
</g>
</g>
</g>
<mask id="mask68_26_1524" style="mask-type:luminance" maskUnits="userSpaceOnUse" x="370" y="140" width="181" height="206">
<path d="M433.181 140.201L550.666 186.041L488.371 345.7L370.886 299.86L433.181 140.201Z" fill="white"/>
</mask>
<g mask="url(#mask68_26_1524)">
<mask id="mask69_26_1524" style="mask-type:luminance" maskUnits="userSpaceOnUse" x="52" y="17" width="686" height="726">
<path d="M278.941 17.1707L737.701 215.92L510.895 742.326L52.1342 543.577L278.941 17.1707Z" fill="white"/>
</mask>
<g mask="url(#mask69_26_1524)">
<mask id="mask70_26_1524" style="mask-type:luminance" maskUnits="userSpaceOnUse" x="52" y="17" width="686" height="726">
<path d="M278.941 17.1707L737.701 215.92L510.895 742.326L52.1342 543.577L278.941 17.1707Z" fill="white"/>
</mask>
<g mask="url(#mask70_26_1524)">
<mask id="mask71_26_1524" style="mask-type:luminance" maskUnits="userSpaceOnUse" x="52" y="17" width="686" height="726">
<path d="M278.941 17.1707L737.701 215.92L510.895 742.326L52.1342 543.577L278.941 17.1707Z" fill="white"/>
</mask>
<g mask="url(#mask71_26_1524)">
<path d="M484.294 340.225C473.148 342.46 464.958 313.453 464.046 310.222C448.385 253.459 445.596 252.041 436.955 187.257C435.683 177.205 428.972 150.504 437.202 145.577C439.089 144.468 441.116 144.016 443.267 144.214L442.788 144.474C434.558 149.401 441.253 175.999 442.518 186.165C451.1 250.906 453.948 252.367 469.655 309.109C470.469 312.107 477.499 337.263 487.466 339.113C486.469 339.636 485.396 340.014 484.294 340.225Z" fill="#013251"/>
</g>
</g>
</g>
</g>
<mask id="mask72_26_1524" style="mask-type:luminance" maskUnits="userSpaceOnUse" x="386" y="136" width="181" height="206">
<path d="M449.136 136.482L566.621 182.322L504.326 341.981L386.841 296.142L449.136 136.482Z" fill="white"/>
</mask>
<g mask="url(#mask72_26_1524)">
<mask id="mask73_26_1524" style="mask-type:luminance" maskUnits="userSpaceOnUse" x="52" y="17" width="686" height="726">
<path d="M278.941 17.1707L737.701 215.92L510.895 742.326L52.1342 543.577L278.941 17.1707Z" fill="white"/>
</mask>
<g mask="url(#mask73_26_1524)">
<mask id="mask74_26_1524" style="mask-type:luminance" maskUnits="userSpaceOnUse" x="52" y="17" width="686" height="726">
<path d="M278.941 17.1707L737.701 215.92L510.895 742.326L52.1342 543.577L278.941 17.1707Z" fill="white"/>
</mask>
<g mask="url(#mask74_26_1524)">
<mask id="mask75_26_1524" style="mask-type:luminance" maskUnits="userSpaceOnUse" x="52" y="17" width="686" height="726">
<path d="M278.941 17.1707L737.701 215.92L510.895 742.326L52.1342 543.577L278.941 17.1707Z" fill="white"/>
</mask>
<g mask="url(#mask75_26_1524)">
<path d="M449.121 184.876C457.696 249.634 460.485 251.053 476.225 307.808C477.222 311.11 485.304 340.056 496.466 337.827C513.192 334.506 500.779 304.123 497.87 288.246C488.575 237.191 484.594 227.5 476.621 188.4C475.443 182.949 471.549 159.289 464.931 147.695C462.558 143.564 455.472 139.556 449.385 143.202C441.138 148.122 447.833 174.721 449.121 184.876Z" fill="#2A4887"/>
</g>
</g>
</g>
</g>
<mask id="mask76_26_1524" style="mask-type:luminance" maskUnits="userSpaceOnUse" x="386" y="136" width="177" height="205">
<path d="M449.136 136.482L562.425 180.685L500.13 340.344L386.841 296.142L449.136 136.482Z" fill="white"/>
</mask>
<g mask="url(#mask76_26_1524)">
<mask id="mask77_26_1524" style="mask-type:luminance" maskUnits="userSpaceOnUse" x="52" y="17" width="686" height="726">
<path d="M278.941 17.1707L737.701 215.92L510.895 742.326L52.1342 543.577L278.941 17.1707Z" fill="white"/>
</mask>
<g mask="url(#mask77_26_1524)">
<mask id="mask78_26_1524" style="mask-type:luminance" maskUnits="userSpaceOnUse" x="52" y="17" width="686" height="726">
<path d="M278.941 17.1707L737.701 215.92L510.895 742.326L52.1342 543.577L278.941 17.1707Z" fill="white"/>
</mask>
<g mask="url(#mask78_26_1524)">
<mask id="mask79_26_1524" style="mask-type:luminance" maskUnits="userSpaceOnUse" x="52" y="17" width="686" height="726">
<path d="M278.941 17.1707L737.701 215.92L510.895 742.326L52.1342 543.577L278.941 17.1707Z" fill="white"/>
</mask>
<g mask="url(#mask79_26_1524)">
<path d="M496.444 337.837C485.304 340.056 477.107 311.065 476.225 307.808C460.485 251.053 457.696 249.634 449.121 184.876C447.865 174.83 441.138 148.122 449.385 143.202C451.262 142.07 453.289 141.618 455.433 141.833L454.961 142.076C446.708 147.013 453.386 173.702 454.667 183.777C463.249 248.518 466.114 249.986 481.805 306.722C482.657 309.715 489.681 334.888 499.616 336.725C498.612 337.266 497.562 337.633 496.444 337.837Z" fill="#013251"/>
</g>
</g>
</g>
</g>
<mask id="mask80_26_1524" style="mask-type:luminance" maskUnits="userSpaceOnUse" x="396" y="135" width="181" height="206">
<path d="M459.211 135.441L576.696 181.281L514.402 340.94L396.916 295.101L459.211 135.441Z" fill="white"/>
</mask>
<g mask="url(#mask80_26_1524)">
<mask id="mask81_26_1524" style="mask-type:luminance" maskUnits="userSpaceOnUse" x="52" y="17" width="686" height="726">
<path d="M278.941 17.1709L737.701 215.92L510.895 742.326L52.1342 543.578L278.941 17.1709Z" fill="white"/>
</mask>
<g mask="url(#mask81_26_1524)">
<mask id="mask82_26_1524" style="mask-type:luminance" maskUnits="userSpaceOnUse" x="52" y="17" width="686" height="726">
<path d="M278.941 17.1709L737.701 215.92L510.895 742.326L52.1342 543.578L278.941 17.1709Z" fill="white"/>
</mask>
<g mask="url(#mask82_26_1524)">
<mask id="mask83_26_1524" style="mask-type:luminance" maskUnits="userSpaceOnUse" x="52" y="17" width="686" height="726">
<path d="M278.941 17.1709L737.701 215.92L510.895 742.326L52.1342 543.578L278.941 17.1709Z" fill="white"/>
</mask>
<g mask="url(#mask83_26_1524)">
<path d="M461.277 182.472C469.842 247.207 472.691 248.668 488.381 305.404C489.385 308.689 497.467 337.635 508.606 335.417C525.361 332.068 512.918 301.712 510.033 285.826C500.744 234.753 496.75 225.096 488.777 185.996C487.662 180.434 483.728 156.874 477.093 145.274C474.714 141.16 467.628 137.152 461.541 140.798C453.294 145.718 459.989 172.317 461.277 182.472Z" fill="#2A4887"/>
</g>
</g>
</g>
</g>
<mask id="mask84_26_1524" style="mask-type:luminance" maskUnits="userSpaceOnUse" x="396" y="135" width="177" height="205">
<path d="M459.211 135.441L572.501 179.644L510.206 339.303L396.916 295.101L459.211 135.441Z" fill="white"/>
</mask>
<g mask="url(#mask84_26_1524)">
<mask id="mask85_26_1524" style="mask-type:luminance" maskUnits="userSpaceOnUse" x="52" y="17" width="686" height="726">
<path d="M278.941 17.1709L737.701 215.92L510.895 742.326L52.1342 543.578L278.941 17.1709Z" fill="white"/>
</mask>
<g mask="url(#mask85_26_1524)">
<mask id="mask86_26_1524" style="mask-type:luminance" maskUnits="userSpaceOnUse" x="52" y="17" width="686" height="726">
<path d="M278.941 17.1709L737.701 215.92L510.895 742.326L52.1342 543.578L278.941 17.1709Z" fill="white"/>
</mask>
<g mask="url(#mask86_26_1524)">
<mask id="mask87_26_1524" style="mask-type:luminance" maskUnits="userSpaceOnUse" x="52" y="17" width="686" height="726">
<path d="M278.941 17.1709L737.701 215.92L510.895 742.326L52.1342 543.578L278.941 17.1709Z" fill="white"/>
</mask>
<g mask="url(#mask87_26_1524)">
<path d="M508.606 335.416C497.467 337.635 489.27 308.644 488.381 305.403C472.691 248.668 469.859 247.213 461.277 182.472C460.021 172.426 453.294 145.718 461.524 140.792C463.424 139.649 465.468 139.203 467.645 139.431L467.166 139.691C458.903 144.605 465.631 171.216 466.886 181.358C475.455 246.134 478.332 247.567 494.023 304.303C494.846 307.324 501.877 332.48 511.834 334.306C510.807 334.857 509.741 335.218 508.606 335.416Z" fill="#013251"/>
</g>
</g>
</g>
</g>
<mask id="mask88_26_1524" style="mask-type:luminance" maskUnits="userSpaceOnUse" x="406" y="130" width="183" height="210">
<path d="M470.971 130.085L588.456 175.925L524.477 339.9L406.992 294.06L470.971 130.085Z" fill="white"/>
</mask>
<g mask="url(#mask88_26_1524)">
<mask id="mask89_26_1524" style="mask-type:luminance" maskUnits="userSpaceOnUse" x="52" y="17" width="686" height="726">
<path d="M278.941 17.1709L737.701 215.92L510.895 742.326L52.1342 543.578L278.941 17.1709Z" fill="white"/>
</mask>
<g mask="url(#mask89_26_1524)">
<mask id="mask90_26_1524" style="mask-type:luminance" maskUnits="userSpaceOnUse" x="52" y="17" width="686" height="726">
<path d="M278.941 17.1709L737.701 215.92L510.895 742.326L52.1342 543.578L278.941 17.1709Z" fill="white"/>
</mask>
<g mask="url(#mask90_26_1524)">
<mask id="mask91_26_1524" style="mask-type:luminance" maskUnits="userSpaceOnUse" x="52" y="17" width="686" height="726">
<path d="M278.941 17.1709L737.701 215.92L510.895 742.326L52.1342 543.578L278.941 17.1709Z" fill="white"/>
</mask>
<g mask="url(#mask91_26_1524)">
<path d="M473.439 180.05C482.005 244.785 484.87 246.253 500.511 303.066C501.393 306.324 509.597 335.298 520.742 333.062C537.484 329.748 525.055 299.358 522.156 283.505C512.868 232.433 508.88 222.759 500.914 183.642C499.791 178.096 495.835 154.548 489.223 142.937C486.85 138.806 479.764 134.798 473.677 138.444C465.431 143.364 472.125 169.963 473.406 180.135" fill="#2A4887"/>
<path d="M520.762 333.012C509.63 335.213 501.442 306.246 500.537 302.999C484.87 246.253 482.005 244.785 473.439 180.05C472.191 169.988 465.48 143.286 473.693 138.353C475.58 137.245 477.607 136.792 479.752 137.008C479.598 137.064 479.447 137.161 479.302 137.24C471.026 142.188 477.704 168.877 479.009 178.941C487.591 243.683 490.439 245.144 506.13 301.879C506.983 304.873 514.006 330.046 523.941 331.883C522.937 332.423 521.887 332.791 520.762 333.012Z" fill="#013251"/>
</g>
</g>
</g>
</g>
<mask id="mask92_26_1524" style="mask-type:luminance" maskUnits="userSpaceOnUse" x="422" y="130" width="177" height="205">
<path d="M485.242 130.682L598.531 174.884L536.236 334.544L422.947 290.341L485.242 130.682Z" fill="white"/>
</mask>
<g mask="url(#mask92_26_1524)">
<mask id="mask93_26_1524" style="mask-type:luminance" maskUnits="userSpaceOnUse" x="52" y="17" width="686" height="726">
<path d="M278.941 17.1707L737.701 215.92L510.895 742.326L52.1342 543.577L278.941 17.1707Z" fill="white"/>
</mask>
<g mask="url(#mask93_26_1524)">
<mask id="mask94_26_1524" style="mask-type:luminance" maskUnits="userSpaceOnUse" x="52" y="17" width="686" height="726">
<path d="M278.941 17.1707L737.701 215.92L510.895 742.326L52.1342 543.577L278.941 17.1707Z" fill="white"/>
</mask>
<g mask="url(#mask94_26_1524)">
<mask id="mask95_26_1524" style="mask-type:luminance" maskUnits="userSpaceOnUse" x="52" y="17" width="686" height="726">
<path d="M278.941 17.1707L737.701 215.92L510.895 742.326L52.1342 543.577L278.941 17.1707Z" fill="white"/>
</mask>
<g mask="url(#mask95_26_1524)">
<path d="M485.093 177.722C493.682 242.447 496.507 243.918 512.185 300.688C513.172 303.967 521.271 332.919 532.426 330.707C549.165 327.352 536.752 296.969 533.853 281.116C524.564 230.044 520.538 220.374 512.604 181.27C511.416 175.795 507.516 152.152 500.881 140.551C498.53 136.41 491.461 132.409 485.328 136.076C477.098 141.002 483.792 167.601 485.08 177.756" fill="#2A4887"/>
<path d="M532.446 330.656C521.284 332.885 513.11 303.884 512.198 300.654C496.507 243.918 493.676 242.464 485.093 177.722C483.845 167.66 477.118 140.952 485.364 136.032C487.218 134.91 489.236 134.435 491.37 134.627L490.908 134.893C482.661 139.813 489.356 166.411 490.637 176.583C499.219 241.325 502.051 242.779 517.741 299.515C518.588 302.526 525.618 327.682 535.592 329.514C534.588 330.055 533.532 330.439 532.446 330.656Z" fill="#013251"/>
</g>
</g>
</g>
</g>
<mask id="mask96_26_1524" style="mask-type:luminance" maskUnits="userSpaceOnUse" x="433" y="125" width="182" height="211">
<path d="M497.001 125.326L614.486 171.165L550.507 335.14L433.022 289.3L497.001 125.326Z" fill="white"/>
</mask>
<g mask="url(#mask96_26_1524)">
<mask id="mask97_26_1524" style="mask-type:luminance" maskUnits="userSpaceOnUse" x="52" y="17" width="686" height="726">
<path d="M278.941 17.1707L737.701 215.92L510.895 742.326L52.1342 543.577L278.941 17.1707Z" fill="white"/>
</mask>
<g mask="url(#mask97_26_1524)">
<mask id="mask98_26_1524" style="mask-type:luminance" maskUnits="userSpaceOnUse" x="52" y="17" width="686" height="726">
<path d="M278.941 17.1707L737.701 215.92L510.895 742.326L52.1342 543.577L278.941 17.1707Z" fill="white"/>
</mask>
<g mask="url(#mask98_26_1524)">
<mask id="mask99_26_1524" style="mask-type:luminance" maskUnits="userSpaceOnUse" x="52" y="17" width="686" height="726">
<path d="M278.941 17.1707L737.701 215.92L510.895 742.326L52.1342 543.577L278.941 17.1707Z" fill="white"/>
</mask>
<g mask="url(#mask99_26_1524)">
<path d="M497.246 175.374C505.832 240.059 508.703 241.509 524.403 298.269C525.384 301.564 533.466 330.51 544.612 328.275C561.36 324.943 548.947 294.56 546.055 278.691C536.743 227.629 532.749 217.972 524.789 178.838C523.628 173.393 519.734 149.733 513.092 138.149C510.742 134.008 503.656 130 497.553 133.64C489.323 138.566 496.017 165.165 497.289 175.313" fill="#2A4887"/>
</g>
</g>
</g>
</g>
<mask id="mask100_26_1524" style="mask-type:luminance" maskUnits="userSpaceOnUse" x="433" y="125" width="178" height="209">
<path d="M497.001 125.326L610.29 169.528L546.311 333.503L433.022 289.3L497.001 125.326Z" fill="white"/>
</mask>
<g mask="url(#mask100_26_1524)">
<mask id="mask101_26_1524" style="mask-type:luminance" maskUnits="userSpaceOnUse" x="52" y="17" width="686" height="726">
<path d="M278.941 17.1707L737.701 215.92L510.895 742.326L52.1342 543.577L278.941 17.1707Z" fill="white"/>
</mask>
<g mask="url(#mask101_26_1524)">
<mask id="mask102_26_1524" style="mask-type:luminance" maskUnits="userSpaceOnUse" x="52" y="17" width="686" height="726">
<path d="M278.941 17.1707L737.701 215.92L510.895 742.326L52.1342 543.577L278.941 17.1707Z" fill="white"/>
</mask>
<g mask="url(#mask102_26_1524)">
<mask id="mask103_26_1524" style="mask-type:luminance" maskUnits="userSpaceOnUse" x="52" y="17" width="686" height="726">
<path d="M278.941 17.1707L737.701 215.92L510.895 742.326L52.1342 543.577L278.941 17.1707Z" fill="white"/>
</mask>
<g mask="url(#mask103_26_1524)">
<path d="M544.595 328.269C533.45 330.504 525.308 301.419 524.397 298.286C508.703 241.51 505.841 240.083 497.246 175.375C495.991 165.329 489.264 138.621 497.51 133.701C499.404 132.575 501.408 132.134 503.559 132.332L503.086 132.575C494.833 137.512 501.511 164.201 502.799 174.259C511.434 238.963 514.266 240.417 529.956 297.153C530.809 300.147 537.833 325.32 547.768 327.157C546.764 327.697 545.714 328.064 544.595 328.269Z" fill="#013251"/>
</g>
</g>
</g>
</g>
<mask id="mask104_26_1524" style="mask-type:luminance" maskUnits="userSpaceOnUse" x="444" y="124" width="181" height="206">
<path d="M507.076 124.285L624.561 170.124L562.266 329.784L444.781 283.944L507.076 124.285Z" fill="white"/>
</mask>
<g mask="url(#mask104_26_1524)">
<mask id="mask105_26_1524" style="mask-type:luminance" maskUnits="userSpaceOnUse" x="52" y="17" width="686" height="726">
<path d="M278.941 17.1707L737.701 215.92L510.895 742.326L52.1342 543.577L278.941 17.1707Z" fill="white"/>
</mask>
<g mask="url(#mask105_26_1524)">
<mask id="mask106_26_1524" style="mask-type:luminance" maskUnits="userSpaceOnUse" x="52" y="17" width="686" height="726">
<path d="M278.941 17.1707L737.701 215.92L510.895 742.326L52.1342 543.577L278.941 17.1707Z" fill="white"/>
</mask>
<g mask="url(#mask106_26_1524)">
<mask id="mask107_26_1524" style="mask-type:luminance" maskUnits="userSpaceOnUse" x="52" y="17" width="686" height="726">
<path d="M278.941 17.1707L737.701 215.92L510.895 742.326L52.1342 543.577L278.941 17.1707Z" fill="white"/>
</mask>
<g mask="url(#mask107_26_1524)">
<path d="M509.428 172.903C517.994 237.638 520.859 239.105 536.549 295.841C537.438 299.082 545.619 328.066 556.758 325.848C573.5 322.533 561.07 292.143 558.201 276.263C548.896 225.185 544.902 215.527 536.929 176.427C535.813 170.865 531.88 147.305 525.245 135.705C522.882 131.598 515.796 127.59 509.693 131.229C501.463 136.156 508.157 162.754 509.428 172.903Z" fill="#2A4887"/>
<path d="M556.758 325.848C545.619 328.066 537.438 299.082 536.549 295.841C520.859 239.105 517.994 237.638 509.428 172.903C508.15 162.771 501.463 136.156 509.686 131.246C511.573 130.137 513.607 129.668 515.774 129.873C515.597 129.94 515.446 130.036 515.295 130.133C507.019 135.08 513.704 161.752 515.001 171.834C523.583 236.575 526.432 238.036 542.129 294.755C542.975 297.765 550.006 322.922 559.963 324.748C558.943 325.282 557.893 325.649 556.758 325.848Z" fill="#013251"/>
</g>
</g>
</g>
</g>
<mask id="mask108_26_1524" style="mask-type:luminance" maskUnits="userSpaceOnUse" x="459" y="120" width="178" height="209">
<path d="M523.031 120.566L636.321 164.768L572.342 328.743L459.053 284.54L523.031 120.566Z" fill="white"/>
</mask>
<g mask="url(#mask108_26_1524)">
<mask id="mask109_26_1524" style="mask-type:luminance" maskUnits="userSpaceOnUse" x="52" y="17" width="686" height="726">
<path d="M278.941 17.1707L737.701 215.92L510.895 742.326L52.1342 543.577L278.941 17.1707Z" fill="white"/>
</mask>
<g mask="url(#mask109_26_1524)">
<mask id="mask110_26_1524" style="mask-type:luminance" maskUnits="userSpaceOnUse" x="52" y="17" width="686" height="726">
<path d="M278.941 17.1707L737.701 215.92L510.895 742.326L52.1342 543.577L278.941 17.1707Z" fill="white"/>
</mask>
<g mask="url(#mask110_26_1524)">
<mask id="mask111_26_1524" style="mask-type:luminance" maskUnits="userSpaceOnUse" x="52" y="17" width="686" height="726">
<path d="M278.941 17.1707L737.701 215.92L510.895 742.326L52.1342 543.577L278.941 17.1707Z" fill="white"/>
</mask>
<g mask="url(#mask111_26_1524)">
<path d="M521.657 170.507C530.222 235.242 533.054 236.697 548.778 293.446C549.758 296.741 557.824 325.681 568.98 323.469C585.734 320.12 573.305 289.731 570.423 273.884C561.118 222.806 557.124 213.149 549.157 174.032C547.986 168.564 544.102 144.927 537.467 133.326C535.117 129.185 528.031 125.177 521.921 128.834C513.658 133.748 520.392 160.342 521.657 170.507Z" fill="#2A4887"/>
</g>
</g>
</g>
</g>
<mask id="mask112_26_1524" style="mask-type:luminance" maskUnits="userSpaceOnUse" x="459" y="124" width="176" height="205">
<path d="M521.348 124.881L634.637 169.084L572.342 328.743L459.053 284.54L521.348 124.881Z" fill="white"/>
</mask>
<g mask="url(#mask112_26_1524)">
<mask id="mask113_26_1524" style="mask-type:luminance" maskUnits="userSpaceOnUse" x="52" y="17" width="686" height="726">
<path d="M278.941 17.1707L737.701 215.92L510.895 742.326L52.1342 543.577L278.941 17.1707Z" fill="white"/>
</mask>
<g mask="url(#mask113_26_1524)">
<mask id="mask114_26_1524" style="mask-type:luminance" maskUnits="userSpaceOnUse" x="52" y="17" width="686" height="726">
<path d="M278.941 17.1707L737.701 215.92L510.895 742.326L52.1342 543.577L278.941 17.1707Z" fill="white"/>
</mask>
<g mask="url(#mask114_26_1524)">
<mask id="mask115_26_1524" style="mask-type:luminance" maskUnits="userSpaceOnUse" x="52" y="17" width="686" height="726">
<path d="M278.941 17.1707L737.701 215.92L510.895 742.326L52.1342 543.577L278.941 17.1707Z" fill="white"/>
</mask>
<g mask="url(#mask115_26_1524)">
<path d="M568.914 323.443C557.775 325.662 549.594 296.677 548.673 293.424C533.021 236.684 530.15 235.234 521.657 170.507C520.401 160.462 513.658 133.747 521.904 128.827C523.775 127.712 525.786 127.253 527.92 127.445C527.743 127.512 527.592 127.609 527.441 127.705C519.178 132.619 525.889 159.224 527.161 169.372C535.73 234.148 538.575 235.568 554.282 292.311C555.128 295.321 562.158 320.477 572.109 322.32C571.105 322.861 570.033 323.239 568.914 323.443Z" fill="#013251"/>
</g>
</g>
</g>
</g>
<mask id="mask116_26_1524" style="mask-type:luminance" maskUnits="userSpaceOnUse" x="280" y="283" width="318" height="366">
<path d="M391.892 283.196L597.491 363.415L486.37 648.213L280.771 567.994L391.892 283.196Z" fill="white"/>
</mask>
<g mask="url(#mask116_26_1524)">
<mask id="mask117_26_1524" style="mask-type:luminance" maskUnits="userSpaceOnUse" x="52" y="17" width="686" height="726">
<path d="M278.941 17.1707L737.701 215.92L510.895 742.326L52.1342 543.577L278.941 17.1707Z" fill="white"/>
</mask>
<g mask="url(#mask117_26_1524)">
<mask id="mask118_26_1524" style="mask-type:luminance" maskUnits="userSpaceOnUse" x="52" y="17" width="686" height="726">
<path d="M278.941 17.1707L737.701 215.92L510.895 742.326L52.1342 543.577L278.941 17.1707Z" fill="white"/>
</mask>
<g mask="url(#mask118_26_1524)">
<mask id="mask119_26_1524" style="mask-type:luminance" maskUnits="userSpaceOnUse" x="52" y="17" width="686" height="726">
<path d="M278.941 17.1707L737.701 215.92L510.895 742.326L52.1342 543.577L278.941 17.1707Z" fill="white"/>
</mask>
<g mask="url(#mask119_26_1524)">
<path d="M385.633 309.207C387.046 301.135 387.881 298.412 393.247 295.164C401.943 289.915 410.765 289.763 416.624 296.769C429.948 312.766 432.424 336.573 437.345 357.021C457.039 438.49 476.678 520.15 491.17 602.755C492.789 609.932 493.29 617.216 492.718 624.587C491.805 631.864 491.467 632.489 485.323 636.424C482.547 638.215 472.136 640.601 469.159 639.323C466.921 637.847 464.886 636.141 463.039 634.196C450.388 620.928 450.061 610.488 444.364 592.805C432.113 555.085 421.745 516.799 413.276 477.952C410.715 466.173 408.33 454.328 405.929 442.573L398.592 405.858C393.16 379.364 384.352 336.306 385.624 309.184" fill="#FECC27"/>
</g>
</g>
</g>
</g>
<mask id="mask120_26_1524" style="mask-type:luminance" maskUnits="userSpaceOnUse" x="280" y="283" width="314" height="364">
<path d="M391.892 283.196L593.295 361.778L482.174 646.576L280.771 567.994L391.892 283.196Z" fill="white"/>
</mask>
<g mask="url(#mask120_26_1524)">
<mask id="mask121_26_1524" style="mask-type:luminance" maskUnits="userSpaceOnUse" x="52" y="17" width="686" height="726">
<path d="M278.941 17.1707L737.701 215.92L510.895 742.326L52.1342 543.577L278.941 17.1707Z" fill="white"/>
</mask>
<g mask="url(#mask121_26_1524)">
<mask id="mask122_26_1524" style="mask-type:luminance" maskUnits="userSpaceOnUse" x="52" y="17" width="686" height="726">
<path d="M278.941 17.1707L737.701 215.92L510.895 742.326L52.1342 543.577L278.941 17.1707Z" fill="white"/>
</mask>
<g mask="url(#mask122_26_1524)">
<mask id="mask123_26_1524" style="mask-type:luminance" maskUnits="userSpaceOnUse" x="52" y="17" width="686" height="726">
<path d="M278.941 17.1707L737.701 215.92L510.895 742.326L52.1342 543.577L278.941 17.1707Z" fill="white"/>
</mask>
<g mask="url(#mask123_26_1524)">
<path d="M469.074 639.445C466.846 637.993 464.795 636.28 462.954 634.318C450.375 620.962 450.061 610.488 444.397 592.818C432.107 555.102 421.738 516.815 413.276 477.952C410.715 466.173 408.33 454.328 405.929 442.573L398.592 405.858C393.275 379.409 384.352 336.306 385.624 309.184C387.013 301.122 387.842 298.416 393.214 295.151C396.876 292.832 400.872 291.594 405.155 291.459C403.452 292.096 401.818 292.896 400.276 293.848C394.993 297.03 394.118 299.757 392.646 307.884C391.42 334.985 400.334 378.065 405.661 404.537C408.108 416.757 410.57 428.982 413.056 441.198C415.441 453.043 417.793 464.876 420.42 476.583C428.837 515.468 439.159 553.775 451.403 591.511C457.127 609.127 457.404 619.645 470.002 632.951C471.85 634.896 473.901 636.609 476.139 638.084C477.595 638.516 479.071 638.606 480.589 638.344C476.453 639.508 471.077 640.362 469.074 639.445Z" fill="#E2B127"/>
</g>
</g>
</g>
</g>
<mask id="mask124_26_1524" style="mask-type:luminance" maskUnits="userSpaceOnUse" x="322" y="157" width="86" height="93">
<path d="M349.21 157.158L407.953 180.078L381.014 249.12L322.272 226.2L349.21 157.158Z" fill="white"/>
</mask>
<g mask="url(#mask124_26_1524)">
<mask id="mask125_26_1524" style="mask-type:luminance" maskUnits="userSpaceOnUse" x="52" y="17" width="686" height="726">
<path d="M278.941 17.1709L737.701 215.92L510.895 742.326L52.1342 543.578L278.941 17.1709Z" fill="white"/>
</mask>
<g mask="url(#mask125_26_1524)">
<mask id="mask126_26_1524" style="mask-type:luminance" maskUnits="userSpaceOnUse" x="52" y="17" width="686" height="726">
<path d="M278.941 17.1709L737.701 215.92L510.895 742.326L52.1342 543.578L278.941 17.1709Z" fill="white"/>
</mask>
<g mask="url(#mask126_26_1524)">
<mask id="mask127_26_1524" style="mask-type:luminance" maskUnits="userSpaceOnUse" x="52" y="17" width="686" height="726">
<path d="M278.941 17.1709L737.701 215.92L510.895 742.326L52.1342 543.578L278.941 17.1709Z" fill="white"/>
</mask>
<g mask="url(#mask127_26_1524)">
<path d="M336.206 226.548C354.756 209.45 375.885 196.971 399.581 189.144C400.273 188.871 400.883 188.468 401.412 187.936C401.94 187.404 402.351 186.788 402.653 186.109C402.946 185.408 403.111 184.695 403.121 183.942C403.148 183.195 403.028 182.488 402.756 181.78C402.495 181.095 402.089 180.49 401.594 179.967C401.083 179.437 400.487 179.029 399.828 178.734C399.146 178.448 398.451 178.293 397.72 178.28C396.988 178.267 396.293 178.403 395.601 178.677C370.977 186.802 349.011 199.731 329.712 217.489C329.138 217.944 328.658 218.495 328.29 219.148C327.922 219.801 327.676 220.481 327.56 221.213C327.438 221.962 327.457 222.688 327.627 223.415C327.78 224.135 328.065 224.809 328.471 225.414C328.9 226.009 329.43 226.488 330.056 226.868C330.682 227.248 331.361 227.493 332.076 227.598C332.807 227.708 333.519 227.675 334.234 227.488C334.942 227.318 335.615 226.997 336.206 226.548Z" fill="white"/>
</g>
</g>
</g>
</g>
<mask id="mask128_26_1524" style="mask-type:luminance" maskUnits="userSpaceOnUse" x="406" y="167" width="28" height="26">
<path d="M413.004 167.133L433.983 175.318L427.249 192.579L406.269 184.393L413.004 167.133Z" fill="white"/>
</mask>
<g mask="url(#mask128_26_1524)">
<mask id="mask129_26_1524" style="mask-type:luminance" maskUnits="userSpaceOnUse" x="52" y="17" width="686" height="726">
<path d="M278.941 17.1707L737.701 215.92L510.895 742.326L52.1342 543.577L278.941 17.1707Z" fill="white"/>
</mask>
<g mask="url(#mask129_26_1524)">
<mask id="mask130_26_1524" style="mask-type:luminance" maskUnits="userSpaceOnUse" x="52" y="17" width="686" height="726">
<path d="M278.941 17.1707L737.701 215.92L510.895 742.326L52.1342 543.577L278.941 17.1707Z" fill="white"/>
</mask>
<g mask="url(#mask130_26_1524)">
<mask id="mask131_26_1524" style="mask-type:luminance" maskUnits="userSpaceOnUse" x="52" y="17" width="686" height="726">
<path d="M278.941 17.1707L737.701 215.92L510.895 742.326L52.1342 543.577L278.941 17.1707Z" fill="white"/>
</mask>
<g mask="url(#mask131_26_1524)">
<path d="M415.793 187.138L423.685 185.595C424.4 185.505 425.062 185.258 425.673 184.855C427.09 184.127 427.984 182.999 428.333 181.426C428.625 180.725 428.685 179.99 428.561 179.243C428.477 178.491 428.255 177.803 427.908 177.143C427.538 176.494 427.073 175.943 426.513 175.491C425.936 175.033 425.29 174.704 424.575 174.503C423.877 174.308 423.159 174.261 422.421 174.361L414.536 175.888C413.083 176.175 411.846 176.877 410.857 178.006C410.342 178.602 410 179.284 409.848 180.06C409.588 180.774 409.512 181.502 409.629 182.266C409.802 183.713 410.43 184.909 411.531 185.863C412.753 186.942 414.176 187.361 415.793 187.138Z" fill="white"/>
</g>
</g>
</g>
</g>
<mask id="mask132_26_1524" style="mask-type:luminance" maskUnits="userSpaceOnUse" x="366" y="358" width="156" height="179">
<path d="M420.355 358.938L521.057 398.229L467.18 536.313L366.479 497.022L420.355 358.938Z" fill="white"/>
</mask>
<g mask="url(#mask132_26_1524)">
<mask id="mask133_26_1524" style="mask-type:luminance" maskUnits="userSpaceOnUse" x="52" y="17" width="686" height="726">
<path d="M278.941 17.1707L737.701 215.92L510.895 742.326L52.1342 543.577L278.941 17.1707Z" fill="white"/>
</mask>
<g mask="url(#mask133_26_1524)">
<mask id="mask134_26_1524" style="mask-type:luminance" maskUnits="userSpaceOnUse" x="52" y="17" width="686" height="726">
<path d="M278.941 17.1707L737.701 215.92L510.895 742.326L52.1342 543.577L278.941 17.1707Z" fill="white"/>
</mask>
<g mask="url(#mask134_26_1524)">
<mask id="mask135_26_1524" style="mask-type:luminance" maskUnits="userSpaceOnUse" x="52" y="17" width="686" height="726">
<path d="M278.941 17.1707L737.701 215.92L510.895 742.326L52.1342 543.577L278.941 17.1707Z" fill="white"/>
</mask>
<g mask="url(#mask135_26_1524)">
<path d="M421.522 368.774C431.336 409.641 440.413 450.706 448.735 491.962C451.109 503.784 453.432 515.644 455.692 527.519C455.799 528.26 456.028 528.932 456.398 529.581C456.751 530.224 457.223 530.758 457.8 531.216C458.36 531.668 459.006 531.997 459.704 532.192C460.396 532.404 461.107 532.468 461.839 532.384C462.56 532.277 463.239 532.037 463.892 531.67C464.536 531.28 465.084 530.795 465.537 530.215C465.997 529.617 466.332 528.952 466.536 528.235C466.74 527.518 466.8 526.784 466.732 526.039C458.869 484.671 450.246 443.511 440.822 402.563C438.125 390.79 435.36 379.049 432.533 367.321C432.425 366.58 432.196 365.908 431.826 365.259C431.473 364.616 431.001 364.083 430.441 363.631C429.864 363.173 429.242 362.833 428.543 362.638C427.835 362.42 427.124 362.356 426.392 362.44C425.671 362.547 424.992 362.787 424.355 363.16C423.718 363.533 423.164 364.035 422.71 364.616C422.251 365.213 421.915 365.879 421.711 366.595C421.507 367.312 421.447 368.046 421.516 368.791L421.522 368.774Z" fill="white"/>
</g>
</g>
</g>
</g>
<mask id="mask136_26_1524" style="mask-type:luminance" maskUnits="userSpaceOnUse" x="448" y="544" width="46" height="52">
<path d="M463.813 544.943L493.184 556.403L478.031 595.239L448.66 583.779L463.813 544.943Z" fill="white"/>
</mask>
<g mask="url(#mask136_26_1524)">
<mask id="mask137_26_1524" style="mask-type:luminance" maskUnits="userSpaceOnUse" x="52" y="17" width="686" height="726">
<path d="M278.941 17.1707L737.701 215.92L510.895 742.326L52.1342 543.577L278.941 17.1707Z" fill="white"/>
</mask>
<g mask="url(#mask137_26_1524)">
<mask id="mask138_26_1524" style="mask-type:luminance" maskUnits="userSpaceOnUse" x="52" y="17" width="686" height="726">
<path d="M278.941 17.1707L737.701 215.92L510.895 742.326L52.1342 543.577L278.941 17.1707Z" fill="white"/>
</mask>
<g mask="url(#mask138_26_1524)">
<mask id="mask139_26_1524" style="mask-type:luminance" maskUnits="userSpaceOnUse" x="52" y="17" width="686" height="726">
<path d="M278.941 17.1707L737.701 215.92L510.895 742.326L52.1342 543.577L278.941 17.1707Z" fill="white"/>
</mask>
<g mask="url(#mask139_26_1524)">
<path d="M462.893 559.112C463.608 561.392 464.291 563.659 464.935 565.93C465.262 567.125 465.572 568.315 465.817 569.478C465.97 570.101 465.895 569.761 465.856 569.377L466.042 570.207L466.489 572.11C467.53 576.848 468.342 581.593 468.953 586.415C469.038 587.166 469.26 587.855 469.623 588.521C469.977 589.164 470.442 589.715 471.019 590.173C471.595 590.631 472.241 590.96 472.946 591.138C473.644 591.333 474.379 591.387 475.1 591.28C475.832 591.196 476.511 590.956 477.17 590.572C477.807 590.199 478.355 589.714 478.815 589.116C479.275 588.519 479.603 587.87 479.814 587.137C480.018 586.42 480.078 585.686 479.993 584.934C478.673 574.669 476.44 564.612 473.283 554.795C473.021 554.111 472.622 553.489 472.127 552.965C471.616 552.436 471.02 552.028 470.345 551.726C469.679 551.447 468.968 551.286 468.23 551.289C467.499 551.276 466.803 551.412 466.111 551.686C465.429 551.983 464.835 552.392 464.306 552.924C463.777 553.456 463.367 554.073 463.081 554.757C462.778 555.436 462.607 556.165 462.58 556.912C462.576 557.648 462.674 558.366 462.929 559.068L462.893 559.112Z" fill="white"/>
</g>
</g>
</g>
</g>
<mask id="mask140_26_1524" style="mask-type:luminance" maskUnits="userSpaceOnUse" x="479" y="684" width="38" height="41">
<path d="M491.368 684.968L516.543 694.791L504.758 724.996L479.583 715.174L491.368 684.968Z" fill="white"/>
</mask>
<g mask="url(#mask140_26_1524)">
<mask id="mask141_26_1524" style="mask-type:luminance" maskUnits="userSpaceOnUse" x="52" y="17" width="686" height="726">
<path d="M278.941 17.1709L737.701 215.92L510.895 742.326L52.1342 543.578L278.941 17.1709Z" fill="white"/>
</mask>
<g mask="url(#mask141_26_1524)">
<mask id="mask142_26_1524" style="mask-type:luminance" maskUnits="userSpaceOnUse" x="52" y="17" width="686" height="726">
<path d="M278.941 17.1709L737.701 215.92L510.895 742.326L52.1342 543.578L278.941 17.1709Z" fill="white"/>
</mask>
<g mask="url(#mask142_26_1524)">
<mask id="mask143_26_1524" style="mask-type:luminance" maskUnits="userSpaceOnUse" x="52" y="17" width="686" height="726">
<path d="M278.941 17.1709L737.701 215.92L510.895 742.326L52.1342 543.578L278.941 17.1709Z" fill="white"/>
</mask>
<g mask="url(#mask143_26_1524)">
<path d="M502.972 695.788C502.214 696.91 501.343 697.93 500.372 698.871L501.432 697.848C500.181 699.069 498.79 700.119 497.313 700.999L498.557 700.28C497.001 701.169 495.374 701.855 493.681 702.321L495.066 701.967C493.373 702.433 491.671 702.682 489.926 702.701L491.372 702.721C490.792 702.708 490.201 702.672 489.618 702.619C488.896 702.532 488.178 702.582 487.463 702.769C486.748 702.956 486.092 703.283 485.501 703.732C484.904 704.198 484.424 704.749 484.04 705.395C483.672 706.048 483.419 706.746 483.313 707.501C483.214 708.239 483.265 708.978 483.442 709.687C483.628 710.42 483.942 711.067 484.371 711.662C484.816 712.263 485.347 712.742 485.973 713.122C486.599 713.502 487.261 713.741 487.992 713.852C492.55 714.271 496.942 713.518 501.158 711.57C505.374 709.622 508.841 706.74 511.589 702.938C512.552 701.682 512.953 700.265 512.804 698.711C512.736 697.966 512.514 697.277 512.15 696.611C511.797 695.968 511.332 695.418 510.755 694.96C510.185 694.485 509.549 694.179 508.834 693.977C508.136 693.783 507.418 693.735 506.687 693.819C505.194 694.014 503.957 694.716 503.015 695.921L502.972 695.788Z" fill="white"/>
</g>
</g>
</g>
</g>
<mask id="mask144_26_1524" style="mask-type:luminance" maskUnits="userSpaceOnUse" x="445" y="118" width="93" height="80">
<path d="M465.946 118.181L537.276 146.012L517.072 197.794L445.742 169.962L465.946 118.181Z" fill="white"/>
</mask>
<g mask="url(#mask144_26_1524)">
<mask id="mask145_26_1524" style="mask-type:luminance" maskUnits="userSpaceOnUse" x="52" y="17" width="686" height="726">
<path d="M278.941 17.1709L737.701 215.92L510.895 742.326L52.1342 543.578L278.941 17.1709Z" fill="white"/>
</mask>
<g mask="url(#mask145_26_1524)">
<mask id="mask146_26_1524" style="mask-type:luminance" maskUnits="userSpaceOnUse" x="52" y="17" width="686" height="726">
<path d="M278.941 17.1709L737.701 215.92L510.895 742.326L52.1342 543.578L278.941 17.1709Z" fill="white"/>
</mask>
<g mask="url(#mask146_26_1524)">
<mask id="mask147_26_1524" style="mask-type:luminance" maskUnits="userSpaceOnUse" x="52" y="17" width="686" height="726">
<path d="M278.941 17.1709L737.701 215.92L510.895 742.326L52.1342 543.578L278.941 17.1709Z" fill="white"/>
</mask>
<g mask="url(#mask147_26_1524)">
<path d="M531.511 146.365C525.099 144.019 518.529 144.544 511.871 145.636C505.206 146.745 498.813 147.98 492.263 149.522C479.155 152.429 466.224 156.046 453.469 160.372C446.658 162.726 450.687 173.213 457.475 170.87C468.983 166.931 480.645 163.615 492.493 160.935C498.339 159.603 504.128 158.56 510.029 157.425C515.477 156.482 521.66 154.913 526.977 156.871C533.629 159.33 538.168 148.905 531.484 146.433L531.511 146.365Z" fill="white"/>
</g>
</g>
</g>
</g>
<mask id="mask148_26_1524" style="mask-type:luminance" maskUnits="userSpaceOnUse" x="218" y="172" width="74" height="70">
<path d="M236.697 172.923L291.243 194.205L272.723 241.672L218.177 220.389L236.697 172.923Z" fill="white"/>
</mask>
<g mask="url(#mask148_26_1524)">
<mask id="mask149_26_1524" style="mask-type:luminance" maskUnits="userSpaceOnUse" x="52" y="17" width="686" height="726">
<path d="M278.941 17.1707L737.701 215.92L510.895 742.326L52.1342 543.577L278.941 17.1707Z" fill="white"/>
</mask>
<g mask="url(#mask149_26_1524)">
<mask id="mask150_26_1524" style="mask-type:luminance" maskUnits="userSpaceOnUse" x="52" y="17" width="686" height="726">
<path d="M278.941 17.1707L737.701 215.92L510.895 742.326L52.1342 543.577L278.941 17.1707Z" fill="white"/>
</mask>
<g mask="url(#mask150_26_1524)">
<mask id="mask151_26_1524" style="mask-type:luminance" maskUnits="userSpaceOnUse" x="52" y="17" width="686" height="726">
<path d="M278.941 17.1707L737.701 215.92L510.895 742.326L52.1342 543.577L278.941 17.1707Z" fill="white"/>
</mask>
<g mask="url(#mask151_26_1524)">
<path d="M280.931 195.562C262.388 197.591 244.578 202.528 227.494 210.351C226.812 210.648 226.201 211.051 225.689 211.589C225.161 212.121 224.74 212.715 224.448 213.416C224.162 214.101 223.997 214.813 223.97 215.56C223.943 216.307 224.057 217.032 224.319 217.716C224.574 218.418 224.963 219.017 225.474 219.546C225.985 220.076 226.575 220.5 227.24 220.779C227.916 221.081 228.617 221.219 229.349 221.233C230.08 221.246 230.782 221.093 231.474 220.819C247.682 213.353 264.573 208.64 282.179 206.692C289.29 205.893 288.065 194.655 280.922 195.442L280.931 195.562Z" fill="white"/>
</g>
</g>
</g>
</g>
</g>
<defs>
<clipPath id="clip0_26_1524">
<rect width="566.873" height="695.835" fill="white" transform="translate(253.414 0.35498) rotate(21.3145)"/>
</clipPath>
</defs>
</svg>
