<svg width="126" height="146" viewBox="0 0 126 146" fill="none" xmlns="http://www.w3.org/2000/svg">
<g clip-path="url(#clip0_26_147)">
<path d="M57.0424 68.0986C58.5156 65.0966 60.1985 62.1853 62.0607 59.4162C62.5328 58.7477 63.0049 58.0489 63.5076 57.3761C63.7436 57.0569 64.0059 56.7076 64.2463 56.3884L64.5698 55.9528C64.6266 55.8924 64.9239 55.5128 64.6004 55.8924C64.3031 56.2719 64.5698 55.9226 64.6266 55.8363C65.6888 54.4949 66.7817 53.2139 67.9357 51.9588C70.1781 49.5132 72.5692 47.2143 75.1352 45.0879C75.7865 44.5315 76.464 44.0096 77.146 43.4834C77.3208 43.367 77.9109 42.9012 77.2028 43.4532C77.3514 43.3368 77.5 43.2203 77.6443 43.1341C78.0027 42.8451 78.383 42.582 78.7677 42.3189C80.1272 41.3571 81.5129 40.4556 82.9029 39.5542C86.1202 37.5701 89.4861 35.8233 92.9962 34.3654L92.3493 34.6285C93.4115 34.1929 94.5043 33.7573 95.5928 33.3777C96.2747 33.175 96.8342 32.7351 97.2189 32.1528C97.5729 31.5144 97.691 30.7855 97.4855 30.0868C97.0702 28.8058 95.5665 27.6973 94.1502 28.2235C87.0906 30.7553 80.4812 34.3094 74.5188 38.795C68.434 43.367 63.0923 48.8447 58.6074 54.9607C56.2163 58.2517 54.1181 61.7453 52.3477 65.3899C51.9936 66.0283 51.9062 66.7572 52.081 67.4559C52.2865 68.1245 52.7324 68.7067 53.3225 69.0604C54.5596 69.6988 56.3911 69.4357 57.0424 68.0986Z" fill="#285EAB"/>
<mask id="mask0_26_147" style="mask-type:luminance" maskUnits="userSpaceOnUse" x="0" y="46" width="91" height="100">
<path d="M0.862732 46.7916H90.9286V145.062H0.862732V46.7916Z" fill="white"/>
</mask>
<g mask="url(#mask0_26_147)">
<path d="M73.9287 66.4941L76.346 60.5807C77.1153 58.7175 76.1711 56.5911 74.2827 55.8363L53.882 47.7362C51.9936 46.9814 49.8386 47.913 49.0692 49.7763L46.324 56.5048C46.0618 56.5048 45.7951 56.5048 45.5285 56.5048C20.8788 56.4746 0.862732 76.2245 0.862732 100.602C0.862732 124.985 20.8788 144.704 45.5853 144.704C70.2655 144.704 90.2816 124.955 90.2816 100.572C90.2816 87.3783 84.2886 74.8831 73.9287 66.4941Z" fill="#1E1860"/>
</g>
<path d="M103.33 12.2001L113.423 5.64846C113.987 5.26891 114.721 5.44575 115.106 5.99783C115.316 6.28681 115.373 6.66637 115.255 7.01573L111.622 18.4068C111.417 19.0451 111.771 19.718 112.422 19.9207C112.448 19.9207 112.51 19.9509 112.54 19.9509L124.408 22.3662C125.055 22.4827 125.497 23.1254 125.352 23.7637C125.291 24.1131 125.055 24.4365 124.732 24.5789L114.013 30.0868C113.423 30.4059 113.187 31.1349 113.515 31.7171C113.541 31.7473 113.541 31.7732 113.572 31.8034L120.242 41.7668C120.596 42.3189 120.452 43.078 119.888 43.4274C119.595 43.6301 119.211 43.6603 118.857 43.5697L107.312 39.9898C106.665 39.7871 105.988 40.1364 105.778 40.7748C105.778 40.805 105.752 40.861 105.752 40.8912L103.299 52.6014C103.151 53.2441 102.53 53.6797 101.852 53.5331C101.498 53.4468 101.205 53.2441 101.026 52.9206L95.4485 42.3491C95.1512 41.7668 94.4125 41.5339 93.8224 41.8229C93.7918 41.8531 93.7349 41.8531 93.7043 41.8832L83.611 48.4651C83.0471 48.8145 82.2822 48.6678 81.9281 48.1157C81.7183 47.8225 81.6615 47.4472 81.7795 47.0978L85.412 35.7068C85.6175 35.0685 85.2634 34.3956 84.6121 34.1929C84.5815 34.1929 84.5246 34.1627 84.494 34.1627L72.626 31.7732C71.9791 31.6309 71.5376 31.0184 71.6818 30.3499C71.743 29.9962 71.9791 29.7072 72.3025 29.5304L83.0209 24.0268C83.611 23.7076 83.8471 22.9787 83.5192 22.3964C83.493 22.3662 83.493 22.336 83.4624 22.3102L76.8181 12.3166C76.464 11.7645 76.6126 11.0054 77.1721 10.656C77.4694 10.4533 77.8541 10.4231 78.2081 10.5137L89.7221 14.0634C90.369 14.2705 91.0466 13.9211 91.2564 13.2784C91.2564 13.2482 91.2826 13.1922 91.2826 13.162L93.7349 1.45177C93.8836 0.813421 94.5043 0.37348 95.1818 0.520127C95.5359 0.580512 95.8288 0.813421 96.008 1.13259L101.586 11.7041C101.883 12.2907 102.622 12.5236 103.238 12.2303C103.238 12.2605 103.299 12.2303 103.33 12.2001Z" fill="#FADB5E"/>
<path d="M100.996 19.3945L106.193 16.0173C106.486 15.8146 106.871 15.9008 107.05 16.1898C107.168 16.3364 107.194 16.5435 107.137 16.716L105.275 22.5689C105.157 22.8924 105.367 23.2418 105.69 23.3281C105.721 23.3281 105.721 23.3281 105.752 23.3583L111.858 24.6091C112.186 24.6695 112.422 25.0188 112.33 25.338C112.304 25.5105 112.186 25.6572 112.007 25.7477L106.486 28.5987C106.193 28.7454 106.075 29.1249 106.224 29.4139C106.224 29.4441 106.25 29.4441 106.25 29.4743L109.677 34.5983C109.852 34.8916 109.795 35.2712 109.498 35.4437C109.349 35.5343 109.144 35.5602 108.969 35.5041L103.033 33.6667C102.709 33.5502 102.355 33.7573 102.237 34.0764C102.237 34.1066 102.237 34.1066 102.206 34.1325L100.939 40.1925C100.878 40.5117 100.524 40.7446 100.2 40.6583C100.021 40.6281 99.8766 40.5117 99.7848 40.3391L96.8954 34.8916C96.7467 34.5983 96.3621 34.4819 96.0386 34.6285C96.008 34.6285 96.008 34.6587 95.9774 34.6587L90.7843 38.0359C90.4871 38.2127 90.1024 38.1524 89.9275 37.8634C89.8401 37.7167 89.8095 37.514 89.8663 37.3372L91.7591 31.454C91.8771 31.1349 91.6673 30.7855 91.3438 30.669C91.3132 30.669 91.3132 30.669 91.2826 30.6389L85.176 29.388C84.8481 29.3277 84.6121 28.9783 84.6995 28.6591C84.7301 28.4823 84.8481 28.3399 85.0273 28.2494L90.5483 25.3941C90.8411 25.2517 90.9592 24.8722 90.8105 24.553C90.8105 24.5228 90.7843 24.5228 90.7843 24.4926L87.3572 19.3686C87.1824 19.0753 87.2392 18.6957 87.5365 18.5232C87.6851 18.4326 87.8905 18.4068 88.0654 18.4628L94.0016 20.3002C94.325 20.4167 94.6791 20.2097 94.7665 19.8905C94.7665 19.8603 94.7665 19.8603 94.7971 19.8344L96.0386 13.8046C96.0954 13.4811 96.4495 13.2482 96.7773 13.3388C96.9522 13.3647 97.1008 13.4811 97.1882 13.658L100.082 19.1055C100.231 19.3945 100.611 19.5411 100.939 19.3686C100.939 19.4247 100.965 19.3945 100.996 19.3945ZM15.3885 91.8382C15.4759 91.6311 15.5633 91.4284 15.6551 91.2257L15.3885 91.8382C16.1272 90.1172 17.0102 88.4264 18.0156 86.8263C18.5489 86.0111 19.0778 85.1959 19.668 84.4066L20.0832 83.8847C20.2013 83.7381 20.5247 83.3585 19.9914 84.0012L20.1707 83.7984C20.4679 83.4189 20.7914 83.0393 21.1149 82.6598C22.3563 81.2062 23.7114 79.8648 25.1583 78.614C25.5124 78.2905 25.897 77.9714 26.2817 77.6781L26.8106 77.2726C27.1385 77.0095 26.5746 77.4452 26.5746 77.4452C26.7232 77.3287 26.8718 77.2424 26.9899 77.126C27.7592 76.5739 28.5242 76.0477 29.2935 75.5517C31.1207 74.3871 33.0703 73.3692 35.0767 72.5239L34.4298 72.787C36.4056 71.9718 38.4426 71.3032 40.5408 70.8331C41.9877 70.4277 42.8139 68.9698 42.4292 67.5422C42.0139 66.1447 40.5408 65.2993 39.0939 65.6789C34.1325 66.8176 29.4684 68.8534 25.3069 71.7087C20.9662 74.6804 17.22 78.407 14.2388 82.7201C12.5821 85.1355 11.227 87.7018 10.1648 90.4105C9.95498 91.1092 10.073 91.864 10.4271 92.4765C11.1964 93.7575 12.8488 94.1974 14.147 93.4383C14.7372 93.0286 15.183 92.4765 15.3885 91.8382Z" fill="#E35831"/>
</g>
<defs>
<clipPath id="clip0_26_147">
<rect width="126" height="145.062" fill="white"/>
</clipPath>
</defs>
</svg>
