<svg xmlns="http://www.w3.org/2000/svg" xmlns:xlink="http://www.w3.org/1999/xlink" width="336" zoomAndPan="magnify" viewBox="0 0 252 143.999998" height="192" preserveAspectRatio="xMidYMid meet" version="1.0"><defs><clipPath id="16c430d195"><path d="M 78.515625 46 L 159 46 L 159 135 L 78.515625 135 Z M 78.515625 46 " clip-rule="nonzero"/></clipPath></defs><path fill="#285eab" d="M 128.71875 65.296875 C 130.035156 62.578125 131.539062 59.941406 133.203125 57.433594 C 133.625 56.828125 134.046875 56.195312 134.496094 55.585938 C 134.707031 55.296875 134.941406 54.980469 135.15625 54.691406 L 135.445312 54.296875 C 135.496094 54.242188 135.761719 53.898438 135.472656 54.242188 C 135.207031 54.585938 135.445312 54.269531 135.496094 54.191406 C 136.445312 52.976562 137.421875 51.816406 138.453125 50.679688 C 140.457031 48.464844 142.59375 46.382812 144.886719 44.457031 C 145.46875 43.953125 146.074219 43.480469 146.683594 43.003906 C 146.839844 42.898438 147.367188 42.476562 146.734375 42.976562 C 146.867188 42.871094 147 42.765625 147.128906 42.6875 C 147.449219 42.425781 147.789062 42.1875 148.132812 41.949219 C 149.347656 41.078125 150.585938 40.261719 151.828125 39.445312 C 154.703125 37.648438 157.710938 36.066406 160.847656 34.746094 L 160.269531 34.984375 C 161.21875 34.589844 162.195312 34.195312 163.167969 33.851562 C 163.777344 33.667969 164.277344 33.269531 164.621094 32.742188 C 164.9375 32.164062 165.042969 31.503906 164.859375 30.871094 C 164.488281 29.710938 163.144531 28.707031 161.878906 29.183594 C 155.570312 31.476562 149.664062 34.695312 144.335938 38.757812 C 138.898438 42.898438 134.125 47.859375 130.117188 53.398438 C 127.980469 56.378906 126.105469 59.542969 124.523438 62.84375 C 124.207031 63.421875 124.128906 64.082031 124.285156 64.714844 C 124.46875 65.320312 124.867188 65.847656 125.394531 66.167969 C 126.5 66.746094 128.136719 66.507812 128.71875 65.296875 Z M 128.71875 65.296875 " fill-opacity="1" fill-rule="nonzero"/><g clip-path="url(#16c430d195)"><path fill="#1e1860" d="M 143.808594 63.84375 L 145.96875 58.488281 C 146.65625 56.800781 145.8125 54.875 144.125 54.191406 L 125.894531 46.855469 C 124.207031 46.171875 122.28125 47.015625 121.59375 48.703125 L 119.140625 54.796875 C 118.90625 54.796875 118.667969 54.796875 118.429688 54.796875 C 96.402344 54.769531 78.515625 72.65625 78.515625 94.734375 C 78.515625 116.816406 96.402344 134.675781 118.480469 134.675781 C 140.535156 134.675781 158.421875 116.789062 158.421875 94.707031 C 158.421875 82.757812 153.066406 71.441406 143.808594 63.84375 Z M 143.808594 63.84375 " fill-opacity="1" fill-rule="nonzero"/></g><path fill="#fadb5e" d="M 170.082031 14.671875 L 179.101562 8.738281 C 179.605469 8.394531 180.261719 8.554688 180.605469 9.054688 C 180.792969 9.316406 180.84375 9.660156 180.738281 9.976562 L 177.492188 20.292969 C 177.308594 20.871094 177.625 21.480469 178.207031 21.664062 C 178.230469 21.664062 178.285156 21.691406 178.3125 21.691406 L 188.917969 23.878906 C 189.496094 23.984375 189.890625 24.566406 189.761719 25.144531 C 189.707031 25.460938 189.496094 25.753906 189.207031 25.882812 L 179.628906 30.871094 C 179.101562 31.160156 178.890625 31.820312 179.183594 32.347656 C 179.207031 32.375 179.207031 32.398438 179.234375 32.425781 L 185.195312 41.449219 C 185.511719 41.949219 185.382812 42.636719 184.878906 42.953125 C 184.617188 43.136719 184.273438 43.164062 183.957031 43.082031 L 173.640625 39.839844 C 173.0625 39.65625 172.457031 39.972656 172.269531 40.550781 C 172.269531 40.578125 172.246094 40.628906 172.246094 40.65625 L 170.054688 51.261719 C 169.921875 51.84375 169.367188 52.238281 168.761719 52.105469 C 168.445312 52.027344 168.183594 51.84375 168.023438 51.550781 L 163.039062 41.976562 C 162.773438 41.449219 162.113281 41.238281 161.585938 41.5 C 161.558594 41.527344 161.507812 41.527344 161.480469 41.554688 L 152.460938 47.515625 C 151.957031 47.832031 151.273438 47.699219 150.957031 47.199219 C 150.769531 46.933594 150.71875 46.59375 150.824219 46.277344 L 154.070312 35.960938 C 154.253906 35.382812 153.9375 34.773438 153.355469 34.589844 C 153.328125 34.589844 153.277344 34.5625 153.25 34.5625 L 142.644531 32.398438 C 142.066406 32.269531 141.671875 31.714844 141.800781 31.109375 C 141.855469 30.789062 142.066406 30.527344 142.355469 30.367188 L 151.933594 25.382812 C 152.460938 25.09375 152.671875 24.433594 152.378906 23.90625 C 152.355469 23.878906 152.355469 23.851562 152.328125 23.828125 L 146.390625 14.777344 C 146.074219 14.277344 146.207031 13.589844 146.707031 13.273438 C 146.972656 13.089844 147.316406 13.0625 147.632812 13.144531 L 157.921875 16.359375 C 158.5 16.546875 159.105469 16.230469 159.292969 15.648438 C 159.292969 15.621094 159.316406 15.570312 159.316406 15.542969 L 161.507812 4.9375 C 161.640625 4.359375 162.195312 3.960938 162.800781 4.09375 C 163.117188 4.148438 163.378906 4.359375 163.539062 4.648438 L 168.523438 14.222656 C 168.789062 14.753906 169.449219 14.964844 170 14.699219 C 170 14.726562 170.054688 14.699219 170.082031 14.671875 Z M 170.082031 14.671875 " fill-opacity="1" fill-rule="nonzero"/><path fill="#e35831" d="M 167.996094 21.1875 L 172.640625 18.128906 C 172.902344 17.945312 173.246094 18.023438 173.40625 18.285156 C 173.511719 18.417969 173.535156 18.605469 173.484375 18.761719 L 171.820312 24.0625 C 171.714844 24.355469 171.902344 24.671875 172.191406 24.75 C 172.21875 24.75 172.21875 24.75 172.246094 24.777344 L 177.703125 25.910156 C 177.996094 25.964844 178.207031 26.28125 178.125 26.570312 C 178.101562 26.726562 177.996094 26.859375 177.835938 26.941406 L 172.902344 29.523438 C 172.640625 29.65625 172.535156 30 172.667969 30.261719 C 172.667969 30.289062 172.691406 30.289062 172.691406 30.316406 L 175.753906 34.957031 C 175.910156 35.222656 175.859375 35.566406 175.59375 35.722656 C 175.460938 35.804688 175.277344 35.828125 175.121094 35.777344 L 169.816406 34.113281 C 169.527344 34.007812 169.210938 34.195312 169.105469 34.484375 C 169.105469 34.511719 169.105469 34.511719 169.078125 34.535156 L 167.945312 40.023438 C 167.890625 40.3125 167.574219 40.523438 167.285156 40.445312 C 167.125 40.417969 166.996094 40.3125 166.914062 40.15625 L 164.332031 35.222656 C 164.199219 34.957031 163.855469 34.851562 163.566406 34.984375 C 163.539062 34.984375 163.539062 35.011719 163.511719 35.011719 L 158.871094 38.070312 C 158.605469 38.230469 158.261719 38.175781 158.105469 37.914062 C 158.027344 37.78125 158 37.597656 158.050781 37.4375 L 159.742188 32.109375 C 159.847656 31.820312 159.660156 31.503906 159.371094 31.398438 C 159.34375 31.398438 159.34375 31.398438 159.316406 31.371094 L 153.859375 30.238281 C 153.566406 30.183594 153.355469 29.867188 153.433594 29.578125 C 153.460938 29.417969 153.566406 29.289062 153.726562 29.207031 L 158.660156 26.621094 C 158.921875 26.492188 159.027344 26.148438 158.894531 25.859375 C 158.894531 25.832031 158.871094 25.832031 158.871094 25.804688 L 155.808594 21.164062 C 155.652344 20.898438 155.703125 20.554688 155.96875 20.398438 C 156.101562 20.316406 156.285156 20.292969 156.441406 20.34375 L 161.746094 22.007812 C 162.035156 22.113281 162.351562 21.925781 162.429688 21.636719 C 162.429688 21.609375 162.429688 21.609375 162.457031 21.585938 L 163.566406 16.125 C 163.617188 15.832031 163.933594 15.621094 164.226562 15.703125 C 164.382812 15.726562 164.515625 15.832031 164.59375 15.992188 L 167.179688 20.925781 C 167.3125 21.1875 167.652344 21.320312 167.945312 21.164062 C 167.945312 21.214844 167.96875 21.1875 167.996094 21.1875 Z M 91.496094 86.796875 C 91.574219 86.609375 91.652344 86.425781 91.734375 86.242188 L 91.496094 86.796875 C 92.15625 85.238281 92.945312 83.707031 93.84375 82.257812 C 94.320312 81.519531 94.792969 80.78125 95.320312 80.066406 L 95.691406 79.59375 C 95.796875 79.460938 96.085938 79.117188 95.609375 79.699219 L 95.769531 79.515625 C 96.035156 79.171875 96.324219 78.828125 96.613281 78.484375 C 97.722656 77.167969 98.933594 75.953125 100.226562 74.820312 C 100.542969 74.527344 100.886719 74.238281 101.230469 73.972656 L 101.703125 73.605469 C 101.996094 73.367188 101.492188 73.761719 101.492188 73.761719 C 101.625 73.65625 101.757812 73.578125 101.863281 73.472656 C 102.550781 72.972656 103.234375 72.496094 103.921875 72.046875 C 105.554688 70.992188 107.296875 70.070312 109.089844 69.304688 L 108.511719 69.542969 C 110.277344 68.804688 112.097656 68.199219 113.972656 67.773438 C 115.265625 67.40625 116.003906 66.085938 115.660156 64.792969 C 115.289062 63.527344 113.972656 62.761719 112.679688 63.105469 C 108.246094 64.136719 104.078125 65.980469 100.359375 68.566406 C 96.480469 71.257812 93.132812 74.632812 90.46875 78.539062 C 88.988281 80.726562 87.777344 83.050781 86.828125 85.503906 C 86.640625 86.136719 86.746094 86.820312 87.0625 87.375 C 87.75 88.535156 89.226562 88.933594 90.386719 88.246094 C 90.914062 87.875 91.3125 87.375 91.496094 86.796875 Z M 91.496094 86.796875 " fill-opacity="1" fill-rule="nonzero"/></svg>