<svg width="94" height="93" viewBox="0 0 94 93" fill="none" xmlns="http://www.w3.org/2000/svg">
<g clip-path="url(#clip0_26_141)">
<mask id="mask0_26_141" style="mask-type:luminance" maskUnits="userSpaceOnUse" x="0" y="0" width="94" height="93">
<path d="M0.515564 0.898682H93.8965V92.6278H0.515564V0.898682Z" fill="white"/>
</mask>
<g mask="url(#mask0_26_141)">
<path d="M47.3079 0.872864C21.4487 0.872864 0.489258 21.4648 0.489258 46.8666C0.489258 72.2651 21.4487 92.8571 47.3079 92.8571C73.1671 92.8571 94.1298 72.2651 94.1298 46.8666C94.1298 21.4648 73.1671 0.872864 47.3079 0.872864ZM70.5973 69.7246C68.1326 72.1425 64.1366 72.1425 61.6752 69.7246L47.6267 55.9246L32.9406 70.3509C30.4792 72.7719 26.4832 72.7719 24.0218 70.3509C21.5572 67.9298 21.5572 64.0077 24.0218 61.5866L38.7079 47.1603L25.034 33.7315C22.5693 31.3104 22.5693 27.3883 25.034 24.9673C27.4953 22.5462 31.4914 22.5462 33.956 24.9673L47.6267 38.3993L60.6598 25.5935C63.1244 23.1757 67.1205 23.1725 69.5818 25.5935C72.0465 28.0146 72.0465 31.9399 69.5818 34.3578L56.5487 47.1603L70.5973 60.9604C73.0586 63.3782 73.0586 67.3036 70.5973 69.7246Z" fill="#E35831"/>
</g>
</g>
<defs>
<clipPath id="clip0_26_141">
<rect width="94" height="93" fill="white"/>
</clipPath>
</defs>
</svg>
