<svg xmlns="http://www.w3.org/2000/svg" xmlns:xlink="http://www.w3.org/1999/xlink" width="336" zoomAndPan="magnify" viewBox="0 0 252 143.999998" height="192" preserveAspectRatio="xMidYMid meet" version="1.0"><defs><clipPath id="6e79cd7421"><path d="M 74.476562 14.398438 L 186.226562 14.398438 L 186.226562 126 L 74.476562 126 Z M 74.476562 14.398438 " clip-rule="nonzero"/></clipPath></defs><rect x="-25.2" width="302.4" fill="#ffffff" y="-14.4" height="172.799997" fill-opacity="1"/><rect x="-25.2" width="302.4" fill="#ffffff" y="-14.4" height="172.799997" fill-opacity="1"/><g clip-path="url(#6e79cd7421)"><path fill="#e35831" d="M 130.238281 14.367188 C 99.421875 14.367188 74.441406 39.347656 74.441406 70.164062 C 74.441406 100.976562 99.421875 125.957031 130.238281 125.957031 C 161.050781 125.957031 186.03125 100.976562 186.03125 70.164062 C 186.03125 39.347656 161.050781 14.367188 130.238281 14.367188 Z M 157.988281 97.894531 C 155.054688 100.828125 150.292969 100.828125 147.359375 97.894531 L 130.617188 81.152344 L 113.117188 98.652344 C 110.179688 101.589844 105.421875 101.589844 102.488281 98.652344 C 99.550781 95.71875 99.550781 90.957031 102.488281 88.023438 L 119.988281 70.523438 L 103.691406 54.230469 C 100.757812 51.292969 100.757812 46.535156 103.691406 43.597656 C 106.628906 40.660156 111.386719 40.660156 114.324219 43.597656 L 130.617188 59.890625 L 146.148438 44.355469 C 149.085938 41.421875 153.847656 41.421875 156.78125 44.355469 C 159.71875 47.296875 159.71875 52.054688 156.78125 54.988281 L 141.25 70.523438 L 157.988281 87.261719 C 160.925781 90.195312 160.925781 94.957031 157.988281 97.894531 Z M 157.988281 97.894531 " fill-opacity="1" fill-rule="nonzero"/></g></svg>