<svg width="96" height="88" viewBox="0 0 96 88" fill="none" xmlns="http://www.w3.org/2000/svg">
<g clip-path="url(#clip0_26_8402)">
<mask id="mask0_26_8402" style="mask-type:luminance" maskUnits="userSpaceOnUse" x="0" y="0" width="96" height="88">
<path d="M0.865234 0.348145H95.0714V87.6294H0.865234V0.348145Z" fill="white"/>
</mask>
<g mask="url(#mask0_26_8402)">
<path d="M81.2596 34.2783C69.3994 20.285 52.646 18.1852 45.1543 17.9966V1.28187C45.1543 0.93552 44.9813 0.62009 44.7033 0.459283C44.4253 0.295383 44.0877 0.31703 43.8268 0.511855L1.25668 32.0919C1.02407 32.2651 0.885071 32.5527 0.885071 32.862C0.885071 33.1681 1.02407 33.4588 1.25668 33.632L43.8268 65.2121C44.0877 65.4069 44.4253 65.4285 44.7033 65.2646C44.9813 65.1038 45.1543 64.7884 45.1543 64.442V47.8572C78.2187 47.18 92.456 86.8406 92.5978 87.2457C92.7255 87.6107 93.0432 87.8426 93.3921 87.8426C93.4346 87.8426 93.4772 87.8395 93.5169 87.8333C93.914 87.7684 94.2147 87.4127 94.2431 86.9767C95.7068 63.904 91.3383 46.1749 81.2596 34.2783Z" fill="white"/>
</g>
</g>
<defs>
<clipPath id="clip0_26_8402">
<rect width="95.0714" height="88" fill="white"/>
</clipPath>
</defs>
</svg>
