<svg xmlns="http://www.w3.org/2000/svg" xmlns:xlink="http://www.w3.org/1999/xlink" width="336" zoomAndPan="magnify" viewBox="0 0 252 143.999998" height="192" preserveAspectRatio="xMidYMid meet" version="1.0"><defs><clipPath id="1c04bc6042"><path d="M 56.273438 16.734375 L 186 16.734375 L 186 126.984375 L 56.273438 126.984375 Z M 56.273438 16.734375 " clip-rule="nonzero"/></clipPath></defs><g clip-path="url(#1c04bc6042)"><path fill="#ffffff" d="M 166.980469 59.59375 C 150.648438 41.917969 127.578125 39.265625 117.261719 39.027344 L 117.261719 17.914062 C 117.261719 17.476562 117.023438 17.078125 116.640625 16.875 C 116.257812 16.667969 115.792969 16.695312 115.433594 16.941406 L 56.8125 56.832031 C 56.492188 57.050781 56.300781 57.414062 56.300781 57.804688 C 56.300781 58.191406 56.492188 58.558594 56.8125 58.777344 L 115.433594 98.667969 C 115.792969 98.914062 116.257812 98.941406 116.640625 98.734375 C 117.023438 98.53125 117.261719 98.132812 117.261719 97.695312 L 117.261719 76.746094 C 162.792969 75.890625 182.398438 125.988281 182.59375 126.5 C 182.769531 126.960938 183.207031 127.253906 183.6875 127.253906 C 183.746094 127.253906 183.804688 127.25 183.859375 127.242188 C 184.40625 127.160156 184.820312 126.710938 184.859375 126.160156 C 186.875 97.015625 180.859375 74.621094 166.980469 59.59375 Z M 166.980469 59.59375 " fill-opacity="1" fill-rule="nonzero"/></g></svg>