<svg xmlns="http://www.w3.org/2000/svg" xmlns:xlink="http://www.w3.org/1999/xlink" width="336" zoomAndPan="magnify" viewBox="0 0 252 143.999998" height="192" preserveAspectRatio="xMidYMid meet" version="1.0"><defs><clipPath id="365b08e95c"><path d="M 164 107 L 186 107 L 186 131 L 164 131 Z M 164 107 " clip-rule="nonzero"/></clipPath><clipPath id="5b579e305f"><path d="M 79.167969 3.359375 L 190.097656 7.332031 L 185.667969 131.003906 L 74.738281 127.03125 Z M 79.167969 3.359375 " clip-rule="nonzero"/></clipPath><clipPath id="42f753dea2"><path d="M 79.167969 3.359375 L 190.097656 7.332031 L 185.667969 131.003906 L 74.738281 127.03125 Z M 79.167969 3.359375 " clip-rule="nonzero"/></clipPath><clipPath id="8aef646a81"><path d="M 79.167969 3.359375 L 190.097656 7.332031 L 185.667969 131.003906 L 74.738281 127.03125 Z M 79.167969 3.359375 " clip-rule="nonzero"/></clipPath><clipPath id="01736be94f"><path d="M 164 112 L 185 112 L 185 131 L 164 131 Z M 164 112 " clip-rule="nonzero"/></clipPath><clipPath id="384bfa578f"><path d="M 79.167969 3.359375 L 190.097656 7.332031 L 185.667969 131.003906 L 74.738281 127.03125 Z M 79.167969 3.359375 " clip-rule="nonzero"/></clipPath><clipPath id="d3c6ed543b"><path d="M 79.167969 3.359375 L 190.097656 7.332031 L 185.667969 131.003906 L 74.738281 127.03125 Z M 79.167969 3.359375 " clip-rule="nonzero"/></clipPath><clipPath id="b096d50256"><path d="M 79.167969 3.359375 L 190.097656 7.332031 L 185.667969 131.003906 L 74.738281 127.03125 Z M 79.167969 3.359375 " clip-rule="nonzero"/></clipPath><clipPath id="9e8f10357d"><path d="M 164 106 L 176 106 L 176 117 L 164 117 Z M 164 106 " clip-rule="nonzero"/></clipPath><clipPath id="4c5b58b967"><path d="M 79.167969 3.359375 L 190.097656 7.332031 L 185.667969 131.003906 L 74.738281 127.03125 Z M 79.167969 3.359375 " clip-rule="nonzero"/></clipPath><clipPath id="f984cf7d8d"><path d="M 79.167969 3.359375 L 190.097656 7.332031 L 185.667969 131.003906 L 74.738281 127.03125 Z M 79.167969 3.359375 " clip-rule="nonzero"/></clipPath><clipPath id="fe2fbec1d8"><path d="M 79.167969 3.359375 L 190.097656 7.332031 L 185.667969 131.003906 L 74.738281 127.03125 Z M 79.167969 3.359375 " clip-rule="nonzero"/></clipPath><clipPath id="ac7cf7a95e"><path d="M 78 44 L 106 44 L 106 81 L 78 81 Z M 78 44 " clip-rule="nonzero"/></clipPath><clipPath id="b91929a56d"><path d="M 79.167969 3.359375 L 190.097656 7.332031 L 185.667969 131.003906 L 74.738281 127.03125 Z M 79.167969 3.359375 " clip-rule="nonzero"/></clipPath><clipPath id="643283f489"><path d="M 79.167969 3.359375 L 190.097656 7.332031 L 185.667969 131.003906 L 74.738281 127.03125 Z M 79.167969 3.359375 " clip-rule="nonzero"/></clipPath><clipPath id="cc93640618"><path d="M 79.167969 3.359375 L 190.097656 7.332031 L 185.667969 131.003906 L 74.738281 127.03125 Z M 79.167969 3.359375 " clip-rule="nonzero"/></clipPath><clipPath id="bbe4c9ca6c"><path d="M 81 42 L 108 42 L 108 80 L 81 80 Z M 81 42 " clip-rule="nonzero"/></clipPath><clipPath id="cf1b2d4ed4"><path d="M 79.167969 3.359375 L 190.097656 7.332031 L 185.667969 131.003906 L 74.738281 127.03125 Z M 79.167969 3.359375 " clip-rule="nonzero"/></clipPath><clipPath id="092645edc6"><path d="M 79.167969 3.359375 L 190.097656 7.332031 L 185.667969 131.003906 L 74.738281 127.03125 Z M 79.167969 3.359375 " clip-rule="nonzero"/></clipPath><clipPath id="fce7c1897d"><path d="M 79.167969 3.359375 L 190.097656 7.332031 L 185.667969 131.003906 L 74.738281 127.03125 Z M 79.167969 3.359375 " clip-rule="nonzero"/></clipPath><clipPath id="623d63bbf9"><path d="M 83 41 L 111 41 L 111 78 L 83 78 Z M 83 41 " clip-rule="nonzero"/></clipPath><clipPath id="8d74a65a04"><path d="M 79.167969 3.359375 L 190.097656 7.332031 L 185.667969 131.003906 L 74.738281 127.03125 Z M 79.167969 3.359375 " clip-rule="nonzero"/></clipPath><clipPath id="8622b77342"><path d="M 79.167969 3.359375 L 190.097656 7.332031 L 185.667969 131.003906 L 74.738281 127.03125 Z M 79.167969 3.359375 " clip-rule="nonzero"/></clipPath><clipPath id="e9d0887dd4"><path d="M 79.167969 3.359375 L 190.097656 7.332031 L 185.667969 131.003906 L 74.738281 127.03125 Z M 79.167969 3.359375 " clip-rule="nonzero"/></clipPath><clipPath id="41e2232cc7"><path d="M 83 41 L 110 41 L 110 78 L 83 78 Z M 83 41 " clip-rule="nonzero"/></clipPath><clipPath id="4d947da90d"><path d="M 79.167969 3.359375 L 190.097656 7.332031 L 185.667969 131.003906 L 74.738281 127.03125 Z M 79.167969 3.359375 " clip-rule="nonzero"/></clipPath><clipPath id="125d4ca610"><path d="M 79.167969 3.359375 L 190.097656 7.332031 L 185.667969 131.003906 L 74.738281 127.03125 Z M 79.167969 3.359375 " clip-rule="nonzero"/></clipPath><clipPath id="6ef9486139"><path d="M 79.167969 3.359375 L 190.097656 7.332031 L 185.667969 131.003906 L 74.738281 127.03125 Z M 79.167969 3.359375 " clip-rule="nonzero"/></clipPath><clipPath id="2676771e58"><path d="M 85 39 L 113 39 L 113 77 L 85 77 Z M 85 39 " clip-rule="nonzero"/></clipPath><clipPath id="9128cc2ac1"><path d="M 79.167969 3.359375 L 190.097656 7.332031 L 185.667969 131.003906 L 74.738281 127.03125 Z M 79.167969 3.359375 " clip-rule="nonzero"/></clipPath><clipPath id="12fd714e74"><path d="M 79.167969 3.359375 L 190.097656 7.332031 L 185.667969 131.003906 L 74.738281 127.03125 Z M 79.167969 3.359375 " clip-rule="nonzero"/></clipPath><clipPath id="7c8afa79f6"><path d="M 79.167969 3.359375 L 190.097656 7.332031 L 185.667969 131.003906 L 74.738281 127.03125 Z M 79.167969 3.359375 " clip-rule="nonzero"/></clipPath><clipPath id="862e9dc68c"><path d="M 87 38 L 115 38 L 115 75 L 87 75 Z M 87 38 " clip-rule="nonzero"/></clipPath><clipPath id="86028e86bc"><path d="M 79.167969 3.359375 L 190.097656 7.332031 L 185.667969 131.003906 L 74.738281 127.03125 Z M 79.167969 3.359375 " clip-rule="nonzero"/></clipPath><clipPath id="112fa2c20d"><path d="M 79.167969 3.359375 L 190.097656 7.332031 L 185.667969 131.003906 L 74.738281 127.03125 Z M 79.167969 3.359375 " clip-rule="nonzero"/></clipPath><clipPath id="79a255c1dc"><path d="M 79.167969 3.359375 L 190.097656 7.332031 L 185.667969 131.003906 L 74.738281 127.03125 Z M 79.167969 3.359375 " clip-rule="nonzero"/></clipPath><clipPath id="ead1c90d6d"><path d="M 90 36 L 118 36 L 118 74 L 90 74 Z M 90 36 " clip-rule="nonzero"/></clipPath><clipPath id="9566c4f703"><path d="M 79.167969 3.359375 L 190.097656 7.332031 L 185.667969 131.003906 L 74.738281 127.03125 Z M 79.167969 3.359375 " clip-rule="nonzero"/></clipPath><clipPath id="60b53e62d4"><path d="M 79.167969 3.359375 L 190.097656 7.332031 L 185.667969 131.003906 L 74.738281 127.03125 Z M 79.167969 3.359375 " clip-rule="nonzero"/></clipPath><clipPath id="ba8fc17251"><path d="M 79.167969 3.359375 L 190.097656 7.332031 L 185.667969 131.003906 L 74.738281 127.03125 Z M 79.167969 3.359375 " clip-rule="nonzero"/></clipPath><clipPath id="d62c422ce6"><path d="M 90 37 L 117 37 L 117 74 L 90 74 Z M 90 37 " clip-rule="nonzero"/></clipPath><clipPath id="5a95c4d615"><path d="M 79.167969 3.359375 L 190.097656 7.332031 L 185.667969 131.003906 L 74.738281 127.03125 Z M 79.167969 3.359375 " clip-rule="nonzero"/></clipPath><clipPath id="e3d9278d93"><path d="M 79.167969 3.359375 L 190.097656 7.332031 L 185.667969 131.003906 L 74.738281 127.03125 Z M 79.167969 3.359375 " clip-rule="nonzero"/></clipPath><clipPath id="e823a7b6e0"><path d="M 79.167969 3.359375 L 190.097656 7.332031 L 185.667969 131.003906 L 74.738281 127.03125 Z M 79.167969 3.359375 " clip-rule="nonzero"/></clipPath><clipPath id="62f3940092"><path d="M 92 35 L 120 35 L 120 72 L 92 72 Z M 92 35 " clip-rule="nonzero"/></clipPath><clipPath id="3f0d882928"><path d="M 79.167969 3.359375 L 190.097656 7.332031 L 185.667969 131.003906 L 74.738281 127.03125 Z M 79.167969 3.359375 " clip-rule="nonzero"/></clipPath><clipPath id="6cdbc42553"><path d="M 79.167969 3.359375 L 190.097656 7.332031 L 185.667969 131.003906 L 74.738281 127.03125 Z M 79.167969 3.359375 " clip-rule="nonzero"/></clipPath><clipPath id="3ad6416501"><path d="M 79.167969 3.359375 L 190.097656 7.332031 L 185.667969 131.003906 L 74.738281 127.03125 Z M 79.167969 3.359375 " clip-rule="nonzero"/></clipPath><clipPath id="54713690d5"><path d="M 92 35 L 119 35 L 119 72 L 92 72 Z M 92 35 " clip-rule="nonzero"/></clipPath><clipPath id="9201709900"><path d="M 79.167969 3.359375 L 190.097656 7.332031 L 185.667969 131.003906 L 74.738281 127.03125 Z M 79.167969 3.359375 " clip-rule="nonzero"/></clipPath><clipPath id="d5e569bc0a"><path d="M 79.167969 3.359375 L 190.097656 7.332031 L 185.667969 131.003906 L 74.738281 127.03125 Z M 79.167969 3.359375 " clip-rule="nonzero"/></clipPath><clipPath id="2e511ea429"><path d="M 79.167969 3.359375 L 190.097656 7.332031 L 185.667969 131.003906 L 74.738281 127.03125 Z M 79.167969 3.359375 " clip-rule="nonzero"/></clipPath><clipPath id="02f382b13e"><path d="M 94 34 L 122 34 L 122 71 L 94 71 Z M 94 34 " clip-rule="nonzero"/></clipPath><clipPath id="5cfc975375"><path d="M 79.167969 3.359375 L 190.097656 7.332031 L 185.667969 131.003906 L 74.738281 127.03125 Z M 79.167969 3.359375 " clip-rule="nonzero"/></clipPath><clipPath id="44bb3faf33"><path d="M 79.167969 3.359375 L 190.097656 7.332031 L 185.667969 131.003906 L 74.738281 127.03125 Z M 79.167969 3.359375 " clip-rule="nonzero"/></clipPath><clipPath id="0878bcac54"><path d="M 79.167969 3.359375 L 190.097656 7.332031 L 185.667969 131.003906 L 74.738281 127.03125 Z M 79.167969 3.359375 " clip-rule="nonzero"/></clipPath><clipPath id="b1edde107c"><path d="M 101 17 L 149 17 L 149 64 L 101 64 Z M 101 17 " clip-rule="nonzero"/></clipPath><clipPath id="7dad020c5a"><path d="M 79.167969 3.359375 L 190.097656 7.332031 L 185.667969 131.003906 L 74.738281 127.03125 Z M 79.167969 3.359375 " clip-rule="nonzero"/></clipPath><clipPath id="dc32e638df"><path d="M 79.167969 3.359375 L 190.097656 7.332031 L 185.667969 131.003906 L 74.738281 127.03125 Z M 79.167969 3.359375 " clip-rule="nonzero"/></clipPath><clipPath id="6ac90401b8"><path d="M 79.167969 3.359375 L 190.097656 7.332031 L 185.667969 131.003906 L 74.738281 127.03125 Z M 79.167969 3.359375 " clip-rule="nonzero"/></clipPath><clipPath id="b9b9043ea6"><path d="M 101 36 L 149 36 L 149 64 L 101 64 Z M 101 36 " clip-rule="nonzero"/></clipPath><clipPath id="dfffa64c9b"><path d="M 79.167969 3.359375 L 190.097656 7.332031 L 185.667969 131.003906 L 74.738281 127.03125 Z M 79.167969 3.359375 " clip-rule="nonzero"/></clipPath><clipPath id="e74410beec"><path d="M 79.167969 3.359375 L 190.097656 7.332031 L 185.667969 131.003906 L 74.738281 127.03125 Z M 79.167969 3.359375 " clip-rule="nonzero"/></clipPath><clipPath id="ebd88c87c9"><path d="M 79.167969 3.359375 L 190.097656 7.332031 L 185.667969 131.003906 L 74.738281 127.03125 Z M 79.167969 3.359375 " clip-rule="nonzero"/></clipPath><clipPath id="2b092798b6"><path d="M 121 15 L 149 15 L 149 53 L 121 53 Z M 121 15 " clip-rule="nonzero"/></clipPath><clipPath id="a426d9b72a"><path d="M 79.167969 3.359375 L 190.097656 7.332031 L 185.667969 131.003906 L 74.738281 127.03125 Z M 79.167969 3.359375 " clip-rule="nonzero"/></clipPath><clipPath id="e09d44b94d"><path d="M 79.167969 3.359375 L 190.097656 7.332031 L 185.667969 131.003906 L 74.738281 127.03125 Z M 79.167969 3.359375 " clip-rule="nonzero"/></clipPath><clipPath id="96e9579937"><path d="M 79.167969 3.359375 L 190.097656 7.332031 L 185.667969 131.003906 L 74.738281 127.03125 Z M 79.167969 3.359375 " clip-rule="nonzero"/></clipPath><clipPath id="8c11a70a10"><path d="M 121 16 L 149 16 L 149 53 L 121 53 Z M 121 16 " clip-rule="nonzero"/></clipPath><clipPath id="db95be2891"><path d="M 79.167969 3.359375 L 190.097656 7.332031 L 185.667969 131.003906 L 74.738281 127.03125 Z M 79.167969 3.359375 " clip-rule="nonzero"/></clipPath><clipPath id="6c4db12b89"><path d="M 79.167969 3.359375 L 190.097656 7.332031 L 185.667969 131.003906 L 74.738281 127.03125 Z M 79.167969 3.359375 " clip-rule="nonzero"/></clipPath><clipPath id="4dce998565"><path d="M 79.167969 3.359375 L 190.097656 7.332031 L 185.667969 131.003906 L 74.738281 127.03125 Z M 79.167969 3.359375 " clip-rule="nonzero"/></clipPath><clipPath id="efbfa236db"><path d="M 124 14 L 152 14 L 152 51 L 124 51 Z M 124 14 " clip-rule="nonzero"/></clipPath><clipPath id="37332d277c"><path d="M 79.167969 3.359375 L 190.097656 7.332031 L 185.667969 131.003906 L 74.738281 127.03125 Z M 79.167969 3.359375 " clip-rule="nonzero"/></clipPath><clipPath id="d502db0dd8"><path d="M 79.167969 3.359375 L 190.097656 7.332031 L 185.667969 131.003906 L 74.738281 127.03125 Z M 79.167969 3.359375 " clip-rule="nonzero"/></clipPath><clipPath id="ecc58cc370"><path d="M 79.167969 3.359375 L 190.097656 7.332031 L 185.667969 131.003906 L 74.738281 127.03125 Z M 79.167969 3.359375 " clip-rule="nonzero"/></clipPath><clipPath id="cba6f28fe9"><path d="M 124 14 L 151 14 L 151 51 L 124 51 Z M 124 14 " clip-rule="nonzero"/></clipPath><clipPath id="8e2951627f"><path d="M 79.167969 3.359375 L 190.097656 7.332031 L 185.667969 131.003906 L 74.738281 127.03125 Z M 79.167969 3.359375 " clip-rule="nonzero"/></clipPath><clipPath id="192cefed8c"><path d="M 79.167969 3.359375 L 190.097656 7.332031 L 185.667969 131.003906 L 74.738281 127.03125 Z M 79.167969 3.359375 " clip-rule="nonzero"/></clipPath><clipPath id="170608929a"><path d="M 79.167969 3.359375 L 190.097656 7.332031 L 185.667969 131.003906 L 74.738281 127.03125 Z M 79.167969 3.359375 " clip-rule="nonzero"/></clipPath><clipPath id="8d45baeb27"><path d="M 126 13 L 154 13 L 154 50 L 126 50 Z M 126 13 " clip-rule="nonzero"/></clipPath><clipPath id="5a4d84a939"><path d="M 79.167969 3.359375 L 190.097656 7.332031 L 185.667969 131.003906 L 74.738281 127.03125 Z M 79.167969 3.359375 " clip-rule="nonzero"/></clipPath><clipPath id="04757c30a2"><path d="M 79.167969 3.359375 L 190.097656 7.332031 L 185.667969 131.003906 L 74.738281 127.03125 Z M 79.167969 3.359375 " clip-rule="nonzero"/></clipPath><clipPath id="520e3e8941"><path d="M 79.167969 3.359375 L 190.097656 7.332031 L 185.667969 131.003906 L 74.738281 127.03125 Z M 79.167969 3.359375 " clip-rule="nonzero"/></clipPath><clipPath id="9aaca34d7e"><path d="M 126 13 L 153 13 L 153 50 L 126 50 Z M 126 13 " clip-rule="nonzero"/></clipPath><clipPath id="4ad2fccac5"><path d="M 79.167969 3.359375 L 190.097656 7.332031 L 185.667969 131.003906 L 74.738281 127.03125 Z M 79.167969 3.359375 " clip-rule="nonzero"/></clipPath><clipPath id="4b9341e522"><path d="M 79.167969 3.359375 L 190.097656 7.332031 L 185.667969 131.003906 L 74.738281 127.03125 Z M 79.167969 3.359375 " clip-rule="nonzero"/></clipPath><clipPath id="e7178a0f72"><path d="M 79.167969 3.359375 L 190.097656 7.332031 L 185.667969 131.003906 L 74.738281 127.03125 Z M 79.167969 3.359375 " clip-rule="nonzero"/></clipPath><clipPath id="1dacce8884"><path d="M 128 11 L 156 11 L 156 49 L 128 49 Z M 128 11 " clip-rule="nonzero"/></clipPath><clipPath id="5dd68fc25e"><path d="M 79.167969 3.359375 L 190.097656 7.332031 L 185.667969 131.003906 L 74.738281 127.03125 Z M 79.167969 3.359375 " clip-rule="nonzero"/></clipPath><clipPath id="0e0ef53a4e"><path d="M 79.167969 3.359375 L 190.097656 7.332031 L 185.667969 131.003906 L 74.738281 127.03125 Z M 79.167969 3.359375 " clip-rule="nonzero"/></clipPath><clipPath id="69e03c7847"><path d="M 79.167969 3.359375 L 190.097656 7.332031 L 185.667969 131.003906 L 74.738281 127.03125 Z M 79.167969 3.359375 " clip-rule="nonzero"/></clipPath><clipPath id="2fde90efb5"><path d="M 131 10 L 158 10 L 158 47 L 131 47 Z M 131 10 " clip-rule="nonzero"/></clipPath><clipPath id="530ad9e113"><path d="M 79.167969 3.359375 L 190.097656 7.332031 L 185.667969 131.003906 L 74.738281 127.03125 Z M 79.167969 3.359375 " clip-rule="nonzero"/></clipPath><clipPath id="18680cb248"><path d="M 79.167969 3.359375 L 190.097656 7.332031 L 185.667969 131.003906 L 74.738281 127.03125 Z M 79.167969 3.359375 " clip-rule="nonzero"/></clipPath><clipPath id="72db57c72a"><path d="M 79.167969 3.359375 L 190.097656 7.332031 L 185.667969 131.003906 L 74.738281 127.03125 Z M 79.167969 3.359375 " clip-rule="nonzero"/></clipPath><clipPath id="ee2623fdf3"><path d="M 133 8 L 161 8 L 161 46 L 133 46 Z M 133 8 " clip-rule="nonzero"/></clipPath><clipPath id="463a89da17"><path d="M 79.167969 3.359375 L 190.097656 7.332031 L 185.667969 131.003906 L 74.738281 127.03125 Z M 79.167969 3.359375 " clip-rule="nonzero"/></clipPath><clipPath id="afb009852d"><path d="M 79.167969 3.359375 L 190.097656 7.332031 L 185.667969 131.003906 L 74.738281 127.03125 Z M 79.167969 3.359375 " clip-rule="nonzero"/></clipPath><clipPath id="2ac673f6e1"><path d="M 79.167969 3.359375 L 190.097656 7.332031 L 185.667969 131.003906 L 74.738281 127.03125 Z M 79.167969 3.359375 " clip-rule="nonzero"/></clipPath><clipPath id="16f891c240"><path d="M 133 8 L 160 8 L 160 46 L 133 46 Z M 133 8 " clip-rule="nonzero"/></clipPath><clipPath id="85c981d8a1"><path d="M 79.167969 3.359375 L 190.097656 7.332031 L 185.667969 131.003906 L 74.738281 127.03125 Z M 79.167969 3.359375 " clip-rule="nonzero"/></clipPath><clipPath id="9b9e89dccc"><path d="M 79.167969 3.359375 L 190.097656 7.332031 L 185.667969 131.003906 L 74.738281 127.03125 Z M 79.167969 3.359375 " clip-rule="nonzero"/></clipPath><clipPath id="0c754c303a"><path d="M 79.167969 3.359375 L 190.097656 7.332031 L 185.667969 131.003906 L 74.738281 127.03125 Z M 79.167969 3.359375 " clip-rule="nonzero"/></clipPath><clipPath id="cb7057a2b3"><path d="M 135 7 L 163 7 L 163 44 L 135 44 Z M 135 7 " clip-rule="nonzero"/></clipPath><clipPath id="a86785f087"><path d="M 79.167969 3.359375 L 190.097656 7.332031 L 185.667969 131.003906 L 74.738281 127.03125 Z M 79.167969 3.359375 " clip-rule="nonzero"/></clipPath><clipPath id="ff57682832"><path d="M 79.167969 3.359375 L 190.097656 7.332031 L 185.667969 131.003906 L 74.738281 127.03125 Z M 79.167969 3.359375 " clip-rule="nonzero"/></clipPath><clipPath id="40c7dde631"><path d="M 79.167969 3.359375 L 190.097656 7.332031 L 185.667969 131.003906 L 74.738281 127.03125 Z M 79.167969 3.359375 " clip-rule="nonzero"/></clipPath><clipPath id="337841f7e6"><path d="M 138 5 L 165 5 L 165 43 L 138 43 Z M 138 5 " clip-rule="nonzero"/></clipPath><clipPath id="23a471093d"><path d="M 79.167969 3.359375 L 190.097656 7.332031 L 185.667969 131.003906 L 74.738281 127.03125 Z M 79.167969 3.359375 " clip-rule="nonzero"/></clipPath><clipPath id="471ebf41e0"><path d="M 79.167969 3.359375 L 190.097656 7.332031 L 185.667969 131.003906 L 74.738281 127.03125 Z M 79.167969 3.359375 " clip-rule="nonzero"/></clipPath><clipPath id="228e6909ff"><path d="M 79.167969 3.359375 L 190.097656 7.332031 L 185.667969 131.003906 L 74.738281 127.03125 Z M 79.167969 3.359375 " clip-rule="nonzero"/></clipPath><clipPath id="7c75b2bb1f"><path d="M 138 6 L 165 6 L 165 43 L 138 43 Z M 138 6 " clip-rule="nonzero"/></clipPath><clipPath id="8bf2e2c002"><path d="M 79.167969 3.359375 L 190.097656 7.332031 L 185.667969 131.003906 L 74.738281 127.03125 Z M 79.167969 3.359375 " clip-rule="nonzero"/></clipPath><clipPath id="5f6396dabb"><path d="M 79.167969 3.359375 L 190.097656 7.332031 L 185.667969 131.003906 L 74.738281 127.03125 Z M 79.167969 3.359375 " clip-rule="nonzero"/></clipPath><clipPath id="af36922c00"><path d="M 79.167969 3.359375 L 190.097656 7.332031 L 185.667969 131.003906 L 74.738281 127.03125 Z M 79.167969 3.359375 " clip-rule="nonzero"/></clipPath><clipPath id="95ff58a4a1"><path d="M 124 48 L 173 48 L 173 114 L 124 114 Z M 124 48 " clip-rule="nonzero"/></clipPath><clipPath id="5a07faf4bf"><path d="M 79.167969 3.359375 L 190.097656 7.332031 L 185.667969 131.003906 L 74.738281 127.03125 Z M 79.167969 3.359375 " clip-rule="nonzero"/></clipPath><clipPath id="5310c59b53"><path d="M 79.167969 3.359375 L 190.097656 7.332031 L 185.667969 131.003906 L 74.738281 127.03125 Z M 79.167969 3.359375 " clip-rule="nonzero"/></clipPath><clipPath id="e5828ec603"><path d="M 79.167969 3.359375 L 190.097656 7.332031 L 185.667969 131.003906 L 74.738281 127.03125 Z M 79.167969 3.359375 " clip-rule="nonzero"/></clipPath><clipPath id="16f4b7eb6b"><path d="M 124 48 L 172 48 L 172 114 L 124 114 Z M 124 48 " clip-rule="nonzero"/></clipPath><clipPath id="edd903d283"><path d="M 79.167969 3.359375 L 190.097656 7.332031 L 185.667969 131.003906 L 74.738281 127.03125 Z M 79.167969 3.359375 " clip-rule="nonzero"/></clipPath><clipPath id="8f4423c2a2"><path d="M 79.167969 3.359375 L 190.097656 7.332031 L 185.667969 131.003906 L 74.738281 127.03125 Z M 79.167969 3.359375 " clip-rule="nonzero"/></clipPath><clipPath id="c0b60f8581"><path d="M 79.167969 3.359375 L 190.097656 7.332031 L 185.667969 131.003906 L 74.738281 127.03125 Z M 79.167969 3.359375 " clip-rule="nonzero"/></clipPath><clipPath id="ef6866f57d"><path d="M 105 26 L 119 26 L 119 42 L 105 42 Z M 105 26 " clip-rule="nonzero"/></clipPath><clipPath id="c22340c7d0"><path d="M 79.167969 3.359375 L 190.097656 7.332031 L 185.667969 131.003906 L 74.738281 127.03125 Z M 79.167969 3.359375 " clip-rule="nonzero"/></clipPath><clipPath id="cdc6f71fda"><path d="M 79.167969 3.359375 L 190.097656 7.332031 L 185.667969 131.003906 L 74.738281 127.03125 Z M 79.167969 3.359375 " clip-rule="nonzero"/></clipPath><clipPath id="19c6159767"><path d="M 79.167969 3.359375 L 190.097656 7.332031 L 185.667969 131.003906 L 74.738281 127.03125 Z M 79.167969 3.359375 " clip-rule="nonzero"/></clipPath><clipPath id="23b4dc5a7d"><path d="M 119 23 L 124 23 L 124 27 L 119 27 Z M 119 23 " clip-rule="nonzero"/></clipPath><clipPath id="0038ce7691"><path d="M 79.167969 3.359375 L 190.097656 7.332031 L 185.667969 131.003906 L 74.738281 127.03125 Z M 79.167969 3.359375 " clip-rule="nonzero"/></clipPath><clipPath id="b6fc42d606"><path d="M 79.167969 3.359375 L 190.097656 7.332031 L 185.667969 131.003906 L 74.738281 127.03125 Z M 79.167969 3.359375 " clip-rule="nonzero"/></clipPath><clipPath id="919ec4e8df"><path d="M 79.167969 3.359375 L 190.097656 7.332031 L 185.667969 131.003906 L 74.738281 127.03125 Z M 79.167969 3.359375 " clip-rule="nonzero"/></clipPath><clipPath id="79222b6eda"><path d="M 136 61 L 160 61 L 160 93 L 136 93 Z M 136 61 " clip-rule="nonzero"/></clipPath><clipPath id="c12cae0c7d"><path d="M 79.167969 3.359375 L 190.097656 7.332031 L 185.667969 131.003906 L 74.738281 127.03125 Z M 79.167969 3.359375 " clip-rule="nonzero"/></clipPath><clipPath id="2442b28974"><path d="M 79.167969 3.359375 L 190.097656 7.332031 L 185.667969 131.003906 L 74.738281 127.03125 Z M 79.167969 3.359375 " clip-rule="nonzero"/></clipPath><clipPath id="2c8cba9c21"><path d="M 79.167969 3.359375 L 190.097656 7.332031 L 185.667969 131.003906 L 74.738281 127.03125 Z M 79.167969 3.359375 " clip-rule="nonzero"/></clipPath><clipPath id="2b8eef0080"><path d="M 160 95 L 167 95 L 167 104 L 160 104 Z M 160 95 " clip-rule="nonzero"/></clipPath><clipPath id="a78f2beed4"><path d="M 79.167969 3.359375 L 190.097656 7.332031 L 185.667969 131.003906 L 74.738281 127.03125 Z M 79.167969 3.359375 " clip-rule="nonzero"/></clipPath><clipPath id="104bffbd3f"><path d="M 79.167969 3.359375 L 190.097656 7.332031 L 185.667969 131.003906 L 74.738281 127.03125 Z M 79.167969 3.359375 " clip-rule="nonzero"/></clipPath><clipPath id="18140b193e"><path d="M 79.167969 3.359375 L 190.097656 7.332031 L 185.667969 131.003906 L 74.738281 127.03125 Z M 79.167969 3.359375 " clip-rule="nonzero"/></clipPath><clipPath id="027bad0800"><path d="M 177 121 L 183 121 L 183 128 L 177 128 Z M 177 121 " clip-rule="nonzero"/></clipPath><clipPath id="4055a6a4c8"><path d="M 79.167969 3.359375 L 190.097656 7.332031 L 185.667969 131.003906 L 74.738281 127.03125 Z M 79.167969 3.359375 " clip-rule="nonzero"/></clipPath><clipPath id="a9f6b07290"><path d="M 79.167969 3.359375 L 190.097656 7.332031 L 185.667969 131.003906 L 74.738281 127.03125 Z M 79.167969 3.359375 " clip-rule="nonzero"/></clipPath><clipPath id="e6bf7b08da"><path d="M 79.167969 3.359375 L 190.097656 7.332031 L 185.667969 131.003906 L 74.738281 127.03125 Z M 79.167969 3.359375 " clip-rule="nonzero"/></clipPath><clipPath id="f329814838"><path d="M 126 9 L 143 9 L 143 21 L 126 21 Z M 126 9 " clip-rule="nonzero"/></clipPath><clipPath id="cb93ab0644"><path d="M 79.167969 3.359375 L 190.097656 7.332031 L 185.667969 131.003906 L 74.738281 127.03125 Z M 79.167969 3.359375 " clip-rule="nonzero"/></clipPath><clipPath id="939ecf93f2"><path d="M 79.167969 3.359375 L 190.097656 7.332031 L 185.667969 131.003906 L 74.738281 127.03125 Z M 79.167969 3.359375 " clip-rule="nonzero"/></clipPath><clipPath id="b2869eb4e5"><path d="M 79.167969 3.359375 L 190.097656 7.332031 L 185.667969 131.003906 L 74.738281 127.03125 Z M 79.167969 3.359375 " clip-rule="nonzero"/></clipPath><clipPath id="630e9ef29a"><path d="M 83 38 L 96 38 L 96 49 L 83 49 Z M 83 38 " clip-rule="nonzero"/></clipPath><clipPath id="8ad620af75"><path d="M 79.167969 3.359375 L 190.097656 7.332031 L 185.667969 131.003906 L 74.738281 127.03125 Z M 79.167969 3.359375 " clip-rule="nonzero"/></clipPath><clipPath id="7408000eb1"><path d="M 79.167969 3.359375 L 190.097656 7.332031 L 185.667969 131.003906 L 74.738281 127.03125 Z M 79.167969 3.359375 " clip-rule="nonzero"/></clipPath><clipPath id="bff9a2e14b"><path d="M 79.167969 3.359375 L 190.097656 7.332031 L 185.667969 131.003906 L 74.738281 127.03125 Z M 79.167969 3.359375 " clip-rule="nonzero"/></clipPath></defs><g clip-path="url(#365b08e95c)"><g clip-path="url(#5b579e305f)"><g clip-path="url(#42f753dea2)"><g clip-path="url(#8aef646a81)"><path fill="#fecc27" d="M 174.3125 107.15625 C 176.667969 109.042969 177.351562 110.699219 179.101562 113.164062 L 184.578125 120.804688 C 184.875 121.1875 185.121094 121.597656 185.316406 122.039062 C 185.832031 123.316406 185.390625 124.859375 184.53125 126.003906 C 183.722656 127.054688 182.753906 127.925781 181.628906 128.621094 C 180.804688 129.246094 179.917969 129.761719 178.96875 130.167969 C 177.601562 130.742188 177.136719 130.566406 175.742188 129.5625 C 173.242188 127.765625 168.839844 121.707031 168.375 121.085938 C 166.941406 119.171875 165.675781 117.738281 164.480469 115.265625 C 164.21875 114.832031 164.152344 114.367188 164.285156 113.878906 C 164.398438 113.628906 164.558594 113.410156 164.753906 113.21875 C 167.246094 110.515625 168.886719 108.785156 172.148438 107.058594 " fill-opacity="1" fill-rule="nonzero"/></g></g></g></g><g clip-path="url(#01736be94f)"><g clip-path="url(#384bfa578f)"><g clip-path="url(#d3c6ed543b)"><g clip-path="url(#b096d50256)"><path fill="#e2b127" d="M 178.972656 130.164062 C 177.601562 130.738281 177.136719 130.589844 175.738281 129.558594 C 173.25 127.761719 168.839844 121.703125 168.375 121.085938 C 166.941406 119.167969 165.675781 117.730469 164.484375 115.261719 C 164.222656 114.828125 164.15625 114.363281 164.285156 113.875 C 164.402344 113.625 164.558594 113.402344 164.761719 113.214844 L 164.976562 112.980469 C 164.910156 113.417969 164.988281 113.828125 165.210938 114.210938 C 166.402344 116.707031 167.667969 118.121094 169.109375 120.042969 C 169.578125 120.664062 173.972656 126.722656 176.472656 128.515625 C 177.867188 129.519531 178.328125 129.695312 179.699219 129.121094 C 180.648438 128.710938 181.53125 128.195312 182.355469 127.570312 C 183.332031 126.960938 184.199219 126.21875 184.953125 125.347656 C 184.828125 125.574219 184.6875 125.792969 184.53125 126 C 183.722656 127.046875 182.753906 127.917969 181.628906 128.613281 C 180.804688 129.242188 179.921875 129.757812 178.972656 130.164062 Z M 178.972656 130.164062 " fill-opacity="1" fill-rule="nonzero"/></g></g></g></g><g clip-path="url(#9e8f10357d)"><g clip-path="url(#4c5b58b967)"><g clip-path="url(#f984cf7d8d)"><g clip-path="url(#fe2fbec1d8)"><path fill="#d1a024" d="M 168.59375 116.546875 C 171.226562 115.859375 173.804688 113.832031 174.699219 112.515625 C 175.277344 111.65625 175.769531 111.011719 175.78125 109.675781 C 175.808594 108.121094 174.210938 106.730469 172.773438 106.496094 C 171.332031 106.261719 170.054688 106.890625 168.960938 107.632812 C 167.40625 108.695312 166.09375 110.003906 165.023438 111.550781 C 164.476562 112.339844 163.976562 113.335938 164.304688 114.433594 C 164.488281 114.957031 164.789062 115.402344 165.203125 115.769531 C 165.613281 116.140625 166.089844 116.386719 166.632812 116.511719 C 167.605469 116.742188 168.550781 116.660156 169.46875 116.269531 C 170.292969 115.886719 170.992188 115.730469 171.816406 114.9375 " fill-opacity="1" fill-rule="nonzero"/></g></g></g></g><g clip-path="url(#ac7cf7a95e)"><g clip-path="url(#b91929a56d)"><g clip-path="url(#643283f489)"><g clip-path="url(#cc93640618)"><path fill="#2a4887" d="M 82.355469 53.308594 C 89.34375 65.660156 90.058594 65.726562 97.882812 75.90625 C 98.328125 76.492188 102.363281 81.683594 104.488281 80.359375 C 107.683594 78.375 102.660156 73.238281 100.78125 70.273438 C 94.738281 60.734375 93.128906 59.105469 88.324219 51.859375 C 87.644531 50.855469 84.929688 46.402344 82.621094 44.59375 C 81.800781 43.945312 80.011719 43.695312 79.042969 44.925781 C 77.738281 46.5625 81.269531 51.386719 82.355469 53.328125 " fill-opacity="1" fill-rule="nonzero"/><path fill="#013251" d="M 104.488281 80.359375 C 102.363281 81.683594 98.328125 76.492188 97.882812 75.914062 C 90.058594 65.726562 89.34375 65.664062 82.355469 53.308594 C 81.285156 51.386719 77.75 46.542969 79.039062 44.925781 C 79.34375 44.554688 79.722656 44.304688 80.1875 44.175781 C 80.15625 44.207031 80.136719 44.234375 80.109375 44.261719 C 78.796875 45.898438 82.34375 50.726562 83.425781 52.652344 C 90.425781 65 91.132812 65.070312 98.957031 75.25 C 99.375 75.785156 102.859375 80.296875 105.0625 79.886719 C 104.898438 80.074219 104.703125 80.234375 104.488281 80.359375 Z M 104.488281 80.359375 " fill-opacity="1" fill-rule="nonzero"/></g></g></g></g><g clip-path="url(#bbe4c9ca6c)"><g clip-path="url(#cf1b2d4ed4)"><g clip-path="url(#092645edc6)"><g clip-path="url(#fce7c1897d)"><path fill="#2a4887" d="M 84.675781 51.875 C 91.675781 64.226562 92.378906 64.292969 100.207031 74.472656 C 100.679688 75.0625 104.683594 80.246094 106.8125 78.921875 C 110.007812 76.941406 104.984375 71.804688 103.105469 68.839844 C 97.0625 59.300781 95.453125 57.664062 90.652344 50.425781 C 89.964844 49.421875 87.25 44.964844 84.941406 43.15625 C 84.121094 42.511719 82.335938 42.261719 81.367188 43.472656 C 80.058594 45.109375 83.589844 49.933594 84.675781 51.875 " fill-opacity="1" fill-rule="nonzero"/><path fill="#013251" d="M 106.8125 78.925781 C 104.6875 80.246094 100.652344 75.058594 100.203125 74.472656 C 92.382812 64.292969 91.675781 64.226562 84.675781 51.875 C 83.609375 49.953125 80.058594 45.109375 81.367188 43.472656 C 81.667969 43.097656 82.046875 42.847656 82.511719 42.722656 C 82.484375 42.75 82.457031 42.777344 82.429688 42.808594 C 81.125 44.449219 84.65625 49.269531 85.738281 51.21875 C 92.738281 63.578125 93.445312 63.636719 101.273438 73.816406 C 101.6875 74.351562 105.175781 78.863281 107.378906 78.453125 C 107.214844 78.636719 107.023438 78.796875 106.8125 78.925781 Z M 106.8125 78.925781 " fill-opacity="1" fill-rule="nonzero"/></g></g></g></g><g clip-path="url(#623d63bbf9)"><g clip-path="url(#8d74a65a04)"><g clip-path="url(#8622b77342)"><g clip-path="url(#e9d0887dd4)"><path fill="#2a4887" d="M 86.996094 50.4375 C 93.996094 62.78125 94.699219 62.855469 102.527344 73.035156 C 102.976562 73.617188 107.003906 78.804688 109.132812 77.484375 C 112.324219 75.496094 107.304688 70.359375 105.429688 67.398438 C 99.382812 57.855469 97.773438 56.226562 92.972656 48.988281 C 92.285156 47.957031 89.570312 43.527344 87.253906 41.714844 C 86.433594 41.066406 84.648438 40.824219 83.675781 42.035156 C 82.371094 43.671875 85.902344 48.496094 86.984375 50.4375 " fill-opacity="1" fill-rule="nonzero"/></g></g></g></g><g clip-path="url(#41e2232cc7)"><g clip-path="url(#4d947da90d)"><g clip-path="url(#125d4ca610)"><g clip-path="url(#6ef9486139)"><path fill="#013251" d="M 109.132812 77.484375 C 107.007812 78.804688 102.976562 73.617188 102.523438 73.035156 C 94.707031 62.855469 93.996094 62.785156 86.996094 50.4375 C 85.925781 48.515625 82.378906 43.671875 83.6875 42.035156 C 83.980469 41.660156 84.355469 41.410156 84.8125 41.28125 L 84.738281 41.371094 C 83.429688 43.007812 86.960938 47.832031 88.046875 49.773438 C 95.0625 62.128906 95.765625 62.210938 103.59375 72.371094 C 104.007812 72.914062 107.492188 77.421875 109.699219 77.007812 C 109.535156 77.195312 109.347656 77.355469 109.132812 77.484375 Z M 109.132812 77.484375 " fill-opacity="1" fill-rule="nonzero"/></g></g></g></g><g clip-path="url(#2676771e58)"><g clip-path="url(#9128cc2ac1)"><g clip-path="url(#12fd714e74)"><g clip-path="url(#7c8afa79f6)"><path fill="#2a4887" d="M 89.316406 48.996094 C 96.316406 61.34375 97.023438 61.414062 104.851562 71.59375 C 105.320312 72.179688 109.328125 77.363281 111.460938 76.039062 C 114.648438 74.058594 109.632812 68.921875 107.753906 65.960938 C 101.710938 56.417969 100.097656 54.785156 95.296875 47.546875 C 94.613281 46.515625 91.898438 42.089844 89.589844 40.273438 C 88.769531 39.628906 86.980469 39.378906 86.011719 40.589844 C 84.707031 42.226562 88.238281 47.050781 89.320312 48.996094 " fill-opacity="1" fill-rule="nonzero"/><path fill="#013251" d="M 111.457031 76.027344 C 109.324219 77.363281 105.320312 72.179688 104.851562 71.59375 C 97.027344 61.414062 96.320312 61.34375 89.320312 48.996094 C 88.25 47.070312 84.707031 42.226562 86.011719 40.589844 C 86.3125 40.21875 86.691406 39.96875 87.15625 39.84375 C 87.152344 39.871094 87.101562 39.894531 87.078125 39.929688 C 85.769531 41.570312 89.300781 46.386719 90.386719 48.335938 C 97.382812 60.683594 98.085938 60.753906 105.910156 70.917969 C 106.328125 71.453125 109.8125 75.96875 112.019531 75.554688 C 111.855469 75.738281 111.667969 75.898438 111.457031 76.027344 Z M 111.457031 76.027344 " fill-opacity="1" fill-rule="nonzero"/></g></g></g></g><g clip-path="url(#862e9dc68c)"><g clip-path="url(#86028e86bc)"><g clip-path="url(#112fa2c20d)"><g clip-path="url(#79a255c1dc)"><path fill="#2a4887" d="M 91.542969 47.613281 C 98.539062 59.957031 99.242188 60.03125 107.070312 70.210938 C 107.515625 70.789062 111.546875 75.980469 113.675781 74.65625 C 116.871094 72.671875 111.847656 67.535156 109.96875 64.570312 C 103.925781 55.03125 102.320312 53.402344 97.515625 46.15625 C 96.832031 45.152344 94.117188 40.699219 91.8125 38.890625 C 90.988281 38.242188 89.199219 37.992188 88.234375 39.203125 C 86.925781 40.839844 90.457031 45.664062 91.542969 47.613281 " fill-opacity="1" fill-rule="nonzero"/><path fill="#013251" d="M 113.675781 74.65625 C 111.550781 75.980469 107.515625 70.789062 107.070312 70.210938 C 99.246094 60.03125 98.539062 59.960938 91.542969 47.613281 C 90.472656 45.6875 86.925781 40.84375 88.226562 39.207031 C 88.53125 38.832031 88.910156 38.582031 89.375 38.453125 C 89.347656 38.480469 89.320312 38.511719 89.296875 38.542969 C 87.988281 40.179688 91.523438 45.003906 92.601562 46.949219 C 99.601562 59.296875 100.308594 59.367188 108.136719 69.527344 C 108.554688 70.066406 112.039062 74.574219 114.242188 74.164062 C 114.078125 74.355469 113.890625 74.523438 113.675781 74.65625 Z M 113.675781 74.65625 " fill-opacity="1" fill-rule="nonzero"/></g></g></g></g><g clip-path="url(#ead1c90d6d)"><g clip-path="url(#9566c4f703)"><g clip-path="url(#60b53e62d4)"><g clip-path="url(#ba8fc17251)"><path fill="#2a4887" d="M 93.863281 46.171875 C 100.863281 58.523438 101.566406 58.589844 109.398438 68.773438 C 109.867188 69.359375 113.871094 74.546875 116 73.222656 C 119.191406 71.238281 114.171875 66.101562 112.296875 63.136719 C 106.25 53.597656 104.640625 51.96875 99.839844 44.722656 C 99.152344 43.71875 96.4375 39.265625 94.132812 37.457031 C 93.308594 36.808594 91.527344 36.558594 90.554688 37.769531 C 89.246094 39.40625 92.777344 44.230469 93.863281 46.171875 " fill-opacity="1" fill-rule="nonzero"/></g></g></g></g><g clip-path="url(#d62c422ce6)"><g clip-path="url(#5a95c4d615)"><g clip-path="url(#e3d9278d93)"><g clip-path="url(#e823a7b6e0)"><path fill="#013251" d="M 116 73.242188 C 113.875 74.546875 109.84375 69.355469 109.371094 68.777344 C 101.574219 58.59375 100.863281 58.527344 93.863281 46.171875 C 92.792969 44.25 89.25 39.402344 90.554688 37.769531 C 90.855469 37.402344 91.238281 37.15625 91.699219 37.035156 C 91.671875 37.0625 91.644531 37.089844 91.617188 37.121094 C 90.3125 38.761719 93.84375 43.582031 94.929688 45.53125 C 101.929688 57.863281 102.632812 57.933594 110.460938 68.136719 C 110.875 68.671875 114.363281 73.183594 116.566406 72.773438 C 116.402344 72.957031 116.210938 73.113281 116 73.242188 Z M 116 73.242188 " fill-opacity="1" fill-rule="nonzero"/></g></g></g></g><g clip-path="url(#62f3940092)"><g clip-path="url(#3f0d882928)"><g clip-path="url(#6cdbc42553)"><g clip-path="url(#3ad6416501)"><path fill="#2a4887" d="M 96.183594 44.734375 C 103.183594 57.078125 103.894531 57.152344 111.710938 67.332031 C 112.183594 67.914062 116.191406 73.101562 118.324219 71.78125 C 121.511719 69.800781 116.496094 64.664062 114.617188 61.695312 C 108.574219 52.152344 106.960938 50.523438 102.160156 43.285156 C 101.472656 42.277344 98.761719 37.824219 96.453125 36.011719 C 95.628906 35.371094 93.847656 35.121094 92.875 36.332031 C 91.570312 37.96875 95.101562 42.792969 96.183594 44.734375 " fill-opacity="1" fill-rule="nonzero"/></g></g></g></g><g clip-path="url(#54713690d5)"><g clip-path="url(#9201709900)"><g clip-path="url(#d5e569bc0a)"><g clip-path="url(#2e511ea429)"><path fill="#013251" d="M 118.324219 71.78125 C 116.191406 73.101562 112.164062 67.914062 111.710938 67.332031 C 103.894531 57.152344 103.183594 57.078125 96.183594 44.734375 C 95.113281 42.8125 91.570312 37.96875 92.875 36.332031 C 93.171875 35.957031 93.554688 35.703125 94.015625 35.578125 L 93.941406 35.667969 C 92.632812 37.308594 96.164062 42.128906 97.25 44.078125 C 104.25 56.425781 104.953125 56.496094 112.777344 66.667969 C 113.195312 67.210938 116.679688 71.71875 118.890625 71.304688 C 118.726562 71.492188 118.535156 71.652344 118.324219 71.78125 Z M 118.324219 71.78125 " fill-opacity="1" fill-rule="nonzero"/></g></g></g></g><g clip-path="url(#02f382b13e)"><g clip-path="url(#5cfc975375)"><g clip-path="url(#44bb3faf33)"><g clip-path="url(#0878bcac54)"><path fill="#2a4887" d="M 98.496094 43.292969 C 105.503906 55.640625 106.210938 55.714844 114.035156 65.890625 C 114.503906 66.476562 118.511719 71.664062 120.644531 70.34375 C 123.832031 68.355469 118.816406 63.21875 116.9375 60.257812 C 110.894531 50.714844 109.28125 49.085938 104.480469 41.84375 C 103.796875 40.835938 101.082031 36.386719 98.773438 34.574219 C 97.953125 33.925781 96.164062 33.675781 95.195312 34.886719 C 93.890625 36.523438 97.421875 41.347656 98.503906 43.292969 " fill-opacity="1" fill-rule="nonzero"/><path fill="#013251" d="M 120.636719 70.34375 C 118.511719 71.664062 114.484375 66.476562 114.035156 65.894531 C 106.210938 55.714844 105.503906 55.644531 98.496094 43.292969 C 97.425781 41.367188 93.878906 36.523438 95.1875 34.886719 C 95.484375 34.515625 95.867188 34.265625 96.328125 34.140625 L 96.25 34.222656 C 94.945312 35.867188 98.476562 40.683594 99.5625 42.632812 C 106.554688 54.980469 107.265625 55.050781 115.089844 65.230469 C 115.507812 65.765625 118.988281 70.277344 121.195312 69.867188 C 121.035156 70.054688 120.851562 70.214844 120.636719 70.34375 Z M 120.636719 70.34375 " fill-opacity="1" fill-rule="nonzero"/></g></g></g></g><g clip-path="url(#b1edde107c)"><g clip-path="url(#7dad020c5a)"><g clip-path="url(#dc32e638df)"><g clip-path="url(#6ac90401b8)"><path fill="#2a4887" d="M 129.28125 18.28125 L 114.414062 24.023438 C 113.609375 24.285156 112.867188 24.667969 112.1875 25.164062 C 111.761719 25.550781 111.378906 25.972656 111.046875 26.441406 C 108.34375 29.878906 105.792969 33.429688 103.382812 37.097656 C 102.609375 38.269531 101.824219 39.492188 101.714844 40.917969 C 101.566406 42.605469 102.398438 44.214844 103.226562 45.695312 C 106.449219 51.417969 110.082031 56.871094 114.121094 62.050781 C 114.546875 62.707031 115.113281 63.199219 115.828125 63.523438 C 116.433594 63.683594 117.039062 63.695312 117.648438 63.558594 C 129.535156 61.835938 140.890625 55.519531 147.761719 45.679688 C 148.148438 45.203125 148.394531 44.664062 148.492188 44.0625 C 148.5 43.625 148.425781 43.203125 148.269531 42.796875 C 146.054688 36.003906 141.140625 30.472656 136.359375 25.152344 L 129.613281 17.632812 " fill-opacity="1" fill-rule="nonzero"/></g></g></g></g><g clip-path="url(#b9b9043ea6)"><g clip-path="url(#dfffa64c9b)"><g clip-path="url(#e74410beec)"><g clip-path="url(#ebd88c87c9)"><path fill="#013251" d="M 117.84375 63.441406 C 117.234375 63.578125 116.628906 63.566406 116.023438 63.402344 C 115.3125 63.078125 114.742188 62.585938 114.316406 61.929688 C 110.277344 56.75 106.644531 51.296875 103.417969 45.574219 C 102.59375 44.070312 101.757812 42.484375 101.910156 40.796875 C 102.023438 39.398438 102.804688 38.148438 103.574219 36.976562 C 103.714844 36.757812 103.851562 36.554688 103.996094 36.34375 C 103.71875 36.921875 103.550781 37.527344 103.484375 38.164062 C 103.339844 39.851562 104.167969 41.457031 105.003906 42.941406 C 108.222656 48.664062 111.855469 54.117188 115.894531 59.296875 C 116.316406 59.957031 116.886719 60.445312 117.601562 60.765625 C 118.203125 60.9375 118.808594 60.957031 119.421875 60.832031 C 130.816406 59.179688 141.730469 53.285156 148.667969 44.136719 C 148.539062 44.671875 148.300781 45.152344 147.957031 45.582031 C 141.085938 55.398438 129.730469 61.714844 117.84375 63.441406 Z M 117.84375 63.441406 " fill-opacity="1" fill-rule="nonzero"/></g></g></g></g><g clip-path="url(#2b092798b6)"><g clip-path="url(#a426d9b72a)"><g clip-path="url(#e09d44b94d)"><g clip-path="url(#96e9579937)"><path fill="#2a4887" d="M 125.578125 25.167969 C 132.59375 37.519531 133.28125 37.585938 141.109375 47.765625 C 141.578125 48.351562 145.585938 53.542969 147.714844 52.21875 C 150.90625 50.234375 145.886719 45.097656 144.007812 42.132812 C 137.964844 32.59375 136.351562 30.964844 131.550781 23.71875 C 130.867188 22.714844 128.152344 18.261719 125.84375 16.453125 C 125.023438 15.804688 123.238281 15.554688 122.265625 16.765625 C 120.960938 18.402344 124.492188 23.226562 125.578125 25.167969 " fill-opacity="1" fill-rule="nonzero"/></g></g></g></g><g clip-path="url(#8c11a70a10)"><g clip-path="url(#db95be2891)"><g clip-path="url(#6c4db12b89)"><g clip-path="url(#4dce998565)"><path fill="#013251" d="M 147.714844 52.21875 C 145.589844 53.542969 141.554688 48.351562 141.105469 47.773438 C 133.285156 37.585938 132.59375 37.519531 125.578125 25.167969 C 124.503906 23.246094 120.960938 18.402344 122.265625 16.765625 C 122.566406 16.394531 122.949219 16.144531 123.410156 16.015625 L 123.332031 16.105469 C 122.027344 17.742188 125.558594 22.566406 126.640625 24.511719 C 133.640625 36.859375 134.347656 36.929688 142.175781 47.109375 C 142.585938 47.648438 146.070312 52.15625 148.28125 51.746094 C 148.117188 51.929688 147.925781 52.089844 147.714844 52.21875 Z M 147.714844 52.21875 " fill-opacity="1" fill-rule="nonzero"/></g></g></g></g><g clip-path="url(#efbfa236db)"><g clip-path="url(#37332d277c)"><g clip-path="url(#d502db0dd8)"><g clip-path="url(#ecc58cc370)"><path fill="#2a4887" d="M 127.902344 23.734375 C 134.902344 36.085938 135.59375 36.152344 143.429688 46.332031 C 143.902344 46.917969 147.910156 52.105469 150.039062 50.78125 C 153.230469 48.800781 148.210938 43.664062 146.328125 40.699219 C 140.285156 31.160156 138.679688 29.523438 133.875 22.285156 C 133.191406 21.28125 130.476562 16.828125 128.171875 15.015625 C 127.347656 14.371094 125.558594 14.121094 124.59375 15.332031 C 123.285156 16.96875 126.816406 21.792969 127.902344 23.734375 " fill-opacity="1" fill-rule="nonzero"/></g></g></g></g><g clip-path="url(#cba6f28fe9)"><g clip-path="url(#8e2951627f)"><g clip-path="url(#192cefed8c)"><g clip-path="url(#170608929a)"><path fill="#013251" d="M 150.035156 50.785156 C 147.910156 52.105469 143.875 46.917969 143.429688 46.332031 C 135.59375 36.152344 134.902344 36.085938 127.902344 23.734375 C 126.832031 21.8125 123.285156 16.96875 124.59375 15.332031 C 124.890625 14.957031 125.273438 14.707031 125.734375 14.582031 L 125.65625 14.667969 C 124.347656 16.308594 127.882812 21.152344 128.960938 23.078125 C 135.960938 35.425781 136.671875 35.496094 144.496094 45.675781 C 144.914062 46.210938 148.398438 50.722656 150.601562 50.3125 C 150.4375 50.5 150.25 50.65625 150.035156 50.785156 Z M 150.035156 50.785156 " fill-opacity="1" fill-rule="nonzero"/></g></g></g></g><g clip-path="url(#8d45baeb27)"><g clip-path="url(#5a4d84a939)"><g clip-path="url(#04757c30a2)"><g clip-path="url(#520e3e8941)"><path fill="#2a4887" d="M 130.222656 22.296875 C 137.21875 34.644531 137.925781 34.714844 145.75 44.894531 C 146.222656 45.476562 150.230469 50.664062 152.355469 49.34375 C 155.550781 47.355469 150.527344 42.226562 148.648438 39.257812 C 142.605469 29.714844 141 28.085938 136.195312 20.847656 C 135.515625 19.816406 132.800781 15.386719 130.492188 13.574219 C 129.667969 12.933594 127.878906 12.683594 126.914062 13.894531 C 125.605469 15.53125 129.136719 20.355469 130.222656 22.296875 " fill-opacity="1" fill-rule="nonzero"/></g></g></g></g><g clip-path="url(#9aaca34d7e)"><g clip-path="url(#4ad2fccac5)"><g clip-path="url(#4b9341e522)"><g clip-path="url(#e7178a0f72)"><path fill="#013251" d="M 152.355469 49.34375 C 150.230469 50.664062 146.195312 45.476562 145.75 44.894531 C 137.925781 34.714844 137.222656 34.644531 130.222656 22.296875 C 129.152344 20.375 125.605469 15.53125 126.910156 13.894531 C 127.210938 13.515625 127.597656 13.265625 128.066406 13.140625 L 127.988281 13.230469 C 126.675781 14.867188 130.214844 19.691406 131.292969 21.632812 C 138.292969 33.988281 139.003906 34.050781 146.828125 44.230469 C 147.242188 44.773438 150.726562 49.28125 152.933594 48.867188 C 152.765625 49.058594 152.574219 49.214844 152.355469 49.34375 Z M 152.355469 49.34375 " fill-opacity="1" fill-rule="nonzero"/></g></g></g></g><g clip-path="url(#1dacce8884)"><g clip-path="url(#5dd68fc25e)"><g clip-path="url(#0e0ef53a4e)"><g clip-path="url(#69e03c7847)"><path fill="#2a4887" d="M 132.542969 20.855469 C 139.539062 33.203125 140.25 33.273438 148.070312 43.472656 C 148.515625 44.058594 152.550781 49.242188 154.675781 47.917969 C 157.871094 45.9375 152.847656 40.800781 150.96875 37.839844 C 144.925781 28.296875 143.320312 26.664062 138.515625 19.421875 C 137.835938 18.394531 135.117188 13.96875 132.8125 12.152344 C 131.988281 11.507812 130.199219 11.257812 129.234375 12.46875 C 127.925781 14.105469 131.457031 18.929688 132.542969 20.875 " fill-opacity="1" fill-rule="nonzero"/><path fill="#013251" d="M 154.675781 47.90625 C 152.550781 49.222656 148.519531 44.039062 148.070312 43.457031 C 140.25 33.273438 139.539062 33.203125 132.542969 20.855469 C 131.472656 18.929688 127.929688 14.085938 129.230469 12.449219 C 129.53125 12.078125 129.914062 11.828125 130.375 11.703125 C 130.347656 11.726562 130.324219 11.757812 130.300781 11.785156 C 128.988281 13.429688 132.523438 18.273438 133.605469 20.195312 C 140.605469 32.542969 141.3125 32.613281 149.136719 42.792969 C 149.554688 43.328125 153.039062 47.839844 155.242188 47.429688 C 155.078125 47.617188 154.890625 47.773438 154.675781 47.90625 Z M 154.675781 47.90625 " fill-opacity="1" fill-rule="nonzero"/></g></g></g></g><g clip-path="url(#2fde90efb5)"><g clip-path="url(#530ad9e113)"><g clip-path="url(#18680cb248)"><g clip-path="url(#72db57c72a)"><path fill="#2a4887" d="M 134.765625 19.472656 C 141.765625 31.816406 142.46875 31.890625 150.292969 42.078125 C 150.761719 42.660156 154.773438 47.847656 156.902344 46.527344 C 160.09375 44.539062 155.074219 39.402344 153.195312 36.441406 C 147.152344 26.898438 145.539062 25.269531 140.742188 18.027344 C 140.054688 17.019531 137.339844 12.570312 135.03125 10.757812 C 134.210938 10.109375 132.425781 9.859375 131.453125 11.078125 C 130.148438 12.714844 133.679688 17.539062 134.765625 19.480469 " fill-opacity="1" fill-rule="nonzero"/><path fill="#013251" d="M 156.902344 46.515625 C 154.773438 47.839844 150.742188 42.648438 150.292969 42.070312 C 142.46875 31.890625 141.765625 31.820312 134.765625 19.472656 C 133.695312 17.546875 130.148438 12.703125 131.457031 11.066406 C 131.75 10.695312 132.128906 10.441406 132.585938 10.3125 L 132.511719 10.402344 C 131.203125 12.039062 134.734375 16.863281 135.820312 18.808594 C 142.820312 31.15625 143.523438 31.226562 151.347656 41.40625 C 151.765625 41.945312 155.25 46.453125 157.460938 46.039062 C 157.296875 46.226562 157.109375 46.386719 156.902344 46.515625 Z M 156.902344 46.515625 " fill-opacity="1" fill-rule="nonzero"/></g></g></g></g><g clip-path="url(#ee2623fdf3)"><g clip-path="url(#463a89da17)"><g clip-path="url(#afb009852d)"><g clip-path="url(#2ac673f6e1)"><path fill="#2a4887" d="M 137.089844 18.046875 C 144.085938 30.382812 144.796875 30.449219 152.625 40.632812 C 153.09375 41.21875 157.101562 46.40625 159.226562 45.082031 C 162.421875 43.097656 157.402344 37.960938 155.523438 34.996094 C 149.476562 25.457031 147.871094 23.828125 143.066406 16.582031 C 142.386719 15.578125 139.671875 11.125 137.363281 9.316406 C 136.542969 8.667969 134.753906 8.417969 133.785156 9.628906 C 132.480469 11.265625 136.011719 16.089844 137.09375 18.03125 " fill-opacity="1" fill-rule="nonzero"/></g></g></g></g><g clip-path="url(#16f891c240)"><g clip-path="url(#85c981d8a1)"><g clip-path="url(#9b9e89dccc)"><g clip-path="url(#0c754c303a)"><path fill="#013251" d="M 159.222656 45.082031 C 157.097656 46.40625 153.066406 41.195312 152.625 40.636719 C 144.796875 30.449219 144.089844 30.386719 137.089844 18.046875 C 136.019531 16.125 132.472656 11.28125 133.78125 9.644531 C 134.082031 9.269531 134.460938 9.023438 134.921875 8.894531 L 134.84375 8.980469 C 133.535156 10.621094 137.070312 15.464844 138.148438 17.386719 C 145.15625 29.722656 145.859375 29.792969 153.683594 39.972656 C 154.101562 40.507812 157.585938 45.019531 159.789062 44.609375 C 159.625 44.796875 159.4375 44.953125 159.222656 45.082031 Z M 159.222656 45.082031 " fill-opacity="1" fill-rule="nonzero"/></g></g></g></g><g clip-path="url(#cb7057a2b3)"><g clip-path="url(#a86785f087)"><g clip-path="url(#ff57682832)"><g clip-path="url(#40c7dde631)"><path fill="#2a4887" d="M 139.410156 16.59375 C 146.40625 28.941406 147.117188 29.011719 154.941406 39.191406 C 155.386719 39.773438 159.417969 44.960938 161.542969 43.640625 C 164.738281 41.660156 159.714844 36.523438 157.839844 33.554688 C 151.792969 24.011719 150.1875 22.382812 145.382812 15.144531 C 144.703125 14.113281 141.988281 9.683594 139.679688 7.871094 C 138.859375 7.230469 137.070312 6.980469 136.101562 8.191406 C 134.796875 9.828125 138.328125 14.652344 139.410156 16.59375 " fill-opacity="1" fill-rule="nonzero"/><path fill="#013251" d="M 161.542969 43.640625 C 159.417969 44.960938 155.386719 39.773438 154.941406 39.191406 C 147.117188 29.011719 146.40625 28.941406 139.410156 16.59375 C 138.328125 14.65625 134.796875 9.828125 136.101562 8.195312 C 136.402344 7.824219 136.785156 7.570312 137.25 7.441406 C 137.21875 7.46875 137.195312 7.5 137.171875 7.53125 C 135.859375 9.175781 139.394531 14.015625 140.476562 15.941406 C 147.476562 28.289062 148.183594 28.359375 156.007812 38.535156 C 156.425781 39.074219 159.910156 43.582031 162.117188 43.167969 C 161.949219 43.355469 161.761719 43.511719 161.542969 43.640625 Z M 161.542969 43.640625 " fill-opacity="1" fill-rule="nonzero"/></g></g></g></g><g clip-path="url(#337841f7e6)"><g clip-path="url(#23a471093d)"><g clip-path="url(#471ebf41e0)"><g clip-path="url(#228e6909ff)"><path fill="#2a4887" d="M 141.746094 15.152344 C 148.742188 27.5 149.445312 27.570312 157.277344 37.75 C 157.746094 38.335938 161.75 43.523438 163.878906 42.203125 C 167.074219 40.214844 162.050781 35.078125 160.175781 32.117188 C 154.128906 22.574219 152.523438 20.945312 147.71875 13.703125 C 147.035156 12.695312 144.324219 8.246094 142.015625 6.433594 C 141.195312 5.785156 139.40625 5.535156 138.4375 6.75 C 137.125 8.386719 140.664062 13.207031 141.746094 15.152344 " fill-opacity="1" fill-rule="nonzero"/></g></g></g></g><g clip-path="url(#7c75b2bb1f)"><g clip-path="url(#8bf2e2c002)"><g clip-path="url(#5f6396dabb)"><g clip-path="url(#af36922c00)"><path fill="#013251" d="M 163.863281 42.203125 C 161.738281 43.523438 157.707031 38.335938 157.253906 37.753906 C 149.4375 27.570312 148.726562 27.503906 141.746094 15.152344 C 140.675781 13.230469 137.125 8.386719 138.433594 6.75 C 138.730469 6.378906 139.109375 6.128906 139.566406 6 C 139.535156 6.027344 139.511719 6.058594 139.488281 6.089844 C 138.175781 7.726562 141.710938 12.550781 142.792969 14.492188 C 149.792969 26.847656 150.496094 26.910156 158.324219 37.089844 C 158.742188 37.628906 162.226562 42.136719 164.433594 41.726562 C 164.269531 41.914062 164.078125 42.074219 163.863281 42.203125 Z M 163.863281 42.203125 " fill-opacity="1" fill-rule="nonzero"/></g></g></g></g><g clip-path="url(#95ff58a4a1)"><g clip-path="url(#5a07faf4bf)"><g clip-path="url(#5310c59b53)"><g clip-path="url(#e5828ec603)"><path fill="#fecc27" d="M 124.804688 53.722656 C 124.445312 51.988281 124.398438 51.375 125.246094 50.300781 C 126.621094 48.5625 128.433594 47.839844 130.210938 48.789062 C 134.257812 50.960938 136.691406 55.554688 139.359375 59.28125 C 150.007812 74.121094 160.660156 89.003906 170.324219 104.480469 C 171.238281 105.796875 171.929688 107.222656 172.40625 108.75 C 172.804688 110.285156 172.785156 110.4375 171.832031 111.710938 C 171.402344 112.289062 169.441406 113.585938 168.722656 113.5625 C 168.140625 113.441406 167.582031 113.257812 167.042969 113.011719 C 163.355469 111.335938 162.445312 109.261719 159.839844 106.152344 C 154.261719 99.527344 149.027344 92.640625 144.140625 85.492188 C 142.660156 83.324219 141.210938 81.128906 139.765625 78.953125 L 135.285156 72.144531 C 132.023438 67.242188 126.726562 59.273438 124.800781 53.71875 " fill-opacity="1" fill-rule="nonzero"/></g></g></g></g><g clip-path="url(#16f4b7eb6b)"><g clip-path="url(#edd903d283)"><g clip-path="url(#8f4423c2a2)"><g clip-path="url(#c0b60f8581)"><path fill="#e2b127" d="M 168.714844 113.59375 C 168.136719 113.476562 167.574219 113.292969 167.035156 113.042969 C 163.355469 111.34375 162.445312 109.261719 159.847656 106.152344 C 154.261719 99.53125 149.027344 92.644531 144.140625 85.492188 C 142.660156 83.324219 141.210938 81.128906 139.765625 78.953125 L 135.285156 72.144531 C 132.050781 67.242188 126.726562 59.273438 124.800781 53.71875 C 124.4375 51.988281 124.390625 51.378906 125.238281 50.300781 C 125.808594 49.546875 126.535156 48.984375 127.410156 48.621094 C 127.109375 48.882812 126.835938 49.171875 126.59375 49.484375 C 125.757812 50.539062 125.796875 51.15625 126.148438 52.90625 C 128.082031 58.453125 133.402344 66.417969 136.640625 71.324219 C 138.132812 73.589844 139.628906 75.855469 141.128906 78.117188 C 142.578125 80.3125 144.019531 82.507812 145.507812 84.65625 C 150.386719 91.816406 155.613281 98.710938 161.191406 105.339844 C 163.796875 108.433594 164.703125 110.527344 168.382812 112.214844 C 168.921875 112.460938 169.484375 112.644531 170.066406 112.765625 C 170.402344 112.738281 170.714844 112.640625 171.007812 112.46875 C 170.246094 113.027344 169.203125 113.621094 168.714844 113.59375 Z M 168.714844 113.59375 " fill-opacity="1" fill-rule="nonzero"/></g></g></g></g><g clip-path="url(#ef6866f57d)"><g clip-path="url(#c22340c7d0)"><g clip-path="url(#cdc6f71fda)"><g clip-path="url(#19c6159767)"><path fill="#ffffff" d="M 107.910156 40.976562 C 110.367188 36.082031 113.730469 31.914062 118 28.480469 C 118.121094 28.371094 118.214844 28.242188 118.28125 28.09375 C 118.347656 27.945312 118.382812 27.789062 118.390625 27.628906 C 118.394531 27.464844 118.371094 27.308594 118.3125 27.15625 C 118.257812 27.003906 118.175781 26.871094 118.0625 26.75 C 117.953125 26.632812 117.820312 26.542969 117.675781 26.476562 C 117.527344 26.410156 117.371094 26.375 117.210938 26.367188 C 117.046875 26.363281 116.890625 26.386719 116.738281 26.441406 C 116.585938 26.496094 116.453125 26.578125 116.332031 26.6875 C 111.894531 30.253906 108.394531 34.578125 105.835938 39.664062 C 105.753906 39.800781 105.699219 39.949219 105.675781 40.109375 C 105.652344 40.269531 105.65625 40.425781 105.691406 40.582031 C 105.726562 40.742188 105.789062 40.886719 105.882812 41.019531 C 105.972656 41.152344 106.085938 41.265625 106.21875 41.355469 C 106.355469 41.441406 106.503906 41.496094 106.664062 41.523438 C 106.824219 41.550781 106.984375 41.546875 107.140625 41.511719 C 107.300781 41.476562 107.445312 41.414062 107.578125 41.320312 C 107.710938 41.230469 107.824219 41.113281 107.910156 40.976562 Z M 107.910156 40.976562 " fill-opacity="1" fill-rule="nonzero"/></g></g></g></g><g clip-path="url(#23b4dc5a7d)"><g clip-path="url(#0038ce7691)"><g clip-path="url(#b6fc42d606)"><g clip-path="url(#919ec4e8df)"><path fill="#ffffff" d="M 121.191406 26.804688 L 122.699219 25.875 C 122.839844 25.800781 122.957031 25.699219 123.050781 25.570312 C 123.285156 25.3125 123.378906 25.015625 123.324219 24.671875 C 123.328125 24.507812 123.28125 24.355469 123.195312 24.214844 C 123.117188 24.070312 123.015625 23.949219 122.890625 23.84375 C 122.761719 23.742188 122.621094 23.667969 122.46875 23.621094 C 122.3125 23.574219 122.152344 23.558594 121.988281 23.574219 C 121.828125 23.589844 121.675781 23.636719 121.53125 23.714844 L 120.023438 24.640625 C 119.746094 24.8125 119.546875 25.050781 119.433594 25.355469 C 119.375 25.515625 119.359375 25.679688 119.390625 25.847656 C 119.394531 26.011719 119.4375 26.164062 119.523438 26.308594 C 119.675781 26.585938 119.902344 26.777344 120.207031 26.882812 C 120.546875 27.003906 120.875 26.976562 121.191406 26.804688 Z M 121.191406 26.804688 " fill-opacity="1" fill-rule="nonzero"/></g></g></g></g><g clip-path="url(#79222b6eda)"><g clip-path="url(#c12cae0c7d)"><g clip-path="url(#2442b28974)"><g clip-path="url(#2c8cba9c21)"><path fill="#ffffff" d="M 137.035156 62.886719 C 142.363281 70.335938 147.554688 77.882812 152.605469 85.527344 C 154.050781 87.71875 155.488281 89.921875 156.914062 92.132812 C 156.996094 92.273438 157.097656 92.390625 157.226562 92.492188 C 157.351562 92.59375 157.492188 92.664062 157.648438 92.710938 C 157.800781 92.757812 157.960938 92.773438 158.121094 92.757812 C 158.28125 92.746094 158.433594 92.703125 158.578125 92.628906 C 158.71875 92.550781 158.839844 92.449219 158.945312 92.324219 C 159.046875 92.195312 159.121094 92.054688 159.167969 91.902344 C 159.214844 91.746094 159.230469 91.585938 159.214844 91.425781 C 159.199219 91.265625 159.152344 91.113281 159.078125 90.96875 C 154.113281 83.265625 149.007812 75.664062 143.753906 68.167969 C 142.246094 66.011719 140.726562 63.867188 139.195312 61.730469 C 139.113281 61.589844 139.011719 61.472656 138.882812 61.371094 C 138.757812 61.269531 138.617188 61.199219 138.464844 61.152344 C 138.308594 61.105469 138.152344 61.085938 137.992188 61.101562 C 137.828125 61.113281 137.675781 61.15625 137.53125 61.230469 C 137.390625 61.308594 137.269531 61.410156 137.167969 61.535156 C 137.066406 61.660156 136.992188 61.804688 136.945312 61.957031 C 136.898438 62.113281 136.882812 62.273438 136.898438 62.433594 C 136.914062 62.59375 136.960938 62.746094 137.035156 62.890625 Z M 137.035156 62.886719 " fill-opacity="1" fill-rule="nonzero"/></g></g></g></g><g clip-path="url(#2b8eef0080)"><g clip-path="url(#a78f2beed4)"><g clip-path="url(#104bffbd3f)"><g clip-path="url(#18140b193e)"><path fill="#ffffff" d="M 160.953125 97.921875 C 161.285156 98.324219 161.609375 98.726562 161.925781 99.132812 C 162.089844 99.347656 162.25 99.5625 162.394531 99.777344 C 162.476562 99.890625 162.433594 99.828125 162.394531 99.753906 L 162.5 99.90625 L 162.746094 100.253906 C 163.34375 101.125 163.894531 102.015625 164.410156 102.9375 C 164.488281 103.082031 164.589844 103.203125 164.71875 103.308594 C 164.84375 103.410156 164.984375 103.484375 165.140625 103.53125 C 165.296875 103.578125 165.457031 103.59375 165.617188 103.574219 C 165.777344 103.558594 165.933594 103.511719 166.074219 103.433594 C 166.21875 103.359375 166.339844 103.257812 166.445312 103.128906 C 166.546875 103.003906 166.621094 102.863281 166.667969 102.707031 C 166.714844 102.550781 166.730469 102.394531 166.714844 102.230469 C 166.699219 102.070312 166.652344 101.917969 166.574219 101.773438 C 165.472656 99.8125 164.199219 97.964844 162.753906 96.238281 C 162.644531 96.121094 162.511719 96.027344 162.367188 95.960938 C 162.21875 95.894531 162.0625 95.859375 161.898438 95.851562 C 161.738281 95.847656 161.578125 95.871094 161.425781 95.929688 C 161.273438 95.984375 161.140625 96.066406 161.019531 96.175781 C 160.902344 96.289062 160.8125 96.417969 160.746094 96.566406 C 160.679688 96.714844 160.644531 96.871094 160.640625 97.03125 C 160.632812 97.191406 160.65625 97.351562 160.710938 97.503906 C 160.769531 97.652344 160.847656 97.789062 160.957031 97.910156 Z M 160.953125 97.921875 " fill-opacity="1" fill-rule="nonzero"/></g></g></g></g><g clip-path="url(#027bad0800)"><g clip-path="url(#4055a6a4c8)"><g clip-path="url(#a9f6b07290)"><g clip-path="url(#e6bf7b08da)"><path fill="#ffffff" d="M 180.273438 122.265625 C 180.207031 122.550781 180.109375 122.824219 179.984375 123.089844 L 180.121094 122.800781 C 179.960938 123.144531 179.757812 123.464844 179.523438 123.757812 L 179.722656 123.515625 C 179.472656 123.816406 179.191406 124.082031 178.878906 124.308594 L 179.136719 124.128906 C 178.824219 124.355469 178.492188 124.539062 178.132812 124.679688 L 178.433594 124.570312 C 178.3125 124.613281 178.1875 124.652344 178.0625 124.6875 C 177.90625 124.726562 177.761719 124.792969 177.628906 124.886719 C 177.496094 124.980469 177.386719 125.097656 177.300781 125.234375 C 177.214844 125.375 177.160156 125.523438 177.132812 125.683594 C 177.109375 125.84375 177.113281 126.003906 177.152344 126.164062 C 177.191406 126.320312 177.261719 126.464844 177.355469 126.59375 C 177.453125 126.726562 177.570312 126.832031 177.707031 126.917969 C 177.847656 127.003906 177.996094 127.058594 178.15625 127.085938 C 178.316406 127.113281 178.472656 127.109375 178.632812 127.074219 C 179.609375 126.800781 180.457031 126.304688 181.171875 125.582031 C 181.886719 124.859375 182.371094 124.007812 182.632812 123.027344 C 182.730469 122.699219 182.699219 122.382812 182.542969 122.082031 C 182.46875 121.9375 182.367188 121.816406 182.238281 121.710938 C 182.113281 121.609375 181.972656 121.535156 181.816406 121.488281 C 181.660156 121.4375 181.503906 121.425781 181.339844 121.441406 C 181.179688 121.457031 181.027344 121.503906 180.882812 121.578125 C 180.589844 121.734375 180.390625 121.972656 180.292969 122.289062 Z M 180.273438 122.265625 " fill-opacity="1" fill-rule="nonzero"/></g></g></g></g><g clip-path="url(#f329814838)"><g clip-path="url(#cb93ab0644)"><g clip-path="url(#939ecf93f2)"><g clip-path="url(#b2869eb4e5)"><path fill="#ffffff" d="M 141.835938 9.523438 C 140.320312 9.554688 139.003906 10.175781 137.714844 10.917969 C 136.425781 11.664062 135.203125 12.414062 133.972656 13.238281 C 131.496094 14.851562 129.113281 16.59375 126.824219 18.464844 C 125.605469 19.472656 127.285156 21.265625 128.5 20.261719 C 130.5625 18.566406 132.707031 16.984375 134.941406 15.515625 C 136.042969 14.789062 137.15625 14.125 138.285156 13.433594 C 139.335938 12.816406 140.488281 12.015625 141.746094 11.992188 C 143.320312 11.964844 143.417969 9.511719 141.835938 9.539062 Z M 141.835938 9.523438 " fill-opacity="1" fill-rule="nonzero"/></g></g></g></g><g clip-path="url(#630e9ef29a)"><g clip-path="url(#8ad620af75)"><g clip-path="url(#7408000eb1)"><g clip-path="url(#bff9a2e14b)"><path fill="#ffffff" d="M 93.976562 39.082031 C 90.304688 40.945312 87.019531 43.335938 84.117188 46.25 C 84 46.363281 83.90625 46.492188 83.84375 46.640625 C 83.777344 46.789062 83.738281 46.941406 83.734375 47.105469 C 83.730469 47.265625 83.753906 47.421875 83.808594 47.574219 C 83.863281 47.726562 83.945312 47.863281 84.054688 47.980469 C 84.164062 48.101562 84.292969 48.191406 84.441406 48.257812 C 84.589844 48.324219 84.746094 48.363281 84.90625 48.367188 C 85.070312 48.375 85.226562 48.347656 85.378906 48.292969 C 85.53125 48.238281 85.664062 48.152344 85.785156 48.042969 C 88.535156 45.269531 91.648438 42.996094 95.132812 41.222656 C 96.539062 40.503906 95.378906 38.339844 93.964844 39.058594 Z M 93.976562 39.082031 " fill-opacity="1" fill-rule="nonzero"/></g></g></g></g></svg>