<svg width="98" height="88" viewBox="0 0 98 88" fill="none" xmlns="http://www.w3.org/2000/svg">
<g clip-path="url(#clip0_26_1465)">
<mask id="mask0_26_1465" style="mask-type:luminance" maskUnits="userSpaceOnUse" x="14" y="0" width="25" height="9">
<path d="M14.3262 0.918945H38.1357V8.92025H14.3262V0.918945Z" fill="white"/>
</mask>
<g mask="url(#mask0_26_1465)">
<path d="M37.4041 8.76392H15.0144V0.922119H37.4041V8.76392Z" fill="#1A1A1A"/>
</g>
<path d="M82.1833 16.6057V8.76392H59.7937V16.6057H52.3315V24.4443H44.8694V16.622H44.8663V16.6057H37.4041V8.76392H15.0144V16.6057H7.54916V24.441H7.55226V24.4443H7.54916V40.1246H15.0144V47.9631H22.4766V55.8017H30.8596V55.8049H29.9419V63.6435H37.99H37.4041V71.482H44.8694V79.3238H52.3315V71.482H59.7937V63.6435H67.259V55.8049H66.3413V55.8017H74.7212V47.9631H73.2114H82.1833V40.1246H89.6486V16.6057H82.1833Z" fill="#FF0000"/>
<path d="M44.8663 24.4411H52.3315V16.6025H44.8663V24.4411Z" fill="#1A1A1A"/>
<path d="M52.3315 16.6025H59.7937V8.76392H52.3315V16.6025Z" fill="#1A1A1A"/>
<path d="M74.7212 55.8017H82.1833V47.9631H74.7212V55.8017Z" fill="#1A1A1A"/>
<path d="M82.1833 47.9631H89.6486V40.1245H82.1833V47.9631Z" fill="#1A1A1A"/>
<path d="M59.7937 71.4821H67.259V63.6436H59.7937V71.4821Z" fill="#1A1A1A"/>
<path d="M67.259 63.6436H74.7211V55.8018H67.259V63.6436Z" fill="#1A1A1A"/>
<mask id="mask1_26_1465" style="mask-type:luminance" maskUnits="userSpaceOnUse" x="44" y="79" width="9" height="9">
<path d="M44.7206 79.1968H52.4214V87.1623H44.7206V79.1968Z" fill="white"/>
</mask>
<g mask="url(#mask1_26_1465)">
<path d="M44.8662 87.1623H52.3315V79.3237H44.8662V87.1623Z" fill="#1A1A1A"/>
</g>
<path d="M52.3315 79.3237H59.7937V71.4819H52.3315V79.3237Z" fill="#1A1A1A"/>
<path d="M15.0144 47.9631V55.8049H22.4797V47.9631H15.0144Z" fill="#1A1A1A"/>
<path d="M7.55228 40.1245V47.9631H15.0145V40.1245H7.55228Z" fill="#1A1A1A"/>
<path d="M37.4041 63.6436H29.9419V71.4854H37.4041V79.3239H44.8662V71.4821H37.4041V63.6436Z" fill="#1A1A1A"/>
<path d="M22.4797 55.8049V63.6435H29.9419V55.8049H22.4797Z" fill="#1A1A1A"/>
<path d="M82.1833 8.76392V16.6025H89.6486V8.76392H82.1833Z" fill="#1A1A1A"/>
<path d="M37.4041 8.76392V16.6025H44.8663V8.76392H37.4041Z" fill="#1A1A1A"/>
<mask id="mask2_26_1465" style="mask-type:luminance" maskUnits="userSpaceOnUse" x="59" y="0" width="24" height="9">
<path d="M59.5643 0.918945H82.5802V8.92025H59.5643V0.918945Z" fill="white"/>
</mask>
<g mask="url(#mask2_26_1465)">
<path d="M74.7212 0.922119H59.7937V8.76392H82.1833V0.922119H74.7212Z" fill="#1A1A1A"/>
</g>
<mask id="mask3_26_1465" style="mask-type:luminance" maskUnits="userSpaceOnUse" x="14" y="0" width="25" height="9">
<path d="M14.3262 0.918945H38.1357V8.92025H14.3262V0.918945Z" fill="white"/>
</mask>
<g mask="url(#mask3_26_1465)">
<path d="M29.9419 0.922119H15.0144V8.76392H37.4041V0.922119H29.9419Z" fill="#1A1A1A"/>
</g>
<mask id="mask4_26_1465" style="mask-type:luminance" maskUnits="userSpaceOnUse" x="88" y="16" width="10" height="25">
<path d="M88.9294 16.4202H97.1108V40.5868H88.9294V16.4202Z" fill="white"/>
</mask>
<g mask="url(#mask4_26_1465)">
<path d="M89.6486 16.6025V40.1247H97.1108V16.6025H89.6486Z" fill="#1A1A1A"/>
</g>
<mask id="mask5_26_1465" style="mask-type:luminance" maskUnits="userSpaceOnUse" x="0" y="8" width="16" height="33">
<path d="M0.0869751 8.08691H15.1198V40.5869H0.0869751V8.08691Z" fill="white"/>
</mask>
<g mask="url(#mask5_26_1465)">
<path d="M7.55225 32.2828V16.6025H15.0144V8.76392H7.55225V16.6025H0.0869751V40.1246H7.55225V32.2828Z" fill="#1A1A1A"/>
</g>
<path d="M22.4797 16.6025H15.0144V8.76392H22.4797V16.6025Z" fill="#DB2521"/>
<path d="M7.55228 16.6025V40.1247H15.0145V16.6025H7.55228Z" fill="#DB2521"/>
<path d="M70.9885 24.542H63.5264V16.7002H70.9885V24.542Z" fill="white"/>
<path d="M78.4538 24.542H70.9885V16.7002H78.4538V24.542Z" fill="white"/>
<path d="M78.4538 32.2827H70.9885V24.4409H78.4538V32.2827Z" fill="white"/>
<path d="M44.8694 79.3237H52.3315V71.4819H44.8694V79.3237Z" fill="#D40601"/>
<path d="M74.7212 47.9631H82.1833V40.1245H74.7212V47.9631Z" fill="#DB2521"/>
<path d="M59.7937 63.6435H52.3315V71.482H59.7968V63.6435H67.259V55.8049H59.7937V63.6435Z" fill="#DB2521"/>
<path d="M67.259 55.8049H74.7211V47.9631H67.259V55.8049Z" fill="#DB2521"/>
<path d="M44.8663 71.4819V79.3237H52.3315V71.4819H44.8663Z" fill="#DB2521"/>
<path d="M15.0144 40.1245V47.9631H22.4766V40.1245H15.0144Z" fill="#DB2521"/>
<path d="M37.4041 55.8049H29.9419V63.6435H37.4041V71.482H44.8662V63.6435H37.4041V55.8049Z" fill="#DB2521"/>
<path d="M22.4766 47.9631V55.8049H29.9419V47.9631H22.4766Z" fill="#DB2521"/>
</g>
<defs>
<clipPath id="clip0_26_1465">
<rect width="98" height="88" fill="white"/>
</clipPath>
</defs>
</svg>
