<svg width="99" height="87" viewBox="0 0 99 87" fill="none" xmlns="http://www.w3.org/2000/svg">
<g clip-path="url(#clip0_26_167)">
<mask id="mask0_26_167" style="mask-type:luminance" maskUnits="userSpaceOnUse" x="93" y="32" width="6" height="6">
<path d="M93.119 32.0347H98.472V37.3263H93.119V32.0347Z" fill="white"/>
</mask>
<g mask="url(#mask0_26_167)">
<path d="M98.4862 32.2379V36.7923H93.8077V32.2379H98.4862Z" fill="#A61C22"/>
</g>
<mask id="mask1_26_167" style="mask-type:luminance" maskUnits="userSpaceOnUse" x="93" y="27" width="6" height="6">
<path d="M93.119 27.625H98.472V32.9167H93.119V27.625Z" fill="white"/>
</mask>
<g mask="url(#mask1_26_167)">
<path d="M98.4862 27.6802V32.238H93.8077V27.6802H98.4862Z" fill="#A61C22"/>
</g>
<mask id="mask2_26_167" style="mask-type:luminance" maskUnits="userSpaceOnUse" x="93" y="22" width="6" height="7">
<path d="M93.119 22.3334H98.472V28.507H93.119V22.3334Z" fill="white"/>
</mask>
<g mask="url(#mask2_26_167)">
<path d="M98.4862 23.1189V27.6802H93.8077V23.1189H98.4862Z" fill="#A61C22"/>
</g>
<mask id="mask3_26_167" style="mask-type:luminance" maskUnits="userSpaceOnUse" x="93" y="17" width="6" height="7">
<path d="M93.119 17.9236H98.472V23.2153H93.119V17.9236Z" fill="white"/>
</mask>
<g mask="url(#mask3_26_167)">
<path d="M98.4862 18.5609V23.1188H93.8077V18.5609H98.4862Z" fill="#A61C22"/>
</g>
<mask id="mask4_26_167" style="mask-type:luminance" maskUnits="userSpaceOnUse" x="93" y="13" width="6" height="6">
<path d="M93.119 13.5139H98.472V18.8056H93.119V13.5139Z" fill="white"/>
</mask>
<g mask="url(#mask4_26_167)">
<path d="M98.4862 14.0066V18.561H93.8077V14.0066H98.4862Z" fill="#A61C22"/>
</g>
<path d="M93.8077 41.3572V45.9116H89.1363V41.3572H93.8077Z" fill="#A61C22"/>
<path d="M93.8077 36.7924V41.3571H89.1363V36.7924H93.8077Z" fill="#A61C22"/>
<path d="M93.8077 32.238V36.7925H89.1363V32.238H93.8077Z" fill="#CE2524"/>
<path d="M93.8077 27.6802V32.238H89.1363V27.6802H93.8077Z" fill="#E2262E"/>
<path d="M93.8077 23.1188V27.6801H89.1363V23.1188H93.8077Z" fill="#E93040"/>
<path d="M93.8077 18.5609V23.1188H89.1363V18.5609H93.8077Z" fill="#E93040"/>
<path d="M93.8077 14.0066V18.561H89.1363V14.0066H93.8077Z" fill="#E93040"/>
<path d="M93.8077 9.44177V14.0065H89.1363V9.44177H93.8077Z" fill="#A61C22"/>
<path d="M93.8077 4.88391V9.44177H89.1363V4.88391H93.8077Z" fill="#A61C22"/>
<path d="M89.1363 45.9116V50.4764H84.4577V45.9116H89.1363Z" fill="#A61C22"/>
<path d="M89.1363 41.3572V45.9116H84.4577V41.3572H89.1363Z" fill="#A61C22"/>
<path d="M89.1363 36.7924V41.3571H84.4577V36.7924H89.1363Z" fill="#CE2524"/>
<path d="M89.1363 32.238V36.7925H84.4577V32.238H89.1363Z" fill="#E93040"/>
<path d="M89.1363 27.6802V32.238H84.4577V27.6802H89.1363Z" fill="#E93040"/>
<path d="M89.1363 23.1188V27.6801H84.4577V23.1188H89.1363Z" fill="white"/>
<path d="M89.1363 18.5609V23.1188H84.4577V18.5609H89.1363Z" fill="white"/>
<path d="M89.1363 14.0066V18.561H84.4577V14.0066H89.1363Z" fill="#E93040"/>
<path d="M89.1363 9.44177V14.0065H84.4577V9.44177H89.1363Z" fill="#E93040"/>
<path d="M89.1363 4.88391V9.44177H84.4577V4.88391H89.1363Z" fill="#A61C22"/>
<path d="M84.4577 50.4763V55.0342H79.7898V50.4763H84.4577Z" fill="#A61C22"/>
<path d="M84.4577 45.9116V50.4764H79.7898V45.9116H84.4577Z" fill="#A61C22"/>
<path d="M84.4577 41.3572V45.9116H79.7898V41.3572H84.4577Z" fill="#E2262E"/>
<path d="M84.4577 36.7924V41.3571H79.7898V36.7924H84.4577Z" fill="#E93040"/>
<path d="M84.4577 32.238V36.7925H79.7898V32.238H84.4577Z" fill="#F35A71"/>
<path d="M84.4577 27.6802V32.238H79.7898V27.6802H84.4577Z" fill="white"/>
<path d="M84.4577 23.1188V27.6801H79.7898V23.1188H84.4577Z" fill="white"/>
<path d="M84.4577 18.5609V23.1188H79.7898V18.5609H84.4577Z" fill="white"/>
<path d="M84.4577 14.0066V18.561H79.7898V14.0066H84.4577Z" fill="white"/>
<path d="M84.4577 9.44177V14.0065H79.7898V9.44177H84.4577Z" fill="#E93040"/>
<path d="M84.4577 4.88391V9.44177H79.7898V4.88391H84.4577Z" fill="#A61C22"/>
<path d="M79.7898 55.0342V59.5886H75.1184V55.0342H79.7898Z" fill="#A61C22"/>
<path d="M79.7898 50.4763V55.0342H75.1184V50.4763H79.7898Z" fill="#A61C22"/>
<path d="M79.7898 45.9116V50.4764H75.1184V45.9116H79.7898Z" fill="#E2262E"/>
<path d="M79.7898 41.3572V45.9116H75.1184V41.3572H79.7898Z" fill="#E2262E"/>
<path d="M79.7898 36.7924V41.3571H75.1184V36.7924H79.7898Z" fill="#E93040"/>
<path d="M79.7898 32.238V36.7925H75.1184V32.238H79.7898Z" fill="white"/>
<path d="M79.7898 27.6802V32.238H75.1184V27.6802H79.7898Z" fill="#F35A71"/>
<path d="M79.7898 23.1188V27.6801H75.1184V23.1188H79.7898Z" fill="#F35A71"/>
<path d="M79.7898 18.5609V23.1188H75.1184V18.5609H79.7898Z" fill="#F35A71"/>
<path d="M79.7898 14.0066V18.561H75.1184V14.0066H79.7898Z" fill="#F35A71"/>
<path d="M79.7898 9.44177V14.0065H75.1184V9.44177H79.7898Z" fill="white"/>
<path d="M79.7898 4.88391V9.44177H75.1184V4.88391H79.7898Z" fill="#E2262E"/>
<mask id="mask5_26_167" style="mask-type:luminance" maskUnits="userSpaceOnUse" x="74" y="0" width="7" height="6">
<path d="M74.9444 0.312256H80.3968V5.57636H74.9444V0.312256Z" fill="white"/>
</mask>
<g mask="url(#mask5_26_167)">
<path d="M79.7898 0.322632V4.88394H75.1184V0.322632H79.7898Z" fill="#A61C22"/>
</g>
<path d="M75.1184 59.5886V64.1534H70.4398V59.5886H75.1184Z" fill="#A61C22"/>
<path d="M75.1184 55.0342V59.5886H70.4398V55.0342H75.1184Z" fill="#A61C22"/>
<path d="M75.1184 50.4763V55.0342H70.4398V50.4763H75.1184Z" fill="#E2262E"/>
<path d="M75.1184 45.9116V50.4764H70.4398V45.9116H75.1184Z" fill="#E2262E"/>
<path d="M75.1184 41.3572V45.9116H70.4398V41.3572H75.1184Z" fill="white"/>
<path d="M75.1184 36.7924V41.3571H70.4398V36.7924H75.1184Z" fill="#F35A71"/>
<path d="M75.1184 32.238V36.7925H70.4398V32.238H75.1184Z" fill="#CE2524"/>
<path d="M75.1184 27.6802V32.238H70.4398V27.6802H75.1184Z" fill="#CE2524"/>
<path d="M75.1184 23.1188V27.6801H70.4398V23.1188H75.1184Z" fill="#CE2524"/>
<path d="M75.1184 18.5609V23.1188H70.4398V18.5609H75.1184Z" fill="#CE2524"/>
<path d="M75.1184 14.0066V18.561H70.4398V14.0066H75.1184Z" fill="#F35A71"/>
<path d="M75.1184 9.44177V14.0065H70.4398V9.44177H75.1184Z" fill="#F35A71"/>
<path d="M75.1184 4.88391V9.44177H70.4398V4.88391H75.1184Z" fill="#E2262E"/>
<mask id="mask6_26_167" style="mask-type:luminance" maskUnits="userSpaceOnUse" x="70" y="0" width="6" height="6">
<path d="M70.4008 0.312256H75.8532V5.57636H70.4008V0.312256Z" fill="white"/>
</mask>
<g mask="url(#mask6_26_167)">
<path d="M75.1184 0.322632V4.88394H70.4398V0.322632H75.1184Z" fill="#A61C22"/>
</g>
<path d="M70.4398 64.1533V68.7077H65.7719V64.1533H70.4398Z" fill="#A61C22"/>
<path d="M70.4398 59.5886V64.1534H65.7719V59.5886H70.4398Z" fill="#A61C22"/>
<path d="M70.4398 55.0342V59.5886H65.7719V55.0342H70.4398Z" fill="#E2262E"/>
<path d="M70.4398 50.4763V55.0342H65.7719V50.4763H70.4398Z" fill="#E2262E"/>
<path d="M70.4398 45.9116V50.4764H65.7719V45.9116H70.4398Z" fill="#E93040"/>
<path d="M70.4398 41.3572V45.9116H65.7719V41.3572H70.4398Z" fill="#CE2524"/>
<path d="M70.4398 36.7924V41.3571H65.7719V36.7924H70.4398Z" fill="#CE2524"/>
<path d="M70.4398 32.238V36.7925H65.7719V32.238H70.4398Z" fill="#CE2524"/>
<path d="M70.4398 27.6802V32.238H65.7719V27.6802H70.4398Z" fill="#CE2524"/>
<path d="M70.4398 23.1188V27.6801H65.7719V23.1188H70.4398Z" fill="#CE2524"/>
<path d="M70.4398 18.5609V23.1188H65.7719V18.5609H70.4398Z" fill="#CE2524"/>
<path d="M70.4398 14.0066V18.561H65.7719V14.0066H70.4398Z" fill="#CE2524"/>
<path d="M70.4398 9.44177V14.0065H65.7719V9.44177H70.4398Z" fill="#F35A71"/>
<path d="M70.4398 4.88391V9.44177H65.7719V4.88391H70.4398Z" fill="#E2262E"/>
<mask id="mask7_26_167" style="mask-type:luminance" maskUnits="userSpaceOnUse" x="64" y="0" width="8" height="6">
<path d="M64.9484 0.312256H71.3095V5.57636H64.9484V0.312256Z" fill="white"/>
</mask>
<g mask="url(#mask7_26_167)">
<path d="M70.4398 0.322632V4.88394H65.7719V0.322632H70.4398Z" fill="#A61C22"/>
</g>
<path d="M65.7719 68.7078V73.2656H61.1005V68.7078H65.7719Z" fill="#A61C22"/>
<path d="M65.7719 64.1533V68.7077H61.1005V64.1533H65.7719Z" fill="#A61C22"/>
<path d="M65.7719 59.5886V64.1534H61.1005V59.5886H65.7719Z" fill="#E2262E"/>
<path d="M65.7719 55.0342V59.5886H61.1005V55.0342H65.7719Z" fill="#E2262E"/>
<path d="M65.7719 50.4763V55.0342H61.1005V50.4763H65.7719Z" fill="#E2262E"/>
<path d="M65.7719 45.9116V50.4764H61.1005V45.9116H65.7719Z" fill="#CE2524"/>
<path d="M65.7719 41.3572V45.9116H61.1005V41.3572H65.7719Z" fill="#CE2524"/>
<path d="M65.7719 36.7924V41.3571H61.1005V36.7924H65.7719Z" fill="#CE2524"/>
<path d="M65.7719 32.238V36.7925H61.1005V32.238H65.7719Z" fill="#CE2524"/>
<path d="M65.7719 27.6802V32.238H61.1005V27.6802H65.7719Z" fill="#CE2524"/>
<path d="M65.7719 23.1188V27.6801H61.1005V23.1188H65.7719Z" fill="#CE2524"/>
<path d="M65.7719 18.5609V23.1188H61.1005V18.5609H65.7719Z" fill="#CE2524"/>
<path d="M65.7719 14.0066V18.561H61.1005V14.0066H65.7719Z" fill="#F35A71"/>
<path d="M65.7719 9.44177V14.0065H61.1005V9.44177H65.7719Z" fill="#CE2524"/>
<path d="M65.7719 4.88391V9.44177H61.1005V4.88391H65.7719Z" fill="#E2262E"/>
<mask id="mask8_26_167" style="mask-type:luminance" maskUnits="userSpaceOnUse" x="60" y="0" width="6" height="6">
<path d="M60.4048 0.312256H65.8571V5.57636H60.4048V0.312256Z" fill="white"/>
</mask>
<g mask="url(#mask8_26_167)">
<path d="M65.7719 0.322632V4.88394H61.1005V0.322632H65.7719Z" fill="#A61C22"/>
</g>
<path d="M61.1005 73.2656V77.8269H56.422V73.2656H61.1005Z" fill="#A61C22"/>
<path d="M61.1005 68.7078V73.2656H56.422V68.7078H61.1005Z" fill="#A61C22"/>
<path d="M61.1005 64.1533V68.7077H56.422V64.1533H61.1005Z" fill="#E2262E"/>
<path d="M61.1005 59.5886V64.1534H56.422V59.5886H61.1005Z" fill="#E2262E"/>
<path d="M61.1005 55.0342V59.5886H56.422V55.0342H61.1005Z" fill="#E2262E"/>
<path d="M61.1005 50.4763V55.0342H56.422V50.4763H61.1005Z" fill="#CE2524"/>
<path d="M61.1005 45.9116V50.4764H56.422V45.9116H61.1005Z" fill="#CE2524"/>
<path d="M61.1005 41.3572V45.9116H56.422V41.3572H61.1005Z" fill="#CE2524"/>
<path d="M61.1005 36.7924V41.3571H56.422V36.7924H61.1005Z" fill="#CE2524"/>
<path d="M61.1005 32.238V36.7925H56.422V32.238H61.1005Z" fill="#CE2524"/>
<path d="M61.1005 27.6802V32.238H56.422V27.6802H61.1005Z" fill="#CE2524"/>
<path d="M61.1005 23.1188V27.6801H56.422V23.1188H61.1005Z" fill="#CE2524"/>
<path d="M61.1005 18.5609V23.1188H56.422V18.5609H61.1005Z" fill="#CE2524"/>
<path d="M61.1005 14.0066V18.561H56.422V14.0066H61.1005Z" fill="#CE2524"/>
<path d="M61.1005 9.44177V14.0065H56.422V9.44177H61.1005Z" fill="#CE2524"/>
<path d="M61.1005 4.88391V9.44177H56.422V4.88391H61.1005Z" fill="#A61C22"/>
<mask id="mask9_26_167" style="mask-type:luminance" maskUnits="userSpaceOnUse" x="55" y="0" width="7" height="6">
<path d="M55.8611 0.312256H61.3135V5.57636H55.8611V0.312256Z" fill="white"/>
</mask>
<g mask="url(#mask9_26_167)">
<path d="M61.1005 0.322632V4.88394H56.422V0.322632H61.1005Z" fill="#A61C22"/>
</g>
<path d="M56.422 77.8269V82.3848H51.7505V77.8269H56.422Z" fill="#A61C22"/>
<path d="M56.422 73.2656V77.8269H51.7505V73.2656H56.422Z" fill="#A61C22"/>
<path d="M56.422 68.7078V73.2656H51.7505V68.7078H56.422Z" fill="#E2262E"/>
<path d="M56.422 64.1533V68.7077H51.7505V64.1533H56.422Z" fill="#E2262E"/>
<path d="M56.422 59.5886V64.1534H51.7505V59.5886H56.422Z" fill="#E2262E"/>
<path d="M56.422 55.0342V59.5886H51.7505V55.0342H56.422Z" fill="#CE2524"/>
<path d="M56.422 50.4763V55.0342H51.7505V50.4763H56.422Z" fill="#CE2524"/>
<path d="M56.422 45.9116V50.4764H51.7505V45.9116H56.422Z" fill="#CE2524"/>
<path d="M56.422 41.3572V45.9116H51.7505V41.3572H56.422Z" fill="#CE2524"/>
<path d="M56.422 36.7924V41.3571H51.7505V36.7924H56.422Z" fill="#CE2524"/>
<path d="M56.422 32.238V36.7925H51.7505V32.238H56.422Z" fill="#CE2524"/>
<path d="M56.422 27.6802V32.238H51.7505V27.6802H56.422Z" fill="#CE2524"/>
<path d="M56.422 23.1188V27.6801H51.7505V23.1188H56.422Z" fill="#CE2524"/>
<path d="M56.422 18.5609V23.1188H51.7505V18.5609H56.422Z" fill="#CE2524"/>
<path d="M56.422 14.0066V18.561H51.7505V14.0066H56.422Z" fill="#CE2524"/>
<path d="M56.422 9.44177V14.0065H51.7505V9.44177H56.422Z" fill="#A61C22"/>
<path d="M56.422 4.88391V9.44177H51.7505V4.88391H56.422Z" fill="#A61C22"/>
<mask id="mask10_26_167" style="mask-type:luminance" maskUnits="userSpaceOnUse" x="46" y="82" width="7" height="5">
<path d="M46.7738 82.3055H52.2262V86.9633H46.7738V82.3055Z" fill="white"/>
</mask>
<g mask="url(#mask10_26_167)">
<path d="M51.7505 82.3848V86.9495H47.072V82.3848H51.7505Z" fill="#A61C22"/>
</g>
<path d="M51.7505 77.8269V82.3848H47.072V77.8269H51.7505Z" fill="#A61C22"/>
<path d="M51.7505 73.2656V77.8269H47.072V73.2656H51.7505Z" fill="#CE2524"/>
<path d="M51.7505 68.7078V73.2656H47.072V68.7078H51.7505Z" fill="#E2262E"/>
<path d="M51.7505 64.1533V68.7077H47.072V64.1533H51.7505Z" fill="#E2262E"/>
<path d="M51.7505 59.5886V64.1534H47.072V59.5886H51.7505Z" fill="#CE2524"/>
<path d="M51.7505 55.0342V59.5886H47.072V55.0342H51.7505Z" fill="#CE2524"/>
<path d="M51.7505 50.4763V55.0342H47.072V50.4763H51.7505Z" fill="#CE2524"/>
<path d="M51.7505 45.9116V50.4764H47.072V45.9116H51.7505Z" fill="#CE2524"/>
<path d="M51.7505 41.3572V45.9116H47.072V41.3572H51.7505Z" fill="#CE2524"/>
<path d="M51.7505 36.7924V41.3571H47.072V36.7924H51.7505Z" fill="#CE2524"/>
<path d="M51.7505 32.238V36.7925H47.072V32.238H51.7505Z" fill="#CE2524"/>
<path d="M51.7505 27.6802V32.238H47.072V27.6802H51.7505Z" fill="#CE2524"/>
<path d="M51.7505 23.1188V27.6801H47.072V23.1188H51.7505Z" fill="#CE2524"/>
<path d="M51.7505 18.5609V23.1188H47.072V18.5609H51.7505Z" fill="#CE2524"/>
<path d="M51.7505 14.0066V18.561H47.072V14.0066H51.7505Z" fill="#CE2524"/>
<path d="M51.7505 9.44177V14.0065H47.072V9.44177H51.7505Z" fill="#A61C22"/>
<path d="M47.072 77.8269V82.3848H42.4041V77.8269H47.072Z" fill="#A61C22"/>
<path d="M47.072 73.2656V77.8269H42.4041V73.2656H47.072Z" fill="#A61C22"/>
<path d="M47.072 68.7078V73.2656H42.4041V68.7078H47.072Z" fill="#E2262E"/>
<path d="M47.072 64.1533V68.7077H42.4041V64.1533H47.072Z" fill="#E2262E"/>
<path d="M47.072 59.5886V64.1534H42.4041V59.5886H47.072Z" fill="#CE2524"/>
<path d="M47.072 55.0342V59.5886H42.4041V55.0342H47.072Z" fill="#CE2524"/>
<path d="M47.072 50.4763V55.0342H42.4041V50.4763H47.072Z" fill="#CE2524"/>
<path d="M47.072 45.9116V50.4764H42.4041V45.9116H47.072Z" fill="#CE2524"/>
<path d="M47.072 41.3572V45.9116H42.4041V41.3572H47.072Z" fill="#CE2524"/>
<path d="M47.072 36.7924V41.3571H42.4041V36.7924H47.072Z" fill="#CE2524"/>
<path d="M47.072 32.238V36.7925H42.4041V32.238H47.072Z" fill="#CE2524"/>
<path d="M47.072 27.6802V32.238H42.4041V27.6802H47.072Z" fill="#CE2524"/>
<path d="M47.072 23.1188V27.6801H42.4041V23.1188H47.072Z" fill="#CE2524"/>
<path d="M47.072 18.5609V23.1188H42.4041V18.5609H47.072Z" fill="#CE2524"/>
<path d="M47.072 14.0066V18.561H42.4041V14.0066H47.072Z" fill="#CE2524"/>
<path d="M47.072 9.44177V14.0065H42.4041V9.44177H47.072Z" fill="#A61C22"/>
<path d="M47.072 4.88391V9.44177H42.4041V4.88391H47.072Z" fill="#A61C22"/>
<path d="M42.4041 73.2656V77.8269H37.7327V73.2656H42.4041Z" fill="#A61C22"/>
<path d="M42.4041 68.7078V73.2656H37.7327V68.7078H42.4041Z" fill="#A61C22"/>
<path d="M42.4041 64.1533V68.7077H37.7327V64.1533H42.4041Z" fill="#E2262E"/>
<path d="M42.4041 59.5886V64.1534H37.7327V59.5886H42.4041Z" fill="#E2262E"/>
<path d="M42.4041 55.0342V59.5886H37.7327V55.0342H42.4041Z" fill="#CE2524"/>
<path d="M42.4041 50.4763V55.0342H37.7327V50.4763H42.4041Z" fill="#CE2524"/>
<path d="M42.4041 45.9116V50.4764H37.7327V45.9116H42.4041Z" fill="#CE2524"/>
<path d="M42.4041 41.3572V45.9116H37.7327V41.3572H42.4041Z" fill="#CE2524"/>
<path d="M42.4041 36.7924V41.3571H37.7327V36.7924H42.4041Z" fill="#CE2524"/>
<path d="M42.4041 32.238V36.7925H37.7327V32.238H42.4041Z" fill="#CE2524"/>
<path d="M42.4041 27.6802V32.238H37.7327V27.6802H42.4041Z" fill="#CE2524"/>
<path d="M42.4041 23.1188V27.6801H37.7327V23.1188H42.4041Z" fill="#CE2524"/>
<path d="M42.4041 18.5609V23.1188H37.7327V18.5609H42.4041Z" fill="#CE2524"/>
<path d="M42.4041 14.0066V18.561H37.7327V14.0066H42.4041Z" fill="#CE2524"/>
<path d="M42.4041 9.44177V14.0065H37.7327V9.44177H42.4041Z" fill="#CE2524"/>
<path d="M42.4041 4.88391V9.44177H37.7327V4.88391H42.4041Z" fill="#A61C22"/>
<mask id="mask11_26_167" style="mask-type:luminance" maskUnits="userSpaceOnUse" x="37" y="0" width="7" height="6">
<path d="M37.6865 0.312256H43.1389V5.57636H37.6865V0.312256Z" fill="white"/>
</mask>
<g mask="url(#mask11_26_167)">
<path d="M42.4041 0.322632V4.88394H37.7327V0.322632H42.4041Z" fill="#A61C22"/>
</g>
<path d="M37.7327 68.7078V73.2656H33.0541V68.7078H37.7327Z" fill="#A61C22"/>
<path d="M37.7327 64.1533V68.7077H33.0541V64.1533H37.7327Z" fill="#A61C22"/>
<path d="M37.7327 59.5886V64.1534H33.0541V59.5886H37.7327Z" fill="#E2262E"/>
<path d="M37.7327 55.0342V59.5886H33.0541V55.0342H37.7327Z" fill="#E2262E"/>
<path d="M37.7327 50.4763V55.0342H33.0541V50.4763H37.7327Z" fill="#CE2524"/>
<path d="M37.7327 45.9116V50.4764H33.0541V45.9116H37.7327Z" fill="#CE2524"/>
<path d="M37.7327 41.3572V45.9116H33.0541V41.3572H37.7327Z" fill="#CE2524"/>
<path d="M37.7327 36.7924V41.3571H33.0541V36.7924H37.7327Z" fill="#CE2524"/>
<path d="M37.7327 32.238V36.7925H33.0541V32.238H37.7327Z" fill="#CE2524"/>
<path d="M37.7327 27.6802V32.238H33.0541V27.6802H37.7327Z" fill="#CE2524"/>
<path d="M37.7327 23.1188V27.6801H33.0541V23.1188H37.7327Z" fill="#CE2524"/>
<path d="M37.7327 18.5609V23.1188H33.0541V18.5609H37.7327Z" fill="#CE2524"/>
<path d="M37.7327 14.0066V18.561H33.0541V14.0066H37.7327Z" fill="#CE2524"/>
<path d="M37.7327 9.44177V14.0065H33.0541V9.44177H37.7327Z" fill="#CE2524"/>
<path d="M37.7327 4.88391V9.44177H33.0541V4.88391H37.7327Z" fill="#CE2524"/>
<mask id="mask12_26_167" style="mask-type:luminance" maskUnits="userSpaceOnUse" x="32" y="0" width="7" height="6">
<path d="M32.2341 0.312256H38.5952V5.57636H32.2341V0.312256Z" fill="white"/>
</mask>
<g mask="url(#mask12_26_167)">
<path d="M37.7327 0.322632V4.88394H33.0541V0.322632H37.7327Z" fill="#A61C22"/>
</g>
<path d="M33.0541 64.1533V68.7077H28.3862V64.1533H33.0541Z" fill="#A61C22"/>
<path d="M33.0541 59.5886V64.1534H28.3862V59.5886H33.0541Z" fill="#A61C22"/>
<path d="M33.0541 55.0342V59.5886H28.3862V55.0342H33.0541Z" fill="#CE2524"/>
<path d="M33.0541 50.4763V55.0342H28.3862V50.4763H33.0541Z" fill="#E2262E"/>
<path d="M33.0541 45.9116V50.4764H28.3862V45.9116H33.0541Z" fill="#CE2524"/>
<path d="M33.0541 41.3572V45.9116H28.3862V41.3572H33.0541Z" fill="#CE2524"/>
<path d="M33.0541 36.7924V41.3571H28.3862V36.7924H33.0541Z" fill="#CE2524"/>
<path d="M33.0541 32.238V36.7925H28.3862V32.238H33.0541Z" fill="#CE2524"/>
<path d="M33.0541 27.6802V32.238H28.3862V27.6802H33.0541Z" fill="#CE2524"/>
<path d="M33.0541 23.1188V27.6801H28.3862V23.1188H33.0541Z" fill="#CE2524"/>
<path d="M33.0541 18.5609V23.1188H28.3862V18.5609H33.0541Z" fill="#CE2524"/>
<path d="M33.0541 14.0066V18.561H28.3862V14.0066H33.0541Z" fill="#CE2524"/>
<path d="M33.0541 9.44177V14.0065H28.3862V9.44177H33.0541Z" fill="#CE2524"/>
<path d="M33.0541 4.88391V9.44177H28.3862V4.88391H33.0541Z" fill="#CE2524"/>
<mask id="mask13_26_167" style="mask-type:luminance" maskUnits="userSpaceOnUse" x="27" y="0" width="7" height="6">
<path d="M27.6905 0.312256H33.1429V5.57636H27.6905V0.312256Z" fill="white"/>
</mask>
<g mask="url(#mask13_26_167)">
<path d="M33.0541 0.322632V4.88394H28.3862V0.322632H33.0541Z" fill="#A61C22"/>
</g>
<path d="M28.3862 59.5886V64.1534H23.7148V59.5886H28.3862Z" fill="#A61C22"/>
<path d="M28.3862 55.0342V59.5886H23.7148V55.0342H28.3862Z" fill="#A61C22"/>
<path d="M28.3862 50.4763V55.0342H23.7148V50.4763H28.3862Z" fill="#CE2524"/>
<path d="M28.3862 45.9116V50.4764H23.7148V45.9116H28.3862Z" fill="#CE2524"/>
<path d="M28.3862 41.3572V45.9116H23.7148V41.3572H28.3862Z" fill="#CE2524"/>
<path d="M28.3862 36.7924V41.3571H23.7148V36.7924H28.3862Z" fill="#CE2524"/>
<path d="M28.3862 32.238V36.7925H23.7148V32.238H28.3862Z" fill="#CE2524"/>
<path d="M28.3862 27.6802V32.238H23.7148V27.6802H28.3862Z" fill="#CE2524"/>
<path d="M28.3862 23.1188V27.6801H23.7148V23.1188H28.3862Z" fill="#CE2524"/>
<path d="M28.3862 18.5609V23.1188H23.7148V18.5609H28.3862Z" fill="#CE2524"/>
<path d="M28.3862 14.0066V18.561H23.7148V14.0066H28.3862Z" fill="#CE2524"/>
<path d="M28.3862 9.44177V14.0065H23.7148V9.44177H28.3862Z" fill="#CE2524"/>
<path d="M28.3862 4.88391V9.44177H23.7148V4.88391H28.3862Z" fill="#CE2524"/>
<mask id="mask14_26_167" style="mask-type:luminance" maskUnits="userSpaceOnUse" x="23" y="0" width="6" height="6">
<path d="M23.1468 0.312256H28.5992V5.57636H23.1468V0.312256Z" fill="white"/>
</mask>
<g mask="url(#mask14_26_167)">
<path d="M28.3862 0.322632V4.88394H23.7148V0.322632H28.3862Z" fill="#A61C22"/>
</g>
<path d="M23.7148 55.0342V59.5886H19.0362V55.0342H23.7148Z" fill="#A61C22"/>
<path d="M23.7148 50.4763V55.0342H19.0362V50.4763H23.7148Z" fill="#A61C22"/>
<path d="M23.7148 45.9116V50.4764H19.0362V45.9116H23.7148Z" fill="#CE2524"/>
<path d="M23.7148 41.3572V45.9116H19.0362V41.3572H23.7148Z" fill="#CE2524"/>
<path d="M23.7148 36.7924V41.3571H19.0362V36.7924H23.7148Z" fill="#CE2524"/>
<path d="M23.7148 32.238V36.7925H19.0362V32.238H23.7148Z" fill="#CE2524"/>
<path d="M23.7148 27.6802V32.238H19.0362V27.6802H23.7148Z" fill="#CE2524"/>
<path d="M23.7148 23.1188V27.6801H19.0362V23.1188H23.7148Z" fill="#CE2524"/>
<path d="M23.7148 18.5609V23.1188H19.0362V18.5609H23.7148Z" fill="#CE2524"/>
<path d="M23.7148 14.0066V18.561H19.0362V14.0066H23.7148Z" fill="#CE2524"/>
<path d="M23.7148 9.44177V14.0065H19.0362V9.44177H23.7148Z" fill="#CE2524"/>
<path d="M23.7148 4.88391V9.44177H19.0362V4.88391H23.7148Z" fill="#CE2524"/>
<mask id="mask15_26_167" style="mask-type:luminance" maskUnits="userSpaceOnUse" x="18" y="0" width="7" height="6">
<path d="M18.6032 0.312256H24.0556V5.57636H18.6032V0.312256Z" fill="white"/>
</mask>
<g mask="url(#mask15_26_167)">
<path d="M23.7148 0.322632V4.88394H19.0362V0.322632H23.7148Z" fill="#A61C22"/>
</g>
<path d="M19.0362 50.4763V55.0342H14.3648V50.4763H19.0362Z" fill="#A61C22"/>
<path d="M19.0362 45.9116V50.4764H14.3648V45.9116H19.0362Z" fill="#A61C22"/>
<path d="M19.0362 41.3572V45.9116H14.3648V41.3572H19.0362Z" fill="#CE2524"/>
<path d="M19.0362 36.7924V41.3571H14.3648V36.7924H19.0362Z" fill="#CE2524"/>
<path d="M19.0362 32.238V36.7925H14.3648V32.238H19.0362Z" fill="#E93040"/>
<path d="M19.0362 27.6802V32.238H14.3648V27.6802H19.0362Z" fill="#CE2524"/>
<path d="M19.0362 23.1188V27.6801H14.3648V23.1188H19.0362Z" fill="#CE2524"/>
<path d="M19.0362 18.5609V23.1188H14.3648V18.5609H19.0362Z" fill="#CE2524"/>
<path d="M19.0362 14.0066V18.561H14.3648V14.0066H19.0362Z" fill="#CE2524"/>
<path d="M19.0362 9.44177V14.0065H14.3648V9.44177H19.0362Z" fill="#E93040"/>
<path d="M19.0362 4.88391V9.44177H14.3648V4.88391H19.0362Z" fill="#A61C22"/>
<mask id="mask16_26_167" style="mask-type:luminance" maskUnits="userSpaceOnUse" x="14" y="0" width="6" height="6">
<path d="M14.0595 0.312256H19.5119V5.57636H14.0595V0.312256Z" fill="white"/>
</mask>
<g mask="url(#mask16_26_167)">
<path d="M19.0362 0.322632V4.88394H14.3648V0.322632H19.0362Z" fill="#A61C22"/>
</g>
<path d="M14.3648 45.9116V50.4764H9.68625V45.9116H14.3648Z" fill="#A61C22"/>
<path d="M14.3648 41.3572V45.9116H9.68625V41.3572H14.3648Z" fill="#A61C22"/>
<path d="M14.3648 36.7924V41.3571H9.68625V36.7924H14.3648Z" fill="#CE2524"/>
<path d="M14.3648 32.238V36.7925H9.68625V32.238H14.3648Z" fill="#E93040"/>
<path d="M14.3648 27.6802V32.238H9.68625V27.6802H14.3648Z" fill="#E93040"/>
<path d="M14.3648 23.1188V27.6801H9.68625V23.1188H14.3648Z" fill="#E93040"/>
<path d="M14.3648 18.5609V23.1188H9.68625V18.5609H14.3648Z" fill="#E93040"/>
<path d="M14.3648 14.0066V18.561H9.68625V14.0066H14.3648Z" fill="#E93040"/>
<path d="M14.3648 9.44177V14.0065H9.68625V9.44177H14.3648Z" fill="#E93040"/>
<path d="M14.3648 4.88391V9.44177H9.68625V4.88391H14.3648Z" fill="#A61C22"/>
<path d="M9.68626 41.3572V45.9116H5.01837V41.3572H9.68626Z" fill="#A61C22"/>
<path d="M9.68626 36.7924V41.3571H5.01837V36.7924H9.68626Z" fill="#A61C22"/>
<path d="M9.68626 32.238V36.7925H5.01837V32.238H9.68626Z" fill="#A61C22"/>
<path d="M9.68626 27.6802V32.238H5.01837V27.6802H9.68626Z" fill="#CE2524"/>
<path d="M9.68626 23.1188V27.6801H5.01837V23.1188H9.68626Z" fill="#E93040"/>
<path d="M9.68626 18.5609V23.1188H5.01837V18.5609H9.68626Z" fill="#E93040"/>
<path d="M9.68626 14.0066V18.561H5.01837V14.0066H9.68626Z" fill="#A61C22"/>
<path d="M9.68626 9.44177V14.0065H5.01837V9.44177H9.68626Z" fill="#A61C22"/>
<path d="M9.68626 4.88391V9.44177H5.01837V4.88391H9.68626Z" fill="#A61C22"/>
<mask id="mask17_26_167" style="mask-type:luminance" maskUnits="userSpaceOnUse" x="0" y="32" width="6" height="6">
<path d="M0.329178 32.0347H5.88095V37.3263H0.329178V32.0347Z" fill="white"/>
</mask>
<g mask="url(#mask17_26_167)">
<path d="M5.01837 32.2379V36.7923H0.346924V32.2379H5.01837Z" fill="#A61C22"/>
</g>
<mask id="mask18_26_167" style="mask-type:luminance" maskUnits="userSpaceOnUse" x="0" y="27" width="6" height="6">
<path d="M0.329178 27.625H5.88095V32.9167H0.329178V27.625Z" fill="white"/>
</mask>
<g mask="url(#mask18_26_167)">
<path d="M5.01837 27.6802V32.238H0.346924V27.6802H5.01837Z" fill="#A61C22"/>
</g>
<mask id="mask19_26_167" style="mask-type:luminance" maskUnits="userSpaceOnUse" x="0" y="22" width="6" height="7">
<path d="M0.329178 22.3334H5.88095V28.507H0.329178V22.3334Z" fill="white"/>
</mask>
<g mask="url(#mask19_26_167)">
<path d="M5.01837 23.1189V27.6802H0.346924V23.1189H5.01837Z" fill="#A61C22"/>
</g>
<mask id="mask20_26_167" style="mask-type:luminance" maskUnits="userSpaceOnUse" x="0" y="17" width="6" height="7">
<path d="M0.329178 17.9236H5.88095V23.2153H0.329178V17.9236Z" fill="white"/>
</mask>
<g mask="url(#mask20_26_167)">
<path d="M5.01837 18.5609V23.1188H0.346924V18.5609H5.01837Z" fill="#A61C22"/>
</g>
<mask id="mask21_26_167" style="mask-type:luminance" maskUnits="userSpaceOnUse" x="0" y="13" width="6" height="6">
<path d="M0.329178 13.5139H5.88095V18.8056H0.329178V13.5139Z" fill="white"/>
</mask>
<g mask="url(#mask21_26_167)">
<path d="M5.01837 14.0066V18.561H0.346924V14.0066H5.01837Z" fill="#A61C22"/>
</g>
<path d="M34.9606 43.1693C34.9426 43.2141 34.9175 43.1693 34.9606 43.1693Z" fill="black"/>
<path d="M50.7069 26.3055C50.7176 26.3021 50.714 26.2952 50.7211 26.2883C50.6253 26.1746 50.5436 26.0713 50.4833 25.9955L50.7069 26.3055Z" fill="black"/>
<path d="M54.0401 24.359C54.0579 24.3659 54.0685 24.3659 54.0863 24.3728C54.0188 24.3108 53.9585 24.2453 54.0401 24.359Z" fill="black"/>
<path d="M30.658 48.4644C30.658 48.4644 30.6616 48.4541 30.6616 48.4472C30.6296 48.4334 30.6048 48.43 30.5658 48.4093L30.658 48.4644Z" fill="black"/>
<path d="M30.5977 48.2646C30.6651 48.3128 30.6616 48.4093 30.6616 48.4472C30.871 48.523 30.9491 48.4713 30.9456 48.3404C30.8071 48.2095 30.7113 48.2887 30.5977 48.2646Z" fill="black"/>
<path d="M30.5977 48.2646C30.5764 48.2508 30.5551 48.2405 30.5267 48.2371C30.5516 48.2508 30.5729 48.2612 30.5977 48.2646Z" fill="black"/>
<path d="M22.2775 57.518L22.2345 57.4285C22.2417 57.456 22.2596 57.487 22.2775 57.518Z" fill="black"/>
<path d="M23.839 56.3193L23.5905 56.0505C23.6864 56.1677 23.7645 56.2504 23.839 56.3193Z" fill="black"/>
<path d="M50.4833 25.9954L50.4016 25.8783C50.4158 25.9059 50.4478 25.9472 50.4833 25.9954Z" fill="black"/>
<path d="M56.6669 22.1301C56.7521 22.2059 56.8195 22.2645 56.8834 22.3093C56.8834 22.3058 56.887 22.3058 56.8905 22.3058L56.6669 22.1301Z" fill="black"/>
<path d="M73.2512 14.0892C73.2193 14.0582 73.1802 14.0272 73.1447 13.9962L73.2796 14.2236C73.2903 14.1823 73.2796 14.1375 73.2512 14.0892Z" fill="black"/>
<path d="M61.1822 19.9424C61.1573 19.9114 61.136 19.877 61.1041 19.8425C60.9585 19.815 60.7846 19.9459 60.6 20.1457L60.9124 20.4661L61.1822 19.9424Z" fill="black"/>
<mask id="mask22_26_167" style="mask-type:luminance" maskUnits="userSpaceOnUse" x="18" y="4" width="60" height="65">
<path d="M18.3334 4.89771H77.628V68.3977H18.3334V4.89771Z" fill="white"/>
</mask>
<g mask="url(#mask22_26_167)">
<path d="M77.3902 14.9333C77.3902 14.9333 75.0687 14.6852 74.1351 14.3235C74.6711 14.1237 74.1564 14.1547 73.8795 14.0272L74.0073 14.1995C73.6346 14.2684 73.2477 13.8963 73.0276 13.8997C73.0595 13.9307 73.1021 13.9618 73.1447 13.9962L73.1057 13.9342C73.1838 13.9893 73.2264 14.041 73.2512 14.0892C73.34 14.165 73.3932 14.2374 73.3116 14.2753L73.2796 14.2236C73.2441 14.3683 73.0276 14.4647 72.9282 14.5061L72.6016 14.196C73.0595 14.947 70.5605 14.3614 70.3191 14.5543C69.6908 14.3752 69.9287 15.1331 69.4459 15.202C68.9028 15.5293 68.7537 14.9643 68.2532 14.9092C67.774 14.9815 68.6863 15.2192 68.5975 15.3467L67.8166 15.233C67.9692 15.0091 67.6711 14.9229 67.5078 14.8368C67.1705 15.0607 66.1234 14.9264 66.6842 15.6326C65.9885 15.7119 65.7294 15.4638 65.5341 15.5913C65.7045 15.6533 65.9246 15.6464 66.0559 15.7739C65.6158 15.6464 66.0524 15.9117 66.1802 15.9117C66.2263 16.4112 63.777 15.9634 64.4408 16.6972L64.3095 16.5697C64.7851 17.1312 65.3886 17.5412 65.5164 17.9822L65.172 17.8616L65.2359 18.2406C64.952 18.182 64.8632 17.996 64.7993 17.9305C64.778 18.4266 64.1107 18.5127 63.7131 18.7608L65.5022 19.8115C64.8952 19.7598 63.7238 19.591 64.132 20.0906L63.4824 19.784C62.0057 19.4326 63.5001 20.5453 63.0032 20.4902L62.1974 20.2525L62.4814 19.9941C61.9382 20.0044 61.6543 19.9459 61.0899 19.8287C61.097 19.8322 61.097 19.8391 61.1041 19.8425C61.1396 19.8494 61.1751 19.8666 61.207 19.8942L61.1822 19.9424C61.4129 20.2284 61.4519 20.5419 61.2389 20.7141C60.8911 20.9105 61.065 21.4927 60.0675 21.3859L60.4971 22.0095L59.8475 22.0198L59.4144 21.6099C59.7658 21.3205 60.2095 20.5694 60.6 20.1457L60.4119 19.9493C60.1669 20.1905 60.0782 20.6452 59.8723 20.7624C59.7232 20.7555 59.1837 20.5694 58.9707 20.2249L59.1801 20.6556C58.4063 21.5031 58.424 21.5272 57.0787 21.8924L57.3697 22.0267C57.3271 22.3161 57.281 22.5986 56.8834 22.3092C56.2977 22.7433 55.4919 23.0017 54.6116 22.8053L55.0447 23.3634C54.9098 23.4427 53.9798 22.8639 54.6365 23.5977L54.6294 24.0387C54.4412 24.1455 54.64 24.5141 54.1785 24.4004C54.1785 24.3969 54.1785 24.3969 54.1785 24.3969C54.1501 24.3901 54.1182 24.3832 54.0862 24.3728C54.1004 24.3866 54.1146 24.3969 54.1288 24.4107C53.568 24.5244 54.5868 24.8448 53.9088 24.9378C53.426 24.7139 54.4164 25.6889 54.1146 25.7612L53.1988 25.2479C52.4392 25.179 53.1136 25.9335 52.6202 26.4158C52.1268 26.3985 51.392 25.9128 50.9944 25.2341C51.4488 26.0816 51.3317 25.744 51.3672 26.3296C51.0477 26.1092 51.0228 26.0265 50.8382 25.7268C50.2632 25.6647 50.9305 26.116 50.7211 26.2883C51.1826 26.8395 51.9422 27.6905 51.9138 27.7835L52.1481 27.8627C52.2226 28.3278 52.1303 28.6654 51.6334 28.6447L51.3814 28.3898L51.2642 28.7584L50.9163 28.4553L50.7602 28.7309C50.4194 28.6172 50.1248 28.4277 50.0183 27.9247C50.5649 26.9635 49.6278 26.4674 49.2657 25.9162C48.0588 25.2823 47.1962 24.9447 46.0497 24.2212C46.6212 22.6744 44.328 23.1326 44.3742 21.9682L43.7778 22.1886C44.0938 21.162 42.649 21.2929 42.7946 20.1216C42.468 20.1491 42.3402 20.1285 42.2941 20.1112C42.2976 20.156 42.2515 20.2697 41.9817 20.5281C42.0243 20.1905 41.467 20.0768 42.0491 19.6083L42.145 19.5979C42.7271 19.1328 41.4173 19.3327 41.7296 18.7229L41.2256 19.3499L41.0339 18.9537L41.2256 18.933C38.6307 18.7573 39.9583 16.4801 37.5552 16.2837C38.3681 15.8772 36.9801 16.3354 37.6759 15.6912C38.2758 14.5853 36.9269 15.2743 36.4406 15.2227C36.4086 15.2537 36.3625 15.2847 36.295 15.3191L35.9507 14.7886C37.1079 14.2684 34.8929 15.1159 35.8939 14.6921C35.4502 12.9076 33.299 11.9602 32.3122 10.3065L32.1383 10.5718C31.8543 10.1825 31.1621 9.99645 31.2828 9.40389C31.4035 8.81478 30.1469 9.34188 30.0155 9.27298C29.4085 9.3281 29.7884 8.55295 29.9268 8.51506C29.5008 8.33936 28.4608 8.72865 28.4075 8.00863C29.0358 7.18869 26.551 7.49186 27.3994 6.72016L27.3213 6.77873C27.41 5.69352 25.8872 6.07937 25.8766 5.00106C25.8766 5.00106 25.9511 4.95627 26.0257 4.92871L22.2736 6.01736L19.7178 8.89057L18.3689 11.9946L21.553 14.3958L22.7777 17.4689L28.2868 22.7192L29.3056 22.5435C29.192 24.6278 31.8082 24.8689 32.0992 26.7534L32.6814 26.2849C33.0257 26.5846 32.6565 26.8671 32.6352 27.0359C35.649 29.9918 39.3655 32.4964 41.2575 35.8726C41.2327 36 41.2575 36.1275 41.3108 36.2584C40.5085 35.9966 40.1642 36.7132 39.7205 36.9991C39.2519 38.074 39.0283 38.8457 38.4674 39.8654C36.9162 39.3177 37.6226 41.395 36.5009 41.3296L36.7778 41.8739C35.759 41.5673 36.0536 42.8695 34.9106 42.7145C34.9745 43.0074 34.971 43.1279 34.9603 43.1693C35.0029 43.1658 35.1165 43.2106 35.3934 43.4587C35.0668 43.4104 35.0207 43.9134 34.5059 43.3794L34.4847 43.2899C33.9699 42.7559 34.3143 43.941 33.6931 43.6481L34.3533 44.1167L33.9948 44.2786L33.9522 44.1063C34.0835 46.4421 31.7443 45.1984 31.8366 47.3585C31.3538 46.6213 31.9537 47.8822 31.2544 47.2379C30.122 46.6764 30.9385 47.9063 30.9456 48.3404C30.9811 48.3748 31.0166 48.4162 31.0556 48.4782L30.5871 48.7779C29.9516 47.7202 31.0237 49.7391 30.5019 48.8227C28.8406 49.1879 28.1803 51.1068 26.7107 51.9646L26.9841 52.1265C26.6433 52.3746 26.5439 52.9947 25.9653 52.8741C25.3832 52.7535 26.0363 53.8939 25.9831 54.0144C26.1073 54.5622 25.3193 54.2039 25.266 54.0764C25.1489 54.4588 25.6423 55.4063 24.9572 55.4373C24.0981 54.855 24.6768 57.1012 23.839 56.3192L23.9029 56.3915C22.8522 56.2882 23.3989 57.6697 22.3659 57.6559C22.3659 57.6559 22.3162 57.5904 22.2771 57.5181L23.7574 60.9287L26.8101 63.2921L29.9481 64.5737L31.8792 61.7521L34.687 60.7151L39.0851 55.8576L38.7976 54.9308C40.8103 55.079 40.7428 52.7225 42.5141 52.502L41.9959 51.9646C42.2444 51.6614 42.5603 51.9991 42.7236 52.0232C44.9847 49.6082 46.82 46.6592 49.4113 44.9159C51.9174 47.1552 54.5513 49.1568 56.3155 52.1437C56.8834 54.514 59.8617 55.234 60.7988 57.7041C60.5538 58.5241 64.4018 61.8038 64.9662 61.8934L65.2501 60.8736C66.8369 61.9588 66.7517 63.1887 68.3952 63.8674L68.1858 63.9329C68.1893 64.2395 69.8044 62.9958 69.6979 66.4995L69.6305 66.558C69.6979 66.6097 69.8151 66.5167 69.7902 66.7165L69.8896 66.0929C70.2446 66.1377 70.7274 66.0206 71.0149 66.2376C70.9936 66.3582 70.8694 66.4995 70.7664 66.6028L71.4764 67.1334L71.2208 67.7121C71.6396 67.6984 72.4809 66.7957 72.4525 67.7673C72.914 67.0059 73.0808 67.6846 73.3471 67.3332C73.2938 67.4296 73.2299 67.5916 73.1625 67.7362C73.5281 67.9774 74.2522 68.4012 74.7173 68.253C74.7173 68.253 74.9373 65.8621 75.3207 64.9319C75.5514 65.5176 75.5053 64.9802 75.6402 64.7046L75.4556 64.8148C75.3669 64.4186 75.7715 64.0603 75.7644 63.833C75.7289 63.8605 75.6934 63.8984 75.6579 63.9398L75.7289 63.9087C75.6686 63.9845 75.6118 64.019 75.5585 64.0397C75.4734 64.1189 75.3953 64.1671 75.3527 64.0776L75.4059 64.0534C75.2462 63.9949 75.1326 63.7537 75.0864 63.6469L75.4237 63.3472C74.5966 63.7227 75.1894 61.1906 74.9693 60.9115C75.1503 60.2776 74.3161 60.4258 74.2238 59.9124C73.8476 59.3027 74.4759 59.22 74.5256 58.7067C74.4333 58.1968 74.1919 59.1166 74.0464 59.0098L74.1529 58.2071C74.4049 58.3966 74.4936 58.0934 74.5859 57.9384C74.3268 57.5525 74.451 56.4777 73.6807 56.9703C73.5778 56.2331 73.8476 55.9954 73.6985 55.7714C73.6346 55.9437 73.6452 56.1711 73.5104 56.2916C73.6381 55.8472 73.3542 56.271 73.3577 56.4019C72.804 56.3847 73.2406 53.887 72.4454 54.4795L72.5803 54.3624C71.9662 54.7827 71.5261 55.358 71.0397 55.4338L71.1675 55.0893L70.7451 55.1031C70.8019 54.8137 71.0113 54.7517 71.0788 54.6897C70.525 54.6001 70.415 53.8904 70.131 53.4425L69.0057 55.172C69.0483 54.545 69.2081 53.3426 68.6614 53.7044L68.988 53.0636C69.343 51.5684 68.1432 52.9809 68.1893 52.4676L68.4342 51.658L68.7289 51.9887C68.704 51.4203 68.7644 51.1343 68.8815 50.559C68.8744 50.5624 68.8673 50.5659 68.8638 50.5693C68.8567 50.6072 68.8389 50.6417 68.8105 50.6727L68.7537 50.6417C68.4413 50.8415 68.0935 50.8381 67.8982 50.5969C67.6711 50.2042 67.0286 50.311 67.1244 49.2809L66.4393 49.6461L66.4109 48.9639L66.8582 48.5677C67.1883 48.9708 68.0331 49.5358 68.5159 50.0043L68.7289 49.8321C68.4555 49.5427 67.9479 49.3911 67.813 49.1603C67.813 49.0053 68.0083 48.4678 68.3845 48.2921L67.916 48.454C66.954 47.5308 66.9256 47.5445 66.4854 46.0873L66.3435 46.3732C66.0204 46.2905 65.7045 46.2044 66.0169 45.8289C65.5235 45.1571 65.2146 44.282 65.4134 43.3863L64.8029 43.7653C64.7106 43.6137 65.3318 42.718 64.5295 43.3071L64.0397 43.2382C63.9154 43.028 63.5143 43.1865 63.6315 42.7214C63.6315 42.718 63.6315 42.718 63.6315 42.718C63.6386 42.6904 63.6457 42.6594 63.6563 42.6249C63.6421 42.6422 63.6279 42.6525 63.6173 42.6663C63.4753 42.0668 63.1452 43.0866 63.0245 42.3666C63.2623 41.8911 62.2009 42.7972 62.1122 42.4699L62.6624 41.5811C62.7227 40.799 61.8956 41.3985 61.349 40.8232C61.3561 40.3064 61.8779 39.6036 62.6233 39.2832C61.6898 39.6415 62.0625 39.5657 61.4129 39.5244C61.6507 39.2212 61.7466 39.2005 62.0731 39.0489C62.1264 38.4564 61.6401 39.0937 61.4448 38.8526C60.8449 39.2625 59.9149 39.9412 59.812 39.8999L59.7268 40.1341C59.2156 40.1479 58.8358 40.0067 58.8464 39.4899L59.1269 39.2625L58.7115 39.0903L59.0381 38.7664L58.5376 38.4392L58.495 38.577C58.3566 38.5184 57.9342 38.3014 57.9377 37.9568L58.1365 37.7915C58.1649 37.5193 58.1045 37.3367 57.9909 37.2024C59.8226 35.0078 61.4342 32.7065 64.0681 31.1941C66.276 30.7325 66.6239 28.0625 68.8851 27.2667C69.6979 27.5044 72.3993 24.1041 72.4206 23.5942L71.4089 23.3186C72.2644 21.9096 73.4536 22.0095 73.9186 20.5453L74.0038 20.7348C74.2984 20.7383 72.914 19.2569 76.2898 19.4257L76.3572 19.4877C76.3963 19.4291 76.2933 19.3189 76.4886 19.3464L75.878 19.2431C75.8816 18.9261 75.7112 18.4852 75.8887 18.2302C76.0058 18.2543 76.1549 18.368 76.2649 18.4645L76.6945 17.834L77.2802 18.0786C77.2163 17.6997 76.2507 16.9211 77.1879 16.9659C76.4034 16.5352 77.0352 16.4009 76.6661 16.1528C76.7655 16.2045 76.9287 16.2631 77.0743 16.3251C77.266 16.0012 77.5854 15.357 77.3902 14.9333Z" fill="black"/>
</g>
<path d="M25.2657 54.0771C25.2689 54.0666 25.2721 54.056 25.2753 54.0454C25.2625 54.0525 25.2593 54.063 25.2657 54.0771Z" fill="black"/>
<path d="M58.9712 20.2249L58.9139 20.1044C58.9282 20.1457 58.9497 20.1871 58.9712 20.2249Z" fill="black"/>
<path d="M76.4886 19.3464L76.5525 19.3568C76.5276 19.3533 76.5063 19.3499 76.4886 19.3464Z" fill="black"/>
<path d="M76.2649 18.4645L76.2543 18.4783C76.4815 18.6919 76.414 18.5954 76.2649 18.4645Z" fill="black"/>
<path d="M63.6883 18.7745C63.6954 18.7711 63.706 18.7642 63.7131 18.7607L63.3191 18.5299L63.6883 18.7745Z" fill="black"/>
<path d="M67.6001 14.6025C67.348 14.7128 67.3942 14.7748 67.5078 14.8368C67.5894 14.7851 67.632 14.7093 67.6001 14.6025Z" fill="black"/>
<mask id="mask23_26_167" style="mask-type:luminance" maskUnits="userSpaceOnUse" x="76" y="16" width="2" height="2">
<path d="M76.7619 16.1597H77.628V17.0416H76.7619V16.1597Z" fill="white"/>
</mask>
<g mask="url(#mask23_26_167)">
<path d="M77.0743 16.3251C77.0033 16.4457 76.95 16.5283 76.95 16.5283C77.0565 16.5249 77.2305 16.5869 77.3405 16.5835C77.4541 16.5077 77.2837 16.4146 77.0743 16.3251Z" fill="black"/>
</g>
<path d="M73.8795 14.0272L73.7233 13.824C73.7127 13.9204 73.7837 13.9824 73.8795 14.0272Z" fill="black"/>
<path d="M42.2944 20.1112C42.2908 20.0664 42.2404 20.0871 42.2944 20.1112Z" fill="black"/>
<path d="M61.4235 38.8354C61.4306 38.8457 61.4377 38.8457 61.4448 38.8526C61.5691 38.7699 61.6791 38.6976 61.7643 38.6425L61.4235 38.8354Z" fill="black"/>
<path d="M63.6705 42.5801C63.6634 42.5973 63.6634 42.6111 63.6563 42.6249C63.7238 42.5663 63.7948 42.5112 63.6705 42.5801Z" fill="black"/>
<path d="M36.2986 14.9057C36.2986 14.9057 36.3093 14.9092 36.32 14.9092C36.3344 14.8782 36.3379 14.8541 36.3559 14.8162L36.2986 14.9057Z" fill="black"/>
<path d="M36.5222 14.8644C36.4689 14.9298 36.3625 14.9161 36.3199 14.9092C36.2382 15.1193 36.2986 15.2054 36.4405 15.2227C36.5896 15.0918 36.4938 14.985 36.5222 14.8644Z" fill="black"/>
<path d="M36.5222 14.8644C36.5327 14.8506 36.5431 14.8265 36.5466 14.799C36.5327 14.8231 36.5257 14.8437 36.5222 14.8644Z" fill="black"/>
<mask id="mask24_26_167" style="mask-type:luminance" maskUnits="userSpaceOnUse" x="25" y="4" width="2" height="2">
<path d="M25.873 4.89771H26.7817V5.57639H25.873V4.89771Z" fill="white"/>
</mask>
<g mask="url(#mask24_26_167)">
<path d="M26.0257 4.92871L26.1251 4.89771C26.0967 4.90115 26.0612 4.91149 26.0257 4.92871Z" fill="black"/>
</g>
<path d="M27.3994 6.72015L27.6905 6.49622C27.5627 6.58234 27.474 6.65469 27.3994 6.72015Z" fill="black"/>
<path d="M61.7643 38.6424L61.8956 38.5735C61.8601 38.5873 61.8176 38.6114 61.7643 38.6424Z" fill="black"/>
<path d="M66.2121 45.629C66.1305 45.7014 66.0701 45.7703 66.0169 45.8288C66.0204 45.8288 66.024 45.8357 66.024 45.8357L66.2121 45.629Z" fill="black"/>
<path d="M75.5586 64.0396C75.5905 64.0086 75.6224 63.9741 75.6579 63.9397L75.4059 64.0534C75.4521 64.0672 75.5053 64.0637 75.5586 64.0396Z" fill="black"/>
<path d="M68.7537 50.6417C68.7892 50.6142 68.8283 50.6004 68.8638 50.5694C68.8922 50.4213 68.7431 50.2249 68.5159 50.0044L68.1645 50.2869L68.7537 50.6417Z" fill="black"/>
<path d="M68.3846 48.2921L68.523 48.2439C68.4733 48.2542 68.4307 48.2715 68.3846 48.2921Z" fill="black"/>
<path d="M69.7901 66.7166L69.7796 66.7825C69.7831 66.7582 69.7866 66.7374 69.7901 66.7166Z" fill="black"/>
<path d="M29.9268 8.51512C29.941 8.51856 29.9517 8.52545 29.9623 8.53234C29.9552 8.51512 29.9446 8.51167 29.9268 8.51512Z" fill="black"/>
<path d="M70.7664 66.6028L70.7522 66.589C70.5179 66.7991 70.6244 66.7406 70.7664 66.6028Z" fill="black"/>
<path d="M70.1133 53.415C70.1204 53.4254 70.1239 53.4323 70.131 53.4426L70.3795 53.0602L70.1133 53.415Z" fill="black"/>
<path d="M74.8486 58.0659C74.7173 57.7834 74.6534 57.8248 74.5859 57.9384C74.6463 58.028 74.7279 58.0831 74.8486 58.0659Z" fill="black"/>
<path d="M72.882 67.9774C72.9708 68.1083 73.0702 67.9395 73.1625 67.7362C73.0276 67.6467 72.9353 67.5778 72.9353 67.5778C72.9388 67.6914 72.8785 67.8637 72.882 67.9774Z" fill="black"/>
<path d="M75.6402 64.7045L75.8638 64.5702C75.7538 64.546 75.6899 64.6081 75.6402 64.7045Z" fill="black"/>
</g>
<defs>
<clipPath id="clip0_26_167">
<rect width="99" height="87" fill="white"/>
</clipPath>
</defs>
</svg>
