<svg width="51" height="68" viewBox="0 0 51 68" fill="none" xmlns="http://www.w3.org/2000/svg">
<g clip-path="url(#clip0_26_1338)">
<mask id="mask0_26_1338" style="mask-type:luminance" maskUnits="userSpaceOnUse" x="31" y="0" width="20" height="68">
<path d="M31.5841 0.819336H50.8356V67.4756H31.5841V0.819336Z" fill="white"/>
</mask>
<g mask="url(#mask0_26_1338)">
<path d="M36.7933 0.819336H45.4367C45.7782 0.819336 46.1155 0.853624 46.4486 0.922201C46.7838 0.988633 47.1063 1.08935 47.4225 1.22222C47.7366 1.35295 48.036 1.51581 48.3185 1.70869C48.601 1.90156 48.8645 2.12014 49.1048 2.36445C49.3451 2.60875 49.5602 2.87448 49.7499 3.16379C49.9375 3.45095 50.0978 3.75526 50.2285 4.07457C50.3592 4.39388 50.4582 4.7239 50.5236 5.06464C50.5911 5.40324 50.6227 5.74612 50.6227 6.09115V62.3259C50.6227 62.6731 50.5911 63.016 50.5236 63.3546C50.4582 63.6953 50.3592 64.0232 50.2285 64.3446C50.0978 64.664 49.9375 64.9683 49.7499 65.2554C49.5602 65.5426 49.3451 65.8105 49.1048 66.0548C48.8645 66.2991 48.601 66.5177 48.3185 66.7105C48.036 66.9034 47.7366 67.0641 47.4225 67.197C47.1063 67.3299 46.7838 67.4306 46.4486 67.497C46.1155 67.5656 45.7782 67.5977 45.4367 67.5977H36.7933C36.4539 67.5977 36.1166 67.5656 35.7814 67.497C35.4483 67.4306 35.1237 67.3299 34.8096 67.197C34.4933 67.0641 34.1961 66.9034 33.9115 66.7105C33.629 66.5177 33.3676 66.2991 33.1273 66.0548C32.8848 65.8105 32.6698 65.5426 32.4822 65.2554C32.2924 64.9683 32.1322 64.664 32.0015 64.3446C31.8708 64.0232 31.7738 63.6953 31.7064 63.3546C31.641 63.016 31.6073 62.6731 31.6073 62.3259V6.09115C31.6073 5.74612 31.641 5.40324 31.7064 5.06464C31.7738 4.7239 31.8708 4.39388 32.0015 4.07457C32.1322 3.75526 32.2924 3.45095 32.4822 3.16379C32.6698 2.87448 32.8848 2.60875 33.1273 2.36445C33.3676 2.12014 33.629 1.90156 33.9115 1.70869C34.1961 1.51581 34.4933 1.35295 34.8096 1.22222C35.1237 1.08935 35.4483 0.988633 35.7814 0.922201C36.1166 0.853624 36.4539 0.819336 36.7933 0.819336Z" fill="white"/>
</g>
<mask id="mask1_26_1338" style="mask-type:luminance" maskUnits="userSpaceOnUse" x="0" y="0" width="20" height="68">
<path d="M0.282471 0.819336H19.711V67.4756H0.282471V0.819336Z" fill="white"/>
</mask>
<g mask="url(#mask1_26_1338)">
<path d="M5.67716 0.819336H14.3205C14.6599 0.819336 14.9972 0.853624 15.3324 0.922201C15.6655 0.988633 15.9902 1.08935 16.3043 1.22222C16.6184 1.35295 16.9177 1.51581 17.2023 1.70869C17.4848 1.90156 17.7462 2.12014 17.9866 2.36445C18.229 2.60875 18.444 2.87448 18.6317 3.16379C18.8214 3.45095 18.9816 3.75526 19.1123 4.07457C19.2409 4.39388 19.34 4.7239 19.4074 5.06464C19.4728 5.40324 19.5065 5.74612 19.5065 6.09115V62.3259C19.5065 62.6731 19.4728 63.016 19.4074 63.3546C19.34 63.6953 19.2409 64.0232 19.1123 64.3446C18.9816 64.664 18.8214 64.9683 18.6317 65.2554C18.4419 65.5426 18.229 65.8105 17.9866 66.0548C17.7462 66.2991 17.4848 66.5177 17.2023 66.7105C16.9177 66.9034 16.6184 67.0641 16.3043 67.197C15.9902 67.3299 15.6655 67.4306 15.3324 67.497C14.9972 67.5656 14.6599 67.5977 14.3205 67.5977H5.67716C5.33564 67.5977 4.99834 67.5656 4.66526 67.497C4.33006 67.4306 4.00541 67.3299 3.6913 67.197C3.37719 67.0641 3.07783 66.9034 2.79534 66.7105C2.51285 66.5177 2.24933 66.2991 2.00901 66.0548C1.76868 65.8105 1.55365 65.5426 1.36392 65.2554C1.17419 64.9683 1.01608 64.664 0.885371 64.3446C0.754667 64.0232 0.655585 63.6953 0.590232 63.3546C0.522772 63.016 0.49115 62.6731 0.49115 62.3259V6.09115C0.49115 5.74612 0.522772 5.40324 0.590232 5.06464C0.655585 4.7239 0.754667 4.39388 0.885371 4.07457C1.01608 3.75526 1.17419 3.45095 1.36392 3.16379C1.55365 2.87448 1.76868 2.60875 2.00901 2.36445C2.24933 2.12014 2.51285 1.90156 2.79534 1.70869C3.07783 1.51581 3.37719 1.35295 3.6913 1.22222C4.00541 1.08935 4.33006 0.988633 4.66526 0.922201C4.99834 0.853624 5.33564 0.819336 5.67716 0.819336Z" fill="white"/>
</g>
</g>
<defs>
<clipPath id="clip0_26_1338">
<rect width="51" height="68" fill="white"/>
</clipPath>
</defs>
</svg>
