<svg xmlns="http://www.w3.org/2000/svg" xmlns:xlink="http://www.w3.org/1999/xlink" width="336" zoomAndPan="magnify" viewBox="0 0 252 143.999998" height="192" preserveAspectRatio="xMidYMid meet" version="1.0"><defs><clipPath id="79d2f27a70"><path d="M 142 14.398438 L 177.671875 14.398438 L 177.671875 135.898438 L 142 135.898438 Z M 142 14.398438 " clip-rule="nonzero"/></clipPath><clipPath id="5fd70c459b"><path d="M 84 14.398438 L 120 14.398438 L 120 135.898438 L 84 135.898438 Z M 84 14.398438 " clip-rule="nonzero"/></clipPath></defs><g clip-path="url(#79d2f27a70)"><path fill="#ffffff" d="M 151.652344 14.398438 L 167.667969 14.398438 C 168.300781 14.398438 168.925781 14.460938 169.542969 14.585938 C 170.164062 14.707031 170.761719 14.890625 171.347656 15.132812 C 171.929688 15.371094 172.484375 15.667969 173.007812 16.019531 C 173.53125 16.371094 174.019531 16.769531 174.464844 17.214844 C 174.910156 17.660156 175.308594 18.144531 175.660156 18.671875 C 176.007812 19.195312 176.304688 19.75 176.546875 20.332031 C 176.789062 20.914062 176.972656 21.515625 177.09375 22.136719 C 177.21875 22.753906 177.277344 23.378906 177.277344 24.007812 L 177.277344 126.511719 C 177.277344 127.144531 177.21875 127.769531 177.09375 128.386719 C 176.972656 129.007812 176.789062 129.605469 176.546875 130.191406 C 176.304688 130.773438 176.007812 131.328125 175.660156 131.851562 C 175.308594 132.375 174.910156 132.863281 174.464844 133.308594 C 174.019531 133.753906 173.53125 134.152344 173.007812 134.503906 C 172.484375 134.855469 171.929688 135.148438 171.347656 135.390625 C 170.761719 135.632812 170.164062 135.816406 169.542969 135.9375 C 168.925781 136.0625 168.300781 136.121094 167.667969 136.121094 L 151.652344 136.121094 C 151.023438 136.121094 150.398438 136.0625 149.777344 135.9375 C 149.160156 135.816406 148.558594 135.632812 147.976562 135.390625 C 147.390625 135.148438 146.839844 134.855469 146.3125 134.503906 C 145.789062 134.152344 145.304688 133.753906 144.859375 133.308594 C 144.410156 132.863281 144.011719 132.375 143.664062 131.851562 C 143.3125 131.328125 143.015625 130.773438 142.773438 130.191406 C 142.53125 129.605469 142.351562 129.007812 142.226562 128.386719 C 142.105469 127.769531 142.042969 127.144531 142.042969 126.511719 L 142.042969 24.007812 C 142.042969 23.378906 142.105469 22.753906 142.226562 22.136719 C 142.351562 21.515625 142.53125 20.914062 142.773438 20.332031 C 143.015625 19.75 143.3125 19.195312 143.664062 18.671875 C 144.011719 18.144531 144.410156 17.660156 144.859375 17.214844 C 145.304688 16.769531 145.789062 16.371094 146.3125 16.019531 C 146.839844 15.667969 147.390625 15.371094 147.976562 15.132812 C 148.558594 14.890625 149.160156 14.707031 149.777344 14.585938 C 150.398438 14.460938 151.023438 14.398438 151.652344 14.398438 Z M 151.652344 14.398438 " fill-opacity="1" fill-rule="nonzero"/></g><g clip-path="url(#5fd70c459b)"><path fill="#ffffff" d="M 93.996094 14.398438 L 110.011719 14.398438 C 110.640625 14.398438 111.265625 14.460938 111.886719 14.585938 C 112.503906 14.707031 113.105469 14.890625 113.6875 15.132812 C 114.269531 15.371094 114.824219 15.667969 115.351562 16.019531 C 115.875 16.371094 116.359375 16.769531 116.804688 17.214844 C 117.253906 17.660156 117.652344 18.144531 118 18.671875 C 118.351562 19.195312 118.648438 19.75 118.890625 20.332031 C 119.128906 20.914062 119.3125 21.515625 119.4375 22.136719 C 119.558594 22.753906 119.621094 23.378906 119.621094 24.007812 L 119.621094 126.511719 C 119.621094 127.144531 119.558594 127.769531 119.4375 128.386719 C 119.3125 129.007812 119.128906 129.605469 118.890625 130.191406 C 118.648438 130.773438 118.351562 131.328125 118 131.851562 C 117.648438 132.375 117.253906 132.863281 116.804688 133.308594 C 116.359375 133.753906 115.875 134.152344 115.351562 134.503906 C 114.824219 134.855469 114.269531 135.148438 113.6875 135.390625 C 113.105469 135.632812 112.503906 135.816406 111.886719 135.9375 C 111.265625 136.0625 110.640625 136.121094 110.011719 136.121094 L 93.996094 136.121094 C 93.363281 136.121094 92.738281 136.0625 92.121094 135.9375 C 91.5 135.816406 90.898438 135.632812 90.316406 135.390625 C 89.734375 135.148438 89.179688 134.855469 88.65625 134.503906 C 88.132812 134.152344 87.644531 133.753906 87.199219 133.308594 C 86.753906 132.863281 86.355469 132.375 86.003906 131.851562 C 85.652344 131.328125 85.359375 130.773438 85.117188 130.191406 C 84.875 129.605469 84.691406 129.007812 84.570312 128.386719 C 84.445312 127.769531 84.386719 127.144531 84.386719 126.511719 L 84.386719 24.007812 C 84.386719 23.378906 84.445312 22.753906 84.570312 22.136719 C 84.691406 21.515625 84.875 20.914062 85.117188 20.332031 C 85.359375 19.75 85.652344 19.195312 86.003906 18.671875 C 86.355469 18.144531 86.753906 17.660156 87.199219 17.214844 C 87.644531 16.769531 88.132812 16.371094 88.65625 16.019531 C 89.179688 15.667969 89.734375 15.371094 90.316406 15.132812 C 90.898438 14.890625 91.5 14.707031 92.121094 14.585938 C 92.738281 14.460938 93.363281 14.398438 93.996094 14.398438 Z M 93.996094 14.398438 " fill-opacity="1" fill-rule="nonzero"/></g></svg>