<svg width="258" height="222" viewBox="0 0 258 222" fill="none" xmlns="http://www.w3.org/2000/svg">
<mask id="mask0_26_8808" style="mask-type:luminance" maskUnits="userSpaceOnUse" x="25" y="29" width="213" height="167">
<path d="M56.4096 29.0938L237.489 75.7754L206.692 195.239L25.6122 148.558L56.4096 29.0938Z" fill="white"/>
</mask>
<g mask="url(#mask0_26_8808)">
<path d="M222.39 85.5876C221.756 84.5206 220.374 84.1644 219.303 84.7919L201.382 95.3666C200.31 95.9992 199.954 97.3811 200.587 98.4532C201.221 99.5202 202.603 99.8765 203.668 99.2476L221.595 88.6692C222.661 88.0403 223.017 86.6584 222.39 85.5876ZM196.806 66.1965C195.606 65.887 194.376 66.6082 194.065 67.8136L188.871 87.9621C188.561 89.1675 189.287 90.3981 190.487 90.7076C191.692 91.0183 192.923 90.2921 193.234 89.0868L198.428 68.9382C198.739 67.7328 198.011 66.5072 196.806 66.1965ZM175.569 147.344C176.774 147.655 178 146.928 178.309 145.727L183.505 125.574C183.814 124.373 183.093 123.144 181.888 122.833C180.688 122.524 179.457 123.25 179.147 124.45L173.952 144.604C173.642 145.804 174.369 147.035 175.569 147.344ZM207.372 142.968C208.444 142.335 208.799 140.958 208.166 139.886L197.591 121.965C196.959 120.893 195.577 120.537 194.505 121.17C193.438 121.804 193.083 123.181 193.71 124.251L204.29 142.173C204.918 143.244 206.299 143.6 207.372 142.968ZM226.761 117.389C227.072 116.183 226.35 114.959 225.144 114.648L204.996 109.454C203.79 109.143 202.561 109.865 202.25 111.07C201.94 112.275 202.667 113.501 203.872 113.812L224.021 119.006C225.226 119.317 226.451 118.594 226.761 117.389ZM93.1166 166.24C45.5418 153.975 29.2504 133.193 31.5687 124.201L43.4692 78.038C45.4052 70.5284 53.1045 67.7854 62.0998 65.2313L121.473 48.7122C127.898 46.9263 134.556 50.6865 136.342 57.1118L136.572 57.951C138.359 64.3713 134.599 71.0288 128.179 72.816L115.322 76.3915C115.189 76.4272 115.186 76.6255 115.327 76.6619L189.834 95.8695C196.012 97.4622 199.733 103.768 198.14 109.946C196.546 116.129 190.241 119.85 184.063 118.257L123.36 102.608C123.007 102.517 122.651 102.727 122.56 103.08C122.471 103.428 122.68 103.783 123.033 103.874L146.324 109.878C152.507 111.472 156.228 117.778 154.634 123.961C153.041 130.139 146.736 133.86 140.552 132.266L117.222 126.252C116.894 126.167 116.558 126.366 116.473 126.693C116.388 127.021 116.588 127.352 116.916 127.437L135.632 132.262C141.815 133.856 145.531 140.16 143.937 146.343C142.344 152.522 136.044 156.244 129.861 154.65L111.145 149.825C110.817 149.74 110.48 149.939 110.396 150.266C110.311 150.594 110.51 150.93 110.838 151.015L125.211 154.72C130.326 156.039 133.426 161.162 132.135 166.171L132.023 166.604C130.733 171.607 125.541 174.599 120.427 173.28L93.1166 166.24Z" fill="white"/>
</g>
</svg>
