<svg width="101" height="87" viewBox="0 0 101 87" fill="none" xmlns="http://www.w3.org/2000/svg">
<g clip-path="url(#clip0_24_3579)">
<path d="M76.8286 20.5083C75.3554 18.4853 72.4934 17.957 70.3782 19.4466C68.373 20.9387 67.8384 23.8146 69.3167 25.9459C72.9205 30.9505 74.8208 36.9163 74.8208 43.2069C74.8208 49.4897 72.9205 55.4555 69.3167 60.4705C67.8384 62.4934 68.2655 65.4751 70.3782 66.9672C71.2273 67.6063 72.1711 67.8228 73.0202 67.8228C74.4014 67.8228 75.8823 67.1837 76.7212 65.8977C81.4835 59.2928 84.0259 51.4122 84.0259 43.2069C84.1231 35.0042 81.591 27.2215 76.8286 20.5083Z" fill="white"/>
<path d="M88.5657 8.36789C86.9774 6.33718 84.1231 6.02278 82.1153 7.62055C80.1101 9.21316 79.7981 12.0969 81.3762 14.1198C88.0389 22.4308 91.525 32.4426 91.525 43.0987C91.525 53.7573 88.0389 63.7691 81.3762 72.0801C79.7981 74.103 80.1101 76.9867 82.1153 78.5794C82.9645 79.2159 84.0157 79.6488 84.9697 79.6488C86.3534 79.6488 87.6194 79.0097 88.5657 77.9403C96.3948 68.1372 100.73 55.7803 100.73 43.0987C100.73 30.4196 96.3948 18.2715 88.5657 8.36789Z" fill="white"/>
<mask id="mask0_24_3579" style="mask-type:luminance" maskUnits="userSpaceOnUse" x="0" y="0" width="60" height="87">
<path d="M0.267456 0.144531H59.6308V86.2383H0.267456V0.144531Z" fill="white"/>
</mask>
<g mask="url(#mask0_24_3579)">
<path d="M57.375 0.477208C56.2061 -0.0536623 54.9401 0.0545737 53.8786 0.801915L22.1559 24.9823H3.54894C1.74834 24.9823 0.267456 26.4744 0.267456 28.2912V58.1256C0.267456 59.9321 1.74834 61.4242 3.54894 61.4242H22.1559L53.9861 85.6149C54.5206 86.0375 55.2623 86.254 55.9938 86.254C56.5284 86.254 56.9478 86.1458 57.4747 85.9293C58.641 85.3984 59.2753 84.231 59.2753 82.9554V3.46142C59.2753 2.18579 58.5362 1.00808 57.375 0.477208Z" fill="white"/>
</g>
</g>
<defs>
<clipPath id="clip0_24_3579">
<rect width="101" height="87" fill="white"/>
</clipPath>
</defs>
</svg>
