<svg width="93" height="88" viewBox="0 0 93 88" fill="none" xmlns="http://www.w3.org/2000/svg">
<g clip-path="url(#clip0_24_3063)">
<mask id="mask0_24_3063" style="mask-type:luminance" maskUnits="userSpaceOnUse" x="0" y="0" width="61" height="88">
<path d="M0.446167 0.43219H60.4722V87.578H0.446167V0.43219Z" fill="white"/>
</mask>
<g mask="url(#mask0_24_3063)">
<path d="M58.0227 1.08243C56.9159 0.554599 55.5894 0.648946 54.5857 1.33742L19.1663 25.5488H3.74478C1.92186 25.5488 0.446167 26.936 0.446167 28.6495V59.6565C0.446167 61.37 1.92186 62.7572 3.74478 62.7572H19.1663L54.5857 86.9686C55.1581 87.3638 55.8417 87.5627 56.5226 87.5627C57.0352 87.5627 57.5479 87.4505 58.0227 87.2236C59.1267 86.6983 59.8212 85.6273 59.8212 84.462V3.84399C59.8212 2.67868 59.1267 1.60771 58.0227 1.08243Z" fill="white"/>
</g>
<path d="M91.8416 32.658C90.553 31.4468 88.467 31.4468 87.1785 32.658L79.6155 39.7671L72.0499 32.658C70.7614 31.4468 68.6753 31.4468 67.3868 32.658C66.0983 33.8692 66.0983 35.8326 67.3868 37.0438L74.9497 44.153L67.3868 51.2621C66.0983 52.4734 66.0983 54.4368 67.3868 55.648C68.0297 56.2523 68.8733 56.5558 69.717 56.5558C70.5633 56.5558 71.407 56.2523 72.0499 55.648L79.6155 48.5388L87.1785 55.648C87.8214 56.2523 88.665 56.5558 89.5114 56.5558C90.355 56.5558 91.1987 56.2523 91.8416 55.648C93.1301 54.4368 93.1301 52.4734 91.8416 51.2621L84.2786 44.153L91.8416 37.0438C93.1301 35.8326 93.1301 33.8692 91.8416 32.658Z" fill="white"/>
</g>
<defs>
<clipPath id="clip0_24_3063">
<rect width="93" height="88" fill="white"/>
</clipPath>
</defs>
</svg>
