<svg xmlns="http://www.w3.org/2000/svg" xmlns:xlink="http://www.w3.org/1999/xlink" width="336" zoomAndPan="magnify" viewBox="0 0 252 143.999998" height="192" preserveAspectRatio="xMidYMid meet" version="1.0"><defs><clipPath id="be116d2a05"><path d="M 83.144531 93 L 179.894531 93 L 179.894531 121 L 83.144531 121 Z M 83.144531 93 " clip-rule="nonzero"/></clipPath><clipPath id="804fede6e1"><path d="M 83.144531 93 L 179.894531 93 L 179.894531 121.164062 L 83.144531 121.164062 Z M 83.144531 93 " clip-rule="nonzero"/></clipPath><clipPath id="f96a1f0bf9"><path d="M 83.144531 77 L 179.894531 77 L 179.894531 110 L 83.144531 110 Z M 83.144531 77 " clip-rule="nonzero"/></clipPath><clipPath id="1316c70491"><path d="M 94 10.164062 L 169 10.164062 L 169 93 L 94 93 Z M 94 10.164062 " clip-rule="nonzero"/></clipPath><clipPath id="62667a9ad0"><path d="M 100 10.164062 L 169 10.164062 L 169 91 L 100 91 Z M 100 10.164062 " clip-rule="nonzero"/></clipPath><clipPath id="1dcdfe6e38"><path d="M 94 10.164062 L 169 10.164062 L 169 93 L 94 93 Z M 94 10.164062 " clip-rule="nonzero"/></clipPath></defs><g clip-path="url(#be116d2a05)"><path fill="#773ca8" d="M 179.40625 93.628906 C 179.523438 108.648438 157.960938 120.722656 131.503906 120.722656 C 105.050781 120.722656 83.605469 108.589844 83.605469 93.628906 C 83.605469 102.363281 105.050781 109.449219 131.503906 109.449219 C 157.960938 109.449219 179.472656 102.363281 179.40625 93.628906 Z M 179.40625 93.628906 " fill-opacity="1" fill-rule="nonzero"/></g><g clip-path="url(#804fede6e1)"><path fill="#582285" d="M 131.503906 121.164062 C 104.851562 121.164062 83.167969 108.808594 83.167969 93.628906 C 83.167969 93.386719 83.363281 93.1875 83.605469 93.1875 C 83.851562 93.1875 84.046875 93.386719 84.046875 93.628906 C 84.046875 97.589844 89.050781 101.515625 97.773438 104.398438 C 106.777344 107.371094 118.757812 109.007812 131.503906 109.007812 C 152.175781 109.007812 170.351562 104.691406 176.730469 98.265625 C 178.226562 96.757812 178.976562 95.199219 178.964844 93.632812 C 178.964844 93.628906 178.964844 93.632812 178.964844 93.632812 C 178.964844 93.386719 179.160156 93.191406 179.402344 93.1875 L 179.40625 93.1875 C 179.648438 93.1875 179.84375 93.382812 179.84375 93.625 C 179.882812 98.402344 177.742188 103.101562 173.660156 107.214844 C 165.117188 115.816406 148.964844 121.164062 131.503906 121.164062 Z M 84.566406 97.582031 C 87.980469 110.410156 107.730469 120.285156 131.503906 120.285156 C 148.738281 120.285156 164.652344 115.039062 173.035156 106.59375 C 175.804688 103.804688 177.644531 100.742188 178.46875 97.582031 C 178.152344 98.023438 177.78125 98.457031 177.355469 98.882812 C 170.820312 105.464844 152.394531 109.886719 131.503906 109.886719 C 118.664062 109.886719 106.589844 108.234375 97.5 105.230469 C 91.082031 103.113281 86.667969 100.476562 84.566406 97.582031 Z M 84.566406 97.582031 " fill-opacity="1" fill-rule="nonzero"/></g><g clip-path="url(#f96a1f0bf9)"><path fill="#a06acc" d="M 179.40625 93.628906 C 179.40625 102.363281 157.960938 109.449219 131.503906 109.449219 C 105.050781 109.449219 83.605469 102.363281 83.605469 93.628906 C 83.605469 84.890625 105.050781 77.808594 131.503906 77.808594 C 157.960938 77.808594 179.40625 84.890625 179.40625 93.628906 Z M 179.40625 93.628906 " fill-opacity="1" fill-rule="nonzero"/><path fill="#582285" d="M 131.503906 109.886719 C 118.664062 109.886719 106.585938 108.234375 97.496094 105.230469 C 88.257812 102.179688 83.167969 98.058594 83.167969 93.628906 C 83.167969 89.199219 88.257812 85.078125 97.496094 82.023438 C 106.585938 79.019531 118.664062 77.367188 131.503906 77.367188 C 144.34375 77.367188 156.425781 79.019531 165.515625 82.023438 C 174.757812 85.078125 179.84375 89.195312 179.84375 93.628906 C 179.84375 98.058594 174.753906 102.179688 165.515625 105.230469 C 156.425781 108.234375 144.34375 109.886719 131.503906 109.886719 Z M 131.503906 78.246094 C 118.757812 78.246094 106.777344 79.882812 97.773438 82.859375 C 89.050781 85.738281 84.046875 89.664062 84.046875 93.628906 C 84.046875 97.589844 89.050781 101.515625 97.773438 104.398438 C 106.777344 107.371094 118.757812 109.007812 131.503906 109.007812 C 144.253906 109.007812 156.234375 107.371094 165.238281 104.398438 C 173.960938 101.515625 178.964844 97.589844 178.964844 93.628906 C 178.964844 89.664062 173.960938 85.738281 165.238281 82.859375 C 156.234375 79.882812 144.253906 78.246094 131.503906 78.246094 Z M 131.503906 78.246094 " fill-opacity="1" fill-rule="nonzero"/></g><path fill="#cacff7" d="M 156.742188 93.015625 L 154.523438 88.996094 L 108.488281 88.996094 L 106.269531 93.015625 C 106.082031 93.1875 105.984375 93.359375 105.984375 93.535156 C 105.984375 95.449219 117.410156 98.050781 131.507812 98.050781 C 145.601562 98.050781 157.027344 95.449219 157.027344 93.535156 C 157.027344 93.359375 156.929688 93.1875 156.742188 93.015625 Z M 156.742188 93.015625 " fill-opacity="1" fill-rule="nonzero"/><path fill="#582285" d="M 131.507812 98.488281 C 118.160156 98.488281 105.542969 96.082031 105.542969 93.535156 C 105.542969 93.253906 105.667969 92.988281 105.917969 92.742188 L 108.105469 88.78125 C 108.179688 88.640625 108.328125 88.554688 108.488281 88.554688 L 154.523438 88.554688 C 154.683594 88.554688 154.832031 88.640625 154.910156 88.78125 L 157.09375 92.742188 C 157.34375 92.988281 157.46875 93.253906 157.46875 93.535156 C 157.46875 96.082031 144.851562 98.488281 131.507812 98.488281 Z M 108.746094 89.433594 L 106.65625 93.230469 C 106.632812 93.269531 106.601562 93.308594 106.5625 93.34375 C 106.453125 93.445312 106.421875 93.511719 106.421875 93.535156 C 106.421875 94.710938 116.417969 97.613281 131.507812 97.613281 C 146.59375 97.613281 156.589844 94.710938 156.589844 93.535156 C 156.589844 93.511719 156.558594 93.445312 156.449219 93.34375 C 156.410156 93.308594 156.382812 93.269531 156.359375 93.230469 L 154.265625 89.433594 Z M 108.746094 89.433594 " fill-opacity="1" fill-rule="nonzero"/><path fill="#8f97d9" d="M 132.8125 95.375 C 132.8125 96.09375 132.226562 96.679688 131.507812 96.679688 C 130.785156 96.679688 130.199219 96.09375 130.199219 95.375 C 130.199219 94.652344 130.785156 94.070312 131.507812 94.070312 C 132.226562 94.070312 132.8125 94.652344 132.8125 95.375 Z M 132.8125 95.375 " fill-opacity="1" fill-rule="nonzero"/><path fill="#626bb5" d="M 131.507812 97.117188 C 130.542969 97.117188 129.761719 96.335938 129.761719 95.375 C 129.761719 94.414062 130.542969 93.628906 131.507812 93.628906 C 132.46875 93.628906 133.25 94.414062 133.25 95.375 C 133.25 96.335938 132.46875 97.117188 131.507812 97.117188 Z M 131.507812 94.507812 C 131.027344 94.507812 130.640625 94.898438 130.640625 95.375 C 130.640625 95.851562 131.027344 96.238281 131.507812 96.238281 C 131.984375 96.238281 132.371094 95.851562 132.371094 95.375 C 132.371094 94.898438 131.984375 94.507812 131.507812 94.507812 Z M 131.507812 94.507812 " fill-opacity="1" fill-rule="nonzero"/><path fill="#8f97d9" d="M 121.914062 94.828125 C 121.914062 95.546875 121.328125 96.132812 120.609375 96.132812 C 119.886719 96.132812 119.304688 95.546875 119.304688 94.828125 C 119.304688 94.105469 119.886719 93.523438 120.609375 93.523438 C 121.328125 93.523438 121.914062 94.105469 121.914062 94.828125 Z M 121.914062 94.828125 " fill-opacity="1" fill-rule="nonzero"/><path fill="#626bb5" d="M 120.609375 96.570312 C 119.644531 96.570312 118.863281 95.789062 118.863281 94.828125 C 118.863281 93.867188 119.644531 93.082031 120.609375 93.082031 C 121.570312 93.082031 122.355469 93.867188 122.355469 94.828125 C 122.355469 95.789062 121.570312 96.570312 120.609375 96.570312 Z M 120.609375 93.960938 C 120.132812 93.960938 119.742188 94.351562 119.742188 94.828125 C 119.742188 95.304688 120.132812 95.691406 120.609375 95.691406 C 121.085938 95.691406 121.476562 95.304688 121.476562 94.828125 C 121.476562 94.351562 121.085938 93.960938 120.609375 93.960938 Z M 120.609375 93.960938 " fill-opacity="1" fill-rule="nonzero"/><path fill="#8f97d9" d="M 112.789062 93.378906 C 112.789062 94.097656 112.207031 94.683594 111.484375 94.683594 C 110.761719 94.683594 110.179688 94.097656 110.179688 93.378906 C 110.179688 92.65625 110.761719 92.070312 111.484375 92.070312 C 112.207031 92.070312 112.789062 92.65625 112.789062 93.378906 Z M 112.789062 93.378906 " fill-opacity="1" fill-rule="nonzero"/><path fill="#626bb5" d="M 111.484375 95.121094 C 110.519531 95.121094 109.738281 94.339844 109.738281 93.378906 C 109.738281 92.414062 110.523438 91.632812 111.484375 91.632812 C 112.445312 91.632812 113.230469 92.414062 113.230469 93.378906 C 113.230469 94.339844 112.445312 95.121094 111.484375 95.121094 Z M 111.484375 92.511719 C 111.007812 92.511719 110.617188 92.898438 110.617188 93.378906 C 110.617188 93.855469 111.007812 94.242188 111.484375 94.242188 C 111.960938 94.242188 112.351562 93.855469 112.351562 93.378906 C 112.351562 92.898438 111.960938 92.511719 111.484375 92.511719 Z M 111.484375 92.511719 " fill-opacity="1" fill-rule="nonzero"/><path fill="#8f97d9" d="M 141.097656 94.828125 C 141.097656 95.546875 141.683594 96.132812 142.402344 96.132812 C 143.125 96.132812 143.710938 95.546875 143.710938 94.828125 C 143.710938 94.105469 143.125 93.523438 142.402344 93.523438 C 141.683594 93.523438 141.097656 94.105469 141.097656 94.828125 Z M 141.097656 94.828125 " fill-opacity="1" fill-rule="nonzero"/><path fill="#626bb5" d="M 142.402344 96.570312 C 141.441406 96.570312 140.660156 95.789062 140.660156 94.828125 C 140.660156 93.867188 141.441406 93.082031 142.402344 93.082031 C 143.367188 93.082031 144.148438 93.867188 144.148438 94.828125 C 144.148438 95.789062 143.367188 96.570312 142.402344 96.570312 Z M 142.402344 93.960938 C 141.925781 93.960938 141.539062 94.351562 141.539062 94.828125 C 141.539062 95.304688 141.925781 95.691406 142.402344 95.691406 C 142.882812 95.691406 143.269531 95.304688 143.269531 94.828125 C 143.269531 94.351562 142.882812 93.960938 142.402344 93.960938 Z M 142.402344 93.960938 " fill-opacity="1" fill-rule="nonzero"/><path fill="#8f97d9" d="M 152.832031 93.378906 C 152.832031 93.550781 152.800781 93.714844 152.734375 93.875 C 152.667969 94.035156 152.574219 94.175781 152.449219 94.300781 C 152.328125 94.421875 152.1875 94.515625 152.027344 94.582031 C 151.867188 94.648438 151.699219 94.683594 151.527344 94.683594 C 151.355469 94.683594 151.1875 94.648438 151.027344 94.582031 C 150.867188 94.515625 150.726562 94.421875 150.605469 94.300781 C 150.480469 94.175781 150.386719 94.035156 150.320312 93.875 C 150.253906 93.714844 150.222656 93.550781 150.222656 93.378906 C 150.222656 93.203125 150.253906 93.039062 150.320312 92.878906 C 150.386719 92.71875 150.480469 92.578125 150.605469 92.453125 C 150.726562 92.332031 150.867188 92.238281 151.027344 92.171875 C 151.1875 92.105469 151.355469 92.070312 151.527344 92.070312 C 151.699219 92.070312 151.867188 92.105469 152.027344 92.171875 C 152.1875 92.238281 152.328125 92.332031 152.449219 92.453125 C 152.574219 92.578125 152.667969 92.71875 152.734375 92.878906 C 152.800781 93.039062 152.832031 93.203125 152.832031 93.378906 Z M 152.832031 93.378906 " fill-opacity="1" fill-rule="nonzero"/><path fill="#626bb5" d="M 151.527344 95.121094 C 150.566406 95.121094 149.78125 94.339844 149.78125 93.378906 C 149.78125 92.414062 150.566406 91.632812 151.527344 91.632812 C 152.492188 91.632812 153.273438 92.414062 153.273438 93.378906 C 153.273438 94.339844 152.492188 95.121094 151.527344 95.121094 Z M 151.527344 92.511719 C 151.050781 92.511719 150.660156 92.898438 150.660156 93.378906 C 150.660156 93.855469 151.050781 94.242188 151.527344 94.242188 C 152.003906 94.242188 152.394531 93.855469 152.394531 93.378906 C 152.394531 92.898438 152.003906 92.511719 151.527344 92.511719 Z M 151.527344 92.511719 " fill-opacity="1" fill-rule="nonzero"/><path fill="#7940a8" d="M 154.523438 88.996094 C 154.523438 89.109375 154.488281 89.222656 154.414062 89.332031 C 154.339844 89.445312 154.226562 89.558594 154.082031 89.671875 C 153.933594 89.78125 153.75 89.890625 153.53125 90 C 153.3125 90.109375 153.058594 90.214844 152.769531 90.320312 C 152.484375 90.425781 152.160156 90.527344 151.804688 90.628906 C 151.449219 90.726562 151.0625 90.824219 150.644531 90.917969 C 150.226562 91.011719 149.777344 91.105469 149.296875 91.191406 C 148.820312 91.277344 148.316406 91.363281 147.78125 91.445312 C 147.25 91.523438 146.691406 91.601562 146.109375 91.671875 C 145.523438 91.742188 144.921875 91.8125 144.292969 91.875 C 143.667969 91.9375 143.019531 91.996094 142.355469 92.050781 C 141.691406 92.101562 141.011719 92.152344 140.3125 92.195312 C 139.617188 92.238281 138.910156 92.277344 138.1875 92.308594 C 137.464844 92.339844 136.734375 92.371094 135.996094 92.390625 C 135.257812 92.414062 134.511719 92.429688 133.761719 92.441406 C 133.011719 92.453125 132.261719 92.457031 131.507812 92.457031 C 130.753906 92.457031 130 92.453125 129.25 92.441406 C 128.5 92.429688 127.753906 92.414062 127.015625 92.390625 C 126.277344 92.371094 125.546875 92.339844 124.824219 92.308594 C 124.101562 92.277344 123.394531 92.238281 122.699219 92.195312 C 122 92.152344 121.320312 92.101562 120.65625 92.050781 C 119.992188 91.996094 119.34375 91.9375 118.71875 91.875 C 118.089844 91.8125 117.488281 91.742188 116.902344 91.671875 C 116.320312 91.601562 115.761719 91.523438 115.230469 91.445312 C 114.695312 91.363281 114.191406 91.277344 113.714844 91.191406 C 113.234375 91.105469 112.785156 91.011719 112.367188 90.917969 C 111.949219 90.824219 111.5625 90.726562 111.207031 90.628906 C 110.851562 90.527344 110.527344 90.425781 110.242188 90.320312 C 109.953125 90.214844 109.699219 90.109375 109.480469 90 C 109.261719 89.890625 109.078125 89.78125 108.929688 89.671875 C 108.785156 89.558594 108.671875 89.445312 108.597656 89.332031 C 108.527344 89.222656 108.488281 89.109375 108.488281 88.996094 C 108.488281 88.878906 108.527344 88.769531 108.597656 88.65625 C 108.671875 88.542969 108.785156 88.429688 108.929688 88.320312 C 109.078125 88.207031 109.261719 88.097656 109.480469 87.988281 C 109.699219 87.878906 109.953125 87.773438 110.242188 87.667969 C 110.527344 87.5625 110.851562 87.460938 111.207031 87.363281 C 111.5625 87.261719 111.949219 87.164062 112.367188 87.070312 C 112.785156 86.976562 113.234375 86.882812 113.714844 86.796875 C 114.191406 86.710938 114.695312 86.625 115.230469 86.546875 C 115.761719 86.464844 116.320312 86.390625 116.902344 86.316406 C 117.488281 86.246094 118.089844 86.175781 118.71875 86.113281 C 119.34375 86.050781 119.992188 85.992188 120.65625 85.941406 C 121.320312 85.886719 122 85.835938 122.699219 85.792969 C 123.394531 85.75 124.101562 85.710938 124.824219 85.679688 C 125.546875 85.648438 126.277344 85.621094 127.015625 85.597656 C 127.753906 85.574219 128.5 85.558594 129.25 85.546875 C 130 85.535156 130.753906 85.53125 131.507812 85.53125 C 132.261719 85.53125 133.011719 85.535156 133.761719 85.546875 C 134.511719 85.558594 135.257812 85.574219 135.996094 85.597656 C 136.734375 85.621094 137.464844 85.648438 138.1875 85.679688 C 138.910156 85.710938 139.617188 85.75 140.3125 85.792969 C 141.011719 85.835938 141.691406 85.886719 142.355469 85.941406 C 143.019531 85.992188 143.667969 86.050781 144.292969 86.113281 C 144.921875 86.175781 145.523438 86.246094 146.109375 86.316406 C 146.691406 86.390625 147.25 86.464844 147.78125 86.546875 C 148.316406 86.625 148.820312 86.710938 149.296875 86.796875 C 149.777344 86.882812 150.226562 86.976562 150.644531 87.070312 C 151.0625 87.164062 151.449219 87.261719 151.804688 87.363281 C 152.160156 87.460938 152.484375 87.5625 152.769531 87.667969 C 153.058594 87.773438 153.3125 87.878906 153.53125 87.988281 C 153.75 88.097656 153.933594 88.207031 154.082031 88.320312 C 154.226562 88.429688 154.339844 88.542969 154.414062 88.65625 C 154.488281 88.769531 154.523438 88.878906 154.523438 88.996094 Z M 154.523438 88.996094 " fill-opacity="1" fill-rule="nonzero"/><path fill="#582285" d="M 131.507812 92.898438 C 122.078125 92.898438 108.050781 91.859375 108.050781 88.996094 C 108.050781 86.128906 122.078125 85.089844 131.507812 85.089844 C 140.933594 85.089844 154.964844 86.128906 154.964844 88.996094 C 154.964844 91.859375 140.933594 92.898438 131.507812 92.898438 Z M 131.507812 85.96875 C 116.683594 85.96875 108.929688 87.9375 108.929688 88.996094 C 108.929688 90.050781 116.683594 92.019531 131.507812 92.019531 C 146.328125 92.019531 154.082031 90.050781 154.082031 88.996094 C 154.082031 87.9375 146.328125 85.96875 131.507812 85.96875 Z M 131.507812 85.96875 " fill-opacity="1" fill-rule="nonzero"/><g clip-path="url(#1316c70491)"><path fill="#96d8ff" d="M 131.507812 10.605469 C 107.957031 10.605469 92.425781 22.980469 94.832031 48.308594 C 97.238281 73.636719 108.394531 88.527344 108.394531 88.527344 C 108.394531 88.527344 108.488281 88.835938 108.488281 88.996094 C 108.488281 90.90625 118.792969 92.457031 131.507812 92.457031 C 144.21875 92.457031 154.523438 90.90625 154.523438 88.996094 C 154.523438 88.835938 154.617188 88.527344 154.617188 88.527344 C 154.617188 88.527344 165.773438 73.636719 168.179688 48.308594 C 170.585938 22.980469 155.054688 10.605469 131.507812 10.605469 Z M 131.507812 10.605469 " fill-opacity="0.48" fill-rule="nonzero"/></g><path fill="#2cc96b" d="M 129.59375 81.539062 C 127.558594 82.246094 125.621094 83.28125 123.871094 84.574219 C 121.597656 86.257812 119.636719 88.375 118.191406 90.769531 C 118 91.09375 117.808594 91.425781 117.636719 91.757812 C 116.472656 91.625 115.390625 91.476562 114.417969 91.3125 C 114.757812 90.582031 115.140625 89.867188 115.558594 89.179688 C 117.800781 85.46875 121.109375 82.347656 124.933594 80.253906 C 125.230469 80.09375 125.527344 79.9375 125.832031 79.789062 C 126.726562 79.347656 127.648438 78.960938 128.585938 78.632812 C 129.386719 78.351562 130.265625 78.78125 130.542969 79.582031 C 130.824219 80.382812 130.398438 81.257812 129.59375 81.539062 Z M 129.59375 81.539062 " fill-opacity="1" fill-rule="nonzero"/><path fill="#17733c" d="M 117.636719 92.195312 C 117.621094 92.195312 117.605469 92.195312 117.589844 92.195312 C 116.425781 92.0625 115.332031 91.910156 114.34375 91.746094 C 114.207031 91.726562 114.089844 91.640625 114.027344 91.519531 C 113.960938 91.398438 113.960938 91.253906 114.015625 91.128906 C 114.359375 90.394531 114.753906 89.664062 115.183594 88.953125 C 117.433594 85.230469 120.820312 82.003906 124.722656 79.871094 C 125.023438 79.703125 125.328125 79.546875 125.636719 79.394531 C 126.554688 78.941406 127.5 78.542969 128.445312 78.21875 C 128.9375 78.042969 129.472656 78.074219 129.949219 78.304688 C 130.429688 78.535156 130.785156 78.9375 130.957031 79.441406 C 131.132812 79.933594 131.101562 80.464844 130.875 80.941406 C 130.644531 81.417969 130.242188 81.777344 129.738281 81.953125 C 127.757812 82.640625 125.871094 83.640625 124.132812 84.925781 C 121.882812 86.589844 119.960938 88.691406 118.566406 90.996094 C 118.339844 91.378906 118.171875 91.675781 118.027344 91.957031 C 117.953125 92.105469 117.800781 92.199219 117.636719 92.195312 Z M 115.070312 90.972656 C 115.796875 91.085938 116.574219 91.191406 117.390625 91.285156 C 117.507812 91.066406 117.644531 90.828125 117.8125 90.542969 C 119.265625 88.140625 121.269531 85.953125 123.609375 84.222656 C 125.421875 82.882812 127.386719 81.839844 129.449219 81.125 C 129.730469 81.027344 129.953125 80.824219 130.082031 80.558594 C 130.207031 80.296875 130.222656 80.003906 130.128906 79.730469 C 130.03125 79.449219 129.832031 79.222656 129.566406 79.097656 C 129.304688 78.96875 129.007812 78.953125 128.734375 79.050781 C 127.824219 79.363281 126.914062 79.746094 126.027344 80.183594 C 125.726562 80.332031 125.433594 80.480469 125.148438 80.640625 C 121.378906 82.703125 118.105469 85.816406 115.933594 89.40625 C 115.625 89.917969 115.332031 90.445312 115.070312 90.972656 Z M 129.59375 81.539062 L 129.597656 81.539062 Z M 129.59375 81.539062 " fill-opacity="1" fill-rule="nonzero"/><path fill="#2cc96b" d="M 150.34375 90.980469 C 149.414062 91.183594 148.351562 91.367188 147.167969 91.53125 C 147.027344 91.269531 146.882812 91.019531 146.730469 90.769531 C 145.21875 88.269531 143.160156 86.078125 140.757812 84.359375 C 140.753906 84.359375 140.753906 84.355469 140.75 84.355469 C 139.835938 83.703125 138.878906 83.121094 137.878906 82.625 C 137.054688 82.203125 136.199219 81.839844 135.332031 81.539062 C 134.527344 81.257812 134.097656 80.382812 134.378906 79.582031 C 134.644531 78.820312 135.449219 78.398438 136.214844 78.59375 C 136.257812 78.609375 136.296875 78.621094 136.335938 78.632812 C 137.179688 78.929688 138.011719 79.269531 138.820312 79.65625 C 138.824219 79.65625 138.828125 79.65625 138.828125 79.664062 C 139.21875 79.847656 139.605469 80.050781 139.984375 80.253906 C 143.8125 82.347656 147.125 85.46875 149.367188 89.179688 C 149.714844 89.761719 150.046875 90.363281 150.34375 90.980469 Z M 150.34375 90.980469 " fill-opacity="1" fill-rule="nonzero"/><path fill="#17733c" d="M 147.167969 91.96875 C 147.007812 91.96875 146.859375 91.882812 146.78125 91.738281 C 146.644531 91.484375 146.5 91.238281 146.355469 90.996094 C 144.902344 88.59375 142.886719 86.425781 140.527344 84.734375 C 140.515625 84.726562 140.503906 84.71875 140.496094 84.714844 C 139.574219 84.058594 138.628906 83.488281 137.683594 83.015625 C 136.890625 82.613281 136.050781 82.253906 135.1875 81.953125 C 134.683594 81.777344 134.277344 81.417969 134.050781 80.941406 C 133.820312 80.464844 133.792969 79.933594 133.964844 79.4375 C 134.296875 78.472656 135.335938 77.914062 136.324219 78.167969 L 136.460938 78.214844 C 137.332031 78.515625 138.183594 78.867188 139.003906 79.257812 C 139.007812 79.261719 139.011719 79.261719 139.019531 79.265625 C 139.375 79.433594 139.746094 79.625 140.195312 79.871094 C 144.101562 82.003906 147.488281 85.226562 149.742188 88.953125 C 150.109375 89.566406 150.445312 90.183594 150.742188 90.789062 C 150.800781 90.910156 150.800781 91.050781 150.742188 91.171875 C 150.683594 91.292969 150.570312 91.382812 150.4375 91.410156 C 149.488281 91.617188 148.410156 91.800781 147.226562 91.964844 C 147.207031 91.96875 147.1875 91.96875 147.167969 91.96875 Z M 140.980469 83.980469 C 140.992188 83.988281 141.003906 83.996094 141.015625 84 C 143.480469 85.765625 145.589844 88.027344 147.109375 90.542969 C 147.210938 90.710938 147.308594 90.878906 147.40625 91.050781 C 148.226562 90.933594 148.992188 90.804688 149.695312 90.667969 C 149.476562 90.246094 149.242188 89.824219 148.988281 89.40625 C 146.816406 85.8125 143.542969 82.699219 139.773438 80.640625 C 139.339844 80.40625 138.980469 80.21875 138.640625 80.058594 C 138.640625 80.058594 138.636719 80.058594 138.636719 80.058594 C 138.632812 80.054688 138.632812 80.054688 138.628906 80.054688 C 137.835938 79.675781 137.015625 79.335938 136.191406 79.050781 L 136.089844 79.015625 C 135.554688 78.878906 134.980469 79.1875 134.796875 79.726562 C 134.699219 80.003906 134.714844 80.296875 134.84375 80.558594 C 134.96875 80.824219 135.195312 81.027344 135.476562 81.125 C 136.378906 81.4375 137.253906 81.8125 138.082031 82.234375 C 139.050781 82.714844 140.03125 83.304688 140.980469 83.980469 Z M 140.980469 83.980469 " fill-opacity="1" fill-rule="nonzero"/><path fill="#2cc96b" d="M 143.410156 91.960938 C 142.722656 92.023438 142.015625 92.078125 141.285156 92.125 C 138.320312 92.335938 135.003906 92.457031 131.507812 92.457031 C 127.828125 92.457031 124.351562 92.328125 121.265625 92.097656 C 121.90625 89.707031 122.847656 87.144531 123.871094 84.574219 C 124.507812 82.972656 125.179688 81.363281 125.832031 79.789062 C 126.164062 78.984375 126.496094 78.195312 126.8125 77.417969 L 137.902344 77.417969 C 138.199219 78.15625 138.511719 78.902344 138.828125 79.664062 C 138.96875 80 139.109375 80.34375 139.25 80.691406 C 139.757812 81.902344 140.265625 83.132812 140.757812 84.359375 C 140.894531 84.699219 141.027344 85.035156 141.15625 85.378906 C 141.246094 85.597656 141.335938 85.820312 141.417969 86.046875 C 141.589844 86.488281 141.757812 86.9375 141.917969 87.378906 C 142.082031 87.820312 142.238281 88.261719 142.390625 88.699219 C 142.46875 88.914062 142.542969 89.132812 142.613281 89.355469 C 142.832031 90.003906 143.035156 90.644531 143.21875 91.28125 C 143.285156 91.511719 143.351562 91.734375 143.414062 91.960938 C 143.464844 92.152344 143.515625 92.347656 143.5625 92.535156 C 143.515625 92.347656 143.460938 92.152344 143.410156 91.960938 Z M 143.410156 91.960938 " fill-opacity="1" fill-rule="nonzero"/><path fill="#33e87b" d="M 143.410156 91.960938 C 142.722656 92.023438 142.015625 92.078125 141.285156 92.125 C 140.476562 89.121094 139.207031 85.847656 137.878906 82.625 C 137.324219 81.261719 136.757812 79.914062 136.214844 78.59375 C 136.050781 78.199219 135.886719 77.804688 135.730469 77.417969 L 137.898438 77.417969 C 138.195312 78.152344 138.507812 78.902344 138.820312 79.65625 C 138.960938 80 139.105469 80.34375 139.25 80.691406 C 139.753906 81.902344 140.261719 83.128906 140.75 84.355469 C 140.890625 84.699219 141.023438 85.035156 141.160156 85.378906 C 141.246094 85.597656 141.335938 85.820312 141.417969 86.046875 C 141.589844 86.488281 141.757812 86.9375 141.917969 87.378906 C 142.082031 87.820312 142.234375 88.261719 142.390625 88.699219 C 142.46875 88.914062 142.542969 89.132812 142.613281 89.355469 C 142.828125 90.003906 143.035156 90.644531 143.21875 91.28125 C 143.285156 91.511719 143.347656 91.734375 143.410156 91.960938 Z M 143.410156 91.960938 " fill-opacity="1" fill-rule="nonzero"/><path fill="#0da14d" d="M 140.328125 83.308594 C 137.558594 84.390625 134.59375 85.007812 131.507812 85.007812 C 128.96875 85.007812 126.5 84.585938 124.167969 83.835938 C 125.042969 81.664062 125.96875 79.496094 126.8125 77.417969 L 137.898438 77.417969 C 138.675781 79.324219 139.519531 81.3125 140.328125 83.308594 Z M 140.328125 83.308594 " fill-opacity="1" fill-rule="nonzero"/><path fill="#17733c" d="M 131.507812 92.894531 C 127.867188 92.894531 124.410156 92.773438 121.230469 92.535156 C 121.101562 92.523438 120.980469 92.457031 120.90625 92.351562 C 120.828125 92.242188 120.804688 92.109375 120.839844 91.980469 C 121.394531 89.914062 122.226562 87.507812 123.460938 84.410156 C 123.984375 83.09375 124.535156 81.765625 125.070312 80.476562 L 125.539062 79.34375 C 125.835938 78.636719 126.125 77.9375 126.402344 77.25 C 126.472656 77.085938 126.632812 76.976562 126.8125 76.976562 L 137.902344 76.976562 C 138.082031 76.976562 138.242188 77.085938 138.308594 77.253906 C 138.578125 77.917969 138.859375 78.589844 139.140625 79.269531 L 139.234375 79.492188 C 139.375 79.832031 139.515625 80.175781 139.660156 80.527344 C 140.164062 81.734375 140.671875 82.96875 141.167969 84.195312 C 141.304688 84.535156 141.4375 84.875 141.570312 85.222656 C 141.65625 85.4375 141.746094 85.664062 141.828125 85.894531 C 142 86.332031 142.167969 86.785156 142.332031 87.226562 C 142.496094 87.671875 142.65625 88.117188 142.804688 88.558594 C 142.882812 88.769531 142.960938 88.996094 143.03125 89.21875 C 143.253906 89.875 143.460938 90.53125 143.644531 91.160156 L 143.691406 91.324219 C 143.742188 91.5 143.789062 91.671875 143.835938 91.84375 C 143.902344 92.078125 143.765625 92.320312 143.53125 92.382812 C 143.496094 92.394531 143.464844 92.398438 143.433594 92.398438 C 142.75 92.460938 142.042969 92.515625 141.316406 92.566406 C 138.230469 92.785156 134.929688 92.894531 131.507812 92.894531 Z M 121.832031 91.695312 C 124.839844 91.910156 128.09375 92.015625 131.507812 92.015625 C 134.910156 92.015625 138.1875 91.90625 141.253906 91.6875 C 141.796875 91.652344 142.328125 91.613281 142.84375 91.570312 L 142.796875 91.40625 C 142.621094 90.789062 142.417969 90.144531 142.199219 89.496094 C 142.125 89.273438 142.054688 89.0625 141.976562 88.851562 C 141.824219 88.40625 141.667969 87.96875 141.507812 87.527344 C 141.34375 87.09375 141.179688 86.648438 141.007812 86.207031 C 140.925781 85.980469 140.835938 85.757812 140.75 85.542969 C 140.617188 85.195312 140.488281 84.859375 140.351562 84.523438 C 139.859375 83.300781 139.351562 82.070312 138.847656 80.859375 C 138.703125 80.511719 138.5625 80.167969 138.421875 79.832031 L 138.332031 79.609375 C 138.085938 79.015625 137.839844 78.433594 137.605469 77.855469 L 127.105469 77.855469 C 126.859375 78.457031 126.609375 79.066406 126.351562 79.683594 L 125.882812 80.816406 C 125.351562 82.097656 124.800781 83.425781 124.277344 84.738281 C 123.160156 87.546875 122.375 89.777344 121.832031 91.695312 Z M 121.832031 91.695312 " fill-opacity="1" fill-rule="nonzero"/><path fill="#2cc96b" d="M 158.964844 46.902344 C 158.964844 60.695312 146.671875 79.398438 131.507812 79.398438 C 116.339844 79.398438 104.046875 60.695312 104.046875 46.902344 C 104.046875 29.59375 114.222656 21.21875 131.507812 21.21875 C 146.671875 21.21875 158.964844 27.050781 158.964844 46.902344 Z M 158.964844 46.902344 " fill-opacity="1" fill-rule="nonzero"/><path fill="#33e87b" d="M 158.964844 46.898438 C 158.964844 56.019531 153.59375 67.285156 145.574219 73.867188 C 151.039062 67.324219 154.464844 58.679688 154.464844 51.398438 C 154.464844 31.546875 142.171875 25.714844 127.003906 25.714844 C 119.371094 25.714844 113.121094 27.347656 108.527344 30.667969 C 113.085938 24.324219 120.972656 21.21875 131.507812 21.21875 C 146.671875 21.21875 158.964844 27.054688 158.964844 46.898438 Z M 158.964844 46.898438 " fill-opacity="1" fill-rule="nonzero"/><path fill="#17733c" d="M 131.507812 79.839844 C 124.390625 79.839844 117.371094 75.84375 111.742188 68.59375 C 106.722656 62.128906 103.609375 53.816406 103.609375 46.902344 C 103.609375 38.296875 106.09375 31.683594 111 27.246094 C 115.742188 22.953125 122.640625 20.78125 131.503906 20.78125 C 150.015625 20.78125 159.402344 29.566406 159.402344 46.902344 C 159.402344 53.816406 156.285156 62.128906 151.269531 68.59375 C 145.640625 75.84375 138.621094 79.839844 131.507812 79.839844 Z M 131.507812 21.660156 C 113.828125 21.660156 104.488281 30.386719 104.488281 46.902344 C 104.488281 53.632812 107.535156 61.738281 112.4375 68.054688 C 117.898438 75.085938 124.667969 78.960938 131.507812 78.960938 C 138.34375 78.960938 145.113281 75.085938 150.574219 68.054688 C 155.480469 61.738281 158.523438 53.632812 158.523438 46.902344 C 158.523438 37.8125 155.875 31.105469 150.648438 26.960938 C 146.210938 23.441406 139.769531 21.660156 131.507812 21.660156 Z M 131.507812 21.660156 " fill-opacity="1" fill-rule="nonzero"/><path fill="#000000" d="M 137.960938 63.789062 C 137.902344 53.863281 146.09375 48.140625 154.792969 51.84375 C 154.402344 62.050781 144.019531 65.527344 137.960938 63.789062 Z M 137.960938 63.789062 " fill-opacity="1" fill-rule="nonzero"/><path fill="#000000" d="M 141.199219 64.660156 C 140.03125 64.660156 138.894531 64.515625 137.839844 64.210938 C 137.648438 64.15625 137.519531 63.988281 137.519531 63.792969 C 137.492188 58.78125 139.523438 54.542969 143.101562 52.167969 C 146.46875 49.929688 150.792969 49.664062 154.964844 51.4375 C 155.132812 51.507812 155.238281 51.675781 155.234375 51.859375 C 155.03125 57.140625 152.285156 60.207031 150.015625 61.847656 C 147.507812 63.660156 144.25 64.660156 141.199219 64.660156 Z M 138.398438 63.453125 C 141.917969 64.335938 146.335938 63.425781 149.5 61.132812 C 151.566406 59.640625 154.058594 56.871094 154.339844 52.128906 C 150.53125 50.601562 146.628906 50.875 143.585938 52.898438 C 140.34375 55.058594 138.460938 58.890625 138.398438 63.453125 Z M 138.398438 63.453125 " fill-opacity="1" fill-rule="nonzero"/><path fill="#ffffff" d="M 152.113281 56.527344 C 152.113281 57.371094 151.429688 58.054688 150.585938 58.054688 C 149.742188 58.054688 149.054688 57.371094 149.054688 56.527344 C 149.054688 55.683594 149.738281 54.996094 150.585938 54.996094 C 151.429688 54.996094 152.113281 55.683594 152.113281 56.527344 Z M 152.113281 56.527344 " fill-opacity="1" fill-rule="nonzero"/><path fill="#ffffff" d="M 149.238281 58.988281 C 149.238281 59.5 148.820312 59.917969 148.304688 59.917969 C 147.789062 59.917969 147.371094 59.5 147.371094 58.988281 C 147.371094 58.472656 147.789062 58.054688 148.304688 58.054688 C 148.820312 58.054688 149.238281 58.472656 149.238281 58.988281 Z M 149.238281 58.988281 " fill-opacity="1" fill-rule="nonzero"/><path fill="#4d4d4d" d="M 145.296875 53.886719 C 143.035156 55.910156 141.3125 58.351562 140.300781 61.222656 C 140.140625 61.679688 139.441406 61.5625 139.433594 61.085938 C 139.378906 58.523438 140.695312 56.007812 142.648438 54.386719 C 143.304688 53.84375 144.046875 53.398438 144.851562 53.128906 C 145.085938 53.046875 145.339844 53.175781 145.421875 53.410156 C 145.480469 53.582031 145.425781 53.769531 145.296875 53.886719 Z M 145.296875 53.886719 " fill-opacity="1" fill-rule="nonzero"/><path fill="#000000" d="M 126.03125 63.789062 C 126.085938 53.863281 117.894531 48.140625 109.195312 51.84375 C 109.589844 62.050781 119.96875 65.527344 126.03125 63.789062 Z M 126.03125 63.789062 " fill-opacity="1" fill-rule="nonzero"/><path fill="#000000" d="M 122.789062 64.660156 C 119.738281 64.660156 116.484375 63.660156 113.972656 61.847656 C 111.707031 60.207031 108.960938 57.140625 108.757812 51.859375 C 108.75 51.675781 108.855469 51.511719 109.023438 51.4375 C 113.195312 49.664062 117.519531 49.929688 120.890625 52.167969 C 124.464844 54.542969 126.5 58.78125 126.46875 63.792969 C 126.46875 63.988281 126.339844 64.15625 126.152344 64.210938 C 125.097656 64.515625 123.957031 64.660156 122.789062 64.660156 Z M 126.03125 63.789062 L 126.035156 63.789062 Z M 109.648438 52.128906 C 109.929688 56.871094 112.421875 59.640625 114.488281 61.132812 C 117.65625 63.421875 122.070312 64.335938 125.589844 63.453125 C 125.527344 58.890625 123.648438 55.058594 120.402344 52.898438 C 117.359375 50.875 113.457031 50.601562 109.648438 52.128906 Z M 109.648438 52.128906 " fill-opacity="1" fill-rule="nonzero"/><path fill="#ffffff" d="M 122.753906 56.527344 C 122.753906 57.371094 122.070312 58.054688 121.226562 58.054688 C 120.378906 58.054688 119.695312 57.371094 119.695312 56.527344 C 119.695312 55.683594 120.378906 54.996094 121.226562 54.996094 C 122.070312 54.996094 122.753906 55.683594 122.753906 56.527344 Z M 122.753906 56.527344 " fill-opacity="1" fill-rule="nonzero"/><path fill="#ffffff" d="M 119.878906 58.988281 C 119.878906 59.5 119.460938 59.917969 118.945312 59.917969 C 118.429688 59.917969 118.011719 59.5 118.011719 58.988281 C 118.011719 58.472656 118.429688 58.054688 118.945312 58.054688 C 119.460938 58.054688 119.878906 58.472656 119.878906 58.988281 Z M 119.878906 58.988281 " fill-opacity="1" fill-rule="nonzero"/><path fill="#4d4d4d" d="M 111.335938 53.339844 C 112.941406 55.738281 114.246094 58.285156 116.257812 60.375 C 116.589844 60.71875 116.183594 61.289062 115.75 61.09375 C 114.289062 60.441406 113.171875 59.214844 112.300781 57.917969 C 111.457031 56.617188 110.820312 55.195312 110.523438 53.675781 C 110.480469 53.429688 110.640625 53.195312 110.882812 53.152344 C 111.0625 53.117188 111.238281 53.195312 111.335938 53.339844 Z M 111.335938 53.339844 " fill-opacity="1" fill-rule="nonzero"/><path fill="#128240" d="M 145.996094 45.984375 C 144.292969 45.097656 142.1875 45.019531 140.425781 45.785156 C 138.664062 46.550781 137.277344 48.136719 136.765625 49.988281 C 139.351562 47.886719 142.703125 46.484375 145.996094 45.984375 Z M 145.996094 45.984375 " fill-opacity="1" fill-rule="nonzero"/><path fill="#0e6932" d="M 136.765625 50.429688 C 136.683594 50.429688 136.597656 50.40625 136.527344 50.359375 C 136.367188 50.253906 136.292969 50.058594 136.34375 49.871094 C 136.894531 47.882812 138.355469 46.203125 140.25 45.382812 C 142.144531 44.558594 144.371094 44.640625 146.203125 45.597656 C 146.371094 45.683594 146.460938 45.871094 146.429688 46.058594 C 146.398438 46.246094 146.25 46.390625 146.0625 46.417969 C 142.78125 46.914062 139.492188 48.339844 137.042969 50.332031 C 136.964844 50.394531 136.863281 50.429688 136.765625 50.429688 Z M 142.988281 45.703125 C 142.167969 45.703125 141.347656 45.863281 140.601562 46.1875 C 139.445312 46.6875 138.449219 47.589844 137.800781 48.683594 C 139.738281 47.394531 142.023438 46.410156 144.363281 45.855469 C 143.914062 45.753906 143.453125 45.703125 142.988281 45.703125 Z M 142.988281 45.703125 " fill-opacity="1" fill-rule="nonzero"/><path fill="#128240" d="M 117.015625 45.984375 C 118.71875 45.097656 120.824219 45.019531 122.585938 45.785156 C 124.347656 46.550781 125.734375 48.136719 126.246094 49.988281 C 123.660156 47.886719 120.308594 46.484375 117.015625 45.984375 Z M 117.015625 45.984375 " fill-opacity="1" fill-rule="nonzero"/><path fill="#0e6932" d="M 126.246094 50.429688 C 126.148438 50.429688 126.050781 50.394531 125.96875 50.332031 C 123.519531 48.339844 120.230469 46.914062 116.949219 46.417969 C 116.761719 46.390625 116.613281 46.246094 116.582031 46.058594 C 116.550781 45.871094 116.640625 45.683594 116.808594 45.597656 C 118.640625 44.640625 120.867188 44.558594 122.761719 45.382812 C 124.65625 46.203125 126.117188 47.882812 126.667969 49.871094 C 126.71875 50.058594 126.644531 50.253906 126.484375 50.359375 C 126.414062 50.40625 126.328125 50.429688 126.246094 50.429688 Z M 118.648438 45.855469 C 120.988281 46.410156 123.273438 47.394531 125.210938 48.683594 C 124.5625 47.589844 123.566406 46.6875 122.410156 46.1875 C 121.246094 45.683594 119.898438 45.574219 118.648438 45.855469 Z M 118.648438 45.855469 " fill-opacity="1" fill-rule="nonzero"/><path fill="#000000" d="M 132.316406 71.65625 C 130.316406 71.65625 128.335938 70.773438 127 69.289062 C 126.839844 69.105469 126.855469 68.828125 127.035156 68.667969 C 127.214844 68.503906 127.492188 68.519531 127.65625 68.699219 C 128.839844 70.019531 130.601562 70.789062 132.375 70.777344 C 134.144531 70.757812 135.894531 69.945312 137.050781 68.605469 C 137.207031 68.421875 137.488281 68.398438 137.671875 68.558594 C 137.855469 68.714844 137.875 68.992188 137.714844 69.175781 C 136.398438 70.707031 134.402344 71.632812 132.382812 71.65625 C 132.359375 71.65625 132.335938 71.65625 132.316406 71.65625 Z M 132.316406 71.65625 " fill-opacity="1" fill-rule="nonzero"/><g clip-path="url(#62667a9ad0)"><path fill="#ffffff" d="M 168.179688 48.308594 C 165.773438 73.636719 154.617188 88.527344 154.617188 88.527344 C 154.617188 88.527344 154.523438 88.835938 154.523438 88.996094 C 154.523438 89.515625 153.769531 90.003906 152.417969 90.441406 C 155.519531 85.445312 162.660156 72.074219 164.527344 52.410156 C 166.933594 27.082031 151.402344 14.707031 127.851562 14.707031 C 116.359375 14.707031 106.773438 17.660156 100.253906 23.621094 C 106.527344 14.902344 117.625 10.605469 131.503906 10.605469 C 155.054688 10.605469 170.585938 22.976562 168.179688 48.308594 Z M 168.179688 48.308594 " fill-opacity="0.56" fill-rule="nonzero"/></g><g clip-path="url(#1dcdfe6e38)"><path fill="#53a4d6" d="M 131.507812 92.898438 C 122.078125 92.898438 108.050781 91.859375 108.050781 88.996094 C 108.046875 88.953125 108.023438 88.835938 107.992188 88.722656 C 107.179688 87.597656 96.703125 72.65625 94.394531 48.351562 C 93.296875 36.8125 95.804688 27.601562 101.839844 20.96875 C 108.269531 13.902344 118.527344 10.164062 131.507812 10.164062 C 144.484375 10.164062 154.742188 13.902344 161.171875 20.96875 C 167.207031 27.601562 169.714844 36.8125 168.617188 48.351562 C 166.308594 72.652344 155.832031 87.597656 155.019531 88.722656 C 154.988281 88.835938 154.964844 88.953125 154.964844 88.996094 C 154.964844 91.859375 140.933594 92.898438 131.507812 92.898438 Z M 131.507812 11.042969 C 118.78125 11.042969 108.75 14.679688 102.488281 21.558594 C 96.628906 28 94.199219 36.988281 95.269531 48.265625 C 97.636719 73.167969 108.636719 88.113281 108.746094 88.261719 C 108.777344 88.304688 108.800781 88.347656 108.816406 88.398438 C 108.839844 88.484375 108.929688 88.785156 108.929688 88.996094 C 108.929688 90.050781 116.683594 92.019531 131.507812 92.019531 C 146.328125 92.019531 154.082031 90.050781 154.082031 88.996094 C 154.082031 88.785156 154.171875 88.484375 154.195312 88.398438 C 154.210938 88.351562 154.234375 88.304688 154.265625 88.261719 C 154.375 88.113281 165.375 73.167969 167.742188 48.265625 C 168.8125 36.988281 166.386719 28 160.523438 21.558594 C 154.261719 14.679688 144.230469 11.042969 131.507812 11.042969 Z M 131.507812 11.042969 " fill-opacity="1" fill-rule="nonzero"/></g></svg>