<svg xmlns="http://www.w3.org/2000/svg" xmlns:xlink="http://www.w3.org/1999/xlink" width="336" zoomAndPan="magnify" viewBox="0 0 252 143.999998" height="192" preserveAspectRatio="xMidYMid meet" version="1.0"><defs><clipPath id="27522db7e6"><path d="M 83 18.292969 L 112 18.292969 L 112 28 L 83 28 Z M 83 18.292969 " clip-rule="nonzero"/></clipPath><clipPath id="382bfdd5db"><path d="M 121.140625 111.589844 L 130.859375 111.589844 L 130.859375 121.042969 L 121.140625 121.042969 Z M 121.140625 111.589844 " clip-rule="nonzero"/></clipPath><clipPath id="2cb1c2ef8a"><path d="M 140 18.292969 L 169 18.292969 L 169 28 L 140 28 Z M 140 18.292969 " clip-rule="nonzero"/></clipPath><clipPath id="ff22bcb3bb"><path d="M 83 18.292969 L 112 18.292969 L 112 28 L 83 28 Z M 83 18.292969 " clip-rule="nonzero"/></clipPath><clipPath id="0b3572cdc8"><path d="M 177 36 L 186.761719 36 L 186.761719 66 L 177 66 Z M 177 36 " clip-rule="nonzero"/></clipPath><clipPath id="f116e5455d"><path d="M 65.261719 27 L 84 27 L 84 66 L 65.261719 66 Z M 65.261719 27 " clip-rule="nonzero"/></clipPath></defs><g clip-path="url(#27522db7e6)"><path fill="#1a1a1a" d="M 111.980469 27.636719 L 83.949219 27.636719 L 83.949219 18.292969 L 111.980469 18.292969 L 111.980469 27.636719 " fill-opacity="1" fill-rule="nonzero"/></g><path fill="#7d7a7a" d="M 168.046875 36.984375 L 168.046875 27.640625 L 140.015625 27.640625 L 140.015625 36.984375 L 130.671875 36.984375 L 130.671875 46.328125 L 121.328125 46.328125 L 121.328125 36.984375 L 111.980469 36.984375 L 111.980469 27.640625 L 83.949219 27.640625 L 83.949219 36.984375 L 74.605469 36.984375 L 74.605469 65.019531 L 83.949219 65.019531 L 83.949219 74.359375 L 93.292969 74.359375 L 93.292969 83.703125 L 103.785156 83.703125 L 103.785156 83.707031 L 102.636719 83.707031 L 102.636719 93.050781 L 112.714844 93.050781 L 111.980469 93.050781 L 111.980469 102.390625 L 121.328125 102.390625 L 121.328125 111.738281 L 130.671875 111.738281 L 130.671875 102.390625 L 140.015625 102.390625 L 140.015625 93.050781 L 149.359375 93.050781 L 149.359375 83.707031 L 148.210938 83.707031 L 148.210938 83.703125 L 158.703125 83.703125 L 158.703125 74.359375 L 156.8125 74.359375 L 168.046875 74.359375 L 168.046875 65.019531 L 177.394531 65.019531 L 177.394531 36.984375 L 168.046875 36.984375 " fill-opacity="1" fill-rule="nonzero"/><path fill="#1a1a1a" d="M 121.328125 46.328125 L 130.671875 46.328125 L 130.671875 36.984375 L 121.328125 36.984375 L 121.328125 46.328125 " fill-opacity="1" fill-rule="nonzero"/><path fill="#1a1a1a" d="M 130.671875 36.984375 L 140.015625 36.984375 L 140.015625 27.636719 L 130.671875 27.636719 L 130.671875 36.984375 " fill-opacity="1" fill-rule="nonzero"/><path fill="#1a1a1a" d="M 158.703125 83.703125 L 168.046875 83.703125 L 168.046875 74.359375 L 158.703125 74.359375 L 158.703125 83.703125 " fill-opacity="1" fill-rule="nonzero"/><path fill="#1a1a1a" d="M 168.046875 74.359375 L 177.394531 74.359375 L 177.394531 65.015625 L 168.046875 65.015625 L 168.046875 74.359375 " fill-opacity="1" fill-rule="nonzero"/><path fill="#1a1a1a" d="M 140.015625 102.394531 L 149.359375 102.394531 L 149.359375 93.050781 L 140.015625 93.050781 L 140.015625 102.394531 " fill-opacity="1" fill-rule="nonzero"/><path fill="#1a1a1a" d="M 149.359375 93.050781 L 158.703125 93.050781 L 158.703125 83.703125 L 149.359375 83.703125 L 149.359375 93.050781 " fill-opacity="1" fill-rule="nonzero"/><g clip-path="url(#382bfdd5db)"><path fill="#1a1a1a" d="M 121.328125 121.082031 L 130.671875 121.082031 L 130.671875 111.738281 L 121.328125 111.738281 L 121.328125 121.082031 " fill-opacity="1" fill-rule="nonzero"/></g><path fill="#1a1a1a" d="M 130.671875 111.738281 L 140.015625 111.738281 L 140.015625 102.394531 L 130.671875 102.394531 L 130.671875 111.738281 " fill-opacity="1" fill-rule="nonzero"/><path fill="#1a1a1a" d="M 83.949219 74.359375 L 83.949219 83.707031 L 93.292969 83.707031 L 93.292969 74.359375 L 83.949219 74.359375 " fill-opacity="1" fill-rule="nonzero"/><path fill="#1a1a1a" d="M 74.605469 65.015625 L 74.605469 74.359375 L 83.949219 74.359375 L 83.949219 65.015625 L 74.605469 65.015625 " fill-opacity="1" fill-rule="nonzero"/><path fill="#1a1a1a" d="M 111.984375 93.050781 L 102.640625 93.050781 L 102.640625 102.394531 L 111.980469 102.394531 L 111.980469 111.738281 L 121.324219 111.738281 L 121.324219 102.394531 L 111.984375 102.394531 L 111.984375 93.050781 " fill-opacity="1" fill-rule="nonzero"/><path fill="#1a1a1a" d="M 93.292969 83.707031 L 93.292969 93.050781 L 102.640625 93.050781 L 102.640625 83.707031 L 93.292969 83.707031 " fill-opacity="1" fill-rule="nonzero"/><path fill="#1a1a1a" d="M 168.046875 27.636719 L 168.046875 36.984375 L 177.394531 36.984375 L 177.394531 27.636719 L 168.046875 27.636719 " fill-opacity="1" fill-rule="nonzero"/><path fill="#1a1a1a" d="M 111.980469 27.636719 L 111.980469 36.984375 L 121.328125 36.984375 L 121.328125 27.636719 L 111.980469 27.636719 " fill-opacity="1" fill-rule="nonzero"/><g clip-path="url(#2cb1c2ef8a)"><path fill="#1a1a1a" d="M 158.703125 18.292969 L 140.015625 18.292969 L 140.015625 27.636719 L 168.046875 27.636719 L 168.046875 18.292969 L 158.703125 18.292969 " fill-opacity="1" fill-rule="nonzero"/></g><g clip-path="url(#ff22bcb3bb)"><path fill="#1a1a1a" d="M 102.636719 18.292969 L 83.949219 18.292969 L 83.949219 27.636719 L 111.980469 27.636719 L 111.980469 18.292969 L 102.636719 18.292969 " fill-opacity="1" fill-rule="nonzero"/></g><g clip-path="url(#0b3572cdc8)"><path fill="#1a1a1a" d="M 177.394531 36.984375 L 177.394531 65.015625 L 186.738281 65.015625 L 186.738281 36.984375 L 177.394531 36.984375 " fill-opacity="1" fill-rule="nonzero"/></g><g clip-path="url(#f116e5455d)"><path fill="#1a1a1a" d="M 74.605469 55.671875 L 74.605469 36.984375 L 83.949219 36.984375 L 83.949219 27.640625 L 74.605469 27.640625 L 74.605469 36.984375 L 65.261719 36.984375 L 65.261719 65.015625 L 74.605469 65.015625 L 74.605469 55.671875 " fill-opacity="1" fill-rule="nonzero"/></g><path fill="#ececec" d="M 93.296875 36.984375 L 83.949219 36.984375 L 83.949219 27.636719 L 93.296875 27.636719 L 93.296875 36.984375 " fill-opacity="1" fill-rule="nonzero"/><path fill="#ececec" d="M 74.605469 36.984375 L 74.605469 65.015625 L 83.949219 65.015625 L 83.949219 36.984375 L 74.605469 36.984375 " fill-opacity="1" fill-rule="nonzero"/><path fill="#ffffff" d="M 154.03125 46.445312 L 144.6875 46.445312 L 144.6875 37.097656 L 154.03125 37.097656 L 154.03125 46.445312 " fill-opacity="1" fill-rule="nonzero"/><path fill="#ffffff" d="M 163.375 46.445312 L 154.03125 46.445312 L 154.03125 37.097656 L 163.375 37.097656 L 163.375 46.445312 " fill-opacity="1" fill-rule="nonzero"/><path fill="#ffffff" d="M 163.375 55.671875 L 154.03125 55.671875 L 154.03125 46.328125 L 163.375 46.328125 L 163.375 55.671875 " fill-opacity="1" fill-rule="nonzero"/><path fill="#ececec" d="M 121.328125 111.738281 L 130.671875 111.738281 L 130.671875 102.394531 L 121.328125 102.394531 L 121.328125 111.738281 " fill-opacity="1" fill-rule="nonzero"/><path fill="#ececec" d="M 158.703125 74.359375 L 168.046875 74.359375 L 168.046875 65.015625 L 158.703125 65.015625 L 158.703125 74.359375 " fill-opacity="1" fill-rule="nonzero"/><path fill="#ececec" d="M 140.015625 93.046875 L 130.671875 93.046875 L 130.671875 102.390625 L 140.015625 102.390625 L 140.015625 93.050781 L 149.359375 93.050781 L 149.359375 83.707031 L 140.015625 83.707031 L 140.015625 93.046875 " fill-opacity="1" fill-rule="nonzero"/><path fill="#ececec" d="M 149.359375 83.707031 L 158.703125 83.707031 L 158.703125 74.359375 L 149.359375 74.359375 L 149.359375 83.707031 " fill-opacity="1" fill-rule="nonzero"/><path fill="#ececec" d="M 121.324219 102.394531 L 121.324219 111.738281 L 130.671875 111.738281 L 130.671875 102.394531 L 121.324219 102.394531 " fill-opacity="1" fill-rule="nonzero"/><path fill="#ececec" d="M 83.949219 65.015625 L 83.949219 74.359375 L 93.292969 74.359375 L 93.292969 65.015625 L 83.949219 65.015625 " fill-opacity="1" fill-rule="nonzero"/><path fill="#ececec" d="M 111.984375 83.707031 L 102.636719 83.707031 L 102.636719 93.050781 L 111.980469 93.050781 L 111.980469 102.394531 L 121.324219 102.394531 L 121.324219 93.046875 L 111.984375 93.046875 L 111.984375 83.707031 " fill-opacity="1" fill-rule="nonzero"/><path fill="#ececec" d="M 93.292969 74.359375 L 93.292969 83.707031 L 102.636719 83.707031 L 102.636719 74.359375 L 93.292969 74.359375 " fill-opacity="1" fill-rule="nonzero"/></svg>