<svg xmlns="http://www.w3.org/2000/svg" xmlns:xlink="http://www.w3.org/1999/xlink" width="336" zoomAndPan="magnify" viewBox="0 0 252 143.999998" height="192" preserveAspectRatio="xMidYMid meet" version="1.0"><defs><clipPath id="a58048db00"><path d="M 83 14.398438 L 113 14.398438 L 113 24 L 83 24 Z M 83 14.398438 " clip-rule="nonzero"/></clipPath><clipPath id="60b02974d8"><path d="M 121.296875 108.332031 L 131 108.332031 L 131 117.890625 L 121.296875 117.890625 Z M 121.296875 108.332031 " clip-rule="nonzero"/></clipPath><clipPath id="4f813f739b"><path d="M 140 14.398438 L 169 14.398438 L 169 24 L 140 24 Z M 140 14.398438 " clip-rule="nonzero"/></clipPath><clipPath id="76c55e2773"><path d="M 83 14.398438 L 113 14.398438 L 113 24 L 83 24 Z M 83 14.398438 " clip-rule="nonzero"/></clipPath><clipPath id="65671a567e"><path d="M 177 33 L 187.308594 33 L 187.308594 62 L 177 62 Z M 177 33 " clip-rule="nonzero"/></clipPath><clipPath id="595163a425"><path d="M 65.058594 23 L 84 23 L 84 62 L 65.058594 62 Z M 65.058594 23 " clip-rule="nonzero"/></clipPath></defs><g clip-path="url(#a58048db00)"><path fill="#1a1a1a" d="M 112.078125 23.8125 L 83.867188 23.8125 L 83.867188 14.402344 L 112.078125 14.402344 L 112.078125 23.8125 " fill-opacity="1" fill-rule="nonzero"/></g><path fill="#ff0000" d="M 168.5 33.222656 L 168.5 23.8125 L 140.289062 23.8125 L 140.289062 33.222656 L 130.886719 33.222656 L 130.886719 42.628906 L 121.484375 42.628906 L 121.484375 33.242188 L 121.480469 33.242188 L 121.480469 33.222656 L 112.078125 33.222656 L 112.078125 23.8125 L 83.867188 23.8125 L 83.867188 33.222656 L 74.460938 33.222656 L 74.460938 42.625 L 74.464844 42.625 L 74.464844 42.628906 L 74.460938 42.628906 L 74.460938 61.445312 L 83.867188 61.445312 L 83.867188 70.851562 L 93.269531 70.851562 L 93.269531 80.257812 L 103.832031 80.257812 L 103.832031 80.261719 L 102.675781 80.261719 L 102.675781 89.667969 L 112.816406 89.667969 L 112.078125 89.667969 L 112.078125 99.074219 L 121.484375 99.074219 L 121.484375 108.484375 L 130.886719 108.484375 L 130.886719 99.074219 L 140.289062 99.074219 L 140.289062 89.667969 L 149.695312 89.667969 L 149.695312 80.261719 L 148.539062 80.261719 L 148.539062 80.257812 L 159.097656 80.257812 L 159.097656 70.851562 L 157.195312 70.851562 L 168.5 70.851562 L 168.5 61.445312 L 177.90625 61.445312 L 177.90625 33.222656 L 168.5 33.222656 " fill-opacity="1" fill-rule="nonzero"/><path fill="#1a1a1a" d="M 121.480469 42.625 L 130.886719 42.625 L 130.886719 33.21875 L 121.480469 33.21875 L 121.480469 42.625 " fill-opacity="1" fill-rule="nonzero"/><path fill="#1a1a1a" d="M 130.886719 33.21875 L 140.289062 33.21875 L 140.289062 23.8125 L 130.886719 23.8125 L 130.886719 33.21875 " fill-opacity="1" fill-rule="nonzero"/><path fill="#1a1a1a" d="M 159.097656 80.257812 L 168.5 80.257812 L 168.5 70.851562 L 159.097656 70.851562 L 159.097656 80.257812 " fill-opacity="1" fill-rule="nonzero"/><path fill="#1a1a1a" d="M 168.5 70.851562 L 177.90625 70.851562 L 177.90625 61.445312 L 168.5 61.445312 L 168.5 70.851562 " fill-opacity="1" fill-rule="nonzero"/><path fill="#1a1a1a" d="M 140.289062 99.074219 L 149.695312 99.074219 L 149.695312 89.667969 L 140.289062 89.667969 L 140.289062 99.074219 " fill-opacity="1" fill-rule="nonzero"/><path fill="#1a1a1a" d="M 149.695312 89.667969 L 159.097656 89.667969 L 159.097656 80.257812 L 149.695312 80.257812 L 149.695312 89.667969 " fill-opacity="1" fill-rule="nonzero"/><g clip-path="url(#60b02974d8)"><path fill="#1a1a1a" d="M 121.480469 117.890625 L 130.886719 117.890625 L 130.886719 108.484375 L 121.480469 108.484375 L 121.480469 117.890625 " fill-opacity="1" fill-rule="nonzero"/></g><path fill="#1a1a1a" d="M 130.886719 108.484375 L 140.289062 108.484375 L 140.289062 99.074219 L 130.886719 99.074219 L 130.886719 108.484375 " fill-opacity="1" fill-rule="nonzero"/><path fill="#1a1a1a" d="M 83.867188 70.851562 L 83.867188 80.261719 L 93.273438 80.261719 L 93.273438 70.851562 L 83.867188 70.851562 " fill-opacity="1" fill-rule="nonzero"/><path fill="#1a1a1a" d="M 74.464844 61.445312 L 74.464844 70.851562 L 83.867188 70.851562 L 83.867188 61.445312 L 74.464844 61.445312 " fill-opacity="1" fill-rule="nonzero"/><path fill="#1a1a1a" d="M 112.078125 89.667969 L 102.675781 89.667969 L 102.675781 99.078125 L 112.078125 99.078125 L 112.078125 108.484375 L 121.480469 108.484375 L 121.480469 99.074219 L 112.078125 99.074219 L 112.078125 89.667969 " fill-opacity="1" fill-rule="nonzero"/><path fill="#1a1a1a" d="M 93.273438 80.261719 L 93.273438 89.667969 L 102.675781 89.667969 L 102.675781 80.261719 L 93.273438 80.261719 " fill-opacity="1" fill-rule="nonzero"/><path fill="#1a1a1a" d="M 168.5 23.8125 L 168.5 33.21875 L 177.90625 33.21875 L 177.90625 23.8125 L 168.5 23.8125 " fill-opacity="1" fill-rule="nonzero"/><path fill="#1a1a1a" d="M 112.078125 23.8125 L 112.078125 33.21875 L 121.480469 33.21875 L 121.480469 23.8125 L 112.078125 23.8125 " fill-opacity="1" fill-rule="nonzero"/><g clip-path="url(#4f813f739b)"><path fill="#1a1a1a" d="M 159.097656 14.402344 L 140.289062 14.402344 L 140.289062 23.8125 L 168.5 23.8125 L 168.5 14.402344 L 159.097656 14.402344 " fill-opacity="1" fill-rule="nonzero"/></g><g clip-path="url(#76c55e2773)"><path fill="#1a1a1a" d="M 102.675781 14.402344 L 83.867188 14.402344 L 83.867188 23.8125 L 112.078125 23.8125 L 112.078125 14.402344 L 102.675781 14.402344 " fill-opacity="1" fill-rule="nonzero"/></g><g clip-path="url(#65671a567e)"><path fill="#1a1a1a" d="M 177.90625 33.21875 L 177.90625 61.445312 L 187.308594 61.445312 L 187.308594 33.21875 L 177.90625 33.21875 " fill-opacity="1" fill-rule="nonzero"/></g><g clip-path="url(#595163a425)"><path fill="#1a1a1a" d="M 74.464844 52.035156 L 74.464844 33.21875 L 83.867188 33.21875 L 83.867188 23.8125 L 74.464844 23.8125 L 74.464844 33.21875 L 65.058594 33.21875 L 65.058594 61.445312 L 74.464844 61.445312 L 74.464844 52.035156 " fill-opacity="1" fill-rule="nonzero"/></g><path fill="#db2521" d="M 93.273438 33.21875 L 83.867188 33.21875 L 83.867188 23.8125 L 93.273438 23.8125 L 93.273438 33.21875 " fill-opacity="1" fill-rule="nonzero"/><path fill="#db2521" d="M 74.464844 33.21875 L 74.464844 61.445312 L 83.867188 61.445312 L 83.867188 33.21875 L 74.464844 33.21875 " fill-opacity="1" fill-rule="nonzero"/><path fill="#ffffff" d="M 154.394531 42.746094 L 144.992188 42.746094 L 144.992188 33.335938 L 154.394531 33.335938 L 154.394531 42.746094 " fill-opacity="1" fill-rule="nonzero"/><path fill="#ffffff" d="M 163.800781 42.746094 L 154.394531 42.746094 L 154.394531 33.335938 L 163.800781 33.335938 L 163.800781 42.746094 " fill-opacity="1" fill-rule="nonzero"/><path fill="#ffffff" d="M 163.800781 52.035156 L 154.394531 52.035156 L 154.394531 42.625 L 163.800781 42.625 L 163.800781 52.035156 " fill-opacity="1" fill-rule="nonzero"/><path fill="#d40601" d="M 121.484375 108.484375 L 130.886719 108.484375 L 130.886719 99.074219 L 121.484375 99.074219 L 121.484375 108.484375 " fill-opacity="1" fill-rule="nonzero"/><path fill="#db2521" d="M 159.097656 70.851562 L 168.5 70.851562 L 168.5 61.445312 L 159.097656 61.445312 L 159.097656 70.851562 " fill-opacity="1" fill-rule="nonzero"/><path fill="#db2521" d="M 140.289062 89.667969 L 130.886719 89.667969 L 130.886719 99.074219 L 140.292969 99.074219 L 140.292969 89.667969 L 149.695312 89.667969 L 149.695312 80.261719 L 140.289062 80.261719 L 140.289062 89.667969 " fill-opacity="1" fill-rule="nonzero"/><path fill="#db2521" d="M 149.695312 80.261719 L 159.097656 80.261719 L 159.097656 70.851562 L 149.695312 70.851562 L 149.695312 80.261719 " fill-opacity="1" fill-rule="nonzero"/><path fill="#db2521" d="M 121.480469 99.074219 L 121.480469 108.484375 L 130.886719 108.484375 L 130.886719 99.074219 L 121.480469 99.074219 " fill-opacity="1" fill-rule="nonzero"/><path fill="#db2521" d="M 83.867188 61.445312 L 83.867188 70.851562 L 93.269531 70.851562 L 93.269531 61.445312 L 83.867188 61.445312 " fill-opacity="1" fill-rule="nonzero"/><path fill="#db2521" d="M 112.078125 80.261719 L 102.675781 80.261719 L 102.675781 89.667969 L 112.078125 89.667969 L 112.078125 99.074219 L 121.480469 99.074219 L 121.480469 89.667969 L 112.078125 89.667969 L 112.078125 80.261719 " fill-opacity="1" fill-rule="nonzero"/><path fill="#db2521" d="M 93.269531 70.851562 L 93.269531 80.261719 L 102.675781 80.261719 L 102.675781 70.851562 L 93.269531 70.851562 " fill-opacity="1" fill-rule="nonzero"/></svg>