<svg xmlns="http://www.w3.org/2000/svg" xmlns:xlink="http://www.w3.org/1999/xlink" width="336" zoomAndPan="magnify" viewBox="0 0 252 143.999998" height="192" preserveAspectRatio="xMidYMid meet" version="1.0"><defs><clipPath id="2bdbc7f6e9"><path d="M 174 59 L 179.890625 59 L 179.890625 65 L 174 65 Z M 174 59 " clip-rule="nonzero"/></clipPath><clipPath id="aa1561c91e"><path d="M 174 54 L 179.890625 54 L 179.890625 60 L 174 60 Z M 174 54 " clip-rule="nonzero"/></clipPath><clipPath id="7fae8e62b0"><path d="M 174 48 L 179.890625 48 L 179.890625 55 L 174 55 Z M 174 48 " clip-rule="nonzero"/></clipPath><clipPath id="598da17585"><path d="M 174 43 L 179.890625 43 L 179.890625 49 L 174 49 Z M 174 43 " clip-rule="nonzero"/></clipPath><clipPath id="ce54839e59"><path d="M 174 38 L 179.890625 38 L 179.890625 44 L 174 44 Z M 174 38 " clip-rule="nonzero"/></clipPath><clipPath id="bec5c4ac8f"><path d="M 154 23.03125 L 160 23.03125 L 160 29 L 154 29 Z M 154 23.03125 " clip-rule="nonzero"/></clipPath><clipPath id="ea0c6982d5"><path d="M 149 23.03125 L 155 23.03125 L 155 29 L 149 29 Z M 149 23.03125 " clip-rule="nonzero"/></clipPath><clipPath id="d59128a853"><path d="M 143 23.03125 L 150 23.03125 L 150 29 L 143 29 Z M 143 23.03125 " clip-rule="nonzero"/></clipPath><clipPath id="0778352db9"><path d="M 138 23.03125 L 144 23.03125 L 144 29 L 138 29 Z M 138 23.03125 " clip-rule="nonzero"/></clipPath><clipPath id="e152202415"><path d="M 133 23.03125 L 139 23.03125 L 139 29 L 133 29 Z M 133 23.03125 " clip-rule="nonzero"/></clipPath><clipPath id="87c5a77742"><path d="M 123 116 L 129 116 L 129 121.28125 L 123 121.28125 Z M 123 116 " clip-rule="nonzero"/></clipPath><clipPath id="335cad1c56"><path d="M 113 23.03125 L 119 23.03125 L 119 29 L 113 29 Z M 113 23.03125 " clip-rule="nonzero"/></clipPath><clipPath id="bb0fdd7c64"><path d="M 107 23.03125 L 114 23.03125 L 114 29 L 107 29 Z M 107 23.03125 " clip-rule="nonzero"/></clipPath><clipPath id="2da0c0d333"><path d="M 102 23.03125 L 108 23.03125 L 108 29 L 102 29 Z M 102 23.03125 " clip-rule="nonzero"/></clipPath><clipPath id="4bffc6f9fe"><path d="M 97 23.03125 L 103 23.03125 L 103 29 L 97 29 Z M 97 23.03125 " clip-rule="nonzero"/></clipPath><clipPath id="1ca108c950"><path d="M 92 23.03125 L 98 23.03125 L 98 29 L 92 29 Z M 92 23.03125 " clip-rule="nonzero"/></clipPath><clipPath id="40635519f0"><path d="M 87 23.03125 L 93 23.03125 L 93 29 L 87 29 Z M 87 23.03125 " clip-rule="nonzero"/></clipPath><clipPath id="bd33df24a7"><path d="M 71.890625 59 L 78 59 L 78 65 L 71.890625 65 Z M 71.890625 59 " clip-rule="nonzero"/></clipPath><clipPath id="484e194aef"><path d="M 71.890625 54 L 78 54 L 78 60 L 71.890625 60 Z M 71.890625 54 " clip-rule="nonzero"/></clipPath><clipPath id="1ec9ffdd11"><path d="M 71.890625 48 L 78 48 L 78 55 L 71.890625 55 Z M 71.890625 48 " clip-rule="nonzero"/></clipPath><clipPath id="15ad74fb31"><path d="M 71.890625 43 L 78 43 L 78 49 L 71.890625 49 Z M 71.890625 43 " clip-rule="nonzero"/></clipPath><clipPath id="2e570c9955"><path d="M 71.890625 38 L 78 38 L 78 44 L 71.890625 44 Z M 71.890625 38 " clip-rule="nonzero"/></clipPath><clipPath id="607a92f0b0"><path d="M 91.703125 28.230469 L 156.953125 28.230469 L 156.953125 100.230469 L 91.703125 100.230469 Z M 91.703125 28.230469 " clip-rule="nonzero"/></clipPath><clipPath id="81fa9ebf7f"><path d="M 156 41 L 156.953125 41 L 156.953125 42 L 156 42 Z M 156 41 " clip-rule="nonzero"/></clipPath><clipPath id="93375ca7e3"><path d="M 100 28.230469 L 101 28.230469 L 101 29 L 100 29 Z M 100 28.230469 " clip-rule="nonzero"/></clipPath></defs><g clip-path="url(#2bdbc7f6e9)"><path fill="#a61c22" d="M 179.90625 59.230469 L 179.90625 64.394531 L 174.757812 64.394531 L 174.757812 59.230469 L 179.90625 59.230469 " fill-opacity="1" fill-rule="nonzero"/></g><g clip-path="url(#aa1561c91e)"><path fill="#a61c22" d="M 179.90625 54.0625 L 179.90625 59.230469 L 174.757812 59.230469 L 174.757812 54.0625 L 179.90625 54.0625 " fill-opacity="1" fill-rule="nonzero"/></g><g clip-path="url(#7fae8e62b0)"><path fill="#a61c22" d="M 179.90625 48.890625 L 179.90625 54.0625 L 174.757812 54.0625 L 174.757812 48.890625 L 179.90625 48.890625 " fill-opacity="1" fill-rule="nonzero"/></g><g clip-path="url(#598da17585)"><path fill="#a61c22" d="M 179.90625 43.722656 L 179.90625 48.890625 L 174.757812 48.890625 L 174.757812 43.722656 L 179.90625 43.722656 " fill-opacity="1" fill-rule="nonzero"/></g><g clip-path="url(#ce54839e59)"><path fill="#a61c22" d="M 179.90625 38.558594 L 179.90625 43.722656 L 174.757812 43.722656 L 174.757812 38.558594 L 179.90625 38.558594 " fill-opacity="1" fill-rule="nonzero"/></g><path fill="#a61c22" d="M 174.757812 69.570312 L 174.757812 74.734375 L 169.617188 74.734375 L 169.617188 69.570312 L 174.757812 69.570312 " fill-opacity="1" fill-rule="nonzero"/><path fill="#a61c22" d="M 174.757812 64.394531 L 174.757812 69.570312 L 169.617188 69.570312 L 169.617188 64.394531 L 174.757812 64.394531 " fill-opacity="1" fill-rule="nonzero"/><path fill="#ce2524" d="M 174.757812 59.230469 L 174.757812 64.394531 L 169.617188 64.394531 L 169.617188 59.230469 L 174.757812 59.230469 " fill-opacity="1" fill-rule="nonzero"/><path fill="#e2262e" d="M 174.757812 54.0625 L 174.757812 59.230469 L 169.617188 59.230469 L 169.617188 54.0625 L 174.757812 54.0625 " fill-opacity="1" fill-rule="nonzero"/><path fill="#e93040" d="M 174.757812 48.890625 L 174.757812 54.0625 L 169.617188 54.0625 L 169.617188 48.890625 L 174.757812 48.890625 " fill-opacity="1" fill-rule="nonzero"/><path fill="#e93040" d="M 174.757812 43.722656 L 174.757812 48.890625 L 169.617188 48.890625 L 169.617188 43.722656 L 174.757812 43.722656 " fill-opacity="1" fill-rule="nonzero"/><path fill="#e93040" d="M 174.757812 38.558594 L 174.757812 43.722656 L 169.617188 43.722656 L 169.617188 38.558594 L 174.757812 38.558594 " fill-opacity="1" fill-rule="nonzero"/><path fill="#a61c22" d="M 174.757812 33.382812 L 174.757812 38.558594 L 169.617188 38.558594 L 169.617188 33.382812 L 174.757812 33.382812 " fill-opacity="1" fill-rule="nonzero"/><path fill="#a61c22" d="M 174.757812 28.214844 L 174.757812 33.382812 L 169.617188 33.382812 L 169.617188 28.214844 L 174.757812 28.214844 " fill-opacity="1" fill-rule="nonzero"/><path fill="#a61c22" d="M 169.617188 74.734375 L 169.617188 79.910156 L 164.46875 79.910156 L 164.46875 74.734375 L 169.617188 74.734375 " fill-opacity="1" fill-rule="nonzero"/><path fill="#a61c22" d="M 169.617188 69.570312 L 169.617188 74.734375 L 164.46875 74.734375 L 164.46875 69.570312 L 169.617188 69.570312 " fill-opacity="1" fill-rule="nonzero"/><path fill="#ce2524" d="M 169.617188 64.394531 L 169.617188 69.570312 L 164.46875 69.570312 L 164.46875 64.394531 L 169.617188 64.394531 " fill-opacity="1" fill-rule="nonzero"/><path fill="#e93040" d="M 169.617188 59.230469 L 169.617188 64.394531 L 164.46875 64.394531 L 164.46875 59.230469 L 169.617188 59.230469 " fill-opacity="1" fill-rule="nonzero"/><path fill="#e93040" d="M 169.617188 54.0625 L 169.617188 59.230469 L 164.46875 59.230469 L 164.46875 54.0625 L 169.617188 54.0625 " fill-opacity="1" fill-rule="nonzero"/><path fill="#ffffff" d="M 169.617188 48.890625 L 169.617188 54.0625 L 164.46875 54.0625 L 164.46875 48.890625 L 169.617188 48.890625 " fill-opacity="1" fill-rule="nonzero"/><path fill="#ffffff" d="M 169.617188 43.722656 L 169.617188 48.890625 L 164.46875 48.890625 L 164.46875 43.722656 L 169.617188 43.722656 " fill-opacity="1" fill-rule="nonzero"/><path fill="#e93040" d="M 169.617188 38.558594 L 169.617188 43.722656 L 164.46875 43.722656 L 164.46875 38.558594 L 169.617188 38.558594 " fill-opacity="1" fill-rule="nonzero"/><path fill="#e93040" d="M 169.617188 33.382812 L 169.617188 38.558594 L 164.46875 38.558594 L 164.46875 33.382812 L 169.617188 33.382812 " fill-opacity="1" fill-rule="nonzero"/><path fill="#a61c22" d="M 169.617188 28.214844 L 169.617188 33.382812 L 164.46875 33.382812 L 164.46875 28.214844 L 169.617188 28.214844 " fill-opacity="1" fill-rule="nonzero"/><path fill="#a61c22" d="M 164.46875 79.910156 L 164.46875 85.078125 L 159.332031 85.078125 L 159.332031 79.910156 L 164.46875 79.910156 " fill-opacity="1" fill-rule="nonzero"/><path fill="#a61c22" d="M 164.46875 74.734375 L 164.46875 79.910156 L 159.332031 79.910156 L 159.332031 74.734375 L 164.46875 74.734375 " fill-opacity="1" fill-rule="nonzero"/><path fill="#e2262e" d="M 164.46875 69.570312 L 164.46875 74.734375 L 159.332031 74.734375 L 159.332031 69.570312 L 164.46875 69.570312 " fill-opacity="1" fill-rule="nonzero"/><path fill="#e93040" d="M 164.46875 64.394531 L 164.46875 69.570312 L 159.332031 69.570312 L 159.332031 64.394531 L 164.46875 64.394531 " fill-opacity="1" fill-rule="nonzero"/><path fill="#f35a71" d="M 164.46875 59.230469 L 164.46875 64.394531 L 159.332031 64.394531 L 159.332031 59.230469 L 164.46875 59.230469 " fill-opacity="1" fill-rule="nonzero"/><path fill="#ffffff" d="M 164.46875 54.0625 L 164.46875 59.230469 L 159.332031 59.230469 L 159.332031 54.0625 L 164.46875 54.0625 " fill-opacity="1" fill-rule="nonzero"/><path fill="#ffffff" d="M 164.46875 48.890625 L 164.46875 54.0625 L 159.332031 54.0625 L 159.332031 48.890625 L 164.46875 48.890625 " fill-opacity="1" fill-rule="nonzero"/><path fill="#ffffff" d="M 164.46875 43.722656 L 164.46875 48.890625 L 159.332031 48.890625 L 159.332031 43.722656 L 164.46875 43.722656 " fill-opacity="1" fill-rule="nonzero"/><path fill="#ffffff" d="M 164.46875 38.558594 L 164.46875 43.722656 L 159.332031 43.722656 L 159.332031 38.558594 L 164.46875 38.558594 " fill-opacity="1" fill-rule="nonzero"/><path fill="#e93040" d="M 164.46875 33.382812 L 164.46875 38.558594 L 159.332031 38.558594 L 159.332031 33.382812 L 164.46875 33.382812 " fill-opacity="1" fill-rule="nonzero"/><path fill="#a61c22" d="M 164.46875 28.214844 L 164.46875 33.382812 L 159.332031 33.382812 L 159.332031 28.214844 L 164.46875 28.214844 " fill-opacity="1" fill-rule="nonzero"/><path fill="#a61c22" d="M 159.332031 85.078125 L 159.332031 90.242188 L 154.191406 90.242188 L 154.191406 85.078125 L 159.332031 85.078125 " fill-opacity="1" fill-rule="nonzero"/><path fill="#a61c22" d="M 159.332031 79.910156 L 159.332031 85.078125 L 154.191406 85.078125 L 154.191406 79.910156 L 159.332031 79.910156 " fill-opacity="1" fill-rule="nonzero"/><path fill="#e2262e" d="M 159.332031 74.734375 L 159.332031 79.910156 L 154.191406 79.910156 L 154.191406 74.734375 L 159.332031 74.734375 " fill-opacity="1" fill-rule="nonzero"/><path fill="#e2262e" d="M 159.332031 69.570312 L 159.332031 74.734375 L 154.191406 74.734375 L 154.191406 69.570312 L 159.332031 69.570312 " fill-opacity="1" fill-rule="nonzero"/><path fill="#e93040" d="M 159.332031 64.394531 L 159.332031 69.570312 L 154.191406 69.570312 L 154.191406 64.394531 L 159.332031 64.394531 " fill-opacity="1" fill-rule="nonzero"/><path fill="#ffffff" d="M 159.332031 59.230469 L 159.332031 64.394531 L 154.191406 64.394531 L 154.191406 59.230469 L 159.332031 59.230469 " fill-opacity="1" fill-rule="nonzero"/><path fill="#f35a71" d="M 159.332031 54.0625 L 159.332031 59.230469 L 154.191406 59.230469 L 154.191406 54.0625 L 159.332031 54.0625 " fill-opacity="1" fill-rule="nonzero"/><path fill="#f35a71" d="M 159.332031 48.890625 L 159.332031 54.0625 L 154.191406 54.0625 L 154.191406 48.890625 L 159.332031 48.890625 " fill-opacity="1" fill-rule="nonzero"/><path fill="#f35a71" d="M 159.332031 43.722656 L 159.332031 48.890625 L 154.191406 48.890625 L 154.191406 43.722656 L 159.332031 43.722656 " fill-opacity="1" fill-rule="nonzero"/><path fill="#f35a71" d="M 159.332031 38.558594 L 159.332031 43.722656 L 154.191406 43.722656 L 154.191406 38.558594 L 159.332031 38.558594 " fill-opacity="1" fill-rule="nonzero"/><path fill="#ffffff" d="M 159.332031 33.382812 L 159.332031 38.558594 L 154.191406 38.558594 L 154.191406 33.382812 L 159.332031 33.382812 " fill-opacity="1" fill-rule="nonzero"/><path fill="#e2262e" d="M 159.332031 28.214844 L 159.332031 33.382812 L 154.191406 33.382812 L 154.191406 28.214844 L 159.332031 28.214844 " fill-opacity="1" fill-rule="nonzero"/><g clip-path="url(#bec5c4ac8f)"><path fill="#a61c22" d="M 159.332031 23.042969 L 159.332031 28.214844 L 154.191406 28.214844 L 154.191406 23.042969 L 159.332031 23.042969 " fill-opacity="1" fill-rule="nonzero"/></g><path fill="#a61c22" d="M 154.191406 90.242188 L 154.191406 95.417969 L 149.042969 95.417969 L 149.042969 90.242188 L 154.191406 90.242188 " fill-opacity="1" fill-rule="nonzero"/><path fill="#a61c22" d="M 154.191406 85.078125 L 154.191406 90.242188 L 149.042969 90.242188 L 149.042969 85.078125 L 154.191406 85.078125 " fill-opacity="1" fill-rule="nonzero"/><path fill="#e2262e" d="M 154.191406 79.910156 L 154.191406 85.078125 L 149.042969 85.078125 L 149.042969 79.910156 L 154.191406 79.910156 " fill-opacity="1" fill-rule="nonzero"/><path fill="#e2262e" d="M 154.191406 74.734375 L 154.191406 79.910156 L 149.042969 79.910156 L 149.042969 74.734375 L 154.191406 74.734375 " fill-opacity="1" fill-rule="nonzero"/><path fill="#ffffff" d="M 154.191406 69.570312 L 154.191406 74.734375 L 149.042969 74.734375 L 149.042969 69.570312 L 154.191406 69.570312 " fill-opacity="1" fill-rule="nonzero"/><path fill="#f35a71" d="M 154.191406 64.394531 L 154.191406 69.570312 L 149.042969 69.570312 L 149.042969 64.394531 L 154.191406 64.394531 " fill-opacity="1" fill-rule="nonzero"/><path fill="#ce2524" d="M 154.191406 59.230469 L 154.191406 64.394531 L 149.042969 64.394531 L 149.042969 59.230469 L 154.191406 59.230469 " fill-opacity="1" fill-rule="nonzero"/><path fill="#ce2524" d="M 154.191406 54.0625 L 154.191406 59.230469 L 149.042969 59.230469 L 149.042969 54.0625 L 154.191406 54.0625 " fill-opacity="1" fill-rule="nonzero"/><path fill="#ce2524" d="M 154.191406 48.890625 L 154.191406 54.0625 L 149.042969 54.0625 L 149.042969 48.890625 L 154.191406 48.890625 " fill-opacity="1" fill-rule="nonzero"/><path fill="#ce2524" d="M 154.191406 43.722656 L 154.191406 48.890625 L 149.042969 48.890625 L 149.042969 43.722656 L 154.191406 43.722656 " fill-opacity="1" fill-rule="nonzero"/><path fill="#f35a71" d="M 154.191406 38.558594 L 154.191406 43.722656 L 149.042969 43.722656 L 149.042969 38.558594 L 154.191406 38.558594 " fill-opacity="1" fill-rule="nonzero"/><path fill="#f35a71" d="M 154.191406 33.382812 L 154.191406 38.558594 L 149.042969 38.558594 L 149.042969 33.382812 L 154.191406 33.382812 " fill-opacity="1" fill-rule="nonzero"/><path fill="#e2262e" d="M 154.191406 28.214844 L 154.191406 33.382812 L 149.042969 33.382812 L 149.042969 28.214844 L 154.191406 28.214844 " fill-opacity="1" fill-rule="nonzero"/><g clip-path="url(#ea0c6982d5)"><path fill="#a61c22" d="M 154.191406 23.042969 L 154.191406 28.214844 L 149.042969 28.214844 L 149.042969 23.042969 L 154.191406 23.042969 " fill-opacity="1" fill-rule="nonzero"/></g><path fill="#a61c22" d="M 149.042969 95.417969 L 149.042969 100.582031 L 143.90625 100.582031 L 143.90625 95.417969 L 149.042969 95.417969 " fill-opacity="1" fill-rule="nonzero"/><path fill="#a61c22" d="M 149.042969 90.242188 L 149.042969 95.417969 L 143.90625 95.417969 L 143.90625 90.242188 L 149.042969 90.242188 " fill-opacity="1" fill-rule="nonzero"/><path fill="#e2262e" d="M 149.042969 85.078125 L 149.042969 90.242188 L 143.90625 90.242188 L 143.90625 85.078125 L 149.042969 85.078125 " fill-opacity="1" fill-rule="nonzero"/><path fill="#e2262e" d="M 149.042969 79.910156 L 149.042969 85.078125 L 143.90625 85.078125 L 143.90625 79.910156 L 149.042969 79.910156 " fill-opacity="1" fill-rule="nonzero"/><path fill="#e93040" d="M 149.042969 74.734375 L 149.042969 79.910156 L 143.90625 79.910156 L 143.90625 74.734375 L 149.042969 74.734375 " fill-opacity="1" fill-rule="nonzero"/><path fill="#ce2524" d="M 149.042969 69.570312 L 149.042969 74.734375 L 143.90625 74.734375 L 143.90625 69.570312 L 149.042969 69.570312 " fill-opacity="1" fill-rule="nonzero"/><path fill="#ce2524" d="M 149.042969 64.394531 L 149.042969 69.570312 L 143.90625 69.570312 L 143.90625 64.394531 L 149.042969 64.394531 " fill-opacity="1" fill-rule="nonzero"/><path fill="#ce2524" d="M 149.042969 59.230469 L 149.042969 64.394531 L 143.90625 64.394531 L 143.90625 59.230469 L 149.042969 59.230469 " fill-opacity="1" fill-rule="nonzero"/><path fill="#ce2524" d="M 149.042969 54.0625 L 149.042969 59.230469 L 143.90625 59.230469 L 143.90625 54.0625 L 149.042969 54.0625 " fill-opacity="1" fill-rule="nonzero"/><path fill="#ce2524" d="M 149.042969 48.890625 L 149.042969 54.0625 L 143.90625 54.0625 L 143.90625 48.890625 L 149.042969 48.890625 " fill-opacity="1" fill-rule="nonzero"/><path fill="#ce2524" d="M 149.042969 43.722656 L 149.042969 48.890625 L 143.90625 48.890625 L 143.90625 43.722656 L 149.042969 43.722656 " fill-opacity="1" fill-rule="nonzero"/><path fill="#ce2524" d="M 149.042969 38.558594 L 149.042969 43.722656 L 143.90625 43.722656 L 143.90625 38.558594 L 149.042969 38.558594 " fill-opacity="1" fill-rule="nonzero"/><path fill="#f35a71" d="M 149.042969 33.382812 L 149.042969 38.558594 L 143.90625 38.558594 L 143.90625 33.382812 L 149.042969 33.382812 " fill-opacity="1" fill-rule="nonzero"/><path fill="#e2262e" d="M 149.042969 28.214844 L 149.042969 33.382812 L 143.90625 33.382812 L 143.90625 28.214844 L 149.042969 28.214844 " fill-opacity="1" fill-rule="nonzero"/><g clip-path="url(#d59128a853)"><path fill="#a61c22" d="M 149.042969 23.042969 L 149.042969 28.214844 L 143.90625 28.214844 L 143.90625 23.042969 L 149.042969 23.042969 " fill-opacity="1" fill-rule="nonzero"/></g><path fill="#a61c22" d="M 143.90625 100.582031 L 143.90625 105.75 L 138.765625 105.75 L 138.765625 100.582031 L 143.90625 100.582031 " fill-opacity="1" fill-rule="nonzero"/><path fill="#a61c22" d="M 143.90625 95.417969 L 143.90625 100.582031 L 138.765625 100.582031 L 138.765625 95.417969 L 143.90625 95.417969 " fill-opacity="1" fill-rule="nonzero"/><path fill="#e2262e" d="M 143.90625 90.242188 L 143.90625 95.417969 L 138.765625 95.417969 L 138.765625 90.242188 L 143.90625 90.242188 " fill-opacity="1" fill-rule="nonzero"/><path fill="#e2262e" d="M 143.90625 85.078125 L 143.90625 90.242188 L 138.765625 90.242188 L 138.765625 85.078125 L 143.90625 85.078125 " fill-opacity="1" fill-rule="nonzero"/><path fill="#e2262e" d="M 143.90625 79.910156 L 143.90625 85.078125 L 138.765625 85.078125 L 138.765625 79.910156 L 143.90625 79.910156 " fill-opacity="1" fill-rule="nonzero"/><path fill="#ce2524" d="M 143.90625 74.734375 L 143.90625 79.910156 L 138.765625 79.910156 L 138.765625 74.734375 L 143.90625 74.734375 " fill-opacity="1" fill-rule="nonzero"/><path fill="#ce2524" d="M 143.90625 69.570312 L 143.90625 74.734375 L 138.765625 74.734375 L 138.765625 69.570312 L 143.90625 69.570312 " fill-opacity="1" fill-rule="nonzero"/><path fill="#ce2524" d="M 143.90625 64.394531 L 143.90625 69.570312 L 138.765625 69.570312 L 138.765625 64.394531 L 143.90625 64.394531 " fill-opacity="1" fill-rule="nonzero"/><path fill="#ce2524" d="M 143.90625 59.230469 L 143.90625 64.394531 L 138.765625 64.394531 L 138.765625 59.230469 L 143.90625 59.230469 " fill-opacity="1" fill-rule="nonzero"/><path fill="#ce2524" d="M 143.90625 54.0625 L 143.90625 59.230469 L 138.765625 59.230469 L 138.765625 54.0625 L 143.90625 54.0625 " fill-opacity="1" fill-rule="nonzero"/><path fill="#ce2524" d="M 143.90625 48.890625 L 143.90625 54.0625 L 138.765625 54.0625 L 138.765625 48.890625 L 143.90625 48.890625 " fill-opacity="1" fill-rule="nonzero"/><path fill="#ce2524" d="M 143.90625 43.722656 L 143.90625 48.890625 L 138.765625 48.890625 L 138.765625 43.722656 L 143.90625 43.722656 " fill-opacity="1" fill-rule="nonzero"/><path fill="#f35a71" d="M 143.90625 38.558594 L 143.90625 43.722656 L 138.765625 43.722656 L 138.765625 38.558594 L 143.90625 38.558594 " fill-opacity="1" fill-rule="nonzero"/><path fill="#ce2524" d="M 143.90625 33.382812 L 143.90625 38.558594 L 138.765625 38.558594 L 138.765625 33.382812 L 143.90625 33.382812 " fill-opacity="1" fill-rule="nonzero"/><path fill="#e2262e" d="M 143.90625 28.214844 L 143.90625 33.382812 L 138.765625 33.382812 L 138.765625 28.214844 L 143.90625 28.214844 " fill-opacity="1" fill-rule="nonzero"/><g clip-path="url(#0778352db9)"><path fill="#a61c22" d="M 143.90625 23.042969 L 143.90625 28.214844 L 138.765625 28.214844 L 138.765625 23.042969 L 143.90625 23.042969 " fill-opacity="1" fill-rule="nonzero"/></g><path fill="#a61c22" d="M 138.765625 105.75 L 138.765625 110.921875 L 133.617188 110.921875 L 133.617188 105.75 L 138.765625 105.75 " fill-opacity="1" fill-rule="nonzero"/><path fill="#a61c22" d="M 138.765625 100.582031 L 138.765625 105.75 L 133.617188 105.75 L 133.617188 100.582031 L 138.765625 100.582031 " fill-opacity="1" fill-rule="nonzero"/><path fill="#e2262e" d="M 138.765625 95.417969 L 138.765625 100.582031 L 133.617188 100.582031 L 133.617188 95.417969 L 138.765625 95.417969 " fill-opacity="1" fill-rule="nonzero"/><path fill="#e2262e" d="M 138.765625 90.242188 L 138.765625 95.417969 L 133.617188 95.417969 L 133.617188 90.242188 L 138.765625 90.242188 " fill-opacity="1" fill-rule="nonzero"/><path fill="#e2262e" d="M 138.765625 85.078125 L 138.765625 90.242188 L 133.617188 90.242188 L 133.617188 85.078125 L 138.765625 85.078125 " fill-opacity="1" fill-rule="nonzero"/><path fill="#ce2524" d="M 138.765625 79.910156 L 138.765625 85.078125 L 133.617188 85.078125 L 133.617188 79.910156 L 138.765625 79.910156 " fill-opacity="1" fill-rule="nonzero"/><path fill="#ce2524" d="M 138.765625 74.734375 L 138.765625 79.910156 L 133.617188 79.910156 L 133.617188 74.734375 L 138.765625 74.734375 " fill-opacity="1" fill-rule="nonzero"/><path fill="#ce2524" d="M 138.765625 69.570312 L 138.765625 74.734375 L 133.617188 74.734375 L 133.617188 69.570312 L 138.765625 69.570312 " fill-opacity="1" fill-rule="nonzero"/><path fill="#ce2524" d="M 138.765625 64.394531 L 138.765625 69.570312 L 133.617188 69.570312 L 133.617188 64.394531 L 138.765625 64.394531 " fill-opacity="1" fill-rule="nonzero"/><path fill="#ce2524" d="M 138.765625 59.230469 L 138.765625 64.394531 L 133.617188 64.394531 L 133.617188 59.230469 L 138.765625 59.230469 " fill-opacity="1" fill-rule="nonzero"/><path fill="#ce2524" d="M 138.765625 54.0625 L 138.765625 59.230469 L 133.617188 59.230469 L 133.617188 54.0625 L 138.765625 54.0625 " fill-opacity="1" fill-rule="nonzero"/><path fill="#ce2524" d="M 138.765625 48.890625 L 138.765625 54.0625 L 133.617188 54.0625 L 133.617188 48.890625 L 138.765625 48.890625 " fill-opacity="1" fill-rule="nonzero"/><path fill="#ce2524" d="M 138.765625 43.722656 L 138.765625 48.890625 L 133.617188 48.890625 L 133.617188 43.722656 L 138.765625 43.722656 " fill-opacity="1" fill-rule="nonzero"/><path fill="#ce2524" d="M 138.765625 38.558594 L 138.765625 43.722656 L 133.617188 43.722656 L 133.617188 38.558594 L 138.765625 38.558594 " fill-opacity="1" fill-rule="nonzero"/><path fill="#ce2524" d="M 138.765625 33.382812 L 138.765625 38.558594 L 133.617188 38.558594 L 133.617188 33.382812 L 138.765625 33.382812 " fill-opacity="1" fill-rule="nonzero"/><path fill="#a61c22" d="M 138.765625 28.214844 L 138.765625 33.382812 L 133.617188 33.382812 L 133.617188 28.214844 L 138.765625 28.214844 " fill-opacity="1" fill-rule="nonzero"/><g clip-path="url(#e152202415)"><path fill="#a61c22" d="M 138.765625 23.042969 L 138.765625 28.214844 L 133.617188 28.214844 L 133.617188 23.042969 L 138.765625 23.042969 " fill-opacity="1" fill-rule="nonzero"/></g><path fill="#a61c22" d="M 133.617188 110.921875 L 133.617188 116.089844 L 128.476562 116.089844 L 128.476562 110.921875 L 133.617188 110.921875 " fill-opacity="1" fill-rule="nonzero"/><path fill="#a61c22" d="M 133.617188 105.75 L 133.617188 110.921875 L 128.476562 110.921875 L 128.476562 105.75 L 133.617188 105.75 " fill-opacity="1" fill-rule="nonzero"/><path fill="#e2262e" d="M 133.617188 100.582031 L 133.617188 105.75 L 128.476562 105.75 L 128.476562 100.582031 L 133.617188 100.582031 " fill-opacity="1" fill-rule="nonzero"/><path fill="#e2262e" d="M 133.617188 95.417969 L 133.617188 100.582031 L 128.476562 100.582031 L 128.476562 95.417969 L 133.617188 95.417969 " fill-opacity="1" fill-rule="nonzero"/><path fill="#e2262e" d="M 133.617188 90.242188 L 133.617188 95.417969 L 128.476562 95.417969 L 128.476562 90.242188 L 133.617188 90.242188 " fill-opacity="1" fill-rule="nonzero"/><path fill="#ce2524" d="M 133.617188 85.078125 L 133.617188 90.242188 L 128.476562 90.242188 L 128.476562 85.078125 L 133.617188 85.078125 " fill-opacity="1" fill-rule="nonzero"/><path fill="#ce2524" d="M 133.617188 79.910156 L 133.617188 85.078125 L 128.476562 85.078125 L 128.476562 79.910156 L 133.617188 79.910156 " fill-opacity="1" fill-rule="nonzero"/><path fill="#ce2524" d="M 133.617188 74.734375 L 133.617188 79.910156 L 128.476562 79.910156 L 128.476562 74.734375 L 133.617188 74.734375 " fill-opacity="1" fill-rule="nonzero"/><path fill="#ce2524" d="M 133.617188 69.570312 L 133.617188 74.734375 L 128.476562 74.734375 L 128.476562 69.570312 L 133.617188 69.570312 " fill-opacity="1" fill-rule="nonzero"/><path fill="#ce2524" d="M 133.617188 64.394531 L 133.617188 69.570312 L 128.476562 69.570312 L 128.476562 64.394531 L 133.617188 64.394531 " fill-opacity="1" fill-rule="nonzero"/><path fill="#ce2524" d="M 133.617188 59.230469 L 133.617188 64.394531 L 128.476562 64.394531 L 128.476562 59.230469 L 133.617188 59.230469 " fill-opacity="1" fill-rule="nonzero"/><path fill="#ce2524" d="M 133.617188 54.0625 L 133.617188 59.230469 L 128.476562 59.230469 L 128.476562 54.0625 L 133.617188 54.0625 " fill-opacity="1" fill-rule="nonzero"/><path fill="#ce2524" d="M 133.617188 48.890625 L 133.617188 54.0625 L 128.476562 54.0625 L 128.476562 48.890625 L 133.617188 48.890625 " fill-opacity="1" fill-rule="nonzero"/><path fill="#ce2524" d="M 133.617188 43.722656 L 133.617188 48.890625 L 128.476562 48.890625 L 128.476562 43.722656 L 133.617188 43.722656 " fill-opacity="1" fill-rule="nonzero"/><path fill="#ce2524" d="M 133.617188 38.558594 L 133.617188 43.722656 L 128.476562 43.722656 L 128.476562 38.558594 L 133.617188 38.558594 " fill-opacity="1" fill-rule="nonzero"/><path fill="#a61c22" d="M 133.617188 33.382812 L 133.617188 38.558594 L 128.476562 38.558594 L 128.476562 33.382812 L 133.617188 33.382812 " fill-opacity="1" fill-rule="nonzero"/><path fill="#a61c22" d="M 133.617188 28.214844 L 133.617188 33.382812 L 128.476562 33.382812 L 128.476562 28.214844 L 133.617188 28.214844 " fill-opacity="1" fill-rule="nonzero"/><g clip-path="url(#87c5a77742)"><path fill="#a61c22" d="M 128.476562 116.089844 L 128.476562 121.265625 L 123.328125 121.265625 L 123.328125 116.089844 L 128.476562 116.089844 " fill-opacity="1" fill-rule="nonzero"/></g><path fill="#a61c22" d="M 128.476562 110.921875 L 128.476562 116.089844 L 123.328125 116.089844 L 123.328125 110.921875 L 128.476562 110.921875 " fill-opacity="1" fill-rule="nonzero"/><path fill="#ce2524" d="M 128.476562 105.75 L 128.476562 110.921875 L 123.328125 110.921875 L 123.328125 105.75 L 128.476562 105.75 " fill-opacity="1" fill-rule="nonzero"/><path fill="#e2262e" d="M 128.476562 100.582031 L 128.476562 105.75 L 123.328125 105.75 L 123.328125 100.582031 L 128.476562 100.582031 " fill-opacity="1" fill-rule="nonzero"/><path fill="#e2262e" d="M 128.476562 95.417969 L 128.476562 100.582031 L 123.328125 100.582031 L 123.328125 95.417969 L 128.476562 95.417969 " fill-opacity="1" fill-rule="nonzero"/><path fill="#ce2524" d="M 128.476562 90.242188 L 128.476562 95.417969 L 123.328125 95.417969 L 123.328125 90.242188 L 128.476562 90.242188 " fill-opacity="1" fill-rule="nonzero"/><path fill="#ce2524" d="M 128.476562 85.078125 L 128.476562 90.242188 L 123.328125 90.242188 L 123.328125 85.078125 L 128.476562 85.078125 " fill-opacity="1" fill-rule="nonzero"/><path fill="#ce2524" d="M 128.476562 79.910156 L 128.476562 85.078125 L 123.328125 85.078125 L 123.328125 79.910156 L 128.476562 79.910156 " fill-opacity="1" fill-rule="nonzero"/><path fill="#ce2524" d="M 128.476562 74.734375 L 128.476562 79.910156 L 123.328125 79.910156 L 123.328125 74.734375 L 128.476562 74.734375 " fill-opacity="1" fill-rule="nonzero"/><path fill="#ce2524" d="M 128.476562 69.570312 L 128.476562 74.734375 L 123.328125 74.734375 L 123.328125 69.570312 L 128.476562 69.570312 " fill-opacity="1" fill-rule="nonzero"/><path fill="#ce2524" d="M 128.476562 64.394531 L 128.476562 69.570312 L 123.328125 69.570312 L 123.328125 64.394531 L 128.476562 64.394531 " fill-opacity="1" fill-rule="nonzero"/><path fill="#ce2524" d="M 128.476562 59.230469 L 128.476562 64.394531 L 123.328125 64.394531 L 123.328125 59.230469 L 128.476562 59.230469 " fill-opacity="1" fill-rule="nonzero"/><path fill="#ce2524" d="M 128.476562 54.0625 L 128.476562 59.230469 L 123.328125 59.230469 L 123.328125 54.0625 L 128.476562 54.0625 " fill-opacity="1" fill-rule="nonzero"/><path fill="#ce2524" d="M 128.476562 48.890625 L 128.476562 54.0625 L 123.328125 54.0625 L 123.328125 48.890625 L 128.476562 48.890625 " fill-opacity="1" fill-rule="nonzero"/><path fill="#ce2524" d="M 128.476562 43.722656 L 128.476562 48.890625 L 123.328125 48.890625 L 123.328125 43.722656 L 128.476562 43.722656 " fill-opacity="1" fill-rule="nonzero"/><path fill="#ce2524" d="M 128.476562 38.558594 L 128.476562 43.722656 L 123.328125 43.722656 L 123.328125 38.558594 L 128.476562 38.558594 " fill-opacity="1" fill-rule="nonzero"/><path fill="#a61c22" d="M 128.476562 33.382812 L 128.476562 38.558594 L 123.328125 38.558594 L 123.328125 33.382812 L 128.476562 33.382812 " fill-opacity="1" fill-rule="nonzero"/><path fill="#a61c22" d="M 123.328125 110.921875 L 123.328125 116.089844 L 118.191406 116.089844 L 118.191406 110.921875 L 123.328125 110.921875 " fill-opacity="1" fill-rule="nonzero"/><path fill="#a61c22" d="M 123.328125 105.75 L 123.328125 110.921875 L 118.191406 110.921875 L 118.191406 105.75 L 123.328125 105.75 " fill-opacity="1" fill-rule="nonzero"/><path fill="#e2262e" d="M 123.328125 100.582031 L 123.328125 105.75 L 118.191406 105.75 L 118.191406 100.582031 L 123.328125 100.582031 " fill-opacity="1" fill-rule="nonzero"/><path fill="#e2262e" d="M 123.328125 95.417969 L 123.328125 100.582031 L 118.191406 100.582031 L 118.191406 95.417969 L 123.328125 95.417969 " fill-opacity="1" fill-rule="nonzero"/><path fill="#ce2524" d="M 123.328125 90.242188 L 123.328125 95.417969 L 118.191406 95.417969 L 118.191406 90.242188 L 123.328125 90.242188 " fill-opacity="1" fill-rule="nonzero"/><path fill="#ce2524" d="M 123.328125 85.078125 L 123.328125 90.242188 L 118.191406 90.242188 L 118.191406 85.078125 L 123.328125 85.078125 " fill-opacity="1" fill-rule="nonzero"/><path fill="#ce2524" d="M 123.328125 79.910156 L 123.328125 85.078125 L 118.191406 85.078125 L 118.191406 79.910156 L 123.328125 79.910156 " fill-opacity="1" fill-rule="nonzero"/><path fill="#ce2524" d="M 123.328125 74.734375 L 123.328125 79.910156 L 118.191406 79.910156 L 118.191406 74.734375 L 123.328125 74.734375 " fill-opacity="1" fill-rule="nonzero"/><path fill="#ce2524" d="M 123.328125 69.570312 L 123.328125 74.734375 L 118.191406 74.734375 L 118.191406 69.570312 L 123.328125 69.570312 " fill-opacity="1" fill-rule="nonzero"/><path fill="#ce2524" d="M 123.328125 64.394531 L 123.328125 69.570312 L 118.191406 69.570312 L 118.191406 64.394531 L 123.328125 64.394531 " fill-opacity="1" fill-rule="nonzero"/><path fill="#ce2524" d="M 123.328125 59.230469 L 123.328125 64.394531 L 118.191406 64.394531 L 118.191406 59.230469 L 123.328125 59.230469 " fill-opacity="1" fill-rule="nonzero"/><path fill="#ce2524" d="M 123.328125 54.0625 L 123.328125 59.230469 L 118.191406 59.230469 L 118.191406 54.0625 L 123.328125 54.0625 " fill-opacity="1" fill-rule="nonzero"/><path fill="#ce2524" d="M 123.328125 48.890625 L 123.328125 54.0625 L 118.191406 54.0625 L 118.191406 48.890625 L 123.328125 48.890625 " fill-opacity="1" fill-rule="nonzero"/><path fill="#ce2524" d="M 123.328125 43.722656 L 123.328125 48.890625 L 118.191406 48.890625 L 118.191406 43.722656 L 123.328125 43.722656 " fill-opacity="1" fill-rule="nonzero"/><path fill="#ce2524" d="M 123.328125 38.558594 L 123.328125 43.722656 L 118.191406 43.722656 L 118.191406 38.558594 L 123.328125 38.558594 " fill-opacity="1" fill-rule="nonzero"/><path fill="#a61c22" d="M 123.328125 33.382812 L 123.328125 38.558594 L 118.191406 38.558594 L 118.191406 33.382812 L 123.328125 33.382812 " fill-opacity="1" fill-rule="nonzero"/><path fill="#a61c22" d="M 123.328125 28.214844 L 123.328125 33.382812 L 118.191406 33.382812 L 118.191406 28.214844 L 123.328125 28.214844 " fill-opacity="1" fill-rule="nonzero"/><path fill="#a61c22" d="M 118.191406 105.75 L 118.191406 110.921875 L 113.050781 110.921875 L 113.050781 105.75 L 118.191406 105.75 " fill-opacity="1" fill-rule="nonzero"/><path fill="#a61c22" d="M 118.191406 100.582031 L 118.191406 105.75 L 113.050781 105.75 L 113.050781 100.582031 L 118.191406 100.582031 " fill-opacity="1" fill-rule="nonzero"/><path fill="#e2262e" d="M 118.191406 95.417969 L 118.191406 100.582031 L 113.050781 100.582031 L 113.050781 95.417969 L 118.191406 95.417969 " fill-opacity="1" fill-rule="nonzero"/><path fill="#e2262e" d="M 118.191406 90.242188 L 118.191406 95.417969 L 113.050781 95.417969 L 113.050781 90.242188 L 118.191406 90.242188 " fill-opacity="1" fill-rule="nonzero"/><path fill="#ce2524" d="M 118.191406 85.078125 L 118.191406 90.242188 L 113.050781 90.242188 L 113.050781 85.078125 L 118.191406 85.078125 " fill-opacity="1" fill-rule="nonzero"/><path fill="#ce2524" d="M 118.191406 79.910156 L 118.191406 85.078125 L 113.050781 85.078125 L 113.050781 79.910156 L 118.191406 79.910156 " fill-opacity="1" fill-rule="nonzero"/><path fill="#ce2524" d="M 118.191406 74.734375 L 118.191406 79.910156 L 113.050781 79.910156 L 113.050781 74.734375 L 118.191406 74.734375 " fill-opacity="1" fill-rule="nonzero"/><path fill="#ce2524" d="M 118.191406 69.570312 L 118.191406 74.734375 L 113.050781 74.734375 L 113.050781 69.570312 L 118.191406 69.570312 " fill-opacity="1" fill-rule="nonzero"/><path fill="#ce2524" d="M 118.191406 64.394531 L 118.191406 69.570312 L 113.050781 69.570312 L 113.050781 64.394531 L 118.191406 64.394531 " fill-opacity="1" fill-rule="nonzero"/><path fill="#ce2524" d="M 118.191406 59.230469 L 118.191406 64.394531 L 113.050781 64.394531 L 113.050781 59.230469 L 118.191406 59.230469 " fill-opacity="1" fill-rule="nonzero"/><path fill="#ce2524" d="M 118.191406 54.0625 L 118.191406 59.230469 L 113.050781 59.230469 L 113.050781 54.0625 L 118.191406 54.0625 " fill-opacity="1" fill-rule="nonzero"/><path fill="#ce2524" d="M 118.191406 48.890625 L 118.191406 54.0625 L 113.050781 54.0625 L 113.050781 48.890625 L 118.191406 48.890625 " fill-opacity="1" fill-rule="nonzero"/><path fill="#ce2524" d="M 118.191406 43.722656 L 118.191406 48.890625 L 113.050781 48.890625 L 113.050781 43.722656 L 118.191406 43.722656 " fill-opacity="1" fill-rule="nonzero"/><path fill="#ce2524" d="M 118.191406 38.558594 L 118.191406 43.722656 L 113.050781 43.722656 L 113.050781 38.558594 L 118.191406 38.558594 " fill-opacity="1" fill-rule="nonzero"/><path fill="#ce2524" d="M 118.191406 33.382812 L 118.191406 38.558594 L 113.050781 38.558594 L 113.050781 33.382812 L 118.191406 33.382812 " fill-opacity="1" fill-rule="nonzero"/><path fill="#a61c22" d="M 118.191406 28.214844 L 118.191406 33.382812 L 113.050781 33.382812 L 113.050781 28.214844 L 118.191406 28.214844 " fill-opacity="1" fill-rule="nonzero"/><g clip-path="url(#335cad1c56)"><path fill="#a61c22" d="M 118.191406 23.042969 L 118.191406 28.214844 L 113.050781 28.214844 L 113.050781 23.042969 L 118.191406 23.042969 " fill-opacity="1" fill-rule="nonzero"/></g><path fill="#a61c22" d="M 113.050781 100.582031 L 113.050781 105.75 L 107.902344 105.75 L 107.902344 100.582031 L 113.050781 100.582031 " fill-opacity="1" fill-rule="nonzero"/><path fill="#a61c22" d="M 113.050781 95.417969 L 113.050781 100.582031 L 107.902344 100.582031 L 107.902344 95.417969 L 113.050781 95.417969 " fill-opacity="1" fill-rule="nonzero"/><path fill="#e2262e" d="M 113.050781 90.242188 L 113.050781 95.417969 L 107.902344 95.417969 L 107.902344 90.242188 L 113.050781 90.242188 " fill-opacity="1" fill-rule="nonzero"/><path fill="#e2262e" d="M 113.050781 85.078125 L 113.050781 90.242188 L 107.902344 90.242188 L 107.902344 85.078125 L 113.050781 85.078125 " fill-opacity="1" fill-rule="nonzero"/><path fill="#ce2524" d="M 113.050781 79.910156 L 113.050781 85.078125 L 107.902344 85.078125 L 107.902344 79.910156 L 113.050781 79.910156 " fill-opacity="1" fill-rule="nonzero"/><path fill="#ce2524" d="M 113.050781 74.734375 L 113.050781 79.910156 L 107.902344 79.910156 L 107.902344 74.734375 L 113.050781 74.734375 " fill-opacity="1" fill-rule="nonzero"/><path fill="#ce2524" d="M 113.050781 69.570312 L 113.050781 74.734375 L 107.902344 74.734375 L 107.902344 69.570312 L 113.050781 69.570312 " fill-opacity="1" fill-rule="nonzero"/><path fill="#ce2524" d="M 113.050781 64.394531 L 113.050781 69.570312 L 107.902344 69.570312 L 107.902344 64.394531 L 113.050781 64.394531 " fill-opacity="1" fill-rule="nonzero"/><path fill="#ce2524" d="M 113.050781 59.230469 L 113.050781 64.394531 L 107.902344 64.394531 L 107.902344 59.230469 L 113.050781 59.230469 " fill-opacity="1" fill-rule="nonzero"/><path fill="#ce2524" d="M 113.050781 54.0625 L 113.050781 59.230469 L 107.902344 59.230469 L 107.902344 54.0625 L 113.050781 54.0625 " fill-opacity="1" fill-rule="nonzero"/><path fill="#ce2524" d="M 113.050781 48.890625 L 113.050781 54.0625 L 107.902344 54.0625 L 107.902344 48.890625 L 113.050781 48.890625 " fill-opacity="1" fill-rule="nonzero"/><path fill="#ce2524" d="M 113.050781 43.722656 L 113.050781 48.890625 L 107.902344 48.890625 L 107.902344 43.722656 L 113.050781 43.722656 " fill-opacity="1" fill-rule="nonzero"/><path fill="#ce2524" d="M 113.050781 38.558594 L 113.050781 43.722656 L 107.902344 43.722656 L 107.902344 38.558594 L 113.050781 38.558594 " fill-opacity="1" fill-rule="nonzero"/><path fill="#ce2524" d="M 113.050781 33.382812 L 113.050781 38.558594 L 107.902344 38.558594 L 107.902344 33.382812 L 113.050781 33.382812 " fill-opacity="1" fill-rule="nonzero"/><path fill="#ce2524" d="M 113.050781 28.214844 L 113.050781 33.382812 L 107.902344 33.382812 L 107.902344 28.214844 L 113.050781 28.214844 " fill-opacity="1" fill-rule="nonzero"/><g clip-path="url(#bb0fdd7c64)"><path fill="#a61c22" d="M 113.050781 23.042969 L 113.050781 28.214844 L 107.902344 28.214844 L 107.902344 23.042969 L 113.050781 23.042969 " fill-opacity="1" fill-rule="nonzero"/></g><path fill="#a61c22" d="M 107.902344 95.417969 L 107.902344 100.582031 L 102.765625 100.582031 L 102.765625 95.417969 L 107.902344 95.417969 " fill-opacity="1" fill-rule="nonzero"/><path fill="#a61c22" d="M 107.902344 90.242188 L 107.902344 95.417969 L 102.765625 95.417969 L 102.765625 90.242188 L 107.902344 90.242188 " fill-opacity="1" fill-rule="nonzero"/><path fill="#ce2524" d="M 107.902344 85.078125 L 107.902344 90.242188 L 102.765625 90.242188 L 102.765625 85.078125 L 107.902344 85.078125 " fill-opacity="1" fill-rule="nonzero"/><path fill="#e2262e" d="M 107.902344 79.910156 L 107.902344 85.078125 L 102.765625 85.078125 L 102.765625 79.910156 L 107.902344 79.910156 " fill-opacity="1" fill-rule="nonzero"/><path fill="#ce2524" d="M 107.902344 74.734375 L 107.902344 79.910156 L 102.765625 79.910156 L 102.765625 74.734375 L 107.902344 74.734375 " fill-opacity="1" fill-rule="nonzero"/><path fill="#ce2524" d="M 107.902344 69.570312 L 107.902344 74.734375 L 102.765625 74.734375 L 102.765625 69.570312 L 107.902344 69.570312 " fill-opacity="1" fill-rule="nonzero"/><path fill="#ce2524" d="M 107.902344 64.394531 L 107.902344 69.570312 L 102.765625 69.570312 L 102.765625 64.394531 L 107.902344 64.394531 " fill-opacity="1" fill-rule="nonzero"/><path fill="#ce2524" d="M 107.902344 59.230469 L 107.902344 64.394531 L 102.765625 64.394531 L 102.765625 59.230469 L 107.902344 59.230469 " fill-opacity="1" fill-rule="nonzero"/><path fill="#ce2524" d="M 107.902344 54.0625 L 107.902344 59.230469 L 102.765625 59.230469 L 102.765625 54.0625 L 107.902344 54.0625 " fill-opacity="1" fill-rule="nonzero"/><path fill="#ce2524" d="M 107.902344 48.890625 L 107.902344 54.0625 L 102.765625 54.0625 L 102.765625 48.890625 L 107.902344 48.890625 " fill-opacity="1" fill-rule="nonzero"/><path fill="#ce2524" d="M 107.902344 43.722656 L 107.902344 48.890625 L 102.765625 48.890625 L 102.765625 43.722656 L 107.902344 43.722656 " fill-opacity="1" fill-rule="nonzero"/><path fill="#ce2524" d="M 107.902344 38.558594 L 107.902344 43.722656 L 102.765625 43.722656 L 102.765625 38.558594 L 107.902344 38.558594 " fill-opacity="1" fill-rule="nonzero"/><path fill="#ce2524" d="M 107.902344 33.382812 L 107.902344 38.558594 L 102.765625 38.558594 L 102.765625 33.382812 L 107.902344 33.382812 " fill-opacity="1" fill-rule="nonzero"/><path fill="#ce2524" d="M 107.902344 28.214844 L 107.902344 33.382812 L 102.765625 33.382812 L 102.765625 28.214844 L 107.902344 28.214844 " fill-opacity="1" fill-rule="nonzero"/><g clip-path="url(#2da0c0d333)"><path fill="#a61c22" d="M 107.902344 23.042969 L 107.902344 28.214844 L 102.765625 28.214844 L 102.765625 23.042969 L 107.902344 23.042969 " fill-opacity="1" fill-rule="nonzero"/></g><path fill="#a61c22" d="M 102.765625 90.242188 L 102.765625 95.417969 L 97.625 95.417969 L 97.625 90.242188 L 102.765625 90.242188 " fill-opacity="1" fill-rule="nonzero"/><path fill="#a61c22" d="M 102.765625 85.078125 L 102.765625 90.242188 L 97.625 90.242188 L 97.625 85.078125 L 102.765625 85.078125 " fill-opacity="1" fill-rule="nonzero"/><path fill="#ce2524" d="M 102.765625 79.910156 L 102.765625 85.078125 L 97.625 85.078125 L 97.625 79.910156 L 102.765625 79.910156 " fill-opacity="1" fill-rule="nonzero"/><path fill="#ce2524" d="M 102.765625 74.734375 L 102.765625 79.910156 L 97.625 79.910156 L 97.625 74.734375 L 102.765625 74.734375 " fill-opacity="1" fill-rule="nonzero"/><path fill="#ce2524" d="M 102.765625 69.570312 L 102.765625 74.734375 L 97.625 74.734375 L 97.625 69.570312 L 102.765625 69.570312 " fill-opacity="1" fill-rule="nonzero"/><path fill="#ce2524" d="M 102.765625 64.394531 L 102.765625 69.570312 L 97.625 69.570312 L 97.625 64.394531 L 102.765625 64.394531 " fill-opacity="1" fill-rule="nonzero"/><path fill="#ce2524" d="M 102.765625 59.230469 L 102.765625 64.394531 L 97.625 64.394531 L 97.625 59.230469 L 102.765625 59.230469 " fill-opacity="1" fill-rule="nonzero"/><path fill="#ce2524" d="M 102.765625 54.0625 L 102.765625 59.230469 L 97.625 59.230469 L 97.625 54.0625 L 102.765625 54.0625 " fill-opacity="1" fill-rule="nonzero"/><path fill="#ce2524" d="M 102.765625 48.890625 L 102.765625 54.0625 L 97.625 54.0625 L 97.625 48.890625 L 102.765625 48.890625 " fill-opacity="1" fill-rule="nonzero"/><path fill="#ce2524" d="M 102.765625 43.722656 L 102.765625 48.890625 L 97.625 48.890625 L 97.625 43.722656 L 102.765625 43.722656 " fill-opacity="1" fill-rule="nonzero"/><path fill="#ce2524" d="M 102.765625 38.558594 L 102.765625 43.722656 L 97.625 43.722656 L 97.625 38.558594 L 102.765625 38.558594 " fill-opacity="1" fill-rule="nonzero"/><path fill="#ce2524" d="M 102.765625 33.382812 L 102.765625 38.558594 L 97.625 38.558594 L 97.625 33.382812 L 102.765625 33.382812 " fill-opacity="1" fill-rule="nonzero"/><path fill="#ce2524" d="M 102.765625 28.214844 L 102.765625 33.382812 L 97.625 33.382812 L 97.625 28.214844 L 102.765625 28.214844 " fill-opacity="1" fill-rule="nonzero"/><g clip-path="url(#4bffc6f9fe)"><path fill="#a61c22" d="M 102.765625 23.042969 L 102.765625 28.214844 L 97.625 28.214844 L 97.625 23.042969 L 102.765625 23.042969 " fill-opacity="1" fill-rule="nonzero"/></g><path fill="#a61c22" d="M 97.625 85.078125 L 97.625 90.242188 L 92.476562 90.242188 L 92.476562 85.078125 L 97.625 85.078125 " fill-opacity="1" fill-rule="nonzero"/><path fill="#a61c22" d="M 97.625 79.910156 L 97.625 85.078125 L 92.476562 85.078125 L 92.476562 79.910156 L 97.625 79.910156 " fill-opacity="1" fill-rule="nonzero"/><path fill="#ce2524" d="M 97.625 74.734375 L 97.625 79.910156 L 92.476562 79.910156 L 92.476562 74.734375 L 97.625 74.734375 " fill-opacity="1" fill-rule="nonzero"/><path fill="#ce2524" d="M 97.625 69.570312 L 97.625 74.734375 L 92.476562 74.734375 L 92.476562 69.570312 L 97.625 69.570312 " fill-opacity="1" fill-rule="nonzero"/><path fill="#ce2524" d="M 97.625 64.394531 L 97.625 69.570312 L 92.476562 69.570312 L 92.476562 64.394531 L 97.625 64.394531 " fill-opacity="1" fill-rule="nonzero"/><path fill="#ce2524" d="M 97.625 59.230469 L 97.625 64.394531 L 92.476562 64.394531 L 92.476562 59.230469 L 97.625 59.230469 " fill-opacity="1" fill-rule="nonzero"/><path fill="#ce2524" d="M 97.625 54.0625 L 97.625 59.230469 L 92.476562 59.230469 L 92.476562 54.0625 L 97.625 54.0625 " fill-opacity="1" fill-rule="nonzero"/><path fill="#ce2524" d="M 97.625 48.890625 L 97.625 54.0625 L 92.476562 54.0625 L 92.476562 48.890625 L 97.625 48.890625 " fill-opacity="1" fill-rule="nonzero"/><path fill="#ce2524" d="M 97.625 43.722656 L 97.625 48.890625 L 92.476562 48.890625 L 92.476562 43.722656 L 97.625 43.722656 " fill-opacity="1" fill-rule="nonzero"/><path fill="#ce2524" d="M 97.625 38.558594 L 97.625 43.722656 L 92.476562 43.722656 L 92.476562 38.558594 L 97.625 38.558594 " fill-opacity="1" fill-rule="nonzero"/><path fill="#ce2524" d="M 97.625 33.382812 L 97.625 38.558594 L 92.476562 38.558594 L 92.476562 33.382812 L 97.625 33.382812 " fill-opacity="1" fill-rule="nonzero"/><path fill="#ce2524" d="M 97.625 28.214844 L 97.625 33.382812 L 92.476562 33.382812 L 92.476562 28.214844 L 97.625 28.214844 " fill-opacity="1" fill-rule="nonzero"/><g clip-path="url(#1ca108c950)"><path fill="#a61c22" d="M 97.625 23.042969 L 97.625 28.214844 L 92.476562 28.214844 L 92.476562 23.042969 L 97.625 23.042969 " fill-opacity="1" fill-rule="nonzero"/></g><path fill="#a61c22" d="M 92.476562 79.910156 L 92.476562 85.078125 L 87.335938 85.078125 L 87.335938 79.910156 L 92.476562 79.910156 " fill-opacity="1" fill-rule="nonzero"/><path fill="#a61c22" d="M 92.476562 74.734375 L 92.476562 79.910156 L 87.335938 79.910156 L 87.335938 74.734375 L 92.476562 74.734375 " fill-opacity="1" fill-rule="nonzero"/><path fill="#ce2524" d="M 92.476562 69.570312 L 92.476562 74.734375 L 87.335938 74.734375 L 87.335938 69.570312 L 92.476562 69.570312 " fill-opacity="1" fill-rule="nonzero"/><path fill="#ce2524" d="M 92.476562 64.394531 L 92.476562 69.570312 L 87.335938 69.570312 L 87.335938 64.394531 L 92.476562 64.394531 " fill-opacity="1" fill-rule="nonzero"/><path fill="#e93040" d="M 92.476562 59.230469 L 92.476562 64.394531 L 87.335938 64.394531 L 87.335938 59.230469 L 92.476562 59.230469 " fill-opacity="1" fill-rule="nonzero"/><path fill="#ce2524" d="M 92.476562 54.0625 L 92.476562 59.230469 L 87.335938 59.230469 L 87.335938 54.0625 L 92.476562 54.0625 " fill-opacity="1" fill-rule="nonzero"/><path fill="#ce2524" d="M 92.476562 48.890625 L 92.476562 54.0625 L 87.335938 54.0625 L 87.335938 48.890625 L 92.476562 48.890625 " fill-opacity="1" fill-rule="nonzero"/><path fill="#ce2524" d="M 92.476562 43.722656 L 92.476562 48.890625 L 87.335938 48.890625 L 87.335938 43.722656 L 92.476562 43.722656 " fill-opacity="1" fill-rule="nonzero"/><path fill="#ce2524" d="M 92.476562 38.558594 L 92.476562 43.722656 L 87.335938 43.722656 L 87.335938 38.558594 L 92.476562 38.558594 " fill-opacity="1" fill-rule="nonzero"/><path fill="#e93040" d="M 92.476562 33.382812 L 92.476562 38.558594 L 87.335938 38.558594 L 87.335938 33.382812 L 92.476562 33.382812 " fill-opacity="1" fill-rule="nonzero"/><path fill="#a61c22" d="M 92.476562 28.214844 L 92.476562 33.382812 L 87.335938 33.382812 L 87.335938 28.214844 L 92.476562 28.214844 " fill-opacity="1" fill-rule="nonzero"/><g clip-path="url(#40635519f0)"><path fill="#a61c22" d="M 92.476562 23.042969 L 92.476562 28.214844 L 87.335938 28.214844 L 87.335938 23.042969 L 92.476562 23.042969 " fill-opacity="1" fill-rule="nonzero"/></g><path fill="#a61c22" d="M 87.335938 74.734375 L 87.335938 79.910156 L 82.1875 79.910156 L 82.1875 74.734375 L 87.335938 74.734375 " fill-opacity="1" fill-rule="nonzero"/><path fill="#a61c22" d="M 87.335938 69.570312 L 87.335938 74.734375 L 82.1875 74.734375 L 82.1875 69.570312 L 87.335938 69.570312 " fill-opacity="1" fill-rule="nonzero"/><path fill="#ce2524" d="M 87.335938 64.394531 L 87.335938 69.570312 L 82.1875 69.570312 L 82.1875 64.394531 L 87.335938 64.394531 " fill-opacity="1" fill-rule="nonzero"/><path fill="#e93040" d="M 87.335938 59.230469 L 87.335938 64.394531 L 82.1875 64.394531 L 82.1875 59.230469 L 87.335938 59.230469 " fill-opacity="1" fill-rule="nonzero"/><path fill="#e93040" d="M 87.335938 54.0625 L 87.335938 59.230469 L 82.1875 59.230469 L 82.1875 54.0625 L 87.335938 54.0625 " fill-opacity="1" fill-rule="nonzero"/><path fill="#e93040" d="M 87.335938 48.890625 L 87.335938 54.0625 L 82.1875 54.0625 L 82.1875 48.890625 L 87.335938 48.890625 " fill-opacity="1" fill-rule="nonzero"/><path fill="#e93040" d="M 87.335938 43.722656 L 87.335938 48.890625 L 82.1875 48.890625 L 82.1875 43.722656 L 87.335938 43.722656 " fill-opacity="1" fill-rule="nonzero"/><path fill="#e93040" d="M 87.335938 38.558594 L 87.335938 43.722656 L 82.1875 43.722656 L 82.1875 38.558594 L 87.335938 38.558594 " fill-opacity="1" fill-rule="nonzero"/><path fill="#e93040" d="M 87.335938 33.382812 L 87.335938 38.558594 L 82.1875 38.558594 L 82.1875 33.382812 L 87.335938 33.382812 " fill-opacity="1" fill-rule="nonzero"/><path fill="#a61c22" d="M 87.335938 28.214844 L 87.335938 33.382812 L 82.1875 33.382812 L 82.1875 28.214844 L 87.335938 28.214844 " fill-opacity="1" fill-rule="nonzero"/><path fill="#a61c22" d="M 82.1875 69.570312 L 82.1875 74.734375 L 77.050781 74.734375 L 77.050781 69.570312 L 82.1875 69.570312 " fill-opacity="1" fill-rule="nonzero"/><path fill="#a61c22" d="M 82.1875 64.394531 L 82.1875 69.570312 L 77.050781 69.570312 L 77.050781 64.394531 L 82.1875 64.394531 " fill-opacity="1" fill-rule="nonzero"/><path fill="#a61c22" d="M 82.1875 59.230469 L 82.1875 64.394531 L 77.050781 64.394531 L 77.050781 59.230469 L 82.1875 59.230469 " fill-opacity="1" fill-rule="nonzero"/><path fill="#ce2524" d="M 82.1875 54.0625 L 82.1875 59.230469 L 77.050781 59.230469 L 77.050781 54.0625 L 82.1875 54.0625 " fill-opacity="1" fill-rule="nonzero"/><path fill="#e93040" d="M 82.1875 48.890625 L 82.1875 54.0625 L 77.050781 54.0625 L 77.050781 48.890625 L 82.1875 48.890625 " fill-opacity="1" fill-rule="nonzero"/><path fill="#e93040" d="M 82.1875 43.722656 L 82.1875 48.890625 L 77.050781 48.890625 L 77.050781 43.722656 L 82.1875 43.722656 " fill-opacity="1" fill-rule="nonzero"/><path fill="#a61c22" d="M 82.1875 38.558594 L 82.1875 43.722656 L 77.050781 43.722656 L 77.050781 38.558594 L 82.1875 38.558594 " fill-opacity="1" fill-rule="nonzero"/><path fill="#a61c22" d="M 82.1875 33.382812 L 82.1875 38.558594 L 77.050781 38.558594 L 77.050781 33.382812 L 82.1875 33.382812 " fill-opacity="1" fill-rule="nonzero"/><path fill="#a61c22" d="M 82.1875 28.214844 L 82.1875 33.382812 L 77.050781 33.382812 L 77.050781 28.214844 L 82.1875 28.214844 " fill-opacity="1" fill-rule="nonzero"/><g clip-path="url(#bd33df24a7)"><path fill="#a61c22" d="M 77.050781 59.230469 L 77.050781 64.394531 L 71.910156 64.394531 L 71.910156 59.230469 L 77.050781 59.230469 " fill-opacity="1" fill-rule="nonzero"/></g><g clip-path="url(#484e194aef)"><path fill="#a61c22" d="M 77.050781 54.0625 L 77.050781 59.230469 L 71.910156 59.230469 L 71.910156 54.0625 L 77.050781 54.0625 " fill-opacity="1" fill-rule="nonzero"/></g><g clip-path="url(#1ec9ffdd11)"><path fill="#a61c22" d="M 77.050781 48.890625 L 77.050781 54.0625 L 71.910156 54.0625 L 71.910156 48.890625 L 77.050781 48.890625 " fill-opacity="1" fill-rule="nonzero"/></g><g clip-path="url(#15ad74fb31)"><path fill="#a61c22" d="M 77.050781 43.722656 L 77.050781 48.890625 L 71.910156 48.890625 L 71.910156 43.722656 L 77.050781 43.722656 " fill-opacity="1" fill-rule="nonzero"/></g><g clip-path="url(#2e570c9955)"><path fill="#a61c22" d="M 77.050781 38.558594 L 77.050781 43.722656 L 71.910156 43.722656 L 71.910156 38.558594 L 77.050781 38.558594 " fill-opacity="1" fill-rule="nonzero"/></g><path fill="#000000" d="M 110 71.625 C 109.953125 71.625 109.980469 71.675781 110 71.625 " fill-opacity="1" fill-rule="nonzero"/><path fill="#000000" d="M 127.328125 52.503906 C 127.339844 52.5 127.335938 52.492188 127.34375 52.484375 C 127.238281 52.355469 127.148438 52.238281 127.082031 52.152344 L 127.328125 52.503906 " fill-opacity="1" fill-rule="nonzero"/><path fill="#000000" d="M 130.996094 50.296875 C 131.015625 50.304688 131.027344 50.304688 131.046875 50.3125 C 130.972656 50.242188 130.90625 50.167969 130.996094 50.296875 " fill-opacity="1" fill-rule="nonzero"/><path fill="#000000" d="M 105.265625 77.628906 C 105.265625 77.628906 105.269531 77.617188 105.269531 77.609375 C 105.234375 77.59375 105.207031 77.589844 105.164062 77.566406 L 105.265625 77.628906 " fill-opacity="1" fill-rule="nonzero"/><path fill="#000000" d="M 105.199219 77.402344 C 105.273438 77.457031 105.269531 77.566406 105.269531 77.609375 C 105.5 77.695312 105.585938 77.636719 105.582031 77.488281 C 105.429688 77.339844 105.324219 77.429688 105.199219 77.402344 " fill-opacity="1" fill-rule="nonzero"/><path fill="#000000" d="M 105.199219 77.402344 C 105.175781 77.386719 105.152344 77.375 105.121094 77.371094 C 105.148438 77.386719 105.171875 77.398438 105.199219 77.402344 " fill-opacity="1" fill-rule="nonzero"/><path fill="#000000" d="M 96.042969 87.894531 L 95.996094 87.792969 C 96.003906 87.824219 96.023438 87.859375 96.042969 87.894531 " fill-opacity="1" fill-rule="nonzero"/><path fill="#000000" d="M 97.761719 86.535156 L 97.488281 86.230469 C 97.59375 86.363281 97.679688 86.457031 97.761719 86.535156 " fill-opacity="1" fill-rule="nonzero"/><path fill="#000000" d="M 127.082031 52.152344 L 126.992188 52.019531 C 127.007812 52.050781 127.042969 52.097656 127.082031 52.152344 " fill-opacity="1" fill-rule="nonzero"/><path fill="#000000" d="M 133.886719 47.769531 C 133.980469 47.855469 134.054688 47.921875 134.125 47.972656 C 134.125 47.96875 134.128906 47.96875 134.132812 47.96875 L 133.886719 47.769531 " fill-opacity="1" fill-rule="nonzero"/><path fill="#000000" d="M 152.136719 38.652344 C 152.101562 38.617188 152.058594 38.582031 152.019531 38.546875 L 152.167969 38.804688 C 152.179688 38.757812 152.167969 38.707031 152.136719 38.652344 " fill-opacity="1" fill-rule="nonzero"/><path fill="#000000" d="M 138.855469 45.289062 C 138.828125 45.253906 138.804688 45.214844 138.769531 45.175781 C 138.609375 45.144531 138.417969 45.292969 138.214844 45.519531 L 138.558594 45.882812 L 138.855469 45.289062 " fill-opacity="1" fill-rule="nonzero"/><g clip-path="url(#607a92f0b0)"><path fill="#000000" d="M 156.691406 39.609375 C 156.691406 39.609375 154.136719 39.328125 153.109375 38.917969 C 153.699219 38.691406 153.132812 38.726562 152.828125 38.582031 L 152.96875 38.777344 C 152.558594 38.855469 152.132812 38.433594 151.890625 38.4375 C 151.925781 38.472656 151.972656 38.507812 152.019531 38.546875 L 151.976562 38.476562 C 152.0625 38.539062 152.109375 38.597656 152.136719 38.652344 C 152.234375 38.738281 152.292969 38.820312 152.203125 38.863281 L 152.167969 38.804688 C 152.128906 38.96875 151.890625 39.078125 151.78125 39.125 L 151.421875 38.773438 C 151.925781 39.625 149.175781 38.960938 148.910156 39.179688 C 148.21875 38.976562 148.480469 39.835938 147.949219 39.914062 C 147.351562 40.285156 147.1875 39.644531 146.636719 39.582031 C 146.109375 39.664062 147.113281 39.933594 147.015625 40.078125 L 146.15625 39.949219 C 146.324219 39.695312 145.996094 39.597656 145.816406 39.5 C 145.445312 39.753906 144.292969 39.601562 144.910156 40.402344 C 144.144531 40.492188 143.859375 40.210938 143.644531 40.355469 C 143.832031 40.425781 144.074219 40.417969 144.21875 40.5625 C 143.734375 40.417969 144.214844 40.71875 144.355469 40.71875 C 144.40625 41.285156 141.710938 40.777344 142.441406 41.609375 L 142.296875 41.464844 C 142.820312 42.101562 143.484375 42.566406 143.625 43.066406 L 143.246094 42.929688 L 143.316406 43.359375 C 143.003906 43.292969 142.90625 43.082031 142.835938 43.007812 C 142.8125 43.570312 142.078125 43.667969 141.640625 43.949219 L 143.609375 45.140625 C 142.941406 45.082031 141.652344 44.890625 142.101562 45.457031 L 141.386719 45.109375 C 139.761719 44.710938 141.40625 45.972656 140.859375 45.910156 L 139.972656 45.640625 L 140.285156 45.347656 C 139.6875 45.359375 139.375 45.292969 138.753906 45.160156 C 138.761719 45.164062 138.761719 45.171875 138.769531 45.175781 C 138.808594 45.183594 138.847656 45.203125 138.882812 45.234375 L 138.855469 45.289062 C 139.109375 45.613281 139.152344 45.96875 138.917969 46.164062 C 138.535156 46.386719 138.726562 47.046875 137.628906 46.925781 L 138.101562 47.632812 L 137.386719 47.644531 L 136.910156 47.179688 C 137.296875 46.851562 137.785156 46 138.214844 45.519531 L 138.007812 45.296875 C 137.738281 45.570312 137.640625 46.085938 137.414062 46.21875 C 137.25 46.210938 136.65625 46 136.421875 45.609375 L 136.652344 46.097656 C 135.800781 47.058594 135.820312 47.085938 134.339844 47.5 L 134.660156 47.652344 C 134.613281 47.980469 134.5625 48.300781 134.125 47.972656 C 133.480469 48.464844 132.59375 48.757812 131.625 48.535156 L 132.101562 49.167969 C 131.953125 49.257812 130.929688 48.601562 131.652344 49.433594 L 131.644531 49.933594 C 131.4375 50.054688 131.65625 50.472656 131.148438 50.34375 C 131.148438 50.339844 131.148438 50.339844 131.148438 50.339844 C 131.117188 50.332031 131.082031 50.324219 131.046875 50.3125 C 131.0625 50.328125 131.078125 50.339844 131.09375 50.355469 C 130.476562 50.484375 131.597656 50.847656 130.851562 50.953125 C 130.320312 50.699219 131.410156 51.804688 131.078125 51.886719 L 130.070312 51.304688 C 129.234375 51.226562 129.976562 52.082031 129.433594 52.628906 C 128.890625 52.609375 128.082031 52.058594 127.644531 51.289062 C 128.144531 52.25 128.015625 51.867188 128.054688 52.53125 C 127.703125 52.28125 127.675781 52.1875 127.472656 51.847656 C 126.839844 51.777344 127.574219 52.289062 127.34375 52.484375 C 127.851562 53.109375 128.6875 54.074219 128.65625 54.179688 L 128.914062 54.269531 C 128.996094 54.796875 128.894531 55.179688 128.347656 55.15625 L 128.070312 54.867188 L 127.941406 55.285156 L 127.558594 54.941406 L 127.386719 55.253906 C 127.011719 55.125 126.6875 54.910156 126.570312 54.339844 C 127.171875 53.25 126.140625 52.6875 125.742188 52.0625 C 124.414062 51.34375 123.464844 50.960938 122.203125 50.140625 C 122.832031 48.386719 120.308594 48.90625 120.359375 47.585938 L 119.703125 47.835938 C 120.050781 46.671875 118.460938 46.820312 118.621094 45.492188 C 118.261719 45.523438 118.121094 45.5 118.070312 45.480469 C 118.074219 45.53125 118.023438 45.660156 117.726562 45.953125 C 117.773438 45.570312 117.160156 45.441406 117.800781 44.910156 L 117.90625 44.898438 C 118.546875 44.371094 117.105469 44.597656 117.449219 43.90625 L 116.894531 44.617188 L 116.683594 44.167969 L 116.894531 44.144531 C 114.039062 43.945312 115.5 41.363281 112.855469 41.140625 C 113.75 40.679688 112.222656 41.199219 112.988281 40.46875 C 113.648438 39.214844 112.164062 39.996094 111.628906 39.9375 C 111.59375 39.972656 111.542969 40.007812 111.46875 40.046875 L 111.089844 39.445312 C 112.363281 38.855469 109.925781 39.816406 111.027344 39.335938 C 110.539062 37.3125 108.171875 36.238281 107.085938 34.363281 L 106.894531 34.664062 C 106.582031 34.222656 105.820312 34.011719 105.953125 33.339844 C 106.085938 32.671875 104.703125 33.269531 104.558594 33.191406 C 103.890625 33.253906 104.308594 32.375 104.460938 32.332031 C 103.992188 32.132812 102.847656 32.574219 102.789062 31.757812 C 103.480469 30.828125 100.746094 31.171875 101.679688 30.296875 L 101.59375 30.363281 C 101.691406 29.132812 100.015625 29.570312 100.003906 28.347656 C 100.003906 28.347656 100.085938 28.296875 100.167969 28.265625 L 96.039062 29.5 L 93.226562 32.757812 L 91.742188 36.277344 L 95.246094 39 L 96.59375 42.484375 L 102.65625 48.4375 L 103.777344 48.238281 C 103.652344 50.601562 106.53125 50.875 106.851562 53.011719 L 107.492188 52.480469 C 107.871094 52.820312 107.464844 53.140625 107.441406 53.332031 C 110.757812 56.683594 114.847656 59.523438 116.929688 63.351562 C 116.902344 63.496094 116.929688 63.640625 116.988281 63.789062 C 116.105469 63.492188 115.726562 64.304688 115.238281 64.628906 C 114.722656 65.847656 114.476562 66.722656 113.859375 67.878906 C 112.152344 67.257812 112.929688 69.613281 111.695312 69.539062 L 112 70.15625 C 110.878906 69.808594 111.203125 71.285156 109.945312 71.109375 C 110.015625 71.441406 110.011719 71.578125 110 71.625 C 110.046875 71.621094 110.171875 71.671875 110.476562 71.953125 C 110.117188 71.898438 110.066406 72.46875 109.5 71.863281 L 109.476562 71.761719 C 108.910156 71.15625 109.289062 72.5 108.605469 72.167969 L 109.332031 72.699219 L 108.9375 72.882812 L 108.890625 72.6875 C 109.035156 75.335938 106.460938 73.925781 106.5625 76.375 C 106.03125 75.539062 106.691406 76.96875 105.921875 76.238281 C 104.675781 75.601562 105.574219 76.996094 105.582031 77.488281 C 105.621094 77.527344 105.660156 77.574219 105.703125 77.644531 L 105.1875 77.984375 C 104.488281 76.785156 105.667969 79.074219 105.09375 78.035156 C 103.265625 78.449219 102.539062 80.625 100.921875 81.597656 L 101.222656 81.78125 C 100.847656 82.0625 100.738281 82.765625 100.101562 82.628906 C 99.460938 82.492188 100.179688 83.785156 100.121094 83.921875 C 100.257812 84.542969 99.390625 84.136719 99.332031 83.992188 C 99.203125 84.425781 99.746094 85.5 98.992188 85.535156 C 98.046875 84.875 98.683594 87.421875 97.761719 86.535156 L 97.832031 86.617188 C 96.675781 86.5 97.277344 88.066406 96.140625 88.050781 C 96.140625 88.050781 96.085938 87.976562 96.042969 87.894531 L 97.671875 91.761719 L 101.03125 94.441406 L 104.484375 95.894531 L 106.609375 92.695312 L 109.699219 91.519531 L 114.539062 86.011719 L 114.222656 84.960938 C 116.4375 85.128906 116.363281 82.457031 118.3125 82.207031 L 117.742188 81.597656 C 118.015625 81.253906 118.363281 81.636719 118.542969 81.664062 C 121.03125 78.925781 123.050781 75.582031 125.902344 73.605469 C 128.660156 76.144531 131.558594 78.414062 133.5 81.800781 C 134.125 84.488281 137.402344 85.304688 138.433594 88.105469 C 138.164062 89.035156 142.398438 92.753906 143.019531 92.855469 L 143.332031 91.699219 C 145.078125 92.929688 144.984375 94.324219 146.792969 95.09375 L 146.5625 95.167969 C 146.566406 95.515625 148.34375 94.105469 148.226562 98.078125 L 148.152344 98.144531 C 148.226562 98.203125 148.355469 98.097656 148.328125 98.324219 L 148.4375 97.617188 C 148.828125 97.667969 149.359375 97.535156 149.675781 97.78125 C 149.652344 97.917969 149.515625 98.078125 149.402344 98.195312 L 150.183594 98.796875 L 149.902344 99.453125 C 150.363281 99.4375 151.289062 98.414062 151.257812 99.515625 C 151.765625 98.652344 151.949219 99.421875 152.242188 99.023438 C 152.183594 99.132812 152.113281 99.316406 152.039062 99.480469 C 152.441406 99.753906 153.238281 100.234375 153.75 100.066406 C 153.75 100.066406 153.992188 97.355469 154.414062 96.300781 C 154.667969 96.964844 154.617188 96.355469 154.765625 96.042969 L 154.5625 96.167969 C 154.464844 95.71875 154.910156 95.3125 154.902344 95.054688 C 154.863281 95.085938 154.824219 95.128906 154.785156 95.175781 L 154.863281 95.140625 C 154.796875 95.226562 154.734375 95.265625 154.675781 95.289062 C 154.582031 95.378906 154.496094 95.433594 154.449219 95.332031 L 154.507812 95.304688 C 154.332031 95.238281 154.207031 94.964844 154.15625 94.84375 L 154.527344 94.503906 C 153.617188 94.929688 154.269531 92.058594 154.027344 91.742188 C 154.226562 91.023438 153.308594 91.191406 153.207031 90.609375 C 152.792969 89.917969 153.484375 89.824219 153.539062 89.242188 C 153.4375 88.664062 153.171875 89.707031 153.011719 89.585938 L 153.128906 88.675781 C 153.40625 88.890625 153.503906 88.546875 153.605469 88.371094 C 153.320312 87.933594 153.457031 86.714844 152.609375 87.273438 C 152.496094 86.4375 152.792969 86.167969 152.628906 85.914062 C 152.558594 86.109375 152.570312 86.367188 152.421875 86.503906 C 152.5625 86 152.25 86.480469 152.253906 86.628906 C 151.644531 86.609375 152.125 83.777344 151.25 84.449219 L 151.398438 84.316406 C 150.722656 84.792969 150.238281 85.445312 149.703125 85.53125 L 149.84375 85.140625 L 149.378906 85.15625 C 149.441406 84.828125 149.671875 84.757812 149.746094 84.6875 C 149.136719 84.585938 149.015625 83.78125 148.703125 83.273438 L 147.464844 85.234375 C 147.511719 84.523438 147.6875 83.160156 147.085938 83.570312 L 147.445312 82.84375 C 147.835938 81.148438 146.515625 82.75 146.566406 82.167969 L 146.835938 81.25 L 147.160156 81.625 C 147.132812 80.980469 147.199219 80.65625 147.328125 80.003906 C 147.320312 80.007812 147.3125 80.011719 147.308594 80.015625 C 147.300781 80.058594 147.28125 80.097656 147.25 80.132812 L 147.1875 80.097656 C 146.84375 80.324219 146.460938 80.320312 146.246094 80.046875 C 145.996094 79.601562 145.289062 79.722656 145.394531 78.554688 L 144.640625 78.96875 L 144.609375 78.195312 L 145.101562 77.746094 C 145.464844 78.203125 146.394531 78.84375 146.925781 79.375 L 147.160156 79.179688 C 146.859375 78.851562 146.300781 78.679688 146.152344 78.417969 C 146.152344 78.242188 146.367188 77.632812 146.78125 77.433594 L 146.265625 77.617188 C 145.207031 76.570312 145.175781 76.585938 144.691406 74.933594 L 144.535156 75.257812 C 144.179688 75.164062 143.832031 75.066406 144.175781 74.640625 C 143.632812 73.878906 143.292969 72.886719 143.511719 71.871094 L 142.839844 72.300781 C 142.738281 72.128906 143.421875 71.113281 142.539062 71.78125 L 142 71.703125 C 141.863281 71.464844 141.421875 71.644531 141.550781 71.117188 C 141.550781 71.113281 141.550781 71.113281 141.550781 71.113281 C 141.558594 71.082031 141.566406 71.046875 141.578125 71.007812 C 141.5625 71.027344 141.546875 71.039062 141.535156 71.054688 C 141.378906 70.375 141.015625 71.53125 140.882812 70.714844 C 141.144531 70.175781 139.976562 71.203125 139.878906 70.832031 L 140.484375 69.824219 C 140.550781 68.9375 139.640625 69.617188 139.039062 68.964844 C 139.046875 68.378906 139.621094 67.582031 140.441406 67.21875 C 139.414062 67.625 139.824219 67.539062 139.109375 67.492188 C 139.371094 67.148438 139.476562 67.125 139.835938 66.953125 C 139.894531 66.28125 139.359375 67.003906 139.144531 66.730469 C 138.484375 67.195312 137.460938 67.964844 137.347656 67.917969 L 137.253906 68.183594 C 136.691406 68.199219 136.273438 68.039062 136.285156 67.453125 L 136.59375 67.195312 L 136.136719 67 L 136.496094 66.632812 L 135.945312 66.261719 L 135.898438 66.417969 C 135.746094 66.351562 135.28125 66.105469 135.285156 65.714844 L 135.503906 65.527344 C 135.535156 65.21875 135.46875 65.011719 135.34375 64.859375 C 137.359375 62.371094 139.132812 59.761719 142.03125 58.046875 C 144.460938 57.523438 144.84375 54.496094 147.332031 53.59375 C 148.226562 53.863281 151.199219 50.007812 151.222656 49.429688 L 150.109375 49.117188 C 151.050781 47.519531 152.359375 47.632812 152.871094 45.972656 L 152.964844 46.1875 C 153.289062 46.191406 151.765625 44.511719 155.480469 44.703125 L 155.554688 44.773438 C 155.597656 44.707031 155.484375 44.582031 155.699219 44.613281 L 155.027344 44.496094 C 155.03125 44.136719 154.84375 43.636719 155.039062 43.347656 C 155.167969 43.375 155.332031 43.503906 155.453125 43.613281 L 155.925781 42.898438 L 156.570312 43.175781 C 156.5 42.746094 155.4375 41.863281 156.46875 41.914062 C 155.605469 41.425781 156.300781 41.273438 155.894531 40.992188 C 156.003906 41.050781 156.183594 41.117188 156.34375 41.1875 C 156.554688 40.820312 156.90625 40.089844 156.691406 39.609375 " fill-opacity="1" fill-rule="nonzero"/></g><path fill="#000000" d="M 99.332031 83.992188 C 99.335938 83.980469 99.339844 83.96875 99.34375 83.957031 C 99.328125 83.964844 99.324219 83.976562 99.332031 83.992188 " fill-opacity="1" fill-rule="nonzero"/><path fill="#000000" d="M 136.421875 45.609375 L 136.359375 45.472656 C 136.375 45.519531 136.398438 45.566406 136.421875 45.609375 " fill-opacity="1" fill-rule="nonzero"/><path fill="#000000" d="M 155.699219 44.613281 L 155.769531 44.625 C 155.742188 44.621094 155.71875 44.617188 155.699219 44.613281 " fill-opacity="1" fill-rule="nonzero"/><path fill="#000000" d="M 155.453125 43.613281 L 155.441406 43.628906 C 155.691406 43.871094 155.617188 43.761719 155.453125 43.613281 " fill-opacity="1" fill-rule="nonzero"/><path fill="#000000" d="M 141.613281 43.964844 C 141.621094 43.960938 141.632812 43.953125 141.640625 43.949219 L 141.207031 43.6875 L 141.613281 43.964844 " fill-opacity="1" fill-rule="nonzero"/><path fill="#000000" d="M 145.917969 39.234375 C 145.640625 39.359375 145.691406 39.429688 145.816406 39.5 C 145.90625 39.441406 145.953125 39.355469 145.917969 39.234375 " fill-opacity="1" fill-rule="nonzero"/><g clip-path="url(#81fa9ebf7f)"><path fill="#000000" d="M 156.34375 41.1875 C 156.265625 41.324219 156.207031 41.417969 156.207031 41.417969 C 156.324219 41.414062 156.515625 41.484375 156.636719 41.480469 C 156.761719 41.394531 156.574219 41.289062 156.34375 41.1875 " fill-opacity="1" fill-rule="nonzero"/></g><path fill="#000000" d="M 152.828125 38.582031 L 152.65625 38.351562 C 152.644531 38.460938 152.722656 38.53125 152.828125 38.582031 " fill-opacity="1" fill-rule="nonzero"/><path fill="#000000" d="M 118.070312 45.480469 C 118.066406 45.429688 118.011719 45.453125 118.070312 45.480469 " fill-opacity="1" fill-rule="nonzero"/><path fill="#000000" d="M 139.121094 66.710938 C 139.128906 66.722656 139.136719 66.722656 139.144531 66.730469 C 139.28125 66.636719 139.402344 66.554688 139.496094 66.492188 L 139.121094 66.710938 " fill-opacity="1" fill-rule="nonzero"/><path fill="#000000" d="M 141.59375 70.957031 C 141.585938 70.976562 141.585938 70.992188 141.578125 71.007812 C 141.652344 70.941406 141.730469 70.878906 141.59375 70.957031 " fill-opacity="1" fill-rule="nonzero"/><path fill="#000000" d="M 111.472656 39.578125 C 111.472656 39.578125 111.484375 39.582031 111.496094 39.582031 C 111.511719 39.546875 111.515625 39.519531 111.535156 39.476562 L 111.472656 39.578125 " fill-opacity="1" fill-rule="nonzero"/><path fill="#000000" d="M 111.71875 39.53125 C 111.660156 39.605469 111.542969 39.589844 111.496094 39.582031 C 111.40625 39.820312 111.472656 39.917969 111.628906 39.9375 C 111.792969 39.789062 111.6875 39.667969 111.71875 39.53125 " fill-opacity="1" fill-rule="nonzero"/><path fill="#000000" d="M 111.71875 39.53125 C 111.730469 39.515625 111.742188 39.488281 111.746094 39.457031 C 111.730469 39.484375 111.722656 39.507812 111.71875 39.53125 " fill-opacity="1" fill-rule="nonzero"/><g clip-path="url(#93375ca7e3)"><path fill="#000000" d="M 100.167969 28.265625 L 100.277344 28.230469 C 100.246094 28.234375 100.207031 28.246094 100.167969 28.265625 " fill-opacity="1" fill-rule="nonzero"/></g><path fill="#000000" d="M 101.679688 30.296875 L 102 30.042969 C 101.859375 30.140625 101.761719 30.222656 101.679688 30.296875 " fill-opacity="1" fill-rule="nonzero"/><path fill="#000000" d="M 139.496094 66.492188 L 139.640625 66.414062 C 139.601562 66.429688 139.554688 66.457031 139.496094 66.492188 " fill-opacity="1" fill-rule="nonzero"/><path fill="#000000" d="M 144.390625 74.414062 C 144.300781 74.496094 144.234375 74.574219 144.175781 74.640625 C 144.179688 74.640625 144.183594 74.648438 144.183594 74.648438 L 144.390625 74.414062 " fill-opacity="1" fill-rule="nonzero"/><path fill="#000000" d="M 154.675781 95.289062 C 154.710938 95.253906 154.746094 95.214844 154.785156 95.175781 L 154.507812 95.304688 C 154.558594 95.320312 154.617188 95.316406 154.675781 95.289062 " fill-opacity="1" fill-rule="nonzero"/><path fill="#000000" d="M 147.1875 80.097656 C 147.226562 80.066406 147.269531 80.050781 147.308594 80.015625 C 147.339844 79.847656 147.175781 79.625 146.925781 79.375 L 146.539062 79.695312 L 147.1875 80.097656 " fill-opacity="1" fill-rule="nonzero"/><path fill="#000000" d="M 146.78125 77.433594 L 146.933594 77.378906 C 146.878906 77.390625 146.832031 77.410156 146.78125 77.433594 " fill-opacity="1" fill-rule="nonzero"/><path fill="#000000" d="M 148.328125 98.324219 L 148.316406 98.398438 C 148.320312 98.371094 148.324219 98.347656 148.328125 98.324219 " fill-opacity="1" fill-rule="nonzero"/><path fill="#000000" d="M 104.460938 32.332031 C 104.476562 32.335938 104.488281 32.34375 104.5 32.351562 C 104.492188 32.332031 104.480469 32.328125 104.460938 32.332031 " fill-opacity="1" fill-rule="nonzero"/><path fill="#000000" d="M 149.402344 98.195312 L 149.386719 98.179688 C 149.128906 98.417969 149.246094 98.351562 149.402344 98.195312 " fill-opacity="1" fill-rule="nonzero"/><path fill="#000000" d="M 148.683594 83.242188 C 148.691406 83.253906 148.695312 83.261719 148.703125 83.273438 L 148.976562 82.839844 L 148.683594 83.242188 " fill-opacity="1" fill-rule="nonzero"/><path fill="#000000" d="M 153.894531 88.515625 C 153.75 88.195312 153.679688 88.242188 153.605469 88.371094 C 153.671875 88.472656 153.761719 88.535156 153.894531 88.515625 " fill-opacity="1" fill-rule="nonzero"/><path fill="#000000" d="M 151.730469 99.753906 C 151.828125 99.902344 151.9375 99.710938 152.039062 99.480469 C 151.890625 99.378906 151.789062 99.300781 151.789062 99.300781 C 151.792969 99.429688 151.726562 99.625 151.730469 99.753906 " fill-opacity="1" fill-rule="nonzero"/><path fill="#000000" d="M 154.765625 96.042969 L 155.011719 95.890625 C 154.890625 95.863281 154.820312 95.933594 154.765625 96.042969 " fill-opacity="1" fill-rule="nonzero"/></svg>