<svg xmlns="http://www.w3.org/2000/svg" xmlns:xlink="http://www.w3.org/1999/xlink" width="336" zoomAndPan="magnify" viewBox="0 0 252 143.999998" height="192" preserveAspectRatio="xMidYMid meet" version="1.0"><defs><clipPath id="dbbb009c9f"><path d="M 58.605469 26 L 198.855469 26 L 198.855469 118.527344 L 58.605469 118.527344 Z M 58.605469 26 " clip-rule="nonzero"/></clipPath></defs><g clip-path="url(#dbbb009c9f)"><path fill="#ffffff" d="M 189.726562 35.953125 C 189.066406 35.296875 187.996094 35.296875 187.335938 35.953125 L 176.300781 46.988281 C 175.640625 47.648438 175.640625 48.71875 176.300781 49.378906 C 176.960938 50.035156 178.03125 50.035156 178.6875 49.378906 L 189.726562 38.339844 C 190.382812 37.683594 190.382812 36.613281 189.726562 35.953125 Z M 167.515625 26.660156 C 166.585938 26.660156 165.828125 27.414062 165.828125 28.347656 L 165.828125 43.953125 C 165.828125 44.886719 166.585938 45.644531 167.515625 45.644531 C 168.449219 45.644531 169.207031 44.886719 169.207031 43.953125 L 169.207031 28.347656 C 169.207031 27.414062 168.449219 26.660156 167.515625 26.660156 Z M 167.285156 89.570312 C 168.21875 89.570312 168.972656 88.8125 168.972656 87.882812 L 168.972656 72.273438 C 168.972656 71.34375 168.21875 70.585938 167.285156 70.585938 C 166.355469 70.585938 165.597656 71.34375 165.597656 72.273438 L 165.597656 87.882812 C 165.597656 88.8125 166.355469 89.570312 167.285156 89.570312 Z M 189.5625 80.4375 C 190.222656 79.777344 190.222656 78.710938 189.5625 78.050781 L 178.527344 67.015625 C 177.867188 66.355469 176.796875 66.355469 176.136719 67.015625 C 175.480469 67.675781 175.480469 68.742188 176.136719 69.402344 L 187.175781 80.4375 C 187.832031 81.097656 188.902344 81.097656 189.5625 80.4375 Z M 198.855469 58.230469 C 198.855469 57.296875 198.101562 56.542969 197.167969 56.542969 L 181.5625 56.542969 C 180.628906 56.542969 179.871094 57.296875 179.871094 58.230469 C 179.871094 59.164062 180.628906 59.917969 181.5625 59.917969 L 197.167969 59.917969 C 198.101562 59.917969 198.855469 59.164062 198.855469 58.230469 Z M 110.941406 118.730469 C 74.09375 118.730469 58.371094 106.6875 58.371094 99.722656 L 58.371094 63.96875 C 58.371094 58.152344 63.449219 54.71875 69.503906 51.179688 L 109.53125 28.066406 C 113.863281 25.566406 119.402344 27.050781 121.902344 31.382812 L 122.226562 31.949219 C 124.726562 36.277344 123.242188 41.816406 118.914062 44.316406 L 110.246094 49.320312 C 110.15625 49.371094 110.191406 49.515625 110.300781 49.515625 L 168.007812 49.515625 C 172.792969 49.515625 176.675781 53.398438 176.675781 58.183594 C 176.675781 62.972656 172.792969 66.855469 168.007812 66.855469 L 120.992188 66.855469 C 120.71875 66.855469 120.5 67.074219 120.5 67.347656 C 120.5 67.617188 120.71875 67.835938 120.992188 67.835938 L 139.03125 67.835938 C 143.820312 67.835938 147.703125 71.71875 147.703125 76.507812 C 147.703125 81.292969 143.820312 85.175781 139.03125 85.175781 L 120.960938 85.175781 C 120.707031 85.175781 120.5 85.382812 120.5 85.636719 C 120.5 85.890625 120.707031 86.09375 120.960938 86.09375 L 135.457031 86.09375 C 140.246094 86.09375 144.125 89.976562 144.125 94.765625 C 144.125 99.550781 140.246094 103.433594 135.457031 103.433594 L 120.960938 103.433594 C 120.707031 103.433594 120.5 103.640625 120.5 103.894531 C 120.5 104.148438 120.707031 104.355469 120.960938 104.355469 L 132.09375 104.355469 C 136.054688 104.355469 139.265625 107.496094 139.265625 111.375 L 139.265625 111.710938 C 139.265625 115.585938 136.054688 118.730469 132.09375 118.730469 L 110.941406 118.730469 " fill-opacity="1" fill-rule="nonzero"/></g></svg>