<svg xmlns="http://www.w3.org/2000/svg" xmlns:xlink="http://www.w3.org/1999/xlink" width="336" zoomAndPan="magnify" viewBox="0 0 252 143.999998" height="192" preserveAspectRatio="xMidYMid meet" version="1.0"><defs><clipPath id="963732d9e2"><path d="M 62.5625 5.257812 L 149 5.257812 L 149 138.757812 L 62.5625 138.757812 Z M 62.5625 5.257812 " clip-rule="nonzero"/></clipPath></defs><g clip-path="url(#963732d9e2)"><path fill="#ffffff" d="M 145.472656 6.253906 C 143.878906 5.445312 141.96875 5.589844 140.523438 6.644531 L 89.519531 43.734375 L 67.3125 43.734375 C 64.6875 43.734375 62.5625 45.859375 62.5625 48.484375 L 62.5625 95.984375 C 62.5625 98.609375 64.6875 100.734375 67.3125 100.734375 L 89.519531 100.734375 L 140.523438 137.824219 C 141.347656 138.429688 142.332031 138.734375 143.3125 138.734375 C 144.050781 138.734375 144.789062 138.5625 145.472656 138.214844 C 147.0625 137.410156 148.0625 135.769531 148.0625 133.984375 L 148.0625 10.484375 C 148.0625 8.699219 147.0625 7.058594 145.472656 6.253906 Z M 145.472656 6.253906 " fill-opacity="1" fill-rule="nonzero"/></g><path fill="#ffffff" d="M 194.171875 54.625 C 192.316406 52.769531 189.3125 52.769531 187.457031 54.625 L 176.566406 65.515625 L 165.671875 54.625 C 163.816406 52.769531 160.8125 52.769531 158.957031 54.625 C 157.101562 56.480469 157.101562 59.488281 158.957031 61.34375 L 169.847656 72.234375 L 158.957031 83.125 C 157.101562 84.980469 157.101562 87.988281 158.957031 89.84375 C 159.882812 90.769531 161.097656 91.234375 162.3125 91.234375 C 163.53125 91.234375 164.746094 90.769531 165.671875 89.84375 L 176.566406 78.953125 L 187.457031 89.84375 C 188.382812 90.769531 189.597656 91.234375 190.816406 91.234375 C 192.03125 91.234375 193.246094 90.769531 194.171875 89.84375 C 196.027344 87.988281 196.027344 84.980469 194.171875 83.125 L 183.28125 72.234375 L 194.171875 61.34375 C 196.027344 59.488281 196.027344 56.480469 194.171875 54.625 Z M 194.171875 54.625 " fill-opacity="1" fill-rule="nonzero"/></svg>