<svg xmlns="http://www.w3.org/2000/svg" xmlns:xlink="http://www.w3.org/1999/xlink" width="336" zoomAndPan="magnify" viewBox="0 0 252 143.999998" height="192" preserveAspectRatio="xMidYMid meet" version="1.0"><defs><clipPath id="e26a80d176"><path d="M 49.28125 6.785156 L 139.945312 6.785156 L 139.945312 137.285156 L 49.28125 137.285156 Z M 49.28125 6.785156 " clip-rule="nonzero"/></clipPath></defs><path fill="#ffffff" d="M 166.210938 37.652344 C 163.960938 34.585938 159.589844 33.785156 156.359375 36.042969 C 153.296875 38.304688 152.480469 42.664062 154.738281 45.894531 C 160.242188 53.480469 163.144531 62.523438 163.144531 72.058594 C 163.144531 81.582031 160.242188 90.625 154.738281 98.226562 C 152.480469 101.292969 153.132812 105.8125 156.359375 108.074219 C 157.65625 109.042969 159.097656 109.371094 160.394531 109.371094 C 162.503906 109.371094 164.765625 108.402344 166.046875 106.453125 C 173.320312 96.441406 177.203125 84.496094 177.203125 72.058594 C 177.351562 59.625 173.484375 47.828125 166.210938 37.652344 " fill-opacity="1" fill-rule="nonzero"/><path fill="#ffffff" d="M 184.136719 19.25 C 181.710938 16.171875 177.351562 15.695312 174.285156 18.117188 C 171.222656 20.53125 170.746094 24.902344 173.15625 27.96875 C 183.332031 40.566406 188.65625 55.742188 188.65625 71.894531 C 188.65625 88.050781 183.332031 103.226562 173.15625 115.824219 C 170.746094 118.890625 171.222656 123.261719 174.285156 125.675781 C 175.582031 126.640625 177.1875 127.296875 178.644531 127.296875 C 180.757812 127.296875 182.691406 126.328125 184.136719 124.707031 C 196.09375 109.847656 202.714844 91.117188 202.714844 71.894531 C 202.714844 52.675781 196.09375 34.261719 184.136719 19.25 " fill-opacity="1" fill-rule="nonzero"/><g clip-path="url(#e26a80d176)"><path fill="#ffffff" d="M 136.5 7.289062 C 134.714844 6.484375 132.78125 6.648438 131.160156 7.78125 L 82.710938 44.433594 L 54.292969 44.433594 C 51.542969 44.433594 49.28125 46.695312 49.28125 49.449219 L 49.28125 94.671875 C 49.28125 97.410156 51.542969 99.671875 54.292969 99.671875 L 82.710938 99.671875 L 131.324219 136.339844 C 132.140625 136.980469 133.273438 137.308594 134.390625 137.308594 C 135.207031 137.308594 135.847656 137.144531 136.652344 136.816406 C 138.433594 136.011719 139.402344 134.242188 139.402344 132.308594 L 139.402344 11.8125 C 139.402344 9.878906 138.273438 8.09375 136.5 7.289062 " fill-opacity="1" fill-rule="nonzero"/></g></svg>